<svg width="1949" height="1950" xmlns="http://www.w3.org/2000/svg" xmlns:xlink="http://www.w3.org/1999/xlink" xml:space="preserve" overflow="hidden"><g transform="matrix(1 0 0 1 0 -244)"><path d="M1.00003 245 765 245 765 2179 1.00003 2179Z" stroke="#000000" stroke-width="1.71785" stroke-miterlimit="8" fill="#E6E6E6" fill-rule="evenodd"/><path d="M1184 245 1948 245 1948 2193 1184 2193Z" stroke="#000000" stroke-width="1.71785" stroke-miterlimit="8" fill="#E6E6E6" fill-rule="evenodd"/><path d="M1044 470 1256 470" stroke="#000000" stroke-width="1.71785" stroke-miterlimit="8" fill="none" fill-rule="evenodd"/><path d="M1626.78 524 1626.78 576.546 1627 581.195C1627 596.534 1614.53 608.967 1599.16 608.967L1569.7 609 1044 609" stroke="#000000" stroke-width="1.71785" stroke-miterlimit="8" fill="none" fill-rule="evenodd"/><path d="M1365.5 796.5 1365.5 929.5" stroke="#000000" stroke-width="4.90814" stroke-linecap="square" stroke-miterlimit="8" fill="none" fill-rule="evenodd"/><path d="M804.117 1294 804 1265.67C804 1250.39 816.409 1238 831.715 1238L871 1238.22" stroke="#000000" stroke-width="1.71785" stroke-miterlimit="8" fill="none" fill-rule="evenodd"/><path d="M804.117 1155 804 1126.17C804 1110.61 816.409 1098 831.715 1098L871 1098.22" stroke="#000000" stroke-width="1.71785" stroke-miterlimit="8" fill="none" fill-rule="evenodd"/><path d="M804.117 945 804 916.679C804 901.391 816.409 889 831.715 889L871 889.223" stroke="#000000" stroke-width="1.71785" stroke-miterlimit="8" fill="none" fill-rule="evenodd"/><path d="M700.003 1833C699.825 1832.83 707.378 1831.58 771.001 1832 788.869 1830.95 802.896 1818.18 803.777 1803.55 803.003 1408.22 804.517 1024.74 803.742 629.406 803.742 619.466 816.199 603 831.564 603L871 603.147" stroke="#000000" stroke-width="1.71785" stroke-miterlimit="8" fill="none" fill-rule="evenodd"/><path d="M869.5 1688.5 1080.5 1688.5 1080.5 1794.5 869.5 1794.5Z" stroke="#000000" stroke-width="4.90814" stroke-miterlimit="8" fill="#FFFFFF" fill-rule="evenodd"/><path d="M869.5 1187.5 1080.5 1187.5 1080.5 1292.5 869.5 1292.5Z" stroke="#000000" stroke-width="4.90814" stroke-miterlimit="8" fill="#FFFFFF" fill-rule="evenodd"/><path d="M869 1186.36 919.143 1237 1029.5 1237 1080 1186" stroke="#000000" stroke-width="1.71785" stroke-miterlimit="8" fill="none" fill-rule="evenodd"/><text font-family="Arial,Arial_MSFontService,sans-serif" font-weight="400" font-size="30" transform="matrix(1 0 0 1 941.968 1227)">Hf01</text><text font-family="Arial,Arial_MSFontService,sans-serif" font-weight="400" font-size="30" transform="matrix(1 0 0 1 910.873 1277)">Code “G"</text><path d="M869.5 1444.5 1080.5 1444.5 1080.5 1550.5 869.5 1550.5Z" stroke="#000000" stroke-width="4.90814" stroke-miterlimit="8" fill="#FFFFFF" fill-rule="evenodd"/><path d="M660 470 873 470" stroke="#000000" stroke-width="1.71785" stroke-miterlimit="8" fill="none" fill-rule="evenodd"/><path d="M828 469.815 785 458 785 481Z" fill-rule="evenodd"/><path d="M869.5 419.5 1080.5 419.5 1080.5 525.5 869.5 525.5Z" stroke="#000000" stroke-width="4.90814" stroke-miterlimit="8" fill="#FFFFFF" fill-rule="evenodd"/><text font-family="Arial,Arial_MSFontService,sans-serif" font-weight="400" font-size="30" transform="matrix(1 0 0 1 937.642 460)">Hq01</text><path d="M869 419.357 919.143 470 1029.5 470 1080 419" stroke="#000000" stroke-width="1.71785" stroke-miterlimit="8" fill="none" fill-rule="evenodd"/><path d="M869.5 559.5 1080.5 559.5 1080.5 664.5 869.5 664.5Z" stroke="#000000" stroke-width="4.90814" stroke-miterlimit="8" fill="#FFFFFF" fill-rule="evenodd"/><text font-family="Arial,Arial_MSFontService,sans-serif" font-weight="400" font-size="30" transform="matrix(1 0 0 1 941.968 599)">Hf01</text><text font-family="Arial,Arial_MSFontService,sans-serif" font-weight="400" font-size="30" transform="matrix(1 0 0 1 911.687 649)">Code "X"</text><path d="M1365.5 524.5 1365.5 645.5" stroke="#000000" stroke-width="4.90814" stroke-linecap="square" stroke-miterlimit="8" fill="none" fill-rule="evenodd"/><path d="M1142 469.815 1098 458 1098 481Z" fill-rule="evenodd"/><path d="M1714.13 419C1729.52 419 1742 431.416 1742 446.734L1742 495.268C1742 510.584 1729.52 523 1714.13 523L1279.87 523C1264.47 523 1252 510.584 1252 495.268L1252 446.734C1252 431.416 1264.47 419 1279.87 419L1714.13 419Z" stroke="#000000" stroke-width="1.71785" stroke-miterlimit="8" fill="#FFFFFF" fill-rule="evenodd"/><text font-family="Arial,Arial_MSFontService,sans-serif" font-weight="400" font-size="35" transform="matrix(1 0 0 1 1280.96 466)">Afnemer geautoriseerd</text><text font-family="Arial,Arial_MSFontService,sans-serif" font-weight="400" font-size="35" transform="matrix(1 0 0 1 1280.96 501)">voor stellen ad hoc vragen?</text><path d="M1430.05 514C1437.75 514 1444 520.231 1444 527.916L1444 535.084C1444 542.773 1437.75 549 1430.05 549L1301.94 549C1294.24 549 1288 542.773 1288 535.084L1288 527.916C1288 520.229 1294.24 514 1301.94 514L1430.05 514Z" stroke="#000000" stroke-width="1.71785" stroke-miterlimit="8" fill="#FFFFFF" fill-rule="evenodd"/><text font-family="Arial,Arial_MSFontService,sans-serif" font-weight="400" font-size="24" transform="matrix(1 0 0 1 1353.2 541)">Ja</text><path d="M1097 609.301 1140 598 1140 620Z" fill-rule="evenodd"/><path d="M869 558.355 919.143 609 1029.5 609 1080 558" stroke="#000000" stroke-width="1.71785" stroke-miterlimit="8" fill="none" fill-rule="evenodd"/><path d="M1556.77 803 1556.77 856.165 1557 860.87C1557 876.388 1544.54 888.97 1529.18 888.97L1499.75 889 1044 889" stroke="#000000" stroke-width="1.71785" stroke-miterlimit="8" fill="none" fill-rule="evenodd"/><path d="M869.5 838.5 1080.5 838.5 1080.5 944.5 869.5 944.5Z" stroke="#000000" stroke-width="4.90814" stroke-miterlimit="8" fill="#FFFFFF" fill-rule="evenodd"/><text font-family="Arial,Arial_MSFontService,sans-serif" font-weight="400" font-size="30" transform="matrix(1 0 0 1 942.233 879)">Hf01</text><text font-family="Arial,Arial_MSFontService,sans-serif" font-weight="400" font-size="30" transform="matrix(1 0 0 1 911.687 928)">Code "X"</text><path d="M1644.16 663C1659.54 663 1672 675.535 1672 690.999L1672 775.002C1672 790.465 1659.54 803 1644.16 803L1279.84 803C1264.46 803 1252 790.465 1252 775.002L1252 690.999C1252 675.535 1264.46 663 1279.84 663L1644.16 663Z" stroke="#000000" stroke-width="1.71785" stroke-miterlimit="8" fill="#FFFFFF" fill-rule="evenodd"/><text font-family="Arial,Arial_MSFontService,sans-serif" font-weight="400" font-size="35" transform="matrix(1 0 0 1 1280.96 711)">Afnemer geautoriseerd</text><text font-family="Arial,Arial_MSFontService,sans-serif" font-weight="400" font-size="35" transform="matrix(1 0 0 1 1280.96 746)">voor gebruikte</text><text font-family="Arial,Arial_MSFontService,sans-serif" font-weight="400" font-size="35" transform="matrix(1 0 0 1 1280.96 781)">rubrieken?</text><path d="M1430.05 793C1437.75 793 1444 799.228 1444 806.914L1444 814.086C1444 821.771 1437.75 828 1430.05 828L1301.94 828C1294.24 828 1288 821.771 1288 814.086L1288 806.914C1288 799.228 1294.24 793 1301.94 793L1430.05 793Z" stroke="#000000" stroke-width="1.71785" stroke-miterlimit="8" fill="#FFFFFF" fill-rule="evenodd"/><text font-family="Arial,Arial_MSFontService,sans-serif" font-weight="400" font-size="24" transform="matrix(1 0 0 1 1353.2 821)">Ja</text><path d="M1097 889.309 1140 878 1140 900Z" fill-rule="evenodd"/><path d="M869 838.348 919.143 888 1029.5 888 1080 838" stroke="#000000" stroke-width="1.71785" stroke-miterlimit="8" fill="none" fill-rule="evenodd"/><path d="M1097 1098.3 1140 1087 1140 1109Z" fill-rule="evenodd"/><path d="M869.5 1047.5 1080.5 1047.5 1080.5 1153.5 869.5 1153.5Z" stroke="#000000" stroke-width="4.90814" stroke-miterlimit="8" fill="#FFFFFF" fill-rule="evenodd"/><path d="M869 1047.36 919.143 1098 1029.5 1098 1080 1047" stroke="#000000" stroke-width="1.71785" stroke-miterlimit="8" fill="none" fill-rule="evenodd"/><path d="M1765.78 1013 1765.78 1065.55 1766 1070.2C1766 1085.54 1753.52 1097.97 1738.13 1097.97L1708.66 1098 1078 1098" stroke="#000000" stroke-width="1.71785" stroke-miterlimit="8" fill="none" fill-rule="evenodd"/><path d="M1853.15 942C1868.53 942 1881 954.537 1881 970L1881 984.001C1881 999.467 1868.53 1012 1853.15 1012L1279.85 1012C1264.46 1012 1252 999.467 1252 984.001L1252 970C1252 954.537 1264.46 942 1279.85 942L1853.15 942Z" stroke="#000000" stroke-width="1.71785" stroke-miterlimit="8" fill="#FFFFFF" fill-rule="evenodd"/><text font-family="Arial,Arial_MSFontService,sans-serif" font-weight="400" font-size="35" transform="matrix(1 0 0 1 1280.96 990)">Zoek persoon in PL</text><text font-family="Arial,Arial_MSFontService,sans-serif" font-weight="400" font-size="35" transform="matrix(1 0 0 1 1586.32 990)">-</text><text font-family="Arial,Arial_MSFontService,sans-serif" font-weight="400" font-size="35" transform="matrix(1 0 0 1 1598.36 990)">bestand</text><path d="M1430.05 1003C1437.75 1003 1444 1009.23 1444 1016.91L1444 1024.09C1444 1031.77 1437.75 1038 1430.05 1038L1301.94 1038C1294.24 1038 1288 1031.77 1288 1024.09L1288 1016.91C1288 1009.23 1294.24 1003 1301.94 1003L1430.05 1003Z" stroke="#000000" stroke-width="1.71785" stroke-miterlimit="8" fill="#FFFFFF" fill-rule="evenodd"/><text font-family="Arial,Arial_MSFontService,sans-serif" font-weight="400" font-size="24" transform="matrix(1 0 0 1 1307.93 1030)">Gevonden</text><path d="M1623.06 1003C1630.76 1003 1637 1009.23 1637 1016.91L1637 1024.09C1637 1031.77 1630.76 1038 1623.06 1038L1494.94 1038C1487.24 1038 1481 1031.77 1481 1024.09L1481 1016.91C1481 1009.23 1487.24 1003 1494.94 1003L1623.06 1003Z" stroke="#000000" stroke-width="1.71785" stroke-miterlimit="8" fill="#FFFFFF" fill-rule="evenodd"/><text font-family="Arial,Arial_MSFontService,sans-serif" font-weight="400" font-size="24" transform="matrix(1 0 0 1 1499.34 1030)">Niet aanw.</text><text font-family="Arial,Arial_MSFontService,sans-serif" font-weight="400" font-size="30" transform="matrix(1 0 0 1 942.233 1088)">Hf01</text><text font-family="Arial,Arial_MSFontService,sans-serif" font-weight="400" font-size="30" transform="matrix(1 0 0 1 910.873 1137)">Code "U"</text><path d="M0 0 0 1273" stroke="#000000" stroke-width="4.90814" stroke-linecap="square" stroke-miterlimit="8" fill="none" fill-rule="evenodd" transform="matrix(-1 0 0 1 494.5 489.5)"/><path d="M1679.5 524.5 1679.5 594.5 1853.5 594.5" stroke="#000000" stroke-width="4.90814" stroke-linecap="square" stroke-miterlimit="8" fill="none" fill-rule="evenodd"/><path d="M1609.5 804.5 1609.5 873.5 1853.5 873.5" stroke="#000000" stroke-width="4.90814" stroke-linecap="square" stroke-miterlimit="8" fill="none" fill-rule="evenodd"/><path d="M1818.5 1013.5 1818.5 1082.5" stroke="#000000" stroke-width="4.90814" stroke-linecap="square" stroke-miterlimit="8" fill="none" fill-rule="evenodd"/><path d="M1692.06 514C1699.76 514 1706 520.231 1706 527.916L1706 535.084C1706 542.773 1699.76 549 1692.06 549L1563.94 549C1556.25 549 1550 542.773 1550 535.084L1550 527.916C1550 520.229 1556.25 514 1563.94 514L1692.06 514Z" stroke="#000000" stroke-width="1.71785" stroke-miterlimit="8" fill="#FFFFFF" fill-rule="evenodd"/><path d="M1623.06 793C1630.76 793 1637 799.228 1637 806.914L1637 814.086C1637 821.771 1630.76 828 1623.06 828L1494.94 828C1487.24 828 1481 821.771 1481 814.086L1481 806.914C1481 799.228 1487.24 793 1494.94 793L1623.06 793Z" stroke="#000000" stroke-width="1.71785" stroke-miterlimit="8" fill="#FFFFFF" fill-rule="evenodd"/><text font-family="Arial,Arial_MSFontService,sans-serif" font-weight="400" font-size="24" transform="matrix(1 0 0 1 1535.59 821)">Nee</text><text font-family="Arial,Arial_MSFontService,sans-serif" font-weight="400" font-size="24" transform="matrix(1 0 0 1 1605.26 541)">Nee</text><path d="M1832.05 1003C1839.75 1003 1846 1009.23 1846 1016.91L1846 1024.09C1846 1031.77 1839.75 1038 1832.05 1038L1703.95 1038C1696.25 1038 1690 1031.77 1690 1024.09L1690 1016.91C1690 1009.23 1696.25 1003 1703.95 1003L1832.05 1003Z" stroke="#000000" stroke-width="1.71785" stroke-miterlimit="8" fill="#FFFFFF" fill-rule="evenodd"/><text font-family="Arial,Arial_MSFontService,sans-serif" font-weight="400" font-size="24" transform="matrix(1 0 0 1 1711.65 1030)">Niet uniek</text><path d="M1365.77 628.897 1385 622 1365.77 663 1346 622Z" fill-rule="evenodd"/><path d="M1253.5 316.566C1253.5 280.5 1287.91 280.5 1287.91 280.5L1845.79 280.5C1845.79 280.5 1880.5 280.192 1880.5 315.334 1880.5 350.474 1844.56 350.476 1844.56 350.476L1287.91 350.476C1287.91 350.474 1253.5 352.633 1253.5 316.566Z" stroke="#000000" stroke-width="1.22703" stroke-miterlimit="8" fill="#FFFFFF" fill-rule="evenodd"/><text font-family="Arial,Arial_MSFontService,sans-serif" font-weight="400" font-size="39" transform="matrix(1 0 0 1 1389.64 329)">BRP Verstrekkingen</text><path d="M68.4999 316.566C68.4999 280.5 102.907 280.5 102.907 280.5L660.787 280.5C660.787 280.5 695.5 280.192 695.5 315.334 695.5 350.474 659.558 350.476 659.558 350.476L102.907 350.476C102.907 350.474 68.4999 352.633 68.4999 316.566Z" stroke="#000000" stroke-width="1.22703" stroke-miterlimit="8" fill="#FFFFFF" fill-rule="evenodd"/><text font-family="Arial,Arial_MSFontService,sans-serif" font-weight="400" font-size="41" transform="matrix(1 0 0 1 303.952 330)">Afnemer</text><path d="M1915.5 594C1915.5 613.054 1900.05 628.5 1881 628.5 1861.95 628.5 1846.5 613.054 1846.5 594 1846.5 574.946 1861.95 559.5 1881 559.5 1900.05 559.5 1915.5 574.946 1915.5 594Z" stroke="#000000" stroke-width="1.22703" stroke-miterlimit="8" fill="#FFFFFF" fill-rule="evenodd"/><text font-family="Arial,Arial_MSFontService,sans-serif" font-weight="400" font-size="49" transform="matrix(1 0 0 1 1866.44 614)">1</text><path d="M1915.5 873.5C1915.5 892.278 1900.05 907.5 1881 907.5 1861.95 907.5 1846.5 892.278 1846.5 873.5 1846.5 854.722 1861.95 839.5 1881 839.5 1900.05 839.5 1915.5 854.722 1915.5 873.5Z" stroke="#000000" stroke-width="1.22703" stroke-miterlimit="8" fill="#FFFFFF" fill-rule="evenodd"/><text font-family="Arial,Arial_MSFontService,sans-serif" font-weight="400" font-size="49" transform="matrix(1 0 0 1 1866.44 893)">2</text><path d="M1915.5 1083C1915.5 1102.05 1900.05 1117.5 1881 1117.5 1861.95 1117.5 1846.5 1102.05 1846.5 1083 1846.5 1063.95 1861.95 1048.5 1881 1048.5 1900.05 1048.5 1915.5 1063.95 1915.5 1083Z" stroke="#000000" stroke-width="1.22703" stroke-miterlimit="8" fill="#FFFFFF" fill-rule="evenodd"/><text font-family="Arial,Arial_MSFontService,sans-serif" font-weight="400" font-size="49" transform="matrix(1 0 0 1 1866.44 1102)">3</text><path d="M1881 1532.5C1900.05 1532.5 1915.5 1517.06 1915.5 1498 1915.5 1478.95 1900.05 1463.5 1881 1463.5 1861.94 1463.5 1846.5 1478.95 1846.5 1498 1846.5 1517.06 1861.94 1532.5 1881 1532.5Z" stroke="#000000" stroke-width="1.22703" stroke-miterlimit="8" fill="#FFFFFF" fill-rule="evenodd"/><path d="M1915.5 1743C1915.5 1762.05 1900.05 1777.5 1881 1777.5 1861.95 1777.5 1846.5 1762.05 1846.5 1743 1846.5 1723.95 1861.95 1708.5 1881 1708.5 1900.05 1708.5 1915.5 1723.95 1915.5 1743Z" stroke="#000000" stroke-width="1.22703" stroke-miterlimit="8" fill="#FFFFFF" fill-rule="evenodd"/><path d="M1565.5 830C1565.5 834.142 1562.14 837.5 1558 837.5 1553.86 837.5 1550.5 834.142 1550.5 830 1550.5 825.858 1553.86 822.5 1558 822.5 1562.14 822.5 1565.5 825.858 1565.5 830Z" stroke="#000000" stroke-width="1.22703" stroke-linecap="square" stroke-miterlimit="8" fill="#FFFFFF" fill-rule="evenodd"/><path d="M1365.27 907.066 1385 900 1365.27 942 1345 900Z" fill-rule="evenodd"/><path d="M1774.5 1040C1774.5 1044.14 1771.14 1047.5 1767 1047.5 1762.86 1047.5 1759.5 1044.14 1759.5 1040 1759.5 1035.86 1762.86 1032.5 1767 1032.5 1771.14 1032.5 1774.5 1035.86 1774.5 1040Z" stroke="#000000" stroke-width="1.22703" stroke-linecap="square" stroke-miterlimit="8" fill="#FFFFFF" fill-rule="evenodd"/><path d="M1634.5 551C1634.5 555.142 1631.14 558.5 1627 558.5 1622.86 558.5 1619.5 555.142 1619.5 551 1619.5 546.858 1622.86 543.5 1627 543.5 1631.14 543.5 1634.5 546.858 1634.5 551Z" stroke="#000000" stroke-width="1.22703" stroke-linecap="square" stroke-miterlimit="8" fill="#FFFFFF" fill-rule="evenodd"/><path d="M1259.5 470.5C1259.5 474.366 1256.37 477.5 1252.5 477.5 1248.63 477.5 1245.5 474.366 1245.5 470.5 1245.5 466.634 1248.63 463.5 1252.5 463.5 1256.37 463.5 1259.5 466.634 1259.5 470.5Z" stroke="#000000" stroke-width="1.22703" stroke-linecap="square" stroke-miterlimit="8" fill="#FFFFFF" fill-rule="evenodd"/><path d="M303.91 435C288.496 435 276 447.355 276 462.597L276 476.399C276 491.644 288.496 504 303.91 504L669.089 504C684.503 504 697 491.644 697 476.399L697 462.597C697 447.355 684.503 435 669.089 435L303.91 435Z" stroke="#000000" stroke-width="1.71785" stroke-miterlimit="8" fill="#FFFFFF" fill-rule="evenodd"/><text font-family="Arial,Arial_MSFontService,sans-serif" font-weight="400" font-size="35" transform="matrix(1 0 0 1 291.483 482)">Verzoek om informatie</text><path d="M704.5 470.5C704.5 474.366 701.142 477.5 697 477.5 692.858 477.5 689.5 474.366 689.5 470.5 689.5 466.634 692.858 463.5 697 463.5 701.142 463.5 704.5 466.634 704.5 470.5Z" stroke="#000000" stroke-width="1.22703" stroke-linecap="square" stroke-miterlimit="8" fill="#FFFFFF" fill-rule="evenodd"/><path d="M1097.74 1238.94 1141.74 1227.2 1141.74 1249.2 1097.74 1238.94Z" fill-rule="evenodd"/><path d="M1599.4 1082.67 1843.48 1082.67 1843.48 1085.85 1594.48 1085.85 1594.48 1037.85 1599.4 1037.85 1599.4 1082.67Z" fill-rule="evenodd"/><path d="M1561 1038 1561 1209.95C1561 1225.2 1548.7 1238 1533.46 1238L1503.95 1238 1078 1238" stroke="#000000" stroke-width="1.96398" stroke-miterlimit="8" fill="none" fill-rule="evenodd"/><path d="M1567.5 1038.5C1567.5 1042.37 1564.37 1045.5 1560.5 1045.5 1556.63 1045.5 1553.5 1042.37 1553.5 1038.5 1553.5 1034.63 1556.63 1031.5 1560.5 1031.5 1564.37 1031.5 1567.5 1034.63 1567.5 1038.5Z" stroke="#000000" stroke-width="1.22703" stroke-linecap="square" stroke-miterlimit="8" fill="#FFFFFF" fill-rule="evenodd"/><path d="M910 1867 696 1868" stroke="#000000" stroke-width="1.71785" stroke-miterlimit="8" fill="none" fill-rule="evenodd"/><path d="M1328 1867 1044 1868" stroke="#000000" stroke-width="1.71785" stroke-miterlimit="8" fill="none" fill-rule="evenodd"/><path d="M1097 1866.3 1140 1855 1140 1877Z" fill-rule="evenodd"/><path d="M582.5 1886.5 582.5 2039.5" stroke="#000000" stroke-width="4.90814" stroke-linecap="square" stroke-miterlimit="8" fill="none" fill-rule="evenodd"/><path d="M1365.5 1869.5 1365.5 2036.5" stroke="#000000" stroke-width="4.90814" stroke-linecap="square" stroke-miterlimit="8" fill="none" fill-rule="evenodd"/><path d="M804.117 1551 804 1522.68C804 1507.39 816.409 1495 831.715 1495L871 1495.22" stroke="#000000" stroke-width="1.71785" stroke-miterlimit="8" fill="none" fill-rule="evenodd"/><path d="M804.117 1796 804 1767.16C804 1751.61 816.409 1739 831.715 1739L871 1739.23" stroke="#000000" stroke-width="1.71785" stroke-miterlimit="8" fill="none" fill-rule="evenodd"/><path d="M1556.77 1672.78 1556.77 1656 1557 1712.37C1557 1727.6 1544.53 1739.96 1529.15 1739.96L1499.7 1740 1213.53 1739.53 1174.05 1739.76 1118.47 1738.71 1079 1738.93" stroke="#000000" stroke-width="1.71785" stroke-miterlimit="8" fill="none" fill-rule="evenodd"/><path d="M869 1688.35 919.143 1738 1029.5 1738 1080 1688" stroke="#000000" stroke-width="1.71785" stroke-miterlimit="8" fill="none" fill-rule="evenodd"/><text font-family="Arial,Arial_MSFontService,sans-serif" font-weight="400" font-size="30" transform="matrix(1 0 0 1 941.748 1729)">Hf01</text><text font-family="Arial,Arial_MSFontService,sans-serif" font-weight="400" font-size="30" transform="matrix(1 0 0 1 910.873 1778)">Code "R"</text><path d="M1097 1739.31 1140 1728 1140 1750Z" fill-rule="evenodd"/><path d="M1365.5 1378.5 1365.5 1545.5" stroke="#000000" stroke-width="4.90814" stroke-linecap="square" stroke-miterlimit="8" fill="none" fill-rule="evenodd"/><path d="M1556.77 1427.98 1556.77 1411 1557 1468.04C1557 1483.46 1544.53 1495.97 1529.15 1495.97L1499.7 1496 1213.53 1495.53 1174.05 1495.76 1118.47 1494.7 1079 1494.92" stroke="#000000" stroke-width="1.71785" stroke-miterlimit="8" fill="none" fill-rule="evenodd"/><path d="M869 1444.35 919.143 1494 1029.5 1494 1080 1444" stroke="#000000" stroke-width="1.71785" stroke-miterlimit="8" fill="none" fill-rule="evenodd"/><text font-family="Arial,Arial_MSFontService,sans-serif" font-weight="400" font-size="30" transform="matrix(1 0 0 1 941.968 1485)">Hf01</text><text font-family="Arial,Arial_MSFontService,sans-serif" font-weight="400" font-size="30" transform="matrix(1 0 0 1 910.873 1534)">Code "H"</text><path d="M1097 1494.31 1140 1483 1140 1505Z" fill-rule="evenodd"/><path d="M1365 1511.16 1365 1494 1366 1534" stroke="#000000" stroke-width="1.71785" stroke-miterlimit="8" fill="none" fill-rule="evenodd"/><path d="M1644.16 1287C1659.54 1287 1672 1299.45 1672 1314.8L1672 1398.2C1672 1413.56 1659.54 1426 1644.16 1426L1279.84 1426C1264.46 1426 1252 1413.56 1252 1398.2L1252 1314.8C1252 1299.45 1264.46 1287 1279.84 1287L1644.16 1287Z" stroke="#000000" stroke-width="1.71785" stroke-miterlimit="8" fill="#FFFFFF" fill-rule="evenodd"/><path d="M1430.05 1417C1437.75 1417 1444 1423.23 1444 1430.91L1444 1438.08C1444 1445.77 1437.75 1452 1430.05 1452L1301.94 1452C1294.24 1452 1288 1445.77 1288 1438.08L1288 1430.91C1288 1423.23 1294.24 1417 1301.94 1417L1430.05 1417Z" stroke="#000000" stroke-width="1.71785" stroke-miterlimit="8" fill="#FFFFFF" fill-rule="evenodd"/><text font-family="Arial,Arial_MSFontService,sans-serif" font-weight="400" font-size="24" transform="matrix(1 0 0 1 1343.66 1444)">Nee</text><text font-family="Arial,Arial_MSFontService,sans-serif" font-weight="400" font-size="35" transform="matrix(1 0 0 1 1280.96 1334)">Staat indicatie geheim</text><text font-family="Arial,Arial_MSFontService,sans-serif" font-weight="400" font-size="35" transform="matrix(1 0 0 1 1280.96 1369)">aan op PL en in</text><text font-family="Arial,Arial_MSFontService,sans-serif" font-weight="400" font-size="35" transform="matrix(1 0 0 1 1280.96 1404)">autorisatietabelregel?</text><path d="M1365.5 1624.5 1365.5 1792.5" stroke="#000000" stroke-width="4.90814" stroke-linecap="square" stroke-miterlimit="8" fill="none" fill-rule="evenodd"/><path d="M1644.16 1566C1659.54 1566 1672 1578.42 1672 1593.73L1672 1642.27C1672 1657.59 1659.54 1670 1644.16 1670L1279.84 1670C1264.46 1670 1252 1657.59 1252 1642.27L1252 1593.73C1252 1578.42 1264.46 1566 1279.84 1566L1644.16 1566Z" stroke="#000000" stroke-width="1.71785" stroke-miterlimit="8" fill="#FFFFFF" fill-rule="evenodd"/><text font-family="Arial,Arial_MSFontService,sans-serif" font-weight="400" font-size="35" transform="matrix(1 0 0 1 1280.96 1613)">Voldoet persoon aan</text><text font-family="Arial,Arial_MSFontService,sans-serif" font-weight="400" font-size="35" transform="matrix(1 0 0 1 1280.96 1648)">voorwaarderegel?</text><path d="M1430.05 1661C1437.75 1661 1444 1667.23 1444 1674.91L1444 1682.08C1444 1689.77 1437.75 1696 1430.05 1696L1301.94 1696C1294.24 1696 1288 1689.77 1288 1682.08L1288 1674.91C1288 1667.23 1294.24 1661 1301.94 1661L1430.05 1661Z" stroke="#000000" stroke-width="1.71785" stroke-miterlimit="8" fill="#FFFFFF" fill-rule="evenodd"/><text font-family="Arial,Arial_MSFontService,sans-serif" font-weight="400" font-size="24" transform="matrix(1 0 0 1 1353.03 1688)">Ja</text><path d="M669.155 1781C684.532 1781 697 1793.44 697 1808.8L697 1892.2C697 1907.54 684.532 1920 669.155 1920L304.843 1920C289.466 1920 277 1907.54 277 1892.2L277 1808.8C277 1793.44 289.466 1781 304.843 1781L669.155 1781Z" stroke="#000000" stroke-width="1.71785" stroke-miterlimit="8" fill="#FFFFFF" fill-rule="evenodd"/><text font-family="Arial,Arial_MSFontService,sans-serif" font-weight="400" font-size="35" transform="matrix(1 0 0 1 305.447 1828)">Wacht op antwoord</text><path d="M713 1832.3 757 1821 757 1843Z" fill-rule="evenodd"/><path d="M1853.15 1828C1868.53 1828 1881 1840.37 1881 1855.62L1881 1869.4C1881 1884.65 1868.53 1897 1853.15 1897L1279.85 1897C1264.46 1897 1252 1884.65 1252 1869.4L1252 1855.62C1252 1840.37 1264.46 1828 1279.85 1828L1853.15 1828Z" stroke="#000000" stroke-width="1.71785" stroke-miterlimit="8" fill="#FFFFFF" fill-rule="evenodd"/><text font-family="Arial,Arial_MSFontService,sans-serif" font-weight="400" font-size="35" transform="matrix(1 0 0 1 1280.96 1875)">Verzend gevraagde gegevens</text><path d="M869.5 1816.5 1080.5 1816.5 1080.5 1922.5 869.5 1922.5Z" stroke="#000000" stroke-width="4.90814" stroke-miterlimit="8" fill="#FFFFFF" fill-rule="evenodd"/><path d="M869 1816.35 919.143 1866 1029.5 1866 1080 1816" stroke="#000000" stroke-width="1.71785" stroke-miterlimit="8" fill="none" fill-rule="evenodd"/><text font-family="Arial,Arial_MSFontService,sans-serif" font-weight="400" font-size="30" transform="matrix(1 0 0 1 937.642 1857)">Ha01</text><text font-family="Arial,Arial_MSFontService,sans-serif" font-weight="400" font-size="30" transform="matrix(1 0 0 1 916.069 1906)">A</text><text font-family="Arial,Arial_MSFontService,sans-serif" font-weight="400" font-size="30" transform="matrix(1 0 0 1 935.548 1906)">/</text><text font-family="Arial,Arial_MSFontService,sans-serif" font-weight="400" font-size="30" transform="matrix(1 0 0 1 943.569 1906)">B/</text><text font-family="Arial,Arial_MSFontService,sans-serif" font-weight="400" font-size="30" transform="matrix(1 0 0 1 971.069 1906)">E</text><text font-family="Arial,Arial_MSFontService,sans-serif" font-weight="400" font-size="30" transform="matrix(1 0 0 1 990.548 1906)">/M/O</text><path d="M713 1866.3 757 1855 757 1877Z" fill-rule="evenodd"/><path d="M390.235 1944 390.118 1915.41 390.118 1888.72 390 1860.13C390 1844.7 402.441 1832.2 417.788 1832.2L446.029 1832 699 1832.22" stroke="#000000" stroke-width="1.71785" stroke-miterlimit="8" stroke-dasharray="9.66289 6.44193" fill="none" fill-rule="evenodd"/><path d="M582.122 1923 582 1894.78C582 1879.54 594.502 1867.17 609.925 1867.17L638.311 1867 696 1867.21" stroke="#000000" stroke-width="1.71785" stroke-miterlimit="8" stroke-dasharray="9.66289 6.44193" fill="none" fill-rule="evenodd"/><path d="M647.057 1911C654.755 1911 661 1917.25 661 1924.93L661 1932.09C661 1939.77 654.755 1946 647.057 1946L518.947 1946C511.245 1946 505 1939.77 505 1932.09L505 1924.93C505 1917.25 511.245 1911 518.947 1911L647.057 1911Z" stroke="#000000" stroke-width="1.71785" stroke-miterlimit="8" fill="#FFFFFF" fill-rule="evenodd"/><text font-family="Arial,Arial_MSFontService,sans-serif" font-weight="400" font-size="24" transform="matrix(1 0 0 1 553.197 1938)">Ha01</text><path d="M668.134 2060C683.526 2060 696 2072.53 696 2088L696 2102C696 2117.45 683.526 2130 668.134 2130L233.866 2130C218.476 2130 206 2117.45 206 2102L206 2088C206 2072.53 218.476 2060 233.866 2060L668.134 2060Z" stroke="#000000" stroke-width="1.71785" stroke-miterlimit="8" fill="#FFFFFF" fill-rule="evenodd"/><path d="M1715.13 2060C1730.52 2060 1743 2072.53 1743 2088L1743 2102C1743 2117.45 1730.52 2130 1715.13 2130L1280.86 2130C1265.48 2130 1253 2117.45 1253 2102L1253 2088C1253 2072.53 1265.48 2060 1280.86 2060L1715.13 2060Z" stroke="#000000" stroke-width="1.71785" stroke-miterlimit="8" fill="#FFFFFF" fill-rule="evenodd"/><text font-family="Arial,Arial_MSFontService,sans-serif" font-weight="400" font-size="35" transform="matrix(1 0 0 1 217.54 2112)">NORMAAL EINDE CYCLUS</text><text font-family="Arial,Arial_MSFontService,sans-serif" font-weight="400" font-size="35" transform="matrix(1 0 0 1 1264.63 2112)">NORMAAL EINDE CYCLUS</text><path d="M390.5 1921.5 390.5 1990.5 91.4999 1990.5" stroke="#000000" stroke-width="4.90814" stroke-linecap="square" stroke-miterlimit="8" fill="none" fill-rule="evenodd"/><path d="M455.053 1911C462.757 1911 469 1917.25 469 1924.93L469 1932.09C469 1939.77 462.757 1946 455.053 1946L326.943 1946C319.245 1946 313 1939.77 313 1932.09L313 1924.93C313 1917.25 319.245 1911 326.943 1911L455.053 1911Z" stroke="#000000" stroke-width="1.71785" stroke-miterlimit="8" fill="#FFFFFF" fill-rule="evenodd"/><text font-family="Arial,Arial_MSFontService,sans-serif" font-weight="400" font-size="24" transform="matrix(1 0 0 1 364.504 1938)">Hf01</text><path d="M1609.5 1428.5 1609.5 1497.5 1846.5 1497.5" stroke="#000000" stroke-width="4.90814" stroke-linecap="square" stroke-miterlimit="8" fill="none" fill-rule="evenodd"/><path d="M1623.06 1417C1630.76 1417 1637 1423.23 1637 1430.91L1637 1438.08C1637 1445.77 1630.76 1452 1623.06 1452L1494.94 1452C1487.24 1452 1481 1445.77 1481 1438.08L1481 1430.91C1481 1423.23 1487.24 1417 1494.94 1417L1623.06 1417Z" stroke="#000000" stroke-width="1.71785" stroke-miterlimit="8" fill="#FFFFFF" fill-rule="evenodd"/><text font-family="Arial,Arial_MSFontService,sans-serif" font-weight="400" font-size="24" transform="matrix(1 0 0 1 1545.45 1444)">Ja</text><path d="M1609.5 1672.5 1609.5 1741.5 1846.5 1741.5" stroke="#000000" stroke-width="4.90814" stroke-linecap="square" stroke-miterlimit="8" fill="none" fill-rule="evenodd"/><path d="M1623.06 1661C1630.76 1661 1637 1667.23 1637 1674.91L1637 1682.08C1637 1689.77 1630.76 1696 1623.06 1696L1494.94 1696C1487.24 1696 1481 1689.77 1481 1682.08L1481 1674.91C1481 1667.23 1487.24 1661 1494.94 1661L1623.06 1661Z" stroke="#000000" stroke-width="1.71785" stroke-miterlimit="8" fill="#FFFFFF" fill-rule="evenodd"/><text font-family="Arial,Arial_MSFontService,sans-serif" font-weight="400" font-size="24" transform="matrix(1 0 0 1 1535.92 1688)">Nee</text><text font-family="Arial,Arial_MSFontService,sans-serif" font-weight="400" font-size="49" transform="matrix(1 0 0 1 1866.44 1517)">4</text><text font-family="Arial,Arial_MSFontService,sans-serif" font-weight="400" font-size="49" transform="matrix(1 0 0 1 1866.44 1759)">5</text><path d="M103.5 1991C103.5 2010.05 88.0538 2025.5 68.9999 2025.5 49.946 2025.5 34.4999 2010.05 34.4999 1991 34.4999 1971.95 49.946 1956.5 68.9999 1956.5 88.0538 1956.5 103.5 1971.95 103.5 1991Z" stroke="#000000" stroke-width="1.22703" stroke-miterlimit="8" fill="#FFFFFF" fill-rule="evenodd"/><text font-family="Arial,Arial_MSFontService,sans-serif" font-weight="400" font-size="49" transform="matrix(1 0 0 1 55.096 2010)">6</text><path d="M494.276 1742.9 514 1736 494.276 1777 474 1736Z" fill-rule="evenodd"/><path d="M581.769 2025.07 601 2018 581.769 2060 562 2018Z" fill-rule="evenodd"/><path d="M1366.77 1795.06 1386 1788 1366.77 1830 1347 1788Z" fill-rule="evenodd"/><path d="M1365.28 2025.07 1385 2018 1365.28 2060 1345 2018Z" fill-rule="evenodd"/><path d="M1366.77 1531.06 1386 1524 1366.77 1566 1347 1524Z" fill-rule="evenodd"/><path d="M704.5 1831C704.5 1835.14 701.142 1838.5 697 1838.5 692.858 1838.5 689.5 1835.14 689.5 1831 689.5 1826.86 692.858 1823.5 697 1823.5 701.142 1823.5 704.5 1826.86 704.5 1831Z" stroke="#000000" stroke-width="1.22703" stroke-linecap="square" stroke-miterlimit="8" fill="#FFFFFF" fill-rule="evenodd"/><path d="M1367.63 1252.94 1387.63 1246.02 1367.63 1288.02 1347.63 1246.02 1367.63 1252.94Z" fill-rule="evenodd"/><path d="M704.5 1867.5C704.5 1871.37 701.142 1874.5 697 1874.5 692.858 1874.5 689.5 1871.37 689.5 1867.5 689.5 1863.63 692.858 1860.5 697 1860.5 701.142 1860.5 704.5 1863.63 704.5 1867.5Z" stroke="#000000" stroke-width="1.22703" stroke-linecap="square" stroke-miterlimit="8" fill="#FFFFFF" fill-rule="evenodd"/><path d="M1565.5 1699C1565.5 1703.14 1562.14 1706.5 1558 1706.5 1553.86 1706.5 1550.5 1703.14 1550.5 1699 1550.5 1694.86 1553.86 1691.5 1558 1691.5 1562.14 1691.5 1565.5 1694.86 1565.5 1699Z" stroke="#000000" stroke-width="1.22703" stroke-linecap="square" stroke-miterlimit="8" fill="#FFFFFF" fill-rule="evenodd"/><path d="M1565.5 1456C1565.5 1460.14 1562.14 1463.5 1558 1463.5 1553.86 1463.5 1550.5 1460.14 1550.5 1456 1550.5 1451.86 1553.86 1448.5 1558 1448.5 1562.14 1448.5 1565.5 1451.86 1565.5 1456Z" stroke="#000000" stroke-width="1.22703" stroke-linecap="square" stroke-miterlimit="8" fill="#FFFFFF" fill-rule="evenodd"/><path d="M1367.5 1038.5 1367.5 1259.5" stroke="#000000" stroke-width="4.90814" stroke-linecap="square" stroke-miterlimit="8" fill="none" fill-rule="evenodd"/></g></svg>