<svg width="1316.92" height="1418.01" viewBox="0 0 1316.92 1418.01" xmlns="http://www.w3.org/2000/svg" xmlns:xlink="http://www.w3.org/1999/xlink" id="svg2" overflow="hidden"><defs id="defs6"></defs><g id="g10" transform="matrix(1.33333 0 0 -1.33333 0 1418.01)"><g id="g12" transform="scale(0.1 0.1)"><path d="M5613.73 5752.28 5614.34 5897.31C5614.34 5975.58 5570.88 6039.03 5492.59 6039.03L5271.74 6037.87" id="path14" stroke="#231F20" stroke-width="8.75" fill="none"/><path d="M3890.63 3.19922 3890.63 10632 3.125 10632 3.125 3.19922 3890.63 3.19922" id="path16" fill="#E9E9E9"/><path d="M3890.63 3.19922 3890.63 10632 3.125 10632 3.125 3.19922Z" id="path18" stroke="#231F20" stroke-width="6.25" fill="none"/><path d="M9873.74 3.19922 9873.74 10632 5986.24 10632 5986.24 3.19922 9873.74 3.19922" id="path20" fill="#E9E9E9"/><path d="M9873.74 3.19922 9873.74 10632 5986.24 10632 5986.24 3.19922Z" id="path22" stroke="#231F20" stroke-width="6.25" fill="none"/><path d="M735.254 8330.07 735.254 7978.52 464.551 7978.52" id="path24" stroke="#231F20" stroke-width="25" stroke-linecap="square" fill="none"/><path d="M6945.41 2450.42 6945.41 1925.24" id="path26" stroke="#231F20" stroke-width="25" stroke-linecap="square" fill="none"/><path d="M6945.41 1034.43 6945.41 607.602" id="path28" stroke="#231F20" stroke-width="25" stroke-linecap="square" fill="none"/><path d="M6945.41 3159.08 6945.41 2769.79" id="path30" stroke="#231F20" stroke-width="25" stroke-linecap="square" fill="none"/><path d="M7924.04 4250.13 7924.04 3898.57 9471.89 3898.57" id="path32" stroke="#231F20" stroke-width="25" stroke-linecap="square" fill="none"/><path d="M5326.68 2493.04 6545.07 2491.9" id="path34" stroke="#231F20" stroke-width="8.75" fill="none"/><path d="M1093.46 8387.6 1092.31 7212.33C1092.31 7134.04 1155.76 7070.58 1234.03 7070.58L3470.67 7075.93" id="path36" stroke="#231F20" stroke-width="8.75" fill="none"/><path d="M4410.67 7497.42 2208.44 7492.08C2130.17 7492.08 2066.71 7555.53 2066.71 7633.83L2067.86 8454.77" id="path38" stroke="#231F20" stroke-width="8.75" fill="none"/><path d="M4410.67 8078.92 3271.44 8073.57C3193.15 8073.57 3129.7 8137.02 3129.7 8215.32L3130.86 8504.77" id="path40" stroke="#231F20" stroke-width="8.75" fill="none"/><path d="M5492.56 2204.94 5492.56 2742.44 4417.55 2742.44 4417.55 2204.94 5492.56 2204.94" id="path42" fill="#FFFFFF"/><path d="M5492.56 2204.94 5492.56 2742.44 4417.55 2742.44 4417.55 2204.94Z" id="path44" stroke="#231F20" stroke-width="25" fill="none"/><path d="M2767.29 1976.27 2767.29 593" id="path46" stroke="#231F20" stroke-width="25" stroke-linecap="square" fill="none"/><path d="M5379.1 901.469 3265.46 896.129C3187.19 896.129 3123.74 959.57 3123.74 1037.86L3124.88 1947.39" id="path48" stroke="#231F20" stroke-width="8.75" fill="none"/><path d="M2948.25 3191.44 2948.25 2428.22" id="path50" stroke="#231F20" stroke-width="25" stroke-linecap="square" fill="none"/><path d="M1709.66 8410.07 1709.66 7349.85" id="path52" stroke="#231F20" stroke-width="25" stroke-linecap="square" fill="none"/><path d="M3394.6 540.801C3472.89 540.801 3536.34 477.301 3536.34 399L3536.34 328.199C3536.34 249.898 3472.89 186.398 3394.6 186.398L1186.01 186.398C1107.74 186.398 1044.29 249.898 1044.29 328.199L1044.29 399C1044.29 477.301 1107.74 540.801 1186.01 540.801L3394.6 540.801" id="path54" fill="#FFFFFF"/><path d="M3394.6 540.801C3472.89 540.801 3536.34 477.301 3536.34 399L3536.34 328.199C3536.34 249.898 3472.89 186.398 3394.6 186.398L1186.01 186.398C1107.74 186.398 1044.29 249.898 1044.29 328.199L1044.29 399C1044.29 477.301 1107.74 540.801 1186.01 540.801Z" id="path56" stroke="#231F20" stroke-width="8.75" fill="none"/><g id="g58" transform="scale(10 10)"><text id="text62" fill="#231F20" font-family="Arial" font-weight="400" font-size="17.5" transform="matrix(1 0 0 -1 110.411 29.0602)"><tspan x="0 13.5304 28.035 41.5654 57.027 69.5919 82.1653 92.7905 98.5451 111.11 116.865 130.395 143.925 156.49 162.245 175.775 188.34 201.87 212.496 226.026" y="0">NORMAAL EINDE CYCLUS</tspan></text></g><path d="M8720.39 540.801C8798.68 540.801 8862.11 477.301 8862.11 399L8862.11 328.199C8862.11 249.898 8798.68 186.398 8720.39 186.398L6511.8 186.398C6433.52 186.398 6370.07 249.898 6370.07 328.199L6370.07 399C6370.07 477.301 6433.52 540.801 6511.8 540.801L8720.39 540.801" id="path64" fill="#FFFFFF"/><path d="M8720.39 540.801C8798.68 540.801 8862.11 477.301 8862.11 399L8862.11 328.199C8862.11 249.898 8798.68 186.398 8720.39 186.398L6511.8 186.398C6433.52 186.398 6370.07 249.898 6370.07 328.199L6370.07 399C6370.07 477.301 6433.52 540.801 6511.8 540.801Z" id="path66" stroke="#231F20" stroke-width="8.75" fill="none"/><g id="g68" transform="scale(10 10)"><text id="text72" fill="#231F20" font-family="Arial" font-weight="400" font-size="17.5" transform="matrix(1 0 0 -1 642.99 29.0602)"><tspan x="0 13.5304 28.035 41.5655 57.0271 69.5919 82.1654 92.7906 98.5451 111.11 116.865 130.395 143.925 156.49 162.245 175.775 188.34 201.871 212.496 226.026" y="0">NORMAAL EINDE CYCLUS</tspan></text></g><path d="M4410.67 8874.75 1234.03 8869.4C1155.76 8869.4 1092.31 8932.85 1092.31 9011.14L1093.46 9300.6 1093.46 9214.42" id="path74" stroke="#231F20" stroke-width="8.75" fill="none"/><path d="M3394.93 8688.54C3473.22 8688.54 3536.66 8625.09 3536.66 8546.82L3536.66 8475.94C3536.66 8397.67 3473.22 8334.22 3394.93 8334.22L477.66 8334.22C399.391 8334.22 335.938 8397.67 335.938 8475.94L335.938 8546.82C335.938 8625.09 399.391 8688.54 477.66 8688.54L3394.93 8688.54" id="path76" fill="#FFFFFF"/><path d="M3394.93 8688.54C3473.22 8688.54 3536.66 8625.09 3536.66 8546.82L3536.66 8475.94C3536.66 8397.67 3473.22 8334.22 3394.93 8334.22L477.66 8334.22C399.391 8334.22 335.938 8397.67 335.938 8475.94L335.938 8546.82C335.938 8625.09 399.391 8688.54 477.66 8688.54Z" id="path78" stroke="#231F20" stroke-width="8.75" fill="none"/><g id="g80" transform="scale(10 10)"><text id="text84" fill="#231F20" font-family="Arial" font-weight="400" font-size="17.5" transform="matrix(1 0 0 -1 48.3031 846.02)"><tspan x="0 11.1447 21.3324 31.5201 40.7251 46.0422 50.3851 60.5728 65.8899 75.0949 85.2826 91.5652 104.658 108.992 113.344 122.549 132.737 142.924 152.129 157.446 167.634 177.822" y="0">Zoek in verwijsbestand</tspan></text></g><path d="M1242.47 8381.4C1281.62 8381.4 1313.34 8349.67 1313.34 8310.55L1313.34 8274.02C1313.34 8234.89 1281.62 8203.17 1242.47 8203.17L591.516 8203.17C552.395 8203.17 520.664 8234.89 520.664 8274.02L520.664 8310.55C520.664 8349.67 552.395 8381.4 591.516 8381.4L1242.47 8381.4" id="path86" fill="#FFFFFF"/><path d="M1242.47 8381.4C1281.62 8381.4 1313.34 8349.67 1313.34 8310.55L1313.34 8274.02C1313.34 8234.89 1281.62 8203.17 1242.47 8203.17L591.516 8203.17C552.395 8203.17 520.664 8234.89 520.664 8274.02L520.664 8310.55C520.664 8349.67 552.395 8381.4 591.516 8381.4Z" id="path88" stroke="#231F20" stroke-width="8.75" fill="none"/><g id="g90" transform="scale(10 10)"><text id="text94" fill="#231F20" font-family="Arial" font-weight="400" font-size="12" transform="matrix(1 0 0 -1 62.0152 824.972)"><tspan x="0 9.86198 17.0638 23.5918 30.7936 37.9955 45.1973 52.3992" y="0">Gevonden</tspan></text></g><path d="M5957.85 4619.96 5735.98 4677.77 5735.98 4565.27Z" id="path96" fill="#231F20"/><path d="M5127.25 9579.37 6385.63 9579.37" id="path98" stroke="#231F20" stroke-width="8.75" fill="none"/><path d="M3282.15 9579.37 4598.68 9579.37" id="path100" stroke="#231F20" stroke-width="8.75" fill="none"/><path d="M4067.62 9577.96 4289.49 9635.75 4289.49 9523.25Z" id="path102" fill="#231F20"/><path d="M5591.74 9577.96 5813.61 9635.75 5813.61 9523.25Z" id="path104" fill="#231F20"/><path d="M1886.82 9635.84 1886.82 8784.05" id="path106" stroke="#231F20" stroke-width="25" stroke-linecap="square" fill="none"/><path d="M735.254 9393.06 735.254 9041.51 464.551 9041.51" id="path108" stroke="#231F20" stroke-width="25" stroke-linecap="square" fill="none"/><path d="M3076.46 6580.32 3075.32 7718.4C3075.32 7796.67 3138.77 7860.12 3217.04 7860.12L3338.14 7859.05 3390.89 7860.7 3568.07 7860.7C3646.35 7860.7 3716.89 7924.15 3716.89 8002.42L3717.72 8126.42 3716.94 8893.22C3716.94 8971.49 3652.79 9034.94 3574.52 9034.94L3391.46 9034.79 3064.44 9034.94C2986.17 9034.94 2922.71 9098.39 2922.71 9176.66L2923.87 9200.39 2922.92 9381.64 2922.92 9701.95" id="path110" stroke="#231F20" stroke-width="25" fill="none"/><path d="M4329.04 8870.36 4107.17 8928.17 4107.17 8815.67Z" id="path112" fill="#231F20"/><path d="M2772.65 8330.07 2772.65 7350.15 464.551 7350.15" id="path114" stroke="#231F20" stroke-width="25" stroke-linecap="square" fill="none"/><path d="M4329.04 6751.55 4107.17 6809.35 4107.17 6696.85Z" id="path116" fill="#231F20"/><path d="M4822.95 6042.94 2147.93 6037.58C2069.65 6037.58 2006.21 6101.04 2006.21 6179.34L2007.35 6468.78" id="path118" stroke="#231F20" stroke-width="8.75" fill="none"/><path d="M4329.04 6038.55 4107.17 6096.35 4107.17 5983.85Z" id="path120" fill="#231F20"/><path d="M4940.66 5331.45 1495.58 5326.09C1417.3 5326.09 1353.85 5389.54 1353.85 5467.85L1355 6288.78" id="path122" stroke="#231F20" stroke-width="8.75" fill="none"/><path d="M4329.04 5327.05 4107.17 5384.86 4107.17 5272.36Z" id="path124" fill="#231F20"/><path d="M1684.15 6594.08 1684.15 5446.37 476.227 5446.37" id="path126" stroke="#231F20" stroke-width="25" stroke-linecap="square" fill="none"/><path d="M2624.81 6136.99 2624.81 4560.56" id="path128" stroke="#231F20" stroke-width="25" stroke-linecap="square" fill="none"/><path d="M4329.04 4617.54 4107.17 4675.34 4107.17 4562.84Z" id="path130" fill="#231F20"/><path d="M3452.2 6899.72C3531.99 6899.72 3596.66 6836.27 3596.66 6758L3596.66 6687.13C3596.66 6608.85 3531.99 6545.4 3452.2 6545.4L478.617 6545.4C398.84 6545.4 334.16 6608.85 334.16 6687.13L334.16 6758C334.16 6836.27 398.84 6899.72 478.617 6899.72L3452.2 6899.72" id="path132" fill="#FFFFFF"/><path d="M3452.2 6899.72C3531.99 6899.72 3596.66 6836.27 3596.66 6758L3596.66 6687.13C3596.66 6608.85 3531.99 6545.4 3452.2 6545.4L478.617 6545.4C398.84 6545.4 334.16 6608.85 334.16 6687.13L334.16 6758C334.16 6836.27 398.84 6899.72 478.617 6899.72Z" id="path134" stroke="#231F20" stroke-width="8.75" fill="none"/><g id="g136" transform="scale(10 10)"><text id="text140" fill="#231F20" font-family="Arial" font-weight="400" font-size="17.5" transform="matrix(1 0 0 -1 42.3031 667.138)"><tspan x="0 13.9796 24.0798 34.18 44.2802 50.4753 59.5928 69.693 79.7932 88.9107 94.1403 103.258 108.487 118.588 123.817 133.917 143.035 148.264 157.382 167.482 177.582 182.812 192.912 203.012 208.242 220.282" y="0">Onderzoek status van de PL</tspan></text></g><path d="M5491.16 9298.68 5491.16 9836.18 4416.16 9836.18 4416.16 9298.68 5491.16 9298.68" id="path142" fill="#FFFFFF"/><path d="M5491.16 9298.68 5491.16 9836.18 4416.16 9836.18 4416.16 9298.68Z" id="path144" stroke="#231F20" stroke-width="25" fill="none"/><g id="g146" transform="scale(10 10)"><text id="text150" fill="#231F20" font-family="Arial" font-weight="400" font-size="15" transform="matrix(1 0 0 -1 480.82 963.676)"><tspan x="0 8.025 11.8825 20.7498" y="0">Ji01</tspan></text></g><path d="M4416.16 9836.18 4671.19 9581.13 5232.52 9581.13 5489.36 9837.98" id="path152" stroke="#231F20" stroke-width="8.75" fill="none"/><path d="M5491.16 8590.02 5491.16 9127.52 4416.16 9127.52 4416.16 8590.02 5491.16 8590.02" id="path154" fill="#FFFFFF"/><path d="M5491.16 8590.02 5491.16 9127.52 4416.16 9127.52 4416.16 8590.02Z" id="path156" stroke="#231F20" stroke-width="25" fill="none"/><g id="g158" transform="scale(10 10)"><text id="text164" fill="#231F20" font-family="Arial" font-weight="400" font-size="15" transform="matrix(1 0 0 -1 480.515 892.809)"><tspan x="0 7.95 12.5675 21.3598" y="0">Jf01</tspan><tspan x="-17.4781 -6.19556 2.59668 11.389 20.1813 24.7987 30.5735 41.856" y="25">Code "U"</tspan></text></g><path d="M4416.16 9127.52 4671.19 8872.47 5232.52 8872.47 5489.36 9129.32" id="path166" stroke="#231F20" stroke-width="8.75" fill="none"/><path d="M5491.16 6465.1 5491.16 7002.6 4416.16 7002.6 4416.16 6465.1 5491.16 6465.1" id="path168" fill="#FFFFFF"/><path d="M5491.16 6465.1 5491.16 7002.6 4416.16 7002.6 4416.16 6465.1Z" id="path170" stroke="#231F20" stroke-width="25" fill="none"/><path d="M4416.16 7002.6 4671.19 6747.59 5232.52 6747.59 5489.36 7004.44" id="path172" stroke="#231F20" stroke-width="8.75" fill="none"/><g id="g174" transform="scale(10 10)"><text id="text180" fill="#231F20" font-family="Arial" font-weight="400" font-size="15" transform="matrix(1 0 0 -1 480.515 680.32)"><tspan x="0 7.95 12.5675 21.3598" y="0">Jf01</tspan><tspan x="-17.0641 -5.78156 3.01069 11.803 20.5953 25.2127 30.9875 41.4423" y="25">Code "V"</tspan></text></g><path d="M4329.04 8074.53 4107.17 8132.34 4107.17 8019.84Z" id="path182" fill="#231F20"/><path d="M4329.04 7493.04 4107.17 7550.84 4107.17 7438.34Z" id="path184" fill="#231F20"/><path d="M5491.16 7881.35 5491.16 8418.85 4416.16 8418.85 4416.16 7881.35 5491.16 7881.35" id="path186" fill="#FFFFFF"/><path d="M5491.16 7881.35 5491.16 8418.85 4416.16 8418.85 4416.16 7881.35Z" id="path188" stroke="#231F20" stroke-width="25" fill="none"/><path d="M4416.16 8418.85 4671.19 8163.82 5232.52 8163.82 5489.36 8420.67" id="path190" stroke="#231F20" stroke-width="8.75" fill="none"/><g id="g192" transform="scale(10 10)"><text id="text198" fill="#231F20" font-family="Arial" font-weight="400" font-size="15" transform="matrix(1 0 0 -1 480.515 821.945)"><tspan x="0 7.95 12.5675 21.3598" y="0">Jf01</tspan><tspan x="-17.4781 -6.19556 2.59668 11.389 20.1813 24.7987 30.5735 41.856" y="25">Code "U"</tspan></text></g><path d="M5491.16 7172.7 5491.16 7710.2 4416.16 7710.2 4416.16 7172.7 5491.16 7172.7" id="path200" fill="#FFFFFF"/><path d="M5491.16 7172.7 5491.16 7710.2 4416.16 7710.2 4416.16 7172.7Z" id="path202" stroke="#231F20" stroke-width="25" fill="none"/><path d="M4416.16 7710.2 4671.19 7455.14 5232.52 7455.14 5489.36 7711.99" id="path204" stroke="#231F20" stroke-width="8.75" fill="none"/><g id="g206" transform="scale(10 10)"><text id="text212" fill="#231F20" font-family="Arial" font-weight="400" font-size="15" transform="matrix(1 0 0 -1 480.65 751.077)"><tspan x="0 7.86 12.3875 21.0897" y="0">Jf01</tspan><tspan x="-18.0309 -6.74836 2.04388 10.8362 19.6285 24.2459 30.0207 42.1381" y="25">Code "G"</tspan></text></g><path d="M5491.16 5755.36 5491.16 6292.86 4416.16 6292.86 4416.16 5755.36 5491.16 5755.36" id="path214" fill="#FFFFFF"/><path d="M5491.16 5755.36 5491.16 6292.86 4416.16 6292.86 4416.16 5755.36Z" id="path216" stroke="#231F20" stroke-width="25" fill="none"/><path d="M4416.16 6292.86 4671.19 6037.84 5232.52 6037.84 5489.36 6294.69" id="path218" stroke="#231F20" stroke-width="8.75" fill="none"/><g id="g220" transform="scale(10 10)"><text id="text226" fill="#231F20" font-family="Arial" font-weight="400" font-size="15" transform="matrix(1 0 0 -1 480.515 609.346)"><tspan x="0 7.95 12.5675 21.3598" y="0">Jf01</tspan><tspan x="-17.0641 -5.78156 3.01069 11.803 20.5953 25.2127 30.9875 41.4423" y="25">Code "B"</tspan></text></g><path d="M5491.16 5046.72 5491.16 5584.22 4416.16 5584.22 4416.16 5046.72 5491.16 5046.72" id="path228" fill="#FFFFFF"/><path d="M5491.16 5046.72 5491.16 5584.22 4416.16 5584.22 4416.16 5046.72Z" id="path230" stroke="#231F20" stroke-width="25" fill="none"/><path d="M4416.16 5584.22 4671.19 5329.16 5232.52 5329.16 5489.36 5586.01" id="path232" stroke="#231F20" stroke-width="8.75" fill="none"/><g id="g234" transform="scale(10 10)"><text id="text240" fill="#231F20" font-family="Arial" font-weight="400" font-size="15" transform="matrix(1 0 0 -1 480.65 538.479)"><tspan x="0 7.86 12.3875 21.0897" y="0">Jf01</tspan><tspan x="-18.0309 -6.74836 2.04388 10.8362 19.6285 24.2459 30.0207 42.1381" y="25">Code "O"</tspan></text></g><path d="M5491.16 3628.27 5491.16 4165.77 4416.16 4165.77 4416.16 3628.27 5491.16 3628.27" id="path242" fill="#FFFFFF"/><path d="M5491.16 3628.27 5491.16 4165.77 4416.16 4165.77 4416.16 3628.27Z" id="path244" stroke="#231F20" stroke-width="25" fill="none"/><g id="g246" transform="scale(10 10)"><text id="text252" fill="#231F20" font-family="Arial" font-weight="400" font-size="15" transform="matrix(1 0 0 -1 478.428 396.637)"><tspan x="0 7.95 16.7423 25.5346" y="0">Jb01</tspan><tspan x="-4.79609 5.65881 10.2763 23.2214 27.8388" y="25">E/M/R</tspan></text></g><path d="M4417.55 2742.44 4672.61 2487.41 5233.91 2487.41 5490.77 2744.25" id="path254" stroke="#231F20" stroke-width="8.75" fill="none"/><g id="g256" transform="scale(10 10)"><text id="text260" fill="#231F20" font-family="Arial" font-weight="400" font-size="15" transform="matrix(1 0 0 -1 479.124 254.303)"><tspan x="0 7.86 15.72 24.4223" y="0">Jv01</tspan></text></g><path d="M3396.33 9745.54C3474.6 9745.54 3538.05 9682.08 3538.05 9603.81L3538.05 9532.94C3538.05 9454.65 3474.6 9391.2 3396.33 9391.2L479.043 9391.2C400.77 9391.2 337.313 9454.65 337.313 9532.94L337.313 9603.81C337.313 9682.08 400.77 9745.54 479.043 9745.54L3396.33 9745.54" id="path262" fill="#FFFFFF"/><path d="M3396.33 9745.54C3474.6 9745.54 3538.05 9682.08 3538.05 9603.81L3538.05 9532.94C3538.05 9454.65 3474.6 9391.2 3396.33 9391.2L479.043 9391.2C400.77 9391.2 337.313 9454.65 337.313 9532.94L337.313 9603.81C337.313 9682.08 400.77 9745.54 479.043 9745.54Z" id="path264" stroke="#231F20" stroke-width="8.75" fill="none"/><g id="g266" transform="scale(10 10)"><text id="text270" fill="#231F20" font-family="Arial" font-weight="400" font-size="17.5" transform="matrix(1 0 0 -1 48.4426 951.718)"><tspan x="0 11.1447 21.3324 31.5201 40.7251 46.0422 56.2299 66.4176 72.7002 81.9052 92.0929 102.281 112.468 121.673 126.016 130.351 134.702 143.907 149.224 154.541 158.884 169.072 174.389 186.516 196.704 202.987 213.174 223.362 232.567 237.884 248.072 258.259" y="0">Zoek persoonslijst in PL-bestand</tspan></text></g><path d="M2293.32 9444.39C2340.92 9444.39 2379.54 9412.66 2379.54 9373.54L2379.54 9337.01C2379.54 9297.89 2340.92 9266.16 2293.32 9266.16L1501.13 9266.16C1453.52 9266.16 1414.91 9297.89 1414.91 9337.01L1414.91 9373.54C1414.91 9412.66 1453.52 9444.39 1501.13 9444.39L2293.32 9444.39" id="path272" fill="#FFFFFF"/><path d="M2293.32 9444.39C2340.92 9444.39 2379.54 9412.66 2379.54 9373.54L2379.54 9337.01C2379.54 9297.89 2340.92 9266.16 2293.32 9266.16L1501.13 9266.16C1453.52 9266.16 1414.91 9297.89 1414.91 9337.01L1414.91 9373.54C1414.91 9412.66 1453.52 9444.39 1501.13 9444.39Z" id="path274" stroke="#231F20" stroke-width="8.75" fill="none"/><g id="g276" transform="scale(10 10)"><text id="text280" fill="#231F20" font-family="Arial" font-weight="400" font-size="12" transform="matrix(1 0 0 -1 148.469 931.271)"><tspan x="0 9.02602 12.052 19.0859 22.7798 26.4738 33.5077 40.5415 47.5753 56.6013 63.6352 69.9952 73.0212" y="0">Niet aanwezig</tspan></text></g><path d="M3284.06 9444.39C3323.22 9444.39 3354.93 9412.66 3354.93 9373.54L3354.93 9337.01C3354.93 9297.89 3323.22 9266.16 3284.06 9266.16L2633.14 9266.16C2593.99 9266.16 2562.27 9297.89 2562.27 9337.01L2562.27 9373.54C2562.27 9412.66 2593.99 9444.39 2633.14 9444.39L3284.06 9444.39" id="path282" fill="#FFFFFF"/><path d="M3284.06 9444.39C3323.22 9444.39 3354.93 9412.66 3354.93 9373.54L3354.93 9337.01C3354.93 9297.89 3323.22 9266.16 3284.06 9266.16L2633.14 9266.16C2593.99 9266.16 2562.27 9297.89 2562.27 9337.01L2562.27 9373.54C2562.27 9412.66 2593.99 9444.39 2633.14 9444.39Z" id="path284" stroke="#231F20" stroke-width="8.75" fill="none"/><g id="g286" transform="scale(10 10)"><text id="text290" fill="#231F20" font-family="Arial" font-weight="400" font-size="12" transform="matrix(1 0 0 -1 266.666 931.271)"><tspan x="0 9.69398 16.7278 23.0878 30.1216 37.1554 44.1893 51.2231" y="0">Gevonden</tspan></text></g><path d="M1242.47 9444.39C1281.62 9444.39 1313.34 9412.66 1313.34 9373.54L1313.34 9337.01C1313.34 9297.89 1281.62 9266.16 1242.47 9266.16L591.516 9266.16C552.395 9266.16 520.664 9297.89 520.664 9337.01L520.664 9373.54C520.664 9412.66 552.395 9444.39 591.516 9444.39L1242.47 9444.39" id="path292" fill="#FFFFFF"/><path d="M1242.47 9444.39C1281.62 9444.39 1313.34 9412.66 1313.34 9373.54L1313.34 9337.01C1313.34 9297.89 1281.62 9266.16 1242.47 9266.16L591.516 9266.16C552.395 9266.16 520.664 9297.89 520.664 9337.01L520.664 9373.54C520.664 9412.66 552.395 9444.39 591.516 9444.39Z" id="path294" stroke="#231F20" stroke-width="8.75" fill="none"/><g id="g296" transform="scale(10 10)"><text id="text300" fill="#231F20" font-family="Arial" font-weight="400" font-size="12" transform="matrix(1 0 0 -1 62.4949 931.271)"><tspan x="0 9.19401 12.388 19.5899 23.4518 27.3138 34.5157 41.7175 44.9115 52.1133" y="0">Niet uniek</tspan></text></g><path d="M4416.16 4165.77 4671.19 3910.75 5232.52 3910.75 5489.36 4167.6" id="path302" stroke="#231F20" stroke-width="8.75" fill="none"/><path d="M4440.72 3373.88 3530.72 3372.73" id="path304" stroke="#231F20" stroke-width="8.75" fill="none"/><path d="M4102.44 3368.26 4324.32 3426.05 4324.32 3313.55Z" id="path306" fill="#231F20"/><path d="M4122.44 2491.07 4344.32 2548.9 4344.32 2436.4Z" id="path308" fill="#231F20"/><path d="M3455.07 4250.31 3863.13 4251.44C3941.41 4251.44 4004.86 4188.01 4004.86 4109.72L4004.24 4004.67 4004.24 4056.52 4003.64 4031.5C4003.64 3953.22 4067.08 3909.78 4145.36 3909.78L4413.74 3910.89" id="path310" stroke="#231F20" stroke-width="8.75" fill="none"/><path d="M5492.56 2913.61 5492.56 3451.11 4417.55 3451.11 4417.55 2913.61 5492.56 2913.61" id="path312" fill="#FFFFFF"/><path d="M5492.56 2913.61 5492.56 3451.11 4417.55 3451.11 4417.55 2913.61Z" id="path314" stroke="#231F20" stroke-width="25" fill="none"/><path d="M4417.55 3451.11 4672.61 3196.07 5233.91 3196.07 5490.77 3452.92" id="path316" stroke="#231F20" stroke-width="8.75" fill="none"/><g id="g318" transform="scale(10 10)"><text id="text322" fill="#231F20" font-family="Arial" font-weight="400" font-size="15" transform="matrix(1 0 0 -1 480.79 325.169)"><tspan x="0 7.86 12.3875 21.0897" y="0">Jf21</tspan></text></g><path d="M4409.11 1602.96 2309.87 1597.61C2231.59 1597.61 2168.13 1661.07 2168.13 1739.37L2169.3 2117.39" id="path324" stroke="#231F20" stroke-width="8.75" fill="none"/><path d="M4329.04 1598.57 4107.17 1656.38 4107.17 1543.88Z" id="path326" fill="#231F20"/><path d="M4329.04 897.07 4107.17 954.891 4107.17 842.391Z" id="path328" fill="#231F20"/><path d="M5491.16 1325.39 5491.16 1862.89 4416.16 1862.89 4416.16 1325.39 5491.16 1325.39" id="path330" fill="#FFFFFF"/><path d="M5491.16 1325.39 5491.16 1862.89 4416.16 1862.89 4416.16 1325.39Z" id="path332" stroke="#231F20" stroke-width="25" fill="none"/><path d="M4416.16 1862.89 4671.19 1607.86 5232.52 1607.86 5489.36 1864.72" id="path334" stroke="#231F20" stroke-width="8.75" fill="none"/><g id="g336" transform="scale(10 10)"><text id="text340" fill="#231F20" font-family="Arial" font-weight="400" font-size="15" transform="matrix(1 0 0 -1 480.515 166.348)"><tspan x="0 7.95 12.5675 21.3598" y="0">Jf31</tspan></text></g><path d="M5491.16 616.801 5491.16 1154.25 4416.16 1154.25 4416.16 616.801 5491.16 616.801" id="path342" fill="#FFFFFF"/><path d="M5491.16 616.801 5491.16 1154.25 4416.16 1154.25 4416.16 616.801Z" id="path344" stroke="#231F20" stroke-width="25" fill="none"/><path d="M4416.16 1154.25 4671.19 899.191 5232.52 899.191 5489.36 1156.03" id="path346" stroke="#231F20" stroke-width="8.75" fill="none"/><g id="g348" transform="scale(10 10)"><text id="text352" fill="#231F20" font-family="Arial" font-weight="400" font-size="15" transform="matrix(1 0 0 -1 481.906 95.482)"><tspan x="0 11.1925 19.8949 23.5874" y="0">Null</tspan></text></g><path d="M1766.21 1826.27 1766.21 1599.71 470.117 1599.71" id="path354" stroke="#231F20" stroke-width="25" stroke-linecap="square" fill="none"/><path d="M1973.84 2837.11 1973.84 2662.73 462.988 2662.73" id="path356" stroke="#231F20" stroke-width="25" stroke-linecap="square" fill="none"/><path d="M3394.78 3632.47C3473.05 3632.47 3536.5 3569.05 3536.5 3490.75L3536.5 3065.56C3536.5 2987.28 3473.05 2923.83 3394.78 2923.83L1540.48 2923.83C1462.2 2923.83 1398.74 2987.28 1398.74 3065.56L1398.74 3490.75C1398.74 3569.05 1462.2 3632.47 1540.48 3632.47L3394.78 3632.47" id="path358" fill="#FFFFFF"/><path d="M3394.78 3632.47C3473.05 3632.47 3536.5 3569.05 3536.5 3490.75L3536.5 3065.56C3536.5 2987.28 3473.05 2923.83 3394.78 2923.83L1540.48 2923.83C1462.2 2923.83 1398.74 2987.28 1398.74 3065.56L1398.74 3490.75C1398.74 3569.05 1462.2 3632.47 1540.48 3632.47Z" id="path360" stroke="#231F20" stroke-width="8.75" fill="none"/><g id="g362" transform="scale(10 10)"><text id="text366" fill="#231F20" font-family="Arial" font-weight="400" font-size="17.5" transform="matrix(1 0 0 -1 154.587 340.41)"><tspan x="0 16.9723 27.16 36.365 46.5527 51.8697 57.1868 67.3745 77.5622 82.8793 93.067 103.255 108.572 121.665 131.852 142.04 148.323" y="0">Wacht op antwoord</tspan></text></g><path d="M5614.86 6468.12 5615.48 6613.14C5615.48 6691.41 5572.02 6754.86 5493.75 6754.86L5492.87 6753.74" id="path368" stroke="#231F20" stroke-width="8.75" fill="none"/><path d="M5616.28 7206.77 5616.89 7351.8C5616.89 7430.08 5573.44 7493.53 5495.17 7493.53L5494.29 7492.4" id="path370" stroke="#231F20" stroke-width="8.75" fill="none"/><path d="M5617.13 7795.43 5617.74 7940.47C5617.74 8018.74 5574.29 8082.19 5496.02 8082.19L5495.14 8081.05" id="path372" stroke="#231F20" stroke-width="8.75" fill="none"/><path d="M5618.25 8594.09 5618.87 8739.12C5618.87 8817.39 5575.41 8880.85 5497.14 8880.85L5496.26 8879.73" id="path374" stroke="#231F20" stroke-width="8.75" fill="none"/><path d="M1974.77 2802.83 1974.17 2947.85 1974.17 3083.21 1973.57 3228.22C1973.57 3306.5 2037.02 3369.97 2115.29 3369.97L2259.33 3370.9 3549.47 3369.78" id="path376" stroke="#231F20" stroke-width="8.75" stroke-dasharray="75 50" fill="none"/><path d="M2952.79 2906.03 2952.17 3051.05C2952.17 3129.35 3015.63 3192.78 3093.9 3192.78L3237.95 3193.72 3530.72 3192.61" id="path378" stroke="#231F20" stroke-width="8.75" stroke-dasharray="75 50" fill="none"/><path d="M3283.93 2971C3323.05 2971 3354.78 2939.29 3354.78 2900.13L3354.78 2863.63C3354.78 2824.48 3323.05 2792.75 3283.93 2792.75L2632.97 2792.75C2593.82 2792.75 2562.1 2824.48 2562.1 2863.63L2562.1 2900.13C2562.1 2939.29 2593.82 2971 2632.97 2971L3283.93 2971" id="path380" fill="#FFFFFF"/><path d="M3283.93 2971C3323.05 2971 3354.78 2939.29 3354.78 2900.13L3354.78 2863.63C3354.78 2824.48 3323.05 2792.75 3283.93 2792.75L2632.97 2792.75C2593.82 2792.75 2562.1 2824.48 2562.1 2863.63L2562.1 2900.13C2562.1 2939.29 2593.82 2971 2632.97 2971Z" id="path382" stroke="#231F20" stroke-width="8.75" fill="none"/><g id="g384" transform="scale(10 10)"><text id="text388" fill="#231F20" font-family="Arial" font-weight="400" font-size="12" transform="matrix(1 0 0 -1 282.242 283.933)"><tspan x="0 6.45598 12.912 20.0418" y="0">Jv01</tspan></text></g><path d="M2305.3 2971C2344.44 2971 2376.17 2939.29 2376.17 2900.13L2376.17 2863.63C2376.17 2824.48 2344.44 2792.75 2305.3 2792.75L1654.35 2792.75C1615.22 2792.75 1583.5 2824.48 1583.5 2863.63L1583.5 2900.13C1583.5 2939.29 1615.22 2971 1654.35 2971L2305.3 2971" id="path390" fill="#FFFFFF"/><path d="M2305.3 2971C2344.44 2971 2376.17 2939.29 2376.17 2900.13L2376.17 2863.63C2376.17 2824.48 2344.44 2792.75 2305.3 2792.75L1654.35 2792.75C1615.22 2792.75 1583.5 2824.48 1583.5 2863.63L1583.5 2900.13C1583.5 2939.29 1615.22 2971 1654.35 2971Z" id="path392" stroke="#231F20" stroke-width="8.75" fill="none"/><g id="g394" transform="scale(10 10)"><text id="text398" fill="#231F20" font-family="Arial" font-weight="400" font-size="12" transform="matrix(1 0 0 -1 185.951 283.933)"><tspan x="0 6.36 10.054 17.0878" y="0">Jf21</tspan></text></g><path d="M6332.67 4615.73 5498.99 4616.85" id="path400" stroke="#231F20" stroke-width="8.75" fill="none"/><path d="M6302.71 4431.42 5897.43 4432.54 5753.36 4431.6C5648.71 4432.54 5611.21 4382.9 5616.61 4289.87L5616.61 4202.6 5616.6 4047.57C5616.6 3969.27 5573.14 3905.85 5494.87 3905.85L5493.99 3906.98" id="path402" stroke="#231F20" stroke-width="8.75" fill="none"/><path d="M6309.69 4618.61 5724.46 4617.44C5646.19 4617.44 5612.73 4680.9 5612.73 4759.18L5613.35 5620.26 5614.98 6476.83 5618.72 8683.56" id="path404" stroke="#231F20" stroke-width="8.75" fill="none"/><path d="M5957.85 4432.79 5735.98 4490.59 5735.98 4378.09Z" id="path406" fill="#231F20"/><path d="M7781.79 3153.11 7782.91 3036.56C7782.91 2969.75 7694.48 2933.59 7616.21 2933.59L5760.84 2935.2C5682.55 2935.2 5619.95 2932.73 5619.09 3058.77L5619.09 3077.03C5619.09 3123.82 5626.21 3206.65 5495.8 3193.53L5497.73 3173.89" id="path408" stroke="#231F20" stroke-width="8.75" fill="none"/><path d="M8097.34 3364.13 8097.34 3012.56 9498.46 3012.56" id="path410" stroke="#231F20" stroke-width="25" stroke-linecap="square" fill="none"/><path d="M8366.33 3631.14C8444.61 3631.14 8508.06 3567.69 8508.06 3489.42L8508.06 3418.55C8508.06 3340.27 8444.61 3276.82 8366.33 3276.82L6512.03 3276.82C6433.77 3276.82 6370.31 3340.27 6370.31 3418.55L6370.31 3489.42C6370.31 3567.69 6433.77 3631.14 6512.03 3631.14L8366.33 3631.14" id="path412" fill="#FFFFFF"/><path d="M8366.33 3631.14C8444.61 3631.14 8508.06 3567.69 8508.06 3489.42L8508.06 3418.55C8508.06 3340.27 8444.61 3276.82 8366.33 3276.82L6512.03 3276.82C6433.77 3276.82 6370.31 3340.27 6370.31 3418.55L6370.31 3489.42C6370.31 3567.69 6433.77 3631.14 6512.03 3631.14Z" id="path414" stroke="#231F20" stroke-width="8.75" fill="none"/><g id="g416" transform="scale(10 10)"><text id="text420" fill="#231F20" font-family="Arial" font-weight="400" font-size="17.5" transform="matrix(1 0 0 -1 651.743 340.277)"><tspan x="0 5.31705 14.522 19.8391 30.0268 34.3697 39.6868 45.0039 55.1915 65.3792 70.6963 80.884 91.0717 100.277 106.559 116.747 126.935 137.122 147.31 157.498 162.815 174.942" y="0">Is dit de gevraagde PL</tspan></text></g><path d="M8255.47 3324C8294.61 3324 8326.32 3292.28 8326.32 3253.13L8326.32 3216.62C8326.32 3177.47 8294.61 3145.76 8255.47 3145.76L7604.54 3145.76C7565.38 3145.76 7533.67 3177.47 7533.67 3216.62L7533.67 3253.13C7533.67 3292.28 7565.38 3324 7604.54 3324L8255.47 3324" id="path422" fill="#FFFFFF"/><path d="M8255.47 3324C8294.61 3324 8326.32 3292.28 8326.32 3253.13L8326.32 3216.62C8326.32 3177.47 8294.61 3145.76 8255.47 3145.76L7604.54 3145.76C7565.38 3145.76 7533.67 3177.47 7533.67 3216.62L7533.67 3253.13C7533.67 3292.28 7565.38 3324 7604.54 3324Z" id="path424" stroke="#231F20" stroke-width="8.75" fill="none"/><path d="M7276.86 3324C7316.02 3324 7347.73 3292.28 7347.73 3253.13L7347.73 3216.62C7347.73 3177.47 7316.02 3145.76 7276.86 3145.76L6625.93 3145.76C6586.8 3145.76 6555.06 3177.47 6555.06 3216.62L6555.06 3253.13C6555.06 3292.28 6586.8 3324 6625.93 3324L7276.86 3324" id="path426" fill="#FFFFFF"/><path d="M7276.86 3324C7316.02 3324 7347.73 3292.28 7347.73 3253.13L7347.73 3216.62C7347.73 3177.47 7316.02 3145.76 7276.86 3145.76L6625.93 3145.76C6586.8 3145.76 6555.06 3177.47 6555.06 3216.62L6555.06 3253.13C6555.06 3292.28 6586.8 3324 6625.93 3324Z" id="path428" stroke="#231F20" stroke-width="8.75" fill="none"/><g id="g430" transform="scale(10 10)"><text id="text434" fill="#231F20" font-family="Arial" font-weight="400" font-size="12" transform="matrix(1 0 0 -1 781.293 319.232)"><tspan x="0 9.12201 16.2518 -92.8199 -86.4599" y="0">NeeJa</tspan></text></g><path d="M8366.33 2656.75C8444.61 2656.75 8508.06 2593.27 8508.06 2515L8508.06 2444.15C8508.06 2365.85 8444.61 2302.43 8366.33 2302.43L6512.03 2302.43C6433.77 2302.43 6370.31 2365.85 6370.31 2444.15L6370.31 2515C6370.31 2593.27 6433.77 2656.75 6512.03 2656.75L8366.33 2656.75" id="path436" fill="#FFFFFF"/><path d="M8366.33 2656.75C8444.61 2656.75 8508.06 2593.27 8508.06 2515L8508.06 2444.15C8508.06 2365.85 8444.61 2302.43 8366.33 2302.43L6512.03 2302.43C6433.77 2302.43 6370.31 2365.85 6370.31 2444.15L6370.31 2515C6370.31 2593.27 6433.77 2656.75 6512.03 2656.75Z" id="path438" stroke="#231F20" stroke-width="8.75" fill="none"/><g id="g440" transform="scale(10 10)"><text id="text444" fill="#231F20" font-family="Arial" font-weight="400" font-size="17.5" transform="matrix(1 0 0 -1 651.743 242.835)"><tspan x="0 15.0326 25.2203 35.4081 44.613 49.9301 59.1351 69.3228 75.6055 88.6984 93.0328 97.3843 106.589 116.777 126.965 137.152 147.34 156.545 166.733 176.92" y="0">Maak verwijsgegevens</tspan></text></g><path d="M6945.41 4044.91 6945.41 3721.24" id="path446" stroke="#231F20" stroke-width="25" stroke-linecap="square" fill="none"/><path d="M5715.97 2491.07 5937.84 2548.9 5937.84 2436.4Z" id="path448" fill="#231F20"/><path d="M5725.97 2934.79 5947.84 2992.63 5947.84 2880.13Z" id="path450" fill="#231F20"/><path d="M7924.04 1239.65 7924.04 888.121 9471.89 888.121" id="path452" stroke="#231F20" stroke-width="25" stroke-linecap="square" fill="none"/><path d="M5957.85 1594.86 5735.98 1652.67 5735.98 1540.17Z" id="path454" fill="#231F20"/><path d="M6580.68 1595.29 5493.99 1596.42" id="path456" stroke="#231F20" stroke-width="8.75" fill="none"/><path d="M6312.71 1420.95 5907.43 1422.07 5763.36 1421.14C5667.87 1422.07 5622.87 1378.73 5626.6 1279.4L5626.6 1192.12 5626.6 1047.1C5628.71 951.23 5572.04 905.371 5484.87 905.371L5483.99 906.5" id="path458" stroke="#231F20" stroke-width="8.75" fill="none"/><path d="M5957.85 1422.32 5735.98 1480.13 5735.98 1367.63Z" id="path460" fill="#231F20"/><path d="M6369.34 10272.7C6369.34 10455.5 6544.34 10455.5 6544.34 10455.5L9381.84 10455.5C9381.84 10455.5 9558.4 10457.1 9558.4 10279 9558.4 10100.9 9375.59 10100.9 9375.59 10100.9L6544.34 10100.9C6544.34 10100.9 6369.34 10089.9 6369.34 10272.7" id="path462" fill="#FFFFFF"/><path d="M6369.34 10272.7C6369.34 10455.5 6544.34 10455.5 6544.34 10455.5L9381.84 10455.5C9381.84 10455.5 9558.4 10457.1 9558.4 10279 9558.4 10100.9 9375.59 10100.9 9375.59 10100.9L6544.34 10100.9C6544.34 10100.9 6369.34 10089.9 6369.34 10272.7Z" id="path464" stroke="#231F20" stroke-width="6.25" fill="none"/><g id="g466" transform="scale(10 10)"><text id="text470" fill="#231F20" font-family="Arial" font-weight="700" font-size="20" transform="matrix(1 0 0 -1 675.135 1019.83)"><tspan x="0 16.1567 27.8797 46.2629 57.986 69.7089 82.5257 89.7859 101.509 107.666 119.388 131.112 143.928 150.085 161.808 173.531 185.254 192.514 198.671 211.488 217.644 230.461" y="0">Gemeente van vestiging</tspan></text></g><path d="M345.898 10272.7C345.898 10455.5 520.898 10455.5 520.898 10455.5L3358.4 10455.5C3358.4 10455.5 3534.96 10457.1 3534.96 10279 3534.96 10100.9 3352.15 10100.9 3352.15 10100.9L520.898 10100.9C520.898 10100.9 345.898 10089.9 345.898 10272.7" id="path472" fill="#FFFFFF"/><path d="M345.898 10272.7C345.898 10455.5 520.898 10455.5 520.898 10455.5L3358.4 10455.5C3358.4 10455.5 3534.96 10457.1 3534.96 10279 3534.96 10100.9 3352.15 10100.9 3352.15 10100.9L520.898 10100.9C520.898 10100.9 345.898 10089.9 345.898 10272.7Z" id="path474" stroke="#231F20" stroke-width="6.25" fill="none"/><g id="g476" transform="scale(10 10)"><text id="text480" fill="#231F20" font-family="Arial" font-weight="700" font-size="20" transform="matrix(1 0 0 -1 176.31 1018.83)"><tspan x="0 15.0434 30.0868" y="0">RNI</tspan></text></g><path d="M343.676 8863.92C440.32 8863.92 518.676 8942.28 518.676 9038.92 518.676 9135.57 440.32 9213.92 343.676 9213.92 247.02 9213.92 168.676 9135.57 168.676 9038.92 168.676 8942.28 247.02 8863.92 343.676 8863.92" id="path482" fill="#FFFFFF"/><path d="M343.676 8863.92C440.32 8863.92 518.676 8942.28 518.676 9038.92 518.676 9135.57 440.32 9213.92 343.676 9213.92 247.02 9213.92 168.676 9135.57 168.676 9038.92 168.676 8942.28 247.02 8863.92 343.676 8863.92Z" id="path484" stroke="#231F20" stroke-width="6.25" fill="none"/><g id="g486" transform="scale(10 10)"><text id="text490" fill="#231F20" font-family="Arial" font-weight="400" font-size="25" transform="matrix(1 0 0 -1 27.4156 895.142)"><tspan x="0" y="0">1</tspan></text></g><path d="M343.676 7800.95C440.32 7800.95 518.676 7879.3 518.676 7975.95 518.676 8072.6 440.32 8150.95 343.676 8150.95 247.02 8150.95 168.676 8072.6 168.676 7975.95 168.676 7879.3 247.02 7800.95 343.676 7800.95" id="path492" fill="#FFFFFF"/><path d="M343.676 7800.95C440.32 7800.95 518.676 7879.3 518.676 7975.95 518.676 8072.6 440.32 8150.95 343.676 8150.95 247.02 8150.95 168.676 8072.6 168.676 7975.95 168.676 7879.3 247.02 7800.95 343.676 7800.95Z" id="path494" stroke="#231F20" stroke-width="6.25" fill="none"/><g id="g496" transform="scale(10 10)"><text id="text500" fill="#231F20" font-family="Arial" font-weight="400" font-size="25" transform="matrix(1 0 0 -1 27.4156 788.845)"><tspan x="0" y="0">2</tspan></text></g><path d="M343.676 7172.28C440.32 7172.28 518.676 7250.63 518.676 7347.28 518.676 7443.92 440.32 7522.28 343.676 7522.28 247.02 7522.28 168.676 7443.92 168.676 7347.28 168.676 7250.63 247.02 7172.28 343.676 7172.28" id="path502" fill="#FFFFFF"/><path d="M343.676 7172.28C440.32 7172.28 518.676 7250.63 518.676 7347.28 518.676 7443.92 440.32 7522.28 343.676 7522.28 247.02 7522.28 168.676 7443.92 168.676 7347.28 168.676 7250.63 247.02 7172.28 343.676 7172.28Z" id="path504" stroke="#231F20" stroke-width="6.25" fill="none"/><g id="g506" transform="scale(10 10)"><text id="text510" fill="#231F20" font-family="Arial" font-weight="400" font-size="25" transform="matrix(1 0 0 -1 27.4156 725.978)"><tspan x="0" y="0">3</tspan></text></g><path d="M348.363 5261.94C445.012 5261.94 523.363 5340.29 523.363 5436.94 523.363 5533.58 445.012 5611.94 348.363 5611.94 251.711 5611.94 173.363 5533.58 173.363 5436.94 173.363 5340.29 251.711 5261.94 348.363 5261.94" id="path512" fill="#FFFFFF"/><path d="M348.363 5261.94C445.012 5261.94 523.363 5340.29 523.363 5436.94 523.363 5533.58 445.012 5611.94 348.363 5611.94 251.711 5611.94 173.363 5533.58 173.363 5436.94 173.363 5340.29 251.711 5261.94 348.363 5261.94Z" id="path514" stroke="#231F20" stroke-width="6.25" fill="none"/><g id="g516" transform="scale(10 10)"><text id="text520" fill="#231F20" font-family="Arial" font-weight="400" font-size="25" transform="matrix(1 0 0 -1 27.8844 534.944)"><tspan x="0" y="0">5</tspan></text></g><path d="M342.113 2485.13C438.762 2485.13 517.113 2563.48 517.113 2660.13 517.113 2756.79 438.762 2835.13 342.113 2835.13 245.461 2835.13 167.113 2756.79 167.113 2660.13 167.113 2563.48 245.461 2485.13 342.113 2485.13" id="path522" fill="#FFFFFF"/><path d="M342.113 2485.13C438.762 2485.13 517.113 2563.48 517.113 2660.13 517.113 2756.79 438.762 2835.13 342.113 2835.13 245.461 2835.13 167.113 2756.79 167.113 2660.13 167.113 2563.48 245.461 2485.13 342.113 2485.13Z" id="path524" stroke="#231F20" stroke-width="6.25" fill="none"/><g id="g526" transform="scale(10 10)"><text id="text530" fill="#231F20" font-family="Arial" font-weight="400" font-size="25" transform="matrix(1 0 0 -1 27.2594 257.263)"><tspan x="0" y="0">8</tspan></text></g><path d="M342.113 1422.12C438.762 1422.12 517.113 1500.49 517.113 1597.12 517.113 1693.78 438.762 1772.12 342.113 1772.12 245.461 1772.12 167.113 1693.78 167.113 1597.12 167.113 1500.49 245.461 1422.12 342.113 1422.12" id="path532" fill="#FFFFFF"/><path d="M342.113 1422.12C438.762 1422.12 517.113 1500.49 517.113 1597.12 517.113 1693.78 438.762 1772.12 342.113 1772.12 245.461 1772.12 167.113 1693.78 167.113 1597.12 167.113 1500.49 245.461 1422.12 342.113 1422.12Z" id="path534" stroke="#231F20" stroke-width="6.25" fill="none"/><g id="g536" transform="scale(10 10)"><text id="text540" fill="#231F20" font-family="Arial" font-weight="400" font-size="25" transform="matrix(1 0 0 -1 27.2594 150.962)"><tspan x="0" y="0">9</tspan></text></g><path d="M9557.44 3724.04C9654.1 3724.04 9732.44 3802.39 9732.44 3899.04 9732.44 3995.68 9654.1 4074.04 9557.44 4074.04 9460.79 4074.04 9382.44 3995.68 9382.44 3899.04 9382.44 3802.39 9460.79 3724.04 9557.44 3724.04" id="path542" fill="#FFFFFF"/><path d="M9557.44 3724.04C9654.1 3724.04 9732.44 3802.39 9732.44 3899.04 9732.44 3995.68 9654.1 4074.04 9557.44 4074.04 9460.79 4074.04 9382.44 3995.68 9382.44 3899.04 9382.44 3802.39 9460.79 3724.04 9557.44 3724.04Z" id="path544" stroke="#231F20" stroke-width="6.25" fill="none"/><g id="g546" transform="scale(10 10)"><text id="text550" fill="#231F20" font-family="Arial" font-weight="400" font-size="25" transform="matrix(1 0 0 -1 948.792 381.154)"><tspan x="0" y="0">6</tspan></text></g><path d="M9557.44 2838.2C9654.1 2838.2 9732.44 2916.56 9732.44 3013.2 9732.44 3109.88 9654.1 3188.21 9557.44 3188.21 9460.79 3188.21 9382.44 3109.88 9382.44 3013.2 9382.44 2916.56 9460.79 2838.2 9557.44 2838.2" id="path552" fill="#FFFFFF"/><path d="M9557.44 2838.2C9654.1 2838.2 9732.44 2916.56 9732.44 3013.2 9732.44 3109.88 9654.1 3188.21 9557.44 3188.21 9460.79 3188.21 9382.44 3109.88 9382.44 3013.2 9382.44 2916.56 9460.79 2838.2 9557.44 2838.2Z" id="path554" stroke="#231F20" stroke-width="6.25" fill="none"/><g id="g556" transform="scale(10 10)"><text id="text560" fill="#231F20" font-family="Arial" font-weight="400" font-size="25" transform="matrix(1 0 0 -1 948.792 292.57)"><tspan x="0" y="0">7</tspan></text></g><path d="M9557.44 713.82C9654.1 713.82 9732.44 792.191 9732.44 888.82 9732.44 985.5 9654.1 1063.82 9557.44 1063.82 9460.79 1063.82 9382.44 985.5 9382.44 888.82 9382.44 792.191 9460.79 713.82 9557.44 713.82" id="path562" fill="#FFFFFF"/><path d="M9557.44 713.82C9654.1 713.82 9732.44 792.191 9732.44 888.82 9732.44 985.5 9654.1 1063.82 9557.44 1063.82 9460.79 1063.82 9382.44 985.5 9382.44 888.82 9382.44 792.191 9460.79 713.82 9557.44 713.82Z" id="path564" stroke="#231F20" stroke-width="6.25" fill="none"/><g id="g566" transform="scale(10 10)"><text id="text570" fill="#231F20" font-family="Arial" font-weight="400" font-size="25" transform="matrix(1 0 0 -1 941.84 80.132)"><tspan x="0 13.9038" y="0">10</tspan></text></g><path d="M6944.87 2834.07 7043.51 2869.79 6944.87 2657.51 6843.51 2869.79 6944.87 2834.07" id="path572" fill="#231F20"/><path d="M6944.87 3807.51 7043.51 3843.22 6944.87 3630.95 6843.51 3843.22 6944.87 3807.51" id="path574" fill="#231F20"/><path d="M7782.47 3096.41C7803.2 3096.41 7819.97 3113.21 7819.97 3133.91 7819.97 3154.64 7803.2 3171.42 7782.47 3171.42 7761.8 3171.42 7744.97 3154.64 7744.97 3133.91 7744.97 3113.21 7761.8 3096.41 7782.47 3096.41" id="path576" fill="#FFFFFF"/><path d="M7782.47 3096.41C7803.2 3096.41 7819.97 3113.21 7819.97 3133.91 7819.97 3154.64 7803.2 3171.42 7782.47 3171.42 7761.8 3171.42 7744.97 3154.64 7744.97 3133.91 7744.97 3113.21 7761.8 3096.41 7782.47 3096.41Z" id="path578" stroke="#231F20" stroke-width="6.25" stroke-linecap="square" fill="none"/><path d="M6371.63 2454.4C6392.33 2454.4 6409.13 2471.19 6409.13 2491.9 6409.13 2512.63 6392.33 2529.4 6371.63 2529.4 6350.93 2529.4 6334.13 2512.63 6334.13 2491.9 6334.13 2471.19 6350.93 2454.4 6371.63 2454.4" id="path580" fill="#FFFFFF"/><path d="M6371.63 2454.4C6392.33 2454.4 6409.13 2471.19 6409.13 2491.9 6409.13 2512.63 6392.33 2529.4 6371.63 2529.4 6350.93 2529.4 6334.13 2512.63 6334.13 2491.9 6334.13 2471.19 6350.93 2454.4 6371.63 2454.4Z" id="path582" stroke="#231F20" stroke-width="6.25" stroke-linecap="square" fill="none"/><path d="M6943.85 1334.31 7042.48 1370.03 6943.85 1157.75 6842.48 1370.03 6943.85 1334.31" id="path584" fill="#231F20"/><path d="M6945.41 717.75 7044.04 753.469 6945.41 541.199 6844.04 753.469 6945.41 717.75" id="path586" fill="#231F20"/><path d="M3530.72 3330.11C3551.43 3330.11 3568.22 3346.91 3568.22 3367.61 3568.22 3388.33 3551.43 3405.11 3530.72 3405.11 3510.01 3405.11 3493.22 3388.33 3493.22 3367.61 3493.22 3346.91 3510.01 3330.11 3530.72 3330.11" id="path588" fill="#FFFFFF"/><path d="M3530.72 3330.11C3551.43 3330.11 3568.22 3346.91 3568.22 3367.61 3568.22 3388.33 3551.43 3405.11 3530.72 3405.11 3510.01 3405.11 3493.22 3388.33 3493.22 3367.61 3493.22 3346.91 3510.01 3330.11 3530.72 3330.11Z" id="path590" stroke="#231F20" stroke-width="6.25" stroke-linecap="square" fill="none"/><path d="M2767.58 717.75 2866.21 753.469 2767.58 541.199 2666.21 753.469 2767.58 717.75" id="path592" fill="#231F20"/><path d="M1093.61 8160.79C1114.32 8160.79 1131.11 8177.58 1131.11 8198.29 1131.11 8219 1114.32 8235.79 1093.61 8235.79 1072.9 8235.79 1056.11 8219 1056.11 8198.29 1056.11 8177.58 1072.9 8160.79 1093.61 8160.79" id="path594" fill="#FFFFFF"/><path d="M1093.61 8160.79C1114.32 8160.79 1131.11 8177.58 1131.11 8198.29 1131.11 8219 1114.32 8235.79 1093.61 8235.79 1072.9 8235.79 1056.11 8219 1056.11 8198.29 1056.11 8177.58 1072.9 8160.79 1093.61 8160.79Z" id="path596" stroke="#231F20" stroke-width="6.25" stroke-linecap="square" fill="none"/><path d="M1110.8 9220.17C1131.5 9220.17 1148.3 9236.96 1148.3 9257.67 1148.3 9278.37 1131.5 9295.17 1110.8 9295.17 1090.09 9295.17 1073.3 9278.37 1073.3 9257.67 1073.3 9236.96 1090.09 9220.17 1110.8 9220.17" id="path598" fill="#FFFFFF"/><path d="M1110.8 9220.17C1131.5 9220.17 1148.3 9236.96 1148.3 9257.67 1148.3 9278.37 1131.5 9295.17 1110.8 9295.17 1090.09 9295.17 1073.3 9278.37 1073.3 9257.67 1073.3 9236.96 1090.09 9220.17 1110.8 9220.17Z" id="path600" stroke="#231F20" stroke-width="6.25" stroke-linecap="square" fill="none"/><path d="M1886.04 8865.41 1984.67 8901.1 1886.04 8688.85 1784.67 8901.1 1886.04 8865.41" id="path602" fill="#231F20"/><path d="M3475.11 7859.78 3510.8 7761.15 3298.54 7859.78 3510.8 7961.15 3475.11 7859.78" id="path604" fill="#231F20"/><path d="M2624.81 4610.56 2723.44 4646.26 2624.81 4434 2523.44 4646.26 2624.81 4610.56" id="path606" fill="#231F20"/><path d="M2623.25 4119.56 2623.25 3705.86" id="path608" stroke="#231F20" stroke-width="25" stroke-linecap="square" fill="none"/><path d="M2623.25 3808.99 2721.88 3844.7 2623.25 3632.42 2521.88 3844.7 2623.25 3808.99" id="path610" fill="#231F20"/><path d="M2948.54 2569.31 3047.17 2605.03 2948.54 2392.75 2847.17 2605.03 2948.54 2569.31" id="path612" fill="#231F20"/><path d="M3394.78 2392.32C3473.05 2392.32 3536.5 2328.88 3536.5 2250.59L3536.5 2002.57C3536.5 1924.29 3473.05 1860.84 3394.78 1860.84L1540.48 1860.84C1462.2 1860.84 1398.74 1924.29 1398.74 2002.57L1398.74 2250.59C1398.74 2328.88 1462.2 2392.32 1540.48 2392.32L3394.78 2392.32" id="path614" fill="#FFFFFF"/><path d="M3394.78 2392.32C3473.05 2392.32 3536.5 2328.88 3536.5 2250.59L3536.5 2002.57C3536.5 1924.29 3473.05 1860.84 3394.78 1860.84L1540.48 1860.84C1462.2 1860.84 1398.74 1924.29 1398.74 2002.57L1398.74 2250.59C1398.74 2328.88 1462.2 2392.32 1540.48 2392.32Z" id="path616" stroke="#231F20" stroke-width="8.75" fill="none"/><g id="g618" transform="scale(10 10)"><text id="text624" fill="#231F20" font-family="Arial" font-weight="400" font-size="17.5" transform="matrix(1 0 0 -1 154.587 216.397)"><tspan x="0 12.1273 22.315 28.5976 41.6905 46.0249 50.3764 59.5814 69.7691 79.9568 90.1445 100.332 109.537 119.725 129.913" y="0">Verwijsgegevens</tspan><tspan x="0 9.205 19.3927 25.6753 31.958 42.1457 51.3507 56.6677" y="17.75">correct?</tspan></text></g><path d="M3283.93 1908.01C3323.05 1908.01 3354.78 1876.3 3354.78 1837.14L3354.78 1800.64C3354.78 1761.48 3323.05 1729.76 3283.93 1729.76L2632.97 1729.76C2593.82 1729.76 2562.1 1761.48 2562.1 1800.64L2562.1 1837.14C2562.1 1876.3 2593.82 1908.01 2632.97 1908.01L3283.93 1908.01" id="path626" fill="#FFFFFF"/><path d="M3283.93 1908.01C3323.05 1908.01 3354.78 1876.3 3354.78 1837.14L3354.78 1800.64C3354.78 1761.48 3323.05 1729.76 3283.93 1729.76L2632.97 1729.76C2593.82 1729.76 2562.1 1761.48 2562.1 1800.64L2562.1 1837.14C2562.1 1876.3 2593.82 1908.01 2632.97 1908.01Z" id="path628" stroke="#231F20" stroke-width="8.75" fill="none"/><path d="M2305.3 1908.01C2344.44 1908.01 2376.17 1876.3 2376.17 1837.14L2376.17 1800.64C2376.17 1761.48 2344.44 1729.76 2305.3 1729.76L1654.35 1729.76C1615.22 1729.76 1583.5 1761.48 1583.5 1800.64L1583.5 1837.14C1583.5 1876.3 1615.22 1908.01 1654.35 1908.01L2305.3 1908.01" id="path630" fill="#FFFFFF"/><path d="M2305.3 1908.01C2344.44 1908.01 2376.17 1876.3 2376.17 1837.14L2376.17 1800.64C2376.17 1761.48 2344.44 1729.76 2305.3 1729.76L1654.35 1729.76C1615.22 1729.76 1583.5 1761.48 1583.5 1800.64L1583.5 1837.14C1583.5 1876.3 1615.22 1908.01 1654.35 1908.01Z" id="path632" stroke="#231F20" stroke-width="8.75" fill="none"/><g id="g634" transform="scale(10 10)"><text id="text638" fill="#231F20" font-family="Arial" font-weight="400" font-size="12" transform="matrix(1 0 0 -1 186.137 177.634)"><tspan x="0 9.12201 16.2518 103.178 109.538" y="0">NeeJa</tspan></text></g><path d="M2168.22 1680.11C2188.93 1680.11 2205.72 1696.91 2205.72 1717.61 2205.72 1738.33 2188.93 1755.11 2168.22 1755.11 2147.51 1755.11 2130.72 1738.33 2130.72 1717.61 2130.72 1696.91 2147.51 1680.11 2168.22 1680.11" id="path640" fill="#FFFFFF"/><path d="M2168.22 1680.11C2188.93 1680.11 2205.72 1696.91 2205.72 1717.61 2205.72 1738.33 2188.93 1755.11 2168.22 1755.11 2147.51 1755.11 2130.72 1738.33 2130.72 1717.61 2130.72 1696.91 2147.51 1680.11 2168.22 1680.11Z" id="path642" stroke="#231F20" stroke-width="6.25" stroke-linecap="square" fill="none"/><path d="M3118.22 1680.11C3138.93 1680.11 3155.72 1696.91 3155.72 1717.61 3155.72 1738.33 3138.93 1755.11 3118.22 1755.11 3097.51 1755.11 3080.72 1738.33 3080.72 1717.61 3080.72 1696.91 3097.51 1680.11 3118.22 1680.11" id="path644" fill="#FFFFFF"/><path d="M3118.22 1680.11C3138.93 1680.11 3155.72 1696.91 3155.72 1717.61 3155.72 1738.33 3138.93 1755.11 3118.22 1755.11 3097.51 1755.11 3080.72 1738.33 3080.72 1717.61 3080.72 1696.91 3097.51 1680.11 3118.22 1680.11Z" id="path646" stroke="#231F20" stroke-width="6.25" stroke-linecap="square" fill="none"/><path d="M8366.33 4871.3C8444.61 4871.3 8508.06 4807.85 8508.06 4729.58L8508.06 4304.37C8508.06 4226.1 8444.61 4162.65 8366.33 4162.65L6512.03 4162.65C6433.77 4162.65 6370.31 4226.1 6370.31 4304.37L6370.31 4729.58C6370.31 4807.85 6433.77 4871.3 6512.03 4871.3L8366.33 4871.3" id="path648" fill="#FFFFFF"/><path d="M8366.33 4871.3C8444.61 4871.3 8508.06 4807.85 8508.06 4729.58L8508.06 4304.37C8508.06 4226.1 8444.61 4162.65 8366.33 4162.65L6512.03 4162.65C6433.77 4162.65 6370.31 4226.1 6370.31 4304.37L6370.31 4729.58C6370.31 4807.85 6433.77 4871.3 6512.03 4871.3Z" id="path650" stroke="#231F20" stroke-width="8.75" fill="none"/><g id="g652" transform="scale(10 10)"><text id="text656" fill="#231F20" font-family="Arial" font-weight="400" font-size="17.5" transform="matrix(1 0 0 -1 651.743 464.293)"><tspan x="0 16.9723 27.16 36.365 46.5527 51.8697 57.1868 67.3745 77.5621 82.8792 93.067 103.255 108.572 121.665 131.852 142.04 148.323" y="0">Wacht op antwoord</tspan></text></g><path d="M7926.12 4051.65 7926.71 4196.68 7926.71 4332.02 7927.32 4477.05C7927.32 4555.32 7863.89 4618.78 7785.6 4618.78L7641.58 4619.73 6351.42 4618.61" id="path658" stroke="#231F20" stroke-width="8.75" stroke-dasharray="75 50" fill="none"/><path d="M6948.1 4144.85 6948.73 4289.87C6948.73 4368.16 6885.27 4431.6 6807.01 4431.6L6662.94 4432.54 6370.17 4431.42" id="path660" stroke="#231F20" stroke-width="8.75" stroke-dasharray="75 50" fill="none"/><path d="M8255.47 4209.83C8294.61 4209.83 8326.32 4178.1 8326.32 4138.96L8326.32 4102.45C8326.32 4063.3 8294.61 4031.57 8255.47 4031.57L7604.54 4031.57C7565.38 4031.57 7533.67 4063.3 7533.67 4102.45L7533.67 4138.96C7533.67 4178.1 7565.38 4209.83 7604.54 4209.83L8255.47 4209.83" id="path662" fill="#FFFFFF"/><path d="M8255.47 4209.83C8294.61 4209.83 8326.32 4178.1 8326.32 4138.96L8326.32 4102.45C8326.32 4063.3 8294.61 4031.57 8255.47 4031.57L7604.54 4031.57C7565.38 4031.57 7533.67 4063.3 7533.67 4102.45L7533.67 4138.96C7533.67 4178.1 7565.38 4209.83 7604.54 4209.83Z" id="path664" stroke="#231F20" stroke-width="8.75" fill="none"/><g id="g666" transform="scale(10 10)"><text id="text670" fill="#231F20" font-family="Arial" font-weight="400" font-size="12" transform="matrix(1 0 0 -1 780.731 407.815)"><tspan x="0 6.456 10.246 17.3758" y="0">Jf01</tspan></text></g><path d="M6370.17 4581.11C6390.87 4581.11 6407.67 4597.89 6407.67 4618.61 6407.67 4639.31 6390.87 4656.11 6370.17 4656.11 6349.46 4656.11 6332.67 4639.31 6332.67 4618.61 6332.67 4597.89 6349.46 4581.11 6370.17 4581.11" id="path672" fill="#FFFFFF"/><path d="M6370.17 4581.11C6390.87 4581.11 6407.67 4597.89 6407.67 4618.61 6407.67 4639.31 6390.87 4656.11 6370.17 4656.11 6349.46 4656.11 6332.67 4639.31 6332.67 4618.61 6332.67 4597.89 6349.46 4581.11 6370.17 4581.11Z" id="path674" stroke="#231F20" stroke-width="6.25" stroke-linecap="square" fill="none"/><path d="M6370.17 4393.92C6390.87 4393.92 6407.67 4410.72 6407.67 4431.42 6407.67 4452.14 6390.87 4468.92 6370.17 4468.92 6349.46 4468.92 6332.67 4452.14 6332.67 4431.42 6332.67 4410.72 6349.46 4393.92 6370.17 4393.92" id="path676" fill="#FFFFFF"/><path d="M6370.17 4393.92C6390.87 4393.92 6407.67 4410.72 6407.67 4431.42 6407.67 4452.14 6390.87 4468.92 6370.17 4468.92 6349.46 4468.92 6332.67 4452.14 6332.67 4431.42 6332.67 4410.72 6349.46 4393.92 6370.17 4393.92Z" id="path678" stroke="#231F20" stroke-width="6.25" stroke-linecap="square" fill="none"/><path d="M7276.86 4209.83C7316.02 4209.83 7347.73 4178.1 7347.73 4138.96L7347.73 4102.45C7347.73 4063.3 7316.02 4031.57 7276.86 4031.57L6625.93 4031.57C6586.8 4031.57 6555.06 4063.3 6555.06 4102.45L6555.06 4138.96C6555.06 4178.1 6586.8 4209.83 6625.93 4209.83L7276.86 4209.83" id="path680" fill="#FFFFFF"/><path d="M7276.86 4209.83C7316.02 4209.83 7347.73 4178.1 7347.73 4138.96L7347.73 4102.45C7347.73 4063.3 7316.02 4031.57 7276.86 4031.57L6625.93 4031.57C6586.8 4031.57 6555.06 4063.3 6555.06 4102.45L6555.06 4138.96C6555.06 4178.1 6586.8 4209.83 6625.93 4209.83Z" id="path682" stroke="#231F20" stroke-width="8.75" fill="none"/><g id="g684" transform="scale(10 10)"><text id="text688" fill="#231F20" font-family="Arial" font-weight="400" font-size="12" transform="matrix(1 0 0 -1 681.439 407.815)"><tspan x="0 6.36 13.3938 20.4276" y="0">Jb01</tspan></text></g><path d="M3284.06 8381.4C3323.22 8381.4 3354.93 8349.67 3354.93 8310.55L3354.93 8274.02C3354.93 8234.89 3323.22 8203.17 3284.06 8203.17L2633.14 8203.17C2593.99 8203.17 2562.27 8234.89 2562.27 8274.02L2562.27 8310.55C2562.27 8349.67 2593.99 8381.4 2633.14 8381.4L3284.06 8381.4" id="path690" fill="#FFFFFF"/><path d="M3284.06 8381.4C3323.22 8381.4 3354.93 8349.67 3354.93 8310.55L3354.93 8274.02C3354.93 8234.89 3323.22 8203.17 3284.06 8203.17L2633.14 8203.17C2593.99 8203.17 2562.27 8234.89 2562.27 8274.02L2562.27 8310.55C2562.27 8349.67 2593.99 8381.4 2633.14 8381.4Z" id="path692" stroke="#231F20" stroke-width="8.75" fill="none"/><g id="g694" transform="scale(10 10)"><text id="text698" fill="#231F20" font-family="Arial" font-weight="400" font-size="12" transform="matrix(1 0 0 -1 267.314 824.972)"><tspan x="0 9.02601 12.052 19.0859 22.7798 26.4738 33.5076 40.5415 43.5675 50.6013" y="0">Niet uniek</tspan></text></g><path d="M3131.11 8160.79C3151.82 8160.79 3168.61 8177.58 3168.61 8198.29 3168.61 8219 3151.82 8235.79 3131.11 8235.79 3110.4 8235.79 3093.61 8219 3093.61 8198.29 3093.61 8177.58 3110.4 8160.79 3131.11 8160.79" id="path700" fill="#FFFFFF"/><path d="M3131.11 8160.79C3151.82 8160.79 3168.61 8177.58 3168.61 8198.29 3168.61 8219 3151.82 8235.79 3131.11 8235.79 3110.4 8235.79 3093.61 8219 3093.61 8198.29 3093.61 8177.58 3110.4 8160.79 3131.11 8160.79Z" id="path702" stroke="#231F20" stroke-width="6.25" stroke-linecap="square" fill="none"/><path d="M8366.33 1860.84C8444.61 1860.84 8508.06 1797.37 8508.06 1719.09L8508.06 1293.9C8508.06 1215.63 8444.61 1152.18 8366.33 1152.18L6512.03 1152.18C6433.77 1152.18 6370.31 1215.63 6370.31 1293.9L6370.31 1719.09C6370.31 1797.37 6433.77 1860.84 6512.03 1860.84L8366.33 1860.84" id="path704" fill="#FFFFFF"/><path d="M8366.33 1860.84C8444.61 1860.84 8508.06 1797.37 8508.06 1719.09L8508.06 1293.9C8508.06 1215.63 8444.61 1152.18 8366.33 1152.18L6512.03 1152.18C6433.77 1152.18 6370.31 1215.63 6370.31 1293.9L6370.31 1719.09C6370.31 1797.37 6433.77 1860.84 6512.03 1860.84Z" id="path706" stroke="#231F20" stroke-width="8.75" fill="none"/><g id="g708" transform="scale(10 10)"><text id="text712" fill="#231F20" font-family="Arial" font-weight="400" font-size="17.5" transform="matrix(1 0 0 -1 651.743 163.247)"><tspan x="0 16.9723 27.16 36.365 46.5527 51.8697 57.1868 67.3745 77.5621 82.8792 93.067 103.255 108.572 121.665 131.852 142.04 148.323" y="0">Wacht op antwoord</tspan></text></g><path d="M7926.12 1031.18 7926.71 1176.22 7926.71 1311.56 7927.32 1456.59C7927.32 1534.87 7863.89 1598.29 7785.6 1598.29L7641.58 1599.27 6351.42 1598.15" id="path714" stroke="#231F20" stroke-width="8.75" stroke-dasharray="75 50" fill="none"/><path d="M6948.1 1134.38 6948.73 1279.4C6948.73 1357.67 6885.27 1421.14 6807.01 1421.14L6662.94 1422.07 6370.17 1420.95" id="path716" stroke="#231F20" stroke-width="8.75" stroke-dasharray="75 50" fill="none"/><path d="M7276.86 1199.37C7316.02 1199.37 7347.73 1167.63 7347.73 1128.47L7347.73 1091.99C7347.73 1052.83 7316.02 1021.1 7276.86 1021.1L6625.93 1021.1C6586.8 1021.1 6555.06 1052.83 6555.06 1091.99L6555.06 1128.47C6555.06 1167.63 6586.8 1199.37 6625.93 1199.37L7276.86 1199.37" id="path718" fill="#FFFFFF"/><path d="M7276.86 1199.37C7316.02 1199.37 7347.73 1167.63 7347.73 1128.47L7347.73 1091.99C7347.73 1052.83 7316.02 1021.1 7276.86 1021.1L6625.93 1021.1C6586.8 1021.1 6555.06 1052.83 6555.06 1091.99L6555.06 1128.47C6555.06 1167.63 6586.8 1199.37 6625.93 1199.37Z" id="path720" stroke="#231F20" stroke-width="8.75" fill="none"/><g id="g722" transform="scale(10 10)"><text id="text726" fill="#231F20" font-family="Arial" font-weight="400" font-size="12" transform="matrix(1 0 0 -1 684.114 106.768)"><tspan x="0 9.02606 16.0598 19.0858" y="0">Null</tspan></text></g><path d="M8255.47 1199.37C8294.61 1199.37 8326.32 1167.63 8326.32 1128.47L8326.32 1091.99C8326.32 1052.83 8294.61 1021.1 8255.47 1021.1L7604.54 1021.1C7565.38 1021.1 7533.67 1052.83 7533.67 1091.99L7533.67 1128.47C7533.67 1167.63 7565.38 1199.37 7604.54 1199.37L8255.47 1199.37" id="path728" fill="#FFFFFF"/><path d="M8255.47 1199.37C8294.61 1199.37 8326.32 1167.63 8326.32 1128.47L8326.32 1091.99C8326.32 1052.83 8294.61 1021.1 8255.47 1021.1L7604.54 1021.1C7565.38 1021.1 7533.67 1052.83 7533.67 1091.99L7533.67 1128.47C7533.67 1167.63 7565.38 1199.37 7604.54 1199.37Z" id="path730" stroke="#231F20" stroke-width="8.75" fill="none"/><g id="g732" transform="scale(10 10)"><text id="text736" fill="#231F20" font-family="Arial" font-weight="400" font-size="12" transform="matrix(1 0 0 -1 780.731 106.768)"><tspan x="0 6.456 10.246 17.3758" y="0">Jf31</tspan></text></g><path d="M6370.17 1383.45C6390.87 1383.45 6407.67 1400.25 6407.67 1420.95 6407.67 1441.67 6390.87 1458.45 6370.17 1458.45 6349.46 1458.45 6332.67 1441.67 6332.67 1420.95 6332.67 1400.25 6349.46 1383.45 6370.17 1383.45" id="path738" fill="#FFFFFF"/><path d="M6370.17 1383.45C6390.87 1383.45 6407.67 1400.25 6407.67 1420.95 6407.67 1441.67 6390.87 1458.45 6370.17 1458.45 6349.46 1458.45 6332.67 1441.67 6332.67 1420.95 6332.67 1400.25 6349.46 1383.45 6370.17 1383.45Z" id="path740" stroke="#231F20" stroke-width="6.25" stroke-linecap="square" fill="none"/><path d="M6370.17 1558.45C6390.87 1558.45 6407.67 1575.25 6407.67 1595.95 6407.67 1616.67 6390.87 1633.45 6370.17 1633.45 6349.46 1633.45 6332.67 1616.67 6332.67 1595.95 6332.67 1575.25 6349.46 1558.45 6370.17 1558.45" id="path742" fill="#FFFFFF"/><path d="M6370.17 1558.45C6390.87 1558.45 6407.67 1575.25 6407.67 1595.95 6407.67 1616.67 6390.87 1633.45 6370.17 1633.45 6349.46 1633.45 6332.67 1616.67 6332.67 1595.95 6332.67 1575.25 6349.46 1558.45 6370.17 1558.45Z" id="path744" stroke="#231F20" stroke-width="6.25" stroke-linecap="square" fill="none"/><path d="M3406.96 4426.46C3485.23 4426.46 3548.68 4363 3548.68 4284.73L3548.68 4213.86C3548.68 4135.58 3485.23 4072.13 3406.96 4072.13L1552.66 4072.13C1474.39 4072.13 1410.94 4135.58 1410.94 4213.86L1410.94 4284.73C1410.94 4363 1474.39 4426.46 1552.66 4426.46L3406.96 4426.46" id="path746" fill="#FFFFFF"/><path d="M3406.96 4426.46C3485.23 4426.46 3548.68 4363 3548.68 4284.73L3548.68 4213.86C3548.68 4135.58 3485.23 4072.13 3406.96 4072.13L1552.66 4072.13C1474.39 4072.13 1410.94 4135.58 1410.94 4213.86L1410.94 4284.73C1410.94 4363 1474.39 4426.46 1552.66 4426.46Z" id="path748" stroke="#231F20" stroke-width="8.75" fill="none"/><g id="g750" transform="scale(10 10)"><text id="text754" fill="#231F20" font-family="Arial" font-weight="400" font-size="17.5" transform="matrix(1 0 0 -1 152.036 419.571)"><tspan x="0 12.1273 22.315 28.5976 37.8026 47.9903 58.1781 68.3657 73.6828 85.8102" y="0">Verzend PL</tspan></text></g><path d="M3535.62 4219.07C3556.32 4219.07 3573.12 4235.87 3573.12 4256.57 3573.12 4277.3 3556.32 4294.07 3535.62 4294.07 3514.9 4294.07 3498.12 4277.3 3498.12 4256.57 3498.12 4235.87 3514.9 4219.07 3535.62 4219.07" id="path756" fill="#FFFFFF"/><path d="M3535.62 4219.07C3556.32 4219.07 3573.12 4235.87 3573.12 4256.57 3573.12 4277.3 3556.32 4294.07 3535.62 4294.07 3514.9 4294.07 3498.12 4277.3 3498.12 4256.57 3498.12 4235.87 3514.9 4219.07 3535.62 4219.07Z" id="path758" stroke="#231F20" stroke-width="6.25" stroke-linecap="square" fill="none"/><path d="M8674.51 9216.07 9763.57 9216.07 9763.57 9830.13 9616.7 9825.44C9616.7 9892.63 9566.7 9892.63 9566.7 9892.63L9466.7 9892.63C9466.7 9892.63 9416.7 9889.5 9416.7 9825.44L8674.51 9825.44 8674.51 9216.07" id="path760" fill="#FFFFFF"/><path d="M8674.51 9216.07 9763.57 9216.07 9763.57 9830.13 9616.7 9825.44C9616.7 9892.63 9566.7 9892.63 9566.7 9892.63L9466.7 9892.63C9466.7 9892.63 9416.7 9889.5 9416.7 9825.44L8674.51 9825.44Z" id="path762" stroke="#231F20" stroke-width="12.5" stroke-linecap="square" fill="none"/><g id="g764" transform="scale(10 10)"><text id="text770" fill="#231F20" font-family="Arial" font-weight="400" font-size="17.5" transform="matrix(1 0 0 -1 886.671 954.807)"><tspan x="0 12.206 22.4636 32.7214 42.979 47.392 52.779 58.166" y="0">Aangifte</tspan><tspan x="7.34844 17.6061 27.8638 34.2163 44.474 54.7318" y="17.75">burger</tspan></text></g><path d="M615.582 6364.08 615.238 6009.95 488.676 6009.95" id="path772" stroke="#231F20" stroke-width="25" stroke-linecap="square" fill="none"/><path d="M7476.9 9569.62 7476.9 5046.72" id="path774" stroke="#231F20" stroke-width="25" stroke-linecap="square" fill="none"/><path d="M8360.23 9751.53C8438.53 9751.53 8501.95 9688.08 8501.95 9609.79L8501.95 9538.93C8501.95 9460.65 8438.53 9397.21 8360.23 9397.21L6505.98 9397.21C6427.69 9397.21 6364.26 9460.65 6364.26 9538.93L6364.26 9609.79C6364.26 9688.08 6427.69 9751.53 6505.98 9751.53L8360.23 9751.53" id="path776" fill="#FFFFFF"/><path d="M8360.23 9751.53C8438.53 9751.53 8501.95 9688.08 8501.95 9609.79L8501.95 9538.93C8501.95 9460.65 8438.53 9397.21 8360.23 9397.21L6505.98 9397.21C6427.69 9397.21 6364.26 9460.65 6364.26 9538.93L6364.26 9609.79C6364.26 9688.08 6427.69 9751.53 6505.98 9751.53Z" id="path778" stroke="#231F20" stroke-width="8.75" fill="none"/><g id="g780" transform="scale(10 10)"><text id="text784" fill="#231F20" font-family="Arial" font-weight="400" font-size="17.5" transform="matrix(1 0 0 -1 651.133 952.284)"><tspan x="0 15.1026 25.3603 35.618 44.893 50.28 59.555 63.968 74.2256 84.4833 89.8704 100.128 104.541 109.928 115.315 125.573 135.83 146.088 156.346 160.759 166.146 171.533" y="0">Maak Ji01 uit aangifte</tspan></text></g><path d="M7476.12 5058.13 7574.76 5093.84 7476.12 4881.57 7374.76 5093.84 7476.12 5058.13" id="path786" fill="#231F20"/><path d="M6370.21 9532.67C6390.92 9532.67 6407.71 9549.46 6407.71 9570.17 6407.71 9590.87 6390.92 9607.67 6370.21 9607.67 6349.51 9607.67 6332.71 9590.87 6332.71 9570.17 6332.71 9549.46 6349.51 9532.67 6370.21 9532.67" id="path788" fill="#FFFFFF"/><path d="M6370.21 9532.67C6390.92 9532.67 6407.71 9549.46 6407.71 9570.17 6407.71 9590.87 6390.92 9607.67 6370.21 9607.67 6349.51 9607.67 6332.71 9590.87 6332.71 9570.17 6332.71 9549.46 6349.51 9532.67 6370.21 9532.67Z" id="path790" stroke="#231F20" stroke-width="6.25" stroke-linecap="square" fill="none"/><path d="M2294.62 8384.39C2342.23 8384.39 2380.84 8352.66 2380.84 8313.54L2380.84 8277.01C2380.84 8237.89 2342.23 8206.16 2294.62 8206.16L1502.44 8206.16C1454.82 8206.16 1416.21 8237.89 1416.21 8277.01L1416.21 8313.54C1416.21 8352.66 1454.82 8384.39 1502.44 8384.39L2294.62 8384.39" id="path792" fill="#FFFFFF"/><path d="M2294.62 8384.39C2342.23 8384.39 2380.84 8352.66 2380.84 8313.54L2380.84 8277.01C2380.84 8237.89 2342.23 8206.16 2294.62 8206.16L1502.44 8206.16C1454.82 8206.16 1416.21 8237.89 1416.21 8277.01L1416.21 8313.54C1416.21 8352.66 1454.82 8384.39 1502.44 8384.39Z" id="path794" stroke="#231F20" stroke-width="8.75" fill="none"/><g id="g796" transform="scale(10 10)"><text id="text800" fill="#231F20" font-family="Arial" font-weight="400" font-size="12" transform="matrix(1 0 0 -1 148.599 825.271)"><tspan x="0 9.02602 12.052 19.0859 22.7798 26.4738 33.5077 40.5415 47.5753 56.6013 63.6352 69.9952 73.0212" y="0">Niet aanwezig</tspan></text></g><path d="M2074.86 8160.79C2095.57 8160.79 2112.36 8177.58 2112.36 8198.29 2112.36 8219 2095.57 8235.79 2074.86 8235.79 2054.15 8235.79 2037.36 8219 2037.36 8198.29 2037.36 8177.58 2054.15 8160.79 2074.86 8160.79" id="path802" fill="#FFFFFF"/><path d="M2074.86 8160.79C2095.57 8160.79 2112.36 8177.58 2112.36 8198.29 2112.36 8219 2095.57 8235.79 2074.86 8235.79 2054.15 8235.79 2037.36 8219 2037.36 8198.29 2037.36 8177.58 2054.15 8160.79 2074.86 8160.79Z" id="path804" stroke="#231F20" stroke-width="6.25" stroke-linecap="square" fill="none"/><path d="M3407.44 6602.57C3443.33 6602.57 3472.42 6561.03 3472.42 6509.75L3472.42 6229.81C3472.42 6178.56 3443.33 6136.99 3407.44 6136.99L2251.18 6136.99C2215.3 6136.99 2186.21 6178.56 2186.21 6229.81L2186.21 6509.75C2186.21 6561.03 2215.3 6602.57 2251.18 6602.57L3407.44 6602.57" id="path806" fill="#FFFFFF"/><path d="M3407.44 6602.57C3443.33 6602.57 3472.42 6561.03 3472.42 6509.75L3472.42 6229.81C3472.42 6178.56 3443.33 6136.99 3407.44 6136.99L2251.18 6136.99C2215.3 6136.99 2186.21 6178.56 2186.21 6229.81L2186.21 6509.75C2186.21 6561.03 2215.3 6602.57 2251.18 6602.57Z" id="path808" stroke="#231F20" stroke-width="8.75" fill="none"/><g id="g810" transform="scale(10 10)"><text id="text818" fill="#231F20" font-family="Arial" font-weight="400" font-size="12" transform="matrix(1 0 0 -1 223.996 647.091)"><tspan x="0 9.86198 17.0638 24.2656 34.7897 37.9837 45.1856 49.7097 56.9115 64.1133 68.6375 75.8393" y="0">Gemigreerd,</tspan><tspan x="0 10.5241 13.7181 20.92 24.114 30.642 34.504 41.7058 46.2299 49.4239 56.6257 63.8276 67.0216 70.8836 78.0854 85.2872 91.8152 95.0092 102.211 105.405 109.267" y="13.75">Ministerieel besluit </tspan><tspan x="0 7.20183 11.0638 14.9258 22.1276 29.3294 36.5313 43.7331 50.9349 54.1289 61.3308 68.5326 75.7344 79.5964 82.7904 89.9923 93.8542 103.048 112.242" y="27.5">of aangelegd in RNI</tspan></text></g><path d="M885.934 6602.57C935.801 6602.57 976.211 6570.86 976.211 6531.72L976.211 6318.04C976.211 6278.91 935.801 6247.19 885.934 6247.19L508.125 6247.19C458.277 6247.19 417.883 6278.91 417.883 6318.04L417.883 6531.72C417.883 6570.86 458.277 6602.57 508.125 6602.57L885.934 6602.57" id="path820" fill="#FFFFFF"/><path d="M885.934 6602.57C935.801 6602.57 976.211 6570.86 976.211 6531.72L976.211 6318.04C976.211 6278.91 935.801 6247.19 885.934 6247.19L508.125 6247.19C458.277 6247.19 417.883 6278.91 417.883 6318.04L417.883 6531.72C417.883 6570.86 458.277 6602.57 508.125 6602.57Z" id="path822" stroke="#231F20" stroke-width="8.75" fill="none"/><path d="M1439.42 6602.57C1469.13 6602.57 1493.21 6570.86 1493.21 6531.72L1493.21 6318.04C1493.21 6278.91 1469.13 6247.19 1439.42 6247.19L1079.88 6247.19C1050.19 6247.19 1026.11 6278.91 1026.11 6318.04L1026.11 6531.72C1026.11 6570.86 1050.19 6602.57 1079.88 6602.57L1439.42 6602.57" id="path824" fill="#FFFFFF"/><path d="M1439.42 6602.57C1469.13 6602.57 1493.21 6570.86 1493.21 6531.72L1493.21 6318.04C1493.21 6278.91 1469.13 6247.19 1439.42 6247.19L1079.88 6247.19C1050.19 6247.19 1026.11 6278.91 1026.11 6318.04L1026.11 6531.72C1026.11 6570.86 1050.19 6602.57 1079.88 6602.57Z" id="path826" stroke="#231F20" stroke-width="8.75" fill="none"/><g id="g828" transform="scale(10 10)"><text id="text834" fill="#231F20" font-family="Arial" font-weight="400" font-size="12" transform="matrix(1 0 0 -1 109.139 647.091)"><tspan x="0 9.86198 16.39 23.5918 28.1159" y="0">Over-</tspan><tspan x="0 3.19402 10.3959 17.5977 24.7995" y="13.75">leden</tspan></text></g><path d="M2069.8 6602.57C2107.33 6602.57 2137.75 6570.86 2137.75 6531.72L2137.75 6318.04C2137.75 6278.91 2107.33 6247.19 2069.8 6247.19L1615.63 6247.19C1578.12 6247.19 1547.71 6278.91 1547.71 6318.04L1547.71 6531.72C1547.71 6570.86 1578.12 6602.57 1615.63 6602.57L2069.8 6602.57" id="path836" fill="#FFFFFF"/><path d="M2069.8 6602.57C2107.33 6602.57 2137.75 6570.86 2137.75 6531.72L2137.75 6318.04C2137.75 6278.91 2107.33 6247.19 2069.8 6247.19L1615.63 6247.19C1578.12 6247.19 1547.71 6278.91 1547.71 6318.04L1547.71 6531.72C1547.71 6570.86 1578.12 6602.57 1615.63 6602.57Z" id="path838" stroke="#231F20" stroke-width="8.75" fill="none"/><g id="g840" transform="scale(10 10)"><text id="text844" fill="#231F20" font-family="Arial" font-weight="400" font-size="12" transform="matrix(1 0 0 -1 48.7691 639.091)"><tspan x="0 8.53777 15.0658 18.9277 26.1296 33.3314 40.5332" y="0">Actueel</tspan></text></g><path d="M1353.61 6195.79C1374.32 6195.79 1391.11 6212.58 1391.11 6233.29 1391.11 6254 1374.32 6270.79 1353.61 6270.79 1332.9 6270.79 1316.11 6254 1316.11 6233.29 1316.11 6212.58 1332.9 6195.79 1353.61 6195.79" id="path846" fill="#FFFFFF"/><path d="M1353.61 6195.79C1374.32 6195.79 1391.11 6212.58 1391.11 6233.29 1391.11 6254 1374.32 6270.79 1353.61 6270.79 1332.9 6270.79 1316.11 6254 1316.11 6233.29 1316.11 6212.58 1332.9 6195.79 1353.61 6195.79Z" id="path848" stroke="#231F20" stroke-width="6.25" stroke-linecap="square" fill="none"/><path d="M2006.71 6199.69C2027.41 6199.69 2044.21 6216.48 2044.21 6237.19 2044.21 6257.89 2027.41 6274.69 2006.71 6274.69 1986 6274.69 1969.21 6257.89 1969.21 6237.19 1969.21 6216.48 1986 6199.69 2006.71 6199.69" id="path850" fill="#FFFFFF"/><path d="M2006.71 6199.69C2027.41 6199.69 2044.21 6216.48 2044.21 6237.19 2044.21 6257.89 2027.41 6274.69 2006.71 6274.69 1986 6274.69 1969.21 6257.89 1969.21 6237.19 1969.21 6216.48 1986 6199.69 2006.71 6199.69Z" id="path852" stroke="#231F20" stroke-width="6.25" stroke-linecap="square" fill="none"/><path d="M5491.16 4336.72 5491.16 4874.22 4416.16 4874.22 4416.16 4336.72 5491.16 4336.72" id="path854" fill="#FFFFFF"/><path d="M5491.16 4336.72 5491.16 4874.22 4416.16 4874.22 4416.16 4336.72Z" id="path856" stroke="#231F20" stroke-width="25" fill="none"/><path d="M4416.16 4874.22 4671.19 4619.16 5232.52 4619.16 5489.36 4876.01" id="path858" stroke="#231F20" stroke-width="8.75" fill="none"/><g id="g860" transform="scale(10 10)"><text id="text866" fill="#231F20" font-family="Arial" font-weight="400" font-size="15" transform="matrix(1 0 0 -1 481.65 467.48)"><tspan x="0 7.86 12.3875 21.0897" y="0">Jf01</tspan><tspan x="-17.1988 -5.91626 2.87598 11.6683 20.4606 25.078 30.8455 41.3076" y="25">Code "A"</tspan></text></g><path d="M5613.49 5042.28 5614.09 5187.31C5614.09 5265.58 5580.63 5329.04 5502.34 5329.04L5491.49 5327.87" id="path868" stroke="#231F20" stroke-width="8.75" fill="none"/><path d="M1156.21 6233.18 1154.52 6009.06 528.594 6009.06" id="path870" stroke="#231F20" stroke-width="25" stroke-linecap="square" fill="none"/><path d="M3798.77 4951.45 921.531 4946.09C856.539 4946.09 803.852 5009.54 803.852 5087.84L804.805 6228.78" id="path872" stroke="#231F20" stroke-width="8.75" fill="none"/><path d="M4329.06 3908.45 4107.18 3966.24 4107.18 3853.74Z" id="path874" fill="#231F20"/><path d="M4402.71 2486.97 4297.43 2485.84 4153.36 2486.78C4075.1 2486.78 4016.61 2550.23 4016.61 2628.52L4016.61 2715.78 4016.6 3050.81C4016.6 3129.11 3953.14 3192.53 3874.87 3192.53L3533.99 3191.4" id="path876" stroke="#231F20" stroke-width="8.75" fill="none"/><path d="M343.676 5834.95C440.32 5834.95 518.676 5913.3 518.676 6009.95 518.676 6106.59 440.32 6184.95 343.676 6184.95 247.02 6184.95 168.676 6106.59 168.676 6009.95 168.676 5913.3 247.02 5834.95 343.676 5834.95" id="path878" fill="#FFFFFF"/><path d="M343.676 5834.95C440.32 5834.95 518.676 5913.3 518.676 6009.95 518.676 6106.59 440.32 6184.95 343.676 6184.95 247.02 6184.95 168.676 6106.59 168.676 6009.95 168.676 5913.3 247.02 5834.95 343.676 5834.95Z" id="path880" stroke="#231F20" stroke-width="6.25" fill="none"/><g id="g882" transform="scale(10 10)"><text id="text886" fill="#231F20" font-family="Arial" font-weight="400" font-size="25" transform="matrix(1 0 0 -1 27.4156 592.245)"><tspan x="0" y="0">4</tspan></text></g><path d="M6945.76 2041.8 7044.39 2077.51 6945.76 1865.24 6844.39 2077.51 6945.76 2041.8" id="path888" fill="#231F20"/><path d="M3454.93 7075.29 3863 7076.41C3941.27 7076.41 4004.72 7012.99 4004.72 6934.69L4004.1 6839.65 4004.1 6881.49 4003.5 6856.47C4003.5 6778.2 4066.94 6744.75 4145.22 6744.75L4413.6 6745.87" id="path890" stroke="#231F20" stroke-width="8.75" fill="none"/><g id="g892" transform="scale(10 10)"><text id="text898" fill="#231F20" font-family="Arial" font-weight="400" font-size="12" transform="matrix(1 0 0 -1 164.788 647.091)"><tspan x="0 9.86198 17.0638 24.2656 27.4597 34.6615 41.1895" y="0">Geblok-</tspan><tspan x="0 6.528 13.7298 20.9317 25.4558" y="13.75">keerd</tspan></text></g><path d="M3444.93 4950.71 3853 4951.83C3931.27 4951.83 3994.72 4888.41 3994.72 4810.11L3994.1 4715.06 3994.1 4756.91 3993.5 4731.9C3993.5 4653.62 4056.94 4620.18 4135.22 4620.18L4403.6 4621.29" id="path900" stroke="#231F20" stroke-width="8.75" fill="none"/><path d="M804.863 6195.79C825.566 6195.79 842.363 6212.58 842.363 6233.29 842.363 6254 825.566 6270.79 804.863 6270.79 784.148 6270.79 767.363 6254 767.363 6233.29 767.363 6212.58 784.148 6195.79 804.863 6195.79" id="path902" fill="#FFFFFF"/><path d="M804.863 6195.79C825.566 6195.79 842.363 6212.58 842.363 6233.29 842.363 6254 825.566 6270.79 804.863 6270.79 784.148 6270.79 767.363 6254 767.363 6233.29 767.363 6212.58 784.148 6195.79 804.863 6195.79Z" id="path904" stroke="#231F20" stroke-width="6.25" stroke-linecap="square" fill="none"/><path d="M3530.72 3155.11C3551.43 3155.11 3568.22 3171.91 3568.22 3192.61 3568.22 3213.33 3551.43 3230.11 3530.72 3230.11 3510.01 3230.11 3493.22 3213.33 3493.22 3192.61 3493.22 3171.91 3510.01 3155.11 3530.72 3155.11" id="path906" fill="#FFFFFF"/><path d="M3530.72 3155.11C3551.43 3155.11 3568.22 3171.91 3568.22 3192.61 3568.22 3213.33 3551.43 3230.11 3530.72 3230.11 3510.01 3230.11 3493.22 3213.33 3493.22 3192.61 3493.22 3171.91 3510.01 3155.11 3530.72 3155.11Z" id="path908" stroke="#231F20" stroke-width="6.25" stroke-linecap="square" fill="none"/></g></g></svg>