<svg width="1956" height="1273" xmlns="http://www.w3.org/2000/svg" xmlns:xlink="http://www.w3.org/1999/xlink" xml:space="preserve" overflow="hidden"><g transform="translate(3 -448)"><path d="M0 460.941 805.086 460.941 805.086 517.802 0 517.802Z" fill="#FFFFFF" fill-rule="evenodd"/><path d="M805.086 460.941 1102.48 460.941 1102.48 517.802 805.086 517.802Z" fill="#FFFFFF" fill-rule="evenodd"/><path d="M1102.48 460.941 1947.93 460.941 1947.93 517.802 1102.48 517.802Z" fill="#FFFFFF" fill-rule="evenodd"/><path d="M0 517.802 526.338 517.802 526.338 574.662 0 574.662Z" fill="#FFFFFF" fill-rule="evenodd"/><path d="M526.338 517.802 653.792 517.802 653.792 574.662 526.338 574.662Z" fill="#FFFFFF" fill-rule="evenodd"/><path d="M653.792 517.802 805.086 517.802 805.086 574.662 653.792 574.662Z" fill="#FFFFFF" fill-rule="evenodd"/><path d="M805.086 517.802 1102.48 517.802 1102.48 1711.87 805.086 1711.87Z" fill="#FFFFFF" fill-rule="evenodd"/><path d="M1102.48 517.802 1678.62 517.802 1678.62 574.662 1102.48 574.662Z" fill="#FFFFFF" fill-rule="evenodd"/><path d="M1678.62 517.802 1806.78 517.802 1806.78 574.662 1678.62 574.662Z" fill="#FFFFFF" fill-rule="evenodd"/><path d="M1806.78 517.802 1947.93 517.802 1947.93 574.662 1806.78 574.662Z" fill="#FFFFFF" fill-rule="evenodd"/><path d="M0 574.662 526.338 574.662 526.338 631.523 0 631.523Z" fill="#FFFFFF" fill-rule="evenodd"/><path d="M526.338 574.662 653.792 574.662 653.792 631.523 526.338 631.523Z" fill="#FFFFFF" fill-rule="evenodd"/><path d="M653.792 574.662 805.086 574.662 805.086 631.523 653.792 631.523Z" fill="#FFFFFF" fill-rule="evenodd"/><path d="M1102.48 574.662 1678.62 574.662 1678.62 631.523 1102.48 631.523Z" fill="#FFFFFF" fill-rule="evenodd"/><path d="M1678.62 574.662 1806.78 574.662 1806.78 631.523 1678.62 631.523Z" fill="#FFFFFF" fill-rule="evenodd"/><path d="M1806.78 574.662 1947.93 574.662 1947.93 631.523 1806.78 631.523Z" fill="#FFFFFF" fill-rule="evenodd"/><path d="M0 631.523 526.338 631.523 526.338 688.383 0 688.383Z" fill="#FFFFFF" fill-rule="evenodd"/><path d="M526.338 631.523 653.792 631.523 653.792 688.383 526.338 688.383Z" fill="#FFFFFF" fill-rule="evenodd"/><path d="M653.792 631.523 805.086 631.523 805.086 688.383 653.792 688.383Z" fill="#FFFFFF" fill-rule="evenodd"/><path d="M1102.48 631.523 1678.62 631.523 1678.62 688.383 1102.48 688.383Z" fill="#FFFFFF" fill-rule="evenodd"/><path d="M1678.62 631.523 1806.78 631.523 1806.78 688.383 1678.62 688.383Z" fill="#FFFFFF" fill-rule="evenodd"/><path d="M1806.78 631.523 1947.93 631.523 1947.93 688.383 1806.78 688.383Z" fill="#FFFFFF" fill-rule="evenodd"/><path d="M0 688.383 526.338 688.383 526.338 745.244 0 745.244Z" fill="#FFFFFF" fill-rule="evenodd"/><path d="M526.338 688.383 653.792 688.383 653.792 745.244 526.338 745.244Z" fill="#FFFFFF" fill-rule="evenodd"/><path d="M653.792 688.383 805.086 688.383 805.086 745.244 653.792 745.244Z" fill="#FFFFFF" fill-rule="evenodd"/><path d="M1102.48 688.383 1678.62 688.383 1678.62 745.244 1102.48 745.244Z" fill="#FFFFFF" fill-rule="evenodd"/><path d="M1678.62 688.383 1806.78 688.383 1806.78 745.244 1678.62 745.244Z" fill="#FFFFFF" fill-rule="evenodd"/><path d="M1806.78 688.383 1947.93 688.383 1947.93 745.244 1806.78 745.244Z" fill="#FFFFFF" fill-rule="evenodd"/><path d="M0 745.244 526.338 745.244 526.338 802.104 0 802.104Z" fill="#FFFFFF" fill-rule="evenodd"/><path d="M526.338 745.244 653.792 745.244 653.792 802.104 526.338 802.104Z" fill="#FFFFFF" fill-rule="evenodd"/><path d="M653.792 745.244 805.086 745.244 805.086 802.104 653.792 802.104Z" fill="#FFFFFF" fill-rule="evenodd"/><path d="M1102.48 745.244 1678.62 745.244 1678.62 802.104 1102.48 802.104Z" fill="#FFFFFF" fill-rule="evenodd"/><path d="M1678.62 745.244 1806.78 745.244 1806.78 802.104 1678.62 802.104Z" fill="#FFFFFF" fill-rule="evenodd"/><path d="M1806.78 745.244 1947.93 745.244 1947.93 802.104 1806.78 802.104Z" fill="#FFFFFF" fill-rule="evenodd"/><path d="M0 802.104 526.338 802.104 526.338 858.964 0 858.964Z" fill="#FFFFFF" fill-rule="evenodd"/><path d="M526.338 802.104 653.792 802.104 653.792 858.964 526.338 858.964Z" fill="#FFFFFF" fill-rule="evenodd"/><path d="M653.792 802.104 805.086 802.104 805.086 858.964 653.792 858.964Z" fill="#FFFFFF" fill-rule="evenodd"/><path d="M1102.48 802.104 1678.62 802.104 1678.62 858.964 1102.48 858.964Z" fill="#FFFFFF" fill-rule="evenodd"/><path d="M1678.62 802.104 1806.78 802.104 1806.78 858.964 1678.62 858.964Z" fill="#FFFFFF" fill-rule="evenodd"/><path d="M1806.78 802.104 1947.93 802.104 1947.93 858.964 1806.78 858.964Z" fill="#FFFFFF" fill-rule="evenodd"/><path d="M0 858.964 526.338 858.964 526.338 915.825 0 915.825Z" fill="#FFFFFF" fill-rule="evenodd"/><path d="M526.338 858.964 653.792 858.964 653.792 915.825 526.338 915.825Z" fill="#FFFFFF" fill-rule="evenodd"/><path d="M653.792 858.964 805.086 858.964 805.086 915.825 653.792 915.825Z" fill="#FFFFFF" fill-rule="evenodd"/><path d="M1102.48 858.964 1678.62 858.964 1678.62 915.825 1102.48 915.825Z" fill="#FFFFFF" fill-rule="evenodd"/><path d="M1678.62 858.964 1806.78 858.964 1806.78 915.825 1678.62 915.825Z" fill="#FFFFFF" fill-rule="evenodd"/><path d="M1806.78 858.964 1947.93 858.964 1947.93 915.825 1806.78 915.825Z" fill="#FFFFFF" fill-rule="evenodd"/><path d="M0 915.825 526.338 915.825 526.338 972.685 0 972.685Z" fill="#FFFFFF" fill-rule="evenodd"/><path d="M526.338 915.825 653.792 915.825 653.792 972.685 526.338 972.685Z" fill="#FFFFFF" fill-rule="evenodd"/><path d="M653.792 915.825 805.086 915.825 805.086 972.685 653.792 972.685Z" fill="#FFFFFF" fill-rule="evenodd"/><path d="M1102.48 915.825 1678.62 915.825 1678.62 972.685 1102.48 972.685Z" fill="#FFFFFF" fill-rule="evenodd"/><path d="M1678.62 915.825 1806.78 915.825 1806.78 972.685 1678.62 972.685Z" fill="#FFFFFF" fill-rule="evenodd"/><path d="M1806.78 915.825 1947.93 915.825 1947.93 972.685 1806.78 972.685Z" fill="#FFFFFF" fill-rule="evenodd"/><path d="M0 972.685 526.338 972.685 526.338 1029.55 0 1029.55Z" fill="#FFFFFF" fill-rule="evenodd"/><path d="M526.338 972.685 653.792 972.685 653.792 1029.55 526.338 1029.55Z" fill="#FFFFFF" fill-rule="evenodd"/><path d="M653.792 972.685 805.086 972.685 805.086 1029.55 653.792 1029.55Z" fill="#FFFFFF" fill-rule="evenodd"/><path d="M1102.48 972.685 1678.62 972.685 1678.62 1029.55 1102.48 1029.55Z" fill="#FFFFFF" fill-rule="evenodd"/><path d="M1678.62 972.685 1806.78 972.685 1806.78 1029.55 1678.62 1029.55Z" fill="#FFFFFF" fill-rule="evenodd"/><path d="M1806.78 972.685 1947.93 972.685 1947.93 1029.55 1806.78 1029.55Z" fill="#FFFFFF" fill-rule="evenodd"/><path d="M0 1029.55 526.338 1029.55 526.338 1086.41 0 1086.41Z" fill="#FFFFFF" fill-rule="evenodd"/><path d="M526.338 1029.55 653.792 1029.55 653.792 1086.41 526.338 1086.41Z" fill="#FFFFFF" fill-rule="evenodd"/><path d="M653.792 1029.55 805.086 1029.55 805.086 1086.41 653.792 1086.41Z" fill="#FFFFFF" fill-rule="evenodd"/><path d="M1102.48 1029.55 1678.62 1029.55 1678.62 1086.41 1102.48 1086.41Z" fill="#FFFFFF" fill-rule="evenodd"/><path d="M1678.62 1029.55 1806.78 1029.55 1806.78 1086.41 1678.62 1086.41Z" fill="#FFFFFF" fill-rule="evenodd"/><path d="M1806.78 1029.55 1947.93 1029.55 1947.93 1086.41 1806.78 1086.41Z" fill="#FFFFFF" fill-rule="evenodd"/><path d="M0 1086.41 526.338 1086.41 526.338 1143.27 0 1143.27Z" fill="#FFFFFF" fill-rule="evenodd"/><path d="M526.338 1086.41 653.792 1086.41 653.792 1143.27 526.338 1143.27Z" fill="#FFFFFF" fill-rule="evenodd"/><path d="M653.792 1086.41 805.086 1086.41 805.086 1143.27 653.792 1143.27Z" fill="#FFFFFF" fill-rule="evenodd"/><path d="M1102.48 1086.41 1678.62 1086.41 1678.62 1143.27 1102.48 1143.27Z" fill="#FFFFFF" fill-rule="evenodd"/><path d="M1678.62 1086.41 1806.78 1086.41 1806.78 1143.27 1678.62 1143.27Z" fill="#FFFFFF" fill-rule="evenodd"/><path d="M1806.78 1086.41 1947.93 1086.41 1947.93 1143.27 1806.78 1143.27Z" fill="#FFFFFF" fill-rule="evenodd"/><path d="M0 1143.27 526.338 1143.27 526.338 1200.13 0 1200.13Z" fill="#FFFFFF" fill-rule="evenodd"/><path d="M526.338 1143.27 653.792 1143.27 653.792 1200.13 526.338 1200.13Z" fill="#FFFFFF" fill-rule="evenodd"/><path d="M653.792 1143.27 805.086 1143.27 805.086 1200.13 653.792 1200.13Z" fill="#FFFFFF" fill-rule="evenodd"/><path d="M1102.48 1143.27 1678.62 1143.27 1678.62 1200.13 1102.48 1200.13Z" fill="#FFFFFF" fill-rule="evenodd"/><path d="M1678.62 1143.27 1806.78 1143.27 1806.78 1200.13 1678.62 1200.13Z" fill="#FFFFFF" fill-rule="evenodd"/><path d="M1806.78 1143.27 1947.93 1143.27 1947.93 1200.13 1806.78 1200.13Z" fill="#FFFFFF" fill-rule="evenodd"/><path d="M0 1200.13 526.338 1200.13 526.338 1256.99 0 1256.99Z" fill="#FFFFFF" fill-rule="evenodd"/><path d="M526.338 1200.13 653.792 1200.13 653.792 1256.99 526.338 1256.99Z" fill="#FFFFFF" fill-rule="evenodd"/><path d="M653.792 1200.13 805.086 1200.13 805.086 1256.99 653.792 1256.99Z" fill="#FFFFFF" fill-rule="evenodd"/><path d="M1102.48 1200.13 1678.62 1200.13 1678.62 1256.99 1102.48 1256.99Z" fill="#FFFFFF" fill-rule="evenodd"/><path d="M1678.62 1200.13 1806.78 1200.13 1806.78 1256.99 1678.62 1256.99Z" fill="#FFFFFF" fill-rule="evenodd"/><path d="M1806.78 1200.13 1947.93 1200.13 1947.93 1256.99 1806.78 1256.99Z" fill="#FFFFFF" fill-rule="evenodd"/><path d="M0 1256.99 526.338 1256.99 526.338 1313.85 0 1313.85Z" fill="#FFFFFF" fill-rule="evenodd"/><path d="M526.338 1256.99 653.792 1256.99 653.792 1313.85 526.338 1313.85Z" fill="#FFFFFF" fill-rule="evenodd"/><path d="M653.792 1256.99 805.086 1256.99 805.086 1313.85 653.792 1313.85Z" fill="#FFFFFF" fill-rule="evenodd"/><path d="M1102.48 1256.99 1678.62 1256.99 1678.62 1313.85 1102.48 1313.85Z" fill="#FFFFFF" fill-rule="evenodd"/><path d="M1678.62 1256.99 1806.78 1256.99 1806.78 1313.85 1678.62 1313.85Z" fill="#FFFFFF" fill-rule="evenodd"/><path d="M1806.78 1256.99 1947.93 1256.99 1947.93 1313.85 1806.78 1313.85Z" fill="#FFFFFF" fill-rule="evenodd"/><path d="M0 1313.85 526.338 1313.85 526.338 1370.71 0 1370.71Z" fill="#FFFFFF" fill-rule="evenodd"/><path d="M526.338 1313.85 653.792 1313.85 653.792 1370.71 526.338 1370.71Z" fill="#FFFFFF" fill-rule="evenodd"/><path d="M653.792 1313.85 805.086 1313.85 805.086 1370.71 653.792 1370.71Z" fill="#FFFFFF" fill-rule="evenodd"/><path d="M1102.48 1313.85 1678.62 1313.85 1678.62 1370.71 1102.48 1370.71Z" fill="#FFFFFF" fill-rule="evenodd"/><path d="M1678.62 1313.85 1806.78 1313.85 1806.78 1370.71 1678.62 1370.71Z" fill="#FFFFFF" fill-rule="evenodd"/><path d="M1806.78 1313.85 1947.93 1313.85 1947.93 1370.71 1806.78 1370.71Z" fill="#FFFFFF" fill-rule="evenodd"/><path d="M0 1370.71 526.338 1370.71 526.338 1427.57 0 1427.57Z" fill="#FFFFFF" fill-rule="evenodd"/><path d="M526.338 1370.71 653.792 1370.71 653.792 1427.57 526.338 1427.57Z" fill="#FFFFFF" fill-rule="evenodd"/><path d="M653.792 1370.71 805.086 1370.71 805.086 1427.57 653.792 1427.57Z" fill="#FFFFFF" fill-rule="evenodd"/><path d="M1102.48 1370.71 1678.62 1370.71 1678.62 1427.57 1102.48 1427.57Z" fill="#FFFFFF" fill-rule="evenodd"/><path d="M1678.62 1370.71 1806.78 1370.71 1806.78 1427.57 1678.62 1427.57Z" fill="#FFFFFF" fill-rule="evenodd"/><path d="M1806.78 1370.71 1947.93 1370.71 1947.93 1427.57 1806.78 1427.57Z" fill="#FFFFFF" fill-rule="evenodd"/><path d="M0 1427.57 526.338 1427.57 526.338 1484.43 0 1484.43Z" fill="#FFFFFF" fill-rule="evenodd"/><path d="M526.338 1427.57 653.792 1427.57 653.792 1484.43 526.338 1484.43Z" fill="#FFFFFF" fill-rule="evenodd"/><path d="M653.792 1427.57 805.086 1427.57 805.086 1484.43 653.792 1484.43Z" fill="#FFFFFF" fill-rule="evenodd"/><path d="M1102.48 1427.57 1678.62 1427.57 1678.62 1484.43 1102.48 1484.43Z" fill="#FFFFFF" fill-rule="evenodd"/><path d="M1678.62 1427.57 1806.78 1427.57 1806.78 1484.43 1678.62 1484.43Z" fill="#FFFFFF" fill-rule="evenodd"/><path d="M1806.78 1427.57 1947.93 1427.57 1947.93 1484.43 1806.78 1484.43Z" fill="#FFFFFF" fill-rule="evenodd"/><path d="M0 1484.43 526.338 1484.43 526.338 1541.29 0 1541.29Z" fill="#FFFFFF" fill-rule="evenodd"/><path d="M526.338 1484.43 653.792 1484.43 653.792 1541.29 526.338 1541.29Z" fill="#FFFFFF" fill-rule="evenodd"/><path d="M653.792 1484.43 805.086 1484.43 805.086 1541.29 653.792 1541.29Z" fill="#FFFFFF" fill-rule="evenodd"/><path d="M1102.48 1484.43 1678.62 1484.43 1678.62 1541.29 1102.48 1541.29Z" fill="#FFFFFF" fill-rule="evenodd"/><path d="M1678.62 1484.43 1806.78 1484.43 1806.78 1541.29 1678.62 1541.29Z" fill="#FFFFFF" fill-rule="evenodd"/><path d="M1806.78 1484.43 1947.93 1484.43 1947.93 1541.29 1806.78 1541.29Z" fill="#FFFFFF" fill-rule="evenodd"/><path d="M0 1541.29 526.338 1541.29 526.338 1598.15 0 1598.15Z" fill="#FFFFFF" fill-rule="evenodd"/><path d="M526.338 1541.29 653.792 1541.29 653.792 1598.15 526.338 1598.15Z" fill="#FFFFFF" fill-rule="evenodd"/><path d="M653.792 1541.29 805.086 1541.29 805.086 1598.15 653.792 1598.15Z" fill="#FFFFFF" fill-rule="evenodd"/><path d="M1102.48 1541.29 1678.62 1541.29 1678.62 1598.15 1102.48 1598.15Z" fill="#FFFFFF" fill-rule="evenodd"/><path d="M1678.62 1541.29 1806.78 1541.29 1806.78 1598.15 1678.62 1598.15Z" fill="#FFFFFF" fill-rule="evenodd"/><path d="M1806.78 1541.29 1947.93 1541.29 1947.93 1598.15 1806.78 1598.15Z" fill="#FFFFFF" fill-rule="evenodd"/><path d="M0 1598.15 526.338 1598.15 526.338 1655.01 0 1655.01Z" fill="#FFFFFF" fill-rule="evenodd"/><path d="M526.338 1598.15 653.792 1598.15 653.792 1655.01 526.338 1655.01Z" fill="#FFFFFF" fill-rule="evenodd"/><path d="M653.792 1598.15 805.086 1598.15 805.086 1655.01 653.792 1655.01Z" fill="#FFFFFF" fill-rule="evenodd"/><path d="M1102.48 1598.15 1678.62 1598.15 1678.62 1655.01 1102.48 1655.01Z" fill="#FFFFFF" fill-rule="evenodd"/><path d="M1678.62 1598.15 1806.78 1598.15 1806.78 1655.01 1678.62 1655.01Z" fill="#FFFFFF" fill-rule="evenodd"/><path d="M1806.78 1598.15 1947.93 1598.15 1947.93 1655.01 1806.78 1655.01Z" fill="#FFFFFF" fill-rule="evenodd"/><path d="M0 1655.01 526.338 1655.01 526.338 1711.87 0 1711.87Z" fill="#FFFFFF" fill-rule="evenodd"/><path d="M526.338 1655.01 653.792 1655.01 653.792 1711.87 526.338 1711.87Z" fill="#FFFFFF" fill-rule="evenodd"/><path d="M653.792 1655.01 805.086 1655.01 805.086 1711.87 653.792 1711.87Z" fill="#FFFFFF" fill-rule="evenodd"/><path d="M1102.48 1655.01 1678.62 1655.01 1678.62 1711.87 1102.48 1711.87Z" fill="#FFFFFF" fill-rule="evenodd"/><path d="M1678.62 1655.01 1806.78 1655.01 1806.78 1711.87 1678.62 1711.87Z" fill="#FFFFFF" fill-rule="evenodd"/><path d="M1806.78 1655.01 1947.93 1655.01 1947.93 1711.87 1806.78 1711.87Z" fill="#FFFFFF" fill-rule="evenodd"/><path d="M526.338 515.51 526.338 974.977" stroke="#000000" stroke-width="4.58333" stroke-linejoin="round" stroke-miterlimit="10" fill="none" fill-rule="evenodd"/><path d="M526.338 1027.25 526.338 1486.72" stroke="#000000" stroke-width="4.58333" stroke-linejoin="round" stroke-miterlimit="10" fill="none" fill-rule="evenodd"/><path d="M526.338 1539 526.338 1714.16" stroke="#000000" stroke-width="4.58333" stroke-linejoin="round" stroke-miterlimit="10" fill="none" fill-rule="evenodd"/><path d="M653.792 515.51 653.792 974.977" stroke="#000000" stroke-width="4.58333" stroke-linejoin="round" stroke-miterlimit="10" fill="none" fill-rule="evenodd"/><path d="M653.792 1027.25 653.792 1486.72" stroke="#000000" stroke-width="4.58333" stroke-linejoin="round" stroke-miterlimit="10" fill="none" fill-rule="evenodd"/><path d="M653.792 1539 653.792 1714.16" stroke="#000000" stroke-width="4.58333" stroke-linejoin="round" stroke-miterlimit="10" fill="none" fill-rule="evenodd"/><path d="M805.086 458.65 805.086 974.977" stroke="#000000" stroke-width="4.58333" stroke-linejoin="round" stroke-miterlimit="10" fill="none" fill-rule="evenodd"/><path d="M805.086 1027.25 805.086 1486.72" stroke="#000000" stroke-width="4.58333" stroke-linejoin="round" stroke-miterlimit="10" fill="none" fill-rule="evenodd"/><path d="M805.086 1539 805.086 1714.16" stroke="#000000" stroke-width="4.58333" stroke-linejoin="round" stroke-miterlimit="10" fill="none" fill-rule="evenodd"/><path d="M1102.48 458.65 1102.48 974.977" stroke="#000000" stroke-width="4.58333" stroke-linejoin="round" stroke-miterlimit="10" fill="none" fill-rule="evenodd"/><path d="M1102.48 1027.25 1102.48 1429.86" stroke="#000000" stroke-width="4.58333" stroke-linejoin="round" stroke-miterlimit="10" fill="none" fill-rule="evenodd"/><path d="M1102.48 1539 1102.48 1714.16" stroke="#000000" stroke-width="4.58333" stroke-linejoin="round" stroke-miterlimit="10" fill="none" fill-rule="evenodd"/><path d="M1678.62 515.51 1678.62 974.977" stroke="#000000" stroke-width="4.58333" stroke-linejoin="round" stroke-miterlimit="10" fill="none" fill-rule="evenodd"/><path d="M1678.62 1027.25 1678.62 1429.86" stroke="#000000" stroke-width="4.58333" stroke-linejoin="round" stroke-miterlimit="10" fill="none" fill-rule="evenodd"/><path d="M1678.62 1539 1678.62 1714.16" stroke="#000000" stroke-width="4.58333" stroke-linejoin="round" stroke-miterlimit="10" fill="none" fill-rule="evenodd"/><path d="M1806.78 515.51 1806.78 974.977" stroke="#000000" stroke-width="4.58333" stroke-linejoin="round" stroke-miterlimit="10" fill="none" fill-rule="evenodd"/><path d="M1806.78 1027.25 1806.78 1429.86" stroke="#000000" stroke-width="4.58333" stroke-linejoin="round" stroke-miterlimit="10" fill="none" fill-rule="evenodd"/><path d="M1806.78 1539 1806.78 1714.16" stroke="#000000" stroke-width="4.58333" stroke-linejoin="round" stroke-miterlimit="10" fill="none" fill-rule="evenodd"/><path d="M-2.29167 517.802 807.377 517.802" stroke="#000000" stroke-width="4.58333" stroke-linejoin="round" stroke-miterlimit="10" fill="none" fill-rule="evenodd"/><path d="M1100.19 517.802 1950.22 517.802" stroke="#000000" stroke-width="4.58333" stroke-linejoin="round" stroke-miterlimit="10" fill="none" fill-rule="evenodd"/><path d="M-2.29167 574.662 807.377 574.662" stroke="#000000" stroke-width="4.58333" stroke-linejoin="round" stroke-miterlimit="10" fill="none" fill-rule="evenodd"/><path d="M1100.19 574.662 1950.22 574.662" stroke="#000000" stroke-width="4.58333" stroke-linejoin="round" stroke-miterlimit="10" fill="none" fill-rule="evenodd"/><path d="M-2.29167 631.523 807.377 631.523" stroke="#000000" stroke-width="4.58333" stroke-linejoin="round" stroke-miterlimit="10" fill="none" fill-rule="evenodd"/><path d="M1100.19 631.523 1950.22 631.523" stroke="#000000" stroke-width="4.58333" stroke-linejoin="round" stroke-miterlimit="10" fill="none" fill-rule="evenodd"/><path d="M-2.29167 688.383 807.377 688.383" stroke="#000000" stroke-width="4.58333" stroke-linejoin="round" stroke-miterlimit="10" fill="none" fill-rule="evenodd"/><path d="M1100.19 688.383 1950.22 688.383" stroke="#000000" stroke-width="4.58333" stroke-linejoin="round" stroke-miterlimit="10" fill="none" fill-rule="evenodd"/><path d="M-2.29167 745.244 807.377 745.244" stroke="#000000" stroke-width="4.58333" stroke-linejoin="round" stroke-miterlimit="10" fill="none" fill-rule="evenodd"/><path d="M1100.19 745.244 1950.22 745.244" stroke="#000000" stroke-width="4.58333" stroke-linejoin="round" stroke-miterlimit="10" fill="none" fill-rule="evenodd"/><path d="M-2.29167 802.104 807.377 802.104" stroke="#000000" stroke-width="4.58333" stroke-linejoin="round" stroke-miterlimit="10" fill="none" fill-rule="evenodd"/><path d="M1100.19 802.104 1950.22 802.104" stroke="#000000" stroke-width="4.58333" stroke-linejoin="round" stroke-miterlimit="10" fill="none" fill-rule="evenodd"/><path d="M-2.29167 858.964 807.377 858.964" stroke="#000000" stroke-width="4.58333" stroke-linejoin="round" stroke-miterlimit="10" fill="none" fill-rule="evenodd"/><path d="M1100.19 858.964 1950.22 858.964" stroke="#000000" stroke-width="4.58333" stroke-linejoin="round" stroke-miterlimit="10" fill="none" fill-rule="evenodd"/><path d="M-2.29167 915.825 807.377 915.825" stroke="#000000" stroke-width="4.58333" stroke-linejoin="round" stroke-miterlimit="10" fill="none" fill-rule="evenodd"/><path d="M1100.19 915.825 1950.22 915.825" stroke="#000000" stroke-width="4.58333" stroke-linejoin="round" stroke-miterlimit="10" fill="none" fill-rule="evenodd"/><path d="M-2.29167 972.685 807.377 972.685" stroke="#000000" stroke-width="4.58333" stroke-linejoin="round" stroke-miterlimit="10" fill="none" fill-rule="evenodd"/><path d="M1100.19 972.685 1950.22 972.685" stroke="#000000" stroke-width="4.58333" stroke-linejoin="round" stroke-miterlimit="10" fill="none" fill-rule="evenodd"/><path d="M-2.29167 1029.55 807.377 1029.55" stroke="#000000" stroke-width="4.58333" stroke-linejoin="round" stroke-miterlimit="10" fill="none" fill-rule="evenodd"/><path d="M1100.19 1029.55 1950.22 1029.55" stroke="#000000" stroke-width="4.58333" stroke-linejoin="round" stroke-miterlimit="10" fill="none" fill-rule="evenodd"/><path d="M-2.29167 1086.41 807.377 1086.41" stroke="#000000" stroke-width="4.58333" stroke-linejoin="round" stroke-miterlimit="10" fill="none" fill-rule="evenodd"/><path d="M1100.19 1086.41 1950.22 1086.41" stroke="#000000" stroke-width="4.58333" stroke-linejoin="round" stroke-miterlimit="10" fill="none" fill-rule="evenodd"/><path d="M-2.29167 1143.27 807.377 1143.27" stroke="#000000" stroke-width="4.58333" stroke-linejoin="round" stroke-miterlimit="10" fill="none" fill-rule="evenodd"/><path d="M1100.19 1143.27 1950.22 1143.27" stroke="#000000" stroke-width="4.58333" stroke-linejoin="round" stroke-miterlimit="10" fill="none" fill-rule="evenodd"/><path d="M-2.29167 1200.13 807.377 1200.13" stroke="#000000" stroke-width="4.58333" stroke-linejoin="round" stroke-miterlimit="10" fill="none" fill-rule="evenodd"/><path d="M1100.19 1200.13 1950.22 1200.13" stroke="#000000" stroke-width="4.58333" stroke-linejoin="round" stroke-miterlimit="10" fill="none" fill-rule="evenodd"/><path d="M-2.29167 1256.99 807.377 1256.99" stroke="#000000" stroke-width="4.58333" stroke-linejoin="round" stroke-miterlimit="10" fill="none" fill-rule="evenodd"/><path d="M1100.19 1256.99 1950.22 1256.99" stroke="#000000" stroke-width="4.58333" stroke-linejoin="round" stroke-miterlimit="10" fill="none" fill-rule="evenodd"/><path d="M-2.29167 1313.85 807.377 1313.85" stroke="#000000" stroke-width="4.58333" stroke-linejoin="round" stroke-miterlimit="10" fill="none" fill-rule="evenodd"/><path d="M1100.19 1313.85 1950.22 1313.85" stroke="#000000" stroke-width="4.58333" stroke-linejoin="round" stroke-miterlimit="10" fill="none" fill-rule="evenodd"/><path d="M-2.29167 1370.71 807.377 1370.71" stroke="#000000" stroke-width="4.58333" stroke-linejoin="round" stroke-miterlimit="10" fill="none" fill-rule="evenodd"/><path d="M1100.19 1370.71 1950.22 1370.71" stroke="#000000" stroke-width="4.58333" stroke-linejoin="round" stroke-miterlimit="10" fill="none" fill-rule="evenodd"/><path d="M-2.29167 1427.57 807.377 1427.57" stroke="#000000" stroke-width="4.58333" stroke-linejoin="round" stroke-miterlimit="10" fill="none" fill-rule="evenodd"/><path d="M1100.19 1427.57 1950.22 1427.57" stroke="#000000" stroke-width="4.58333" stroke-linejoin="round" stroke-miterlimit="10" fill="none" fill-rule="evenodd"/><path d="M-2.29167 1484.43 807.377 1484.43" stroke="#000000" stroke-width="4.58333" stroke-linejoin="round" stroke-miterlimit="10" fill="none" fill-rule="evenodd"/><path d="M-2.29167 1541.29 807.377 1541.29" stroke="#000000" stroke-width="4.58333" stroke-linejoin="round" stroke-miterlimit="10" fill="none" fill-rule="evenodd"/><path d="M1100.19 1541.29 1950.22 1541.29" stroke="#000000" stroke-width="4.58333" stroke-linejoin="round" stroke-miterlimit="10" fill="none" fill-rule="evenodd"/><path d="M-2.29167 1598.15 807.377 1598.15" stroke="#000000" stroke-width="4.58333" stroke-linejoin="round" stroke-miterlimit="10" fill="none" fill-rule="evenodd"/><path d="M1100.19 1598.15 1950.22 1598.15" stroke="#000000" stroke-width="4.58333" stroke-linejoin="round" stroke-miterlimit="10" fill="none" fill-rule="evenodd"/><path d="M-2.29167 1655.01 807.377 1655.01" stroke="#000000" stroke-width="4.58333" stroke-linejoin="round" stroke-miterlimit="10" fill="none" fill-rule="evenodd"/><path d="M1100.19 1655.01 1950.22 1655.01" stroke="#000000" stroke-width="4.58333" stroke-linejoin="round" stroke-miterlimit="10" fill="none" fill-rule="evenodd"/><path d="M0 458.65 0 974.977" stroke="#000000" stroke-width="4.58333" stroke-linejoin="round" stroke-miterlimit="10" fill="none" fill-rule="evenodd"/><path d="M0 1027.25 0 1486.72" stroke="#000000" stroke-width="4.58333" stroke-linejoin="round" stroke-miterlimit="10" fill="none" fill-rule="evenodd"/><path d="M0 1539 0 1714.16" stroke="#000000" stroke-width="4.58333" stroke-linejoin="round" stroke-miterlimit="10" fill="none" fill-rule="evenodd"/><path d="M1947.93 458.65 1947.93 974.977" stroke="#000000" stroke-width="4.58333" stroke-linejoin="round" stroke-miterlimit="10" fill="none" fill-rule="evenodd"/><path d="M1947.93 1027.25 1947.93 1429.86" stroke="#000000" stroke-width="4.58333" stroke-linejoin="round" stroke-miterlimit="10" fill="none" fill-rule="evenodd"/><path d="M1947.93 1539 1947.93 1714.16" stroke="#000000" stroke-width="4.58333" stroke-linejoin="round" stroke-miterlimit="10" fill="none" fill-rule="evenodd"/><path d="M-2.29167 460.941 807.377 460.941" stroke="#000000" stroke-width="4.58333" stroke-linejoin="round" stroke-miterlimit="10" fill="none" fill-rule="evenodd"/><path d="M1100.19 460.941 1950.22 460.941" stroke="#000000" stroke-width="4.58333" stroke-linejoin="round" stroke-miterlimit="10" fill="none" fill-rule="evenodd"/><path d="M-2.29167 1711.87 807.377 1711.87" stroke="#000000" stroke-width="4.58333" stroke-linejoin="round" stroke-miterlimit="10" fill="none" fill-rule="evenodd"/><path d="M1100.19 1711.87 1950.22 1711.87" stroke="#000000" stroke-width="4.58333" stroke-linejoin="round" stroke-miterlimit="10" fill="none" fill-rule="evenodd"/><text font-family="Arial,Arial_MSFontService,sans-serif" font-weight="700" font-size="37" transform="matrix(1 0 0 1 1360.49 496)">GetMessageResult</text><text font-family="Arial,Arial_MSFontService,sans-serif" font-weight="700" font-size="37" transform="matrix(1 0 0 1 295.121 496)">PutMessage</text><g><text font-family="Arial,Arial_MSFontService,sans-serif" font-weight="700" font-size="37" transform="matrix(1 0 0 1 1912.71 553)">5</text></g><g><text font-family="Arial,Arial_MSFontService,sans-serif" font-weight="700" font-size="37" transform="matrix(1 0 0 1 1116.74 553)">Length</text></g><g><text font-family="Arial,Arial_MSFontService,sans-serif" font-weight="700" font-size="37" transform="matrix(1 0 0 1 770.029 553)">5</text></g><g><text font-family="Arial,Arial_MSFontService,sans-serif" font-weight="700" font-size="37" transform="matrix(1 0 0 1 14.2574 553)">Length</text></g><g><text font-family="Arial,Arial_MSFontService,sans-serif" font-weight="700" font-size="37" transform="matrix(1 0 0 1 1912.71 610)">3</text></g><g><text font-family="Arial,Arial_MSFontService,sans-serif" font-weight="700" font-size="37" transform="matrix(1 0 0 1 1730.12 610)">220</text></g><g><text font-family="Arial,Arial_MSFontService,sans-serif" font-weight="700" font-size="37" transform="matrix(1 0 0 1 1116.74 610)">OperationCode</text></g><g><text font-family="Arial,Arial_MSFontService,sans-serif" font-weight="700" font-size="37" transform="matrix(1 0 0 1 770.029 610)">3</text></g><g><text font-family="Arial,Arial_MSFontService,sans-serif" font-weight="700" font-size="37" transform="matrix(1 0 0 1 577.263 610)">120</text></g><g><text font-family="Arial,Arial_MSFontService,sans-serif" font-weight="700" font-size="37" transform="matrix(1 0 0 1 14.2574 610)">OperationCode</text></g><g><text font-family="Arial,Arial_MSFontService,sans-serif" font-weight="700" font-size="37" transform="matrix(1 0 0 1 1912.71 667)">7</text></g><g><text font-family="Arial,Arial_MSFontService,sans-serif" font-weight="700" font-size="37" transform="matrix(1 0 0 1 1116.74 667)">OriginatorORName</text></g><g><text font-family="Arial,Arial_MSFontService,sans-serif" font-weight="400" font-size="37" transform="matrix(1 0 0 1 770.029 667)">7</text></g><g><text font-family="Arial,Arial_MSFontService,sans-serif" font-weight="400" font-size="37" transform="matrix(1 0 0 1 14.2574 667)">OriginatorORName</text></g><g><text font-family="Arial,Arial_MSFontService,sans-serif" font-weight="700" font-size="37" transform="matrix(1 0 0 1 1912.71 723)">1</text></g><g><text font-family="Arial,Arial_MSFontService,sans-serif" font-weight="700" font-size="37" transform="matrix(1 0 0 1 1116.74 723)">ContentType</text></g><g><text font-family="Arial,Arial_MSFontService,sans-serif" font-weight="400" font-size="37" transform="matrix(1 0 0 1 770.029 723)">1</text></g><g><text font-family="Arial,Arial_MSFontService,sans-serif" font-weight="400" font-size="37" transform="matrix(1 0 0 1 14.2574 723)">ContentType</text></g><g><text font-family="Arial,Arial_MSFontService,sans-serif" font-weight="700" font-size="37" transform="matrix(1 0 0 1 1912.71 780)">1</text></g><g><text font-family="Arial,Arial_MSFontService,sans-serif" font-weight="700" font-size="37" transform="matrix(1 0 0 1 1116.74 780)">Priority</text></g><g><text font-family="Arial,Arial_MSFontService,sans-serif" font-weight="400" font-size="37" transform="matrix(1 0 0 1 770.029 780)">1</text></g><g><text font-family="Arial,Arial_MSFontService,sans-serif" font-weight="400" font-size="37" transform="matrix(1 0 0 1 618.513 780)">0</text></g><g><text font-family="Arial,Arial_MSFontService,sans-serif" font-weight="400" font-size="37" transform="matrix(1 0 0 1 14.2574 780)">Priority</text></g><g><text font-family="Arial,Arial_MSFontService,sans-serif" font-weight="700" font-size="37" transform="matrix(1 0 0 1 1892.08 837)">11</text></g><g><text font-family="Arial,Arial_MSFontService,sans-serif" font-weight="700" font-size="37" transform="matrix(1 0 0 1 1116.74 837)">DeliveryTime</text></g><g><text font-family="Arial,Arial_MSFontService,sans-serif" font-weight="400" font-size="37" transform="matrix(1 0 0 1 749.404 837)">11</text></g><g><text font-family="Arial,Arial_MSFontService,sans-serif" font-weight="400" font-size="37" transform="matrix(1 0 0 1 14.2574 837)">DeferredDeliveryTime</text></g><g><text font-family="Arial,Arial_MSFontService,sans-serif" font-weight="700" font-size="37" transform="matrix(1 0 0 1 1892.08 894)">11</text></g><g><text font-family="Arial,Arial_MSFontService,sans-serif" font-weight="700" font-size="37" transform="matrix(1 0 0 1 1116.74 894)">SubmissionTime</text></g><g><text font-family="Arial,Arial_MSFontService,sans-serif" font-weight="400" font-size="37" transform="matrix(1 0 0 1 770.029 894)">1</text></g><g><text font-family="Arial,Arial_MSFontService,sans-serif" font-weight="400" font-size="37" transform="matrix(1 0 0 1 618.513 894)">0</text></g><g><text font-family="Arial,Arial_MSFontService,sans-serif" font-weight="400" font-size="37" transform="matrix(1 0 0 1 14.2574 894)">Attention</text></g><g><text font-family="Arial,Arial_MSFontService,sans-serif" font-weight="700" font-size="37" transform="matrix(1 0 0 1 1912.71 951)">7</text></g><g><text font-family="Arial,Arial_MSFontService,sans-serif" font-weight="700" font-size="37" transform="matrix(1 0 0 1 1116.74 951)">ActualRecipientORName</text></g><g><text font-family="Arial,Arial_MSFontService,sans-serif" font-weight="700" font-size="37" transform="matrix(1 0 0 1 1912.71 1065)">5</text></g><g><text font-family="Arial,Arial_MSFontService,sans-serif" font-weight="700" font-size="37" transform="matrix(1 0 0 1 1116.74 1065)">Length</text></g><g><text font-family="Arial,Arial_MSFontService,sans-serif" font-weight="700" font-size="37" transform="matrix(1 0 0 1 770.029 1065)">5</text></g><g><text font-family="Arial,Arial_MSFontService,sans-serif" font-weight="700" font-size="37" transform="matrix(1 0 0 1 14.2574 1065)">Length</text></g><g><text font-family="Arial,Arial_MSFontService,sans-serif" font-weight="700" font-size="37" transform="matrix(1 0 0 1 1912.71 1121)">3</text></g><g><text font-family="Arial,Arial_MSFontService,sans-serif" font-weight="700" font-size="37" transform="matrix(1 0 0 1 1730.12 1121)">250</text></g><g><text font-family="Arial,Arial_MSFontService,sans-serif" font-weight="700" font-size="37" transform="matrix(1 0 0 1 1116.74 1121)">OperationCode</text></g><g><text font-family="Arial,Arial_MSFontService,sans-serif" font-weight="700" font-size="37" transform="matrix(1 0 0 1 770.029 1121)">3</text></g><g><text font-family="Arial,Arial_MSFontService,sans-serif" font-weight="700" font-size="37" transform="matrix(1 0 0 1 577.263 1121)">150</text></g><g><text font-family="Arial,Arial_MSFontService,sans-serif" font-weight="700" font-size="37" transform="matrix(1 0 0 1 14.2574 1121)">OperationCode</text></g><g><text font-family="Arial,Arial_MSFontService,sans-serif" font-weight="700" font-size="37" transform="matrix(1 0 0 1 1892.08 1178)">12</text></g><g><text font-family="Arial,Arial_MSFontService,sans-serif" font-weight="700" font-size="37" transform="matrix(1 0 0 1 1116.74 1178)">MessageId</text></g><g><text font-family="Arial,Arial_MSFontService,sans-serif" font-weight="700" font-size="37" transform="matrix(1 0 0 1 749.404 1178)">12</text></g><g><text font-family="Arial,Arial_MSFontService,sans-serif" font-weight="700" font-size="37" transform="matrix(1 0 0 1 14.2574 1178)">MessageId</text></g><g><text font-family="Arial,Arial_MSFontService,sans-serif" font-weight="700" font-size="37" transform="matrix(1 0 0 1 1892.08 1235)">12</text></g><g><text font-family="Arial,Arial_MSFontService,sans-serif" font-weight="700" font-size="37" transform="matrix(1 0 0 1 1116.74 1235)">CrossReference</text></g><g><text font-family="Arial,Arial_MSFontService,sans-serif" font-weight="400" font-size="37" transform="matrix(1 0 0 1 749.404 1235)">12</text></g><g><text font-family="Arial,Arial_MSFontService,sans-serif" font-weight="400" font-size="37" transform="matrix(1 0 0 1 14.2574 1235)">CrossReference</text></g><g><text font-family="Arial,Arial_MSFontService,sans-serif" font-weight="700" font-size="37" transform="matrix(1 0 0 1 1912.71 1292)">7</text></g><g><text font-family="Arial,Arial_MSFontService,sans-serif" font-weight="700" font-size="37" transform="matrix(1 0 0 1 1116.74 1292)">OriginatorUserName</text></g><g><text font-family="Arial,Arial_MSFontService,sans-serif" font-weight="400" font-size="37" transform="matrix(1 0 0 1 770.029 1292)">7</text></g><g><text font-family="Arial,Arial_MSFontService,sans-serif" font-weight="400" font-size="37" transform="matrix(1 0 0 1 14.2574 1292)">OriginatorORName</text></g><g><text font-family="Arial,Arial_MSFontService,sans-serif" font-weight="700" font-size="37" transform="matrix(1 0 0 1 1912.71 1349)">7</text></g><g><text font-family="Arial,Arial_MSFontService,sans-serif" font-weight="700" font-size="37" transform="matrix(1 0 0 1 1116.74 1349)">ActualRecipientORName</text></g><g><text font-family="Arial,Arial_MSFontService,sans-serif" font-weight="700" font-size="37" transform="matrix(1 0 0 1 770.029 1349)">3</text></g><g><text font-family="Arial,Arial_MSFontService,sans-serif" font-weight="700" font-size="37" transform="matrix(1 0 0 1 618.513 1349)">1</text></g><g><text font-family="Arial,Arial_MSFontService,sans-serif" font-weight="700" font-size="37" transform="matrix(1 0 0 1 14.2574 1349)">NumberOfRecipients</text></g><g><text font-family="Arial,Arial_MSFontService,sans-serif" font-weight="700" font-size="37" transform="matrix(1 0 0 1 1912.71 1406)">1</text></g><g><text font-family="Arial,Arial_MSFontService,sans-serif" font-weight="700" font-size="37" transform="matrix(1 0 0 1 1116.74 1406)">ActualNon</text></g><text font-family="Arial,Arial_MSFontService,sans-serif" font-weight="700" font-size="37" transform="matrix(1 0 0 1 1300.07 1406)">/</text><text font-family="Arial,Arial_MSFontService,sans-serif" font-weight="700" font-size="37" transform="matrix(1 0 0 1 1310.38 1406)">receiptIndicator</text><g><text font-family="Arial,Arial_MSFontService,sans-serif" font-weight="700" font-size="37" transform="matrix(1 0 0 1 770.029 1406)">7</text></g><g><text font-family="Arial,Arial_MSFontService,sans-serif" font-weight="700" font-size="37" transform="matrix(1 0 0 1 14.2574 1406)">RecipientORName</text></g><g><text font-family="Arial,Arial_MSFontService,sans-serif" font-weight="700" font-size="37" transform="matrix(1 0 0 1 770.029 1463)">1</text></g><g><text font-family="Arial,Arial_MSFontService,sans-serif" font-weight="700" font-size="37" transform="matrix(1 0 0 1 618.513 1463)">0</text></g><g><text font-family="Arial,Arial_MSFontService,sans-serif" font-weight="700" font-size="37" transform="matrix(1 0 0 1 14.2574 1463)">Non/receiptIndicator</text></g><g><text font-family="Arial,Arial_MSFontService,sans-serif" font-weight="700" font-size="37" transform="matrix(1 0 0 1 1912.71 1576)">5</text></g><g><text font-family="Arial,Arial_MSFontService,sans-serif" font-weight="700" font-size="37" transform="matrix(1 0 0 1 1116.74 1576)">Length</text></g><g><text font-family="Arial,Arial_MSFontService,sans-serif" font-weight="700" font-size="37" transform="matrix(1 0 0 1 770.029 1576)">5</text></g><g><text font-family="Arial,Arial_MSFontService,sans-serif" font-weight="700" font-size="37" transform="matrix(1 0 0 1 14.2574 1576)">Length</text></g><g><text font-family="Arial,Arial_MSFontService,sans-serif" font-weight="700" font-size="37" transform="matrix(1 0 0 1 1912.71 1633)">3</text></g><g><text font-family="Arial,Arial_MSFontService,sans-serif" font-weight="700" font-size="37" transform="matrix(1 0 0 1 1730.12 1633)">280</text></g><g><text font-family="Arial,Arial_MSFontService,sans-serif" font-weight="700" font-size="37" transform="matrix(1 0 0 1 1116.74 1633)">OperationCode</text></g><g><text font-family="Arial,Arial_MSFontService,sans-serif" font-weight="700" font-size="37" transform="matrix(1 0 0 1 770.029 1633)">3</text></g><g><text font-family="Arial,Arial_MSFontService,sans-serif" font-weight="700" font-size="37" transform="matrix(1 0 0 1 577.263 1633)">180</text></g><g><text font-family="Arial,Arial_MSFontService,sans-serif" font-weight="700" font-size="37" transform="matrix(1 0 0 1 14.2574 1633)">OperationCode</text></g><g><text font-family="Arial,Arial_MSFontService,sans-serif" font-weight="400" font-size="37" transform="matrix(1 0 0 1 1830.21 1690)">19000</text></g><g><text font-family="Arial,Arial_MSFontService,sans-serif" font-weight="400" font-size="37" transform="matrix(1 0 0 1 1116.74 1690)">Messagebody</text></g><g><text font-family="Arial,Arial_MSFontService,sans-serif" font-weight="400" font-size="37" transform="matrix(1 0 0 1 687.529 1690)">19000</text></g><g><text font-family="Arial,Arial_MSFontService,sans-serif" font-weight="400" font-size="37" transform="matrix(1 0 0 1 14.2574 1690)">Messagebody</text></g></g></svg>