<svg width="1950" height="1938" xmlns="http://www.w3.org/2000/svg" xmlns:xlink="http://www.w3.org/1999/xlink" xml:space="preserve" overflow="hidden"><g transform="translate(1 -460)"><path d="M0 461 765 461 765 2397 0 2397Z" stroke="#000000" stroke-width="1.71785" stroke-miterlimit="8" fill="#E6E6E6" fill-rule="evenodd"/><path d="M1169 461 1948 461 1948 2397 1169 2397Z" stroke="#000000" stroke-width="1.71785" stroke-miterlimit="8" fill="#E6E6E6" fill-rule="evenodd"/><path d="M910 2077 696 2078" stroke="#000000" stroke-width="1.71785" stroke-miterlimit="8" fill="none" fill-rule="evenodd"/><path d="M1328 2077 1079 2078" stroke="#000000" stroke-width="1.71785" stroke-miterlimit="8" fill="none" fill-rule="evenodd"/><path d="M1097 2077.31 1140 2066 1140 2088Z" fill-rule="evenodd"/><path d="M804.117 879 804 850.679C804 835.393 816.409 823 831.715 823L871 823.219" stroke="#000000" stroke-width="1.71785" stroke-miterlimit="8" fill="none" fill-rule="evenodd"/><path d="M805 1958 804 866" stroke="#000000" stroke-width="1.71785" stroke-miterlimit="8" fill="none" fill-rule="evenodd"/><path d="M804 1687C804 1671.53 816.409 1659 831.715 1659L871 1659.22" stroke="#000000" stroke-width="1.71785" stroke-miterlimit="8" fill="none" fill-rule="evenodd"/><path d="M1556.77 1591.98 1556.77 1575 1557 1632.04C1557 1647.46 1544.53 1659.97 1529.15 1659.97L1499.7 1660 1213.53 1659.54 1174.05 1659.76 1118.47 1658.69 1079 1658.92" stroke="#000000" stroke-width="1.71785" stroke-miterlimit="8" fill="none" fill-rule="evenodd"/><path d="M869.5 1608.5 1080.5 1608.5 1080.5 1714.5 869.5 1714.5Z" stroke="#000000" stroke-width="4.90814" stroke-miterlimit="8" fill="#FFFFFF" fill-rule="evenodd"/><path d="M869 1608.35 919.146 1658 1029.5 1658 1080 1608" stroke="#000000" stroke-width="1.71785" stroke-miterlimit="8" fill="none" fill-rule="evenodd"/><text font-family="Arial,Arial_MSFontService,sans-serif" font-weight="400" font-size="30" transform="matrix(1 0 0 1 942.796 1649)">Af11</text><text font-family="Arial,Arial_MSFontService,sans-serif" font-weight="400" font-size="30" transform="matrix(1 0 0 1 917.441 1698)">Code "I"</text><path d="M1097 1658.82 1140 1647 1140 1670Z" fill-rule="evenodd"/><path d="M1365 1588.73 1365 1572 1366 1611" stroke="#000000" stroke-width="1.71785" stroke-miterlimit="8" fill="none" fill-rule="evenodd"/><path d="M1097 823.305 1140 812 1140 834Z" fill-rule="evenodd"/><path d="M869.5 772.5 1080.5 772.5 1080.5 878.5 869.5 878.5Z" stroke="#000000" stroke-width="4.90814" stroke-miterlimit="8" fill="#FFFFFF" fill-rule="evenodd"/><path d="M869 772.358 919.146 822 1029.5 822 1080 772" stroke="#000000" stroke-width="1.71785" stroke-miterlimit="8" fill="none" fill-rule="evenodd"/><path d="M1766.78 737 1766.78 790.166 1767 794.869C1767 810.39 1754.5 822.968 1739.09 822.968L1709.58 823 1078 823" stroke="#000000" stroke-width="1.71785" stroke-miterlimit="8" fill="none" fill-rule="evenodd"/><path d="M1142 683.301 1098 672 1098 694Z" fill-rule="evenodd"/><path d="M479.5 720.5 479.5 1971.5" stroke="#000000" stroke-width="4.90814" stroke-linecap="square" stroke-miterlimit="8" fill="none" fill-rule="evenodd"/><path d="M674 683 873 683" stroke="#000000" stroke-width="1.71785" stroke-miterlimit="8" fill="none" fill-rule="evenodd"/><path d="M828 683.301 785 672 785 694Z" fill-rule="evenodd"/><text font-family="Arial,Arial_MSFontService,sans-serif" font-weight="400" font-size="30" transform="matrix(1 0 0 1 943.061 810)">Af11</text><text font-family="Arial,Arial_MSFontService,sans-serif" font-weight="400" font-size="30" transform="matrix(1 0 0 1 910.067 859)">Code "G"</text><path d="M669.155 1991C684.532 1991 697 2003.45 697 2018.8L697 2102.2C697 2117.55 684.532 2130 669.155 2130L304.843 2130C289.466 2130 277 2117.55 277 2102.2L277 2018.8C277 2003.45 289.466 1991 304.843 1991L669.155 1991Z" stroke="#000000" stroke-width="1.71785" stroke-miterlimit="8" fill="#FFFFFF" fill-rule="evenodd"/><text font-family="Arial,Arial_MSFontService,sans-serif" font-weight="400" font-size="35" transform="matrix(1 0 0 1 305.463 2038)">Wacht op antwoord</text><path d="M698 2041.83 777.275 2042C792.588 2042 805 2032.38 805 2020.51L804.877 1998.51 804.877 1977.99 804.76 1956" stroke="#000000" stroke-width="1.71785" stroke-miterlimit="8" fill="none" fill-rule="evenodd"/><path d="M713 2042.31 757 2031 757 2053Z" fill-rule="evenodd"/><path d="M869.5 2026.5 1080.5 2026.5 1080.5 2132.5 869.5 2132.5Z" stroke="#000000" stroke-width="4.90814" stroke-miterlimit="8" fill="#FFFFFF" fill-rule="evenodd"/><path d="M869 2026.35 919.146 2076 1029.5 2076 1080 2026" stroke="#000000" stroke-width="1.71785" stroke-miterlimit="8" fill="none" fill-rule="evenodd"/><text font-family="Arial,Arial_MSFontService,sans-serif" font-weight="400" font-size="30" transform="matrix(1 0 0 1 947.507 2067)">Null</text><path d="M713 2077.31 757 2066 757 2088Z" fill-rule="evenodd"/><path d="M390.235 2154 390.118 2125.41 390.118 2098.72 390 2070.13C390 2054.7 402.441 2042.19 417.788 2042.19L446.029 2042 699 2042.22" stroke="#000000" stroke-width="1.71785" stroke-miterlimit="8" stroke-dasharray="9.66289 6.44193" fill="none" fill-rule="evenodd"/><path d="M582.122 2133 582 2104.77C582 2089.54 594.502 2077.19 609.925 2077.19L638.311 2077 696 2077.22" stroke="#000000" stroke-width="1.71785" stroke-miterlimit="8" stroke-dasharray="9.66289 6.44193" fill="none" fill-rule="evenodd"/><path d="M668.135 2270C683.525 2270 696 2282.35 696 2297.6L696 2311.4C696 2326.64 683.525 2339 668.135 2339L233.866 2339C218.476 2339 206 2326.64 206 2311.4L206 2297.6C206 2282.35 218.476 2270 233.866 2270L668.135 2270Z" stroke="#000000" stroke-width="1.71785" stroke-miterlimit="8" fill="#FFFFFF" fill-rule="evenodd"/><path d="M1712.13 2269C1727.52 2269 1740 2281.54 1740 2297L1740 2311C1740 2326.46 1727.52 2339 1712.13 2339L1277.87 2339C1262.48 2339 1250 2326.46 1250 2311L1250 2297C1250 2281.54 1262.48 2269 1277.87 2269L1712.13 2269Z" stroke="#000000" stroke-width="1.71785" stroke-miterlimit="8" fill="#FFFFFF" fill-rule="evenodd"/><text font-family="Arial,Arial_MSFontService,sans-serif" font-weight="400" font-size="35" transform="matrix(1 0 0 1 217.328 2321)">NORMAAL EINDE CYCLUS</text><text font-family="Arial,Arial_MSFontService,sans-serif" font-weight="400" font-size="35" transform="matrix(1 0 0 1 1262.57 2321)">NORMAAL EINDE CYCLUS</text><path d="M389.5 2132.5 389.5 2203.5 99.4998 2203.5" stroke="#000000" stroke-width="4.90814" stroke-linecap="square" stroke-miterlimit="8" fill="none" fill-rule="evenodd"/><path d="M1814.5 720.5 1814.5 789.5 1849.5 789.5" stroke="#000000" stroke-width="4.90814" stroke-linecap="square" stroke-miterlimit="8" fill="none" fill-rule="evenodd"/><path d="M455.053 2121C462.757 2121 469 2127.23 469 2134.92L469 2142.08C469 2149.77 462.757 2156 455.053 2156L326.943 2156C319.245 2156 313 2149.77 313 2142.08L313 2134.92C313 2127.23 319.245 2121 326.943 2121L455.053 2121Z" stroke="#000000" stroke-width="1.71785" stroke-miterlimit="8" fill="#FFFFFF" fill-rule="evenodd"/><text font-family="Arial,Arial_MSFontService,sans-serif" font-weight="400" font-size="24" transform="matrix(1 0 0 1 365.168 2148)">Af11</text><path d="M1605.5 1591.5 1605.5 1660.5 1849.5 1660.5" stroke="#000000" stroke-width="4.90814" stroke-linecap="square" stroke-miterlimit="8" fill="none" fill-rule="evenodd"/><path d="M1247.5 533.566C1247.5 497.5 1281.91 497.5 1281.91 497.5L1839.79 497.5C1839.79 497.5 1874.5 497.192 1874.5 532.333 1874.5 567.474 1838.56 567.475 1838.56 567.475L1281.91 567.475C1281.91 567.475 1247.5 569.634 1247.5 533.566Z" stroke="#000000" stroke-width="1.22703" stroke-miterlimit="8" fill="#FFFFFF" fill-rule="evenodd"/><text font-family="Arial,Arial_MSFontService,sans-serif" font-weight="400" font-size="39" transform="matrix(1 0 0 1 1359.3 544)">BRP Verstrekkingen</text><path d="M68.4999 533.566C68.4999 497.5 102.961 497.5 102.961 497.5L661.731 497.5C661.731 497.5 696.5 497.192 696.5 532.333 696.5 567.474 660.5 567.475 660.5 567.475L102.961 567.475C102.961 567.475 68.4999 569.634 68.4999 533.566Z" stroke="#000000" stroke-width="1.22703" stroke-miterlimit="8" fill="#FFFFFF" fill-rule="evenodd"/><text font-family="Arial,Arial_MSFontService,sans-serif" font-weight="400" font-size="39" transform="matrix(1 0 0 1 298.901 544)">Afnemer</text><path d="M1915.5 793C1915.5 812.054 1900.05 827.5 1881 827.5 1861.95 827.5 1846.5 812.054 1846.5 793 1846.5 773.946 1861.95 758.5 1881 758.5 1900.05 758.5 1915.5 773.946 1915.5 793Z" stroke="#000000" stroke-width="1.22703" stroke-miterlimit="8" fill="#FFFFFF" fill-rule="evenodd"/><text font-family="Arial,Arial_MSFontService,sans-serif" font-weight="400" font-size="49" transform="matrix(1 0 0 1 1866.46 813)">1</text><path d="M1915.5 1663C1915.5 1682.05 1900.05 1697.5 1881 1697.5 1861.95 1697.5 1846.5 1682.05 1846.5 1663 1846.5 1643.95 1861.95 1628.5 1881 1628.5 1900.05 1628.5 1915.5 1643.95 1915.5 1663Z" stroke="#000000" stroke-width="1.22703" stroke-miterlimit="8" fill="#FFFFFF" fill-rule="evenodd"/><text font-family="Arial,Arial_MSFontService,sans-serif" font-weight="400" font-size="49" transform="matrix(1 0 0 1 1866.46 1683)">2</text><path d="M103.5 2205C103.5 2224.05 88.0538 2239.5 68.9999 2239.5 49.946 2239.5 34.4999 2224.05 34.4999 2205 34.4999 2185.95 49.946 2170.5 68.9999 2170.5 88.0538 2170.5 103.5 2185.95 103.5 2205Z" stroke="#000000" stroke-width="1.22703" stroke-miterlimit="8" fill="#FFFFFF" fill-rule="evenodd"/><text font-family="Arial,Arial_MSFontService,sans-serif" font-weight="400" font-size="49" transform="matrix(1 0 0 1 54.6488 2224)">6</text><path d="M1044 683 1256 683" stroke="#000000" stroke-width="1.71785" stroke-miterlimit="8" fill="none" fill-rule="evenodd"/><path d="M1853.15 649C1868.53 649 1881 661.535 1881 677L1881 691C1881 706.467 1868.53 719 1853.15 719L1279.85 719C1264.46 719 1252 706.465 1252 691L1252 677C1252 661.535 1264.46 649 1279.85 649L1853.15 649Z" stroke="#000000" stroke-width="1.71785" stroke-miterlimit="8" fill="#FFFFFF" fill-rule="evenodd"/><text font-family="Arial,Arial_MSFontService,sans-serif" font-weight="400" font-size="35" transform="matrix(1 0 0 1 1280.97 697)">Zoek persoon in PL</text><text font-family="Arial,Arial_MSFontService,sans-serif" font-weight="400" font-size="35" transform="matrix(1 0 0 1 1586.34 697)">-</text><text font-family="Arial,Arial_MSFontService,sans-serif" font-weight="400" font-size="35" transform="matrix(1 0 0 1 1598.37 697)">bestand</text><path d="M1832.05 710C1839.75 710 1846 716.228 1846 723.915L1846 731.086C1846 738.769 1839.75 745 1832.05 745L1703.95 745C1696.25 745 1690 738.772 1690 731.086L1690 723.915C1690 716.228 1696.25 710 1703.95 710L1832.05 710Z" stroke="#000000" stroke-width="1.71785" stroke-miterlimit="8" fill="#FFFFFF" fill-rule="evenodd"/><text font-family="Arial,Arial_MSFontService,sans-serif" font-weight="400" font-size="24" transform="matrix(1 0 0 1 1708.39 737)">Niet aanw.</text><path d="M1260.5 683C1260.5 687.142 1257.37 690.5 1253.5 690.5 1249.63 690.5 1246.5 687.142 1246.5 683 1246.5 678.858 1249.63 675.5 1253.5 675.5 1257.37 675.5 1260.5 678.858 1260.5 683Z" stroke="#000000" stroke-width="1.22703" stroke-linecap="square" stroke-miterlimit="8" fill="#FFFFFF" fill-rule="evenodd"/><path d="M869.5 633.5 1080.5 633.5 1080.5 738.5 869.5 738.5Z" stroke="#000000" stroke-width="4.90814" stroke-miterlimit="8" fill="#FFFFFF" fill-rule="evenodd"/><path d="M869 632.358 919.146 683 1029.5 683 1080 632" stroke="#000000" stroke-width="1.71785" stroke-miterlimit="8" fill="none" fill-rule="evenodd"/><text font-family="Arial,Arial_MSFontService,sans-serif" font-weight="400" font-size="30" transform="matrix(1 0 0 1 939.299 673)">Av01</text><path d="M1774.5 747C1774.5 751.142 1771.14 754.5 1767 754.5 1762.86 754.5 1759.5 751.142 1759.5 747 1759.5 742.858 1762.86 739.5 1767 739.5 1771.14 739.5 1774.5 742.858 1774.5 747Z" stroke="#000000" stroke-width="1.22703" stroke-linecap="square" stroke-miterlimit="8" fill="#FFFFFF" fill-rule="evenodd"/><path d="M1367.5 1594.5 1367.5 2016.5" stroke="#000000" stroke-width="4.90814" stroke-linecap="square" stroke-miterlimit="8" fill="none" fill-rule="evenodd"/><path d="M1366.28 2001.89 1386 1995 1366.28 2036 1346 1995Z" fill-rule="evenodd"/><path d="M1644.16 1468C1659.54 1468 1672 1480.53 1672 1496L1672 1545C1672 1560.46 1659.54 1573 1644.16 1573L1279.84 1573C1264.46 1573 1252 1560.46 1252 1545L1252 1496C1252 1480.53 1264.46 1468 1279.84 1468L1644.16 1468Z" stroke="#000000" stroke-width="1.71785" stroke-miterlimit="8" fill="#FFFFFF" fill-rule="evenodd"/><text font-family="Arial,Arial_MSFontService,sans-serif" font-weight="400" font-size="35" transform="matrix(1 0 0 1 1280.97 1516)">Is er een afnemers</text><text font-family="Arial,Arial_MSFontService,sans-serif" font-weight="400" font-size="35" transform="matrix(1 0 0 1 1574.31 1516)">-</text><text font-family="Arial,Arial_MSFontService,sans-serif" font-weight="400" font-size="35" transform="matrix(1 0 0 1 1280.97 1551)">indicatie geplaatst?</text><path d="M1623.06 1563C1630.76 1563 1637 1569.23 1637 1576.92L1637 1584.09C1637 1591.77 1630.76 1598 1623.06 1598L1494.94 1598C1487.24 1598 1481 1591.77 1481 1584.09L1481 1576.92C1481 1569.23 1487.24 1563 1494.94 1563L1623.06 1563Z" stroke="#000000" stroke-width="1.71785" stroke-miterlimit="8" fill="#FFFFFF" fill-rule="evenodd"/><text font-family="Arial,Arial_MSFontService,sans-serif" font-weight="400" font-size="24" transform="matrix(1 0 0 1 1535.93 1591)">Nee</text><path d="M1430.05 1563C1437.75 1563 1444 1569.23 1444 1576.92L1444 1584.09C1444 1591.77 1437.75 1598 1430.05 1598L1301.94 1598C1294.24 1598 1288 1591.77 1288 1584.09L1288 1576.92C1288 1569.23 1294.24 1563 1301.94 1563L1430.05 1563Z" stroke="#000000" stroke-width="1.71785" stroke-miterlimit="8" fill="#FFFFFF" fill-rule="evenodd"/><text font-family="Arial,Arial_MSFontService,sans-serif" font-weight="400" font-size="24" transform="matrix(1 0 0 1 1353.21 1591)">Ja</text><path d="M1565.5 1599C1565.5 1603.14 1562.14 1606.5 1558 1606.5 1553.86 1606.5 1550.5 1603.14 1550.5 1599 1550.5 1594.86 1553.86 1591.5 1558 1591.5 1562.14 1591.5 1565.5 1594.86 1565.5 1599Z" stroke="#000000" stroke-width="1.22703" stroke-linecap="square" stroke-miterlimit="8" fill="#FFFFFF" fill-rule="evenodd"/><path d="M704.5 2043C704.5 2047.14 701.142 2050.5 697 2050.5 692.858 2050.5 689.5 2047.14 689.5 2043 689.5 2038.86 692.858 2035.5 697 2035.5 701.142 2035.5 704.5 2038.86 704.5 2043Z" stroke="#000000" stroke-width="1.22703" stroke-linecap="square" stroke-miterlimit="8" fill="#FFFFFF" fill-rule="evenodd"/><path d="M704.5 2077.5C704.5 2081.37 701.142 2084.5 697 2084.5 692.858 2084.5 689.5 2081.37 689.5 2077.5 689.5 2073.63 692.858 2070.5 697 2070.5 701.142 2070.5 704.5 2073.63 704.5 2077.5Z" stroke="#000000" stroke-width="1.22703" stroke-linecap="square" stroke-miterlimit="8" fill="#FFFFFF" fill-rule="evenodd"/><path d="M1365.5 2062.5 1365.5 2249.5" stroke="#000000" stroke-width="4.90814" stroke-linecap="square" stroke-miterlimit="8" fill="none" fill-rule="evenodd"/><path d="M1365.28 2234.07 1385 2227 1365.28 2269 1345 2227Z" fill-rule="evenodd"/><path d="M582.5 2143.5 582.5 2249.5" stroke="#000000" stroke-width="4.90814" stroke-linecap="square" stroke-miterlimit="8" fill="none" fill-rule="evenodd"/><path d="M647.057 2121C654.755 2121 661 2127.23 661 2134.92L661 2142.08C661 2149.77 654.755 2156 647.057 2156L518.947 2156C511.245 2156 505 2149.77 505 2142.08L505 2134.92C505 2127.23 511.245 2121 518.947 2121L647.057 2121Z" stroke="#000000" stroke-width="1.71785" stroke-miterlimit="8" fill="#FFFFFF" fill-rule="evenodd"/><text font-family="Arial,Arial_MSFontService,sans-serif" font-weight="400" font-size="24" transform="matrix(1 0 0 1 561.092 2148)">Null</text><path d="M1853.15 2038C1868.53 2038 1881 2050.53 1881 2066L1881 2080C1881 2095.46 1868.53 2108 1853.15 2108L1279.85 2108C1264.46 2108 1252 2095.46 1252 2080L1252 2066C1252 2050.53 1264.46 2038 1279.85 2038L1853.15 2038Z" stroke="#000000" stroke-width="1.71785" stroke-miterlimit="8" fill="#FFFFFF" fill-rule="evenodd"/><text font-family="Arial,Arial_MSFontService,sans-serif" font-weight="400" font-size="35" transform="matrix(1 0 0 1 1280.97 2085)">Verwijder afnemersindicatie</text><path d="M1259.5 2077C1259.5 2081.14 1256.37 2084.5 1252.5 2084.5 1248.63 2084.5 1245.5 2081.14 1245.5 2077 1245.5 2072.86 1248.63 2069.5 1252.5 2069.5 1256.37 2069.5 1259.5 2072.86 1259.5 2077Z" stroke="#000000" stroke-width="1.22703" stroke-linecap="square" stroke-miterlimit="8" fill="#FFFFFF" fill-rule="evenodd"/><path d="M581.769 2235.06 601 2228 581.769 2270 562 2228Z" fill-rule="evenodd"/><path d="M479.769 1956.06 499 1949 479.769 1991 460 1949Z" fill-rule="evenodd"/><path d="M302.912 647C287.498 647 275 659.535 275 674.998L275 689.001C275 704.467 287.498 717 302.912 717L668.089 717C683.507 717 696 704.467 696 689.001L696 674.998C696 659.535 683.507 647 668.089 647L302.912 647Z" stroke="#000000" stroke-width="1.71785" stroke-miterlimit="8" fill="#FFFFFF" fill-rule="evenodd"/><text font-family="Arial,Arial_MSFontService,sans-serif" font-weight="400" font-size="35" transform="matrix(1 0 0 1 290.405 695)">Verzoek tot verwijderen</text><path d="M703.501 683C703.501 687.142 700.142 690.5 696 690.5 691.858 690.5 688.5 687.142 688.5 683 688.5 678.858 691.858 675.5 696 675.5 700.142 675.5 703.501 678.858 703.501 683Z" stroke="#000000" stroke-width="1.22703" stroke-linecap="square" stroke-miterlimit="8" fill="#FFFFFF" fill-rule="evenodd"/><path d="M1367.5 745.5 1367.5 1445.5" stroke="#000000" stroke-width="4.90814" stroke-linecap="square" stroke-miterlimit="8" fill="none" fill-rule="evenodd"/><path d="M1366.28 1433.89 1386 1427 1366.28 1468 1346 1427Z" fill-rule="evenodd"/><path d="M1430.05 710C1437.75 710 1444 716.228 1444 723.915L1444 731.086C1444 738.769 1437.75 745 1430.05 745L1301.94 745C1294.24 745 1288 738.772 1288 731.086L1288 723.915C1288 716.228 1294.24 710 1301.94 710L1430.05 710Z" stroke="#000000" stroke-width="1.71785" stroke-miterlimit="8" fill="#FFFFFF" fill-rule="evenodd"/><text font-family="Arial,Arial_MSFontService,sans-serif" font-weight="400" font-size="24" transform="matrix(1 0 0 1 1307.94 737)">Gevonden</text></g></svg>