<svg width="1950" height="2545" xmlns="http://www.w3.org/2000/svg" xmlns:xlink="http://www.w3.org/1999/xlink" xml:space="preserve" overflow="hidden"><g transform="translate(1 -311)"><path d="M1169 312 1948 312 1948 2855 1169 2855Z" stroke="#000000" stroke-width="1.71785" stroke-miterlimit="8" fill="#E6E6E6" fill-rule="evenodd"/><path d="M1557.8 1672.76 1557.8 1656 1558 1712.32C1558 1727.53 1545.6 1740 1530.04 1740L1500.51 1740 1213.86 1739.61 1174.29 1739.81 1118.57 1738.83 1079 1739.03" stroke="#000000" stroke-width="1.71785" stroke-miterlimit="8" fill="none" fill-rule="evenodd"/><path d="M0 312 765 312 765 2855 0 2855Z" stroke="#000000" stroke-width="1.71785" stroke-miterlimit="8" fill="#E6E6E6" fill-rule="evenodd"/><path d="M1766.8 801 1766.8 853.488 1767 858.189C1767 873.466 1754.61 886 1739.07 886L1709.57 886 1079 886" stroke="#000000" stroke-width="1.71785" stroke-miterlimit="8" fill="none" fill-rule="evenodd"/><path d="M804.195 2283 804 2254.71C804 2239.49 816.306 2227 831.738 2227L871 2227.2" stroke="#000000" stroke-width="1.71785" stroke-miterlimit="8" fill="none" fill-rule="evenodd"/><path d="M869.5 2176.5 1080.5 2176.5 1080.5 2282.5 869.5 2282.5Z" stroke="#000000" stroke-width="4.90814" stroke-miterlimit="8" fill="#FFFFFF" fill-rule="evenodd"/><path d="M869 2176.19 919.145 2226 1029.66 2226 1080 2176" stroke="#000000" stroke-width="1.71785" stroke-miterlimit="8" fill="none" fill-rule="evenodd"/><text font-family="Arial,Arial_MSFontService,sans-serif" font-weight="400" font-size="30" transform="matrix(1 0 0 1 941.57 2217)">Af01</text><text font-family="Arial,Arial_MSFontService,sans-serif" font-weight="400" font-size="30" transform="matrix(1 0 0 1 917.541 2266)">Code "I"</text><path d="M1097 2228.29 1140 2217 1140 2239Z" fill-rule="evenodd"/><path d="M910 2577 696 2578" stroke="#000000" stroke-width="1.71785" stroke-miterlimit="8" fill="none" fill-rule="evenodd"/><path d="M1328 2577 1079 2578" stroke="#000000" stroke-width="1.71785" stroke-miterlimit="8" fill="none" fill-rule="evenodd"/><path d="M1097 2577.29 1140 2566 1140 2588Z" fill-rule="evenodd"/><path d="M582.5 2596.5 582.5 2736.5" stroke="#000000" stroke-width="4.90814" stroke-linecap="square" stroke-miterlimit="8" fill="none" fill-rule="evenodd"/><path d="M804.195 1133 804 1104.71C804 1089.49 816.306 1077 831.738 1077L871 1077.2" stroke="#000000" stroke-width="1.71785" stroke-miterlimit="8" fill="none" fill-rule="evenodd"/><path d="M804.195 943 804 914.202C804 898.711 816.306 886 831.738 886L871 886.198" stroke="#000000" stroke-width="1.71785" stroke-miterlimit="8" fill="none" fill-rule="evenodd"/><path d="M804.195 2507 804 703.93C804 688.589 816.306 676 831.738 676L871 676.197" stroke="#000000" stroke-width="1.71785" stroke-miterlimit="8" fill="none" fill-rule="evenodd"/><path d="M804.195 1797 804 1768.2C804 1752.71 816.306 1740 831.738 1740L871 1740.2" stroke="#000000" stroke-width="1.71785" stroke-miterlimit="8" fill="none" fill-rule="evenodd"/><path d="M804.195 2040 804 2011.71C804 1996.49 816.306 1984 831.738 1984L871 1984.2" stroke="#000000" stroke-width="1.71785" stroke-miterlimit="8" fill="none" fill-rule="evenodd"/><path d="M1556.8 1916.96 1556.8 1900 1557 1957C1557 1972.38 1544.62 1985 1529.1 1985L1499.63 1985 1213.58 1984.61 1174.09 1984.8 1118.49 1983.82 1079 1984.01" stroke="#000000" stroke-width="1.71785" stroke-miterlimit="8" fill="none" fill-rule="evenodd"/><path d="M869.5 1933.5 1080.5 1933.5 1080.5 2038.5 869.5 2038.5Z" stroke="#000000" stroke-width="4.90814" stroke-miterlimit="8" fill="#FFFFFF" fill-rule="evenodd"/><path d="M869 1932.4 919.145 1983 1029.66 1983 1080 1932" stroke="#000000" stroke-width="1.71785" stroke-miterlimit="8" fill="none" fill-rule="evenodd"/><text font-family="Arial,Arial_MSFontService,sans-serif" font-weight="400" font-size="30" transform="matrix(1 0 0 1 942.675 1973)">Af01</text><text font-family="Arial,Arial_MSFontService,sans-serif" font-weight="400" font-size="30" transform="matrix(1 0 0 1 910.989 2022)">Code "R"</text><path d="M1097 1983.29 1140 1972 1140 1994Z" fill-rule="evenodd"/><path d="M869.5 1689.5 1080.5 1689.5 1080.5 1795.5 869.5 1795.5Z" stroke="#000000" stroke-width="4.90814" stroke-miterlimit="8" fill="#FFFFFF" fill-rule="evenodd"/><path d="M869 1689.39 919.145 1739 1029.66 1739 1080 1689" stroke="#000000" stroke-width="1.71785" stroke-miterlimit="8" fill="none" fill-rule="evenodd"/><text font-family="Arial,Arial_MSFontService,sans-serif" font-weight="400" font-size="30" transform="matrix(1 0 0 1 942.898 1730)">Af01</text><text font-family="Arial,Arial_MSFontService,sans-serif" font-weight="400" font-size="30" transform="matrix(1 0 0 1 911.04 1779)">Code "H"</text><path d="M1097 1740.2 1140 1729 1140 1751Z" fill-rule="evenodd"/><path d="M1366 1687.11 1366 1670 1367 1710" stroke="#000000" stroke-width="1.71785" stroke-miterlimit="8" fill="none" fill-rule="evenodd"/><path d="M1142 536.393 1098 525 1098 547Z" fill-rule="evenodd"/><path d="M661 537 873 537" stroke="#000000" stroke-width="1.71785" stroke-miterlimit="8" fill="none" fill-rule="evenodd"/><path d="M828 536.393 785 525 785 547Z" fill-rule="evenodd"/><path d="M1366.5 551.5 1366.5 719.5" stroke="#000000" stroke-width="4.90814" stroke-linecap="square" stroke-miterlimit="8" fill="none" fill-rule="evenodd"/><path d="M1044 537 1256 537" stroke="#000000" stroke-width="1.71785" stroke-miterlimit="8" fill="none" fill-rule="evenodd"/><path d="M1696.8 591 1696.8 643.489 1697 648.189C1697 663.466 1684.62 676 1669.09 676L1639.6 676 1044 676" stroke="#000000" stroke-width="1.71785" stroke-miterlimit="8" fill="none" fill-rule="evenodd"/><path d="M1784.07 485C1799.41 485 1812 497.434 1812 513.026L1812 561.974C1812 577.368 1799.61 590 1784.07 590L1279.93 590C1264.59 590 1252 577.566 1252 561.974L1252 513.026C1252 497.632 1264.39 485 1279.93 485L1784.07 485Z" stroke="#000000" stroke-width="1.71785" stroke-miterlimit="8" fill="#FFFFFF" fill-rule="evenodd"/><text font-family="Arial,Arial_MSFontService,sans-serif" font-weight="400" font-size="35" transform="matrix(1 0 0 1 1281.07 533)">Afnemer geautoriseerd voor</text><text font-family="Arial,Arial_MSFontService,sans-serif" font-weight="400" font-size="35" transform="matrix(1 0 0 1 1281.07 568)">plaatsen afnemersindicaties?</text><path d="M1430.03 581C1437.71 581 1444 587.292 1444 594.961L1444 602.04C1444 609.708 1437.71 616 1430.03 616L1301.97 616C1294.3 616 1288 609.708 1288 602.04L1288 594.961C1288 587.292 1294.3 581 1301.97 581L1430.03 581Z" stroke="#000000" stroke-width="1.71785" stroke-miterlimit="8" fill="#FFFFFF" fill-rule="evenodd"/><text font-family="Arial,Arial_MSFontService,sans-serif" font-weight="400" font-size="24" transform="matrix(1 0 0 1 1353.31 608)">Ja</text><path d="M1097 676.393 1140 665 1140 687Z" fill-rule="evenodd"/><path d="M1097 886.292 1140 875 1140 897Z" fill-rule="evenodd"/><path d="M869.5 836.5 1080.5 836.5 1080.5 941.5 869.5 941.5Z" stroke="#000000" stroke-width="4.90814" stroke-miterlimit="8" fill="#FFFFFF" fill-rule="evenodd"/><path d="M869 835.397 919.145 886 1029.66 886 1080 835" stroke="#000000" stroke-width="1.71785" stroke-miterlimit="8" fill="none" fill-rule="evenodd"/><text font-family="Arial,Arial_MSFontService,sans-serif" font-weight="400" font-size="30" transform="matrix(1 0 0 1 943.163 876)">Af01</text><text font-family="Arial,Arial_MSFontService,sans-serif" font-weight="400" font-size="30" transform="matrix(1 0 0 1 910.989 925)">Code "U"</text><path d="M1097 1076.29 1140 1065 1140 1087Z" fill-rule="evenodd"/><path d="M1645.04 1810C1660.4 1810 1673 1822.43 1673 1838.03L1673 1886.97C1673 1902.37 1660.59 1915 1645.04 1915L1279.96 1915C1264.6 1915 1252 1902.57 1252 1886.97L1252 1838.03C1252 1822.63 1264.41 1810 1279.96 1810L1645.04 1810Z" stroke="#000000" stroke-width="1.71785" stroke-miterlimit="8" fill="#FFFFFF" fill-rule="evenodd"/><text font-family="Arial,Arial_MSFontService,sans-serif" font-weight="400" font-size="35" transform="matrix(1 0 0 1 1281.07 1858)">Voldoet persoon aan</text><text font-family="Arial,Arial_MSFontService,sans-serif" font-weight="400" font-size="35" transform="matrix(1 0 0 1 1281.07 1893)">voorwaarderegel?</text><path d="M669.052 2491C684.404 2491 697 2503.44 697 2519.04L697 2602.96C697 2618.36 684.601 2631 669.052 2631L303.948 2631C288.597 2631 276 2618.56 276 2602.96L276 2519.04C276 2503.64 288.4 2491 303.948 2491L669.052 2491Z" stroke="#000000" stroke-width="1.71785" stroke-miterlimit="8" fill="#FFFFFF" fill-rule="evenodd"/><text font-family="Arial,Arial_MSFontService,sans-serif" font-weight="400" font-size="35" transform="matrix(1 0 0 1 305.564 2538)">Wacht op antwoord</text><path d="M714 2542.39 757 2531 757 2553Z" fill-rule="evenodd"/><path d="M869.5 2526.5 1080.5 2526.5 1080.5 2632.5 869.5 2632.5Z" stroke="#000000" stroke-width="4.90814" stroke-miterlimit="8" fill="#FFFFFF" fill-rule="evenodd"/><path d="M869 2526.4 919.145 2577 1029.66 2577 1080 2526" stroke="#000000" stroke-width="1.71785" stroke-miterlimit="8" fill="none" fill-rule="evenodd"/><text font-family="Arial,Arial_MSFontService,sans-serif" font-weight="400" font-size="30" transform="matrix(1 0 0 1 938.571 2567)">Ag01</text><text font-family="Arial,Arial_MSFontService,sans-serif" font-weight="400" font-size="30" transform="matrix(1 0 0 1 916.184 2616)">A/E/M/O</text><path d="M714 2577.29 757 2566 757 2588Z" fill-rule="evenodd"/><path d="M390.392 2654 390.196 2625.41 390.196 2598.79 390 2570.2C390 2554.82 402.352 2542.2 417.841 2542.2L446.075 2542 699 2542.2" stroke="#000000" stroke-width="1.71785" stroke-miterlimit="8" stroke-dasharray="9.66289 6.44193" fill="none" fill-rule="evenodd"/><path d="M582.197 2634 582 2605.3C582 2589.86 594.404 2577.2 609.958 2577.2L638.311 2577 696 2577.2" stroke="#000000" stroke-width="1.71785" stroke-miterlimit="8" stroke-dasharray="9.66289 6.44193" fill="none" fill-rule="evenodd"/><path d="M647.033 2621C654.705 2621 661 2627.29 661 2634.96L661 2642.04C661 2649.71 654.705 2656 647.033 2656L518.967 2656C511.295 2656 505 2649.71 505 2642.04L505 2634.96C505 2627.29 511.295 2621 518.967 2621L647.033 2621Z" stroke="#000000" stroke-width="1.71785" stroke-miterlimit="8" fill="#FFFFFF" fill-rule="evenodd"/><text font-family="Arial,Arial_MSFontService,sans-serif" font-weight="400" font-size="24" transform="matrix(1 0 0 1 553.964 2648)">Ag01</text><path d="M495.5 544.5 495.5 2476.5" stroke="#000000" stroke-width="4.90814" stroke-linecap="square" stroke-miterlimit="8" fill="none" fill-rule="evenodd"/><path d="M668.09 2751C683.421 2751 696 2763.42 696 2779L696 2793C696 2808.38 683.618 2821 668.09 2821L233.91 2821C218.579 2821 206 2808.58 206 2793L206 2779C206 2763.62 218.383 2751 233.91 2751L668.09 2751Z" stroke="#000000" stroke-width="1.71785" stroke-miterlimit="8" fill="#FFFFFF" fill-rule="evenodd"/><text font-family="Arial,Arial_MSFontService,sans-serif" font-weight="400" font-size="35" transform="matrix(1 0 0 1 217.591 2803)">NORMAAL EINDE CYCLUS</text><path d="M391.5 2631.5 391.5 2700.5 93.5 2700.5" stroke="#000000" stroke-width="4.90814" stroke-linecap="square" stroke-miterlimit="8" fill="none" fill-rule="evenodd"/><path d="M1744.5 591.5 1744.5 660.5 1849.5 660.5" stroke="#000000" stroke-width="4.90814" stroke-linecap="square" stroke-miterlimit="8" fill="none" fill-rule="evenodd"/><path d="M455.033 2621C462.705 2621 469 2627.29 469 2634.96L469 2642.04C469 2649.71 462.705 2656 455.033 2656L326.967 2656C319.295 2656 313 2649.71 313 2642.04L313 2634.96C313 2627.29 319.295 2621 326.967 2621L455.033 2621Z" stroke="#000000" stroke-width="1.71785" stroke-miterlimit="8" fill="#FFFFFF" fill-rule="evenodd"/><text font-family="Arial,Arial_MSFontService,sans-serif" font-weight="400" font-size="24" transform="matrix(1 0 0 1 365.269 2648)">Af01</text><path d="M1814.5 801.5 1814.5 870.5 1849.5 870.5" stroke="#000000" stroke-width="4.90814" stroke-linecap="square" stroke-miterlimit="8" fill="none" fill-rule="evenodd"/><path d="M1762.03 581C1769.71 581 1776 587.257 1776 594.883L1776 602.118C1776 609.743 1769.71 616 1762.03 616L1633.97 616C1626.3 616 1620 609.743 1620 602.118L1620 594.883C1620 587.257 1626.3 581 1633.97 581L1762.03 581Z" stroke="#000000" stroke-width="1.71785" stroke-miterlimit="8" fill="#FFFFFF" fill-rule="evenodd"/><text font-family="Arial,Arial_MSFontService,sans-serif" font-weight="400" font-size="24" transform="matrix(1 0 0 1 1675.06 608)">Nee</text><path d="M1605.5 1672.5 1605.5 1741.5 1849.5 1741.5" stroke="#000000" stroke-width="4.90814" stroke-linecap="square" stroke-miterlimit="8" fill="none" fill-rule="evenodd"/><path d="M1605.5 1916.5 1605.5 1985.5 1849.5 1985.5" stroke="#000000" stroke-width="4.90814" stroke-linecap="square" stroke-miterlimit="8" fill="none" fill-rule="evenodd"/><path d="M1623.03 1905C1630.7 1905 1637 1911.44 1637 1919.28L1637 1926.72C1637 1934.56 1630.7 1941 1623.03 1941L1494.97 1941C1487.3 1941 1481 1934.56 1481 1926.72L1481 1919.28C1481 1911.44 1487.3 1905 1494.97 1905L1623.03 1905Z" stroke="#000000" stroke-width="1.71785" stroke-miterlimit="8" fill="#FFFFFF" fill-rule="evenodd"/><text font-family="Arial,Arial_MSFontService,sans-serif" font-weight="400" font-size="24" transform="matrix(1 0 0 1 1536.03 1933)">Nee</text><path d="M1605.5 2159.5 1605.5 2228.5 1849.5 2228.5" stroke="#000000" stroke-width="4.90814" stroke-linecap="square" stroke-miterlimit="8" fill="none" fill-rule="evenodd"/><path d="M1243.5 383.572C1243.5 347.5 1277.95 347.5 1277.95 347.5L1836.65 347.5C1836.65 347.5 1871.5 347.106 1871.5 382.389 1871.5 417.672 1835.47 417.475 1835.47 417.475L1277.95 417.475C1277.95 417.475 1243.5 419.643 1243.5 383.572Z" stroke="#000000" stroke-width="1.22703" stroke-miterlimit="8" fill="#FFFFFF" fill-rule="evenodd"/><text font-family="Arial,Arial_MSFontService,sans-serif" font-weight="400" font-size="39" transform="matrix(1 0 0 1 1355.72 394)">BRP Verstrekkingen</text><path d="M69.4999 383.572C69.4999 347.5 103.896 347.5 103.896 347.5L661.71 347.5C661.71 347.5 696.5 347.106 696.5 382.389 696.5 417.672 660.531 417.475 660.531 417.475L103.896 417.475C103.896 417.475 69.4999 419.643 69.4999 383.572Z" stroke="#000000" stroke-width="1.22703" stroke-miterlimit="8" fill="#FFFFFF" fill-rule="evenodd"/><text font-family="Arial,Arial_MSFontService,sans-serif" font-weight="400" font-size="39" transform="matrix(1 0 0 1 299.003 394)">Afnemer</text><path d="M1704.5 618C1704.5 622.142 1701.14 625.5 1697 625.5 1692.86 625.5 1689.5 622.142 1689.5 618 1689.5 613.858 1692.86 610.5 1697 610.5 1701.14 610.5 1704.5 613.858 1704.5 618Z" stroke="#000000" stroke-width="1.22703" stroke-linecap="square" stroke-miterlimit="8" fill="#FFFFFF" fill-rule="evenodd"/><path d="M1915.5 661C1915.5 680.054 1900.05 695.5 1881 695.5 1861.95 695.5 1846.5 680.054 1846.5 661 1846.5 641.946 1861.95 626.5 1881 626.5 1900.05 626.5 1915.5 641.946 1915.5 661Z" stroke="#000000" stroke-width="1.22703" stroke-miterlimit="8" fill="#FFFFFF" fill-rule="evenodd"/><text font-family="Arial,Arial_MSFontService,sans-serif" font-weight="400" font-size="49" transform="matrix(1 0 0 1 1866.64 680)">1</text><path d="M1915.5 871C1915.5 890.054 1900.05 905.5 1881 905.5 1861.95 905.5 1846.5 890.054 1846.5 871 1846.5 851.946 1861.95 836.5 1881 836.5 1900.05 836.5 1915.5 851.946 1915.5 871Z" stroke="#000000" stroke-width="1.22703" stroke-miterlimit="8" fill="#FFFFFF" fill-rule="evenodd"/><text font-family="Arial,Arial_MSFontService,sans-serif" font-weight="400" font-size="49" transform="matrix(1 0 0 1 1866.64 890)">2</text><path d="M1915.5 1742C1915.5 1761.05 1900.05 1776.5 1881 1776.5 1861.95 1776.5 1846.5 1761.05 1846.5 1742 1846.5 1722.95 1861.95 1707.5 1881 1707.5 1900.05 1707.5 1915.5 1722.95 1915.5 1742Z" stroke="#000000" stroke-width="1.22703" stroke-miterlimit="8" fill="#FFFFFF" fill-rule="evenodd"/><text font-family="Arial,Arial_MSFontService,sans-serif" font-weight="400" font-size="49" transform="matrix(1 0 0 1 1866.64 1762)">3</text><path d="M1915.5 1986C1915.5 2005.05 1900.05 2020.5 1881 2020.5 1861.95 2020.5 1846.5 2005.05 1846.5 1986 1846.5 1966.95 1861.95 1951.5 1881 1951.5 1900.05 1951.5 1915.5 1966.95 1915.5 1986Z" stroke="#000000" stroke-width="1.22703" stroke-miterlimit="8" fill="#FFFFFF" fill-rule="evenodd"/><text font-family="Arial,Arial_MSFontService,sans-serif" font-weight="400" font-size="49" transform="matrix(1 0 0 1 1866.64 2005)">4</text><path d="M1915.5 2229.5C1915.5 2248.28 1900.05 2263.5 1881 2263.5 1861.95 2263.5 1846.5 2248.28 1846.5 2229.5 1846.5 2210.72 1861.95 2195.5 1881 2195.5 1900.05 2195.5 1915.5 2210.72 1915.5 2229.5Z" stroke="#000000" stroke-width="1.22703" stroke-miterlimit="8" fill="#FFFFFF" fill-rule="evenodd"/><text font-family="Arial,Arial_MSFontService,sans-serif" font-weight="400" font-size="49" transform="matrix(1 0 0 1 1866.64 2249)">5</text><path d="M105.5 2701C105.5 2720.05 90.0539 2735.5 71 2735.5 51.9461 2735.5 36.4999 2720.05 36.4999 2701 36.4999 2681.95 51.9461 2666.5 71 2666.5 90.0539 2666.5 105.5 2681.95 105.5 2701Z" stroke="#000000" stroke-width="1.22703" stroke-miterlimit="8" fill="#FFFFFF" fill-rule="evenodd"/><text font-family="Arial,Arial_MSFontService,sans-serif" font-weight="400" font-size="49" transform="matrix(1 0 0 1 57.1004 2720)">6</text><path d="M1261.5 538C1261.5 542.142 1258.14 545.5 1254 545.5 1249.86 545.5 1246.5 542.142 1246.5 538 1246.5 533.858 1249.86 530.5 1254 530.5 1258.14 530.5 1261.5 533.858 1261.5 538Z" stroke="#000000" stroke-width="1.22703" stroke-linecap="square" stroke-miterlimit="8" fill="#FFFFFF" fill-rule="evenodd"/><path d="M869.5 486.5 1080.5 486.5 1080.5 592.5 869.5 592.5Z" stroke="#000000" stroke-width="4.90814" stroke-miterlimit="8" fill="#FFFFFF" fill-rule="evenodd"/><text font-family="Arial,Arial_MSFontService,sans-serif" font-weight="400" font-size="30" transform="matrix(1 0 0 1 938.571 527)">Ap01</text><path d="M869 486.389 919.145 536 1029.66 536 1080 486" stroke="#000000" stroke-width="1.71785" stroke-miterlimit="8" fill="none" fill-rule="evenodd"/><path d="M869.5 625.5 1080.5 625.5 1080.5 731.5 869.5 731.5Z" stroke="#000000" stroke-width="4.90814" stroke-miterlimit="8" fill="#FFFFFF" fill-rule="evenodd"/><text font-family="Arial,Arial_MSFontService,sans-serif" font-weight="400" font-size="30" transform="matrix(1 0 0 1 942.898 666)">Af01</text><text font-family="Arial,Arial_MSFontService,sans-serif" font-weight="400" font-size="30" transform="matrix(1 0 0 1 911.827 715)">Code "X"</text><path d="M869 625.199 919.145 676.001 1029.66 676.001 1080 625" stroke="#000000" stroke-width="1.71785" stroke-miterlimit="8" fill="none" fill-rule="evenodd"/><path d="M1853.05 730C1868.4 730 1881 742.423 1881 758L1881 772C1881 787.38 1868.6 800 1853.05 800L1278.95 800C1263.6 800 1251 787.578 1251 772L1251 758C1251 742.62 1263.4 730 1278.95 730L1853.05 730Z" stroke="#000000" stroke-width="1.71785" stroke-miterlimit="8" fill="#FFFFFF" fill-rule="evenodd"/><text font-family="Arial,Arial_MSFontService,sans-serif" font-weight="400" font-size="35" transform="matrix(1 0 0 1 1281.07 778)">Zoek persoon in PL</text><text font-family="Arial,Arial_MSFontService,sans-serif" font-weight="400" font-size="35" transform="matrix(1 0 0 1 1586.44 778)">-</text><text font-family="Arial,Arial_MSFontService,sans-serif" font-weight="400" font-size="35" transform="matrix(1 0 0 1 1598.47 778)">bestand</text><path d="M1430.03 791C1437.71 791 1444 797.292 1444 804.961L1444 812.04C1444 819.708 1437.71 826 1430.03 826L1301.97 826C1294.3 826 1288 819.708 1288 812.04L1288 804.961C1288 797.292 1294.3 791 1301.97 791L1430.03 791Z" stroke="#000000" stroke-width="1.71785" stroke-miterlimit="8" fill="#FFFFFF" fill-rule="evenodd"/><text font-family="Arial,Arial_MSFontService,sans-serif" font-weight="400" font-size="24" transform="matrix(1 0 0 1 1308.04 818)">Gevonden</text><path d="M1623.03 791C1630.7 791 1637 797.292 1637 804.961L1637 812.04C1637 819.708 1630.7 826 1623.03 826L1494.97 826C1487.3 826 1481 819.708 1481 812.04L1481 804.961C1481 797.292 1487.3 791 1494.97 791L1623.03 791Z" stroke="#000000" stroke-width="1.71785" stroke-miterlimit="8" fill="#FFFFFF" fill-rule="evenodd"/><text font-family="Arial,Arial_MSFontService,sans-serif" font-weight="400" font-size="24" transform="matrix(1 0 0 1 1499.45 818)">Niet aanw.</text><path d="M1832.03 791C1839.71 791 1846 797.292 1846 804.961L1846 812.04C1846 819.708 1839.71 826 1832.03 826L1703.97 826C1696.3 826 1690 819.708 1690 812.04L1690 804.961C1690 797.292 1696.3 791 1703.97 791L1832.03 791Z" stroke="#000000" stroke-width="1.71785" stroke-miterlimit="8" fill="#FFFFFF" fill-rule="evenodd"/><text font-family="Arial,Arial_MSFontService,sans-serif" font-weight="400" font-size="24" transform="matrix(1 0 0 1 1711.76 818)">Niet uniek</text><path d="M1773.5 827C1773.5 831.142 1770.14 834.5 1766 834.5 1761.86 834.5 1758.5 831.142 1758.5 827 1758.5 822.858 1761.86 819.5 1766 819.5 1770.14 819.5 1773.5 822.858 1773.5 827Z" stroke="#000000" stroke-width="1.22703" stroke-linecap="square" stroke-miterlimit="8" fill="#FFFFFF" fill-rule="evenodd"/><path d="M1366.5 1664.5 1366.5 1797.5" stroke="#000000" stroke-width="4.90814" stroke-linecap="square" stroke-miterlimit="8" fill="none" fill-rule="evenodd"/><path d="M1365.4 1775.1 1385 1768 1365.4 1810 1345 1768Z" fill-rule="evenodd"/><path d="M1365.5 2184.5 1365.5 2511.5" stroke="#000000" stroke-width="4.90814" stroke-linecap="square" stroke-miterlimit="8" fill="none" fill-rule="evenodd"/><path d="M1365.2 2489.13 1385 2482 1365.2 2524 1345 2482Z" fill-rule="evenodd"/><path d="M1366.5 1912.5 1366.5 2041.5" stroke="#000000" stroke-width="4.90814" stroke-linecap="square" stroke-miterlimit="8" fill="none" fill-rule="evenodd"/><path d="M1365.4 2019.13 1385 2012 1365.4 2054 1345 2012Z" fill-rule="evenodd"/><path d="M1430.03 1905C1437.71 1905 1444 1911.44 1444 1919.28L1444 1926.72C1444 1934.56 1437.71 1941 1430.03 1941L1301.97 1941C1294.3 1941 1288 1934.56 1288 1926.72L1288 1919.28C1288 1911.44 1294.3 1905 1301.97 1905L1430.03 1905Z" stroke="#000000" stroke-width="1.71785" stroke-miterlimit="8" fill="#FFFFFF" fill-rule="evenodd"/><text font-family="Arial,Arial_MSFontService,sans-serif" font-weight="400" font-size="24" transform="matrix(1 0 0 1 1353.14 1933)">Ja</text><path d="M1556.8 2159.96 1556.8 2143 1557 2200C1557 2215.38 1544.62 2228 1529.09 2228L1499.61 2228 1213.63 2227.61 1174.13 2227.8 1118.51 2226.82 1079 2227.01" stroke="#000000" stroke-width="1.71785" stroke-miterlimit="8" fill="none" fill-rule="evenodd"/><path d="M1565.5 1942C1565.5 1946.14 1562.14 1949.5 1558 1949.5 1553.86 1949.5 1550.5 1946.14 1550.5 1942 1550.5 1937.86 1553.86 1934.5 1558 1934.5 1562.14 1934.5 1565.5 1937.86 1565.5 1942Z" stroke="#000000" stroke-width="1.22703" stroke-linecap="square" stroke-miterlimit="8" fill="#FFFFFF" fill-rule="evenodd"/><path d="M703.501 2578C703.501 2582.14 700.142 2585.5 696 2585.5 691.858 2585.5 688.5 2582.14 688.5 2578 688.5 2573.86 691.858 2570.5 696 2570.5 700.142 2570.5 703.501 2573.86 703.501 2578Z" stroke="#000000" stroke-width="1.22703" stroke-linecap="square" stroke-miterlimit="8" fill="#FFFFFF" fill-rule="evenodd"/><path d="M1365.5 2574.5 1365.5 2737.5" stroke="#000000" stroke-width="4.90814" stroke-linecap="square" stroke-miterlimit="8" fill="none" fill-rule="evenodd"/><path d="M1365.2 2715.93 1385 2709 1365.2 2751 1345 2709Z" fill-rule="evenodd"/><path d="M1854.05 2526C1869.4 2526 1882 2538.43 1882 2554.03L1882 2602.97C1882 2618.37 1869.6 2631 1854.05 2631L1279.95 2631C1264.6 2631 1252 2618.57 1252 2602.97L1252 2554.03C1252 2538.63 1264.4 2526 1279.95 2526L1854.05 2526Z" stroke="#000000" stroke-width="1.71785" stroke-miterlimit="8" fill="#FFFFFF" fill-rule="evenodd"/><text font-family="Arial,Arial_MSFontService,sans-serif" font-weight="400" font-size="35" transform="matrix(1 0 0 1 1281.07 2573)">Plaats afnemersindicatie</text><text font-family="Arial,Arial_MSFontService,sans-serif" font-weight="400" font-size="35" transform="matrix(1 0 0 1 1281.07 2608)">Verzend alle geautoriseerde gegevens</text><path d="M1258.5 2579C1258.5 2583.14 1255.14 2586.5 1251 2586.5 1246.86 2586.5 1243.5 2583.14 1243.5 2579 1243.5 2574.86 1246.86 2571.5 1251 2571.5 1255.14 2571.5 1258.5 2574.86 1258.5 2579Z" stroke="#000000" stroke-width="1.22703" stroke-linecap="square" stroke-miterlimit="8" fill="#FFFFFF" fill-rule="evenodd"/><path d="M1713.09 2751C1728.42 2751 1741 2763.42 1741 2779L1741 2793C1741 2808.38 1728.62 2821 1713.09 2821L1278.91 2821C1263.58 2821 1251 2808.58 1251 2793L1251 2779C1251 2763.62 1263.38 2751 1278.91 2751L1713.09 2751Z" stroke="#000000" stroke-width="1.71785" stroke-miterlimit="8" fill="#FFFFFF" fill-rule="evenodd"/><path d="M581.89 2715.93 601 2709 581.89 2751 562 2709Z" fill-rule="evenodd"/><path d="M494.2 2456.13 514 2449 494.2 2491 474 2449Z" fill-rule="evenodd"/><path d="M1365.4 694.962 1385 688 1365.4 729 1345 688Z" fill-rule="evenodd"/><path d="M1645.04 1532C1660.4 1532 1673 1544.35 1673 1559.84L1673 1643.16C1673 1658.45 1660.59 1671 1645.04 1671L1279.96 1671C1264.6 1671 1252 1658.65 1252 1643.16L1252 1559.84C1252 1544.55 1264.41 1532 1279.96 1532L1645.04 1532Z" stroke="#000000" stroke-width="1.71785" stroke-miterlimit="8" fill="#FFFFFF" fill-rule="evenodd"/><path d="M1623.03 1662C1630.7 1662 1637 1668.26 1637 1675.88L1637 1683.12C1637 1690.74 1630.7 1697 1623.03 1697L1494.97 1697C1487.3 1697 1481 1690.74 1481 1683.12L1481 1675.88C1481 1668.26 1487.3 1662 1494.97 1662L1623.03 1662Z" stroke="#000000" stroke-width="1.71785" stroke-miterlimit="8" fill="#FFFFFF" fill-rule="evenodd"/><path d="M1430.03 1662C1437.71 1662 1444 1668.26 1444 1675.88L1444 1683.12C1444 1690.74 1437.71 1697 1430.03 1697L1301.97 1697C1294.3 1697 1288 1690.74 1288 1683.12L1288 1675.88C1288 1668.26 1294.3 1662 1301.97 1662L1430.03 1662Z" stroke="#000000" stroke-width="1.71785" stroke-miterlimit="8" fill="#FFFFFF" fill-rule="evenodd"/><text font-family="Arial,Arial_MSFontService,sans-serif" font-weight="400" font-size="24" transform="matrix(1 0 0 1 1545.4 1689)">Ja</text><text font-family="Arial,Arial_MSFontService,sans-serif" font-weight="400" font-size="24" transform="matrix(1 0 0 1 1343.77 1689)">Nee</text><text font-family="Arial,Arial_MSFontService,sans-serif" font-weight="400" font-size="35" transform="matrix(1 0 0 1 1281.07 1579)">Staat indicatie geheim</text><text font-family="Arial,Arial_MSFontService,sans-serif" font-weight="400" font-size="35" transform="matrix(1 0 0 1 1281.07 1614)">aan op PL en in</text><text font-family="Arial,Arial_MSFontService,sans-serif" font-weight="400" font-size="35" transform="matrix(1 0 0 1 1281.07 1649)">autorisatietabelregel?</text><path d="M1565.5 1698.5C1565.5 1702.37 1562.14 1705.5 1558 1705.5 1553.86 1705.5 1550.5 1702.37 1550.5 1698.5 1550.5 1694.63 1553.86 1691.5 1558 1691.5 1562.14 1691.5 1565.5 1694.63 1565.5 1698.5Z" stroke="#000000" stroke-width="1.22703" stroke-linecap="square" stroke-miterlimit="8" fill="#FFFFFF" fill-rule="evenodd"/><text font-family="Arial,Arial_MSFontService,sans-serif" font-weight="400" font-size="35" transform="matrix(1 0 0 1 1262.53 2803)">NORMAAL EINDE CYCLUS</text><path d="M303.895 502C288.573 502 276 514.422 276 530L276 544C276 559.38 288.376 572 303.895 572L668.105 572C683.428 572 696 559.578 696 544L696 530C696 514.62 683.624 502 668.105 502L303.895 502Z" stroke="#000000" stroke-width="1.71785" stroke-miterlimit="8" fill="#FFFFFF" fill-rule="evenodd"/><text font-family="Arial,Arial_MSFontService,sans-serif" font-weight="400" font-size="35" transform="matrix(1 0 0 1 290.633 549)">Verzoek tot plaatsen</text><path d="M703.501 538C703.501 542.142 700.142 545.5 696 545.5 691.858 545.5 688.5 542.142 688.5 538 688.5 533.858 691.858 530.5 696 530.5 700.142 530.5 703.501 533.858 703.501 538Z" stroke="#000000" stroke-width="1.22703" stroke-linecap="square" stroke-miterlimit="8" fill="#FFFFFF" fill-rule="evenodd"/><path d="M696 2541.8 775.527 2542C790.844 2542 803.411 2529.66 803.411 2514.19L804 2466" stroke="#000000" stroke-width="1.71785" stroke-miterlimit="8" fill="none" fill-rule="evenodd"/><path d="M703.501 2542C703.501 2546.14 700.142 2549.5 696 2549.5 691.858 2549.5 688.5 2546.14 688.5 2542 688.5 2537.86 691.858 2534.5 696 2534.5 700.142 2534.5 703.501 2537.86 703.501 2542Z" stroke="#000000" stroke-width="1.22703" stroke-linecap="square" stroke-miterlimit="8" fill="#FFFFFF" fill-rule="evenodd"/><path d="M1645.04 2054C1660.4 2054 1673 2066.43 1673 2082.03L1673 2130.97C1673 2146.37 1660.59 2159 1645.04 2159L1279.96 2159C1264.6 2159 1252 2146.57 1252 2130.97L1252 2082.03C1252 2066.63 1264.41 2054 1279.96 2054L1645.04 2054Z" stroke="#000000" stroke-width="1.71785" stroke-miterlimit="8" fill="#FFFFFF" fill-rule="evenodd"/><text font-family="Arial,Arial_MSFontService,sans-serif" font-weight="400" font-size="35" transform="matrix(1 0 0 1 1281.07 2101)">Reeds een afnemers</text><text font-family="Arial,Arial_MSFontService,sans-serif" font-weight="400" font-size="35" transform="matrix(1 0 0 1 1607.64 2101)">-</text><text font-family="Arial,Arial_MSFontService,sans-serif" font-weight="400" font-size="35" transform="matrix(1 0 0 1 1281.07 2136)">indicatie geplaatst?</text><path d="M1430.03 2149C1437.71 2149 1444 2155.26 1444 2162.88L1444 2170.12C1444 2177.74 1437.71 2184 1430.03 2184L1301.97 2184C1294.3 2184 1288 2177.74 1288 2170.12L1288 2162.88C1288 2155.26 1294.3 2149 1301.97 2149L1430.03 2149Z" stroke="#000000" stroke-width="1.71785" stroke-miterlimit="8" fill="#FFFFFF" fill-rule="evenodd"/><text font-family="Arial,Arial_MSFontService,sans-serif" font-weight="400" font-size="24" transform="matrix(1 0 0 1 1343.77 2176)">Nee</text><path d="M1623.03 2149C1630.7 2149 1637 2155.26 1637 2162.88L1637 2170.12C1637 2177.74 1630.7 2184 1623.03 2184L1494.97 2184C1487.3 2184 1481 2177.74 1481 2170.12L1481 2162.88C1481 2155.26 1487.3 2149 1494.97 2149L1623.03 2149Z" stroke="#000000" stroke-width="1.71785" stroke-miterlimit="8" fill="#FFFFFF" fill-rule="evenodd"/><text font-family="Arial,Arial_MSFontService,sans-serif" font-weight="400" font-size="24" transform="matrix(1 0 0 1 1545.4 2176)">Ja</text><path d="M1565.5 2188C1565.5 2192.14 1562.14 2195.5 1558 2195.5 1553.86 2195.5 1550.5 2192.14 1550.5 2188 1550.5 2183.86 1553.86 2180.5 1558 2180.5 1562.14 2180.5 1565.5 2183.86 1565.5 2188Z" stroke="#000000" stroke-width="1.22703" stroke-linecap="square" stroke-miterlimit="8" fill="#FFFFFF" fill-rule="evenodd"/><path d="M1364.5 828.5 1364.5 1519.5" stroke="#000000" stroke-width="4.90814" stroke-linecap="square" stroke-miterlimit="8" fill="none" fill-rule="evenodd"/><path d="M1543.8 828 1543.8 1043.43 1544 1048.14C1544 1063.44 1531.61 1076 1516.07 1076L1486.56 1076 1030 1076" stroke="#000000" stroke-width="1.71785" stroke-miterlimit="8" fill="none" fill-rule="evenodd"/><path d="M1363.7 1495.13 1383 1488 1363.7 1530 1344 1488Z" fill-rule="evenodd"/><path d="M1551.5 828C1551.5 832.142 1548.14 835.501 1544 835.501 1539.86 835.501 1536.5 832.142 1536.5 828 1536.5 823.858 1539.86 820.5 1544 820.5 1548.14 820.5 1551.5 823.858 1551.5 828Z" stroke="#000000" stroke-width="1.22703" stroke-linecap="square" stroke-miterlimit="8" fill="#FFFFFF" fill-rule="evenodd"/><path d="M869.5 1026.5 1080.5 1026.5 1080.5 1132.5 869.5 1132.5Z" stroke="#000000" stroke-width="4.90814" stroke-miterlimit="8" fill="#FFFFFF" fill-rule="evenodd"/><path d="M869 1025.4 919.145 1076 1029.66 1076 1080 1025" stroke="#000000" stroke-width="1.71785" stroke-miterlimit="8" fill="none" fill-rule="evenodd"/><text font-family="Arial,Arial_MSFontService,sans-serif" font-weight="400" font-size="30" transform="matrix(1 0 0 1 942.898 1067)">Af01</text><text font-family="Arial,Arial_MSFontService,sans-serif" font-weight="400" font-size="30" transform="matrix(1 0 0 1 910.254 1116)">Code "G"</text></g></svg>