<svg width="1949" height="838" xmlns="http://www.w3.org/2000/svg" xmlns:xlink="http://www.w3.org/1999/xlink" xml:space="preserve" overflow="hidden"><g transform="matrix(1 0 0 1 0 -1011)"><path d="M1.00003 1012 765 1012 765 1848 1.00003 1848Z" stroke="#000000" stroke-width="1.71785" stroke-miterlimit="8" fill="#E6E6E6" fill-rule="evenodd"/><path d="M1183 1012 1948 1012 1948 1848 1183 1848Z" stroke="#000000" stroke-width="1.71785" stroke-miterlimit="8" fill="#E6E6E6" fill-rule="evenodd"/><path d="M1115 1383C1115 1398.63 1127.68 1414 1143 1414" stroke="#000000" stroke-width="1.71785" stroke-miterlimit="8" fill="none" fill-rule="evenodd"/><path d="M1068 1415 1252 1414" stroke="#000000" stroke-width="1.71785" stroke-miterlimit="8" fill="none" fill-rule="evenodd"/><path d="M705 1306.22 779.196 1306C794.556 1306 807.008 1318.4 807.008 1333.7L806.885 1355.94 806.767 1384.3C806.767 1399.6 819.218 1412 834.579 1412L874 1411.78" stroke="#000000" stroke-width="1.71785" stroke-miterlimit="8" fill="none" fill-rule="evenodd"/><path d="M870.5 1360.5 1081.5 1360.5 1081.5 1466.5 870.5 1466.5Z" stroke="#000000" stroke-width="4.90814" stroke-miterlimit="8" fill="#FFFFFF" fill-rule="evenodd"/><path d="M870 1360.36 920.146 1410 1030.5 1410 1081 1360" stroke="#000000" stroke-width="1.71785" stroke-miterlimit="8" fill="none" fill-rule="evenodd"/><text font-family="Arial,Arial_MSFontService,sans-serif" font-weight="400" font-size="30" transform="matrix(1 0 0 1 936.483 1401)">Dw01</text><path d="M866 1412.31 823 1401 823 1423Z" fill-rule="evenodd"/><path d="M1237 1413.82 1193 1402 1193 1425Z" fill-rule="evenodd"/><path d="M1114.87 1383 1115 1300.84C1115 1285.46 1102.34 1273 1086.73 1273L1082 1273.22" stroke="#000000" stroke-width="1.71785" stroke-miterlimit="8" fill="none" fill-rule="evenodd"/><path d="M700 1274 884 1273" stroke="#000000" stroke-width="1.71785" stroke-miterlimit="8" fill="none" fill-rule="evenodd"/><path d="M870.5 1221.5 1081.5 1221.5 1081.5 1327.5 870.5 1327.5Z" stroke="#000000" stroke-width="4.90814" stroke-miterlimit="8" fill="#FFFFFF" fill-rule="evenodd"/><path d="M870 1221.35 920.146 1271 1030.5 1271 1081 1221" stroke="#000000" stroke-width="1.71785" stroke-miterlimit="8" fill="none" fill-rule="evenodd"/><text font-family="Arial,Arial_MSFontService,sans-serif" font-weight="400" font-size="30" transform="matrix(1 0 0 1 943.258 1262)">Dt01</text><path d="M866 1273.3 823 1262 823 1284Z" fill-rule="evenodd"/><path d="M668.135 1743C683.525 1743 696 1755.54 696 1771L696 1785C696 1800.46 683.525 1813 668.135 1813L233.866 1813C218.476 1813 206 1800.46 206 1785L206 1771C206 1755.54 218.476 1743 233.866 1743L668.135 1743Z" stroke="#000000" stroke-width="1.71785" stroke-miterlimit="8" fill="#FFFFFF" fill-rule="evenodd"/><path d="M1750.12 1743C1765.52 1743 1778 1755.54 1778 1771L1778 1785C1778 1800.47 1765.52 1813 1750.12 1813L1280.87 1813C1265.48 1813 1253 1800.47 1253 1785L1253 1771C1253 1755.54 1265.48 1743 1280.87 1743L1750.12 1743Z" stroke="#000000" stroke-width="1.71785" stroke-miterlimit="8" fill="#FFFFFF" fill-rule="evenodd"/><text font-family="Arial,Arial_MSFontService,sans-serif" font-weight="400" font-size="35" transform="matrix(1 0 0 1 220.58 1792)">NORMAAL EINDE CYCLUS</text><text font-family="Arial,Arial_MSFontService,sans-serif" font-weight="400" font-size="35" transform="matrix(1 0 0 1 1279.79 1791)">NORMAAL EINDE CYCLUS</text><path d="M1462.5 1430.5 1462.5 1545.5" stroke="#000000" stroke-width="4.90814" stroke-linecap="square" stroke-miterlimit="8" fill="none" fill-rule="evenodd"/><path d="M1462.27 1534.9 1482 1528 1462.27 1569 1442 1528Z" fill-rule="evenodd"/><path d="M487.5 1291.5 486.5 1722.5" stroke="#000000" stroke-width="4.90814" stroke-linecap="square" stroke-miterlimit="8" fill="none" fill-rule="evenodd"/><path d="M672.155 1221C687.532 1221 700 1233.54 700 1249L700 1333C700 1348.46 687.532 1361 672.155 1361L307.844 1361C292.466 1361 280 1348.46 280 1333L280 1249C280 1233.54 292.466 1221 307.844 1221L672.155 1221Z" stroke="#000000" stroke-width="1.71785" stroke-miterlimit="8" fill="#FFFFFF" fill-rule="evenodd"/><path d="M470 1528 501 1528 501 1547 470 1547Z" fill="#FFFFFF" fill-rule="evenodd"/><text font-family="Arial,Arial_MSFontService,sans-serif" font-weight="400" font-size="35" transform="matrix(1 0 0 1 308.58 1279)">Bepaal te verstrekken</text><text font-family="Arial,Arial_MSFontService,sans-serif" font-weight="400" font-size="35" transform="matrix(1 0 0 1 308.58 1314)">tabelregelwijziging</text><path d="M708.5 1306.5C708.5 1310.37 705.142 1313.5 701 1313.5 696.858 1313.5 693.5 1310.37 693.5 1306.5 693.5 1302.63 696.858 1299.5 701 1299.5 705.142 1299.5 708.5 1302.63 708.5 1306.5Z" stroke="#000000" stroke-width="1.22703" stroke-linecap="square" stroke-miterlimit="8" fill="#FFFFFF" fill-rule="evenodd"/><path d="M708.5 1274C708.5 1278.14 705.142 1281.5 701 1281.5 696.858 1281.5 693.5 1278.14 693.5 1274 693.5 1269.86 696.858 1266.5 701 1266.5 705.142 1266.5 708.5 1269.86 708.5 1274Z" stroke="#000000" stroke-width="1.22703" stroke-linecap="square" stroke-miterlimit="8" fill="#FFFFFF" fill-rule="evenodd"/><path d="M1746.11 1379C1761.51 1379 1774 1391.36 1774 1406.6L1774 1420.4C1774 1435.64 1761.51 1448 1746.11 1448L1280.9 1448C1265.49 1448 1253 1435.64 1253 1420.4L1253 1406.6C1253 1391.36 1265.49 1379 1280.9 1379L1746.11 1379Z" stroke="#000000" stroke-width="1.71785" stroke-miterlimit="8" fill="#FFFFFF" fill-rule="evenodd"/><text font-family="Arial,Arial_MSFontService,sans-serif" font-weight="400" font-size="35" transform="matrix(1 0 0 1 1281.91 1426)">Verwerk wijziging</text><path d="M1259.5 1414C1259.5 1418.14 1256.37 1421.5 1252.5 1421.5 1248.63 1421.5 1245.5 1418.14 1245.5 1414 1245.5 1409.86 1248.63 1406.5 1252.5 1406.5 1256.37 1406.5 1259.5 1409.86 1259.5 1414Z" stroke="#000000" stroke-width="1.22703" stroke-linecap="square" stroke-miterlimit="8" fill="#FFFFFF" fill-rule="evenodd"/><path d="M1462.5 1611.5 1462.5 1726.5" stroke="#000000" stroke-width="4.90814" stroke-linecap="square" stroke-miterlimit="8" fill="none" fill-rule="evenodd"/><path d="M1462.27 1709.06 1482 1702 1462.27 1744 1442 1702Z" fill-rule="evenodd"/><path d="M1044 1604 1475 1605" stroke="#000000" stroke-width="1.71785" stroke-miterlimit="8" fill="none" fill-rule="evenodd"/><path d="M1113 1604.3 1157 1593 1157 1615Z" fill-rule="evenodd"/><path d="M669 1602 887 1602" stroke="#000000" stroke-width="1.71785" stroke-miterlimit="8" fill="none" fill-rule="evenodd"/><path d="M792 1602.31 835 1591 835 1613Z" fill-rule="evenodd"/><path d="M869.5 1558.5 1081.5 1558.5 1081.5 1664.5 869.5 1664.5Z" stroke="#000000" stroke-width="4.90814" stroke-miterlimit="8" fill="#FFFFFF" fill-rule="evenodd"/><path d="M1081 1558.36 1030.85 1608 920.497 1608 870 1558" stroke="#000000" stroke-width="1.71785" stroke-miterlimit="8" fill="none" fill-rule="evenodd"/><text font-family="Arial,Arial_MSFontService,sans-serif" font-weight="400" font-size="30" transform="matrix(1 0 0 1 949.161 1598)">Null</text><path d="M1746.11 1569C1761.51 1569 1774 1581.54 1774 1597L1774 1611C1774 1626.46 1761.51 1639 1746.11 1639L1280.9 1639C1265.49 1639 1253 1626.46 1253 1611L1253 1597C1253 1581.54 1265.49 1569 1280.9 1569L1746.11 1569Z" stroke="#000000" stroke-width="1.71785" stroke-miterlimit="8" fill="#FFFFFF" fill-rule="evenodd"/><text font-family="Arial,Arial_MSFontService,sans-serif" font-weight="400" font-size="35" transform="matrix(1 0 0 1 1281.91 1617)">Verstuur verwerkbevestiging</text><path d="M1259.5 1605C1259.5 1609.14 1256.37 1612.5 1252.5 1612.5 1248.63 1612.5 1245.5 1609.14 1245.5 1605 1245.5 1600.86 1248.63 1597.5 1252.5 1597.5 1256.37 1597.5 1259.5 1600.86 1259.5 1605Z" stroke="#000000" stroke-width="1.22703" stroke-linecap="square" stroke-miterlimit="8" fill="#FFFFFF" fill-rule="evenodd"/><path d="M486.767 1709.06 506 1702 486.767 1744 467 1702Z" fill-rule="evenodd"/><path d="M104.213 1047.5C69.4999 1047.5 69.4999 1082.06 69.4999 1082.06L69.4999 1116.94C69.4999 1116.94 69.4999 1151.5 104.213 1151.5 141.774 1151.5 627.38 1151.5 661.787 1151.5 696.5 1151.5 696.5 1116.94 696.5 1116.94L696.434 1082.02C696.434 1082.02 696.5 1047.5 661.787 1047.5 627.052 1047.5 138.927 1047.5 104.213 1047.5Z" stroke="#000000" stroke-width="1.22703" stroke-miterlimit="8" fill="#FFFFFF" fill-rule="evenodd"/><path d="M1286.21 1058.5C1251.5 1058.5 1251.5 1093.06 1251.5 1093.06L1251.5 1127.94C1251.5 1127.94 1251.5 1162.5 1286.21 1162.5 1323.77 1162.5 1809.38 1162.5 1843.79 1162.5 1878.5 1162.5 1878.5 1127.94 1878.5 1127.94L1878.43 1093.02C1878.43 1093.02 1878.5 1058.5 1843.79 1058.5 1809.05 1058.5 1320.93 1058.5 1286.21 1058.5Z" stroke="#000000" stroke-width="1.22703" stroke-miterlimit="8" fill="#FFFFFF" fill-rule="evenodd"/><text font-family="Arial,Arial_MSFontService,sans-serif" font-weight="400" font-size="39" transform="matrix(1 0 0 1 1334.38 1104)">Gemeente, RNI, BRP</text><text font-family="Arial,Arial_MSFontService,sans-serif" font-weight="400" font-size="39" transform="matrix(1 0 0 1 1710.22 1104)">-</text><text font-family="Arial,Arial_MSFontService,sans-serif" font-weight="400" font-size="39" transform="matrix(1 0 0 1 1723.39 1104)">V, </text><text font-family="Arial,Arial_MSFontService,sans-serif" font-weight="400" font-size="39" transform="matrix(1 0 0 1 1371.69 1144)">BV BSN en afnemer</text><text font-family="Arial,Arial_MSFontService,sans-serif" font-weight="400" font-size="39" transform="matrix(1 0 0 1 334.532 1114)">RvIG</text><path d="M673.09 1540C688.505 1540 701 1548.24 701 1558.4L701 1613.6C701 1623.76 688.505 1632 673.09 1632L307.912 1632C292.498 1632 280 1623.76 280 1613.6L280 1558.4C280 1548.24 292.498 1540 307.912 1540L673.09 1540Z" stroke="#000000" stroke-width="1.71785" stroke-miterlimit="8" fill="#FFFFFF" fill-rule="evenodd"/><text font-family="Arial,Arial_MSFontService,sans-serif" font-weight="400" font-size="35" transform="matrix(1 0 0 1 301.141 1586)">Wacht op antwoord</text><path d="M488.233 1658 488 1629.77C488 1614.54 511.581 1602.18 540.667 1602.18L594.201 1602 703 1602.22" stroke="#000000" stroke-width="2.29167" stroke-miterlimit="8" stroke-dasharray="12.8906 8.59375" fill="none" fill-rule="evenodd"/><path d="M549.146 1623C556.798 1623 563 1629.23 563 1636.92L563 1644.08C563 1651.77 556.798 1658 549.146 1658L421.858 1658C414.202 1658 408 1651.77 408 1644.08L408 1636.92C408 1629.23 414.202 1623 421.858 1623L549.146 1623Z" stroke="#000000" stroke-width="1.71785" stroke-miterlimit="8" fill="#FFFFFF" fill-rule="evenodd"/><text font-family="Arial,Arial_MSFontService,sans-serif" font-weight="400" font-size="24" transform="matrix(1 0 0 1 463.365 1650)">Null</text><path d="M710.5 1603C710.5 1607.14 707.366 1610.5 703.5 1610.5 699.634 1610.5 696.5 1607.14 696.5 1603 696.5 1598.86 699.634 1595.5 703.5 1595.5 707.366 1595.5 710.5 1598.86 710.5 1603Z" stroke="#000000" stroke-width="1.22703" stroke-linecap="square" stroke-miterlimit="8" fill="#FFFFFF" fill-rule="evenodd"/><path d="M486.276 1505.06 506 1498 486.276 1540 466 1498Z" fill-rule="evenodd"/></g></svg>