<svg width="1950" height="2174" xmlns="http://www.w3.org/2000/svg" xmlns:xlink="http://www.w3.org/1999/xlink" xml:space="preserve" overflow="hidden"><g transform="translate(6 -343)"><path d="M885.337 389.003C885.337 389.003 1845.09 389.428 1893.97 389.003 1942.85 388.578 1942 438.803 1942 438.803 1942 438.803 1941.57 484.772 1893.97 485.623 1846.36 486.473 932.947 485.623 885.337 485.623 837.307 485.623 839.008 433.695 839.008 433.695 839.008 433.695 837.307 389.003 885.337 389.003Z" stroke="#000000" stroke-width="1.69836" stroke-miterlimit="8" fill-rule="evenodd"/><path d="M863.459 372.003C863.459 372.003 1826.66 372.428 1875.54 372.003 1924.42 371.578 1924 420.525 1924 420.525 1924 420.525 1923.15 467.773 1875.54 468.622 1827.93 469.472 911.072 468.622 863.459 468.622 815.427 468.622 815 420.525 815 420.525 815 420.525 815.427 372.003 863.459 372.003Z" stroke="#000000" stroke-width="2.37756" stroke-miterlimit="8" fill="#FFFFFF" fill-rule="evenodd"/><text font-family="Arial,Arial_MSFontService,sans-serif" font-weight="400" font-size="54" transform="matrix(1 0 0 1 863.056 440)">01 Persoon</text><path d="M885.337 534.003C885.337 534.003 1845.09 534.427 1893.97 534.003 1942.85 533.578 1942 582.098 1942 582.098 1942 582.098 1941.57 629.769 1893.97 630.621 1846.36 631.474 932.947 630.621 885.337 630.621 837.307 630.621 839.008 582.098 839.008 582.098 839.008 582.098 837.307 534.003 885.337 534.003Z" stroke="#000000" stroke-width="1.69836" stroke-miterlimit="8" fill-rule="evenodd"/><path d="M863.459 517.003C863.459 517.003 1826.66 517.428 1875.54 517.003 1924.42 516.578 1924 565.525 1924 565.525 1924 565.525 1923.15 612.773 1875.54 613.622 1827.93 614.472 911.072 613.622 863.459 613.622 815.427 613.622 815 565.525 815 565.525 815 565.525 815.427 517.003 863.459 517.003Z" stroke="#000000" stroke-width="2.37756" stroke-miterlimit="8" fill="#BFBFBF" fill-rule="evenodd"/><text font-family="Arial,Arial_MSFontService,sans-serif" font-weight="400" font-size="54" transform="matrix(1 0 0 1 863.056 584)">02 Ouder1</text><path d="M885.068 679.002C885.068 679.002 1845.59 679.428 1894.5 679.002 1943.42 678.578 1943 728.8 1943 728.8 1943 728.8 1942.15 774.768 1894.5 775.621 1846.86 776.474 932.716 775.621 885.068 775.621 837 775.621 837 727.098 837 727.098 837 727.098 837 679.002 885.068 679.002Z" stroke="#000000" stroke-width="1.69836" stroke-miterlimit="8" fill-rule="evenodd"/><path d="M863.459 662.003C863.459 662.003 1826.66 662.427 1875.54 662.003 1924.42 661.579 1924 710.001 1924 710.001 1924 710.001 1924 758 1875.54 758 1827.93 758 911.072 758 863.459 758 815.427 758 815 710.001 815 710.001 815 710.001 815.427 662.003 863.459 662.003Z" stroke="#000000" stroke-width="2.37756" stroke-miterlimit="8" fill="#BFBFBF" fill-rule="evenodd"/><text font-family="Arial,Arial_MSFontService,sans-serif" font-weight="400" font-size="54" transform="matrix(1 0 0 1 863.056 729)">03 Ouder2</text><path d="M885.043 823.003C885.043 823.003 1845.06 823.428 1893.96 823.003 1942.85 822.578 1942 871.098 1942 871.098 1942 871.098 1941.57 918.769 1893.96 919.621 1846.34 920.474 932.667 919.621 885.043 919.621 837 919.621 837 872.801 837 872.801 837 872.801 837 823.003 885.043 823.003Z" stroke="#000000" stroke-width="1.69836" stroke-miterlimit="8" fill-rule="evenodd"/><path d="M863.459 807.003C863.459 807.003 1826.66 807.424 1875.54 807.003 1924.42 806.582 1924 854.645 1924 854.645 1924 854.645 1923.15 901.866 1875.54 902.711 1827.93 903.552 911.072 902.29 863.459 902.29 815.427 902.29 815 854.648 815 854.648 815 854.648 815.427 807.003 863.459 807.003Z" stroke="#000000" stroke-width="2.37756" stroke-miterlimit="8" fill="#FFFFFF" fill-rule="evenodd"/><text font-family="Arial,Arial_MSFontService,sans-serif" font-weight="400" font-size="54" transform="matrix(1 0 0 1 863.056 877)">04 Nationaliteit</text><path d="M885.043 968.003C885.043 968.003 1845.06 968.428 1893.96 968.003 1942.85 967.578 1942 1017.8 1942 1017.8 1942 1017.8 1941.57 1063.77 1893.96 1064.62 1846.34 1065.47 932.667 1064.62 885.043 1064.62 837 1064.62 837 1016.1 837 1016.1 837 1016.1 837 968.003 885.043 968.003Z" stroke="#000000" stroke-width="1.69836" stroke-miterlimit="8" fill-rule="evenodd"/><path d="M863.459 951.003C863.459 951.003 1826.66 951.428 1875.54 951.003 1924.42 950.578 1924 999.099 1924 999.099 1924 999.099 1923.15 1046.77 1875.54 1047.62 1827.93 1048.47 911.072 1047.62 863.459 1047.62 815.427 1047.62 815 999.099 815 999.099 815 999.099 815.427 951.003 863.459 951.003Z" stroke="#000000" stroke-width="2.37756" stroke-miterlimit="8" fill="#BFBFBF" fill-rule="evenodd"/><text font-family="Arial,Arial_MSFontService,sans-serif" font-weight="400" font-size="54" transform="matrix(1 0 0 1 863.056 1019)">05 Huwelijk/geregistreerd partnerschap</text><path d="M886.744 1112C886.744 1112 1845.06 1112.43 1893.96 1112 1942.85 1111.57 1942 1160.45 1942 1160.45 1942 1160.45 1941.57 1206.76 1893.96 1207.62 1846.34 1208.48 932.667 1207.62 885.043 1207.62 837 1207.62 837 1162.17 837 1162.17 837 1162.17 838.701 1112 886.744 1112Z" stroke="#000000" stroke-width="1.69836" stroke-miterlimit="8" fill-rule="evenodd"/><path d="M863.459 1096C863.459 1096 1826.66 1096.43 1875.54 1096 1924.42 1095.58 1924 1144.53 1924 1144.53 1924 1144.53 1923.15 1191.77 1875.54 1192.62 1827.93 1193.47 911.072 1192.62 863.459 1192.62 815.427 1192.62 815 1144.1 815 1144.1 815 1144.1 815.427 1096 863.459 1096Z" stroke="#000000" stroke-width="2.37756" stroke-miterlimit="8" fill="#FFFFFF" fill-rule="evenodd"/><text font-family="Arial,Arial_MSFontService,sans-serif" font-weight="400" font-size="54" transform="matrix(1 0 0 1 863.056 1165)">06 Overlijden</text><path d="M863.459 1240C863.459 1240 1826.66 1240.43 1875.54 1240 1924.42 1239.58 1924 1288.53 1924 1288.53 1924 1288.53 1923.15 1335.77 1875.54 1336.62 1827.93 1337.47 911.072 1336.62 863.459 1336.62 815.427 1336.62 815 1288.53 815 1288.53 815 1288.53 815.427 1240 863.459 1240Z" stroke="#000000" stroke-width="2.37756" stroke-miterlimit="8" fill="#FFFFFF" fill-rule="evenodd"/><text font-family="Arial,Arial_MSFontService,sans-serif" font-weight="400" font-size="54" transform="matrix(1 0 0 1 863.056 1309)">07 Inschrijving</text><path d="M885.043 1402C885.043 1402 1845.06 1402.43 1893.96 1402 1942.85 1401.58 1942 1450.1 1942 1450.1 1942 1450.1 1941.57 1497.77 1893.96 1498.62 1846.34 1499.47 932.667 1498.62 885.043 1498.62 837 1498.62 837 1451.8 837 1451.8 837 1451.8 837 1402 885.043 1402Z" stroke="#000000" stroke-width="1.69836" stroke-miterlimit="8" fill-rule="evenodd"/><path d="M863.459 1385C863.459 1385 1826.66 1385.43 1875.54 1385 1924.42 1384.58 1924 1433.53 1924 1433.53 1924 1433.53 1923.15 1480.77 1875.54 1481.62 1827.93 1482.47 911.072 1481.62 863.459 1481.62 815.427 1481.62 815 1433.53 815 1433.53 815 1433.53 815.427 1385 863.459 1385Z" stroke="#000000" stroke-width="2.37756" stroke-miterlimit="8" fill="#FFFFFF" fill-rule="evenodd"/><text font-family="Arial,Arial_MSFontService,sans-serif" font-weight="400" font-size="54" transform="matrix(1 0 0 1 863.056 1454)">08 Verblijfplaats</text><path d="M885.467 1547C885.467 1547 1845.06 1547.43 1893.96 1547 1942.85 1546.58 1942 1596.8 1942 1596.8 1942 1596.8 1941.57 1642.77 1893.96 1643.62 1846.34 1644.47 932.667 1643.62 885.043 1643.62 837 1643.62 837 1596.8 837 1596.8 837 1596.8 837.425 1547 885.467 1547Z" stroke="#000000" stroke-width="1.69836" stroke-miterlimit="8" fill-rule="evenodd"/><path d="M863.459 1530C863.459 1530 1826.66 1530.85 1875.54 1530.42 1924.42 1530 1924 1578.52 1924 1578.52 1924 1578.52 1923.15 1625.77 1875.54 1626.62 1827.93 1627.47 911.072 1626.62 863.459 1626.62 815.427 1626.62 815 1578.52 815 1578.52 815 1578.52 815.427 1530 863.459 1530Z" stroke="#000000" stroke-width="2.37756" stroke-miterlimit="8" fill="#BFBFBF" fill-rule="evenodd"/><text font-family="Arial,Arial_MSFontService,sans-serif" font-weight="400" font-size="54" transform="matrix(1 0 0 1 863.056 1600)">09 Kind</text><path d="M885.043 1691C885.043 1691 1845.06 1691.43 1893.96 1691 1942.85 1690.58 1942 1739.1 1942 1739.1 1942 1739.1 1941.57 1786.77 1893.96 1787.62 1846.34 1788.47 932.667 1787.62 885.043 1787.62 837 1787.62 837 1739.1 837 1739.1 837 1739.1 837 1691 885.043 1691Z" stroke="#000000" stroke-width="1.69836" stroke-miterlimit="8" fill-rule="evenodd"/><path d="M863.459 1675C863.459 1675 1826.66 1675.42 1875.54 1675 1924.42 1674.58 1924 1722.64 1924 1722.64 1924 1722.64 1923.15 1769.87 1875.54 1770.71 1827.93 1771.55 911.072 1770.29 863.459 1770.29 815.427 1770.29 815 1722.65 815 1722.65 815 1722.65 815.427 1675 863.459 1675Z" stroke="#000000" stroke-width="2.37756" stroke-miterlimit="8" fill="#FFFFFF" fill-rule="evenodd"/><text font-family="Arial,Arial_MSFontService,sans-serif" font-weight="400" font-size="54" transform="matrix(1 0 0 1 863.056 1743)">10 Verblijfstitel</text><path d="M885.043 1836C885.043 1836 1845.06 1836.43 1893.96 1836 1942.85 1835.58 1942 1884.1 1942 1884.1 1942 1884.1 1941.57 1931.77 1893.96 1932.62 1846.34 1933.47 932.667 1932.62 885.043 1932.62 837 1932.62 837 1882.4 837 1882.4 837 1882.4 837 1836 885.043 1836Z" stroke="#000000" stroke-width="1.69836" stroke-miterlimit="8" fill-rule="evenodd"/><path d="M863.459 1819C863.459 1819 1826.66 1819.43 1875.54 1819 1924.42 1818.58 1924 1867.1 1924 1867.1 1924 1867.1 1923.15 1914.77 1875.54 1915.62 1827.93 1916.47 911.072 1915.62 863.459 1915.62 815.427 1915.62 815 1867.1 815 1867.1 815 1867.1 815.427 1819 863.459 1819Z" stroke="#000000" stroke-width="2.37756" stroke-miterlimit="8" fill="#BFBFBF" fill-rule="evenodd"/><text font-family="Arial,Arial_MSFontService,sans-serif" font-weight="400" font-size="54" transform="matrix(1 0 0 1 863.056 1888)">11 Gezagsverhouding</text><path d="M863.459 1964C863.459 1964 1826.66 1964.43 1875.54 1964 1924.42 1963.58 1924 2012.1 1924 2012.1 1924 2012.1 1923.15 2059.77 1875.54 2060.62 1827.93 2061.47 911.072 2060.62 863.459 2060.62 815.427 2060.62 815 2012.1 815 2012.1 815 2012.1 815.427 1964 863.459 1964Z" stroke="#000000" stroke-width="2.37756" stroke-miterlimit="8" fill="#BFBFBF" fill-rule="evenodd"/><text font-family="Arial,Arial_MSFontService,sans-serif" font-weight="400" font-size="54" transform="matrix(1 0 0 1 863.056 2033)">12 Reisdocument</text><path d="M863.459 2108C863.459 2108 1826.66 2108.43 1875.54 2108 1924.42 2107.58 1924 2156.53 1924 2156.53 1924 2156.53 1923.15 2203.77 1875.54 2204.62 1827.93 2205.47 911.072 2204.62 863.459 2204.62 815.427 2204.62 815 2156.1 815 2156.1 815 2156.1 815.427 2108 863.459 2108Z" stroke="#000000" stroke-width="2.37756" stroke-miterlimit="8" fill="#BFBFBF" fill-rule="evenodd"/><text font-family="Arial,Arial_MSFontService,sans-serif" font-weight="400" font-size="54" transform="matrix(1 0 0 1 863.056 2177)">13 Kiesrecht</text><path d="M-5.00016 1240 477 1240 477 1336-5.00016 1336Z" stroke="#000000" stroke-width="2.37756" stroke-miterlimit="8" fill="#FFFFFF" fill-rule="evenodd"/><text font-family="Arial,Arial_MSFontService,sans-serif" font-weight="400" font-size="49" transform="matrix(1 0 0 1 705.213 408)">1</text><text font-family="Arial,Arial_MSFontService,sans-serif" font-weight="400" font-size="54" transform="matrix(1 0 0 1 43.5344 1305)">Persoonslijst</text><path d="M622.5 566.5 815.5 566.5" stroke="#000000" stroke-width="3.39672" stroke-miterlimit="8" fill="none" fill-rule="evenodd"/><text font-family="Arial,Arial_MSFontService,sans-serif" font-weight="400" font-size="49" transform="matrix(1 0 0 1 705.213 552)">1</text><path d="M622.5 710.5 815.5 710.5" stroke="#000000" stroke-width="3.39672" stroke-miterlimit="8" fill="none" fill-rule="evenodd"/><text font-family="Arial,Arial_MSFontService,sans-serif" font-weight="400" font-size="49" transform="matrix(1 0 0 1 705.213 697)">1</text><path d="M622.5 855.5 815.5 855.5" stroke="#000000" stroke-width="3.39672" stroke-miterlimit="8" fill="none" fill-rule="evenodd"/><text font-family="Arial,Arial_MSFontService,sans-serif" font-weight="400" font-size="49" transform="matrix(1 0 0 1 676.876 841)">0, n</text><path d="M622.5 999.5 815.5 999.5" stroke="#000000" stroke-width="3.39672" stroke-miterlimit="8" fill="none" fill-rule="evenodd"/><text font-family="Arial,Arial_MSFontService,sans-serif" font-weight="400" font-size="49" transform="matrix(1 0 0 1 676.876 986)">0, n</text><path d="M622.5 1144.5 815.5 1144.5" stroke="#000000" stroke-width="3.39672" stroke-miterlimit="8" fill="none" fill-rule="evenodd"/><text font-family="Arial,Arial_MSFontService,sans-serif" font-weight="400" font-size="49" transform="matrix(1 0 0 1 676.876 1131)">0, 1</text><path d="M622.5 1430.5 815.5 1430.5" stroke="#000000" stroke-width="3.39672" stroke-miterlimit="8" fill="none" fill-rule="evenodd"/><text font-family="Arial,Arial_MSFontService,sans-serif" font-weight="400" font-size="49" transform="matrix(1 0 0 1 705.213 1277)">1</text><path d="M477.5 1288.5 622.354 1288.5 814.5 1288.5" stroke="#000000" stroke-width="3.39672" stroke-miterlimit="8" fill="none" fill-rule="evenodd"/><text font-family="Arial,Arial_MSFontService,sans-serif" font-weight="400" font-size="49" transform="matrix(1 0 0 1 705.213 1420)">1</text><path d="M622.5 1578.5 815.5 1578.5" stroke="#000000" stroke-width="3.39672" stroke-miterlimit="8" fill="none" fill-rule="evenodd"/><text font-family="Arial,Arial_MSFontService,sans-serif" font-weight="400" font-size="49" transform="matrix(1 0 0 1 676.876 1564)">0, n</text><path d="M622.5 1723.5 815.5 1723.5" stroke="#000000" stroke-width="3.39672" stroke-miterlimit="8" fill="none" fill-rule="evenodd"/><text font-family="Arial,Arial_MSFontService,sans-serif" font-weight="400" font-size="49" transform="matrix(1 0 0 1 676.876 1709)">0, 1</text><path d="M622.5 1867.5 815.5 1867.5" stroke="#000000" stroke-width="3.39672" stroke-miterlimit="8" fill="none" fill-rule="evenodd"/><text font-family="Arial,Arial_MSFontService,sans-serif" font-weight="400" font-size="49" transform="matrix(1 0 0 1 676.876 1853)">0, 1</text><path d="M622.5 2012.5 815.5 2012.5" stroke="#000000" stroke-width="3.39672" stroke-miterlimit="8" fill="none" fill-rule="evenodd"/><text font-family="Arial,Arial_MSFontService,sans-serif" font-weight="400" font-size="49" transform="matrix(1 0 0 1 676.876 1998)">0, n</text><text font-family="Arial,Arial_MSFontService,sans-serif" font-weight="400" font-size="49" transform="matrix(1 0 0 1 676.876 2144)">0, 1</text><path d="M815.5 421.5 622.5 421.5 622.5 2451.5 815.5 2451.5" stroke="#000000" stroke-width="3.39672" stroke-miterlimit="8" fill="none" fill-rule="evenodd"/><path d="M885.043 2272C885.043 2272 1845.06 2272.43 1893.96 2272 1942.85 2271.58 1942 2320.1 1942 2320.1 1942 2320.1 1941.57 2367.77 1893.96 2368.62 1846.34 2369.47 932.667 2368.62 885.043 2368.62 837 2368.62 837 2321.8 837 2321.8 837 2321.8 837 2272 885.043 2272Z" stroke="#000000" stroke-width="1.69836" stroke-miterlimit="8" fill-rule="evenodd"/><path d="M863.459 2255C863.459 2255 1826.66 2255.43 1875.54 2255 1924.42 2254.58 1924 2303.53 1924 2303.53 1924 2303.53 1923.15 2350.77 1875.54 2351.62 1827.93 2352.47 911.072 2351.62 863.459 2351.62 815.427 2351.62 815 2303.53 815 2303.53 815 2303.53 815.427 2255 863.459 2255Z" stroke="#000000" stroke-width="2.37756" stroke-miterlimit="8" fill="#FFFFFF" fill-rule="evenodd"/><text font-family="Arial,Arial_MSFontService,sans-serif" font-weight="400" font-size="54" transform="matrix(1 0 0 1 863.056 2324)">16 Tijdelijk verblijfadres</text><path d="M622.5 2302.5 815.5 2302.5" stroke="#000000" stroke-width="3.39672" stroke-miterlimit="8" fill="none" fill-rule="evenodd"/><text font-family="Arial,Arial_MSFontService,sans-serif" font-weight="400" font-size="49" transform="matrix(1 0 0 1 676.876 2290)">0, 1</text><path d="M862.459 2403C862.459 2403 1825.66 2403.43 1874.54 2403 1923.42 2402.58 1923 2451.53 1923 2451.53 1923 2451.53 1922.15 2498.77 1874.54 2499.62 1826.93 2500.47 910.072 2499.62 862.459 2499.62 814.427 2499.62 814 2451.53 814 2451.53 814 2451.53 814.427 2403 862.459 2403Z" stroke="#000000" stroke-width="2.37756" stroke-miterlimit="8" fill="#FFFFFF" fill-rule="evenodd"/><text font-family="Arial,Arial_MSFontService,sans-serif" font-weight="400" font-size="54" transform="matrix(1 0 0 1 862.207 2472)">17 Contactgegevens</text><path d="M622.5 2157.5 815.5 2157.5" stroke="#000000" stroke-width="3.39672" stroke-miterlimit="8" fill="none" fill-rule="evenodd"/><text font-family="Arial,Arial_MSFontService,sans-serif" font-weight="400" font-size="49" transform="matrix(1 0 0 1 676.876 2438)">0, 1</text></g></svg>