<svg width="1321.37" height="1550.77" viewBox="0 0 1321.37 1550.77" xmlns="http://www.w3.org/2000/svg" xmlns:xlink="http://www.w3.org/1999/xlink" id="svg2" overflow="hidden"><defs id="defs6"></defs><g id="g10" transform="matrix(1.33333 0 0 -1.33333 0 1550.77)"><g id="g12" transform="scale(0.1 0.1)"><path d="M3891.88 4.39844 3891.88 11626.4 4.375 11626.4 4.375 4.39844 3891.88 4.39844" id="path14" fill="#E9E9E9"/><path d="M3891.88 4.39844 3891.88 11626.4 4.375 11626.4 4.375 4.39844Z" id="path16" stroke="#231F20" stroke-width="8.75" fill="none"/><path d="M1982.04 2082.58 1982.04 1908.19 469.512 1908.19" id="path18" stroke="#231F20" stroke-width="25" fill="none"/><path d="M1982.04 2968.42 1982.04 2794 432.012 2794" id="path20" stroke="#231F20" stroke-width="25" fill="none"/><path d="M4414.38 1191.5 3363.73 1186.1C3285.45 1186.1 3222 1249.6 3222 1327.9L3223.15 2237.43" id="path22" stroke="#231F20" stroke-width="8.75" fill="none"/><path d="M4414.38 1723.01 2389.32 1717.64C2311.04 1717.64 2247.59 1781.08 2247.59 1859.4L2248.75 2237.43" id="path24" stroke="#231F20" stroke-width="8.75" fill="none"/><path d="M2779.95 2264.61 2779.95 969.902" id="path26" stroke="#231F20" stroke-width="25" stroke-linecap="square" fill="none"/><path d="M9905.93 4.39844 9905.93 11626.4 5855.93 11626.4 5855.93 4.39844 9905.93 4.39844" id="path28" fill="#E9E9E9"/><path d="M9905.93 4.39844 9905.93 11626.4 5855.93 11626.4 5855.93 4.39844Z" id="path30" stroke="#231F20" stroke-width="8.75" fill="none"/><path d="M9160.01 5658.72 9160.01 5307.16" id="path32" stroke="#231F20" stroke-width="25" stroke-linecap="square" fill="none"/><path d="M8097.03 5658.72 8097.03 5307.16 9519.29 5307.16" id="path34" stroke="#231F20" stroke-width="25" stroke-linecap="square" fill="none"/><path d="M4088.83 5026.27 4088.24 5171.29C4088.24 5249.56 4151.69 5313.01 4229.96 5313.01L4430.84 5311.86" id="path36" stroke="#231F20" stroke-width="8.75" fill="none"/><path d="M4088.83 5912.09 4088.24 6057.11C4088.24 6135.38 4151.69 6198.84 4229.96 6198.84L4430.84 6197.69" id="path38" stroke="#231F20" stroke-width="8.75" fill="none"/><path d="M8097.03 7784.7 8097.03 7433.15 9519.29 7433.15" id="path40" stroke="#231F20" stroke-width="25" stroke-linecap="square" fill="none"/><path d="M9160.01 7784.7 9160.01 7433.15" id="path42" stroke="#231F20" stroke-width="25" stroke-linecap="square" fill="none"/><path d="M8810.65 7872.86 8810.65 6541.73 8811.79 6518C8811.79 6439.73 8748.34 6376.28 8670.07 6376.28L8564.49 6375.91 8475.91 6375.91 5299.25 6381.26" id="path44" stroke="#231F20" stroke-width="8.75" fill="none"/><path d="M8810.65 5746.87 8810.65 4947.24 8811.79 4923.52C8811.79 4845.25 8748.34 4781.8 8670.07 4781.8L8564.49 4781.43 8475.91 4781.43 5299.25 4786.78" id="path46" stroke="#231F20" stroke-width="8.75" fill="none"/><path d="M7747.63 5746.87 7747.63 5478.74 7748.78 5455.01C7748.78 5376.74 7685.33 5313.29 7607.08 5313.29L7501.5 5312.92 5299.25 5318.27" id="path48" stroke="#231F20" stroke-width="8.75" fill="none"/><path d="M3542.51 3489.17 3947.73 3488C4026.01 3488 4089.46 3551.47 4089.46 3629.72L4088.83 4340.6 4088.83 4475.93 4088.24 4443.8C4088.24 4522.08 4151.69 4585.53 4229.96 4585.53L4430.84 4584.4" id="path50" stroke="#231F20" stroke-width="8.75" fill="none"/><path d="M2514.19 10266.3 2514.19 3795.62" id="path52" stroke="#231F20" stroke-width="25" stroke-linecap="square" fill="none"/><path d="M6943.32 10354.9 6943.32 9571.79" id="path54" stroke="#231F20" stroke-width="25" stroke-linecap="square" fill="none"/><path d="M7747.63 7872.86 7747.63 7073.23 7748.78 7049.5C7748.78 6971.22 7685.33 6907.77 7607.08 6907.77L7501.5 6907.41 5299.25 6912.75" id="path56" stroke="#231F20" stroke-width="8.75" fill="none"/><path d="M6943.36 6032.02 6944.51 6410.08C6944.51 6488.35 6881.06 6551.81 6802.79 6551.81L6521.68 6550.73 6468.95 6552.38 6291.77 6552.38C6213.48 6552.38 6150.03 6615.83 6150.03 6694.1L6150.03 8268.44C6150.03 8346.71 6213.48 8410.17 6291.77 8410.17L6474.81 8410.02 6624.68 8410.17 7777.01 8409.34C7855.28 8409.34 7918.73 8472.8 7918.73 8551.07L7917.58 8929.13" id="path58" stroke="#231F20" stroke-width="25" fill="none"/><path d="M6943.32 5811.05 6943.32 4604.9" id="path60" stroke="#231F20" stroke-width="25" stroke-linecap="square" fill="none"/><path d="M7122.63 7784.7 7122.63 7433.15 8544.9 7433.15" id="path62" stroke="#231F20" stroke-width="25" stroke-linecap="square" fill="none"/><path d="M5299.25 7444.25 6438.51 7438.9 6625.56 7439.85C6703.86 7439.85 6767.29 7503.29 6767.29 7581.58L6766.15 7782.47 6766.15 7696.3" id="path64" stroke="#231F20" stroke-width="8.75" fill="none"/><path d="M7745.07 10261.1 7746.23 9883.1C7746.23 9804.8 7682.77 9741.36 7604.5 9741.36L5448.98 9743.25" id="path66" stroke="#231F20" stroke-width="8.75" fill="none"/><path d="M8097.03 10157.2 8097.03 9805.65 9519.29 9805.65" id="path68" stroke="#231F20" stroke-width="25" stroke-linecap="square" fill="none"/><path d="M5576.83 9742.48 5798.71 9800.29 5798.71 9687.79Z" id="path70" fill="#231F20"/><path d="M5492.78 9463.2 5492.78 10000.7 4417.78 10000.7 4417.78 9463.2 5492.78 9463.2" id="path72" fill="#FFFFFF"/><path d="M5492.78 9463.2 5492.78 10000.7 4417.78 10000.7 4417.78 9463.2Z" id="path74" stroke="#231F20" stroke-width="25" fill="none"/><path d="M4417.78 10000.7 4672.83 9745.69 5234.14 9745.69 5490.97 10002.5" id="path76" stroke="#231F20" stroke-width="8.75" fill="none"/><path d="M5307.01 10452.6 6388.22 10452.6" id="path78" stroke="#231F20" stroke-width="8.75" fill="none"/><path d="M5807.04 10453.6 5585.16 10511.4 5585.16 10398.9Z" id="path80" fill="#231F20"/><path d="M3429.03 10452.6 4439.38 10452.6" id="path82" stroke="#231F20" stroke-width="8.75" fill="none"/><path d="M4212.55 10453.6 3990.69 10511.4 3990.69 10398.9Z" id="path84" fill="#231F20"/><g id="g86" transform="scale(10 10)"><text id="text92" fill="#231F20" font-family="Arial" font-weight="400" font-size="15" transform="matrix(1 0 0 -1 479.98 980.13)"><tspan x="0 9.52257 14.0501 22.7523" y="0">Tf01</tspan><tspan x="-16.368 -5.08546 3.70678 12.4991 21.2914 25.9088 31.6763 42.1384" y="25">Code "A"</tspan></text></g><path d="M8980.72 8962.53 8980.72 8287.88" id="path94" stroke="#231F20" stroke-width="25" stroke-linecap="square" fill="none"/><path d="M9425.83 9473.15C9504.11 9473.15 9567.55 9409.7 9567.55 9331.43L9567.55 9083.41C9567.55 9005.14 9504.11 8941.68 9425.83 8941.68L6508.57 8941.68C6430.28 8941.68 6366.85 9005.14 6366.85 9083.41L6366.85 9331.43C6366.85 9409.7 6430.28 9473.15 6508.57 9473.15L9425.83 9473.15" id="path96" fill="#FFFFFF"/><path d="M9425.83 9473.15C9504.11 9473.15 9567.55 9409.7 9567.55 9331.43L9567.55 9083.41C9567.55 9005.14 9504.11 8941.68 9425.83 8941.68L6508.57 8941.68C6430.28 8941.68 6366.85 9005.14 6366.85 9083.41L6366.85 9331.43C6366.85 9409.7 6430.28 9473.15 6508.57 9473.15Z" id="path98" stroke="#231F20" stroke-width="8.75" fill="none"/><g id="g100" transform="scale(10 10)"><text id="text106" fill="#231F20" font-family="Arial" font-weight="400" font-size="17.5" transform="matrix(1 0 0 -1 641.392 924.479)"><tspan x="0 11.1447 21.3325 31.5202 40.7251 46.0422 56.2299 66.4176 77.0518 89.1792 99.3668 104.684 113.889 124.077 134.264 139.581 153.648 163.836 174.024 184.212 190.494 200.682 205.999 216.186 221.504 226.82 240.888 251.075 261.263 271.451 277.733" y="0">Zoek de PL van Ouder1 of Ouder2</tspan><tspan x="0 6.28258 16.4703 21.7874 31.975 42.1627 52.3505 61.5555 71.7431 76.086 80.4205 84.7719 93.9769 99.294 108.499 118.687 128.874 134.191 144.379 154.567 159.884 170.072 180.259 189.464 199.652 208.857 219.045 224.362 234.549 239.866 250.054 260.242 266.524 275.729 285.917 296.105 306.293" y="17.75">(afhankelijk van de gezochte persoon)</tspan></text></g><path d="M8251.99 8988.85C8291.12 8988.85 8322.83 8957.14 8322.83 8917.99L8322.83 8881.48C8322.83 8842.34 8291.12 8810.6 8251.99 8810.6L7601.03 8810.6C7561.89 8810.6 7530.18 8842.34 7530.18 8881.48L7530.18 8917.99C7530.18 8957.14 7561.89 8988.85 7601.03 8988.85L8251.99 8988.85" id="path108" fill="#FFFFFF"/><path d="M8251.99 8988.85C8291.12 8988.85 8322.83 8957.14 8322.83 8917.99L8322.83 8881.48C8322.83 8842.34 8291.12 8810.6 8251.99 8810.6L7601.03 8810.6C7561.89 8810.6 7530.18 8842.34 7530.18 8881.48L7530.18 8917.99C7530.18 8957.14 7561.89 8988.85 7601.03 8988.85Z" id="path110" stroke="#231F20" stroke-width="8.75" fill="none"/><g id="g112" transform="scale(10 10)"><text id="text116" fill="#231F20" font-family="Arial" font-weight="400" font-size="12" transform="matrix(1 0 0 -1 763.459 885.719)"><tspan x="0 9.69396 16.7278 23.0878 30.1216 37.1554 44.1892 51.2229" y="0">Gevonden</tspan></text></g><path d="M9314.95 8988.85C9354.11 8988.85 9385.84 8957.14 9385.84 8917.99L9385.84 8881.48C9385.84 8842.34 9354.11 8810.6 9314.95 8810.6L8664.02 8810.6C8624.88 8810.6 8593.14 8842.34 8593.14 8881.48L8593.14 8917.99C8593.14 8957.14 8624.88 8988.85 8664.02 8988.85L9314.95 8988.85" id="path118" fill="#FFFFFF"/><path d="M9314.95 8988.85C9354.11 8988.85 9385.84 8957.14 9385.84 8917.99L9385.84 8881.48C9385.84 8842.34 9354.11 8810.6 9314.95 8810.6L8664.02 8810.6C8624.88 8810.6 8593.14 8842.34 8593.14 8881.48L8593.14 8917.99C8593.14 8957.14 8624.88 8988.85 8664.02 8988.85Z" id="path120" stroke="#231F20" stroke-width="8.75" fill="none"/><g id="g122" transform="scale(10 10)"><text id="text126" fill="#231F20" font-family="Arial" font-weight="400" font-size="12" transform="matrix(1 0 0 -1 868.737 885.719)"><tspan x="0 9.02601 12.052 19.0859 22.7798 26.4739 33.5077 40.5415 47.5753 56.6014" y="0">Niet aanw.</tspan></text></g><path d="M9425.83 6107.03C9504.11 6107.03 9567.55 6043.57 9567.55 5965.3L9567.55 5894.42C9567.55 5816.15 9504.11 5752.69 9425.83 5752.69L6508.57 5752.69C6430.28 5752.69 6366.85 5816.15 6366.85 5894.42L6366.85 5965.3C6366.85 6043.57 6430.28 6107.03 6508.57 6107.03L9425.83 6107.03" id="path128" fill="#FFFFFF"/><path d="M9425.83 6107.03C9504.11 6107.03 9567.55 6043.57 9567.55 5965.3L9567.55 5894.42C9567.55 5816.15 9504.11 5752.69 9425.83 5752.69L6508.57 5752.69C6430.28 5752.69 6366.85 5816.15 6366.85 5894.42L6366.85 5965.3C6366.85 6043.57 6430.28 6107.03 6508.57 6107.03Z" id="path130" stroke="#231F20" stroke-width="8.75" fill="none"/><g id="g132" transform="scale(10 10)"><text id="text136" fill="#231F20" font-family="Arial" font-weight="400" font-size="17.5" transform="matrix(1 0 0 -1 651.392 587.867)"><tspan x="0 13.787 23.6947 33.6023 43.51 49.5127 58.4377 68.3454 78.2531 87.178 92.2152 101.14 106.177 116.085 121.122 131.03 139.955 144.992 154.899 164.807 173.732 183.64 193.547 203.455 213.363 223.271 228.308 238.215 248.123 254.125 263.051 272.958 282.866" y="0">Onderzoek status gevonden persoon</tspan></text></g><path d="M7273.34 5799.87C7312.5 5799.87 7344.24 5768.15 7344.24 5729.02L7344.24 5692.5C7344.24 5653.38 7312.5 5621.65 7273.34 5621.65L6622.42 5621.65C6583.28 5621.65 6551.57 5653.38 6551.57 5692.5L6551.57 5729.02C6551.57 5768.15 6583.28 5799.87 6622.42 5799.87L7273.34 5799.87" id="path138" fill="#FFFFFF"/><path d="M7273.34 5799.87C7312.5 5799.87 7344.24 5768.15 7344.24 5729.02L7344.24 5692.5C7344.24 5653.38 7312.5 5621.65 7273.34 5621.65L6622.42 5621.65C6583.28 5621.65 6551.57 5653.38 6551.57 5692.5L6551.57 5729.02C6551.57 5768.15 6583.28 5799.87 6622.42 5799.87Z" id="path140" stroke="#231F20" stroke-width="8.75" fill="none"/><g id="g142" transform="scale(10 10)"><text id="text146" fill="#231F20" font-family="Arial" font-weight="400" font-size="12" transform="matrix(1 0 0 -1 673.039 566.82)"><tspan x="0 8.53779 15.0658 18.9278 26.1296 33.3314 40.5332" y="0">Actueel</tspan></text></g><path d="M8251.99 5799.87C8291.12 5799.87 8322.83 5768.15 8322.83 5729.02L8322.83 5692.5C8322.83 5653.38 8291.12 5621.65 8251.99 5621.65L7601.03 5621.65C7561.89 5621.65 7530.18 5653.38 7530.18 5692.5L7530.18 5729.02C7530.18 5768.15 7561.89 5799.87 7601.03 5799.87L8251.99 5799.87" id="path148" fill="#FFFFFF"/><path d="M8251.99 5799.87C8291.12 5799.87 8322.83 5768.15 8322.83 5729.02L8322.83 5692.5C8322.83 5653.38 8291.12 5621.65 8251.99 5621.65L7601.03 5621.65C7561.89 5621.65 7530.18 5653.38 7530.18 5692.5L7530.18 5729.02C7530.18 5768.15 7561.89 5799.87 7601.03 5799.87Z" id="path150" stroke="#231F20" stroke-width="8.75" fill="none"/><g id="g152" transform="scale(10 10)"><text id="text156" fill="#231F20" font-family="Arial" font-weight="400" font-size="12" transform="matrix(1 0 0 -1 756.588 566.82)"><tspan x="0 9.69406 16.7278 23.7616 26.7876 33.8215 40.1814 46.5414 53.5752 60.6091 64.9651" y="0">Geblokkeerd</tspan></text></g><path d="M9314.95 5799.87C9354.11 5799.87 9385.84 5768.15 9385.84 5729.02L9385.84 5692.5C9385.84 5653.38 9354.11 5621.65 9314.95 5621.65L8664.02 5621.65C8624.88 5621.65 8593.14 5653.38 8593.14 5692.5L8593.14 5729.02C8593.14 5768.15 8624.88 5799.87 8664.02 5799.87L9314.95 5799.87" id="path158" fill="#FFFFFF"/><path d="M9314.95 5799.87C9354.11 5799.87 9385.84 5768.15 9385.84 5729.02L9385.84 5692.5C9385.84 5653.38 9354.11 5621.65 9314.95 5621.65L8664.02 5621.65C8624.88 5621.65 8593.14 5653.38 8593.14 5692.5L8593.14 5729.02C8593.14 5768.15 8624.88 5799.87 8664.02 5799.87Z" id="path160" stroke="#231F20" stroke-width="8.75" fill="none"/><g id="g162" transform="scale(10 10)"><text id="text166" fill="#231F20" font-family="Arial" font-weight="400" font-size="12" transform="matrix(1 0 0 -1 866.068 566.82)"><tspan x="0 9.69391 16.7277 23.7616 30.7955 37.1555 43.5155 50.5493 57.5832 61.9393" y="0">Opgeschort</tspan></text></g><path d="M4088.83 7152.23 4088.24 7297.26C4088.24 7375.54 4151.69 7438.98 4229.96 7438.98L4430.84 7437.86" id="path168" stroke="#231F20" stroke-width="8.75" fill="none"/><path d="M4088.83 9455.39 4088.24 9600.41C4088.24 9678.68 4151.69 9742.14 4229.96 9742.14L4430.84 9741.01" id="path170" stroke="#231F20" stroke-width="8.75" fill="none"/><path d="M4089.84 3592.54 4089.21 9551.41" id="path172" stroke="#231F20" stroke-width="8.75" fill="none"/><path d="M2957.11 3252.6 2957.11 2577.94" id="path174" stroke="#231F20" stroke-width="25" stroke-linecap="square" fill="none"/><path d="M3402.21 3750.74C3480.48 3750.74 3543.94 3687.29 3543.94 3609.01L3543.94 3183.8C3543.94 3105.56 3480.48 3042.1 3402.21 3042.1L1547.91 3042.1C1469.63 3042.1 1406.18 3105.56 1406.18 3183.8L1406.18 3609.01C1406.18 3687.29 1469.63 3750.74 1547.91 3750.74L3402.21 3750.74" id="path176" fill="#FFFFFF"/><path d="M3402.21 3750.74C3480.48 3750.74 3543.94 3687.29 3543.94 3609.01L3543.94 3183.8C3543.94 3105.56 3480.48 3042.1 3402.21 3042.1L1547.91 3042.1C1469.63 3042.1 1406.18 3105.56 1406.18 3183.8L1406.18 3609.01C1406.18 3687.29 1469.63 3750.74 1547.91 3750.74Z" id="path178" stroke="#231F20" stroke-width="8.75" fill="none"/><g id="g180" transform="scale(10 10)"><text id="text184" fill="#231F20" font-family="Arial" font-weight="400" font-size="17.5" transform="matrix(1 0 0 -1 155.332 352.237)"><tspan x="0 16.9723 27.16 36.365 46.5527 51.8697 57.1868 67.3745 77.5622 82.8793 93.067 103.255 108.572 121.665 131.852 142.04 148.323" y="0">Wacht op antwoord</tspan></text></g><path d="M4625.32 3312.12 3538.16 3310.97" id="path186" stroke="#231F20" stroke-width="8.75" fill="none"/><path d="M3628.01 3489.64 3849.88 3547.42 3849.88 3434.92Z" id="path188" fill="#231F20"/><path d="M5492.78 3033.21 5492.78 3570.71 4417.78 3570.71 4417.78 3033.21 5492.78 3033.21" id="path190" fill="#FFFFFF"/><path d="M5492.78 3033.21 5492.78 3570.71 4417.78 3570.71 4417.78 3033.21Z" id="path192" stroke="#231F20" stroke-width="25" fill="none"/><path d="M4417.78 3570.71 4672.83 3315.65 5234.14 3315.65 5490.97 3572.52" id="path194" stroke="#231F20" stroke-width="8.75" fill="none"/><g id="g196" transform="scale(10 10)"><text id="text200" fill="#231F20" font-family="Arial" font-weight="400" font-size="15" transform="matrix(1 0 0 -1 478.067 337.128)"><tspan x="0 9.68761 17.7126 26.5799" y="0">Tv01</tspan></text></g><path d="M3628.01 3312.46 3849.88 3370.27 3849.88 3257.77Z" id="path202" fill="#231F20"/><path d="M1982.21 2921.08 1981.61 3066.12 1981.61 3201.47 1981.01 3346.49C1981.01 3424.76 2044.46 3488.21 2122.73 3488.21L2266.76 3489.17 3556.91 3488" id="path204" stroke="#231F20" stroke-width="8.75" stroke-dasharray="75 50" fill="none"/><path d="M2960.23 3024.99 2959.61 3170.03C2959.61 3248.27 3023.06 3311.73 3101.33 3311.73L3245.39 3312.7 3538.16 3311.58" id="path206" stroke="#231F20" stroke-width="8.75" stroke-dasharray="75 50" fill="none"/><path d="M3291.36 3089.27C3330.48 3089.27 3362.21 3057.53 3362.21 3018.39L3362.21 2981.89C3362.21 2942.73 3330.48 2911 3291.36 2911L2640.41 2911C2601.26 2911 2569.54 2942.73 2569.54 2981.89L2569.54 3018.39C2569.54 3057.53 2601.26 3089.27 2640.41 3089.27L3291.36 3089.27" id="path208" fill="#FFFFFF"/><path d="M3291.36 3089.27C3330.48 3089.27 3362.21 3057.53 3362.21 3018.39L3362.21 2981.89C3362.21 2942.73 3330.48 2911 3291.36 2911L2640.41 2911C2601.26 2911 2569.54 2942.73 2569.54 2981.89L2569.54 3018.39C2569.54 3057.53 2601.26 3089.27 2640.41 3089.27Z" id="path210" stroke="#231F20" stroke-width="8.75" fill="none"/><path d="M2312.74 3089.27C2351.88 3089.27 2383.61 3057.53 2383.61 3018.39L2383.61 2981.89C2383.61 2942.73 2351.88 2911 2312.74 2911L1661.78 2911C1622.66 2911 1590.93 2942.73 1590.93 2981.89L1590.93 3018.39C1590.93 3057.53 1622.66 3089.27 1661.78 3089.27L2312.74 3089.27" id="path212" fill="#FFFFFF"/><path d="M2312.74 3089.27C2351.88 3089.27 2383.61 3057.53 2383.61 3018.39L2383.61 2981.89C2383.61 2942.73 2351.88 2911 2312.74 2911L1661.78 2911C1622.66 2911 1590.93 2942.73 1590.93 2981.89L1590.93 3018.39C1590.93 3057.53 1622.66 3089.27 1661.78 3089.27Z" id="path214" stroke="#231F20" stroke-width="8.75" fill="none"/><g id="g216" transform="scale(10 10)"><text id="text220" fill="#231F20" font-family="Arial" font-weight="400" font-size="12" transform="matrix(1 0 0 -1 282.32 295.758)"><tspan x="0 7.78605 14.2421 21.3719 -96.2893 -88.5992 -84.9053 -77.8714" y="0">Tv01Tf01</tspan></text></g><path d="M5492.78 10171.9 5492.78 10709.4 4417.78 10709.4 4417.78 10171.9 5492.78 10171.9" id="path222" fill="#FFFFFF"/><path d="M5492.78 10171.9 5492.78 10709.4 4417.78 10709.4 4417.78 10171.9Z" id="path224" stroke="#231F20" stroke-width="25" fill="none"/><path d="M4417.78 10709.4 4672.83 10454.3 5234.14 10454.3 5490.97 10711.2" id="path226" stroke="#231F20" stroke-width="8.75" fill="none"/><g id="g228" transform="scale(10 10)"><text id="text232" fill="#231F20" font-family="Arial" font-weight="400" font-size="15" transform="matrix(1 0 0 -1 477.646 1051)"><tspan x="0 9.68761 18.5549 27.4222" y="0">Tb01</tspan></text></g><path d="M3395.66 826.699C3473.93 826.699 3537.38 763.199 3537.38 684.902L3537.38 614.102C3537.38 535.801 3473.93 472.301 3395.66 472.301L1187.04 472.301C1108.77 472.301 1045.32 535.801 1045.32 614.102L1045.32 684.902C1045.32 763.199 1108.77 826.699 1187.04 826.699L3395.66 826.699" id="path234" fill="#FFFFFF"/><path d="M3395.66 826.699C3473.93 826.699 3537.38 763.199 3537.38 684.902L3537.38 614.102C3537.38 535.801 3473.93 472.301 3395.66 472.301L1187.04 472.301C1108.77 472.301 1045.32 535.801 1045.32 614.102L1045.32 684.902C1045.32 763.199 1108.77 826.699 1187.04 826.699Z" id="path236" stroke="#231F20" stroke-width="8.75" fill="none"/><path d="M8710.84 826.699C8789.14 826.699 8852.59 763.199 8852.59 684.902L8852.59 614.102C8852.59 535.801 8789.14 472.301 8710.84 472.301L6502.25 472.301C6423.98 472.301 6360.52 535.801 6360.52 614.102L6360.52 684.902C6360.52 763.199 6423.98 826.699 6502.25 826.699L8710.84 826.699" id="path238" fill="#FFFFFF"/><path d="M8710.84 826.699C8789.14 826.699 8852.59 763.199 8852.59 684.902L8852.59 614.102C8852.59 535.801 8789.14 472.301 8710.84 472.301L6502.25 472.301C6423.98 472.301 6360.52 535.801 6360.52 614.102L6360.52 684.902C6360.52 763.199 6423.98 826.699 6502.25 826.699Z" id="path240" stroke="#231F20" stroke-width="8.75" fill="none"/><g id="g242" transform="scale(10 10)"><text id="text246" fill="#231F20" font-family="Arial" font-weight="400" font-size="17.5" transform="matrix(1 0 0 -1 110.514 57.6402)"><tspan x="0 13.5304 28.035 41.5654 57.027 69.5919 82.1653 92.7905 98.5451 111.11 116.865 130.395 143.925 156.49 162.245 175.775 188.34 201.87 212.496 226.026 531.522 545.052 559.557 573.087 588.549 601.114 613.687 624.312 630.067 642.632 648.386 661.917 675.447 688.012 693.767 707.297 719.862 733.393 744.018 757.548" y="0">NORMAAL EINDE CYCLUSNORMAAL EINDE CYCLUS</tspan></text></g><path d="M8362.83 10713.3C8441.12 10713.3 8504.55 10649.9 8504.55 10571.6L8504.55 10323.5C8504.55 10245.3 8441.12 10181.8 8362.83 10181.8L6508.57 10181.8C6430.28 10181.8 6366.85 10245.3 6366.85 10323.5L6366.85 10571.6C6366.85 10649.9 6430.28 10713.3 6508.57 10713.3L8362.83 10713.3" id="path248" fill="#FFFFFF"/><path d="M8362.83 10713.3C8441.12 10713.3 8504.55 10649.9 8504.55 10571.6L8504.55 10323.5C8504.55 10245.3 8441.12 10181.8 8362.83 10181.8L6508.57 10181.8C6430.28 10181.8 6366.85 10245.3 6366.85 10323.5L6366.85 10571.6C6366.85 10649.9 6430.28 10713.3 6508.57 10713.3Z" id="path250" stroke="#231F20" stroke-width="8.75" fill="none"/><path d="M8251.99 10229C8291.12 10229 8322.83 10197.3 8322.83 10158.1L8322.83 10121.6C8322.83 10082.5 8291.12 10050.8 8251.99 10050.8L7601.03 10050.8C7561.89 10050.8 7530.18 10082.5 7530.18 10121.6L7530.18 10158.1C7530.18 10197.3 7561.89 10229 7601.03 10229L8251.99 10229" id="path252" fill="#FFFFFF"/><path d="M8251.99 10229C8291.12 10229 8322.83 10197.3 8322.83 10158.1L8322.83 10121.6C8322.83 10082.5 8291.12 10050.8 8251.99 10050.8L7601.03 10050.8C7561.89 10050.8 7530.18 10082.5 7530.18 10121.6L7530.18 10158.1C7530.18 10197.3 7561.89 10229 7601.03 10229Z" id="path254" stroke="#231F20" stroke-width="8.75" fill="none"/><g id="g256" transform="scale(10 10)"><text id="text260" fill="#231F20" font-family="Arial" font-weight="400" font-size="12" transform="matrix(1 0 0 -1 785.891 1009.74)"><tspan x="0 6.36006" y="0">Ja</tspan></text></g><path d="M7273.34 10229C7312.5 10229 7344.24 10197.3 7344.24 10158.1L7344.24 10121.6C7344.24 10082.5 7312.5 10050.8 7273.34 10050.8L6622.42 10050.8C6583.28 10050.8 6551.57 10082.5 6551.57 10121.6L6551.57 10158.1C6551.57 10197.3 6583.28 10229 6622.42 10229L7273.34 10229" id="path262" fill="#FFFFFF"/><path d="M7273.34 10229C7312.5 10229 7344.24 10197.3 7344.24 10158.1L7344.24 10121.6C7344.24 10082.5 7312.5 10050.8 7273.34 10050.8L6622.42 10050.8C6583.28 10050.8 6551.57 10082.5 6551.57 10121.6L6551.57 10158.1C6551.57 10197.3 6583.28 10229 6622.42 10229Z" id="path264" stroke="#231F20" stroke-width="8.75" fill="none"/><g id="g266" transform="scale(10 10)"><text id="text270" fill="#231F20" font-family="Arial" font-weight="400" font-size="12" transform="matrix(1 0 0 -1 683.275 1009.74)"><tspan x="0 9.02606 16.0598" y="0">Nee</tspan></text><text id="text276" fill="#231F20" font-family="Arial" font-weight="400" font-size="17.5" transform="matrix(1 0 0 -1 651.392 1048.5)"><tspan x="0 12.1973 22.455 28.8076 38.0826 48.3404 58.598 68.8557 74.2427 80.5954 90.8531 101.111 111.368" y="0">Persoon reeds</tspan><tspan x="0 4.41288 14.6706 24.9283 35.1859 44.461 53.7359 63.9936 70.3463 80.604 89.879 100.137 110.394" y="17.75">ingeschreven?</tspan></text></g><path d="M9425.82 8232.99C9504.08 8232.99 9567.53 8169.55 9567.53 8091.27L9567.53 8020.39C9567.53 7942.12 9504.08 7878.67 9425.82 7878.67L6508.55 7878.67C6430.28 7878.67 6366.8 7942.12 6366.8 8020.39L6366.8 8091.27C6366.8 8169.55 6430.28 8232.99 6508.55 8232.99L9425.82 8232.99" id="path278" fill="#FFFFFF"/><path d="M9425.82 8232.99C9504.08 8232.99 9567.53 8169.55 9567.53 8091.27L9567.53 8020.39C9567.53 7942.12 9504.08 7878.67 9425.82 7878.67L6508.55 7878.67C6430.28 7878.67 6366.8 7942.12 6366.8 8020.39L6366.8 8091.27C6366.8 8169.55 6430.28 8232.99 6508.55 8232.99Z" id="path280" stroke="#231F20" stroke-width="8.75" fill="none"/><g id="g282" transform="scale(10 10)"><text id="text286" fill="#231F20" font-family="Arial" font-weight="400" font-size="17.5" transform="matrix(1 0 0 -1 651.39 800.465)"><tspan x="0 11.1447 21.3325 31.5202 40.7251 46.0422 56.2299 66.4176 76.6053 86.793 95.998 106.186 116.373 125.578 130.895 135.238 145.426 150.743 159.948 170.136 176.418 189.511 193.846 198.197 207.402 217.59 227.778 236.983 242.3 252.487 262.675" y="0">Zoek gegevens in verwijsbestand</tspan></text></g><path d="M7273.34 7925.85C7312.48 7925.85 7344.19 7894.13 7344.19 7855L7344.19 7818.47C7344.19 7779.34 7312.48 7747.62 7273.34 7747.62L6622.37 7747.62C6583.26 7747.62 6551.52 7779.34 6551.52 7818.47L6551.52 7855C6551.52 7894.13 6583.26 7925.85 6622.37 7925.85L7273.34 7925.85" id="path288" fill="#FFFFFF"/><path d="M7273.34 7925.85C7312.48 7925.85 7344.19 7894.13 7344.19 7855L7344.19 7818.47C7344.19 7779.34 7312.48 7747.62 7273.34 7747.62L6622.37 7747.62C6583.26 7747.62 6551.52 7779.34 6551.52 7818.47L6551.52 7855C6551.52 7894.13 6583.26 7925.85 6622.37 7925.85Z" id="path290" stroke="#231F20" stroke-width="8.75" fill="none"/><g id="g292" transform="scale(10 10)"><text id="text296" fill="#231F20" font-family="Arial" font-weight="400" font-size="12" transform="matrix(1 0 0 -1 665.582 779.417)"><tspan x="0 9.19403 12.388 19.5898 23.4518 27.3138 34.5156 41.7174 44.9114 52.1132" y="0">Niet uniek</tspan></text></g><path d="M8251.96 7925.85C8291.07 7925.85 8322.81 7894.13 8322.81 7855L8322.81 7818.47C8322.81 7779.34 8291.07 7747.62 8251.96 7747.62L7601.01 7747.62C7561.89 7747.62 7530.15 7779.34 7530.15 7818.47L7530.15 7855C7530.15 7894.13 7561.89 7925.85 7601.01 7925.85L8251.96 7925.85" id="path298" fill="#FFFFFF"/><path d="M8251.96 7925.85C8291.07 7925.85 8322.81 7894.13 8322.81 7855L8322.81 7818.47C8322.81 7779.34 8291.07 7747.62 8251.96 7747.62L7601.01 7747.62C7561.89 7747.62 7530.15 7779.34 7530.15 7818.47L7530.15 7855C7530.15 7894.13 7561.89 7925.85 7601.01 7925.85Z" id="path300" stroke="#231F20" stroke-width="8.75" fill="none"/><g id="g302" transform="scale(10 10)"><text id="text306" fill="#231F20" font-family="Arial" font-weight="400" font-size="12" transform="matrix(1 0 0 -1 763.454 779.417)"><tspan x="0 9.69396 16.7278 23.0878 30.1216 37.1554 44.1892 51.2229" y="0">Gevonden</tspan></text></g><path d="M9314.92 7925.85C9354.08 7925.85 9385.8 7894.13 9385.8 7855L9385.8 7818.47C9385.8 7779.34 9354.08 7747.62 9314.92 7747.62L8664 7747.62C8624.86 7747.62 8593.14 7779.34 8593.14 7818.47L8593.14 7855C8593.14 7894.13 8624.86 7925.85 8664 7925.85L9314.92 7925.85" id="path308" fill="#FFFFFF"/><path d="M9314.92 7925.85C9354.08 7925.85 9385.8 7894.13 9385.8 7855L9385.8 7818.47C9385.8 7779.34 9354.08 7747.62 9314.92 7747.62L8664 7747.62C8624.86 7747.62 8593.14 7779.34 8593.14 7818.47L8593.14 7855C8593.14 7894.13 8624.86 7925.85 8664 7925.85Z" id="path310" stroke="#231F20" stroke-width="8.75" fill="none"/><g id="g312" transform="scale(10 10)"><text id="text316" fill="#231F20" font-family="Arial" font-weight="400" font-size="12" transform="matrix(1 0 0 -1 868.734 779.417)"><tspan x="0 9.02601 12.052 19.0859 22.7798 26.4739 33.5077 40.5415 47.5753 56.6014" y="0">Niet aanw.</tspan></text></g><path d="M5563.71 7439.86 5785.58 7497.67 5785.58 7385.17Z" id="path318" fill="#231F20"/><path d="M5491.67 7336.68 5491.67 7874.18 4416.68 7874.18 4416.68 7336.68 5491.67 7336.68" id="path320" fill="#FFFFFF"/><path d="M5491.67 7336.68 5491.67 7874.18 4416.68 7874.18 4416.68 7336.68Z" id="path322" stroke="#231F20" stroke-width="25" fill="none"/><path d="M4416.68 7874.18 4671.73 7619.15 5233.04 7619.15 5489.88 7876" id="path324" stroke="#231F20" stroke-width="8.75" fill="none"/><g id="g326" transform="scale(10 10)"><text id="text332" fill="#231F20" font-family="Arial" font-weight="400" font-size="15" transform="matrix(1 0 0 -1 479.87 767.477)"><tspan x="0 9.52257 14.0501 22.7523" y="0">Tf01</tspan><tspan x="-16.782 -5.49946 3.29278 12.0851 20.8774 25.4948 31.2696 42.5521" y="25">Code "U"</tspan></text></g><path d="M4088.83 6643.59 4088.24 6788.61C4088.24 6866.88 4151.69 6930.33 4229.96 6930.33L4430.84 6929.18" id="path334" stroke="#231F20" stroke-width="8.75" fill="none"/><path d="M5491.67 5920.44 5491.67 6457.94 4416.68 6457.94 4416.68 5920.44 5491.67 5920.44" id="path336" fill="#FFFFFF"/><path d="M5491.67 5920.44 5491.67 6457.94 4416.68 6457.94 4416.68 5920.44Z" id="path338" stroke="#231F20" stroke-width="25" fill="none"/><g id="g340" transform="scale(10 10)"><text id="text346" fill="#231F20" font-family="Arial" font-weight="400" font-size="15" transform="matrix(1 0 0 -1 479.87 625.854)"><tspan x="0 9.52257 14.0501 22.7523" y="0">Tf01</tspan><tspan x="-17.1988 -5.91626 2.87598 11.6683 20.4606 25.078 30.8528 42.9702" y="25">Code "G"</tspan></text></g><path d="M5563.71 6376.87 5785.58 6434.68 5785.58 6322.18Z" id="path348" fill="#231F20"/><path d="M5563.71 6908.37 5785.58 6966.17 5785.58 6853.67Z" id="path350" fill="#231F20"/><path d="M5491.67 6628.03 5491.67 7165.53 4416.68 7165.53 4416.68 6628.03 5491.67 6628.03" id="path352" fill="#FFFFFF"/><path d="M5491.67 6628.03 5491.67 7165.53 4416.68 7165.53 4416.68 6628.03Z" id="path354" stroke="#231F20" stroke-width="25" fill="none"/><path d="M4416.68 7165.53 4671.73 6910.48 5233.04 6910.48 5489.88 7167.33" id="path356" stroke="#231F20" stroke-width="8.75" fill="none"/><g id="g358" transform="scale(10 10)"><text id="text362" fill="#231F20" font-family="Arial" font-weight="400" font-size="15" transform="matrix(1 0 0 -1 463.502 671.61)"><tspan x="0 11.2825 20.0748 28.8671 37.6594 42.2768 48.0516 58.5064" y="0">Code "V"</tspan></text></g><path d="M5491.67 4325.95 5491.67 4863.45 4416.68 4863.45 4416.68 4325.95 5491.67 4325.95" id="path364" fill="#FFFFFF"/><path d="M5491.67 4325.95 5491.67 4863.45 4416.68 4863.45 4416.68 4325.95Z" id="path366" stroke="#231F20" stroke-width="25" fill="none"/><g id="g368" transform="scale(10 10)"><text id="text374" fill="#231F20" font-family="Arial" font-weight="400" font-size="15" transform="matrix(1 0 0 -1 479.735 466.405)"><tspan x="0 9.61261 14.2301 23.0224" y="0">Tf01</tspan><tspan x="-6.46914 3.98576 8.60327 21.5483 26.1658" y="25">E/M/O</tspan></text></g><path d="M5563.71 4782.38 5785.58 4840.18 5785.58 4727.68Z" id="path376" fill="#231F20"/><path d="M5563.71 5313.88 5785.58 5371.69 5785.58 5259.19Z" id="path378" fill="#231F20"/><path d="M5491.67 5033.54 5491.67 5571.04 4416.68 5571.04 4416.68 5033.54 5491.67 5033.54" id="path380" fill="#FFFFFF"/><path d="M5491.67 5033.54 5491.67 5571.04 4416.68 5571.04 4416.68 5033.54Z" id="path382" stroke="#231F20" stroke-width="25" fill="none"/><path d="M4416.68 5571.04 4671.73 5315.99 5233.04 5315.99 5489.88 5572.84" id="path384" stroke="#231F20" stroke-width="8.75" fill="none"/><path d="M4416.68 6456.85 4671.73 6201.83 5233.04 6201.83 5489.88 6458.68" id="path386" stroke="#231F20" stroke-width="8.75" fill="none"/><g id="g388" transform="scale(10 10)"><text id="text394" fill="#231F20" font-family="Arial" font-weight="400" font-size="15" transform="matrix(1 0 0 -1 479.735 537.163)"><tspan x="0 9.61261 14.2301 23.0224" y="0">Tf01</tspan><tspan x="-16.2332 -4.95066 3.84158 12.6339 21.4262 26.0436 31.8184 42.2732" y="25">Code "B"</tspan></text></g><path d="M8362.83 4512.55C8441.12 4512.55 8504.55 4449.09 8504.55 4370.82L8504.55 4299.94C8504.55 4221.65 8441.12 4158.21 8362.83 4158.21L6508.57 4158.21C6430.28 4158.21 6366.85 4221.65 6366.85 4299.94L6366.85 4370.82C6366.85 4449.09 6430.28 4512.55 6508.57 4512.55L8362.83 4512.55" id="path396" fill="#FFFFFF"/><path d="M8362.83 4512.55C8441.12 4512.55 8504.55 4449.09 8504.55 4370.82L8504.55 4299.94C8504.55 4221.65 8441.12 4158.21 8362.83 4158.21L6508.57 4158.21C6430.28 4158.21 6366.85 4221.65 6366.85 4299.94L6366.85 4370.82C6366.85 4449.09 6430.28 4512.55 6508.57 4512.55Z" id="path398" stroke="#231F20" stroke-width="8.75" fill="none"/><g id="g400" transform="scale(10 10)"><text id="text404" fill="#231F20" font-family="Arial" font-weight="400" font-size="17.5" transform="matrix(1 0 0 -1 651.392 428.416)"><tspan x="0 10.2576 20.5153 30.773 36.16 48.3574 58.6151 64.0021 74.2598 84.5175" y="0">Leg PL aan</tspan></text></g><path d="M6574.13 3312.12 5486.99 3310.97" id="path406" stroke="#231F20" stroke-width="8.75" fill="none"/><path d="M5576.81 3312.46 5798.69 3370.27 5798.69 3257.77Z" id="path408" fill="#231F20"/><path d="M9425.83 3484.97C9504.11 3484.97 9567.53 3421.54 9567.53 3343.25L9567.53 3272.37C9567.53 3194.1 9504.11 3130.65 9425.83 3130.65L6508.57 3130.65C6430.28 3130.65 6366.85 3194.1 6366.85 3272.37L6366.85 3343.25C6366.85 3421.54 6430.28 3484.97 6508.57 3484.97L9425.83 3484.97" id="path410" fill="#FFFFFF"/><path d="M9425.83 3484.97C9504.11 3484.97 9567.53 3421.54 9567.53 3343.25L9567.53 3272.37C9567.53 3194.1 9504.11 3130.65 9425.83 3130.65L6508.57 3130.65C6430.28 3130.65 6366.85 3194.1 6366.85 3272.37L6366.85 3343.25C6366.85 3421.54 6430.28 3484.97 6508.57 3484.97Z" id="path412" stroke="#231F20" stroke-width="8.75" fill="none"/><g id="g414" transform="scale(10 10)"><text id="text418" fill="#231F20" font-family="Arial" font-weight="400" font-size="17.5" transform="matrix(1 0 0 -1 651.392 325.66)"><tspan x="0 15.1026 25.3603 35.618 44.893 50.28 59.555 69.8127 76.1654 89.3284 93.7327 98.1542 107.429 117.687 127.945 138.202 148.46 157.735 167.993 178.25 187.525 192.912 203.17 213.428" y="0">Maak verwijsgegevens aan</tspan></text></g><path d="M4417.78 4864.01 4672.83 4608.97 5234.14 4608.97 5490.97 4865.82" id="path420" stroke="#231F20" stroke-width="8.75" fill="none"/><path d="M3402.2 2510.58C3480.48 2510.58 3543.94 2447.13 3543.94 2368.86L3543.94 2297.96C3543.94 2219.69 3480.48 2156.26 3402.2 2156.26L1547.93 2156.26C1469.66 2156.26 1406.21 2219.69 1406.21 2297.96L1406.21 2368.86C1406.21 2447.13 1469.66 2510.58 1547.93 2510.58L3402.2 2510.58" id="path422" fill="#FFFFFF"/><path d="M3402.2 2510.58C3480.48 2510.58 3543.94 2447.13 3543.94 2368.86L3543.94 2297.96C3543.94 2219.69 3480.48 2156.26 3402.2 2156.26L1547.93 2156.26C1469.66 2156.26 1406.21 2219.69 1406.21 2297.96L1406.21 2368.86C1406.21 2447.13 1469.66 2510.58 1547.93 2510.58Z" id="path424" stroke="#231F20" stroke-width="8.75" fill="none"/><path d="M3291.36 2203.45C3330.48 2203.45 3362.21 2171.71 3362.21 2132.58L3362.21 2096.05C3362.21 2056.92 3330.48 2025.2 3291.36 2025.2L2640.41 2025.2C2601.28 2025.2 2569.56 2056.92 2569.56 2096.05L2569.56 2132.58C2569.56 2171.71 2601.28 2203.45 2640.41 2203.45L3291.36 2203.45" id="path426" fill="#FFFFFF"/><path d="M3291.36 2203.45C3330.48 2203.45 3362.21 2171.71 3362.21 2132.58L3362.21 2096.05C3362.21 2056.92 3330.48 2025.2 3291.36 2025.2L2640.41 2025.2C2601.28 2025.2 2569.56 2056.92 2569.56 2096.05L2569.56 2132.58C2569.56 2171.71 2601.28 2203.45 2640.41 2203.45Z" id="path428" stroke="#231F20" stroke-width="8.75" fill="none"/><g id="g430" transform="scale(10 10)"><text id="text434" fill="#231F20" font-family="Arial" font-weight="400" font-size="12" transform="matrix(1 0 0 -1 275.593 207.177)"><tspan x="0 9.02604 16.0599 20.416 24.772 31.8059 38.1659" y="0">Correct</tspan></text></g><path d="M2312.74 2203.45C2351.88 2203.45 2383.61 2171.71 2383.61 2132.58L2383.61 2096.05C2383.61 2056.92 2351.88 2025.2 2312.74 2025.2L1661.78 2025.2C1622.66 2025.2 1590.93 2056.92 1590.93 2096.05L1590.93 2132.58C1590.93 2171.71 1622.66 2203.45 1661.78 2203.45L2312.74 2203.45" id="path436" fill="#FFFFFF"/><path d="M2312.74 2203.45C2351.88 2203.45 2383.61 2171.71 2383.61 2132.58L2383.61 2096.05C2383.61 2056.92 2351.88 2025.2 2312.74 2025.2L1661.78 2025.2C1622.66 2025.2 1590.93 2056.92 1590.93 2096.05L1590.93 2132.58C1590.93 2171.71 1622.66 2203.45 1661.78 2203.45Z" id="path438" stroke="#231F20" stroke-width="8.75" fill="none"/><g id="g440" transform="scale(10 10)"><text id="text444" fill="#231F20" font-family="Arial" font-weight="400" font-size="12" transform="matrix(1 0 0 -1 186.033 207.177)"><tspan x="0 7.69007 14.7239 21.7577" y="0">Fout</tspan></text><text id="text448" fill="#231F20" font-family="Arial" font-weight="400" font-size="17.5" transform="matrix(1 0 0 -1 155.332 228.222)"><tspan x="0 11.3399 20.7401 26.2352 38.5407 47.9408 53.436 61.8535 66.3831 74.8005 84.2007 89.6959 102.001 105.548 109.112 117.53 126.93 136.33 145.73 155.13 163.548 172.948 182.348" y="0">Verwerk verwijsgegevens</tspan></text></g><path d="M6939.72 1324.5 6939.72 897.699" id="path450" stroke="#231F20" stroke-width="25" stroke-linecap="square" fill="none"/><path d="M4212.55 1722.32 3990.69 1780.11 3990.69 1667.61Z" id="path452" fill="#231F20"/><path d="M4212.55 1190.8 3990.69 1248.6 3990.69 1136.1Z" id="path454" fill="#231F20"/><path d="M5489.21 1615.4 5489.21 2152.92 4414.21 2152.92 4414.21 1615.4 5489.21 1615.4" id="path456" fill="#FFFFFF"/><path d="M5489.21 1615.4 5489.21 2152.92 4414.21 2152.92 4414.21 1615.4Z" id="path458" stroke="#231F20" stroke-width="25" fill="none"/><path d="M4414.21 2152.92 4669.27 1897.88 5230.57 1897.88 5487.41 2154.75" id="path460" stroke="#231F20" stroke-width="8.75" fill="none"/><g id="g462" transform="scale(10 10)"><text id="text466" fill="#231F20" font-family="Arial" font-weight="400" font-size="15" transform="matrix(1 0 0 -1 479.489 195.352)"><tspan x="0 9.61261 14.2301 23.0224" y="0">Tf11</tspan></text></g><path d="M5489.21 906.801 5489.21 1444.2 4414.21 1444.2 4414.21 906.801 5489.21 906.801" id="path468" fill="#FFFFFF"/><path d="M5489.21 906.801 5489.21 1444.2 4414.21 1444.2 4414.21 906.801Z" id="path470" stroke="#231F20" stroke-width="25" fill="none"/><path d="M4414.21 1444.2 4669.27 1189.2 5230.57 1189.2 5487.41 1446.1" id="path472" stroke="#231F20" stroke-width="8.75" fill="none"/><g id="g474" transform="scale(10 10)"><text id="text478" fill="#231F20" font-family="Arial" font-weight="400" font-size="15" transform="matrix(1 0 0 -1 481.711 124.48)"><tspan x="0 11.1925 19.8949 23.5874" y="0">Null</tspan></text></g><path d="M7918.39 1529.7 7918.39 1178.1 9424.91 1178.1" id="path480" stroke="#231F20" stroke-width="25" stroke-linecap="square" fill="none"/><path d="M6236.26 1889.51 6014.39 1947.32 6014.39 1834.82Z" id="path482" fill="#231F20"/><path d="M8360.68 2150.87C8438.94 2150.87 8502.4 2087.41 8502.4 2009.14L8502.4 1583.9C8502.4 1505.7 8438.94 1442.2 8360.68 1442.2L6506.38 1442.2C6428.08 1442.2 6364.65 1505.7 6364.65 1583.9L6364.65 2009.14C6364.65 2087.41 6428.08 2150.87 6506.38 2150.87L8360.68 2150.87" id="path484" fill="#FFFFFF"/><path d="M8360.68 2150.87C8438.94 2150.87 8502.4 2087.41 8502.4 2009.14L8502.4 1583.9C8502.4 1505.7 8438.94 1442.2 8360.68 1442.2L6506.38 1442.2C6428.08 1442.2 6364.65 1505.7 6364.65 1583.9L6364.65 2009.14C6364.65 2087.41 6428.08 2150.87 6506.38 2150.87Z" id="path486" stroke="#231F20" stroke-width="8.75" fill="none"/><g id="g488" transform="scale(10 10)"><text id="text492" fill="#231F20" font-family="Arial" font-weight="400" font-size="17.5" transform="matrix(1 0 0 -1 651.177 192.247)"><tspan x="0 16.9723 27.16 36.365 46.5527 51.8697 57.1868 67.3745 77.5621 82.8792 93.067 103.255 108.572 121.665 131.852 142.04 148.323" y="0">Wacht op antwoord</tspan></text></g><path d="M7920.46 1321.2 7921.07 1466.2 7921.07 1601.6 7921.66 1746.61C7921.66 1824.89 7858.21 1888.34 7779.94 1888.34L7635.91 1889.29 6345.76 1888.17" id="path494" stroke="#231F20" stroke-width="8.75" stroke-dasharray="75 50" fill="none"/><path d="M6942.44 1424.4 6943.04 1569.4C6943.04 1647.71 6879.62 1711.16 6801.32 1711.16L6657.3 1712.12 6364.51 1710.97" id="path496" stroke="#231F20" stroke-width="8.75" stroke-dasharray="75 50" fill="none"/><path d="M7271.2 1489.4C7310.33 1489.4 7342.07 1457.6 7342.07 1418.5L7342.07 1382C7342.07 1342.9 7310.33 1311.1 7271.2 1311.1L6620.25 1311.1C6581.11 1311.1 6549.39 1342.9 6549.39 1382L6549.39 1418.5C6549.39 1457.6 6581.11 1489.4 6620.25 1489.4L7271.2 1489.4" id="path498" fill="#FFFFFF"/><path d="M7271.2 1489.4C7310.33 1489.4 7342.07 1457.6 7342.07 1418.5L7342.07 1382C7342.07 1342.9 7310.33 1311.1 7271.2 1311.1L6620.25 1311.1C6581.11 1311.1 6549.39 1342.9 6549.39 1382L6549.39 1418.5C6549.39 1457.6 6581.11 1489.4 6620.25 1489.4Z" id="path500" stroke="#231F20" stroke-width="8.75" fill="none"/><g id="g502" transform="scale(10 10)"><text id="text506" fill="#231F20" font-family="Arial" font-weight="400" font-size="12" transform="matrix(1 0 0 -1 683.545 135.77)"><tspan x="0 9.02596 16.0598 19.0858" y="0">Null</tspan></text></g><path d="M8249.81 1489.4C8288.94 1489.4 8320.66 1457.6 8320.66 1418.5L8320.66 1382C8320.66 1342.9 8288.94 1311.1 8249.81 1311.1L7598.88 1311.1C7559.72 1311.1 7527.98 1342.9 7527.98 1382L7527.98 1418.5C7527.98 1457.6 7559.72 1489.4 7598.88 1489.4L8249.81 1489.4" id="path508" fill="#FFFFFF"/><path d="M8249.81 1489.4C8288.94 1489.4 8320.66 1457.6 8320.66 1418.5L8320.66 1382C8320.66 1342.9 8288.94 1311.1 8249.81 1311.1L7598.88 1311.1C7559.72 1311.1 7527.98 1342.9 7527.98 1382L7527.98 1418.5C7527.98 1457.6 7559.72 1489.4 7598.88 1489.4Z" id="path510" stroke="#231F20" stroke-width="8.75" fill="none"/><g id="g512" transform="scale(10 10)"><text id="text516" fill="#231F20" font-family="Arial" font-weight="400" font-size="12" transform="matrix(1 0 0 -1 779.501 135.77)"><tspan x="0 7.7861 11.5761 18.7059" y="0">Tf11</tspan></text></g><path d="M6401.6 1885.34 5492.05 1886.43" id="path518" stroke="#231F20" stroke-width="8.75" fill="none"/><path d="M6343.59 1710.97 5938.33 1712.12 5794.27 1711.16C5715.99 1711.16 5652.54 1647.71 5652.54 1569.4L5656.89 1482.2 5657.5 1337.1C5657.5 1258.8 5594.05 1195.4 5515.76 1195.4L5492.05 1196.5" id="path520" stroke="#231F20" stroke-width="8.75" fill="none"/><path d="M6236.26 1712.33 6014.39 1770.15 6014.39 1657.65Z" id="path522" fill="#231F20"/><g id="g524" transform="scale(10 10)"><text id="text528" fill="#231F20" font-family="Arial" font-weight="400" font-size="15" transform="matrix(1 0 0 -1 479.87 696.61)"><tspan x="0 9.52257 14.0501 22.7523" y="0">Tf01</tspan></text></g><path d="M6256.84 11228.8C6256.84 11411.6 6431.84 11411.6 6431.84 11411.6L9269.34 11411.6C9269.34 11411.6 9445.9 11413.2 9445.9 11235.1 9445.9 11056.9 9263.09 11056.9 9263.09 11056.9L6431.84 11056.9C6431.84 11056.9 6256.84 11046 6256.84 11228.8" id="path530" fill="#FFFFFF"/><path d="M6256.84 11228.8C6256.84 11411.6 6431.84 11411.6 6431.84 11411.6L9269.34 11411.6C9269.34 11411.6 9445.9 11413.2 9445.9 11235.1 9445.9 11056.9 9263.09 11056.9 9263.09 11056.9L6431.84 11056.9C6431.84 11056.9 6256.84 11046 6256.84 11228.8Z" id="path532" stroke="#231F20" stroke-width="6.25" fill="none"/><g id="g534" transform="scale(10 10)"><text id="text538" fill="#231F20" font-family="Arial" font-weight="700" font-size="20" transform="matrix(1 0 0 -1 637.623 1118.44)"><tspan x="0 16.1567 27.8797 46.2629 57.986 69.7089 82.5257 89.7859 101.509 107.666 119.388 131.112 139.495 151.218 158.478 170.201 176.358 182.514 195.331 207.054 218.777 231.594 239.977 246.124 252.29 264.013 270.17 282.987" y="0">Gemeente eerste inschrijving</tspan></text></g><path d="M349.332 11222.6C349.332 11405.4 524.332 11405.4 524.332 11405.4L3361.83 11405.4C3361.83 11405.4 3538.39 11406.9 3538.39 11228.8 3538.39 11050.7 3355.58 11050.7 3355.58 11050.7L524.332 11050.7C524.332 11050.7 349.332 11039.7 349.332 11222.6" id="path540" fill="#FFFFFF"/><path d="M349.332 11222.6C349.332 11405.4 524.332 11405.4 524.332 11405.4L3361.83 11405.4C3361.83 11405.4 3538.39 11406.9 3538.39 11228.8 3538.39 11050.7 3355.58 11050.7 3355.58 11050.7L524.332 11050.7C524.332 11050.7 349.332 11039.7 349.332 11222.6Z" id="path542" stroke="#231F20" stroke-width="6.25" fill="none"/><g id="g544" transform="scale(10 10)"><text id="text548" fill="#231F20" font-family="Arial" font-weight="700" font-size="20" transform="matrix(1 0 0 -1 98.843 1117.82)"><tspan x="0 16.1566 27.8796 40.6964 53.5132 66.33 74.7132 81.9734 93.6965 106.513 118.236 136.62 148.343 160.066 172.882 180.143" y="0">Geboortegemeente</tspan></text></g><path d="M9561.89 9631.56C9658.53 9631.56 9736.89 9709.92 9736.89 9806.56 9736.89 9903.21 9658.53 9981.56 9561.89 9981.56 9465.24 9981.56 9386.89 9903.21 9386.89 9806.56 9386.89 9709.92 9465.24 9631.56 9561.89 9631.56" id="path550" fill="#FFFFFF"/><path d="M9561.89 9631.56C9658.53 9631.56 9736.89 9709.92 9736.89 9806.56 9736.89 9903.21 9658.53 9981.56 9561.89 9981.56 9465.24 9981.56 9386.89 9903.21 9386.89 9806.56 9386.89 9709.92 9465.24 9631.56 9561.89 9631.56Z" id="path552" stroke="#231F20" stroke-width="6.25" fill="none"/><g id="g554" transform="scale(10 10)"><text id="text558" fill="#231F20" font-family="Arial" font-weight="400" font-size="25" transform="matrix(1 0 0 -1 949.237 971.906)"><tspan x="0" y="0">1</tspan></text></g><path d="M7747.08 10014.8C7767.78 10014.8 7784.58 10031.5 7784.58 10052.3 7784.58 10073 7767.78 10089.8 7747.08 10089.8 7726.37 10089.8 7709.58 10073 7709.58 10052.3 7709.58 10031.5 7726.37 10014.8 7747.08 10014.8" id="path560" fill="#FFFFFF"/><path d="M7747.08 10014.8C7767.78 10014.8 7784.58 10031.5 7784.58 10052.3 7784.58 10073 7767.78 10089.8 7747.08 10089.8 7726.37 10089.8 7709.58 10073 7709.58 10052.3 7709.58 10031.5 7726.37 10014.8 7747.08 10014.8Z" id="path562" stroke="#231F20" stroke-width="6.25" stroke-linecap="square" fill="none"/><path d="M6372.08 10414.8C6392.78 10414.8 6409.58 10431.5 6409.58 10452.3 6409.58 10473 6392.78 10489.8 6372.08 10489.8 6351.37 10489.8 6334.58 10473 6334.58 10452.3 6334.58 10431.5 6351.37 10414.8 6372.08 10414.8" id="path564" fill="#FFFFFF"/><path d="M6372.08 10414.8C6392.78 10414.8 6409.58 10431.5 6409.58 10452.3 6409.58 10473 6392.78 10489.8 6372.08 10489.8 6351.37 10489.8 6334.58 10473 6334.58 10452.3 6334.58 10431.5 6351.37 10414.8 6372.08 10414.8Z" id="path566" stroke="#231F20" stroke-width="6.25" stroke-linecap="square" fill="none"/><path d="M6942.68 9650.45 7041.31 9686.14 6942.68 9473.89 6841.31 9686.14 6942.68 9650.45" id="path568" fill="#231F20"/><path d="M8980.18 8409.82 9078.81 8445.52 8980.18 8233.26 8878.81 8445.52 8980.18 8409.82" id="path570" fill="#231F20"/><path d="M6765.83 7710.06C6786.53 7710.06 6803.33 7726.84 6803.33 7747.56 6803.33 7768.27 6786.53 7785.06 6765.83 7785.06 6745.12 7785.06 6728.33 7768.27 6728.33 7747.56 6728.33 7726.84 6745.12 7710.06 6765.83 7710.06" id="path572" fill="#FFFFFF"/><path d="M6765.83 7710.06C6786.53 7710.06 6803.33 7726.84 6803.33 7747.56 6803.33 7768.27 6786.53 7785.06 6765.83 7785.06 6745.12 7785.06 6728.33 7768.27 6728.33 7747.56 6728.33 7726.84 6745.12 7710.06 6765.83 7710.06Z" id="path574" stroke="#231F20" stroke-width="6.25" stroke-linecap="square" fill="none"/><path d="M7747.08 7710.06C7767.78 7710.06 7784.58 7726.84 7784.58 7747.56 7784.58 7768.27 7767.78 7785.06 7747.08 7785.06 7726.37 7785.06 7709.58 7768.27 7709.58 7747.56 7709.58 7726.84 7726.37 7710.06 7747.08 7710.06" id="path576" fill="#FFFFFF"/><path d="M7747.08 7710.06C7767.78 7710.06 7784.58 7726.84 7784.58 7747.56 7784.58 7768.27 7767.78 7785.06 7747.08 7785.06 7726.37 7785.06 7709.58 7768.27 7709.58 7747.56 7709.58 7726.84 7726.37 7710.06 7747.08 7710.06Z" id="path578" stroke="#231F20" stroke-width="6.25" stroke-linecap="square" fill="none"/><path d="M8811.14 7710.06C8831.84 7710.06 8848.64 7726.84 8848.64 7747.56 8848.64 7768.27 8831.84 7785.06 8811.14 7785.06 8790.43 7785.06 8773.64 7768.27 8773.64 7747.56 8773.64 7726.84 8790.43 7710.06 8811.14 7710.06" id="path580" fill="#FFFFFF"/><path d="M8811.14 7710.06C8831.84 7710.06 8848.64 7726.84 8848.64 7747.56 8848.64 7768.27 8831.84 7785.06 8811.14 7785.06 8790.43 7785.06 8773.64 7768.27 8773.64 7747.56 8773.64 7726.84 8790.43 7710.06 8811.14 7710.06Z" id="path582" stroke="#231F20" stroke-width="6.25" stroke-linecap="square" fill="none"/><path d="M6944.08 6283.11 7042.71 6318.82 6944.08 6106.55 6842.71 6318.82 6944.08 6283.11" id="path584" fill="#231F20"/><path d="M9561.89 7258.12C9658.53 7258.12 9736.89 7336.48 9736.89 7433.12 9736.89 7529.78 9658.53 7608.12 9561.89 7608.12 9465.24 7608.12 9386.89 7529.78 9386.89 7433.12 9386.89 7336.48 9465.24 7258.12 9561.89 7258.12" id="path586" fill="#FFFFFF"/><path d="M9561.89 7258.12C9658.53 7258.12 9736.89 7336.48 9736.89 7433.12 9736.89 7529.78 9658.53 7608.12 9561.89 7608.12 9465.24 7608.12 9386.89 7529.78 9386.89 7433.12 9386.89 7336.48 9465.24 7258.12 9561.89 7258.12Z" id="path588" stroke="#231F20" stroke-width="6.25" fill="none"/><g id="g590" transform="scale(10 10)"><text id="text594" fill="#231F20" font-family="Arial" font-weight="400" font-size="25" transform="matrix(1 0 0 -1 949.237 734.562)"><tspan x="0" y="0">2</tspan></text></g><path d="M9561.89 5120.62C9658.53 5120.62 9736.89 5198.98 9736.89 5295.62 9736.89 5392.28 9658.53 5470.62 9561.89 5470.62 9465.24 5470.62 9386.89 5392.28 9386.89 5295.62 9386.89 5198.98 9465.24 5120.62 9561.89 5120.62" id="path596" fill="#FFFFFF"/><path d="M9561.89 5120.62C9658.53 5120.62 9736.89 5198.98 9736.89 5295.62 9736.89 5392.28 9658.53 5470.62 9561.89 5470.62 9465.24 5470.62 9386.89 5392.28 9386.89 5295.62 9386.89 5198.98 9465.24 5120.62 9561.89 5120.62Z" id="path598" stroke="#231F20" stroke-width="6.25" fill="none"/><g id="g600" transform="scale(10 10)"><text id="text604" fill="#231F20" font-family="Arial" font-weight="400" font-size="25" transform="matrix(1 0 0 -1 949.237 520.812)"><tspan x="0" y="0">3</tspan></text></g><path d="M7747.08 5583.5C7767.78 5583.5 7784.58 5600.28 7784.58 5621 7784.58 5641.71 7767.78 5658.5 7747.08 5658.5 7726.37 5658.5 7709.58 5641.71 7709.58 5621 7709.58 5600.28 7726.37 5583.5 7747.08 5583.5" id="path606" fill="#FFFFFF"/><path d="M7747.08 5583.5C7767.78 5583.5 7784.58 5600.28 7784.58 5621 7784.58 5641.71 7767.78 5658.5 7747.08 5658.5 7726.37 5658.5 7709.58 5641.71 7709.58 5621 7709.58 5600.28 7726.37 5583.5 7747.08 5583.5Z" id="path608" stroke="#231F20" stroke-width="6.25" stroke-linecap="square" fill="none"/><path d="M8811.14 5583.5C8831.84 5583.5 8848.64 5600.28 8848.64 5621 8848.64 5641.71 8831.84 5658.5 8811.14 5658.5 8790.43 5658.5 8773.64 5641.71 8773.64 5621 8773.64 5600.28 8790.43 5583.5 8811.14 5583.5" id="path610" fill="#FFFFFF"/><path d="M8811.14 5583.5C8831.84 5583.5 8848.64 5600.28 8848.64 5621 8848.64 5641.71 8831.84 5658.5 8811.14 5658.5 8790.43 5658.5 8773.64 5641.71 8773.64 5621 8773.64 5600.28 8790.43 5583.5 8811.14 5583.5Z" id="path612" stroke="#231F20" stroke-width="6.25" stroke-linecap="square" fill="none"/><path d="M6943.32 4689.28 7041.95 4724.98 6943.32 4512.71 6841.95 4724.98 6943.32 4689.28" id="path614" fill="#231F20"/><path d="M6367.39 3274.11C6388.09 3274.11 6404.89 3290.91 6404.89 3311.61 6404.89 3332.33 6388.09 3349.11 6367.39 3349.11 6346.68 3349.11 6329.89 3332.33 6329.89 3311.61 6329.89 3290.91 6346.68 3274.11 6367.39 3274.11" id="path616" fill="#FFFFFF"/><path d="M6367.39 3274.11C6388.09 3274.11 6404.89 3290.91 6404.89 3311.61 6404.89 3332.33 6388.09 3349.11 6367.39 3349.11 6346.68 3349.11 6329.89 3332.33 6329.89 3311.61 6329.89 3290.91 6346.68 3274.11 6367.39 3274.11Z" id="path618" stroke="#231F20" stroke-width="6.25" stroke-linecap="square" fill="none"/><path d="M6940.19 1003.9 7038.82 1039.6 6940.19 827.402 6838.82 1039.6 6940.19 1003.9" id="path620" fill="#231F20"/><path d="M9561.89 995.602C9658.53 995.602 9736.89 1074 9736.89 1170.6 9736.89 1267.3 9658.53 1345.6 9561.89 1345.6 9465.24 1345.6 9386.89 1267.3 9386.89 1170.6 9386.89 1074 9465.24 995.602 9561.89 995.602" id="path622" fill="#FFFFFF"/><path d="M9561.89 995.602C9658.53 995.602 9736.89 1074 9736.89 1170.6 9736.89 1267.3 9658.53 1345.6 9561.89 1345.6 9465.24 1345.6 9386.89 1267.3 9386.89 1170.6 9386.89 1074 9465.24 995.602 9561.89 995.602Z" id="path624" stroke="#231F20" stroke-width="6.25" fill="none"/><g id="g626" transform="scale(10 10)"><text id="text630" fill="#231F20" font-family="Arial" font-weight="400" font-size="25" transform="matrix(1 0 0 -1 949.237 108.31)"><tspan x="0" y="0">6</tspan></text></g><path d="M6364.51 1673.47C6385.23 1673.47 6402.01 1690.29 6402.01 1710.97 6402.01 1731.7 6385.23 1748.47 6364.51 1748.47 6343.8 1748.47 6327.01 1731.7 6327.01 1710.97 6327.01 1690.29 6343.8 1673.47 6364.51 1673.47" id="path632" fill="#FFFFFF"/><path d="M6364.51 1673.47C6385.23 1673.47 6402.01 1690.29 6402.01 1710.97 6402.01 1731.7 6385.23 1748.47 6364.51 1748.47 6343.8 1748.47 6327.01 1731.7 6327.01 1710.97 6327.01 1690.29 6343.8 1673.47 6364.51 1673.47Z" id="path634" stroke="#231F20" stroke-width="6.25" stroke-linecap="square" fill="none"/><path d="M6364.51 1848.47C6385.23 1848.47 6402.01 1865.29 6402.01 1885.97 6402.01 1906.7 6385.23 1923.47 6364.51 1923.47 6343.8 1923.47 6327.01 1906.7 6327.01 1885.97 6327.01 1865.29 6343.8 1848.47 6364.51 1848.47" id="path636" fill="#FFFFFF"/><path d="M6364.51 1848.47C6385.23 1848.47 6402.01 1865.29 6402.01 1885.97 6402.01 1906.7 6385.23 1923.47 6364.51 1923.47 6343.8 1923.47 6327.01 1906.7 6327.01 1885.97 6327.01 1865.29 6343.8 1848.47 6364.51 1848.47Z" id="path638" stroke="#231F20" stroke-width="6.25" stroke-linecap="square" fill="none"/><path d="M2957.11 2687.31 3055.73 2723.04 2957.11 2510.75 2855.73 2723.04 2957.11 2687.31" id="path640" fill="#231F20"/><path d="M2247.86 1988.17C2268.57 1988.17 2285.36 2004.97 2285.36 2025.67 2285.36 2046.4 2268.57 2063.17 2247.86 2063.17 2227.15 2063.17 2210.36 2046.4 2210.36 2025.67 2210.36 2004.97 2227.15 1988.17 2247.86 1988.17" id="path642" fill="#FFFFFF"/><path d="M2247.86 1988.17C2268.57 1988.17 2285.36 2004.97 2285.36 2025.67 2285.36 2046.4 2268.57 2063.17 2247.86 2063.17 2227.15 2063.17 2210.36 2046.4 2210.36 2025.67 2210.36 2004.97 2227.15 1988.17 2247.86 1988.17Z" id="path644" stroke="#231F20" stroke-width="6.25" stroke-linecap="square" fill="none"/><path d="M3222.86 1988.17C3243.57 1988.17 3260.36 2004.97 3260.36 2025.67 3260.36 2046.4 3243.57 2063.17 3222.86 2063.17 3202.15 2063.17 3185.36 2046.4 3185.36 2025.67 3185.36 2004.97 3202.15 1988.17 3222.86 1988.17" id="path646" fill="#FFFFFF"/><path d="M3222.86 1988.17C3243.57 1988.17 3260.36 2004.97 3260.36 2025.67 3260.36 2046.4 3243.57 2063.17 3222.86 2063.17 3202.15 2063.17 3185.36 2046.4 3185.36 2025.67 3185.36 2004.97 3202.15 1988.17 3222.86 1988.17Z" id="path648" stroke="#231F20" stroke-width="6.25" stroke-linecap="square" fill="none"/><path d="M2780.55 1002.9 2879.17 1038.7 2780.55 826.402 2679.17 1038.7 2780.55 1002.9" id="path650" fill="#231F20"/><path d="M3544.19 3450.03C3564.91 3450.03 3581.69 3466.85 3581.69 3487.53 3581.69 3508.26 3564.91 3525.03 3544.19 3525.03 3523.49 3525.03 3506.69 3508.26 3506.69 3487.53 3506.69 3466.85 3523.49 3450.03 3544.19 3450.03" id="path652" fill="#FFFFFF"/><path d="M3544.19 3450.03C3564.91 3450.03 3581.69 3466.85 3581.69 3487.53 3581.69 3508.26 3564.91 3525.03 3544.19 3525.03 3523.49 3525.03 3506.69 3508.26 3506.69 3487.53 3506.69 3466.85 3523.49 3450.03 3544.19 3450.03Z" id="path654" stroke="#231F20" stroke-width="6.25" stroke-linecap="square" fill="none"/><path d="M3544.19 3274.08C3564.91 3274.08 3581.69 3290.85 3581.69 3311.58 3581.69 3332.28 3564.91 3349.08 3544.19 3349.08 3523.49 3349.08 3506.69 3332.28 3506.69 3311.58 3506.69 3290.85 3523.49 3274.08 3544.19 3274.08" id="path656" fill="#FFFFFF"/><path d="M3544.19 3274.08C3564.91 3274.08 3581.69 3290.85 3581.69 3311.58 3581.69 3332.28 3564.91 3349.08 3544.19 3349.08 3523.49 3349.08 3506.69 3332.28 3506.69 3311.58 3506.69 3290.85 3523.49 3274.08 3544.19 3274.08Z" id="path658" stroke="#231F20" stroke-width="6.25" stroke-linecap="square" fill="none"/><path d="M349.379 2620.63C446.023 2620.63 524.379 2698.98 524.379 2795.63 524.379 2892.29 446.023 2970.63 349.379 2970.63 252.73 2970.63 174.379 2892.29 174.379 2795.63 174.379 2698.98 252.73 2620.63 349.379 2620.63" id="path660" fill="#FFFFFF"/><path d="M349.379 2620.63C446.023 2620.63 524.379 2698.98 524.379 2795.63 524.379 2892.29 446.023 2970.63 349.379 2970.63 252.73 2970.63 174.379 2892.29 174.379 2795.63 174.379 2698.98 252.73 2620.63 349.379 2620.63Z" id="path662" stroke="#231F20" stroke-width="6.25" fill="none"/><g id="g664" transform="scale(10 10)"><text id="text668" fill="#231F20" font-family="Arial" font-weight="400" font-size="25" transform="matrix(1 0 0 -1 27.9859 270.813)"><tspan x="0" y="0">4</tspan></text></g><path d="M349.379 1733.13C446.023 1733.13 524.379 1811.48 524.379 1908.13 524.379 2004.79 446.023 2083.13 349.379 2083.13 252.73 2083.13 174.379 2004.79 174.379 1908.13 174.379 1811.48 252.73 1733.13 349.379 1733.13" id="path670" fill="#FFFFFF"/><path d="M349.379 1733.13C446.023 1733.13 524.379 1811.48 524.379 1908.13 524.379 2004.79 446.023 2083.13 349.379 2083.13 252.73 2083.13 174.379 2004.79 174.379 1908.13 174.379 1811.48 252.73 1733.13 349.379 1733.13Z" id="path672" stroke="#231F20" stroke-width="6.25" fill="none"/><g id="g674" transform="scale(10 10)"><text id="text678" fill="#231F20" font-family="Arial" font-weight="400" font-size="25" transform="matrix(1 0 0 -1 27.9859 182.063)"><tspan x="0" y="0">5</tspan></text></g><path d="M2514.92 3907.94 2613.54 3943.66 2514.92 3731.38 2413.54 3943.66 2514.92 3907.94" id="path680" fill="#231F20"/><path d="M145.277 10160.6 1234.34 10160.6 1234.34 10774.7 1087.47 10770C1087.47 10837.2 1037.47 10837.2 1037.47 10837.2L937.465 10837.2C937.465 10837.2 887.465 10834.1 887.465 10770L145.277 10770 145.277 10160.6" id="path682" fill="#FFFFFF"/><path d="M145.277 10160.6 1234.34 10160.6 1234.34 10774.7 1087.47 10770C1087.47 10837.2 1037.47 10837.2 1037.47 10837.2L937.465 10837.2C937.465 10837.2 887.465 10834.1 887.465 10770L145.277 10770Z" id="path684" stroke="#231F20" stroke-width="12.5" stroke-linecap="square" fill="none"/><g id="g686" transform="scale(10 10)"><text id="text692" fill="#231F20" font-family="Arial" font-weight="400" font-size="17.5" transform="matrix(1 0 0 -1 26.2055 1049.27)"><tspan x="0 14.1371 24.3948 34.6525 44.9102 55.1679 61.5205 66.9076 77.1653" y="0">Geboorte-</tspan><tspan x="24.1699 34.4276 43.7026 49.0897" y="17.75">akte</tspan></text></g><path d="M1618.26 10631.5C1539.99 10631.5 1476.53 10568 1476.53 10489.8L1476.53 10418.9C1476.53 10340.6 1539.99 10277.1 1618.26 10277.1L3472.52 10277.1C3550.8 10277.1 3614.25 10340.6 3614.25 10418.9L3614.25 10489.8C3614.25 10568 3550.8 10631.5 3472.52 10631.5L1618.26 10631.5" id="path694" fill="#FFFFFF"/><path d="M1618.26 10631.5C1539.99 10631.5 1476.53 10568 1476.53 10489.8L1476.53 10418.9C1476.53 10340.6 1539.99 10277.1 1618.26 10277.1L3472.52 10277.1C3550.8 10277.1 3614.25 10340.6 3614.25 10418.9L3614.25 10489.8C3614.25 10568 3550.8 10631.5 3472.52 10631.5Z" id="path696" stroke="#231F20" stroke-width="8.75" fill="none"/><g id="g698" transform="scale(10 10)"><text id="text702" fill="#231F20" font-family="Arial" font-weight="400" font-size="17.5" transform="matrix(1 0 0 -1 155.322 1040.32)"><tspan x="0 15.1026 25.3603 35.618 44.893 50.2801 61.4948 71.7525 82.0102 92.2679 97.6549 107.913 112.326 117.713 123.1 133.357 142.632 148.019" y="0">Maak Tb01 uit akte</tspan></text></g><path d="M3614.25 10414.8C3634.97 10414.8 3651.75 10431.5 3651.75 10452.3 3651.75 10473 3634.97 10489.8 3614.25 10489.8 3593.55 10489.8 3576.75 10473 3576.75 10452.3 3576.75 10431.5 3593.55 10414.8 3614.25 10414.8" id="path704" fill="#FFFFFF"/><path d="M3614.25 10414.8C3634.97 10414.8 3651.75 10431.5 3651.75 10452.3 3651.75 10473 3634.97 10489.8 3614.25 10489.8 3593.55 10489.8 3576.75 10473 3576.75 10452.3 3576.75 10431.5 3593.55 10414.8 3614.25 10414.8Z" id="path706" stroke="#231F20" stroke-width="6.25" stroke-linecap="square" fill="none"/><path d="M5478.72 8564.66 6617.97 8559.32 6805.02 8560.27C6883.33 8560.27 6946.75 8623.71 6946.75 8701.99L6945.61 8902.88 6945.61 8816.71" id="path708" stroke="#231F20" stroke-width="8.75" fill="none"/><path d="M4088.3 8272.65 4087.7 8417.68C4087.7 8495.95 4151.16 8559.4 4229.42 8559.4L4430.3 8558.28" id="path710" stroke="#231F20" stroke-width="8.75" fill="none"/><path d="M5563.17 8560.28 5785.04 8618.08 5785.04 8505.58Z" id="path712" fill="#231F20"/><path d="M5491.14 8297.09 5491.14 8834.59 4416.14 8834.59 4416.14 8297.09 5491.14 8297.09" id="path714" fill="#FFFFFF"/><path d="M5491.14 8297.09 5491.14 8834.59 4416.14 8834.59 4416.14 8297.09Z" id="path716" stroke="#231F20" stroke-width="25" fill="none"/><path d="M4416.14 8834.59 4671.2 8579.56 5232.5 8579.56 5489.34 8836.41" id="path718" stroke="#231F20" stroke-width="8.75" fill="none"/><g id="g720" transform="scale(10 10)"><text id="text726" fill="#231F20" font-family="Arial" font-weight="400" font-size="15" transform="matrix(1 0 0 -1 479.816 863.519)"><tspan x="0 9.52257 14.0501 22.7523" y="0">Tf01</tspan><tspan x="-16.782 -5.49946 3.29278 12.0851 20.8774 25.4948 31.2696 42.5521" y="25">Code "U"</tspan></text></g><path d="M7273.34 8988.85C7312.5 8988.85 7344.24 8957.14 7344.24 8917.99L7344.24 8881.48C7344.24 8842.34 7312.5 8810.6 7273.34 8810.6L6622.42 8810.6C6583.28 8810.6 6551.57 8842.34 6551.57 8881.48L6551.57 8917.99C6551.57 8957.14 6583.28 8988.85 6622.42 8988.85L7273.34 8988.85" id="path728" fill="#FFFFFF"/><path d="M7273.34 8988.85C7312.5 8988.85 7344.24 8957.14 7344.24 8917.99L7344.24 8881.48C7344.24 8842.34 7312.5 8810.6 7273.34 8810.6L6622.42 8810.6C6583.28 8810.6 6551.57 8842.34 6551.57 8881.48L6551.57 8917.99C6551.57 8957.14 6583.28 8988.85 6622.42 8988.85Z" id="path730" stroke="#231F20" stroke-width="8.75" fill="none"/><g id="g732" transform="scale(10 10)"><text id="text736" fill="#231F20" font-family="Arial" font-weight="400" font-size="12" transform="matrix(1 0 0 -1 666.341 885.719)"><tspan x="0 9.02596 12.052 19.0857 22.7798 26.4738 33.5076 40.5413 43.5674 50.6012" y="0">Niet uniek</tspan></text></g><path d="M6945.83 8772.65C6966.53 8772.65 6983.33 8789.43 6983.33 8810.15 6983.33 8830.86 6966.53 8847.65 6945.83 8847.65 6925.12 8847.65 6908.33 8830.86 6908.33 8810.15 6908.33 8789.43 6925.12 8772.65 6945.83 8772.65" id="path738" fill="#FFFFFF"/><path d="M6945.83 8772.65C6966.53 8772.65 6983.33 8789.43 6983.33 8810.15 6983.33 8830.86 6966.53 8847.65 6945.83 8847.65 6925.12 8847.65 6908.33 8830.86 6908.33 8810.15 6908.33 8789.43 6925.12 8772.65 6945.83 8772.65Z" id="path740" stroke="#231F20" stroke-width="6.25" stroke-linecap="square" fill="none"/><path d="M6943.32 4147.58 6943.32 3508.37" id="path742" stroke="#231F20" stroke-width="25" stroke-linecap="square" fill="none"/><path d="M6943.32 3639.28 7041.95 3674.99 6943.32 3462.71 6841.95 3674.99 6943.32 3639.28" id="path744" fill="#231F20"/></g></g></svg>