<svg width="579" height="127" xmlns="http://www.w3.org/2000/svg" xmlns:xlink="http://www.w3.org/1999/xlink" overflow="hidden"><defs><clipPath id="clip0"><rect x="144" y="499" width="579" height="127"/></clipPath></defs><g clip-path="url(#clip0)" transform="translate(-144 -499)"><path d="M435.5 559.5 435.5 575.5" stroke="#000000" stroke-width="0.831391" stroke-miterlimit="8" fill="none" fill-rule="evenodd"/><path d="M385.5 559.5 385.5 575.5" stroke="#000000" stroke-width="0.831391" stroke-miterlimit="8" fill="none" fill-rule="evenodd"/><path d="M152.5 601.5 685.5 601.5 685.5 617.5 152.5 617.5Z" stroke="#000000" stroke-width="0.831391" stroke-miterlimit="8" fill="none" fill-rule="evenodd"/><path d="M152.5 559.5 668.5 559.5 668.5 575.5 152.5 575.5Z" stroke="#000000" stroke-width="0.831391" stroke-miterlimit="8" fill="none" fill-rule="evenodd"/><path d="M152.5 516.5 718.5 516.5 718.5 533.5 152.5 533.5Z" stroke="#000000" stroke-width="0.831391" stroke-miterlimit="8" fill="none" fill-rule="evenodd"/><text font-family="Arial,Arial_MSFontService,Arial" font-weight="400" font-size="13" transform="translate(156.205 530)">0<tspan font-size="13" x="16.6547" y="0">0</tspan><tspan font-size="13" x="33.3095" y="0">0</tspan><tspan font-size="13" x="49.9643" y="0">9</tspan><tspan font-size="13" x="66.6194" y="0">2</tspan><tspan font-size="13" x="83.2742" y="0">0</tspan><tspan font-size="13" x="99.929" y="0">1</tspan><tspan font-size="13" x="116.584" y="0">0</tspan><tspan font-size="13" x="133.239" y="0">5</tspan><tspan font-size="13" x="149.893" y="0">5</tspan><tspan font-size="13" x="166.548" y="0">0</tspan><tspan font-size="13" x="183.202" y="0">1</tspan><tspan font-size="13" x="199.857" y="0">1</tspan><tspan font-size="13" x="216.512" y="0">0</tspan><tspan font-size="13" x="233.167" y="0">0</tspan><tspan font-size="13" x="249.822" y="0">1</tspan><tspan font-size="13" x="266.476" y="0">0</tspan><tspan font-size="13" x="283.131" y="0">2</tspan><tspan font-size="13" x="299.786" y="0">6</tspan><tspan font-size="13" x="316.441" y="0">3</tspan><tspan font-size="13" x="333.095" y="0">5</tspan><tspan font-size="13" x="349.75" y="0">7</tspan><tspan font-size="13" x="366.405" y="0">8</tspan><tspan font-size="13" x="383.06" y="0">9</tspan><tspan font-size="13" x="399.715" y="0">2</tspan><tspan font-size="13" x="416.369" y="0">8</tspan><tspan font-size="13" x="433.024" y="0">5</tspan><tspan font-size="13" x="449.679" y="0">0</tspan><tspan font-size="13" x="466.334" y="0">2</tspan><tspan font-size="13" x="482.989" y="0">1</tspan><tspan font-size="13" x="499.643" y="0">0</tspan><tspan font-size="13" x="516.298" y="0">0</tspan><tspan font-size="13" x="532.953" y="0">1</tspan><tspan font-size="13" x="549.608" y="0">0</tspan><tspan font-size="13" x="0.373962" y="42">J</tspan><tspan font-size="13" x="16.6547" y="42">a</tspan><tspan font-size="13" x="33.3095" y="42">n</tspan><tspan font-size="13" x="64.036" y="42">W</tspan><tspan font-size="13" x="85.4987" y="42">i</tspan><tspan font-size="13" x="102.153" y="42">l</tspan><tspan font-size="13" x="118.808" y="42">l</tspan><tspan font-size="13" x="133.239" y="42">e</tspan><tspan font-size="13" x="148.049" y="42">m</tspan><tspan font-size="13" x="166.548" y="42">0</tspan><tspan font-size="13" x="183.202" y="42">2</tspan><tspan font-size="13" x="199.857" y="42">3</tspan><tspan font-size="13" x="216.512" y="42">0</tspan><tspan font-size="13" x="233.167" y="42">0</tspan><tspan font-size="13" x="249.822" y="42">0</tspan><tspan font-size="13" x="266.476" y="42">2</tspan><tspan font-size="13" x="283.131" y="42">d</tspan><tspan font-size="13" x="299.786" y="42">e</tspan><tspan font-size="13" x="316.441" y="42">0</tspan><tspan font-size="13" x="333.095" y="42">2</tspan><tspan font-size="13" x="349.75" y="42">4</tspan><tspan font-size="13" x="366.405" y="42">0</tspan><tspan font-size="13" x="383.06" y="42">0</tspan><tspan font-size="13" x="399.715" y="42">0</tspan><tspan font-size="13" x="416.369" y="42">5</tspan><tspan font-size="13" x="432.286" y="42">V</tspan><tspan font-size="13" x="451.166" y="42">r</tspan><tspan font-size="13" x="468.559" y="42">i</tspan><tspan font-size="13" x="482.989" y="42">e</tspan><tspan font-size="13" x="500.018" y="42">s</tspan><tspan font-size="13" x="0" y="84">0</tspan><tspan font-size="13" x="16.6547" y="84">4</tspan><tspan font-size="13" x="33.3095" y="84">0</tspan><tspan font-size="13" x="49.9643" y="84">1</tspan><tspan font-size="13" x="66.6194" y="84">1</tspan><tspan font-size="13" x="83.2742" y="84">0</tspan><tspan font-size="13" x="99.929" y="84">5</tspan><tspan font-size="13" x="116.584" y="84">1</tspan><tspan font-size="13" x="133.239" y="84">0</tspan><tspan font-size="13" x="149.893" y="84">0</tspan><tspan font-size="13" x="166.548" y="84">0</tspan><tspan font-size="13" x="183.202" y="84">4</tspan><tspan font-size="13" x="199.857" y="84">0</tspan><tspan font-size="13" x="216.512" y="84">0</tspan><tspan font-size="13" x="266.476" y="84">0</tspan><tspan font-size="13" x="283.131" y="84">4</tspan><tspan font-size="13" x="299.786" y="84">0</tspan><tspan font-size="13" x="316.441" y="84">1</tspan><tspan font-size="13" x="333.095" y="84">1</tspan><tspan font-size="13" x="349.75" y="84">0</tspan><tspan font-size="13" x="366.405" y="84">5</tspan><tspan font-size="13" x="383.06" y="84">1</tspan><tspan font-size="13" x="399.715" y="84">0</tspan><tspan font-size="13" x="416.369" y="84">0</tspan><tspan font-size="13" x="433.024" y="84">0</tspan><tspan font-size="13" x="449.679" y="84">4</tspan><tspan font-size="13" x="466.334" y="84">0</tspan><tspan font-size="13" x="482.989" y="84">0</tspan><tspan font-size="13" x="499.643" y="84">5</tspan><tspan font-size="13" x="516.298" y="84">6</tspan></text><path d="M235.5 516.5 235.5 533.5" stroke="#000000" stroke-width="0.831391" stroke-miterlimit="8" fill="none" fill-rule="evenodd"/><path d="M268.5 516.5 268.5 533.5" stroke="#000000" stroke-width="0.831391" stroke-miterlimit="8" fill="none" fill-rule="evenodd"/><path d="M318.5 516.5 318.5 533.5" stroke="#000000" stroke-width="0.831391" stroke-miterlimit="8" fill="none" fill-rule="evenodd"/><path d="M385.5 516.5 385.5 533.5" stroke="#000000" stroke-width="0.831391" stroke-miterlimit="8" fill="none" fill-rule="evenodd"/><path d="M435.5 516.5 435.5 533.5" stroke="#000000" stroke-width="0.831391" stroke-miterlimit="8" fill="none" fill-rule="evenodd"/><text font-family="Arial,Arial_MSFontService,Arial" font-weight="400" font-size="10" transform="translate(319.796 514)">ELN<tspan font-size="10" x="-166.548" y="0">BL</tspan><tspan font-size="10" x="-83.2739" y="0">CAN</tspan><tspan font-size="10" x="-49.9644" y="0">CAL</tspan><tspan font-size="10" x="66.6192" y="0">ELL</tspan><tspan font-size="10" x="116.584" y="0">ELI</tspan></text><path d="M601.5 516.5 601.5 533.5" stroke="#000000" stroke-width="0.831391" stroke-miterlimit="8" fill="none" fill-rule="evenodd"/><path d="M668.5 516.5 668.5 533.5" stroke="#000000" stroke-width="0.831391" stroke-miterlimit="8" fill="none" fill-rule="evenodd"/><text font-family="Arial,Arial_MSFontService,Arial" font-weight="400" font-size="10" transform="translate(602.928 514)">ELN<tspan font-size="10" x="66.6192" y="0">ELL</tspan></text><path d="M318.5 559.5 318.5 575.5" stroke="#000000" stroke-width="0.831391" stroke-miterlimit="8" fill="none" fill-rule="evenodd"/><text font-family="Arial,Arial_MSFontService,Arial" font-weight="400" font-size="10" transform="translate(153.249 556)">ELI<tspan font-size="10" x="166.548" y="0">ELN</tspan><tspan font-size="10" x="233.167" y="0">ELL</tspan><tspan font-size="10" x="283.131" y="0">ELI</tspan></text><path d="M468.5 559.5 468.5 575.5" stroke="#000000" stroke-width="0.831391" stroke-miterlimit="8" fill="none" fill-rule="evenodd"/><path d="M535.5 559.5 535.5 575.5" stroke="#000000" stroke-width="0.831391" stroke-miterlimit="8" fill="none" fill-rule="evenodd"/><path d="M585.5 559.5 585.5 575.5" stroke="#000000" stroke-width="0.831391" stroke-miterlimit="8" fill="none" fill-rule="evenodd"/><text font-family="Arial,Arial_MSFontService,Arial" font-weight="400" font-size="10" transform="translate(469.69 556)">ELN<tspan font-size="10" x="66.6192" y="0">ELL</tspan><tspan font-size="10" x="116.584" y="0">ELI</tspan></text><path d="M152.5 601.5 152.5 617.5" stroke="#000000" stroke-width="0.581942" stroke-miterlimit="8" fill="none" fill-rule="evenodd"/><text font-family="Arial,Arial_MSFontService,Arial" font-weight="400" font-size="10" transform="translate(153.249 598)">CAN</text><path d="M185.5 601.5 185.5 617.5" stroke="#000000" stroke-width="0.831391" stroke-miterlimit="8" fill="none" fill-rule="evenodd"/><path d="M235.5 601.5 235.5 617.5" stroke="#000000" stroke-width="0.831391" stroke-miterlimit="8" fill="none" fill-rule="evenodd"/><path d="M301.5 601.5 301.5 617.5" stroke="#000000" stroke-width="0.831391" stroke-miterlimit="8" fill="none" fill-rule="evenodd"/><path d="M351.5 601.5 351.5 617.5" stroke="#000000" stroke-width="0.831391" stroke-miterlimit="8" fill="none" fill-rule="evenodd"/><text font-family="Arial,Arial_MSFontService,Arial" font-weight="400" font-size="10" transform="translate(236.523 598)">ELN<tspan font-size="10" x="-49.9644" y="0">CAL</tspan><tspan font-size="10" x="66.6191" y="0">ELL</tspan><tspan font-size="10" x="116.584" y="0">ELI</tspan></text><path d="M418.5 601.5 418.5 617.5" stroke="#000000" stroke-width="0.831391" stroke-miterlimit="8" fill="none" fill-rule="evenodd"/><text font-family="Arial,Arial_MSFontService,Arial" font-weight="400" font-size="10" transform="translate(419.725 598)">CAN</text><path d="M451.5 601.5 451.5 617.5" stroke="#000000" stroke-width="0.831391" stroke-miterlimit="8" fill="none" fill-rule="evenodd"/><path d="M501.5 601.5 501.5 617.5" stroke="#000000" stroke-width="0.831391" stroke-miterlimit="8" fill="none" fill-rule="evenodd"/><path d="M568.5 601.5 568.5 617.5" stroke="#000000" stroke-width="0.831391" stroke-miterlimit="8" fill="none" fill-rule="evenodd"/><path d="M618.5 601.5 618.5 617.5" stroke="#000000" stroke-width="0.831391" stroke-miterlimit="8" fill="none" fill-rule="evenodd"/><text font-family="Arial,Arial_MSFontService,Arial" font-weight="400" font-size="10" transform="translate(502.999 598)">ELN<tspan font-size="10" x="-49.9644" y="0">CAL</tspan><tspan font-size="10" x="66.6192" y="0">ELL</tspan><tspan font-size="10" x="116.584" y="0">ELI</tspan><tspan font-size="13" x="-113.627" y="16">5</tspan><tspan font-size="13" x="-96.9036" y="16">2</tspan></text></g></svg>