<svg width="365" height="266" xmlns="http://www.w3.org/2000/svg" xmlns:xlink="http://www.w3.org/1999/xlink" overflow="hidden"><defs><clipPath id="clip0"><rect x="101" y="314" width="365" height="266"/></clipPath></defs><g clip-path="url(#clip0)" transform="translate(-101 -314)"><rect x="270" y="425" width="67" height="38" stroke="#000000" stroke-width="2" stroke-miterlimit="8" fill="none"/><text font-family="Arial,Arial_MSFontService,Arial" font-weight="700" font-size="13" transform="translate(288.417 449)">MBS</text><rect x="377" y="316" width="88" height="33" stroke="#000000" stroke-width="2" stroke-miterlimit="8" fill="none"/><text font-family="Arial,Arial_MSFontService,Arial" font-weight="700" font-size="11" transform="translate(387.8 330)">Eindsysteem</text><rect x="377" y="335" width="32" height="14" stroke="#000000" stroke-width="2" stroke-miterlimit="8" fill="none"/><text font-family="Arial,Arial_MSFontService,Arial" font-weight="700" font-size="11" transform="translate(384.834 346)">M<tspan font-size="11" x="8.83331" y="0">C</tspan></text><rect x="102" y="315" width="88" height="34" stroke="#000000" stroke-width="2" stroke-miterlimit="8" fill="none"/><text font-family="Arial,Arial_MSFontService,Arial" font-weight="700" font-size="11" transform="translate(113.033 329)">Eindsysteem</text><rect x="157" y="334" width="33" height="15" stroke="#000000" stroke-width="2" stroke-miterlimit="8" fill="none"/><text font-family="Arial,Arial_MSFontService,Arial" font-weight="700" font-size="11" transform="translate(165.4 345)">M<tspan font-size="11" x="8.83333" y="0">C</tspan></text><rect x="288" y="545" width="89" height="34" stroke="#000000" stroke-width="2" stroke-miterlimit="8" fill="none"/><text font-family="Arial,Arial_MSFontService,Arial" font-weight="700" font-size="11" transform="translate(299.367 571)">Eindsysteem</text><rect x="344" y="546" width="32" height="14" stroke="#000000" stroke-width="2" stroke-miterlimit="8" fill="none"/><text font-family="Arial,Arial_MSFontService,Arial" font-weight="700" font-size="11" transform="translate(351.734 556)">M<tspan font-size="11" x="8.83334" y="0">C</tspan></text><rect x="156" y="425" width="67" height="38" stroke="#000000" stroke-width="2" stroke-miterlimit="8" fill="none"/><text font-family="Arial,Arial_MSFontService,Arial" font-weight="700" font-size="13" transform="translate(174.75 449)">MTA</text><path d="M119.5 443C119.5 399.093 196.731 363.5 292 363.5 387.269 363.5 464.5 399.093 464.5 443 464.5 486.907 387.269 522.5 292 522.5 196.731 522.5 119.5 486.907 119.5 443Z" stroke="#000000" stroke-width="1.33333" stroke-miterlimit="8" fill="none" fill-rule="evenodd"/><rect x="132" y="487" width="89" height="34" fill="#FFFFFF"/><text font-family="Arial,Arial_MSFontService,Arial" font-weight="700" font-size="11" transform="translate(165.403 488)">BRP<tspan font-size="11" x="-21.42" y="13">Management</tspan><tspan font-size="11" x="-8.33333" y="26">Domein</tspan></text><path d="M178.288 350.948 300.987 422.902 300.312 424.052 177.613 352.099ZM177.752 354.498 174.5 349.5 180.45 349.898ZM300.848 420.502 304.1 425.5 298.15 425.102Z"/><path d="M4.00557-0.632252 43.5058-0.292634 43.4943 1.04065 3.99411 0.701032ZM5.31021 2.71242 0 0 5.35606-2.62071ZM42.1897-2.30402 47.4999 0.408399 42.1439 3.02911Z" transform="matrix(1 0 0 -1 223.5 444.908)"/><path d="M306.321 466.414 358.51 542.046 357.413 542.803 305.223 467.171ZM304.334 469.404 303.5 463.5 308.724 466.375ZM359.399 539.813 360.234 545.717 355.01 542.842Z"/><path d="M3.49319 2.0593 87.197 72.2523 86.3402 73.274 2.63645 3.08095ZM2.37311 5.47027 0 0 5.80009 1.38367ZM87.4604 69.8631 89.8335 75.3333 84.0334 73.9497Z" transform="matrix(-1 0 0 1 393.334 349.5)"/><rect x="216" y="382" width="26" height="12"/><text fill="#FFFFFF" font-family="Arial,Arial_MSFontService,Arial" font-weight="700" font-size="11" transform="translate(219.125 392)">sPd</text><rect x="331" y="388" width="27" height="12"/><text fill="#FFFFFF" font-family="Arial,Arial_MSFontService,Arial" font-weight="700" font-size="11" transform="translate(334.667 398)">sPd</text><rect x="305" y="498" width="55" height="12"/><text fill="#FFFFFF" font-family="Arial,Arial_MSFontService,Arial" font-weight="700" font-size="11" transform="translate(307.208 508)">turbo<tspan font-size="11" x="27.1667" y="0">-</tspan>sPd</text></g></svg>