<svg width="1949" height="1769" xmlns="http://www.w3.org/2000/svg" xmlns:xlink="http://www.w3.org/1999/xlink" xml:space="preserve" overflow="hidden"><g transform="matrix(1 0 0 1 0 -545)"><path d="M1.00003 547 761 547 761 2313 1.00003 2313Z" stroke="#000000" stroke-width="1.70738" stroke-miterlimit="8" fill="#E6E6E6" fill-rule="evenodd"/><path d="M1188 546 1948 546 1948 2312 1188 2312Z" stroke="#000000" stroke-width="1.70738" stroke-miterlimit="8" fill="#E6E6E6" fill-rule="evenodd"/><path d="M1037 753 1249 753" stroke="#000000" stroke-width="1.70738" stroke-miterlimit="8" fill="none" fill-rule="evenodd"/><path d="M904 2064 692 2065" stroke="#000000" stroke-width="1.70738" stroke-miterlimit="8" fill="none" fill-rule="evenodd"/><path d="M1320 2064 1038 2065" stroke="#000000" stroke-width="1.70738" stroke-miterlimit="8" fill="none" fill-rule="evenodd"/><path d="M1090 2063.3 1133 2052 1133 2074Z" fill-rule="evenodd"/><path d="M1548.78 1049 1548.78 1135.74 1549 1140.36C1549 1155.61 1536.59 1167.97 1521.29 1167.97L1491.97 1168 1038 1168" stroke="#000000" stroke-width="1.70738" stroke-miterlimit="8" fill="none" fill-rule="evenodd"/><path d="M578.5 2068.5 578.5 2171.5" stroke="#000000" stroke-width="4.87854" stroke-linecap="square" stroke-miterlimit="8" fill="none" fill-rule="evenodd"/><path d="M1357.5 1727.5 1357.5 2157.5" stroke="#000000" stroke-width="4.87854" stroke-linecap="square" stroke-miterlimit="8" fill="none" fill-rule="evenodd"/><path d="M795.117 1225 795 1196.68C795 1181.39 807.409 1169 822.715 1169L862 1169.22" stroke="#000000" stroke-width="1.70738" stroke-miterlimit="8" fill="none" fill-rule="evenodd"/><path d="M795.117 1089 795 1060.68C795 1045.39 807.409 1033 822.715 1033L862 1033.22" stroke="#000000" stroke-width="1.70738" stroke-miterlimit="8" fill="none" fill-rule="evenodd"/><path d="M795.117 1363 795 1334.68C795 1319.39 807.409 1307 822.715 1307L862 1307.22" stroke="#000000" stroke-width="1.70738" stroke-miterlimit="8" fill="none" fill-rule="evenodd"/><path d="M865.5 980.5 1075.5 980.5 1075.5 1085.5 865.5 1085.5Z" stroke="#000000" stroke-width="4.87854" stroke-miterlimit="8" fill="#FFFFFF" fill-rule="evenodd"/><path d="M865 979.35 914.906 1029 1024.74 1029 1075 979" stroke="#000000" stroke-width="1.70738" stroke-miterlimit="8" fill="none" fill-rule="evenodd"/><text font-family="Arial,Arial_MSFontService,sans-serif" font-weight="400" font-size="29" transform="matrix(1 0 0 1 936.705 1020)">Of11</text><text font-family="Arial,Arial_MSFontService,sans-serif" font-weight="400" font-size="29" transform="matrix(1 0 0 1 907.422 1069)">Code "V"</text><path d="M1090 1033.31 1133 1022 1133 1044Z" fill-rule="evenodd"/><path d="M656 753 868 753" stroke="#000000" stroke-width="1.70738" stroke-miterlimit="8" fill="none" fill-rule="evenodd"/><path d="M823 752.303 780 741 780 763Z" fill-rule="evenodd"/><path d="M864.5 702.5 1074.5 702.5 1074.5 807.5 864.5 807.5Z" stroke="#000000" stroke-width="4.87854" stroke-miterlimit="8" fill="#FFFFFF" fill-rule="evenodd"/><text font-family="Arial,Arial_MSFontService,sans-serif" font-weight="400" font-size="29" transform="matrix(1 0 0 1 931.184 743)">Og11</text><path d="M864 702.35 913.67 752 1022.98 752 1073 702" stroke="#000000" stroke-width="1.70738" stroke-miterlimit="8" fill="none" fill-rule="evenodd"/><path d="M1135 752.303 1092 741 1092 763Z" fill-rule="evenodd"/><path d="M1090 892.303 1133 881 1133 903Z" fill-rule="evenodd"/><path d="M865.5 841.5 1075.5 841.5 1075.5 946.5 865.5 946.5Z" stroke="#000000" stroke-width="4.87854" stroke-miterlimit="8" fill="#FFFFFF" fill-rule="evenodd"/><path d="M865 841.355 914.906 891 1024.74 891 1075 841" stroke="#000000" stroke-width="1.70738" stroke-miterlimit="8" fill="none" fill-rule="evenodd"/><path d="M1548.5 783.5 1548.5 949.5" stroke="#000000" stroke-width="4.87854" stroke-linecap="square" stroke-miterlimit="8" fill="none" fill-rule="evenodd"/><path d="M1755.78 807 1755.78 859.547 1756 864.198C1756 879.536 1743.59 891.971 1728.29 891.971L1699 892 1072 892" stroke="#000000" stroke-width="1.70738" stroke-miterlimit="8" fill="none" fill-rule="evenodd"/><path d="M1842.33 720C1857.61 720 1870 732.358 1870 747.6L1870 761.4C1870 776.646 1857.61 789 1842.33 789L1272.67 789C1257.39 789 1245 776.646 1245 761.4L1245 747.6C1245 732.358 1257.39 720 1272.67 720L1842.33 720Z" stroke="#000000" stroke-width="1.70738" stroke-miterlimit="8" fill="#FFFFFF" fill-rule="evenodd"/><text font-family="Arial,Arial_MSFontService,sans-serif" font-weight="400" font-size="35" transform="matrix(1 0 0 1 1273.25 767)">Zoek persoon in PL</text><text font-family="Arial,Arial_MSFontService,sans-serif" font-weight="400" font-size="35" transform="matrix(1 0 0 1 1578.04 767)">-</text><text font-family="Arial,Arial_MSFontService,sans-serif" font-weight="400" font-size="35" transform="matrix(1 0 0 1 1589.5 767)">bestand</text><path d="M1613.15 780C1620.8 780 1627 786.229 1627 793.914L1627 801.086C1627 808.769 1620.8 815 1613.15 815L1485.85 815C1478.2 815 1472 808.769 1472 801.086L1472 793.914C1472 786.229 1478.2 780 1485.85 780L1613.15 780Z" stroke="#000000" stroke-width="1.70738" stroke-miterlimit="8" fill="#FFFFFF" fill-rule="evenodd"/><text font-family="Arial,Arial_MSFontService,sans-serif" font-weight="400" font-size="23" transform="matrix(1 0 0 1 1490.31 807)">Niet aanw.</text><path d="M865.5 1118.5 1075.5 1118.5 1075.5 1223.5 865.5 1223.5Z" stroke="#000000" stroke-width="4.87854" stroke-miterlimit="8" fill="#FFFFFF" fill-rule="evenodd"/><path d="M865 1118.35 914.906 1168 1024.74 1168 1075 1118" stroke="#000000" stroke-width="1.70738" stroke-miterlimit="8" fill="none" fill-rule="evenodd"/><text font-family="Arial,Arial_MSFontService,sans-serif" font-weight="400" font-size="29" transform="matrix(1 0 0 1 936.969 882)">Of11</text><text font-family="Arial,Arial_MSFontService,sans-serif" font-weight="400" font-size="29" transform="matrix(1 0 0 1 906.613 930)">Code "U"</text><text font-family="Arial,Arial_MSFontService,sans-serif" font-weight="400" font-size="29" transform="matrix(1 0 0 1 936.705 1159)">Of11</text><text font-family="Arial,Arial_MSFontService,sans-serif" font-weight="400" font-size="29" transform="matrix(1 0 0 1 905.798 1208)">Code "G"</text><path d="M1756.78 1049 1756.78 1238.06 1757 1277.29C1757 1292.58 1744.6 1304.97 1729.29 1304.97L1700 1305 1073 1305" stroke="#000000" stroke-width="1.70738" stroke-miterlimit="8" fill="none" fill-rule="evenodd"/><path d="M1842.33 962C1857.61 962 1870 974.536 1870 990.005L1870 1004C1870 1019.47 1857.61 1032 1842.33 1032L1272.67 1032C1257.39 1032 1245 1019.47 1245 1004L1245 990.005C1245 974.536 1257.39 962 1272.67 962L1842.33 962Z" stroke="#000000" stroke-width="1.70738" stroke-miterlimit="8" fill="#FFFFFF" fill-rule="evenodd"/><text font-family="Arial,Arial_MSFontService,sans-serif" font-weight="400" font-size="35" transform="matrix(1 0 0 1 1273.25 1010)">Zoek persoon in verwijsbestand</text><path d="M1091 1168.31 1135 1157 1135 1179Z" fill-rule="evenodd"/><path d="M864.5 1257.5 1075.5 1257.5 1075.5 1362.5 864.5 1362.5Z" stroke="#000000" stroke-width="4.87854" stroke-miterlimit="8" fill="#FFFFFF" fill-rule="evenodd"/><text font-family="Arial,Arial_MSFontService,sans-serif" font-weight="400" font-size="29" transform="matrix(1 0 0 1 936.664 1297)">Of11</text><text font-family="Arial,Arial_MSFontService,sans-serif" font-weight="400" font-size="29" transform="matrix(1 0 0 1 906.308 1346)">Code "U"</text><path d="M1091 1304.3 1134 1293 1134 1315Z" fill-rule="evenodd"/><path d="M864 1256.35 913.907 1306 1023.74 1306 1074 1256" stroke="#000000" stroke-width="1.70738" stroke-miterlimit="8" fill="none" fill-rule="evenodd"/><path d="M1842.33 1360C1857.61 1360 1870 1372.53 1870 1388L1870 1402C1870 1417.46 1857.61 1430 1842.33 1430L1272.67 1430C1257.39 1430 1245 1417.46 1245 1402L1245 1388C1245 1372.53 1257.39 1360 1272.67 1360L1842.33 1360Z" stroke="#000000" stroke-width="1.70738" stroke-miterlimit="8" fill="#FFFFFF" fill-rule="evenodd"/><text font-family="Arial,Arial_MSFontService,sans-serif" font-weight="400" font-size="35" transform="matrix(1 0 0 1 1273.25 1408)">Onderzoek status gevonden PL</text><path d="M709 2014.31 753.001 2003 753.001 2025Z" fill-rule="evenodd"/><path d="M1842.33 2025C1857.61 2025 1870 2037.36 1870 2052.6L1870 2066.4C1870 2081.64 1857.61 2094 1842.33 2094L1272.67 2094C1257.39 2094 1245 2081.64 1245 2066.4L1245 2052.6C1245 2037.36 1257.39 2025 1272.67 2025L1842.33 2025Z" stroke="#000000" stroke-width="1.70738" stroke-miterlimit="8" fill="#FFFFFF" fill-rule="evenodd"/><text font-family="Arial,Arial_MSFontService,sans-serif" font-weight="400" font-size="35" transform="matrix(1 0 0 1 1273.25 2072)">Neem verblijfstitel op</text><path d="M864.5 2013.5 1074.5 2013.5 1074.5 2118.5 864.5 2118.5Z" stroke="#000000" stroke-width="4.87854" stroke-miterlimit="8" fill="#FFFFFF" fill-rule="evenodd"/><path d="M864 2013.35 913.67 2063 1022.98 2063 1073 2013" stroke="#000000" stroke-width="1.70738" stroke-miterlimit="8" fill="none" fill-rule="evenodd"/><text font-family="Arial,Arial_MSFontService,sans-serif" font-weight="400" font-size="29" transform="matrix(1 0 0 1 941.792 2054)">Null</text><path d="M709 2063.3 753.001 2052 753.001 2074Z" fill-rule="evenodd"/><path d="M491.5 765.5 491.5 1945.5" stroke="#000000" stroke-width="4.87854" stroke-linecap="square" stroke-miterlimit="8" fill="none" fill-rule="evenodd"/><path d="M664.305 2192C679.603 2192 692 2204.36 692 2219.6L692 2233.41C692 2248.64 679.603 2261 664.305 2261L232.695 2261C217.399 2261 205 2248.64 205 2233.41L205 2219.6C205 2204.36 217.399 2192 232.695 2192L664.305 2192Z" stroke="#000000" stroke-width="1.70738" stroke-miterlimit="8" fill="#FFFFFF" fill-rule="evenodd"/><path d="M1704.3 2192C1719.6 2192 1732 2204.36 1732 2219.6L1732 2233.41C1732 2248.64 1719.6 2261 1704.3 2261L1272.69 2261C1257.4 2261 1245 2248.64 1245 2233.41L1245 2219.6C1245 2204.36 1257.4 2192 1272.69 2192L1704.3 2192Z" stroke="#000000" stroke-width="1.70738" stroke-miterlimit="8" fill="#FFFFFF" fill-rule="evenodd"/><text font-family="Arial,Arial_MSFontService,sans-serif" font-weight="400" font-size="35" transform="matrix(1 0 0 1 216.231 2244)">NORMAAL EINDE CYCLUS</text><text font-family="Arial,Arial_MSFontService,sans-serif" font-weight="400" font-size="35" transform="matrix(1 0 0 1 1257.02 2244)">NORMAAL EINDE CYCLUS</text><path d="M388.5 2103.5 388.5 2171.5 91.4999 2171.5" stroke="#000000" stroke-width="4.87854" stroke-linecap="square" stroke-miterlimit="8" fill="none" fill-rule="evenodd"/><path d="M1807.5 790.5 1807.5 859.5 1842.5 859.5" stroke="#000000" stroke-width="4.87854" stroke-linecap="square" stroke-miterlimit="8" fill="none" fill-rule="evenodd"/><path d="M1807.5 1033.5 1807.5 1101.5 1842.5 1101.5" stroke="#000000" stroke-width="4.87854" stroke-linecap="square" stroke-miterlimit="8" fill="none" fill-rule="evenodd"/><path d="M1821.14 780C1828.79 780 1835 786.229 1835 793.914L1835 801.086C1835 808.769 1828.79 815 1821.14 815L1693.86 815C1686.21 815 1680 808.769 1680 801.086L1680 793.914C1680 786.229 1686.21 780 1693.86 780L1821.14 780Z" stroke="#000000" stroke-width="1.70738" stroke-miterlimit="8" fill="#FFFFFF" fill-rule="evenodd"/><text font-family="Arial,Arial_MSFontService,sans-serif" font-weight="400" font-size="23" transform="matrix(1 0 0 1 1701.35 807)">Niet uniek</text><path d="M1821.14 1022C1828.79 1022 1835 1028.23 1835 1035.92L1835 1043.08C1835 1050.77 1828.79 1057 1821.14 1057L1693.86 1057C1686.21 1057 1680 1050.77 1680 1043.08L1680 1035.92C1680 1028.23 1686.21 1022 1693.86 1022L1821.14 1022Z" stroke="#000000" stroke-width="1.70738" stroke-miterlimit="8" fill="#FFFFFF" fill-rule="evenodd"/><text font-family="Arial,Arial_MSFontService,sans-serif" font-weight="400" font-size="23" transform="matrix(1 0 0 1 1701.35 1050)">Niet uniek</text><path d="M1807.5 1431.5 1807.5 1500.5 1842.5 1500.5" stroke="#000000" stroke-width="4.87854" stroke-linecap="square" stroke-miterlimit="8" fill="none" fill-rule="evenodd"/><path d="M1821.14 1420C1828.79 1420 1835 1426.23 1835 1433.92L1835 1441.08C1835 1448.77 1828.79 1455 1821.14 1455L1693.86 1455C1686.21 1455 1680 1448.77 1680 1441.08L1680 1433.92C1680 1426.23 1686.21 1420 1693.86 1420L1821.14 1420Z" stroke="#000000" stroke-width="1.70738" stroke-miterlimit="8" fill="#FFFFFF" fill-rule="evenodd"/><text font-family="Arial,Arial_MSFontService,sans-serif" font-weight="400" font-size="23" transform="matrix(1 0 0 1 1686.65 1448)">Geblokkeerd</text><path d="M1245.5 600.051C1245.5 564.5 1279.74 564.5 1279.74 564.5L1834.95 564.5C1834.95 564.5 1869.5 564.197 1869.5 598.836 1869.5 633.476 1833.73 633.476 1833.73 633.476L1279.74 633.476C1279.74 633.475 1245.5 635.602 1245.5 600.051Z" stroke="#000000" stroke-width="1.21982" stroke-miterlimit="8" fill="#FFFFFF" fill-rule="evenodd"/><text font-family="Arial,Arial_MSFontService,sans-serif" font-weight="400" font-size="39" transform="matrix(1 0 0 1 1279.69 611)">Gemeente van inschrijving, RNI</text><path d="M68.4999 606.051C68.4999 570.5 102.687 570.5 102.687 570.5L657.008 570.5C657.008 570.5 691.5 570.197 691.5 604.836 691.5 639.476 655.787 639.476 655.787 639.476L102.687 639.476C102.687 639.474 68.4999 641.602 68.4999 606.051Z" stroke="#000000" stroke-width="1.21982" stroke-miterlimit="8" fill="#FFFFFF" fill-rule="evenodd"/><text font-family="Arial,Arial_MSFontService,sans-serif" font-weight="400" font-size="39" transform="matrix(1 0 0 1 207.598 617)">Minister van Justitie</text><path d="M1903.5 859.5C1903.5 878.278 1888.28 893.5 1869.5 893.5 1850.72 893.5 1835.5 878.278 1835.5 859.5 1835.5 840.722 1850.72 825.5 1869.5 825.5 1888.28 825.5 1903.5 840.722 1903.5 859.5Z" stroke="#000000" stroke-width="1.21982" stroke-miterlimit="8" fill="#FFFFFF" fill-rule="evenodd"/><text font-family="Arial,Arial_MSFontService,sans-serif" font-weight="400" font-size="49" transform="matrix(1 0 0 1 1855.21 879)">1</text><path d="M1903.5 1102C1903.5 1121.05 1888.28 1136.5 1869.5 1136.5 1850.72 1136.5 1835.5 1121.05 1835.5 1102 1835.5 1082.95 1850.72 1067.5 1869.5 1067.5 1888.28 1067.5 1903.5 1082.95 1903.5 1102Z" stroke="#000000" stroke-width="1.21982" stroke-miterlimit="8" fill="#FFFFFF" fill-rule="evenodd"/><text font-family="Arial,Arial_MSFontService,sans-serif" font-weight="400" font-size="49" transform="matrix(1 0 0 1 1855.21 1122)">2</text><path d="M1903.5 1500C1903.5 1519.05 1888.28 1534.5 1869.5 1534.5 1850.72 1534.5 1835.5 1519.05 1835.5 1500 1835.5 1480.95 1850.72 1465.5 1869.5 1465.5 1888.28 1465.5 1903.5 1480.95 1903.5 1500Z" stroke="#000000" stroke-width="1.21982" stroke-miterlimit="8" fill="#FFFFFF" fill-rule="evenodd"/><text font-family="Arial,Arial_MSFontService,sans-serif" font-weight="400" font-size="49" transform="matrix(1 0 0 1 1855.21 1520)">5</text><path d="M68.9999 2206.5C88.052 2206.5 103.5 2191.28 103.5 2172.5 103.5 2153.72 88.052 2138.5 68.9999 2138.5 49.9442 2138.5 34.4999 2153.72 34.4999 2172.5 34.4999 2191.28 49.9442 2206.5 68.9999 2206.5Z" stroke="#000000" stroke-width="1.21982" stroke-miterlimit="8" fill="#FFFFFF" fill-rule="evenodd"/><text font-family="Arial,Arial_MSFontService,sans-serif" font-weight="400" font-size="49" transform="matrix(1 0 0 1 54.764 2192)">8</text><path d="M491.769 1928.89 511.001 1922 491.769 1963 472 1922Z" fill-rule="evenodd"/><path d="M577.769 2157.89 597 2151 577.769 2192 558 2151Z" fill-rule="evenodd"/><path d="M1358.77 1326.06 1378 1319 1358.77 1361 1339 1319Z" fill-rule="evenodd"/><path d="M1356.77 2157.89 1376 2151 1356.77 2192 1337 2151Z" fill-rule="evenodd"/><path d="M1601.77 1582.89 1621 1576 1601.77 1617 1582 1576Z" fill-rule="evenodd"/><path d="M1763.5 1059C1763.5 1063.14 1760.37 1066.5 1756.5 1066.5 1752.63 1066.5 1749.5 1063.14 1749.5 1059 1749.5 1054.86 1752.63 1051.5 1756.5 1051.5 1760.37 1051.5 1763.5 1054.86 1763.5 1059Z" stroke="#000000" stroke-width="1.21982" stroke-linecap="square" stroke-miterlimit="8" fill="#FFFFFF" fill-rule="evenodd"/><path d="M1547.77 927.896 1567 921 1547.77 962 1528 921Z" fill-rule="evenodd"/><path d="M1763.5 817C1763.5 821.142 1760.14 824.501 1756 824.501 1751.86 824.501 1748.5 821.142 1748.5 817 1748.5 812.858 1751.86 809.5 1756 809.5 1760.14 809.5 1763.5 812.858 1763.5 817Z" stroke="#000000" stroke-width="1.21982" stroke-linecap="square" stroke-miterlimit="8" fill="#FFFFFF" fill-rule="evenodd"/><path d="M1252.5 753C1252.5 757.142 1249.14 760.5 1245 760.5 1240.86 760.5 1237.5 757.142 1237.5 753 1237.5 748.858 1240.86 745.5 1245 745.5 1249.14 745.5 1252.5 748.858 1252.5 753Z" stroke="#000000" stroke-width="1.21982" stroke-linecap="square" stroke-miterlimit="8" fill="#FFFFFF" fill-rule="evenodd"/><path d="M302.711 718C287.407 718 275 730.356 275 745.597L275 759.399C275 774.644 287.407 787 302.711 787L665.287 787C680.592 787 693 774.644 693 759.399L693 745.597C693 730.356 680.592 718 665.287 718L302.711 718Z" stroke="#000000" stroke-width="1.70738" stroke-miterlimit="8" fill="#FFFFFF" fill-rule="evenodd"/><text font-family="Arial,Arial_MSFontService,sans-serif" font-weight="400" font-size="35" transform="matrix(1 0 0 1 289.729 765)">Verstuur verblijfstitel</text><path d="M700.5 753C700.5 757.142 697.142 760.5 693 760.5 688.858 760.5 685.5 757.142 685.5 753 685.5 748.858 688.858 745.5 693 745.5 697.142 745.5 700.5 748.858 700.5 753Z" stroke="#000000" stroke-width="1.21982" stroke-linecap="square" stroke-miterlimit="8" fill="#FFFFFF" fill-rule="evenodd"/><path d="M1253.5 2064C1253.5 2068.14 1250.14 2071.5 1246 2071.5 1241.86 2071.5 1238.5 2068.14 1238.5 2064 1238.5 2059.86 1241.86 2056.5 1246 2056.5 1250.14 2056.5 1253.5 2059.86 1253.5 2064Z" stroke="#000000" stroke-width="1.21982" stroke-linecap="square" stroke-miterlimit="8" fill="#FFFFFF" fill-rule="evenodd"/><path d="M1073 1033.78 1146.92 1033.55C1162.22 1033.55 1174.63 1045.95 1174.63 1061.25L1174.51 1070.06C1174.51 1085.36 1186.92 1097.76 1202.22 1097.76L1206.86 1097.54 1300.92 1098 1330.23 1097.96C1345.53 1097.96 1358 1085.56 1358 1070.26L1357.77 1031 1357.71 1047.84" stroke="#000000" stroke-width="1.70738" stroke-miterlimit="8" fill="none" fill-rule="evenodd"/><path d="M1599.5 1049.5 1599.5 1187.5 1842.5 1187.5" stroke="#000000" stroke-width="4.87854" stroke-linecap="square" stroke-miterlimit="8" fill="none" fill-rule="evenodd"/><path d="M1409.5 1037.5 1409.5 1274.5 1842.5 1274.5" stroke="#000000" stroke-width="4.87854" stroke-linecap="square" stroke-miterlimit="8" fill="none" fill-rule="evenodd"/><path d="M1263.5 928.5 1229.5 928.5" stroke="#000000" stroke-width="4.87854" stroke-miterlimit="8" fill="none" fill-rule="evenodd"/><path d="M1359.5 1348.5 1359.5 1298.35C1359.5 1298.35 1359.5 1271.32 1359.5 1269.61 1359.46 1250.53 1344.36 1240.29 1329.02 1240.29L1264.97 1240.26 1230.26 1240.26C1214.93 1240.26 1202.5 1227.84 1202.5 1212.52L1202.5 955.771C1202.5 940.454 1214.93 928.036 1230.26 928.036L1266.12 928.068 1330.17 928.036C1345.5 928.036 1357.93 915.619 1357.93 900.301L1357.71 895.657 1357.9 860.186 1357.9 797.5" stroke="#000000" stroke-width="4.87854" stroke-miterlimit="8" fill="none" fill-rule="evenodd"/><path d="M795.117 1596 795 1567.68C795 1552.39 807.409 1540 822.715 1540L862 1540.22" stroke="#000000" stroke-width="1.70738" stroke-miterlimit="8" fill="none" fill-rule="evenodd"/><path d="M1758 1456 1756.79 1471.42 1757.01 1510.44C1757.01 1525.64 1744.6 1537.97 1729.3 1537.97L1700.01 1538 1073 1538" stroke="#000000" stroke-width="1.70738" stroke-miterlimit="8" fill="none" fill-rule="evenodd"/><path d="M864.5 1490.5 1075.5 1490.5 1075.5 1595.5 864.5 1595.5Z" stroke="#000000" stroke-width="4.87854" stroke-miterlimit="8" fill="#FFFFFF" fill-rule="evenodd"/><text font-family="Arial,Arial_MSFontService,sans-serif" font-weight="400" font-size="29" transform="matrix(1 0 0 1 936.664 1530)">Of11</text><text font-family="Arial,Arial_MSFontService,sans-serif" font-weight="400" font-size="29" transform="matrix(1 0 0 1 907.117 1579)">Code "B"</text><path d="M1091 1537.3 1134 1526 1134 1548Z" fill-rule="evenodd"/><path d="M1764 1869 1762.79 1884.6 1763.01 1924.1C1763.01 1939.49 1750.6 1951.97 1735.3 1951.97L1706 1952 1079 1952" stroke="#000000" stroke-width="1.70738" stroke-miterlimit="8" fill="none" fill-rule="evenodd"/><path d="M864 1489.35 913.907 1539 1023.74 1539 1074 1489" stroke="#000000" stroke-width="1.70738" stroke-miterlimit="8" fill="none" fill-rule="evenodd"/><path d="M1763.5 1457C1763.5 1461.14 1760.37 1464.5 1756.5 1464.5 1752.63 1464.5 1749.5 1461.14 1749.5 1457 1749.5 1452.86 1752.63 1449.5 1756.5 1449.5 1760.37 1449.5 1763.5 1452.86 1763.5 1457Z" stroke="#000000" stroke-width="1.21982" stroke-linecap="square" stroke-miterlimit="8" fill="#FFFFFF" fill-rule="evenodd"/><path d="M1842.33 1616C1857.61 1616 1870 1623.34 1870 1632.4L1870 1702.6C1870 1711.66 1857.61 1719 1842.33 1719L1272.67 1719C1257.39 1719 1245 1711.66 1245 1702.6L1245 1632.4C1245 1623.34 1257.39 1616 1272.67 1616L1842.33 1616Z" stroke="#000000" stroke-width="1.70738" stroke-miterlimit="8" fill="#FFFFFF" fill-rule="evenodd"/><text font-family="Arial,Arial_MSFontService,sans-serif" font-weight="400" font-size="35" transform="matrix(1 0 0 1 1262.21 1664)">Is de PL opgeschort voor of op</text><text font-family="Arial,Arial_MSFontService,sans-serif" font-weight="400" font-size="35" transform="matrix(1 0 0 1 1262.21 1699)">de ingangsdatum verblijfstitel?</text><path d="M1842.33 1836C1857.61 1836 1870 1848.54 1870 1864L1870 1878C1870 1893.47 1857.61 1906 1842.33 1906L1272.67 1906C1257.39 1906 1245 1893.47 1245 1878L1245 1864C1245 1848.54 1257.39 1836 1272.67 1836L1842.33 1836Z" stroke="#000000" stroke-width="1.70738" stroke-miterlimit="8" fill="#FFFFFF" fill-rule="evenodd"/><text font-family="Arial,Arial_MSFontService,sans-serif" font-weight="400" font-size="35" transform="matrix(1 0 0 1 1273.25 1884)">Onderzoek Nederlandse nationaliteit</text><path d="M1422.14 1707C1429.79 1707 1436 1713.23 1436 1720.92L1436 1728.08C1436 1735.77 1429.79 1742 1422.14 1742L1294.85 1742C1287.2 1742 1281 1735.77 1281 1728.08L1281 1720.92C1281 1713.23 1287.2 1707 1294.85 1707L1422.14 1707Z" stroke="#000000" stroke-width="1.70738" stroke-miterlimit="8" fill="#FFFFFF" fill-rule="evenodd"/><text font-family="Arial,Arial_MSFontService,sans-serif" font-weight="400" font-size="23" transform="matrix(1 0 0 1 1335.24 1735)">Nee</text><path d="M1807.5 1718.5 1807.5 1770.5 1842.5 1770.5" stroke="#000000" stroke-width="4.87854" stroke-linecap="square" stroke-miterlimit="8" fill="none" fill-rule="evenodd"/><path d="M1903.5 1767.5C1903.5 1786.28 1888.28 1801.5 1869.5 1801.5 1850.72 1801.5 1835.5 1786.28 1835.5 1767.5 1835.5 1748.72 1850.72 1733.5 1869.5 1733.5 1888.28 1733.5 1903.5 1748.72 1903.5 1767.5Z" stroke="#000000" stroke-width="1.21982" stroke-miterlimit="8" fill="#FFFFFF" fill-rule="evenodd"/><text font-family="Arial,Arial_MSFontService,sans-serif" font-weight="400" font-size="49" transform="matrix(1 0 0 1 1855.21 1787)">6</text><path d="M1807.5 1905.5 1807.5 1957.5 1842.5 1957.5" stroke="#000000" stroke-width="4.87854" stroke-linecap="square" stroke-miterlimit="8" fill="none" fill-rule="evenodd"/><path d="M1903.5 1954.5C1903.5 1973.28 1888.28 1988.5 1869.5 1988.5 1850.72 1988.5 1835.5 1973.28 1835.5 1954.5 1835.5 1935.72 1850.72 1920.5 1869.5 1920.5 1888.28 1920.5 1903.5 1935.72 1903.5 1954.5Z" stroke="#000000" stroke-width="1.21982" stroke-miterlimit="8" fill="#FFFFFF" fill-rule="evenodd"/><text font-family="Arial,Arial_MSFontService,sans-serif" font-weight="400" font-size="49" transform="matrix(1 0 0 1 1854.84 1974)">7</text><path d="M1356.77 1993.06 1376 1986 1356.77 2028 1337 1986Z" fill-rule="evenodd"/><path d="M1356.77 1804.9 1376 1798 1356.77 1839 1337 1798Z" fill-rule="evenodd"/><path d="M795.117 1900 795 1822.72C795 1807.41 807.409 1795 822.715 1795L862 1795.22" stroke="#000000" stroke-width="1.70738" stroke-miterlimit="8" fill="none" fill-rule="evenodd"/><path d="M865.5 1741.5 1075.5 1741.5 1075.5 1846.5 865.5 1846.5Z" stroke="#000000" stroke-width="4.87854" stroke-miterlimit="8" fill="#FFFFFF" fill-rule="evenodd"/><path d="M865 1741.35 914.906 1791 1024.74 1791 1075 1741" stroke="#000000" stroke-width="1.70738" stroke-miterlimit="8" fill="none" fill-rule="evenodd"/><text font-family="Arial,Arial_MSFontService,sans-serif" font-weight="400" font-size="29" transform="matrix(1 0 0 1 936.705 1782)">Of11</text><text font-family="Arial,Arial_MSFontService,sans-serif" font-weight="400" font-size="29" transform="matrix(1 0 0 1 905.798 1831)">Code "O"</text><path d="M1090 1795.31 1133 1784 1133 1806Z" fill-rule="evenodd"/><path d="M795.117 1990 795 1977.71C795 1962.41 807.409 1950 822.715 1950L862 1950.22" stroke="#000000" stroke-width="1.70738" stroke-miterlimit="8" fill="none" fill-rule="evenodd"/><path d="M865.5 1897.5 1075.5 1897.5 1075.5 2002.5 865.5 2002.5Z" stroke="#000000" stroke-width="4.87854" stroke-miterlimit="8" fill="#FFFFFF" fill-rule="evenodd"/><path d="M865 1896.36 914.906 1947 1024.74 1947 1075 1896" stroke="#000000" stroke-width="1.70738" stroke-miterlimit="8" fill="none" fill-rule="evenodd"/><text font-family="Arial,Arial_MSFontService,sans-serif" font-weight="400" font-size="29" transform="matrix(1 0 0 1 936.705 1937)">Of11</text><text font-family="Arial,Arial_MSFontService,sans-serif" font-weight="400" font-size="29" transform="matrix(1 0 0 1 913.128 1986)">Code "I"</text><path d="M1903.5 1274.5C1903.5 1293.28 1888.28 1308.5 1869.5 1308.5 1850.72 1308.5 1835.5 1293.28 1835.5 1274.5 1835.5 1255.72 1850.72 1240.5 1869.5 1240.5 1888.28 1240.5 1903.5 1255.72 1903.5 1274.5Z" stroke="#000000" stroke-width="1.21982" stroke-miterlimit="8" fill="#FFFFFF" fill-rule="evenodd"/><text font-family="Arial,Arial_MSFontService,sans-serif" font-weight="400" font-size="49" transform="matrix(1 0 0 1 1855.21 1294)">4</text><path d="M1422.14 780C1429.79 780 1436 786.229 1436 793.914L1436 801.086C1436 808.769 1429.79 815 1422.14 815L1294.85 815C1287.2 815 1281 808.769 1281 801.086L1281 793.914C1281 786.229 1287.2 780 1294.85 780L1422.14 780Z" stroke="#000000" stroke-width="1.70738" stroke-miterlimit="8" fill="#FFFFFF" fill-rule="evenodd"/><text font-family="Arial,Arial_MSFontService,sans-serif" font-weight="400" font-size="23" transform="matrix(1 0 0 1 1300.06 807)">Gevonden</text><path d="M1422.14 1022C1429.79 1022 1436 1028.23 1436 1035.92L1436 1043.08C1436 1050.77 1429.79 1057 1422.14 1057L1294.85 1057C1287.2 1057 1281 1050.77 1281 1043.08L1281 1035.92C1281 1028.23 1287.2 1022 1294.85 1022L1422.14 1022Z" stroke="#000000" stroke-width="1.70738" stroke-miterlimit="8" fill="#FFFFFF" fill-rule="evenodd"/><text font-family="Arial,Arial_MSFontService,sans-serif" font-weight="400" font-size="23" transform="matrix(1 0 0 1 1300.06 1050)">Gevonden</text><path d="M1365.5 1059C1365.5 1063.14 1362.14 1066.5 1358 1066.5 1353.86 1066.5 1350.5 1063.14 1350.5 1059 1350.5 1054.86 1353.86 1051.5 1358 1051.5 1362.14 1051.5 1365.5 1054.86 1365.5 1059Z" stroke="#000000" stroke-width="1.21982" stroke-linecap="square" stroke-miterlimit="8" fill="#FFFFFF" fill-rule="evenodd"/><path d="M1613.15 1022C1620.8 1022 1627 1028.23 1627 1035.92L1627 1043.08C1627 1050.77 1620.8 1057 1613.15 1057L1485.85 1057C1478.2 1057 1472 1050.77 1472 1043.08L1472 1035.92C1472 1028.23 1478.2 1022 1485.85 1022L1613.15 1022Z" stroke="#000000" stroke-width="1.70738" stroke-miterlimit="8" fill="#FFFFFF" fill-rule="evenodd"/><text font-family="Arial,Arial_MSFontService,sans-serif" font-weight="400" font-size="23" transform="matrix(1 0 0 1 1490.31 1050)">Niet aanw.</text><path d="M1555.5 1059C1555.5 1063.14 1552.37 1066.5 1548.5 1066.5 1544.63 1066.5 1541.5 1063.14 1541.5 1059 1541.5 1054.86 1544.63 1051.5 1548.5 1051.5 1552.37 1051.5 1555.5 1054.86 1555.5 1059Z" stroke="#000000" stroke-width="1.21982" stroke-linecap="square" stroke-miterlimit="8" fill="#FFFFFF" fill-rule="evenodd"/><path d="M1903.5 1187.5C1903.5 1206.28 1888.28 1221.5 1869.5 1221.5 1850.72 1221.5 1835.5 1206.28 1835.5 1187.5 1835.5 1168.72 1850.72 1153.5 1869.5 1153.5 1888.28 1153.5 1903.5 1168.72 1903.5 1187.5Z" stroke="#000000" stroke-width="1.21982" stroke-miterlimit="8" fill="#FFFFFF" fill-rule="evenodd"/><text font-family="Arial,Arial_MSFontService,sans-serif" font-weight="400" font-size="49" transform="matrix(1 0 0 1 1855.44 1207)">3</text><path d="M665.288 1963C680.592 1963 693 1975.45 693 1990.8L693 2074.2C693 2089.55 680.592 2102 665.288 2102L302.711 2102C287.406 2102 275 2089.55 275 2074.2L275 1990.8C275 1975.45 287.406 1963 302.711 1963L665.288 1963Z" stroke="#000000" stroke-width="1.70738" stroke-miterlimit="8" fill="#FFFFFF" fill-rule="evenodd"/><path d="M387.235 2125 387.117 2096.66 387.117 2070.22 387 2041.88C387 2026.58 399.401 2014.19 414.698 2014.19L442.848 2014 695 2014.22" stroke="#000000" stroke-width="1.70738" stroke-miterlimit="8" stroke-dasharray="9.60402 6.40268" fill="none" fill-rule="evenodd"/><path d="M578.122 2120 578 2091.77C578 2076.53 590.502 2064.18 605.925 2064.18L634.312 2064 692 2064.22" stroke="#000000" stroke-width="1.70738" stroke-miterlimit="8" stroke-dasharray="9.60402 6.40268" fill="none" fill-rule="evenodd"/><path d="M643.146 2093C650.796 2093 657 2099.05 657 2106.52L657 2113.48C657 2120.95 650.796 2127 643.146 2127L515.858 2127C508.205 2127 502 2120.95 502 2113.48L502 2106.52C502 2099.05 508.205 2093 515.858 2093L643.146 2093Z" stroke="#000000" stroke-width="1.70738" stroke-miterlimit="8" fill="#FFFFFF" fill-rule="evenodd"/><text font-family="Arial,Arial_MSFontService,sans-serif" font-weight="400" font-size="23" transform="matrix(1 0 0 1 557.702 2120)">Null</text><path d="M452.142 2093C459.798 2093 466 2099.05 466 2106.52L466 2113.48C466 2120.95 459.798 2127 452.142 2127L324.854 2127C317.205 2127 311 2120.95 311 2113.48L311 2106.52C311 2099.05 317.205 2093 324.854 2093L452.142 2093Z" stroke="#000000" stroke-width="1.70738" stroke-miterlimit="8" fill="#FFFFFF" fill-rule="evenodd"/><text font-family="Arial,Arial_MSFontService,sans-serif" font-weight="400" font-size="23" transform="matrix(1 0 0 1 361.657 2120)">Of11</text><path d="M700.5 2064.5C700.5 2068.37 697.142 2071.5 693 2071.5 688.858 2071.5 685.5 2068.37 685.5 2064.5 685.5 2060.63 688.858 2057.5 693 2057.5 697.142 2057.5 700.5 2060.63 700.5 2064.5Z" stroke="#000000" stroke-width="1.21982" stroke-linecap="square" stroke-miterlimit="8" fill="#FFFFFF" fill-rule="evenodd"/><text font-family="Arial,Arial_MSFontService,sans-serif" font-weight="400" font-size="35" transform="matrix(1 0 0 1 303.609 2011)">Wacht op antwoord</text><path d="M862 889.225 822.661 889C807.333 889 794.908 901.403 794.908 916.706L795.025 945.057 795.25 942.524 795.25 1914.97 795.066 1987.3C795.066 2002.6 782.643 2015 767.312 2015L680 2014.78" stroke="#000000" stroke-width="1.70738" stroke-miterlimit="8" fill="none" fill-rule="evenodd"/><path d="M700.5 2015C700.5 2019.14 697.142 2022.5 693 2022.5 688.858 2022.5 685.5 2019.14 685.5 2015 685.5 2010.86 688.858 2007.5 693 2007.5 697.142 2007.5 700.5 2010.86 700.5 2015Z" stroke="#000000" stroke-width="1.21982" stroke-linecap="square" stroke-miterlimit="8" fill="#FFFFFF" fill-rule="evenodd"/><path d="M1422.14 1889C1429.79 1889 1436 1895.23 1436 1902.92L1436 1910.08C1436 1917.77 1429.79 1924 1422.14 1924L1294.85 1924C1287.2 1924 1281 1917.77 1281 1910.08L1281 1902.92C1281 1895.23 1287.2 1889 1294.85 1889L1422.14 1889Z" stroke="#000000" stroke-width="1.70738" stroke-miterlimit="8" fill="#FFFFFF" fill-rule="evenodd"/><text font-family="Arial,Arial_MSFontService,sans-serif" font-weight="400" font-size="23" transform="matrix(1 0 0 1 1315.59 1916)">Niet NL</text><path d="M1821.14 1889C1828.79 1889 1835 1895.23 1835 1902.92L1835 1910.08C1835 1917.77 1828.79 1924 1821.14 1924L1693.86 1924C1686.21 1924 1680 1917.77 1680 1910.08L1680 1902.92C1680 1895.23 1686.21 1889 1693.86 1889L1821.14 1889Z" stroke="#000000" stroke-width="1.70738" stroke-miterlimit="8" fill="#FFFFFF" fill-rule="evenodd"/><text font-family="Arial,Arial_MSFontService,sans-serif" font-weight="400" font-size="23" transform="matrix(1 0 0 1 1716.46 1916)">Wel NL</text><path d="M1601.5 1457.5 1601.5 1594.5" stroke="#000000" stroke-width="4.87854" stroke-linecap="square" stroke-miterlimit="8" fill="none" fill-rule="evenodd"/><path d="M1658.39 1420C1665.36 1420 1671 1426.23 1671 1433.92L1671 1441.08C1671 1448.77 1665.35 1455 1658.39 1455L1542.61 1455C1535.65 1455 1530 1448.77 1530 1441.08L1530 1433.92C1530 1426.23 1535.65 1420 1542.61 1420L1658.39 1420Z" stroke="#000000" stroke-width="1.70738" stroke-miterlimit="8" fill="#FFFFFF" fill-rule="evenodd"/><text font-family="Arial,Arial_MSFontService,sans-serif" font-weight="400" font-size="23" transform="matrix(1 0 0 1 1542.45 1449)">Overleden</text><path d="M1760 1711 1758.79 1726.6 1759.01 1766.1C1759.01 1781.49 1746.6 1793.97 1731.3 1793.97L1702.01 1794 1075 1794" stroke="#000000" stroke-width="1.70738" stroke-miterlimit="8" fill="none" fill-rule="evenodd"/><path d="M1821.14 1707C1828.79 1707 1835 1713.23 1835 1720.92L1835 1728.08C1835 1735.77 1828.79 1742 1821.14 1742L1693.86 1742C1686.21 1742 1680 1735.77 1680 1728.08L1680 1720.92C1680 1713.23 1686.21 1707 1693.86 1707L1821.14 1707Z" stroke="#000000" stroke-width="1.70738" stroke-miterlimit="8" fill="#FFFFFF" fill-rule="evenodd"/><text font-family="Arial,Arial_MSFontService,sans-serif" font-weight="400" font-size="23" transform="matrix(1 0 0 1 1743.93 1735)">Ja</text><path d="M1768.5 1744.5C1768.5 1748.37 1765.14 1751.5 1761 1751.5 1756.86 1751.5 1753.5 1748.37 1753.5 1744.5 1753.5 1740.63 1756.86 1737.5 1761 1737.5 1765.14 1737.5 1768.5 1740.63 1768.5 1744.5Z" stroke="#000000" stroke-width="1.21982" stroke-linecap="square" stroke-miterlimit="8" fill="#FFFFFF" fill-rule="evenodd"/><path d="M1094 1953.31 1138 1942 1138 1964Z" fill-rule="evenodd"/><path d="M1772.5 1922C1772.5 1926.14 1769.14 1929.5 1765 1929.5 1760.86 1929.5 1757.5 1926.14 1757.5 1922 1757.5 1917.86 1760.86 1914.5 1765 1914.5 1769.14 1914.5 1772.5 1917.86 1772.5 1922Z" stroke="#000000" stroke-width="1.21982" stroke-linecap="square" stroke-miterlimit="8" fill="#FFFFFF" fill-rule="evenodd"/><path d="M1358.23 1778.29 1281.79 1778.5 1247.19 1778.5C1231.9 1778.5 1219.5 1767.63 1219.5 1754.21L1219.5 1539.19C1219.5 1525.78 1231.9 1514.91 1247.19 1514.91L1282.94 1514.93 1346.81 1514.91C1362.1 1514.91 1374.5 1504.04 1374.5 1490.62L1374.27 1486.56 1374.46 1455.5" stroke="#000000" stroke-width="4.87854" stroke-miterlimit="8" fill="none" fill-rule="evenodd"/><path d="M1498.02 1421C1510.71 1421 1521 1430.26 1521 1441.68L1521 1452.32C1521 1463.74 1510.71 1473 1498.02 1473L1286.98 1473C1274.28 1473 1264 1463.74 1264 1452.32L1264 1441.68C1264 1430.26 1274.28 1421 1286.98 1421L1498.02 1421Z" stroke="#000000" stroke-width="1.70738" stroke-miterlimit="8" fill="#FFFFFF" fill-rule="evenodd"/><text font-family="Arial,Arial_MSFontService,sans-serif" font-weight="400" font-size="23" transform="matrix(1 0 0 1 1271.08 1444)">Actueel, geëmigreerd </text><text font-family="Arial,Arial_MSFontService,sans-serif" font-weight="400" font-size="23" transform="matrix(1 0 0 1 1271.99 1469)">of ministerieel besluit</text></g></svg>