<svg width="1949" height="838" xmlns="http://www.w3.org/2000/svg" xmlns:xlink="http://www.w3.org/1999/xlink" xml:space="preserve" overflow="hidden"><g transform="matrix(1 0 0 1 0 -1011)"><path d="M1.00003 1012 765 1012 765 1848 1.00003 1848Z" stroke="#000000" stroke-width="1.71785" stroke-miterlimit="8" fill="#E6E6E6" fill-rule="evenodd"/><path d="M1183 1012 1948 1012 1948 1848 1183 1848Z" stroke="#000000" stroke-width="1.71785" stroke-miterlimit="8" fill="#E6E6E6" fill-rule="evenodd"/><path d="M1068 1267 1252 1266" stroke="#000000" stroke-width="1.71785" stroke-miterlimit="8" fill="none" fill-rule="evenodd"/><path d="M0 0.260617 74.1961 0C89.5563 0 102.008 14.5077 102.008 32.4089L101.884 58.4261 101.767 91.5917C101.767 109.491 114.218 124.001 129.579 124.001L169 123.745" stroke="#000000" stroke-width="1.71785" stroke-miterlimit="8" fill="none" fill-rule="evenodd" transform="matrix(1 0 0 -1 705 1577)"/><path d="M870.5 1397.5 1081.5 1397.5 1081.5 1503.5 870.5 1503.5Z" stroke="#000000" stroke-width="4.58333" stroke-linecap="square" stroke-miterlimit="8" stroke-dasharray="13.75 4.58333" fill="#FFFFFF" fill-rule="evenodd"/><path d="M1162 1266.31 1118 1255 1118 1277Z" fill-rule="evenodd"/><path d="M700 1274 884 1273" stroke="#000000" stroke-width="1.71785" stroke-miterlimit="8" fill="none" fill-rule="evenodd"/><path d="M870.5 1221.5 1081.5 1221.5 1081.5 1327.5 870.5 1327.5Z" stroke="#000000" stroke-width="4.58333" stroke-linecap="square" stroke-miterlimit="8" stroke-dasharray="13.75 4.58333" fill="#FFFFFF" fill-rule="evenodd"/><text font-family="Arial,Arial_MSFontService,sans-serif" font-weight="400" font-size="30" transform="matrix(1 0 0 1 898.023 1250)">aNummers</text><text font-family="Arial,Arial_MSFontService,sans-serif" font-weight="400" font-size="30" transform="matrix(1 0 0 1 1042.97 1250)">-</text><text font-family="Arial,Arial_MSFontService,sans-serif" font-weight="400" font-size="30" transform="matrix(1 0 0 1 911.773 1282)">Aanvraag</text><text font-family="Arial,Arial_MSFontService,sans-serif" font-style="italic" font-weight="400" font-size="30" transform="matrix(1 0 0 1 934.965 1314)">aantal</text><path d="M866 1273.3 823 1262 823 1284Z" fill-rule="evenodd"/><path d="M668.135 1743C683.525 1743 696 1755.54 696 1771L696 1785C696 1800.46 683.525 1813 668.135 1813L233.866 1813C218.476 1813 206 1800.46 206 1785L206 1771C206 1755.54 218.476 1743 233.866 1743L668.135 1743Z" stroke="#000000" stroke-width="1.71785" stroke-miterlimit="8" fill="#FFFFFF" fill-rule="evenodd"/><path d="M1750.12 1743C1765.52 1743 1778 1755.54 1778 1771L1778 1785C1778 1800.47 1765.52 1813 1750.12 1813L1280.87 1813C1265.48 1813 1253 1800.47 1253 1785L1253 1771C1253 1755.54 1265.48 1743 1280.87 1743L1750.12 1743Z" stroke="#000000" stroke-width="1.71785" stroke-miterlimit="8" fill="#FFFFFF" fill-rule="evenodd"/><text font-family="Arial,Arial_MSFontService,sans-serif" font-weight="400" font-size="35" transform="matrix(1 0 0 1 220.58 1792)">NORMAAL EINDE CYCLUS</text><text font-family="Arial,Arial_MSFontService,sans-serif" font-weight="400" font-size="35" transform="matrix(1 0 0 1 1279.79 1791)">NORMAAL EINDE CYCLUS</text><path d="M672.155 1216C687.532 1216 700 1226.39 700 1239.2L700 1308.8C700 1321.61 687.532 1332 672.155 1332L307.844 1332C292.466 1332 280 1321.61 280 1308.8L280 1239.2C280 1226.39 292.466 1216 307.844 1216L672.155 1216Z" stroke="#000000" stroke-width="1.71785" stroke-miterlimit="8" fill="#FFFFFF" fill-rule="evenodd"/><text font-family="Arial,Arial_MSFontService,sans-serif" font-weight="400" font-size="35" transform="matrix(1 0 0 1 301.565 1257)">Verzoek voorraad</text><text font-family="Arial,Arial_MSFontService,sans-serif" font-weight="400" font-size="35" transform="matrix(1 0 0 1 301.565 1300)">A</text><text font-family="Arial,Arial_MSFontService,sans-serif" font-weight="400" font-size="35" transform="matrix(1 0 0 1 325.054 1300)">-</text><text font-family="Arial,Arial_MSFontService,sans-serif" font-weight="400" font-size="35" transform="matrix(1 0 0 1 337.085 1300)">nummers</text><path d="M708.5 1274C708.5 1278.14 705.142 1281.5 701 1281.5 696.858 1281.5 693.5 1278.14 693.5 1274 693.5 1269.86 696.858 1266.5 701 1266.5 705.142 1266.5 708.5 1269.86 708.5 1274Z" stroke="#000000" stroke-width="1.22703" stroke-linecap="square" stroke-miterlimit="8" fill="#FFFFFF" fill-rule="evenodd"/><path d="M1746.11 1231C1761.51 1231 1774 1243.36 1774 1258.6L1774 1272.4C1774 1287.64 1761.51 1300 1746.11 1300L1280.9 1300C1265.49 1300 1253 1287.64 1253 1272.4L1253 1258.6C1253 1243.36 1265.49 1231 1280.9 1231L1746.11 1231Z" stroke="#000000" stroke-width="1.71785" stroke-miterlimit="8" fill="#FFFFFF" fill-rule="evenodd"/><text font-family="Arial,Arial_MSFontService,sans-serif" font-weight="400" font-size="35" transform="matrix(1 0 0 1 1281.91 1278)">Is verzoek akkoord?</text><path d="M1259.5 1266.5C1259.5 1270.37 1256.37 1273.5 1252.5 1273.5 1248.63 1273.5 1245.5 1270.37 1245.5 1266.5 1245.5 1262.63 1248.63 1259.5 1252.5 1259.5 1256.37 1259.5 1259.5 1262.63 1259.5 1266.5Z" stroke="#000000" stroke-width="1.22703" stroke-linecap="square" stroke-miterlimit="8" fill="#FFFFFF" fill-rule="evenodd"/><path d="M1508.5 1611.5 1508.5 1726.5" stroke="#000000" stroke-width="4.90814" stroke-linecap="square" stroke-miterlimit="8" fill="none" fill-rule="evenodd"/><path d="M1508.77 1709.06 1528 1702 1508.77 1744 1489 1702Z" fill-rule="evenodd"/><path d="M1044 1604 1475 1605" stroke="#000000" stroke-width="1.71785" stroke-miterlimit="8" fill="none" fill-rule="evenodd"/><path d="M1113 1604.3 1157 1593 1157 1615Z" fill-rule="evenodd"/><path d="M669 1604 887 1604" stroke="#000000" stroke-width="1.71785" stroke-miterlimit="8" fill="none" fill-rule="evenodd"/><path d="M714 1604.31 758 1593 758 1615Z" fill-rule="evenodd"/><path d="M869.5 1558.5 1081.5 1558.5 1081.5 1664.5 869.5 1664.5Z" stroke="#000000" stroke-width="4.58333" stroke-linecap="square" stroke-miterlimit="8" stroke-dasharray="13.75 4.58333" fill="#FFFFFF" fill-rule="evenodd"/><path d="M1746.11 1569C1761.51 1569 1774 1581.54 1774 1597L1774 1611C1774 1626.46 1761.51 1639 1746.11 1639L1280.9 1639C1265.49 1639 1253 1626.46 1253 1611L1253 1597C1253 1581.54 1265.49 1569 1280.9 1569L1746.11 1569Z" stroke="#000000" stroke-width="1.71785" stroke-miterlimit="8" fill="#FFFFFF" fill-rule="evenodd"/><text font-family="Arial,Arial_MSFontService,sans-serif" font-weight="400" font-size="35" transform="matrix(1 0 0 1 1281.91 1617)">Verstuur A</text><text font-family="Arial,Arial_MSFontService,sans-serif" font-weight="400" font-size="35" transform="matrix(1 0 0 1 1448.63 1617)">-</text><text font-family="Arial,Arial_MSFontService,sans-serif" font-weight="400" font-size="35" transform="matrix(1 0 0 1 1460.66 1617)">nummervoorraad</text><path d="M1259.5 1605C1259.5 1609.14 1256.37 1612.5 1252.5 1612.5 1248.63 1612.5 1245.5 1609.14 1245.5 1605 1245.5 1600.86 1248.63 1597.5 1252.5 1597.5 1256.37 1597.5 1259.5 1600.86 1259.5 1605Z" stroke="#000000" stroke-width="1.22703" stroke-linecap="square" stroke-miterlimit="8" fill="#FFFFFF" fill-rule="evenodd"/><path d="M587.767 1709.06 607 1702 587.767 1744 568 1702Z" fill-rule="evenodd"/><path d="M81.5419 1047.5C45.4999 1047.5 45.4999 1093.03 45.4999 1093.03L45.4999 1138.97C45.4999 1138.97 45.4999 1184.5 81.5419 1184.5 120.54 1184.5 624.734 1184.5 660.458 1184.5 696.5 1184.5 696.5 1138.97 696.5 1138.97L696.431 1092.98C696.431 1092.98 696.5 1047.5 660.458 1047.5 624.394 1047.5 117.584 1047.5 81.5419 1047.5Z" stroke="#000000" stroke-width="1.22703" stroke-miterlimit="8" fill="#FFFFFF" fill-rule="evenodd"/><path d="M1286.21 1049.5C1251.5 1049.5 1251.5 1084.4 1251.5 1084.4L1251.5 1119.6C1251.5 1119.6 1251.5 1154.5 1286.21 1154.5 1323.77 1154.5 1809.38 1154.5 1843.79 1154.5 1878.5 1154.5 1878.5 1119.6 1878.5 1119.6L1878.43 1084.36C1878.43 1084.36 1878.5 1049.5 1843.79 1049.5 1809.05 1049.5 1320.93 1049.5 1286.21 1049.5Z" stroke="#000000" stroke-width="1.22703" stroke-miterlimit="8" fill="#FFFFFF" fill-rule="evenodd"/><text font-family="Arial,Arial_MSFontService,sans-serif" font-weight="400" font-size="39" transform="matrix(1 0 0 1 1390.03 1115)">BRP Verstrekkingen</text><text font-family="Arial,Arial_MSFontService,sans-serif" font-weight="400" font-size="39" transform="matrix(1 0 0 1 69.837 1106)">Gemeente, RNI, beheerder BRP</text><text font-family="Arial,Arial_MSFontService,sans-serif" font-weight="400" font-size="39" transform="matrix(1 0 0 1 635.306 1106)">-</text><text font-family="Arial,Arial_MSFontService,sans-serif" font-weight="400" font-size="39" transform="matrix(1 0 0 1 648.483 1106)">V,</text><text font-family="Arial,Arial_MSFontService,sans-serif" font-weight="400" font-size="39" transform="matrix(1 0 0 1 69.837 1153)">(ei)landen Caribisch gebied </text><path d="M673.09 1517C688.505 1517 701 1527.3 701 1540L701 1609C701 1621.7 688.505 1632 673.09 1632L307.912 1632C292.498 1632 280 1621.7 280 1609L280 1540C280 1527.3 292.498 1517 307.912 1517L673.09 1517Z" stroke="#000000" stroke-width="1.71785" stroke-miterlimit="8" fill="#FFFFFF" fill-rule="evenodd"/><text font-family="Arial,Arial_MSFontService,sans-serif" font-weight="400" font-size="35" transform="matrix(1 0 0 1 301.141 1555)">Wacht op antwoord</text><path d="M589.213 1660 589 1631.27C589 1615.76 610.549 1603.19 637.13 1603.19L686.051 1603C719.193 1603.07 656.09 1603.15 689.232 1603.22" stroke="#000000" stroke-width="1.71785" stroke-miterlimit="8" stroke-dasharray="9.66289 6.44193" fill="none" fill-rule="evenodd"/><path d="M651.057 1623C658.758 1623 665 1629.23 665 1636.92L665 1644.08C665 1651.77 658.758 1658 651.057 1658L522.947 1658C515.243 1658 509 1651.77 509 1644.08L509 1636.92C509 1629.23 515.243 1623 522.947 1623L651.057 1623Z" stroke="#000000" stroke-width="1.71785" stroke-miterlimit="8" fill="#FFFFFF" fill-rule="evenodd"/><text font-family="Arial,Arial_MSFontService,sans-serif" font-weight="400" font-size="24" transform="matrix(1 0 0 1 569.927 1650)">OK</text><path d="M708.5 1605C708.5 1609.14 705.142 1612.5 701 1612.5 696.858 1612.5 693.5 1609.14 693.5 1605 693.5 1600.86 696.858 1597.5 701 1597.5 705.142 1597.5 708.5 1600.86 708.5 1605Z" stroke="#000000" stroke-width="1.22703" stroke-linecap="square" stroke-miterlimit="8" fill="#FFFFFF" fill-rule="evenodd"/><path d="M486.276 1485.06 506 1478 486.276 1520 466 1478Z" fill-rule="evenodd"/><path d="M1080 1454.81 1353.23 1455C1368.56 1455 1381 1442.57 1381 1427.22 1380.64 1412.67 1379.42 1353.55 1379.06 1339" stroke="#000000" stroke-width="1.71604" stroke-miterlimit="8" fill="none" fill-rule="evenodd"/><path d="M1357.94 1294C1350.25 1294 1344 1300.23 1344 1307.92L1344 1315.08C1344 1322.77 1350.25 1329 1357.94 1329L1486.05 1329C1493.75 1329 1500 1322.77 1500 1315.08L1500 1307.92C1500 1300.23 1493.75 1294 1486.05 1294L1357.94 1294Z" stroke="#000000" stroke-width="1.71604" stroke-miterlimit="8" fill="#FFFFFF" fill-rule="evenodd"/><text font-family="Arial,Arial_MSFontService,sans-serif" font-weight="400" font-size="24" transform="matrix(1 0 0 1 1405.38 1321)">Nee</text><path d="M1111 1455.3 1155 1444 1155 1466Z" fill-rule="evenodd"/><path d="M1615.5 1307.5 1615.5 1537.5" stroke="#000000" stroke-width="4.90344" stroke-linecap="square" stroke-miterlimit="8" fill="none" fill-rule="evenodd"/><path d="M1615.28 1534.06 1635 1527 1615.28 1569 1595 1527Z" fill-rule="evenodd"/><path d="M1549.95 1294C1542.24 1294 1536 1300.23 1536 1307.92L1536 1315.08C1536 1322.77 1542.24 1329 1549.95 1329L1678.06 1329C1685.76 1329 1692 1322.77 1692 1315.08L1692 1307.92C1692 1300.23 1685.76 1294 1678.06 1294L1549.95 1294Z" stroke="#000000" stroke-width="1.71604" stroke-miterlimit="8" fill="#FFFFFF" fill-rule="evenodd"/><text font-family="Arial,Arial_MSFontService,sans-serif" font-weight="400" font-size="24" transform="matrix(1 0 0 1 1606.88 1321)">Ja</text><path d="M1387.5 1331C1387.5 1335.14 1384.14 1338.5 1380 1338.5 1375.86 1338.5 1372.5 1335.14 1372.5 1331 1372.5 1326.86 1375.86 1323.5 1380 1323.5 1384.14 1323.5 1387.5 1326.86 1387.5 1331Z" stroke="#000000" stroke-width="1.22595" stroke-linecap="square" stroke-miterlimit="8" fill="#FFFFFF" fill-rule="evenodd"/><path d="M487.5 1333.5 487.5 1516.5" stroke="#000000" stroke-width="4.90344" stroke-linecap="square" stroke-miterlimit="8" fill="none" fill-rule="evenodd"/><path d="M588.5 1661.5 588.5 1706.5" stroke="#000000" stroke-width="4.90344" stroke-linecap="square" stroke-miterlimit="8" fill="none" fill-rule="evenodd"/><path d="M390.12 1631C390.08 1621.59 390.04 1612.18 390 1602.77 390 1587.53 402.914 1575.18 418.846 1575.18L448.163 1575 701 1575.29" stroke="#000000" stroke-width="1.81637" stroke-miterlimit="8" stroke-dasharray="10.9985 7.33233" fill="none" fill-rule="evenodd"/><path d="M458.057 1623C465.758 1623 472 1629.23 472 1636.92L472 1644.08C472 1651.77 465.758 1658 458.057 1658L329.947 1658C322.242 1658 316 1651.77 316 1644.08L316 1636.92C316 1629.23 322.242 1623 329.947 1623L458.057 1623Z" stroke="#000000" stroke-width="1.71785" stroke-miterlimit="8" fill="#FFFFFF" fill-rule="evenodd"/><text font-family="Arial,Arial_MSFontService,sans-serif" font-weight="400" font-size="24" transform="matrix(1 0 0 1 372.264 1650)">Fout</text><path d="M708.5 1575.5C708.5 1579.37 705.142 1582.5 701 1582.5 696.858 1582.5 693.5 1579.37 693.5 1575.5 693.5 1571.63 696.858 1568.5 701 1568.5 705.142 1568.5 708.5 1571.63 708.5 1575.5Z" stroke="#000000" stroke-width="1.22703" stroke-linecap="square" stroke-miterlimit="8" fill="#FFFFFF" fill-rule="evenodd"/><path d="M713 1577.31 756 1566 756 1588Z" fill-rule="evenodd"/><text font-family="Arial,Arial_MSFontService,sans-serif" font-weight="400" font-size="30" transform="matrix(1 0 0 1 899.412 1442)">aNummers</text><text font-family="Arial,Arial_MSFontService,sans-serif" font-weight="400" font-size="30" transform="matrix(1 0 0 1 1044.36 1442)">-</text><text font-family="Arial,Arial_MSFontService,sans-serif" font-weight="400" font-size="30" transform="matrix(1 0 0 1 914.308 1474)">Antwoord</text><text font-family="Arial,Arial_MSFontService,sans-serif" font-weight="400" font-size="30" transform="matrix(1 0 0 1 899.412 1602)">aNummers</text><text font-family="Arial,Arial_MSFontService,sans-serif" font-weight="400" font-size="30" transform="matrix(1 0 0 1 1044.36 1602)">-</text><text font-family="Arial,Arial_MSFontService,sans-serif" font-weight="400" font-size="30" transform="matrix(1 0 0 1 914.308 1634)">Antwoord</text></g></svg>