<svg width="1947" height="1906" xmlns="http://www.w3.org/2000/svg" xmlns:xlink="http://www.w3.org/1999/xlink" xml:space="preserve" overflow="hidden"><g transform="matrix(1 0 0 1 0 -476)"><path d="M1.00003 479 765 479 765 2381 1.00003 2381Z" stroke="#000000" stroke-width="1.68717" stroke-miterlimit="8" fill="#E6E6E6" fill-rule="evenodd"/><path d="M1182 477 1946 477 1946 2378 1182 2378Z" stroke="#000000" stroke-width="1.68717" stroke-miterlimit="8" fill="#E6E6E6" fill-rule="evenodd"/><path d="M1104 2066.31 1147 2055 1147 2077Z" fill-rule="evenodd"/><path d="M790.116 1465 790 1436.68C790 1421.39 802.245 1409 817.351 1409L869 1409.22" stroke="#000000" stroke-width="1.68717" stroke-miterlimit="8" fill="none" fill-rule="evenodd"/><path d="M790.115 1163 790 1135.18C790 1120.17 802.159 1108 817.158 1108L871 1108.21" stroke="#000000" stroke-width="1.68717" stroke-miterlimit="8" fill="none" fill-rule="evenodd"/><path d="M790.115 1310 790 1282C790 1266.89 802.159 1254.64 817.158 1254.64L871 1254" stroke="#000000" stroke-width="1.68717" stroke-miterlimit="8" fill="none" fill-rule="evenodd"/><path d="M790.115 889 790 861.184C790 846.172 802.223 834 817.302 834L856 834.215" stroke="#000000" stroke-width="1.68717" stroke-miterlimit="8" fill="none" fill-rule="evenodd"/><path d="M791 1948 790 876" stroke="#000000" stroke-width="1.68717" stroke-miterlimit="8" fill="none" fill-rule="evenodd"/><path d="M871.5 1204.5 1079.5 1204.5 1079.5 1308.5 871.5 1308.5Z" stroke="#000000" stroke-width="4.8208" stroke-miterlimit="8" fill="#FFFFFF" fill-rule="evenodd"/><path d="M871 1204.35 920.432 1254 1029.22 1254 1079 1204" stroke="#000000" stroke-width="1.68717" stroke-miterlimit="8" fill="none" fill-rule="evenodd"/><text font-family="Arial,Arial_MSFontService,sans-serif" font-weight="400" font-size="29" transform="matrix(1 0 0 1 945.411 1244)">Lf01</text><text font-family="Arial,Arial_MSFontService,sans-serif" font-weight="400" font-size="29" transform="matrix(1 0 0 1 911.877 1292)">Code "G"</text><path d="M1110 1261.31 1153 1250 1153 1272Z" fill-rule="evenodd"/><path d="M1111 833.791 1153 823 1153 844Z" fill-rule="evenodd"/><path d="M853.5 784.5 1061.5 784.5 1061.5 888.5 853.5 888.5Z" stroke="#000000" stroke-width="4.8208" stroke-miterlimit="8" fill="#FFFFFF" fill-rule="evenodd"/><path d="M852 784.351 901.432 833 1010.22 833 1060 784" stroke="#000000" stroke-width="1.68717" stroke-miterlimit="8" fill="none" fill-rule="evenodd"/><path d="M1734.78 750 1734.78 801.93 1735 806.524C1735 821.683 1722.74 833.969 1707.62 833.969L1678.66 834 1059 834" stroke="#000000" stroke-width="1.68717" stroke-miterlimit="8" fill="none" fill-rule="evenodd"/><path d="M1152 696.303 1109 685 1109 707Z" fill-rule="evenodd"/><path d="M437.5 733.5 437.5 1962.5" stroke="#000000" stroke-width="4.8208" stroke-linecap="square" stroke-miterlimit="8" fill="none" fill-rule="evenodd"/><path d="M662 697 857 697" stroke="#000000" stroke-width="1.68717" stroke-miterlimit="8" fill="none" fill-rule="evenodd"/><path d="M821 696.303 778 685 778 707Z" fill-rule="evenodd"/><path d="M871.5 1058.5 1079.5 1058.5 1079.5 1161.5 871.5 1161.5Z" stroke="#000000" stroke-width="4.8208" stroke-miterlimit="8" fill="#FFFFFF" fill-rule="evenodd"/><path d="M871 1057.36 920.432 1107 1029.22 1107 1079 1057" stroke="#000000" stroke-width="1.68717" stroke-miterlimit="8" fill="none" fill-rule="evenodd"/><text font-family="Arial,Arial_MSFontService,sans-serif" font-weight="400" font-size="29" transform="matrix(1 0 0 1 945.89 823)">Lf01</text><text font-family="Arial,Arial_MSFontService,sans-serif" font-weight="400" font-size="29" transform="matrix(1 0 0 1 912.684 872)">Code "U"</text><text font-family="Arial,Arial_MSFontService,sans-serif" font-weight="400" font-size="29" transform="matrix(1 0 0 1 945.629 1097)">Lf01</text><text font-family="Arial,Arial_MSFontService,sans-serif" font-weight="400" font-size="29" transform="matrix(1 0 0 1 912.684 1145)">Code "U"</text><path d="M1735.79 989 1735.79 1040.79 1736 1079.6C1736 1094.72 1724.1 1106.97 1709.43 1106.97L1681.33 1107 1080 1107" stroke="#000000" stroke-width="1.68717" stroke-miterlimit="8" fill="none" fill-rule="evenodd"/><path d="M1820.64 920C1835.75 920 1848 932.178 1848 947.201L1848 960.799C1848 975.822 1835.75 988 1820.64 988L1257.36 988C1242.25 988 1230 975.822 1230 960.799L1230 947.201C1230 932.178 1242.25 920 1257.36 920L1820.64 920Z" stroke="#000000" stroke-width="1.68717" stroke-miterlimit="8" fill="#FFFFFF" fill-rule="evenodd"/><text font-family="Arial,Arial_MSFontService,sans-serif" font-weight="400" font-size="35" transform="matrix(1 0 0 1 1258.12 967)">Zoek persoon in verwijsbestand</text><path d="M1112 1106.79 1154 1096 1154 1117Z" fill-rule="evenodd"/><path d="M871.5 1359.5 1079.5 1359.5 1079.5 1463.5 871.5 1463.5Z" stroke="#000000" stroke-width="4.8208" stroke-miterlimit="8" fill="#FFFFFF" fill-rule="evenodd"/><path d="M871 1359.36 920.432 1409 1029.22 1409 1079 1359" stroke="#000000" stroke-width="1.68717" stroke-miterlimit="8" fill="none" fill-rule="evenodd"/><text font-family="Arial,Arial_MSFontService,sans-serif" font-weight="400" font-size="29" transform="matrix(1 0 0 1 945.629 1399)">Lf01</text><text font-family="Arial,Arial_MSFontService,sans-serif" font-weight="400" font-size="29" transform="matrix(1 0 0 1 913.484 1447)">Code "V"</text><path d="M1112 1407.31 1154 1396 1154 1418Z" fill-rule="evenodd"/><path d="M1488.5 2007.5 1488.11 1201.4C1488.11 1186.29 1476.54 1174.04 1462.27 1174.04L1269.24 1174.25 1259.63 1173.93 1227.33 1173.93C1213.06 1173.93 1201.5 1161.68 1201.5 1146.57L1201.5 906.615C1201.5 891.502 1213.06 879.258 1227.33 879.258L1260.7 879.287 1320.31 879.258C1334.57 879.258 1346.14 867.01 1346.14 851.902L1345.93 847.321 1346.1 812.334 1346.1 750.5" stroke="#000000" stroke-width="4.8208" stroke-miterlimit="8" fill="none" fill-rule="evenodd"/><path d="M643.643 1981C660.961 1981 675 1993.27 675 2008.4L675 2090.6C675 2105.73 660.962 2118 643.643 2118L233.358 2118C216.04 2118 202 2105.73 202 2090.6L202 2008.4C202 1993.27 216.04 1981 233.358 1981L643.643 1981Z" stroke="#000000" stroke-width="1.80627" stroke-miterlimit="8" fill="#FFFFFF" fill-rule="evenodd"/><text font-family="Arial,Arial_MSFontService,sans-serif" font-weight="400" font-size="35" transform="matrix(1 0 0 1 285.528 2028)">Wacht op antwoord</text><path d="M682 2031.91 763.386 2032C778.711 2031.45 791 2017.7 791 2000.74L790.878 1969.32 790.878 1940" stroke="#000000" stroke-width="1.78425" stroke-miterlimit="8" fill="none" fill-rule="evenodd"/><path d="M701 2032.3 744 2021 744 2043Z" fill-rule="evenodd"/><path d="M871.5 2016.5 1079.5 2016.5 1079.5 2119.5 871.5 2119.5Z" stroke="#000000" stroke-width="4.8208" stroke-miterlimit="8" fill="#FFFFFF" fill-rule="evenodd"/><path d="M871 2015.35 920.432 2065 1029.22 2065 1079 2015" stroke="#000000" stroke-width="1.68717" stroke-miterlimit="8" fill="none" fill-rule="evenodd"/><text font-family="Arial,Arial_MSFontService,sans-serif" font-weight="400" font-size="29" transform="matrix(1 0 0 1 941.379 2055)">La01</text><path d="M700 2064.56 743 2053 743 2076Z" fill-rule="evenodd"/><path d="M325.268 2141 325.131 2112.92 325.131 2086.71 325 2058.63C325 2043.47 339.201 2031.18 356.721 2031.18L388.961 2031 667 2031.29" stroke="#000000" stroke-width="1.81637" stroke-miterlimit="8" stroke-dasharray="10.9985 7.33233" fill="none" fill-rule="evenodd"/><path d="M572.119 2121 572 2092.77C572 2077.54 584.179 2065.19 599.203 2065.19L626.855 2065 681 2065.01" stroke="#000000" stroke-width="1.68717" stroke-miterlimit="8" stroke-dasharray="9.49034 6.32689" fill="none" fill-rule="evenodd"/><path d="M655.646 2255C670.754 2255 683 2267.17 683 2282.2L683 2295.8C683 2310.82 670.754 2323 655.646 2323L229.354 2323C214.247 2323 202 2310.82 202 2295.8L202 2282.2C202 2267.17 214.247 2255 229.354 2255L655.646 2255Z" stroke="#000000" stroke-width="1.68717" stroke-miterlimit="8" fill="#FFFFFF" fill-rule="evenodd"/><text font-family="Arial,Arial_MSFontService,sans-serif" font-weight="400" font-size="35" transform="matrix(1 0 0 1 213.451 2306)">NORMAAL EINDE CYCLUS</text><path d="M1744.59 2254C1759.73 2254 1772 2266.36 1772 2281.6L1772 2295.4C1772 2310.64 1759.73 2323 1744.59 2323L1317.41 2323C1302.27 2323 1290 2310.64 1290 2295.4L1290 2281.6C1290 2266.36 1302.27 2254 1317.41 2254L1744.59 2254Z" stroke="#000000" stroke-width="1.68717" stroke-miterlimit="8" fill="#FFFFFF" fill-rule="evenodd"/><text font-family="Arial,Arial_MSFontService,sans-serif" font-weight="400" font-size="35" transform="matrix(1 0 0 1 1302.82 2306)">NORMAAL EINDE CYCLUS</text><path d="M324.5 2119.5 324.5 2189.5 39.5 2189.5" stroke="#000000" stroke-width="4.8208" stroke-linecap="square" stroke-miterlimit="8" fill="none" fill-rule="evenodd"/><path d="M1781.5 733.5 1781.5 801.5 1816.5 801.5" stroke="#000000" stroke-width="4.8208" stroke-linecap="square" stroke-miterlimit="8" fill="none" fill-rule="evenodd"/><path d="M384.321 2109C391.878 2109 398 2115.05 398 2122.52L398 2129.48C398 2136.95 391.878 2143 384.321 2143L258.675 2143C251.124 2143 245 2136.95 245 2129.48L245 2122.52C245 2115.05 251.124 2109 258.675 2109L384.321 2109Z" stroke="#000000" stroke-width="1.68717" stroke-miterlimit="8" fill="#FFFFFF" fill-rule="evenodd"/><text font-family="Arial,Arial_MSFontService,sans-serif" font-weight="400" font-size="23" transform="matrix(1 0 0 1 297.167 2136)">Lf01</text><path d="M1781.5 989.5 1781.5 1057.5 1816.5 1057.5" stroke="#000000" stroke-width="4.8208" stroke-linecap="square" stroke-miterlimit="8" fill="none" fill-rule="evenodd"/><path d="M1799.32 979C1806.87 979 1813 985.227 1813 992.914L1813 1000.08C1813 1007.77 1806.87 1014 1799.32 1014L1673.68 1014C1666.13 1014 1660 1007.77 1660 1000.08L1660 992.914C1660 985.227 1666.13 979 1673.68 979L1799.32 979Z" stroke="#000000" stroke-width="1.68717" stroke-miterlimit="8" fill="#FFFFFF" fill-rule="evenodd"/><text font-family="Arial,Arial_MSFontService,sans-serif" font-weight="400" font-size="23" transform="matrix(1 0 0 1 1681.13 1007)">Niet uniek</text><path d="M1576.5 984.5 1576.5 1053.5" stroke="#000000" stroke-width="4.8208" stroke-linecap="square" stroke-miterlimit="8" fill="none" fill-rule="evenodd"/><path d="M1383.5 1057.5 1818.5 1057.5" stroke="#000000" stroke-width="4.8208" stroke-linecap="square" stroke-miterlimit="8" fill="none" fill-rule="evenodd"/><path d="M1594.24 979C1601.84 979 1608 985.227 1608 992.914L1608 1000.08C1608 1007.77 1601.84 1014 1594.24 1014L1467.77 1014C1460.16 1014 1454 1007.77 1454 1000.08L1454 992.914C1454 985.227 1460.16 979 1467.77 979L1594.24 979Z" stroke="#000000" stroke-width="1.68717" stroke-miterlimit="8" fill="#FFFFFF" fill-rule="evenodd"/><text font-family="Arial,Arial_MSFontService,sans-serif" font-weight="400" font-size="23" transform="matrix(1 0 0 1 1472.6 1007)">Niet aanw.</text><path d="M1225.5 549.536C1225.5 514.5 1259.3 514.5 1259.3 514.5L1807.4 514.5C1807.4 514.5 1841.5 514.201 1841.5 548.338 1841.5 582.475 1806.19 582.477 1806.19 582.477L1259.3 582.477C1259.3 582.475 1225.5 584.572 1225.5 549.536Z" stroke="#000000" stroke-width="1.20502" stroke-miterlimit="8" fill="#FFFFFF" fill-rule="evenodd"/><text font-family="Arial,Arial_MSFontService,sans-serif" font-weight="400" font-size="39" transform="matrix(1 0 0 1 1273.04 561)">Gemeente van inschrijving</text><path d="M67.4999 549.536C67.4999 514.5 101.303 514.5 101.303 514.5L649.396 514.5C649.396 514.5 683.5 514.201 683.5 548.338 683.5 582.475 648.189 582.477 648.189 582.477L101.303 582.477C101.303 582.475 67.4999 584.572 67.4999 549.536Z" stroke="#000000" stroke-width="1.20502" stroke-miterlimit="8" fill="#FFFFFF" fill-rule="evenodd"/><text font-family="Arial,Arial_MSFontService,sans-serif" font-weight="400" font-size="39" transform="matrix(1 0 0 1 177.703 561)">BRP Verstrekkingen</text><path d="M1880.5 804.5C1880.5 823.277 1865.5 838.5 1847 838.5 1828.5 838.5 1813.5 823.277 1813.5 804.5 1813.5 785.722 1828.5 770.5 1847 770.5 1865.5 770.5 1880.5 785.722 1880.5 804.5Z" stroke="#000000" stroke-width="1.20502" stroke-miterlimit="8" fill="#FFFFFF" fill-rule="evenodd"/><text font-family="Arial,Arial_MSFontService,sans-serif" font-weight="400" font-size="48" transform="matrix(1 0 0 1 1833.16 823)">1</text><path d="M101.5 2191C101.5 2209.5 86.2775 2224.5 67.4999 2224.5 48.7223 2224.5 33.4998 2209.5 33.4998 2191 33.4998 2172.5 48.7223 2157.5 67.4999 2157.5 86.2775 2157.5 101.5 2172.5 101.5 2191Z" stroke="#000000" stroke-width="1.20502" stroke-miterlimit="8" fill="#FFFFFF" fill-rule="evenodd"/><text font-family="Arial,Arial_MSFontService,sans-serif" font-weight="400" font-size="48" transform="matrix(1 0 0 1 53.6741 2210)">3</text><path d="M1025 697 1234 697" stroke="#000000" stroke-width="1.68717" stroke-miterlimit="8" fill="none" fill-rule="evenodd"/><path d="M1820.64 663C1835.75 663 1848 675.356 1848 690.601L1848 704.4C1848 719.646 1835.75 732 1820.64 732L1257.36 732C1242.25 732 1230 719.644 1230 704.4L1230 690.601C1230 675.356 1242.25 663 1257.36 663L1820.64 663Z" stroke="#000000" stroke-width="1.68717" stroke-miterlimit="8" fill="#FFFFFF" fill-rule="evenodd"/><text font-family="Arial,Arial_MSFontService,sans-serif" font-weight="400" font-size="35" transform="matrix(1 0 0 1 1258.12 711)">Zoek persoon in PL</text><text font-family="Arial,Arial_MSFontService,sans-serif" font-weight="400" font-size="35" transform="matrix(1 0 0 1 1560.05 711)">-</text><text font-family="Arial,Arial_MSFontService,sans-serif" font-weight="400" font-size="35" transform="matrix(1 0 0 1 1571.51 711)">bestand</text><path d="M1404.32 723C1411.87 723 1418 729.05 1418 736.518L1418 743.484C1418 750.95 1411.87 757 1404.32 757L1278.68 757C1271.12 757 1265 750.95 1265 743.484L1265 736.518C1265 729.05 1271.12 723 1278.68 723L1404.32 723Z" stroke="#000000" stroke-width="1.68717" stroke-miterlimit="8" fill="#FFFFFF" fill-rule="evenodd"/><text font-family="Arial,Arial_MSFontService,sans-serif" font-weight="400" font-size="23" transform="matrix(1 0 0 1 1284.61 750)">Gevonden</text><path d="M1799.32 723C1806.87 723 1813 729.05 1813 736.518L1813 743.484C1813 750.95 1806.87 757 1799.32 757L1673.68 757C1666.13 757 1660 750.95 1660 743.484L1660 736.518C1660 729.05 1666.13 723 1673.68 723L1799.32 723Z" stroke="#000000" stroke-width="1.68717" stroke-miterlimit="8" fill="#FFFFFF" fill-rule="evenodd"/><text font-family="Arial,Arial_MSFontService,sans-serif" font-weight="400" font-size="23" transform="matrix(1 0 0 1 1681.13 750)">Niet uniek</text><path d="M1238.5 696.5C1238.5 700.366 1235.37 703.5 1231.5 703.5 1227.63 703.5 1224.5 700.366 1224.5 696.5 1224.5 692.634 1227.63 689.5 1231.5 689.5 1235.37 689.5 1238.5 692.634 1238.5 696.5Z" stroke="#000000" stroke-width="1.20502" stroke-linecap="square" stroke-miterlimit="8" fill="#FFFFFF" fill-rule="evenodd"/><path d="M853.5 647.5 1061.5 647.5 1061.5 751.5 853.5 751.5Z" stroke="#000000" stroke-width="4.8208" stroke-miterlimit="8" fill="#FFFFFF" fill-rule="evenodd"/><path d="M852 647.345 901.432 696 1010.22 696 1060 647" stroke="#000000" stroke-width="1.68717" stroke-miterlimit="8" fill="none" fill-rule="evenodd"/><text font-family="Arial,Arial_MSFontService,sans-serif" font-weight="400" font-size="29" transform="matrix(1 0 0 1 941.379 687)">Lq01</text><path d="M1743.5 759C1743.5 763.142 1740.14 766.5 1736 766.5 1731.86 766.5 1728.5 763.142 1728.5 759 1728.5 754.858 1731.86 751.5 1736 751.5 1740.14 751.5 1743.5 754.858 1743.5 759Z" stroke="#000000" stroke-width="1.20502" stroke-linecap="square" stroke-miterlimit="8" fill="#FFFFFF" fill-rule="evenodd"/><path d="M1529.5 750.5 1529.5 900.5" stroke="#000000" stroke-width="4.8208" stroke-linecap="square" stroke-miterlimit="8" fill="none" fill-rule="evenodd"/><path d="M1529.26 885.896 1548 879 1529.26 920 1510 879Z" fill-rule="evenodd"/><path d="M1743.5 1015C1743.5 1019.14 1740.14 1022.5 1736 1022.5 1731.86 1022.5 1728.5 1019.14 1728.5 1015 1728.5 1010.86 1731.86 1007.5 1736 1007.5 1740.14 1007.5 1743.5 1010.86 1743.5 1015Z" stroke="#000000" stroke-width="1.20502" stroke-linecap="square" stroke-miterlimit="8" fill="#FFFFFF" fill-rule="evenodd"/><path d="M1537.5 1015.5C1537.5 1019.37 1534.14 1022.5 1530 1022.5 1525.86 1022.5 1522.5 1019.37 1522.5 1015.5 1522.5 1011.63 1525.86 1008.5 1530 1008.5 1534.14 1008.5 1537.5 1011.63 1537.5 1015.5Z" stroke="#000000" stroke-width="1.20502" stroke-linecap="square" stroke-miterlimit="8" fill="#FFFFFF" fill-rule="evenodd"/><path d="M1593.32 722C1600.88 722 1607 728.23 1607 735.919L1607 743.089C1607 750.772 1600.88 757 1593.32 757L1467.68 757C1460.12 757 1454 750.772 1454 743.089L1454 735.919C1454 728.23 1460.12 722 1467.68 722L1593.32 722Z" stroke="#000000" stroke-width="1.68717" stroke-miterlimit="8" fill="#FFFFFF" fill-rule="evenodd"/><path d="M1383.5 1001.5 1383.5 1053.5" stroke="#000000" stroke-width="4.8208" stroke-linecap="square" stroke-miterlimit="8" fill="none" fill-rule="evenodd"/><text font-family="Arial,Arial_MSFontService,sans-serif" font-weight="400" font-size="23" transform="matrix(1 0 0 1 1472.31 750)">Niet aanw.</text><path d="M682.5 2032C682.5 2036.14 679.142 2039.5 675 2039.5 670.858 2039.5 667.5 2036.14 667.5 2032 667.5 2027.86 670.858 2024.5 675 2024.5 679.142 2024.5 682.5 2027.86 682.5 2032Z" stroke="#000000" stroke-width="1.20502" stroke-linecap="square" stroke-miterlimit="8" fill="#FFFFFF" fill-rule="evenodd"/><path d="M682.5 2066C682.5 2070.14 679.142 2073.5 675 2073.5 670.858 2073.5 667.5 2070.14 667.5 2066 667.5 2061.86 670.858 2058.5 675 2058.5 679.142 2058.5 682.5 2061.86 682.5 2066Z" stroke="#000000" stroke-width="1.20502" stroke-linecap="square" stroke-miterlimit="8" fill="#FFFFFF" fill-rule="evenodd"/><path d="M1529.5 2035.5 1529.5 2234.5" stroke="#000000" stroke-width="4.8208" stroke-linecap="square" stroke-miterlimit="8" fill="none" fill-rule="evenodd"/><path d="M1531.77 2218.9 1551 2212 1531.77 2253 1512 2212Z" fill-rule="evenodd"/><path d="M571.5 2130.5 571.5 2234.5" stroke="#000000" stroke-width="4.8208" stroke-linecap="square" stroke-miterlimit="8" fill="none" fill-rule="evenodd"/><path d="M635.325 2109C642.876 2109 649 2115.05 649 2122.52L649 2129.48C649 2136.95 642.876 2143 635.325 2143L509.679 2143C502.124 2143 496 2136.95 496 2129.48L496 2122.52C496 2115.05 502.124 2109 509.679 2109L635.325 2109Z" stroke="#000000" stroke-width="1.68717" stroke-miterlimit="8" fill="#FFFFFF" fill-rule="evenodd"/><text font-family="Arial,Arial_MSFontService,sans-serif" font-weight="400" font-size="23" transform="matrix(1 0 0 1 545.267 2136)">La01</text><path d="M571.262 2220.9 590 2214 571.262 2255 552 2214Z" fill-rule="evenodd"/><path d="M437.262 1946.89 456.001 1940 437.262 1981 418 1940Z" fill-rule="evenodd"/><path d="M220.818 661C202.693 661 188 673.356 188 688.598L188 702.401C188 717.647 202.693 730.001 220.818 730.001L650.183 730.001C668.309 730.001 683 717.647 683 702.401L683 688.598C683 673.356 668.309 661 650.183 661L220.818 661Z" stroke="#000000" stroke-width="1.84849" stroke-miterlimit="8" fill="#FFFFFF" fill-rule="evenodd"/><text font-family="Arial,Arial_MSFontService,sans-serif" font-weight="400" font-size="35" transform="matrix(1 0 0 1 227.282 709)">Verzoek tot synchronisatie</text><path d="M691.5 696.5C691.5 700.366 688.142 703.5 684 703.5 679.858 703.5 676.5 700.366 676.5 696.5 676.5 692.634 679.858 689.5 684 689.5 688.142 689.5 691.5 692.634 691.5 696.5Z" stroke="#000000" stroke-width="1.20502" stroke-linecap="square" stroke-miterlimit="8" fill="#FFFFFF" fill-rule="evenodd"/><path d="M1344.37 1024.5 1344.37 1342.28 1344.5 1381.09C1344.5 1396.21 1337.3 1408.47 1328.43 1408.47L1311.42 1408.5 1079.5 1408.5" stroke="#000000" stroke-width="1.33241" stroke-miterlimit="8" fill="none" fill-rule="evenodd"/><path d="M1404.32 979C1411.87 979 1418 985.227 1418 992.914L1418 1000.08C1418 1007.77 1411.87 1014 1404.32 1014L1278.68 1014C1271.12 1014 1265 1007.77 1265 1000.08L1265 992.914C1265 985.227 1271.12 979 1278.68 979L1404.32 979Z" stroke="#000000" stroke-width="1.68717" stroke-miterlimit="8" fill="#FFFFFF" fill-rule="evenodd"/><path d="M1351.5 1016.5C1351.5 1020.37 1348.14 1023.5 1344 1023.5 1339.86 1023.5 1336.5 1020.37 1336.5 1016.5 1336.5 1012.63 1339.86 1009.5 1344 1009.5 1348.14 1009.5 1351.5 1012.63 1351.5 1016.5Z" stroke="#000000" stroke-width="1.20502" stroke-linecap="square" stroke-miterlimit="8" fill="#FFFFFF" fill-rule="evenodd"/><text font-family="Arial,Arial_MSFontService,sans-serif" font-weight="400" font-size="23" transform="matrix(1 0 0 1 1284.61 1007)">Gevonden</text><path d="M1264.5 2067.5C1196.25 2067.17 1147.75 2066.83 1079.5 2066.5" stroke="#000000" stroke-width="1.33241" stroke-miterlimit="8" fill="none" fill-rule="evenodd"/><path d="M1773.36 2031C1786.42 2031 1797 2043.18 1797 2058.2L1797 2071.8C1797 2086.82 1786.41 2099 1773.36 2099L1286.64 2099C1273.58 2099 1263 2086.82 1263 2071.8L1263 2058.2C1263 2043.18 1273.58 2031 1286.64 2031L1773.36 2031Z" stroke="#000000" stroke-width="1.68717" stroke-miterlimit="8" fill="#FFFFFF" fill-rule="evenodd"/><text font-family="Arial,Arial_MSFontService,sans-serif" font-weight="400" font-size="35" transform="matrix(1 0 0 1 1291.34 2078)">Verzend gevraagde gegevens</text><path d="M1880.5 1053.5C1880.5 1072.28 1865.5 1087.5 1847 1087.5 1828.5 1087.5 1813.5 1072.28 1813.5 1053.5 1813.5 1034.72 1828.5 1019.5 1847 1019.5 1865.5 1019.5 1880.5 1034.72 1880.5 1053.5Z" stroke="#000000" stroke-width="1.20502" stroke-miterlimit="8" fill="#FFFFFF" fill-rule="evenodd"/><text font-family="Arial,Arial_MSFontService,sans-serif" font-weight="400" font-size="48" transform="matrix(1 0 0 1 1833.16 1073)">2</text><path d="M1530.51 1022.5 1532.37 1195.03 1532.5 1233.99C1532.5 1249.17 1525.13 1261.47 1516.05 1261.47L1498.66 1261.5 1080.5 1261.5" stroke="#000000" stroke-width="1.33241" stroke-miterlimit="8" fill="none" fill-rule="evenodd"/><path d="M1488.26 1996.9 1507 1990 1488.26 2031 1469 1990Z" fill-rule="evenodd"/><path d="M872.5 2065.5C815.76 2065.17 739.239 2064.83 682.5 2064.5" stroke="#000000" stroke-width="1.33241" stroke-miterlimit="8" fill="none" fill-rule="evenodd"/></g></svg>