<svg width="1949" height="2615" xmlns="http://www.w3.org/2000/svg" xmlns:xlink="http://www.w3.org/1999/xlink" xml:space="preserve" overflow="hidden"><g transform="matrix(1 0 0 1 0 -244)"><path d="M1.00003 245 765 245 765 2858 1.00003 2858Z" stroke="#000000" stroke-width="1.71785" stroke-miterlimit="8" fill="#E6E6E6" fill-rule="evenodd"/><path d="M1184 245 1948 245 1948 2858 1184 2858Z" stroke="#000000" stroke-width="1.71785" stroke-miterlimit="8" fill="#E6E6E6" fill-rule="evenodd"/><path d="M1044 470 1256 470" stroke="#000000" stroke-width="1.71785" stroke-miterlimit="8" fill="none" fill-rule="evenodd"/><path d="M1626.78 524 1626.78 576.546 1627 581.195C1627 596.534 1614.53 608.967 1599.16 608.967L1569.7 609 1044 609" stroke="#000000" stroke-width="1.71785" stroke-miterlimit="8" fill="none" fill-rule="evenodd"/><path d="M1559.5 2350.5 1558.5 2490.5" stroke="#000000" stroke-width="4.90814" stroke-linecap="square" stroke-miterlimit="8" fill="none" fill-rule="evenodd"/><path d="M910 2549 696 2550" stroke="#000000" stroke-width="1.71785" stroke-miterlimit="8" fill="none" fill-rule="evenodd"/><path d="M1328 2549 1044 2550" stroke="#000000" stroke-width="1.71785" stroke-miterlimit="8" fill="none" fill-rule="evenodd"/><path d="M1097 2548.3 1140 2537 1140 2559Z" fill-rule="evenodd"/><path d="M1365.5 796.5 1365.5 929.5" stroke="#000000" stroke-width="4.90814" stroke-linecap="square" stroke-miterlimit="8" fill="none" fill-rule="evenodd"/><path d="M582.5 2568.5 582.5 2721.5" stroke="#000000" stroke-width="4.90814" stroke-linecap="square" stroke-miterlimit="8" fill="none" fill-rule="evenodd"/><path d="M1365.5 2551.5 1365.5 2718.5" stroke="#000000" stroke-width="4.90814" stroke-linecap="square" stroke-miterlimit="8" fill="none" fill-rule="evenodd"/><path d="M804.117 1294 804 1265.67C804 1250.39 816.409 1238 831.715 1238L871 1238.22" stroke="#000000" stroke-width="1.71785" stroke-miterlimit="8" fill="none" fill-rule="evenodd"/><path d="M804.117 1155 804 1126.17C804 1110.61 816.409 1098 831.715 1098L871 1098.22" stroke="#000000" stroke-width="1.71785" stroke-miterlimit="8" fill="none" fill-rule="evenodd"/><path d="M804.117 945 804 916.679C804 901.391 816.409 889 831.715 889L871 889.223" stroke="#000000" stroke-width="1.71785" stroke-miterlimit="8" fill="none" fill-rule="evenodd"/><path d="M804.117 2475 804 637.865C804 622.477 816.409 610 831.715 610L871 610.228" stroke="#000000" stroke-width="1.71785" stroke-miterlimit="8" fill="none" fill-rule="evenodd"/><path d="M804.117 2008 804 1979.17C804 1963.61 816.409 1951 831.715 1951L871 1951.23" stroke="#000000" stroke-width="1.71785" stroke-miterlimit="8" fill="none" fill-rule="evenodd"/><path d="M804.117 2252 804 2223.66C804 2208.39 816.409 2196 831.715 2196L871 2196.22" stroke="#000000" stroke-width="1.71785" stroke-miterlimit="8" fill="none" fill-rule="evenodd"/><path d="M1556.77 2128.98 1556.77 2112 1557 2169.04C1557 2184.46 1544.53 2196.96 1529.15 2196.96L1499.7 2197 1213.53 2196.53 1174.05 2196.75 1118.47 2195.69 1079 2195.91" stroke="#000000" stroke-width="1.71785" stroke-miterlimit="8" fill="none" fill-rule="evenodd"/><path d="M869.5 2145.5 1080.5 2145.5 1080.5 2250.5 869.5 2250.5Z" stroke="#000000" stroke-width="4.90814" stroke-miterlimit="8" fill="#FFFFFF" fill-rule="evenodd"/><path d="M869 2144.36 919.143 2195 1029.5 2195 1080 2144" stroke="#000000" stroke-width="1.71785" stroke-miterlimit="8" fill="none" fill-rule="evenodd"/><text font-family="Arial,Arial_MSFontService,sans-serif" font-weight="400" font-size="30" transform="matrix(1 0 0 1 941.748 2185)">Hf01</text><text font-family="Arial,Arial_MSFontService,sans-serif" font-weight="400" font-size="30" transform="matrix(1 0 0 1 910.873 2235)">Code "R"</text><path d="M1097 2195.3 1140 2184 1140 2206Z" fill-rule="evenodd"/><path d="M869.5 1187.5 1080.5 1187.5 1080.5 1292.5 869.5 1292.5Z" stroke="#000000" stroke-width="4.90814" stroke-miterlimit="8" fill="#FFFFFF" fill-rule="evenodd"/><path d="M869 1186.36 919.143 1237 1029.5 1237 1080 1186" stroke="#000000" stroke-width="1.71785" stroke-miterlimit="8" fill="none" fill-rule="evenodd"/><text font-family="Arial,Arial_MSFontService,sans-serif" font-weight="400" font-size="30" transform="matrix(1 0 0 1 941.968 1227)">Hf01</text><text font-family="Arial,Arial_MSFontService,sans-serif" font-weight="400" font-size="30" transform="matrix(1 0 0 1 910.873 1277)">Code “G"</text><path d="M1365.5 1834.5 1365.5 2002.5" stroke="#000000" stroke-width="4.90814" stroke-linecap="square" stroke-miterlimit="8" fill="none" fill-rule="evenodd"/><path d="M1556.77 1884.98 1556.77 1868 1557 1925.04C1557 1940.46 1544.53 1952.97 1529.15 1952.97L1499.7 1953 1213.53 1952.53 1174.05 1952.76 1118.47 1951.7 1079 1951.92" stroke="#000000" stroke-width="1.71785" stroke-miterlimit="8" fill="none" fill-rule="evenodd"/><path d="M869.5 1900.5 1080.5 1900.5 1080.5 2006.5 869.5 2006.5Z" stroke="#000000" stroke-width="4.90814" stroke-miterlimit="8" fill="#FFFFFF" fill-rule="evenodd"/><path d="M869 1900.36 919.143 1951 1029.5 1951 1080 1900" stroke="#000000" stroke-width="1.71785" stroke-miterlimit="8" fill="none" fill-rule="evenodd"/><text font-family="Arial,Arial_MSFontService,sans-serif" font-weight="400" font-size="30" transform="matrix(1 0 0 1 941.968 1941)">Hf01</text><text font-family="Arial,Arial_MSFontService,sans-serif" font-weight="400" font-size="30" transform="matrix(1 0 0 1 910.873 1990)">Code "H"</text><path d="M1097 1951.31 1140 1940 1140 1962Z" fill-rule="evenodd"/><path d="M1365 1967.73 1365 1951 1366 1990" stroke="#000000" stroke-width="1.71785" stroke-miterlimit="8" fill="none" fill-rule="evenodd"/><path d="M660 470 873 470" stroke="#000000" stroke-width="1.71785" stroke-miterlimit="8" fill="none" fill-rule="evenodd"/><path d="M828 469.815 785 458 785 481Z" fill-rule="evenodd"/><path d="M869.5 419.5 1080.5 419.5 1080.5 525.5 869.5 525.5Z" stroke="#000000" stroke-width="4.90814" stroke-miterlimit="8" fill="#FFFFFF" fill-rule="evenodd"/><text font-family="Arial,Arial_MSFontService,sans-serif" font-weight="400" font-size="30" transform="matrix(1 0 0 1 937.642 460)">Hq01</text><path d="M869 419.357 919.143 470 1029.5 470 1080 419" stroke="#000000" stroke-width="1.71785" stroke-miterlimit="8" fill="none" fill-rule="evenodd"/><path d="M869.5 559.5 1080.5 559.5 1080.5 664.5 869.5 664.5Z" stroke="#000000" stroke-width="4.90814" stroke-miterlimit="8" fill="#FFFFFF" fill-rule="evenodd"/><text font-family="Arial,Arial_MSFontService,sans-serif" font-weight="400" font-size="30" transform="matrix(1 0 0 1 941.968 599)">Hf01</text><text font-family="Arial,Arial_MSFontService,sans-serif" font-weight="400" font-size="30" transform="matrix(1 0 0 1 911.687 649)">Code "X"</text><path d="M1365.5 524.5 1365.5 645.5" stroke="#000000" stroke-width="4.90814" stroke-linecap="square" stroke-miterlimit="8" fill="none" fill-rule="evenodd"/><path d="M1142 469.815 1098 458 1098 481Z" fill-rule="evenodd"/><path d="M1714.13 419C1729.52 419 1742 431.416 1742 446.734L1742 495.268C1742 510.584 1729.52 523 1714.13 523L1279.87 523C1264.47 523 1252 510.584 1252 495.268L1252 446.734C1252 431.416 1264.47 419 1279.87 419L1714.13 419Z" stroke="#000000" stroke-width="1.71785" stroke-miterlimit="8" fill="#FFFFFF" fill-rule="evenodd"/><text font-family="Arial,Arial_MSFontService,sans-serif" font-weight="400" font-size="35" transform="matrix(1 0 0 1 1280.96 466)">Afnemer geautoriseerd</text><text font-family="Arial,Arial_MSFontService,sans-serif" font-weight="400" font-size="35" transform="matrix(1 0 0 1 1280.96 501)">voor stellen ad hoc vragen?</text><path d="M1430.05 514C1437.75 514 1444 520.231 1444 527.916L1444 535.084C1444 542.773 1437.75 549 1430.05 549L1301.94 549C1294.24 549 1288 542.773 1288 535.084L1288 527.916C1288 520.229 1294.24 514 1301.94 514L1430.05 514Z" stroke="#000000" stroke-width="1.71785" stroke-miterlimit="8" fill="#FFFFFF" fill-rule="evenodd"/><text font-family="Arial,Arial_MSFontService,sans-serif" font-weight="400" font-size="24" transform="matrix(1 0 0 1 1353.2 541)">Ja</text><path d="M1097 609.301 1140 598 1140 620Z" fill-rule="evenodd"/><path d="M869 558.355 919.143 609 1029.5 609 1080 558" stroke="#000000" stroke-width="1.71785" stroke-miterlimit="8" fill="none" fill-rule="evenodd"/><path d="M1556.77 803 1556.77 856.165 1557 860.87C1557 876.388 1544.54 888.97 1529.18 888.97L1499.75 889 1044 889" stroke="#000000" stroke-width="1.71785" stroke-miterlimit="8" fill="none" fill-rule="evenodd"/><path d="M869.5 838.5 1080.5 838.5 1080.5 944.5 869.5 944.5Z" stroke="#000000" stroke-width="4.90814" stroke-miterlimit="8" fill="#FFFFFF" fill-rule="evenodd"/><text font-family="Arial,Arial_MSFontService,sans-serif" font-weight="400" font-size="30" transform="matrix(1 0 0 1 942.233 879)">Hf01</text><text font-family="Arial,Arial_MSFontService,sans-serif" font-weight="400" font-size="30" transform="matrix(1 0 0 1 911.687 928)">Code "X"</text><path d="M1644.16 663C1659.54 663 1672 675.535 1672 690.999L1672 775.002C1672 790.465 1659.54 803 1644.16 803L1279.84 803C1264.46 803 1252 790.465 1252 775.002L1252 690.999C1252 675.535 1264.46 663 1279.84 663L1644.16 663Z" stroke="#000000" stroke-width="1.71785" stroke-miterlimit="8" fill="#FFFFFF" fill-rule="evenodd"/><text font-family="Arial,Arial_MSFontService,sans-serif" font-weight="400" font-size="35" transform="matrix(1 0 0 1 1280.96 711)">Afnemer geautoriseerd</text><text font-family="Arial,Arial_MSFontService,sans-serif" font-weight="400" font-size="35" transform="matrix(1 0 0 1 1280.96 746)">voor gebruikte</text><text font-family="Arial,Arial_MSFontService,sans-serif" font-weight="400" font-size="35" transform="matrix(1 0 0 1 1280.96 781)">rubrieken?</text><path d="M1430.05 793C1437.75 793 1444 799.228 1444 806.914L1444 814.086C1444 821.771 1437.75 828 1430.05 828L1301.94 828C1294.24 828 1288 821.771 1288 814.086L1288 806.914C1288 799.228 1294.24 793 1301.94 793L1430.05 793Z" stroke="#000000" stroke-width="1.71785" stroke-miterlimit="8" fill="#FFFFFF" fill-rule="evenodd"/><text font-family="Arial,Arial_MSFontService,sans-serif" font-weight="400" font-size="24" transform="matrix(1 0 0 1 1353.2 821)">Ja</text><path d="M1097 889.309 1140 878 1140 900Z" fill-rule="evenodd"/><path d="M869 838.348 919.143 888 1029.5 888 1080 838" stroke="#000000" stroke-width="1.71785" stroke-miterlimit="8" fill="none" fill-rule="evenodd"/><path d="M1097 1098.3 1140 1087 1140 1109Z" fill-rule="evenodd"/><path d="M869.5 1047.5 1080.5 1047.5 1080.5 1153.5 869.5 1153.5Z" stroke="#000000" stroke-width="4.90814" stroke-miterlimit="8" fill="#FFFFFF" fill-rule="evenodd"/><path d="M869 1047.36 919.143 1098 1029.5 1098 1080 1047" stroke="#000000" stroke-width="1.71785" stroke-miterlimit="8" fill="none" fill-rule="evenodd"/><path d="M1765.78 1013 1765.78 1065.55 1766 1070.2C1766 1085.54 1753.52 1097.97 1738.13 1097.97L1708.66 1098 1078 1098" stroke="#000000" stroke-width="1.71785" stroke-miterlimit="8" fill="none" fill-rule="evenodd"/><path d="M1853.15 942C1868.53 942 1881 954.537 1881 970L1881 984.001C1881 999.467 1868.53 1012 1853.15 1012L1279.85 1012C1264.46 1012 1252 999.467 1252 984.001L1252 970C1252 954.537 1264.46 942 1279.85 942L1853.15 942Z" stroke="#000000" stroke-width="1.71785" stroke-miterlimit="8" fill="#FFFFFF" fill-rule="evenodd"/><text font-family="Arial,Arial_MSFontService,sans-serif" font-weight="400" font-size="35" transform="matrix(1 0 0 1 1280.96 990)">Zoek persoon in PL</text><text font-family="Arial,Arial_MSFontService,sans-serif" font-weight="400" font-size="35" transform="matrix(1 0 0 1 1586.32 990)">-</text><text font-family="Arial,Arial_MSFontService,sans-serif" font-weight="400" font-size="35" transform="matrix(1 0 0 1 1598.36 990)">bestand</text><path d="M1430.05 1003C1437.75 1003 1444 1009.23 1444 1016.91L1444 1024.09C1444 1031.77 1437.75 1038 1430.05 1038L1301.94 1038C1294.24 1038 1288 1031.77 1288 1024.09L1288 1016.91C1288 1009.23 1294.24 1003 1301.94 1003L1430.05 1003Z" stroke="#000000" stroke-width="1.71785" stroke-miterlimit="8" fill="#FFFFFF" fill-rule="evenodd"/><text font-family="Arial,Arial_MSFontService,sans-serif" font-weight="400" font-size="24" transform="matrix(1 0 0 1 1307.93 1030)">Gevonden</text><path d="M1623.06 1003C1630.76 1003 1637 1009.23 1637 1016.91L1637 1024.09C1637 1031.77 1630.76 1038 1623.06 1038L1494.94 1038C1487.24 1038 1481 1031.77 1481 1024.09L1481 1016.91C1481 1009.23 1487.24 1003 1494.94 1003L1623.06 1003Z" stroke="#000000" stroke-width="1.71785" stroke-miterlimit="8" fill="#FFFFFF" fill-rule="evenodd"/><text font-family="Arial,Arial_MSFontService,sans-serif" font-weight="400" font-size="24" transform="matrix(1 0 0 1 1499.34 1030)">Niet aanw.</text><text font-family="Arial,Arial_MSFontService,sans-serif" font-weight="400" font-size="30" transform="matrix(1 0 0 1 942.233 1088)">Hf01</text><text font-family="Arial,Arial_MSFontService,sans-serif" font-weight="400" font-size="30" transform="matrix(1 0 0 1 910.873 1137)">Code "U"</text><path d="M1644.16 1743C1659.54 1743 1672 1755.54 1672 1771L1672 1855C1672 1870.47 1659.54 1883 1644.16 1883L1279.84 1883C1264.46 1883 1252 1870.47 1252 1855L1252 1771C1252 1755.54 1264.46 1743 1279.84 1743L1644.16 1743Z" stroke="#000000" stroke-width="1.71785" stroke-miterlimit="8" fill="#FFFFFF" fill-rule="evenodd"/><path d="M1430.05 1874C1437.75 1874 1444 1880.23 1444 1887.91L1444 1895.08C1444 1902.77 1437.75 1909 1430.05 1909L1301.94 1909C1294.24 1909 1288 1902.77 1288 1895.08L1288 1887.91C1288 1880.23 1294.24 1874 1301.94 1874L1430.05 1874Z" stroke="#000000" stroke-width="1.71785" stroke-miterlimit="8" fill="#FFFFFF" fill-rule="evenodd"/><text font-family="Arial,Arial_MSFontService,sans-serif" font-weight="400" font-size="24" transform="matrix(1 0 0 1 1343.66 1901)">Nee</text><text font-family="Arial,Arial_MSFontService,sans-serif" font-weight="400" font-size="35" transform="matrix(1 0 0 1 1280.96 1791)">Staat indicatie geheim</text><text font-family="Arial,Arial_MSFontService,sans-serif" font-weight="400" font-size="35" transform="matrix(1 0 0 1 1280.96 1826)">aan op PL en in</text><text font-family="Arial,Arial_MSFontService,sans-serif" font-weight="400" font-size="35" transform="matrix(1 0 0 1 1280.96 1861)">autorisatietabelregel?</text><path d="M1365.5 2081.5 1365.5 2248.5" stroke="#000000" stroke-width="4.90814" stroke-linecap="square" stroke-miterlimit="8" fill="none" fill-rule="evenodd"/><path d="M1644.16 2022C1659.54 2022 1672 2034.54 1672 2050L1672 2099C1672 2114.47 1659.54 2127 1644.16 2127L1279.84 2127C1264.46 2127 1252 2114.47 1252 2099L1252 2050C1252 2034.54 1264.46 2022 1279.84 2022L1644.16 2022Z" stroke="#000000" stroke-width="1.71785" stroke-miterlimit="8" fill="#FFFFFF" fill-rule="evenodd"/><text font-family="Arial,Arial_MSFontService,sans-serif" font-weight="400" font-size="35" transform="matrix(1 0 0 1 1280.96 2070)">Voldoet persoon aan</text><text font-family="Arial,Arial_MSFontService,sans-serif" font-weight="400" font-size="35" transform="matrix(1 0 0 1 1280.96 2105)">voorwaarderegel?</text><path d="M1430.05 2118C1437.75 2118 1444 2124.23 1444 2131.91L1444 2139.08C1444 2146.77 1437.75 2153 1430.05 2153L1301.94 2153C1294.24 2153 1288 2146.77 1288 2139.08L1288 2131.91C1288 2124.23 1294.24 2118 1301.94 2118L1430.05 2118Z" stroke="#000000" stroke-width="1.71785" stroke-miterlimit="8" fill="#FFFFFF" fill-rule="evenodd"/><text font-family="Arial,Arial_MSFontService,sans-serif" font-weight="400" font-size="24" transform="matrix(1 0 0 1 1353.03 2145)">Ja</text><path d="M1765.78 2320 1765.78 2372.53 1766 2377.2C1766 2392.54 1753.52 2404.96 1738.13 2404.96L1708.66 2405 1078 2405" stroke="#000000" stroke-width="1.71785" stroke-miterlimit="8" fill="none" fill-rule="evenodd"/><path d="M1853.15 2266C1868.53 2266 1881 2278.54 1881 2294.01L1881 2307.99C1881 2323.46 1868.53 2336 1853.15 2336L1279.85 2336C1264.46 2336 1252 2323.46 1252 2307.99L1252 2294.01C1252 2278.54 1264.46 2266 1279.85 2266L1853.15 2266Z" stroke="#000000" stroke-width="1.71785" stroke-miterlimit="8" fill="#FFFFFF" fill-rule="evenodd"/><text font-family="Arial,Arial_MSFontService,sans-serif" font-weight="400" font-size="35" transform="matrix(1 0 0 1 1280.96 2313)">Onderzoek status gevonden PL</text><path d="M1623.06 2326C1630.76 2326 1637 2332.23 1637 2339.93L1637 2347.09C1637 2354.77 1630.76 2361 1623.06 2361L1494.94 2361C1487.24 2361 1481 2354.77 1481 2347.09L1481 2339.93C1481 2332.23 1487.24 2326 1494.94 2326L1623.06 2326Z" stroke="#000000" stroke-width="1.71785" stroke-miterlimit="8" fill="#FFFFFF" fill-rule="evenodd"/><text font-family="Arial,Arial_MSFontService,sans-serif" font-weight="400" font-size="24" transform="matrix(1 0 0 1 1494.09 2354)">Opgeschort</text><path d="M869.5 2354.5 1080.5 2354.5 1080.5 2460.5 869.5 2460.5Z" stroke="#000000" stroke-width="4.90814" stroke-miterlimit="8" fill="#FFFFFF" fill-rule="evenodd"/><path d="M869 2354.36 919.143 2405 1029.5 2405 1080 2354" stroke="#000000" stroke-width="1.71785" stroke-miterlimit="8" fill="none" fill-rule="evenodd"/><text font-family="Arial,Arial_MSFontService,sans-serif" font-weight="400" font-size="30" transform="matrix(1 0 0 1 942.233 2395)">Hf01</text><text font-family="Arial,Arial_MSFontService,sans-serif" font-weight="400" font-size="30" transform="matrix(1 0 0 1 911.687 2444)">Code "B"</text><path d="M1097 2405.3 1140 2394 1140 2416Z" fill-rule="evenodd"/><path d="M669.155 2463C684.532 2463 697 2475.44 697 2490.8L697 2574.2C697 2589.54 684.532 2602 669.155 2602L304.843 2602C289.466 2602 277 2589.54 277 2574.2L277 2490.8C277 2475.44 289.466 2463 304.843 2463L669.155 2463Z" stroke="#000000" stroke-width="1.71785" stroke-miterlimit="8" fill="#FFFFFF" fill-rule="evenodd"/><text font-family="Arial,Arial_MSFontService,sans-serif" font-weight="400" font-size="35" transform="matrix(1 0 0 1 305.447 2510)">Wacht op antwoord</text><path d="M713 2514.3 757 2503 757 2525Z" fill-rule="evenodd"/><path d="M1853.15 2510C1868.53 2510 1881 2522.37 1881 2537.62L1881 2551.4C1881 2566.65 1868.53 2579 1853.15 2579L1279.85 2579C1264.46 2579 1252 2566.65 1252 2551.4L1252 2537.62C1252 2522.37 1264.46 2510 1279.85 2510L1853.15 2510Z" stroke="#000000" stroke-width="1.71785" stroke-miterlimit="8" fill="#FFFFFF" fill-rule="evenodd"/><text font-family="Arial,Arial_MSFontService,sans-serif" font-weight="400" font-size="35" transform="matrix(1 0 0 1 1280.96 2557)">Verzend gevraagde gegevens</text><path d="M869.5 2498.5 1080.5 2498.5 1080.5 2604.5 869.5 2604.5Z" stroke="#000000" stroke-width="4.90814" stroke-miterlimit="8" fill="#FFFFFF" fill-rule="evenodd"/><path d="M869 2498.35 919.143 2548 1029.5 2548 1080 2498" stroke="#000000" stroke-width="1.71785" stroke-miterlimit="8" fill="none" fill-rule="evenodd"/><text font-family="Arial,Arial_MSFontService,sans-serif" font-weight="400" font-size="30" transform="matrix(1 0 0 1 937.642 2539)">Ha01</text><text font-family="Arial,Arial_MSFontService,sans-serif" font-weight="400" font-size="30" transform="matrix(1 0 0 1 916.069 2588)">A/E/M/O</text><path d="M713 2548.3 757 2537 757 2559Z" fill-rule="evenodd"/><path d="M390.235 2626 390.118 2597.41 390.118 2570.72 390 2542.13C390 2526.7 402.441 2514.2 417.788 2514.2L446.029 2514 699 2514.22" stroke="#000000" stroke-width="1.71785" stroke-miterlimit="8" stroke-dasharray="9.66289 6.44193" fill="none" fill-rule="evenodd"/><path d="M582.122 2605 582 2576.78C582 2561.54 594.502 2549.18 609.925 2549.18L638.311 2549 696 2549.21" stroke="#000000" stroke-width="1.71785" stroke-miterlimit="8" stroke-dasharray="9.66289 6.44193" fill="none" fill-rule="evenodd"/><path d="M647.057 2593C654.755 2593 661 2599.25 661 2606.93L661 2614.09C661 2621.77 654.755 2628 647.057 2628L518.947 2628C511.245 2628 505 2621.77 505 2614.09L505 2606.93C505 2599.25 511.245 2593 518.947 2593L647.057 2593Z" stroke="#000000" stroke-width="1.71785" stroke-miterlimit="8" fill="#FFFFFF" fill-rule="evenodd"/><text font-family="Arial,Arial_MSFontService,sans-serif" font-weight="400" font-size="24" transform="matrix(1 0 0 1 553.197 2620)">Ha01</text><path d="M494.5 489.5 494.5 2444.5" stroke="#000000" stroke-width="4.90814" stroke-linecap="square" stroke-miterlimit="8" fill="none" fill-rule="evenodd"/><path d="M668.134 2742C683.526 2742 696 2754.53 696 2770L696 2784C696 2799.45 683.526 2812 668.134 2812L233.866 2812C218.476 2812 206 2799.45 206 2784L206 2770C206 2754.53 218.476 2742 233.866 2742L668.134 2742Z" stroke="#000000" stroke-width="1.71785" stroke-miterlimit="8" fill="#FFFFFF" fill-rule="evenodd"/><path d="M1715.13 2742C1730.52 2742 1743 2754.53 1743 2770L1743 2784C1743 2799.45 1730.52 2812 1715.13 2812L1280.86 2812C1265.48 2812 1253 2799.45 1253 2784L1253 2770C1253 2754.53 1265.48 2742 1280.86 2742L1715.13 2742Z" stroke="#000000" stroke-width="1.71785" stroke-miterlimit="8" fill="#FFFFFF" fill-rule="evenodd"/><text font-family="Arial,Arial_MSFontService,sans-serif" font-weight="400" font-size="35" transform="matrix(1 0 0 1 217.54 2794)">NORMAAL EINDE CYCLUS</text><text font-family="Arial,Arial_MSFontService,sans-serif" font-weight="400" font-size="35" transform="matrix(1 0 0 1 1264.63 2794)">NORMAAL EINDE CYCLUS</text><path d="M390.5 2603.5 390.5 2672.5 91.4999 2672.5" stroke="#000000" stroke-width="4.90814" stroke-linecap="square" stroke-miterlimit="8" fill="none" fill-rule="evenodd"/><path d="M455.053 2593C462.757 2593 469 2599.25 469 2606.93L469 2614.09C469 2621.77 462.757 2628 455.053 2628L326.943 2628C319.245 2628 313 2621.77 313 2614.09L313 2606.93C313 2599.25 319.245 2593 326.943 2593L455.053 2593Z" stroke="#000000" stroke-width="1.71785" stroke-miterlimit="8" fill="#FFFFFF" fill-rule="evenodd"/><text font-family="Arial,Arial_MSFontService,sans-serif" font-weight="400" font-size="24" transform="matrix(1 0 0 1 364.504 2620)">Hf01</text><path d="M1679.5 524.5 1679.5 594.5 1853.5 594.5" stroke="#000000" stroke-width="4.90814" stroke-linecap="square" stroke-miterlimit="8" fill="none" fill-rule="evenodd"/><path d="M1609.5 804.5 1609.5 873.5 1853.5 873.5" stroke="#000000" stroke-width="4.90814" stroke-linecap="square" stroke-miterlimit="8" fill="none" fill-rule="evenodd"/><path d="M1818.5 1013.5 1818.5 1082.5" stroke="#000000" stroke-width="4.90814" stroke-linecap="square" stroke-miterlimit="8" fill="none" fill-rule="evenodd"/><path d="M1692.06 514C1699.76 514 1706 520.231 1706 527.916L1706 535.084C1706 542.773 1699.76 549 1692.06 549L1563.94 549C1556.25 549 1550 542.773 1550 535.084L1550 527.916C1550 520.229 1556.25 514 1563.94 514L1692.06 514Z" stroke="#000000" stroke-width="1.71785" stroke-miterlimit="8" fill="#FFFFFF" fill-rule="evenodd"/><path d="M1623.06 793C1630.76 793 1637 799.228 1637 806.914L1637 814.086C1637 821.771 1630.76 828 1623.06 828L1494.94 828C1487.24 828 1481 821.771 1481 814.086L1481 806.914C1481 799.228 1487.24 793 1494.94 793L1623.06 793Z" stroke="#000000" stroke-width="1.71785" stroke-miterlimit="8" fill="#FFFFFF" fill-rule="evenodd"/><text font-family="Arial,Arial_MSFontService,sans-serif" font-weight="400" font-size="24" transform="matrix(1 0 0 1 1535.59 821)">Nee</text><text font-family="Arial,Arial_MSFontService,sans-serif" font-weight="400" font-size="24" transform="matrix(1 0 0 1 1605.26 541)">Nee</text><path d="M1832.05 1003C1839.75 1003 1846 1009.23 1846 1016.91L1846 1024.09C1846 1031.77 1839.75 1038 1832.05 1038L1703.95 1038C1696.25 1038 1690 1031.77 1690 1024.09L1690 1016.91C1690 1009.23 1696.25 1003 1703.95 1003L1832.05 1003Z" stroke="#000000" stroke-width="1.71785" stroke-miterlimit="8" fill="#FFFFFF" fill-rule="evenodd"/><text font-family="Arial,Arial_MSFontService,sans-serif" font-weight="400" font-size="24" transform="matrix(1 0 0 1 1711.65 1030)">Niet uniek</text><path d="M1609.5 1884.5 1609.5 1953.5 1853.5 1953.5" stroke="#000000" stroke-width="4.90814" stroke-linecap="square" stroke-miterlimit="8" fill="none" fill-rule="evenodd"/><path d="M1623.06 1874C1630.76 1874 1637 1880.23 1637 1887.91L1637 1895.08C1637 1902.77 1630.76 1909 1623.06 1909L1494.94 1909C1487.24 1909 1481 1902.77 1481 1895.08L1481 1887.91C1481 1880.23 1487.24 1874 1494.94 1874L1623.06 1874Z" stroke="#000000" stroke-width="1.71785" stroke-miterlimit="8" fill="#FFFFFF" fill-rule="evenodd"/><text font-family="Arial,Arial_MSFontService,sans-serif" font-weight="400" font-size="24" transform="matrix(1 0 0 1 1545.45 1901)">Ja</text><path d="M1609.5 2128.5 1609.5 2197.5 1853.5 2197.5" stroke="#000000" stroke-width="4.90814" stroke-linecap="square" stroke-miterlimit="8" fill="none" fill-rule="evenodd"/><path d="M1623.06 2118C1630.76 2118 1637 2124.23 1637 2131.91L1637 2139.08C1637 2146.77 1630.76 2153 1623.06 2153L1494.94 2153C1487.24 2153 1481 2146.77 1481 2139.08L1481 2131.91C1481 2124.23 1487.24 2118 1494.94 2118L1623.06 2118Z" stroke="#000000" stroke-width="1.71785" stroke-miterlimit="8" fill="#FFFFFF" fill-rule="evenodd"/><text font-family="Arial,Arial_MSFontService,sans-serif" font-weight="400" font-size="24" transform="matrix(1 0 0 1 1535.92 2145)">Nee</text><path d="M1818.5 2337.5 1818.5 2406.5 1853.5 2406.5" stroke="#000000" stroke-width="4.90814" stroke-linecap="square" stroke-miterlimit="8" fill="none" fill-rule="evenodd"/><path d="M1832.05 2326C1839.75 2326 1846 2332.23 1846 2339.93L1846 2347.09C1846 2354.77 1839.75 2361 1832.05 2361L1703.95 2361C1696.25 2361 1690 2354.77 1690 2347.09L1690 2339.93C1690 2332.23 1696.25 2326 1703.95 2326L1832.05 2326Z" stroke="#000000" stroke-width="1.71785" stroke-miterlimit="8" fill="#FFFFFF" fill-rule="evenodd"/><text font-family="Arial,Arial_MSFontService,sans-serif" font-weight="400" font-size="24" transform="matrix(1 0 0 1 1696.86 2354)">Geblokkeerd</text><path d="M1365.77 628.897 1385 622 1365.77 663 1346 622Z" fill-rule="evenodd"/><path d="M1253.5 316.566C1253.5 280.5 1287.91 280.5 1287.91 280.5L1845.79 280.5C1845.79 280.5 1880.5 280.192 1880.5 315.334 1880.5 350.474 1844.56 350.476 1844.56 350.476L1287.91 350.476C1287.91 350.474 1253.5 352.633 1253.5 316.566Z" stroke="#000000" stroke-width="1.22703" stroke-miterlimit="8" fill="#FFFFFF" fill-rule="evenodd"/><text font-family="Arial,Arial_MSFontService,sans-serif" font-weight="400" font-size="39" transform="matrix(1 0 0 1 1389.64 329)">BRP Verstrekkingen</text><path d="M68.4999 316.566C68.4999 280.5 102.907 280.5 102.907 280.5L660.787 280.5C660.787 280.5 695.5 280.192 695.5 315.334 695.5 350.474 659.558 350.476 659.558 350.476L102.907 350.476C102.907 350.474 68.4999 352.633 68.4999 316.566Z" stroke="#000000" stroke-width="1.22703" stroke-miterlimit="8" fill="#FFFFFF" fill-rule="evenodd"/><text font-family="Arial,Arial_MSFontService,sans-serif" font-weight="400" font-size="41" transform="matrix(1 0 0 1 303.952 330)">Afnemer</text><path d="M1915.5 594C1915.5 613.054 1900.05 628.5 1881 628.5 1861.95 628.5 1846.5 613.054 1846.5 594 1846.5 574.946 1861.95 559.5 1881 559.5 1900.05 559.5 1915.5 574.946 1915.5 594Z" stroke="#000000" stroke-width="1.22703" stroke-miterlimit="8" fill="#FFFFFF" fill-rule="evenodd"/><text font-family="Arial,Arial_MSFontService,sans-serif" font-weight="400" font-size="49" transform="matrix(1 0 0 1 1866.44 614)">1</text><path d="M1915.5 873.5C1915.5 892.278 1900.05 907.5 1881 907.5 1861.95 907.5 1846.5 892.278 1846.5 873.5 1846.5 854.722 1861.95 839.5 1881 839.5 1900.05 839.5 1915.5 854.722 1915.5 873.5Z" stroke="#000000" stroke-width="1.22703" stroke-miterlimit="8" fill="#FFFFFF" fill-rule="evenodd"/><text font-family="Arial,Arial_MSFontService,sans-serif" font-weight="400" font-size="49" transform="matrix(1 0 0 1 1866.44 893)">2</text><path d="M1915.5 1083C1915.5 1102.05 1900.05 1117.5 1881 1117.5 1861.95 1117.5 1846.5 1102.05 1846.5 1083 1846.5 1063.95 1861.95 1048.5 1881 1048.5 1900.05 1048.5 1915.5 1063.95 1915.5 1083Z" stroke="#000000" stroke-width="1.22703" stroke-miterlimit="8" fill="#FFFFFF" fill-rule="evenodd"/><text font-family="Arial,Arial_MSFontService,sans-serif" font-weight="400" font-size="49" transform="matrix(1 0 0 1 1866.44 1102)">3</text><path d="M1881 1988.5C1900.05 1988.5 1915.5 1973.06 1915.5 1954 1915.5 1934.95 1900.05 1919.5 1881 1919.5 1861.94 1919.5 1846.5 1934.95 1846.5 1954 1846.5 1973.06 1861.94 1988.5 1881 1988.5Z" stroke="#000000" stroke-width="1.22703" stroke-miterlimit="8" fill="#FFFFFF" fill-rule="evenodd"/><text font-family="Arial,Arial_MSFontService,sans-serif" font-weight="400" font-size="49" transform="matrix(1 0 0 1 1866.44 1973)">4</text><path d="M1915.5 2198C1915.5 2217.05 1900.05 2232.5 1881 2232.5 1861.95 2232.5 1846.5 2217.05 1846.5 2198 1846.5 2178.95 1861.95 2163.5 1881 2163.5 1900.05 2163.5 1915.5 2178.95 1915.5 2198Z" stroke="#000000" stroke-width="1.22703" stroke-miterlimit="8" fill="#FFFFFF" fill-rule="evenodd"/><text font-family="Arial,Arial_MSFontService,sans-serif" font-weight="400" font-size="49" transform="matrix(1 0 0 1 1866.44 2217)">5</text><path d="M1915.5 2406.5C1915.5 2425.28 1900.05 2440.5 1881 2440.5 1861.95 2440.5 1846.5 2425.28 1846.5 2406.5 1846.5 2387.72 1861.95 2372.5 1881 2372.5 1900.05 2372.5 1915.5 2387.72 1915.5 2406.5Z" stroke="#000000" stroke-width="1.22703" stroke-miterlimit="8" fill="#FFFFFF" fill-rule="evenodd"/><text font-family="Arial,Arial_MSFontService,sans-serif" font-weight="400" font-size="49" transform="matrix(1 0 0 1 1866.44 2426)">6</text><path d="M103.5 2673C103.5 2692.05 88.0538 2707.5 68.9999 2707.5 49.946 2707.5 34.4999 2692.05 34.4999 2673 34.4999 2653.95 49.946 2638.5 68.9999 2638.5 88.0538 2638.5 103.5 2653.95 103.5 2673Z" stroke="#000000" stroke-width="1.22703" stroke-miterlimit="8" fill="#FFFFFF" fill-rule="evenodd"/><text font-family="Arial,Arial_MSFontService,sans-serif" font-weight="400" font-size="49" transform="matrix(1 0 0 1 55.096 2692)">7</text><path d="M494.276 2424.9 514 2418 494.276 2459 474 2418Z" fill-rule="evenodd"/><path d="M581.769 2707.07 601 2700 581.769 2742 562 2700Z" fill-rule="evenodd"/><path d="M1366.77 2231.89 1386 2225 1366.77 2266 1347 2225Z" fill-rule="evenodd"/><path d="M1365.28 2707.07 1385 2700 1365.28 2742 1345 2700Z" fill-rule="evenodd"/><path d="M1366.77 1987.06 1386 1980 1366.77 2022 1347 1980Z" fill-rule="evenodd"/><path d="M1558.28 2475.06 1578 2468 1558.28 2510 1538 2468Z" fill-rule="evenodd"/><path d="M1365.28 2475.06 1385 2468 1365.28 2510 1345 2468Z" fill-rule="evenodd"/><path d="M1775.5 2362C1775.5 2366.14 1772.37 2369.5 1768.5 2369.5 1764.63 2369.5 1761.5 2366.14 1761.5 2362 1761.5 2357.86 1764.63 2354.5 1768.5 2354.5 1772.37 2354.5 1775.5 2357.86 1775.5 2362Z" stroke="#000000" stroke-width="1.22703" stroke-linecap="square" stroke-miterlimit="8" fill="#FFFFFF" fill-rule="evenodd"/><path d="M1565.5 2154.5C1565.5 2158.37 1562.14 2161.5 1558 2161.5 1553.86 2161.5 1550.5 2158.37 1550.5 2154.5 1550.5 2150.63 1553.86 2147.5 1558 2147.5 1562.14 2147.5 1565.5 2150.63 1565.5 2154.5Z" stroke="#000000" stroke-width="1.22703" stroke-linecap="square" stroke-miterlimit="8" fill="#FFFFFF" fill-rule="evenodd"/><path d="M704.5 2549.5C704.5 2553.37 701.142 2556.5 697 2556.5 692.858 2556.5 689.5 2553.37 689.5 2549.5 689.5 2545.63 692.858 2542.5 697 2542.5 701.142 2542.5 704.5 2545.63 704.5 2549.5Z" stroke="#000000" stroke-width="1.22703" stroke-linecap="square" stroke-miterlimit="8" fill="#FFFFFF" fill-rule="evenodd"/><path d="M1565.5 1911.5C1565.5 1915.37 1562.14 1918.5 1558 1918.5 1553.86 1918.5 1550.5 1915.37 1550.5 1911.5 1550.5 1907.63 1553.86 1904.5 1558 1904.5 1562.14 1904.5 1565.5 1907.63 1565.5 1911.5Z" stroke="#000000" stroke-width="1.22703" stroke-linecap="square" stroke-miterlimit="8" fill="#FFFFFF" fill-rule="evenodd"/><path d="M1565.5 830C1565.5 834.142 1562.14 837.5 1558 837.5 1553.86 837.5 1550.5 834.142 1550.5 830 1550.5 825.858 1553.86 822.5 1558 822.5 1562.14 822.5 1565.5 825.858 1565.5 830Z" stroke="#000000" stroke-width="1.22703" stroke-linecap="square" stroke-miterlimit="8" fill="#FFFFFF" fill-rule="evenodd"/><path d="M1365.27 907.066 1385 900 1365.27 942 1345 900Z" fill-rule="evenodd"/><path d="M1774.5 1040C1774.5 1044.14 1771.14 1047.5 1767 1047.5 1762.86 1047.5 1759.5 1044.14 1759.5 1040 1759.5 1035.86 1762.86 1032.5 1767 1032.5 1771.14 1032.5 1774.5 1035.86 1774.5 1040Z" stroke="#000000" stroke-width="1.22703" stroke-linecap="square" stroke-miterlimit="8" fill="#FFFFFF" fill-rule="evenodd"/><path d="M1634.5 551C1634.5 555.142 1631.14 558.5 1627 558.5 1622.86 558.5 1619.5 555.142 1619.5 551 1619.5 546.858 1622.86 543.5 1627 543.5 1631.14 543.5 1634.5 546.858 1634.5 551Z" stroke="#000000" stroke-width="1.22703" stroke-linecap="square" stroke-miterlimit="8" fill="#FFFFFF" fill-rule="evenodd"/><path d="M1259.5 470.5C1259.5 474.366 1256.37 477.5 1252.5 477.5 1248.63 477.5 1245.5 474.366 1245.5 470.5 1245.5 466.634 1248.63 463.5 1252.5 463.5 1256.37 463.5 1259.5 466.634 1259.5 470.5Z" stroke="#000000" stroke-width="1.22703" stroke-linecap="square" stroke-miterlimit="8" fill="#FFFFFF" fill-rule="evenodd"/><path d="M303.91 435C288.496 435 276 447.355 276 462.597L276 476.399C276 491.644 288.496 504 303.91 504L669.089 504C684.503 504 697 491.644 697 476.399L697 462.597C697 447.355 684.503 435 669.089 435L303.91 435Z" stroke="#000000" stroke-width="1.71785" stroke-miterlimit="8" fill="#FFFFFF" fill-rule="evenodd"/><text font-family="Arial,Arial_MSFontService,sans-serif" font-weight="400" font-size="35" transform="matrix(1 0 0 1 291.483 482)">Verzoek om informatie</text><path d="M704.5 470.5C704.5 474.366 701.142 477.5 697 477.5 692.858 477.5 689.5 474.366 689.5 470.5 689.5 466.634 692.858 463.5 697 463.5 701.142 463.5 704.5 466.634 704.5 470.5Z" stroke="#000000" stroke-width="1.22703" stroke-linecap="square" stroke-miterlimit="8" fill="#FFFFFF" fill-rule="evenodd"/><path d="M1260.5 2549C1260.5 2553.14 1257.37 2556.5 1253.5 2556.5 1249.63 2556.5 1246.5 2553.14 1246.5 2549 1246.5 2544.86 1249.63 2541.5 1253.5 2541.5 1257.37 2541.5 1260.5 2544.86 1260.5 2549Z" stroke="#000000" stroke-width="1.22703" stroke-linecap="square" stroke-miterlimit="8" fill="#FFFFFF" fill-rule="evenodd"/><path d="M1368.5 2353.5 1367.5 2490.5" stroke="#000000" stroke-width="4.90814" stroke-linecap="square" stroke-miterlimit="8" fill="none" fill-rule="evenodd"/><path d="M697 2513.79 776.374 2514C791.705 2514 804.134 2501.61 804.134 2486.3L804.01 2457.96 804.01 2462.04 803.893 2433.7C803.893 2418.39 816.321 2406 831.653 2406L871 2406.22" stroke="#000000" stroke-width="1.71785" stroke-miterlimit="8" fill="none" fill-rule="evenodd"/><path d="M704.5 2514.5C704.5 2518.37 701.142 2521.5 697 2521.5 692.858 2521.5 689.5 2518.37 689.5 2514.5 689.5 2510.63 692.858 2507.5 697 2507.5 701.142 2507.5 704.5 2510.63 704.5 2514.5Z" stroke="#000000" stroke-width="1.22703" stroke-linecap="square" stroke-miterlimit="8" fill="#FFFFFF" fill-rule="evenodd"/><path d="M1430.05 2326C1437.75 2326 1444 2332.23 1444 2339.93L1444 2347.09C1444 2354.77 1437.75 2361 1430.05 2361L1301.94 2361C1294.24 2361 1288 2354.77 1288 2347.09L1288 2339.93C1288 2332.23 1294.24 2326 1301.94 2326L1430.05 2326Z" stroke="#000000" stroke-width="1.71785" stroke-miterlimit="8" fill="#FFFFFF" fill-rule="evenodd"/><text font-family="Arial,Arial_MSFontService,sans-serif" font-weight="400" font-size="24" transform="matrix(1 0 0 1 1323.54 2354)">Actueel</text><path d="M1365.71 1040.17 1369.71 1040.17 1369.71 1736.17 1365.71 1736.17Z" fill-rule="evenodd"/><path d="M1097.74 1238.94 1141.74 1227.2 1141.74 1249.2 1097.74 1238.94Z" fill-rule="evenodd"/><path d="M1599.4 1082.67 1843.48 1082.67 1843.48 1085.85 1594.48 1085.85 1594.48 1037.85 1599.4 1037.85 1599.4 1082.67Z" fill-rule="evenodd"/><path d="M1561 1038 1561 1209.95C1561 1225.2 1548.7 1238 1533.46 1238L1503.95 1238 1078 1238" stroke="#000000" stroke-width="1.96398" stroke-miterlimit="8" fill="none" fill-rule="evenodd"/><path d="M1367.63 1709.94 1387.63 1703.02 1367.63 1745.02 1347.63 1703.02 1367.63 1709.94Z" fill-rule="evenodd"/><path d="M1567.5 1038.5C1567.5 1042.37 1564.37 1045.5 1560.5 1045.5 1556.63 1045.5 1553.5 1042.37 1553.5 1038.5 1553.5 1034.63 1556.63 1031.5 1560.5 1031.5 1564.37 1031.5 1567.5 1034.63 1567.5 1038.5Z" stroke="#000000" stroke-width="1.22703" stroke-linecap="square" stroke-miterlimit="8" fill="#FFFFFF" fill-rule="evenodd"/></g></svg>