<svg width="1948" height="1674" xmlns="http://www.w3.org/2000/svg" xmlns:xlink="http://www.w3.org/1999/xlink" xml:space="preserve" overflow="hidden"><g transform="translate(-1 -593)"><path d="M1.49987 593.5 765.5 593.5 765.5 2266.5 1.49987 2266.5Z" stroke="#000000" stroke-width="1.22703" stroke-miterlimit="8" fill="#E6E6E6" fill-rule="evenodd"/><path d="M1183.5 593.5 1948.5 593.5 1948.5 2266.5 1183.5 2266.5Z" stroke="#000000" stroke-width="1.22703" stroke-miterlimit="8" fill="#E6E6E6" fill-rule="evenodd"/><path d="M1582.5 1560.5 1582.5 1800.5" stroke="#000000" stroke-width="4.90814" stroke-linecap="square" stroke-miterlimit="8" fill="none" fill-rule="evenodd"/><path d="M1583.5 1998.5 1583.5 2116.5" stroke="#000000" stroke-width="4.90814" stroke-linecap="square" stroke-miterlimit="8" fill="none" fill-rule="evenodd"/><path d="M1079 1563 1462 1564" stroke="#000000" stroke-width="1.71785" stroke-miterlimit="8" fill="none" fill-rule="evenodd"/><path d="M869.5 1512.5 1080.5 1512.5 1080.5 1618.5 869.5 1618.5Z" stroke="#000000" stroke-width="4.90814" stroke-miterlimit="8" fill="#FFFFFF" fill-rule="evenodd"/><path d="M548.5 1859.5 548.5 2131.5" stroke="#000000" stroke-width="4.90814" stroke-linecap="square" stroke-miterlimit="8" fill="none" fill-rule="evenodd"/><path d="M1056 2021.95 639.9 2023C624.491 2023 612 2010.51 612 1995.09L612.226 1816" stroke="#000000" stroke-width="1.71785" stroke-miterlimit="8" fill="none" fill-rule="evenodd"/><path d="M617.5 1550.5 617.5 1700.5" stroke="#000000" stroke-width="4.90814" stroke-linecap="square" stroke-miterlimit="8" fill="none" fill-rule="evenodd"/><path d="M1562.5 917.5 1562.5 977.5" stroke="#000000" stroke-width="4.90814" stroke-linecap="square" stroke-miterlimit="8" fill="none" fill-rule="evenodd"/><path d="M667.132 2146C682.526 2146 695 2158.36 695 2173.61L695 2187.4C695 2202.65 682.524 2215 667.132 2215L232.866 2215C217.476 2215 205 2202.65 205 2187.4L205 2173.61C205 2158.36 217.476 2146 232.866 2146L667.132 2146Z" stroke="#000000" stroke-width="1.71785" stroke-miterlimit="8" fill="#FFFFFF" fill-rule="evenodd"/><text font-family="Arial,Arial_MSFontService,sans-serif" font-weight="400" font-size="35" transform="matrix(1 0 0 1 217.125 2197)">NORMAAL EINDE CYCLUS</text><path d="M1860.13 2146C1875.53 2146 1888 2158.36 1888 2173.61L1888 2187.4C1888 2202.65 1875.53 2215 1860.13 2215L1425.87 2215C1410.48 2215 1398 2202.65 1398 2187.4L1398 2173.61C1398 2158.36 1410.48 2146 1425.87 2146L1860.13 2146Z" stroke="#000000" stroke-width="1.71785" stroke-miterlimit="8" fill="#FFFFFF" fill-rule="evenodd"/><text font-family="Arial,Arial_MSFontService,sans-serif" font-weight="400" font-size="35" transform="matrix(1 0 0 1 1409.97 2197)">NORMAAL EINDE CYCLUS</text><path d="M1398.5 1308.5 1398.5 1499.5" stroke="#000000" stroke-width="4.90814" stroke-linecap="square" stroke-miterlimit="8" fill="none" fill-rule="evenodd"/><path d="M1391.5 908.5 1391.5 977.5 1861.5 977.5" stroke="#000000" stroke-width="4.90814" stroke-linecap="square" stroke-miterlimit="8" fill="none" fill-rule="evenodd"/><path d="M1738.5 917.5 1738.5 1189.5" stroke="#000000" stroke-width="4.90814" stroke-linecap="square" stroke-miterlimit="8" fill="none" fill-rule="evenodd"/><path d="M695 823 867 822" stroke="#000000" stroke-width="1.71785" stroke-miterlimit="8" fill="none" fill-rule="evenodd"/><path d="M826 822.303 782 811 782 833Z" fill-rule="evenodd"/><path d="M1861.15 786C1876.53 786 1889 798.536 1889 814L1889 828.001C1889 843.465 1876.53 856 1861.15 856L1287.85 856C1272.47 856 1260 843.465 1260 828.001L1260 814C1260 798.536 1272.47 786 1287.85 786L1861.15 786Z" stroke="#000000" stroke-width="1.71785" stroke-miterlimit="8" fill="#FFFFFF" fill-rule="evenodd"/><text font-family="Arial,Arial_MSFontService,sans-serif" font-weight="400" font-size="35" transform="matrix(1 0 0 1 1288.58 834)">Onderzoek status van de PL</text><path d="M1851.47 847C1858.39 847 1864 853.246 1864 860.955L1864 903.045C1864 910.752 1858.39 917 1851.47 917L1628.53 917C1621.61 917 1616 910.752 1616 903.045L1616 860.955C1616 853.246 1621.61 847 1628.53 847L1851.47 847Z" stroke="#000000" stroke-width="1.71785" stroke-miterlimit="8" fill="#FFFFFF" fill-rule="evenodd"/><text font-family="Arial,Arial_MSFontService,sans-serif" font-weight="400" font-size="24" transform="matrix(1 0 0 1 1631.81 874)">Geëmigreerd of</text><text font-family="Arial,Arial_MSFontService,sans-serif" font-weight="400" font-size="24" transform="matrix(1 0 0 1 1631.81 901)">Ministerieel besluit</text><path d="M868.5 926.5 1080.5 926.5 1080.5 1032.5 868.5 1032.5Z" stroke="#000000" stroke-width="4.90814" stroke-miterlimit="8" fill="#FFFFFF" fill-rule="evenodd"/><path d="M868 926.358 918.141 976 1028.5 976 1079 926" stroke="#000000" stroke-width="1.71785" stroke-miterlimit="8" fill="none" fill-rule="evenodd"/><text font-family="Arial,Arial_MSFontService,sans-serif" font-weight="400" font-size="30" transform="matrix(1 0 0 1 941.665 967)">Rf01</text><text font-family="Arial,Arial_MSFontService,sans-serif" font-weight="400" font-size="30" transform="matrix(1 0 0 1 911.385 1016)">Code "A"</text><path d="M868.5 769.5 1080.5 769.5 1080.5 875.5 868.5 875.5Z" stroke="#000000" stroke-width="4.90814" stroke-miterlimit="8" fill="#FFFFFF" fill-rule="evenodd"/><text font-family="Arial,Arial_MSFontService,sans-serif" font-weight="400" font-size="30" transform="matrix(1 0 0 1 937.56 814)">Rb01</text><text font-family="Arial,Arial_MSFontService,sans-serif" font-weight="400" font-size="30" transform="matrix(1 0 0 1 947.041 863)">E/M</text><path d="M869 1512.35 919.146 1562 1029.5 1562 1080 1512" stroke="#000000" stroke-width="1.71785" stroke-miterlimit="8" fill="none" fill-rule="evenodd"/><text font-family="Arial,Arial_MSFontService,sans-serif" font-weight="400" font-size="30" transform="matrix(1 0 0 1 938.927 1553)">Rv01</text><path d="M1855.11 1212C1870.51 1212 1883 1224.36 1883 1239.6L1883 1253.4C1883 1268.65 1870.51 1281 1855.11 1281L1280.9 1281C1265.49 1281 1253 1268.64 1253 1253.4L1253 1239.6C1253 1224.36 1265.49 1212 1280.9 1212L1855.11 1212Z" stroke="#000000" stroke-width="1.71785" stroke-miterlimit="8" fill="#FFFFFF" fill-rule="evenodd"/><text font-family="Arial,Arial_MSFontService,sans-serif" font-weight="400" font-size="35" transform="matrix(1 0 0 1 1293.46 1262)">Voldoet PL aan de voorwaarden?</text><path d="M868 777.356 918.141 827 1028.5 827 1079 777" stroke="#000000" stroke-width="1.71785" stroke-miterlimit="8" fill="none" fill-rule="evenodd"/><path d="M778 1502.3 822 1491 822 1513Z" fill-rule="evenodd"/><path d="M867 1894.95 453.893 1896C438.488 1896 426 1883.55 426 1868.18L426.228 1794" stroke="#000000" stroke-width="1.71785" stroke-miterlimit="8" fill="none" fill-rule="evenodd"/><path d="M826 1895.31 782 1884 782 1906Z" fill-rule="evenodd"/><path d="M826 2022.31 782 2011 782 2033Z" fill-rule="evenodd"/><path d="M868.5 1832.5 1080.5 1832.5 1080.5 1938.5 868.5 1938.5Z" stroke="#000000" stroke-width="4.90814" stroke-miterlimit="8" fill="#FFFFFF" fill-rule="evenodd"/><path d="M868 1832.36 918.141 1883 1028.5 1883 1079 1832" stroke="#000000" stroke-width="1.71785" stroke-miterlimit="8" fill="none" fill-rule="evenodd"/><text font-family="Arial,Arial_MSFontService,sans-serif" font-weight="400" font-size="30" transform="matrix(1 0 0 1 941.665 1873)">Rf31</text><path d="M868.5 1972.5 1080.5 1972.5 1080.5 2078.5 868.5 2078.5Z" stroke="#000000" stroke-width="4.90814" stroke-miterlimit="8" fill="#FFFFFF" fill-rule="evenodd"/><path d="M868 1972.35 918.141 2022 1028.5 2022 1079 1972" stroke="#000000" stroke-width="1.71785" stroke-miterlimit="8" fill="none" fill-rule="evenodd"/><text font-family="Arial,Arial_MSFontService,sans-serif" font-weight="400" font-size="30" transform="matrix(1 0 0 1 947.676 2013)">Null</text><path d="M353.5 1840.5 353.5 1884.5 91.4999 1884.5" stroke="#000000" stroke-width="4.90814" stroke-linecap="square" stroke-miterlimit="8" fill="none" fill-rule="evenodd"/><path d="M345.5 1606.5 345.5 1640.5 91.4999 1640.5" stroke="#000000" stroke-width="4.90814" stroke-linecap="square" stroke-miterlimit="8" fill="none" fill-rule="evenodd"/><path d="M667.157 1449C682.534 1449 695 1461.44 695 1476.8L695 1560.2C695 1575.55 682.534 1588 667.157 1588L302.847 1588C287.468 1588 275 1575.55 275 1560.2L275 1476.8C275 1461.44 287.468 1449 302.847 1449L667.157 1449Z" stroke="#000000" stroke-width="1.71785" stroke-miterlimit="8" fill="#FFFFFF" fill-rule="evenodd"/><text font-family="Arial,Arial_MSFontService,sans-serif" font-weight="400" font-size="35" transform="matrix(1 0 0 1 309.898 1487)">Wacht op antwoord</text><path d="M361.236 1612 361.118 1583.66 361.118 1557.22 361 1528.88C361 1513.59 373.493 1501.18 388.903 1501.18L417.261 1501 689 1501.22" stroke="#000000" stroke-width="1.71785" stroke-miterlimit="8" stroke-dasharray="9.66289 6.44193" fill="none" fill-rule="evenodd"/><path d="M616.121 1580.21 616 1591C616 1575.63 628.404 1563.19 643.705 1563.19L671.864 1563 690 1563.22" stroke="#000000" stroke-width="1.71785" stroke-miterlimit="8" stroke-dasharray="9.66289 6.44193" fill="none" fill-rule="evenodd"/><path d="M397.506 1579C402.198 1579 406 1585.23 406 1592.92L406 1600.08C406 1607.77 402.198 1614 397.506 1614L319.49 1614C314.803 1614 311 1607.77 311 1600.08L311 1592.92C311 1585.23 314.803 1579 319.49 1579L397.506 1579Z" stroke="#000000" stroke-width="1.71785" stroke-miterlimit="8" fill="#FFFFFF" fill-rule="evenodd"/><text font-family="Arial,Arial_MSFontService,sans-serif" font-weight="400" font-size="24" transform="matrix(1 0 0 1 337.49 1606)">Rf01</text><path d="M1659.09 1529C1674.5 1529 1687 1541.54 1687 1557L1687 1571C1687 1586.47 1674.5 1599 1659.09 1599L1293.91 1599C1278.5 1599 1266 1586.47 1266 1571L1266 1557C1266 1541.54 1278.5 1529 1293.91 1529L1659.09 1529Z" stroke="#000000" stroke-width="1.71785" stroke-miterlimit="8" fill="#FFFFFF" fill-rule="evenodd"/><text font-family="Arial,Arial_MSFontService,sans-serif" font-weight="400" font-size="35" transform="matrix(1 0 0 1 1295.43 1576)">Maak verwijsgegevens</text><path d="M1125 1563.31 1168 1552 1168 1574Z" fill-rule="evenodd"/><path d="M1777.5 1971.5 1777.5 2040.5 1895.5 2040.5" stroke="#000000" stroke-width="4.90814" stroke-linecap="square" stroke-miterlimit="8" fill="none" fill-rule="evenodd"/><path d="M1168 1884.31 1124 1873 1124 1895Z" fill-rule="evenodd"/><path d="M1469 1886 1080 1885" stroke="#000000" stroke-width="1.71785" stroke-miterlimit="8" fill="none" fill-rule="evenodd"/><path d="M1470 1919.22 1159.49 1919 1131.1 1919.18C1110.35 1919 1103.57 1928.58 1104.14 1947.17L1104.02 1964.39 1104.14 1993.02C1104.14 2008.48 1093.6 2021 1078.17 2021L1078 2020.78" stroke="#000000" stroke-width="1.71785" stroke-miterlimit="8" fill="none" fill-rule="evenodd"/><path d="M1168 1919.31 1124 1908 1124 1930Z" fill-rule="evenodd"/><path d="M1253.5 664.566C1253.5 628.5 1287.91 628.5 1287.91 628.5L1845.79 628.5C1845.79 628.5 1880.5 628.192 1880.5 663.333 1880.5 698.474 1844.56 698.475 1844.56 698.475L1287.91 698.475C1287.91 698.475 1253.5 700.632 1253.5 664.566Z" stroke="#000000" stroke-width="1.22703" stroke-miterlimit="8" fill="#FFFFFF" fill-rule="evenodd"/><text font-family="Arial,Arial_MSFontService,sans-serif" font-weight="400" font-size="39" transform="matrix(1 0 0 1 1531.23 682)">RNI</text><path d="M68.4999 664.566C68.4999 628.5 102.907 628.5 102.907 628.5L660.787 628.5C660.787 628.5 695.5 628.192 695.5 663.333 695.5 698.474 659.558 698.475 659.558 698.475L102.907 698.475C102.907 698.475 68.4999 700.632 68.4999 664.566Z" stroke="#000000" stroke-width="1.22703" stroke-miterlimit="8" fill="#FFFFFF" fill-rule="evenodd"/><text font-family="Arial,Arial_MSFontService,sans-serif" font-weight="400" font-size="39" transform="matrix(1 0 0 1 165.049 682)">Gemeente van vertrek</text><path d="M1924.5 977.5C1924.5 996.278 1909.05 1011.5 1890 1011.5 1870.95 1011.5 1855.5 996.278 1855.5 977.5 1855.5 958.722 1870.95 943.5 1890 943.5 1909.05 943.5 1924.5 958.722 1924.5 977.5Z" stroke="#000000" stroke-width="1.22703" stroke-miterlimit="8" fill="#FFFFFF" fill-rule="evenodd"/><text font-family="Arial,Arial_MSFontService,sans-serif" font-weight="400" font-size="49" transform="matrix(1 0 0 1 1876.24 997)">1</text><path d="M102.5 1641C102.5 1660.05 87.0538 1675.5 67.9999 1675.5 48.946 1675.5 33.4998 1660.05 33.4998 1641 33.4998 1621.95 48.946 1606.5 67.9999 1606.5 87.0538 1606.5 102.5 1621.95 102.5 1641Z" stroke="#000000" stroke-width="1.22703" stroke-miterlimit="8" fill="#FFFFFF" fill-rule="evenodd"/><text font-family="Arial,Arial_MSFontService,sans-serif" font-weight="400" font-size="49" transform="matrix(1 0 0 1 53.6062 1660)">3</text><path d="M102.5 1885C102.5 1904.05 87.0538 1919.5 67.9999 1919.5 48.946 1919.5 33.4998 1904.05 33.4998 1885 33.4998 1865.95 48.946 1850.5 67.9999 1850.5 87.0538 1850.5 102.5 1865.95 102.5 1885Z" stroke="#000000" stroke-width="1.22703" stroke-miterlimit="8" fill="#FFFFFF" fill-rule="evenodd"/><text font-family="Arial,Arial_MSFontService,sans-serif" font-weight="400" font-size="49" transform="matrix(1 0 0 1 53.6062 1905)">4</text><path d="M1924.5 2040C1924.5 2059.05 1909.05 2074.5 1890 2074.5 1870.95 2074.5 1855.5 2059.05 1855.5 2040 1855.5 2020.95 1870.95 2005.5 1890 2005.5 1909.05 2005.5 1924.5 2020.95 1924.5 2040Z" stroke="#000000" stroke-width="1.22703" stroke-miterlimit="8" fill="#FFFFFF" fill-rule="evenodd"/><text font-family="Arial,Arial_MSFontService,sans-serif" font-weight="400" font-size="49" transform="matrix(1 0 0 1 1875.65 2060)">5</text><path d="M1274.5 1564C1274.5 1568.14 1271.14 1571.5 1267 1571.5 1262.86 1571.5 1259.5 1568.14 1259.5 1564 1259.5 1559.86 1262.86 1556.5 1267 1556.5 1271.14 1556.5 1274.5 1559.86 1274.5 1564Z" stroke="#000000" stroke-width="1.22703" stroke-linecap="square" stroke-miterlimit="8" fill="#FFFFFF" fill-rule="evenodd"/><path d="M1582.77 1799.07 1602 1792 1582.77 1834 1563 1792Z" fill-rule="evenodd"/><path d="M1582.77 2111.07 1602 2104 1582.77 2146 1563 2104Z" fill-rule="evenodd"/><path d="M548.274 2111.07 568 2104 548.274 2146 528 2104Z" fill-rule="evenodd"/><path d="M1397.77 1493.06 1417 1486 1397.77 1528 1378 1486Z" fill-rule="evenodd"/><path d="M1738.77 1176.9 1758 1170 1738.77 1211 1719 1170Z" fill-rule="evenodd"/><path d="M524.5 859.5 524.5 1429.5" stroke="#000000" stroke-width="4.90814" stroke-linecap="square" stroke-miterlimit="8" fill="none" fill-rule="evenodd"/><path d="M523.767 1414.07 543 1407 523.767 1449 504 1407Z" fill-rule="evenodd"/><path d="M617.272 1693.9 637 1687 617.272 1728 597 1687Z" fill-rule="evenodd"/><path d="M667.157 1728C682.534 1728 695 1740.53 695 1756L695 1805C695 1820.46 682.534 1833 667.157 1833L302.847 1833C287.468 1833 275 1820.46 275 1805L275 1756C275 1740.53 287.468 1728 302.847 1728L667.157 1728Z" stroke="#000000" stroke-width="1.71785" stroke-miterlimit="8" fill="#FFFFFF" fill-rule="evenodd"/><text font-family="Arial,Arial_MSFontService,sans-serif" font-weight="400" font-size="35" transform="matrix(1 0 0 1 303.998 1776)">Verwijsgegevens</text><text font-family="Arial,Arial_MSFontService,sans-serif" font-weight="400" font-size="35" transform="matrix(1 0 0 1 303.998 1811)">correct?</text><path d="M646.057 1824C653.756 1824 660 1830.23 660 1837.92L660 1845.08C660 1852.77 653.756 1859 646.057 1859L517.947 1859C510.242 1859 504 1852.77 504 1845.08L504 1837.92C504 1830.23 510.242 1824 517.947 1824L646.057 1824Z" stroke="#000000" stroke-width="1.71785" stroke-miterlimit="8" fill="#FFFFFF" fill-rule="evenodd"/><path d="M453.053 1824C460.758 1824 467 1830.23 467 1837.92L467 1845.08C467 1852.77 460.755 1859 453.053 1859L324.943 1859C317.245 1859 311 1852.77 311 1845.08L311 1837.92C311 1830.23 317.245 1824 324.943 1824L453.053 1824Z" stroke="#000000" stroke-width="1.71785" stroke-miterlimit="8" fill="#FFFFFF" fill-rule="evenodd"/><text font-family="Arial,Arial_MSFontService,sans-serif" font-weight="400" font-size="24" transform="matrix(1 0 0 1 366.042 1851)">Nee</text><text font-family="Arial,Arial_MSFontService,sans-serif" font-weight="400" font-size="24" transform="matrix(1 0 0 1 568.943 1851)">Ja</text><path d="M434.5 1861.5C434.5 1865.37 431.142 1868.5 427 1868.5 422.858 1868.5 419.5 1865.37 419.5 1861.5 419.5 1857.63 422.858 1854.5 427 1854.5 431.142 1854.5 434.5 1857.63 434.5 1861.5Z" stroke="#000000" stroke-width="1.22703" stroke-linecap="square" stroke-miterlimit="8" fill="#FFFFFF" fill-rule="evenodd"/><path d="M621.5 1861.5C621.5 1865.37 618.142 1868.5 614 1868.5 609.858 1868.5 606.5 1865.37 606.5 1861.5 606.5 1857.63 609.858 1854.5 614 1854.5 618.142 1854.5 621.5 1857.63 621.5 1861.5Z" stroke="#000000" stroke-width="1.22703" stroke-linecap="square" stroke-miterlimit="8" fill="#FFFFFF" fill-rule="evenodd"/><path d="M1861.15 1833C1876.53 1833 1889 1845.45 1889 1860.8L1889 1944.2C1889 1959.55 1876.53 1972 1861.15 1972L1496.84 1972C1481.47 1972 1469 1959.55 1469 1944.2L1469 1860.8C1469 1845.45 1481.47 1833 1496.84 1833L1861.15 1833Z" stroke="#000000" stroke-width="1.71785" stroke-miterlimit="8" fill="#FFFFFF" fill-rule="evenodd"/><text font-family="Arial,Arial_MSFontService,sans-serif" font-weight="400" font-size="35" transform="matrix(1 0 0 1 1497.98 1880)">Wacht op antwoord</text><path d="M1774.76 1996 1774.88 1967.41 1774.88 1940.72 1775 1912.13C1775 1896.7 1762.52 1884.19 1747.12 1884.19L1718.79 1884 1465 1884.22" stroke="#000000" stroke-width="1.71785" stroke-miterlimit="8" stroke-dasharray="9.66289 6.44193" fill="none" fill-rule="evenodd"/><path d="M1582.87 1976 1583 1947.27C1583 1931.76 1570.5 1919.18 1555.08 1919.18L1526.69 1919 1469 1919.22" stroke="#000000" stroke-width="1.71785" stroke-miterlimit="8" stroke-dasharray="9.66289 6.44193" fill="none" fill-rule="evenodd"/><path d="M1647.05 1963C1654.76 1963 1661 1969.23 1661 1976.92L1661 1984.08C1661 1991.77 1654.76 1998 1647.05 1998L1518.95 1998C1511.25 1998 1505 1991.77 1505 1984.08L1505 1976.92C1505 1969.23 1511.25 1963 1518.95 1963L1647.05 1963Z" stroke="#000000" stroke-width="1.71785" stroke-miterlimit="8" fill="#FFFFFF" fill-rule="evenodd"/><text font-family="Arial,Arial_MSFontService,sans-serif" font-weight="400" font-size="24" transform="matrix(1 0 0 1 1563.61 1990)">Null</text><path d="M1840.06 1963C1847.76 1963 1854 1969.23 1854 1976.92L1854 1984.08C1854 1991.77 1847.76 1998 1840.06 1998L1711.95 1998C1704.24 1998 1698 1991.77 1698 1984.08L1698 1976.92C1698 1969.23 1704.24 1963 1711.95 1963L1840.06 1963Z" stroke="#000000" stroke-width="1.71785" stroke-miterlimit="8" fill="#FFFFFF" fill-rule="evenodd"/><text font-family="Arial,Arial_MSFontService,sans-serif" font-weight="400" font-size="24" transform="matrix(1 0 0 1 1749.02 1990)">Rf31</text><path d="M1476.5 1920C1476.5 1924.14 1473.14 1927.5 1469 1927.5 1464.86 1927.5 1461.5 1924.14 1461.5 1920 1461.5 1915.86 1464.86 1912.5 1469 1912.5 1473.14 1912.5 1476.5 1915.86 1476.5 1920Z" stroke="#000000" stroke-width="1.22703" stroke-linecap="square" stroke-miterlimit="8" fill="#FFFFFF" fill-rule="evenodd"/><path d="M1476.5 1885.5C1476.5 1889.37 1473.14 1892.5 1469 1892.5 1464.86 1892.5 1461.5 1889.37 1461.5 1885.5 1461.5 1881.63 1464.86 1878.5 1469 1878.5 1473.14 1878.5 1476.5 1881.63 1476.5 1885.5Z" stroke="#000000" stroke-width="1.22703" stroke-linecap="square" stroke-miterlimit="8" fill="#FFFFFF" fill-rule="evenodd"/><path d="M674.995 789C687.702 789 698 801.535 698 816.998L698 831C698 846.465 687.702 859 674.995 859L374.006 859C361.299 859 351 846.465 351 831L351 816.998C351 801.535 361.299 789 374.006 789L674.995 789Z" stroke="#000000" stroke-width="1.71785" stroke-miterlimit="8" fill="#FFFFFF" fill-rule="evenodd"/><text font-family="Arial,Arial_MSFontService,sans-serif" font-weight="400" font-size="35" transform="matrix(1 0 0 1 385.508 837)">Verzend PL</text><path d="M708.5 824C708.5 828.142 705.142 831.5 701 831.5 696.858 831.5 693.5 828.142 693.5 824 693.5 819.858 696.858 816.5 701 816.5 705.142 816.5 708.5 819.858 708.5 824Z" stroke="#000000" stroke-width="1.22703" stroke-linecap="square" stroke-miterlimit="8" fill="#FFFFFF" fill-rule="evenodd"/><path d="M67 879 304 879 304 758.287 275.957 759.208C275.957 746 266.412 746 266.412 746L247.319 746C247.319 746 237.773 746.615 237.773 759.208L67 759.208 67 879Z" stroke="#000000" stroke-width="2.45407" stroke-linecap="square" stroke-miterlimit="8" fill="#FFFFFF" fill-rule="evenodd"/><path d="M1411.52 847C1423.94 847 1434 853.246 1434 860.955L1434 903.045C1434 910.752 1423.94 917 1411.52 917L1317.46 917C1305.05 917 1295 910.752 1295 903.045L1295 860.955C1295 853.246 1305.05 847 1317.46 847L1411.52 847Z" stroke="#000000" stroke-width="1.71785" stroke-miterlimit="8" fill="#FFFFFF" fill-rule="evenodd"/><path d="M1579.03 847C1587.3 847 1594 853.246 1594 860.955L1594 903.045C1594 910.752 1587.3 917 1579.03 917L1478.97 917C1470.7 917 1464 910.752 1464 903.045L1464 860.955C1464 853.246 1470.7 847 1478.97 847L1579.03 847Z" stroke="#000000" stroke-width="1.71785" stroke-miterlimit="8" fill="#FFFFFF" fill-rule="evenodd"/><text font-family="Arial,Arial_MSFontService,sans-serif" font-weight="400" font-size="24" transform="matrix(1 0 0 1 1468.87 888)">Overleden</text><text font-family="Arial,Arial_MSFontService,sans-serif" font-weight="400" font-size="24" transform="matrix(1 0 0 1 1322.66 888)">Actueel</text><path d="M1514.5 918C1514.5 922.142 1511.37 925.5 1507.5 925.5 1503.63 925.5 1500.5 922.142 1500.5 918 1500.5 913.858 1503.63 910.5 1507.5 910.5 1511.37 910.5 1514.5 913.858 1514.5 918Z" stroke="#000000" stroke-width="1.22703" stroke-linecap="square" stroke-miterlimit="8" fill="#FFFFFF" fill-rule="evenodd"/><path d="M1338.5 918C1338.5 922.142 1335.37 925.5 1331.5 925.5 1327.63 925.5 1324.5 922.142 1324.5 918 1324.5 913.858 1327.63 910.5 1331.5 910.5 1335.37 910.5 1338.5 913.858 1338.5 918Z" stroke="#000000" stroke-width="1.22703" stroke-linecap="square" stroke-miterlimit="8" fill="#FFFFFF" fill-rule="evenodd"/><text font-family="Arial,Arial_MSFontService,sans-serif" font-weight="400" font-size="35" transform="matrix(1 0 0 1 86.5979 801)">Emigratie of</text><text font-family="Arial,Arial_MSFontService,sans-serif" font-weight="400" font-size="35" transform="matrix(1 0 0 1 86.5979 836)">Ministerieel</text><text font-family="Arial,Arial_MSFontService,sans-serif" font-weight="400" font-size="35" transform="matrix(1 0 0 1 86.5976 870)">besluit</text><path d="M1079 975.95 1303.12 977C1318.52 977 1331 964.547 1331 949.183L1330.77 926" stroke="#000000" stroke-width="1.71785" stroke-miterlimit="8" fill="none" fill-rule="evenodd"/><path d="M868.5 1080.5 1080.5 1080.5 1080.5 1185.5 868.5 1185.5Z" stroke="#000000" stroke-width="4.90814" stroke-miterlimit="8" fill="#FFFFFF" fill-rule="evenodd"/><path d="M868 1079.37 918.141 1130 1028.5 1130 1079 1079" stroke="#000000" stroke-width="1.71785" stroke-miterlimit="8" fill="none" fill-rule="evenodd"/><text font-family="Arial,Arial_MSFontService,sans-serif" font-weight="400" font-size="30" transform="matrix(1 0 0 1 941.488 1120)">Rf01</text><text font-family="Arial,Arial_MSFontService,sans-serif" font-weight="400" font-size="30" transform="matrix(1 0 0 1 909.571 1170)">Code "O"</text><path d="M1079 822 1260 821" stroke="#000000" stroke-width="1.71785" stroke-miterlimit="8" fill="none" fill-rule="evenodd"/><path d="M1169 822.303 1125 811 1125 833Z" fill-rule="evenodd"/><path d="M1123 975.303 1167 964 1167 986Z" fill-rule="evenodd"/><path d="M1123 1129.3 1167 1118 1167 1140Z" fill-rule="evenodd"/><path d="M1080 1130 1479.12 1129.09C1494.52 1129.09 1507 1116.6 1507 1101.19L1506.77 926" stroke="#000000" stroke-width="1.71785" stroke-miterlimit="8" fill="none" fill-rule="evenodd"/><path d="M1738.5 1296.5 1738.5 1365.5 1872.5 1365.5" stroke="#000000" stroke-width="4.90814" stroke-linecap="square" stroke-miterlimit="8" fill="none" fill-rule="evenodd"/><path d="M1462.06 1272C1469.76 1272 1476 1278.23 1476 1285.91L1476 1293.09C1476 1300.77 1469.76 1307 1462.06 1307L1333.95 1307C1326.24 1307 1320 1300.77 1320 1293.09L1320 1285.91C1320 1278.23 1326.24 1272 1333.95 1272L1462.06 1272Z" stroke="#000000" stroke-width="1.71785" stroke-miterlimit="8" fill="#FFFFFF" fill-rule="evenodd"/><path d="M1805.06 1271C1812.76 1271 1819 1277.23 1819 1284.91L1819 1292.09C1819 1299.77 1812.76 1306 1805.06 1306L1676.95 1306C1669.24 1306 1663 1299.77 1663 1292.09L1663 1284.91C1663 1277.23 1669.24 1271 1676.95 1271L1805.06 1271Z" stroke="#000000" stroke-width="1.71785" stroke-miterlimit="8" fill="#FFFFFF" fill-rule="evenodd"/><text font-family="Arial,Arial_MSFontService,sans-serif" font-weight="400" font-size="24" transform="matrix(1 0 0 1 1383.43 1298)">Ja</text><path d="M659.506 1579C664.198 1579 668 1585.23 668 1592.92L668 1600.08C668 1607.77 664.198 1614 659.506 1614L581.49 1614C576.802 1614 573 1607.77 573 1600.08L573 1592.92C573 1585.23 576.802 1579 581.49 1579L659.506 1579Z" stroke="#000000" stroke-width="1.71785" stroke-miterlimit="8" fill="#FFFFFF" fill-rule="evenodd"/><text font-family="Arial,Arial_MSFontService,sans-serif" font-weight="400" font-size="24" transform="matrix(1 0 0 1 593.766 1607)">Rv01</text><path d="M694 1563 865 1564" stroke="#000000" stroke-width="1.71785" stroke-miterlimit="8" fill="none" fill-rule="evenodd"/><path d="M779 1563.31 822 1552 822 1574Z" fill-rule="evenodd"/><path d="M702.5 1564C702.5 1568.14 699.142 1571.5 695 1571.5 690.858 1571.5 687.5 1568.14 687.5 1564 687.5 1559.86 690.858 1556.5 695 1556.5 699.142 1556.5 702.5 1559.86 702.5 1564Z" stroke="#000000" stroke-width="1.22703" stroke-linecap="square" stroke-miterlimit="8" fill="#FFFFFF" fill-rule="evenodd"/><path d="M699 1501.78 812.559 1502C827.933 1502 840.4 1489.54 840.4 1474.15L840.276 1025.12 840.276 1033.35 840.158 1004.85C840.158 989.468 852.623 977 868 977L867.682 977.218" stroke="#000000" stroke-width="1.71785" stroke-miterlimit="8" fill="none" fill-rule="evenodd"/><path d="M840.12 1186 840 1157.68C840 1142.39 852.681 1130 868.325 1130L870 1130.22" stroke="#000000" stroke-width="1.71785" stroke-miterlimit="8" fill="none" fill-rule="evenodd"/><path d="M702.5 1502C702.5 1506.14 699.142 1509.5 695 1509.5 690.858 1509.5 687.5 1506.14 687.5 1502 687.5 1497.86 690.858 1494.5 695 1494.5 699.142 1494.5 702.5 1497.86 702.5 1502Z" stroke="#000000" stroke-width="1.22703" stroke-linecap="square" stroke-miterlimit="8" fill="#FFFFFF" fill-rule="evenodd"/><path d="M1921.5 1365C1921.5 1384.05 1906.05 1399.5 1887 1399.5 1867.95 1399.5 1852.5 1384.05 1852.5 1365 1852.5 1345.95 1867.95 1330.5 1887 1330.5 1906.05 1330.5 1921.5 1345.95 1921.5 1365Z" stroke="#000000" stroke-width="1.22703" stroke-miterlimit="8" fill="#FFFFFF" fill-rule="evenodd"/><text font-family="Arial,Arial_MSFontService,sans-serif" font-weight="400" font-size="49" transform="matrix(1 0 0 1 1872.96 1385)">2</text><text font-family="Arial,Arial_MSFontService,sans-serif" font-weight="400" font-size="24" transform="matrix(1 0 0 1 1715.3 1299)">Nee</text></g></svg>