<svg width="572" height="83" xmlns="http://www.w3.org/2000/svg" xmlns:xlink="http://www.w3.org/1999/xlink" overflow="hidden"><defs><clipPath id="clip0"><rect x="150" y="523" width="572" height="83"/></clipPath></defs><g clip-path="url(#clip0)" transform="translate(-150 -523)"><text font-family="Arial,Arial_MSFontService,Arial" font-weight="400" font-size="13" transform="translate(354.544 545)">ELN<tspan font-size="13" x="34.3575" y="0">ELL</tspan><tspan font-size="13" x="69.4193" y="0">ELI</tspan></text><path d="M451 566.596 440 563 440 570Z" fill-rule="evenodd"/><path d="M418 566.596 429 563 429 570Z" fill-rule="evenodd"/><text font-family="Arial,Arial_MSFontService,Arial" font-weight="400" font-size="13" transform="translate(393.363 570)">=&gt;</text><path d="M259.5 579.5 444.5 579.5" stroke="#000000" stroke-width="0.782677" stroke-miterlimit="8" fill="none" fill-rule="evenodd"/><path d="M385.5 523.5 385.5 557.5" stroke="#000000" stroke-width="0.547822" stroke-miterlimit="8" fill="none" fill-rule="evenodd"/><path d="M418.5 523.5 418.5 557.5" stroke="#000000" stroke-width="0.547822" stroke-miterlimit="8" fill="none" fill-rule="evenodd"/><text font-family="Arial,Arial_MSFontService,Arial" font-weight="400" font-size="13" transform="translate(254.595 545)">ELN<tspan font-size="13" x="34.3576" y="0">ELL</tspan><tspan font-size="13" x="69.4193" y="0">ELI</tspan></text><path d="M351 566.596 340 563 340 570Z" fill-rule="evenodd"/><path d="M318 566.596 329 563 329 570Z" fill-rule="evenodd"/><text font-family="Arial,Arial_MSFontService,Arial" font-weight="400" font-size="13" transform="translate(293.413 570)">=&gt;</text><path d="M325.5 566.5 344.5 566.5" stroke="#000000" stroke-width="0.782677" stroke-miterlimit="8" fill="none" fill-rule="evenodd"/><path d="M285.5 523.5 285.5 557.5" stroke="#000000" stroke-width="0.547822" stroke-miterlimit="8" fill="none" fill-rule="evenodd"/><path d="M318.5 523.5 318.5 557.5" stroke="#000000" stroke-width="0.547822" stroke-miterlimit="8" fill="none" fill-rule="evenodd"/><path d="M351.5 523.5 351.5 557.5" stroke="#000000" stroke-width="0.547822" stroke-miterlimit="8" fill="none" fill-rule="evenodd"/><text font-family="Arial,Arial_MSFontService,Arial" font-weight="400" font-size="13" transform="translate(186.921 545)">CAN<tspan font-size="13" x="34.3577" y="0">CAL</tspan></text><path d="M218.5 523.5 218.5 557.5" stroke="#000000" stroke-width="0.547822" stroke-miterlimit="8" fill="none" fill-rule="evenodd"/><path d="M251.5 523.5 251.5 557.5" stroke="#000000" stroke-width="0.547822" stroke-miterlimit="8" fill="none" fill-rule="evenodd"/><text font-family="Arial,Arial_MSFontService,Arial" font-weight="400" font-size="13" transform="translate(226.78 583)">=&gt;</text><path d="M251 578.596 263 575 263 582Z" fill-rule="evenodd"/><path d="M451 578.596 440 575 440 582Z" fill-rule="evenodd"/><path d="M426.5 566.5 444.5 566.5" stroke="#000000" stroke-width="0.782677" stroke-miterlimit="8" fill="none" fill-rule="evenodd"/><text font-family="Arial,Arial_MSFontService,Arial" font-weight="400" font-size="13" transform="translate(621.174 545)">ELN<tspan font-size="13" x="34.3575" y="0">ELL</tspan><tspan font-size="13" x="69.4193" y="0">ELI</tspan></text><path d="M718 566.596 707 563 707 570Z" fill-rule="evenodd"/><path d="M685 566.596 696 563 696 570Z" fill-rule="evenodd"/><text font-family="Arial,Arial_MSFontService,Arial" font-weight="400" font-size="13" transform="translate(659.993 570)">=&gt;</text><path d="M526.5 579.5 710.5 579.5" stroke="#000000" stroke-width="0.782677" stroke-miterlimit="8" fill="none" fill-rule="evenodd"/><path d="M651.5 523.5 651.5 557.5" stroke="#000000" stroke-width="0.547822" stroke-miterlimit="8" fill="none" fill-rule="evenodd"/><path d="M685.5 523.5 685.5 557.5" stroke="#000000" stroke-width="0.547822" stroke-miterlimit="8" fill="none" fill-rule="evenodd"/><text font-family="Arial,Arial_MSFontService,Arial" font-weight="400" font-size="13" transform="translate(521.225 545)">ELN<tspan font-size="13" x="34.3575" y="0">ELL</tspan><tspan font-size="13" x="69.4193" y="0">ELI</tspan></text><path d="M618 566.596 607 563 607 570Z" fill-rule="evenodd"/><path d="M585 566.596 596 563 596 570Z" fill-rule="evenodd"/><text font-family="Arial,Arial_MSFontService,Arial" font-weight="400" font-size="13" transform="translate(560.044 570)">=&gt;</text><path d="M592.5 566.5 610.5 566.5" stroke="#000000" stroke-width="0.782677" stroke-miterlimit="8" fill="none" fill-rule="evenodd"/><path d="M551.5 523.5 551.5 557.5" stroke="#000000" stroke-width="0.547822" stroke-miterlimit="8" fill="none" fill-rule="evenodd"/><path d="M585.5 523.5 585.5 557.5" stroke="#000000" stroke-width="0.547822" stroke-miterlimit="8" fill="none" fill-rule="evenodd"/><path d="M618.5 523.5 618.5 557.5" stroke="#000000" stroke-width="0.547822" stroke-miterlimit="8" fill="none" fill-rule="evenodd"/><text font-family="Arial,Arial_MSFontService,Arial" font-weight="400" font-size="13" transform="translate(453.551 545)">CAN<tspan font-size="13" x="34.3575" y="0">CAL</tspan></text><path d="M485.5 523.5 485.5 557.5" stroke="#000000" stroke-width="0.547822" stroke-miterlimit="8" fill="none" fill-rule="evenodd"/><path d="M518.5 523.5 518.5 557.5" stroke="#000000" stroke-width="0.547822" stroke-miterlimit="8" fill="none" fill-rule="evenodd"/><text font-family="Arial,Arial_MSFontService,Arial" font-weight="400" font-size="13" transform="translate(493.411 583)">=&gt;</text><path d="M518 578.596 529 575 529 582Z" fill-rule="evenodd"/><path d="M718 578.596 707 575 707 582Z" fill-rule="evenodd"/><path d="M692.5 566.5 711.5 566.5" stroke="#000000" stroke-width="0.782677" stroke-miterlimit="8" fill="none" fill-rule="evenodd"/><path d="M451.5 523.5 451.5 557.5" stroke="#000000" stroke-width="0.547822" stroke-miterlimit="8" fill="none" fill-rule="evenodd"/><text font-family="Arial,Arial_MSFontService,Arial" font-weight="400" font-size="13" transform="translate(159.801 545)">BL</text><path d="M185.5 523.5 185.5 557.5" stroke="#000000" stroke-width="0.547822" stroke-miterlimit="8" fill="none" fill-rule="evenodd"/><path d="M718 591.596 707 588 707 595Z" fill-rule="evenodd"/><path d="M193.5 592.5 710.5 592.5" stroke="#000000" stroke-width="0.782677" stroke-miterlimit="8" fill="none" fill-rule="evenodd"/><path d="M185 591.596 196 588 196 595Z" fill-rule="evenodd"/><text font-family="Arial,Arial_MSFontService,Arial" font-weight="400" font-size="13" transform="translate(160.147 595)">=&gt;</text><path d="M151.5 523.5 718.5 523.5 718.5 557.5 151.5 557.5Z" stroke="#000000" stroke-width="0.547822" stroke-miterlimit="8" fill="none" fill-rule="evenodd"/></g></svg>