<svg width="1951" height="2348" xmlns="http://www.w3.org/2000/svg" xmlns:xlink="http://www.w3.org/1999/xlink" xml:space="preserve" overflow="hidden"><g transform="translate(1 -260)"><path d="M0 261 776 261 776 2607 0 2607Z" stroke="#000000" stroke-width="1.72904" stroke-miterlimit="8" fill="#E6E6E6" fill-rule="evenodd"/><path d="M389.5 2399.5 389.5 2433.5 84.5001 2433.5" stroke="#000000" stroke-width="4.91211" stroke-miterlimit="8" fill="none" fill-rule="evenodd"/><path d="M1948.72 2607 1949 261 1174.79 261.128 1174 2606.9 1948.72 2607Z" stroke="#000000" stroke-width="1.72904" stroke-miterlimit="8" fill="#E6E6E6" fill-rule="evenodd"/><path d="M1763.5 1031.57 1763.5 1065.57" stroke="#000000" stroke-width="4.91211" stroke-linecap="square" stroke-miterlimit="8" fill="none" fill-rule="evenodd"/><path d="M1762.77 1049.97 1782 1043.07 1762.77 1084.07 1743 1043.07 1762.77 1049.97Z" fill-rule="evenodd"/><path d="M0.37276-0.0665645 0.148888 68.8667C0.148888 84.288 12.6021 96.7848 27.9638 96.7848L457.908 96.7848C475.454 96.7848 492.933 115.621 492.933 131.933 492.933 148.245 492.629 195.389 492.627 213.237 492.627 236.625 507.347 246.472 527.433 246.933L649.149 246.933" stroke="#000000" stroke-width="1.72904" stroke-miterlimit="8" fill="none" fill-rule="evenodd" transform="matrix(-1 1.22465e-16 1.22465e-16 1 1732 795)"/><path d="M0.366793-0.0726339 0.142602 68.7843C0.142602 84.1885 12.6136 96.6714 27.9972 96.6714L283.629 96.6714C301.2 96.6714 318.704 115.487 318.704 131.781 318.704 148.074 318.4 118.44 318.397 136.268 318.397 159.63 333.138 169.467 353.253 169.927L475.143 169.927" stroke="#000000" stroke-width="1.72904" stroke-miterlimit="8" fill="none" fill-rule="evenodd" transform="matrix(-1 1.22465e-16 1.22465e-16 1 1522 762)"/><path d="M1512.78 1540.97 1512.78 1608.23 1513 1612.91C1513 1628.37 1500.51 1640.89 1485.11 1640.89L1464.33 1640.97 1040 1639.91" stroke="#000000" stroke-width="1.72904" stroke-miterlimit="8" fill="none" fill-rule="evenodd"/><path d="M1590.5 1568.47 1590.5 1637.47 1870.5 1637.47" stroke="#000000" stroke-width="4.91211" stroke-linecap="square" stroke-miterlimit="8" fill="none" fill-rule="evenodd"/><path d="M1766.49 1179.5 1766.49 1382.5" stroke="#000000" stroke-width="4.91211" stroke-linecap="square" stroke-miterlimit="8" fill="none" fill-rule="evenodd"/><path d="M1590.5 1175.49 1590.5 1244.49 1870.5 1244.49" stroke="#000000" stroke-width="4.91211" stroke-linecap="square" stroke-miterlimit="8" fill="none" fill-rule="evenodd"/><path d="M802.119 1335 802 1306.68C802 1291.39 814.594 1279 830.129 1279L870 1279.22" stroke="#000000" stroke-width="1.72904" stroke-miterlimit="8" fill="none" fill-rule="evenodd"/><path d="M802.119 1099 802 1070.17C802 1054.61 814.594 1042 830.129 1042L870 1042.23" stroke="#000000" stroke-width="1.72904" stroke-miterlimit="8" fill="none" fill-rule="evenodd"/><path d="M1590.5 769.5 1590.5 839.5 1870.5 839.5" stroke="#000000" stroke-width="4.91211" stroke-linecap="square" stroke-miterlimit="8" fill="none" fill-rule="evenodd"/><path d="M1799.5 769.5 1799.5 839.5" stroke="#000000" stroke-width="4.91211" stroke-linecap="square" stroke-miterlimit="8" fill="none" fill-rule="evenodd"/><path d="M1363.5 2147.51 1363.5 2175.51" stroke="#000000" stroke-width="4.91211" stroke-linecap="square" stroke-miterlimit="8" fill="none" fill-rule="evenodd"/><path d="M1631 1348.97 1631 1418.38 1630.32 1435.36C1630.32 1450.79 1630.94 1463.97 1589.07 1463.97L996 1463.97" stroke="#000000" stroke-width="1.72904" stroke-miterlimit="8" fill="none" fill-rule="evenodd"/><path d="M1521.78 1194 1521.78 1246.52 1522 1251.17C1522 1266.5 1509.52 1278.93 1494.12 1278.93L1473.34 1279 1040 1277.95" stroke="#000000" stroke-width="1.72904" stroke-miterlimit="8" fill="none" fill-rule="evenodd"/><path d="M1363.5 2024.5 1363.5 2281.5" stroke="#000000" stroke-width="4.91211" stroke-linecap="square" stroke-miterlimit="8" fill="none" fill-rule="evenodd"/><path d="M695 2296.73 774.83 2296.97C790.249 2296.97 802.749 2284.49 802.749 2269.13L802.625 1687.07 802.625 1660.49 802.507 1666.8C802.507 1651.43 815.007 1638.96 830.426 1638.96L870 1639.19" stroke="#000000" stroke-width="1.72904" stroke-miterlimit="8" fill="none" fill-rule="evenodd"/><path d="M493.5 523.5 493.5 2225.5" stroke="#000000" stroke-width="4.91211" stroke-linecap="square" stroke-miterlimit="8" fill="none" fill-rule="evenodd"/><path d="M1763.5 506.5 1763.5 660.5" stroke="#000000" stroke-width="4.91211" stroke-linecap="square" stroke-miterlimit="8" fill="none" fill-rule="evenodd"/><path d="M1546.59 910.5 1546.82 906.043C1546.82 890.686 1539.03 878.008 1523.63 878.008L1237.39 878.124C1221.98 878.124 1209.5 865.675 1209.5 850.318L1209.5 671.332C1209.5 655.975 1221.98 643.526 1237.39 643.526L1273.4 643.555 1302.89 643.526 1529.62 643.685C1545.01 643.685 1557.5 631.235 1557.5 615.878L1557.27 526.5" stroke="#000000" stroke-width="4.91211" stroke-miterlimit="8" fill="none" fill-rule="evenodd"/><path d="M1546.27 1684.58 1546.5 1680.12C1546.5 1664.75 1538.72 1652.07 1523.33 1652.07L1237.36 1652.19C1221.97 1652.19 1209.5 1639.73 1209.5 1624.37L1209.5 1095.88C1209.5 1080.52 1221.97 1068.06 1237.36 1068.06L1273.34 1068.09 1302.8 1068.06 1338.64 1068.22C1354.03 1068.22 1366.5 1055.77 1366.5 1040.4L1366.27 1025.58" stroke="#000000" stroke-width="4.91211" stroke-miterlimit="8" fill="none" fill-rule="evenodd"/><path d="M1418.5 1447.48 1267.98 1446.84C1245.28 1446.84 1237.5 1434.34 1237.5 1418.93L1237.5 1239.11C1237.5 1223.7 1249.96 1211.2 1265.33 1211.2L1335.21 1211.36C1350.58 1211.36 1363.04 1198.86 1363.04 1183.45L1362.81 1174.48" stroke="#000000" stroke-width="4.91211" stroke-miterlimit="8" fill="none" fill-rule="evenodd"/><path d="M1363.5 2142.56 1267.97 2141.93C1245.28 2141.93 1237.5 2129.48 1237.5 2114.12L1237.5 1701.53C1237.5 1686.17 1249.95 1673.72 1265.32 1673.72L1335.19 1673.88C1350.56 1673.88 1363.01 1661.44 1363.01 1646.08L1362.79 1615.56" stroke="#000000" stroke-width="4.91211" stroke-miterlimit="8" fill="none" fill-rule="evenodd"/><path d="M1399.5 769.5 1399.5 839.5 1678.5 839.5" stroke="#000000" stroke-width="4.91211" stroke-linecap="square" stroke-miterlimit="8" fill="none" fill-rule="evenodd"/><path d="M1040 828.939 1264.27 830.001 1301.1 829.812C1316.51 829.812 1329 817.23 1329 801.706L1328.77 782 1328.77 799.09" stroke="#000000" stroke-width="1.72904" stroke-miterlimit="8" fill="none" fill-rule="evenodd"/><path d="M1313.77 511 1314 585.183C1314 600.549 1301.54 613 1286.17 613L958 612.629" stroke="#000000" stroke-width="1.72904" stroke-miterlimit="8" fill="none" fill-rule="evenodd"/><path d="M1377.5 545.5 1377.5 614.5 1870.5 614.5" stroke="#000000" stroke-width="4.91211" stroke-linecap="square" stroke-miterlimit="8" fill="none" fill-rule="evenodd"/><path d="M1095 611.305 1139 600 1139 622 1095 611.305Z" fill-rule="evenodd"/><path d="M867.5 561.5 1078.5 561.5 1078.5 666.5 867.5 666.5Z" stroke="#000000" stroke-width="4.91211" stroke-miterlimit="8" fill="#FFFFFF" fill-rule="evenodd"/><path d="M867 560.365 917.147 611 1027.5 611 1078 560" stroke="#000000" stroke-width="1.72904" stroke-miterlimit="8" fill="none" fill-rule="evenodd"/><path d="M1042 487 1254 487" stroke="#000000" stroke-width="1.72904" stroke-miterlimit="8" fill="none" fill-rule="evenodd"/><path d="M1140 486.301 1097 475 1097 497 1140 486.301Z" fill-rule="evenodd"/><path d="M673 487 871 487" stroke="#000000" stroke-width="1.72904" stroke-miterlimit="8" fill="none" fill-rule="evenodd"/><path d="M827 486.301 783 475 783 497 827 486.301Z" fill-rule="evenodd"/><text font-family="Arial,Arial_MSFontService,sans-serif" font-weight="400" font-size="29" transform="matrix(1 0 0 1 942.268 601)">Tf21</text><text font-family="Arial,Arial_MSFontService,sans-serif" font-weight="400" font-size="29" transform="matrix(1 0 0 1 909.293 650)">Code "U"</text><path d="M1851.15 679C1866.53 679 1879 691.543 1879 707.015L1879 734.985C1879 750.457 1866.53 763 1851.15 763L1277.85 763C1262.47 763 1250 750.457 1250 734.985L1250 707.015C1250 691.543 1262.47 679 1277.85 679L1851.15 679Z" stroke="#000000" stroke-width="1.72904" stroke-miterlimit="8" fill="#FFFFFF" fill-rule="evenodd"/><path d="M1428.05 753C1435.75 753 1442 759.227 1442 766.915L1442 774.084C1442 781.769 1435.75 788 1428.05 788L1299.94 788C1292.24 788 1286 781.768 1286 774.084L1286 766.915C1286 759.227 1292.24 753 1299.94 753L1428.05 753Z" stroke="#000000" stroke-width="1.72904" stroke-miterlimit="8" fill="#FFFFFF" fill-rule="evenodd"/><text font-family="Arial,Arial_MSFontService,sans-serif" font-weight="400" font-size="24" transform="matrix(1 0 0 1 1308.42 781)">Niet uniek</text><path d="M1620.14 753C1627.8 753 1634 759.227 1634 766.915L1634 774.084C1634 781.769 1627.8 788 1620.14 788L1492.85 788C1485.2 788 1479 781.768 1479 774.084L1479 766.915C1479 759.227 1485.2 753 1492.85 753L1620.14 753Z" stroke="#000000" stroke-width="1.72904" stroke-miterlimit="8" fill="#FFFFFF" fill-rule="evenodd"/><text font-family="Arial,Arial_MSFontService,sans-serif" font-weight="400" font-size="24" transform="matrix(1 0 0 1 1499.24 781)">Gevonden</text><path d="M1829.14 753C1836.79 753 1843 759.227 1843 766.915L1843 774.084C1843 781.769 1836.79 788 1829.14 788L1701.86 788C1694.21 788 1688 781.768 1688 774.084L1688 766.915C1688 759.227 1694.21 753 1701.86 753L1829.14 753Z" stroke="#000000" stroke-width="1.72904" stroke-miterlimit="8" fill="#FFFFFF" fill-rule="evenodd"/><text font-family="Arial,Arial_MSFontService,sans-serif" font-weight="400" font-size="24" transform="matrix(1 0 0 1 1706.09 781)">Niet aanw</text><text font-family="Arial,Arial_MSFontService,sans-serif" font-weight="400" font-size="24" transform="matrix(1 0 0 1 1809.63 781)">.</text><path d="M1851.15 1083C1866.53 1083 1879 1095.36 1879 1110.6L1879 1124.4C1879 1139.64 1866.53 1152 1851.15 1152L1277.85 1152C1262.47 1152 1250 1139.64 1250 1124.4L1250 1110.6C1250 1095.36 1262.47 1083 1277.85 1083L1851.15 1083Z" stroke="#000000" stroke-width="1.72904" stroke-miterlimit="8" fill="#FFFFFF" fill-rule="evenodd"/><text font-family="Arial,Arial_MSFontService,sans-serif" font-weight="400" font-size="35" transform="matrix(1 0 0 1 1279.05 1130)">Onderzoek status gevonden persoon</text><path d="M1829.14 1143C1836.79 1143 1843 1149.23 1843 1156.91L1843 1164.09C1843 1171.77 1836.79 1178 1829.14 1178L1701.86 1178C1694.21 1178 1688 1171.77 1688 1164.09L1688 1156.91C1688 1149.23 1694.21 1143 1701.86 1143L1829.14 1143Z" stroke="#000000" stroke-width="1.72904" stroke-miterlimit="8" fill="#FFFFFF" fill-rule="evenodd"/><text font-family="Arial,Arial_MSFontService,sans-serif" font-weight="400" font-size="24" transform="matrix(1 0 0 1 1707.75 1170)">Overleden</text><path d="M802.119 884 802 855.677C802 840.392 814.594 828 830.129 828L870 828.219" stroke="#000000" stroke-width="1.72904" stroke-miterlimit="8" fill="none" fill-rule="evenodd"/><path d="M802.119 668 802 639.173C802 623.614 814.594 611 830.129 611L870 611.223" stroke="#000000" stroke-width="1.72904" stroke-miterlimit="8" fill="none" fill-rule="evenodd"/><path d="M804 2058 803 641" stroke="#000000" stroke-width="1.72904" stroke-miterlimit="8" fill="none" fill-rule="evenodd"/><path d="M580.5 2343.5 580.5 2476.5" stroke="#000000" stroke-width="4.91211" stroke-linecap="square" stroke-miterlimit="8" fill="none" fill-rule="evenodd"/><path d="M668.089 2245C683.503 2245 696 2257.54 696 2273.01L696 2357.01C696 2372.46 683.503 2385 668.089 2385L302.91 2385C287.496 2385 275 2372.46 275 2357.01L275 2273.01C275 2257.54 287.496 2245 302.91 2245L668.089 2245Z" stroke="#000000" stroke-width="1.72904" stroke-miterlimit="8" fill="#FFFFFF" fill-rule="evenodd"/><text font-family="Arial,Arial_MSFontService,sans-serif" font-weight="400" font-size="35" transform="matrix(1 0 0 1 304.404 2293)">W</text><text font-family="Arial,Arial_MSFontService,sans-serif" font-weight="400" font-size="35" transform="matrix(1 0 0 1 335.581 2293)">a</text><text font-family="Arial,Arial_MSFontService,sans-serif" font-weight="400" font-size="35" transform="matrix(1 0 0 1 354.704 2293)">cht op antwoord</text><path d="M908 2332 694 2333" stroke="#000000" stroke-width="1.72904" stroke-miterlimit="8" fill="none" fill-rule="evenodd"/><path d="M867.5 2281.5 1078.5 2281.5 1078.5 2386.5 867.5 2386.5Z" stroke="#000000" stroke-width="4.91211" stroke-miterlimit="8" fill="#FFFFFF" fill-rule="evenodd"/><path d="M867 2281.35 917.147 2331 1027.5 2331 1078 2281" stroke="#000000" stroke-width="1.72904" stroke-miterlimit="8" fill="none" fill-rule="evenodd"/><text font-family="Arial,Arial_MSFontService,sans-serif" font-weight="400" font-size="29" transform="matrix(1 0 0 1 945.881 2322)">Null</text><path d="M712 2331.3 756 2320 756 2342 712 2331.3Z" fill-rule="evenodd"/><path d="M712 2296.82 756 2285 756 2308 712 2296.82Z" fill-rule="evenodd"/><path d="M867.5 436.5 1078.5 436.5 1078.5 542.5 867.5 542.5Z" stroke="#000000" stroke-width="4.91211" stroke-miterlimit="8" fill="#FFFFFF" fill-rule="evenodd"/><path d="M867 436.35 917.147 486 1027.5 486 1078 436" stroke="#000000" stroke-width="1.72904" stroke-miterlimit="8" fill="none" fill-rule="evenodd"/><text font-family="Arial,Arial_MSFontService,sans-serif" font-weight="400" font-size="29" transform="matrix(1 0 0 1 937.68 477)">Tb02</text><path d="M666.191 2507C681.55 2507 694 2519.35 694 2534.6L694 2548.4C694 2563.65 681.55 2576 666.191 2576L232.809 2576C217.45 2576 205 2563.65 205 2548.4L205 2534.6C205 2519.35 217.45 2507 232.809 2507L666.191 2507Z" stroke="#000000" stroke-width="1.72904" stroke-miterlimit="8" fill="#FFFFFF" fill-rule="evenodd"/><text font-family="Arial,Arial_MSFontService,sans-serif" font-weight="400" font-size="35" transform="matrix(1 0 0 1 216.346 2559)">NORMAAL</text><text font-family="Arial,Arial_MSFontService,sans-serif" font-weight="400" font-size="35" transform="matrix(1 0 0 1 394.662 2559)">EINDE CYCLUS</text><text font-family="Arial,Arial_MSFontService,sans-serif" font-weight="400" font-size="35" transform="matrix(1 0 0 1 1279.05 734)">Zoek gegevens in verwĳsbestand</text><path d="M1851.15 1295.98C1866.53 1295.98 1879 1306.18 1879 1318.75L1879 1374.21C1879 1386.79 1866.53 1396.98 1851.15 1396.98L1277.85 1396.98C1262.47 1396.98 1250 1386.79 1250 1374.21L1250 1318.75C1250 1306.18 1262.47 1295.98 1277.85 1295.98L1851.15 1295.98Z" stroke="#000000" stroke-width="1.72904" stroke-miterlimit="8" fill="#FFFFFF" fill-rule="evenodd"/><path d="M1482.05 1384.98C1489.75 1384.98 1496 1391.21 1496 1398.9L1496 1406.07C1496 1413.75 1489.75 1419.98 1482.05 1419.98L1353.94 1419.98C1346.24 1419.98 1340 1413.75 1340 1406.07L1340 1398.9C1340 1391.21 1346.24 1384.98 1353.94 1384.98L1482.05 1384.98Z" stroke="#000000" stroke-width="1.72904" stroke-miterlimit="8" fill="#FFFFFF" fill-rule="evenodd"/><text font-family="Arial,Arial_MSFontService,sans-serif" font-weight="400" font-size="24" transform="matrix(1 0 0 1 1405.25 1413)">Ja</text><text font-family="Arial,Arial_MSFontService,sans-serif" font-weight="400" font-size="35" transform="matrix(1 0 0 1 1288.87 1343)">Is de PL</text><text font-family="Arial,Arial_MSFontService,sans-serif" font-weight="400" font-size="35" transform="matrix(1 0 0 1 1423.3 1343)">opgeschort na de</text><text font-family="Arial,Arial_MSFontService,sans-serif" font-weight="400" font-size="35" transform="matrix(1 0 0 1 1288.87 1378)">ingangsdatum gebeurtenis?</text><path d="M1851.15 452C1866.53 452 1879 464.542 1879 480.014L1879 507.984C1879 523.456 1866.53 536 1851.15 536L1277.85 536C1262.47 536 1250 523.456 1250 507.984L1250 480.014C1250 464.542 1262.47 452 1277.85 452L1851.15 452Z" stroke="#000000" stroke-width="1.72904" stroke-miterlimit="8" fill="#FFFFFF" fill-rule="evenodd"/><text font-family="Arial,Arial_MSFontService,sans-serif" font-weight="400" font-size="35" transform="matrix(1 0 0 1 1279.05 507)">Zoek gegevens in PL</text><text font-family="Arial,Arial_MSFontService,sans-serif" font-weight="400" font-size="35" transform="matrix(1 0 0 1 1609.62 507)">-</text><text font-family="Arial,Arial_MSFontService,sans-serif" font-weight="400" font-size="35" transform="matrix(1 0 0 1 1621.65 507)">bestand</text><path d="M1092 829.303 1136 818 1136 840 1092 829.303Z" fill-rule="evenodd"/><path d="M867.5 743.5 1078.5 743.5 1078.5 848.5 867.5 848.5Z" stroke="#000000" stroke-width="4.91211" stroke-miterlimit="8" fill="#FFFFFF" fill-rule="evenodd"/><path d="M867 742.362 917.145 793 1027.5 793 1078 742" stroke="#000000" stroke-width="1.72904" stroke-miterlimit="8" fill="none" fill-rule="evenodd"/><text font-family="Arial,Arial_MSFontService,sans-serif" font-weight="400" font-size="29" transform="matrix(1 0 0 1 942.052 783)">Tf21</text><text font-family="Arial,Arial_MSFontService,sans-serif" font-weight="400" font-size="29" transform="matrix(1 0 0 1 909.079 832)">Code "U"</text><path d="M802.119 970 802 941.172C802 925.613 814.594 913 830.129 913L870 913.227" stroke="#000000" stroke-width="1.72904" stroke-miterlimit="8" fill="none" fill-rule="evenodd"/><path d="M867.5 991.5 1078.5 991.5 1078.5 1097.5 867.5 1097.5Z" stroke="#000000" stroke-width="4.91211" stroke-miterlimit="8" fill="#FFFFFF" fill-rule="evenodd"/><text font-family="Arial,Arial_MSFontService,sans-serif" font-weight="400" font-size="29" transform="matrix(1 0 0 1 942.052 1032)">Tf21</text><text font-family="Arial,Arial_MSFontService,sans-serif" font-weight="400" font-size="29" transform="matrix(1 0 0 1 908.258 1081)">Code "G"</text><path d="M1092 1043.31 1136 1032.01 1136 1054.01 1092 1043.31Z" fill-rule="evenodd"/><path d="M1092 932.82 1136 921.003 1136 944.003 1092 932.82Z" fill-rule="evenodd"/><path d="M867.5 867.5 1078.5 867.5 1078.5 973.5 867.5 973.5Z" stroke="#000000" stroke-width="4.91211" stroke-miterlimit="8" fill="#FFFFFF" fill-rule="evenodd"/><path d="M867 867.352 917.145 917 1027.5 917 1078 867" stroke="#000000" stroke-width="1.72904" stroke-miterlimit="8" fill="none" fill-rule="evenodd"/><text font-family="Arial,Arial_MSFontService,sans-serif" font-weight="400" font-size="29" transform="matrix(1 0 0 1 909.893 957)">Code "V"</text><path d="M802.119 1511.97 802 1483.65C802 1468.36 814.594 1455.97 830.129 1455.97L870 1456.2" stroke="#000000" stroke-width="1.72904" stroke-miterlimit="8" fill="none" fill-rule="evenodd"/><path d="M867.5 1405.47 1078.5 1405.47 1078.5 1510.47 867.5 1510.47Z" stroke="#000000" stroke-width="4.91211" stroke-miterlimit="8" fill="#FFFFFF" fill-rule="evenodd"/><text font-family="Arial,Arial_MSFontService,sans-serif" font-weight="400" font-size="29" transform="matrix(1 0 0 1 941.787 1445)">Tf21</text><text font-family="Arial,Arial_MSFontService,sans-serif" font-weight="400" font-size="29" transform="matrix(1 0 0 1 908.258 1495)">Code "O"</text><path d="M1092 1462.28 1136 1450.97 1136 1472.97 1092 1462.28Z" fill-rule="evenodd"/><path d="M1092 1279.31 1136 1268 1136 1290 1092 1279.31Z" fill-rule="evenodd"/><path d="M867.5 1228.5 1078.5 1228.5 1078.5 1334.5 867.5 1334.5Z" stroke="#000000" stroke-width="4.91211" stroke-miterlimit="8" fill="#FFFFFF" fill-rule="evenodd"/><path d="M867 1228.36 917.145 1279 1027.5 1279 1078 1228" stroke="#000000" stroke-width="1.72904" stroke-miterlimit="8" fill="none" fill-rule="evenodd"/><path d="M867 991.362 917.145 1042 1027.5 1042 1078 991" stroke="#000000" stroke-width="1.72904" stroke-miterlimit="8" fill="none" fill-rule="evenodd"/><text font-family="Arial,Arial_MSFontService,sans-serif" font-weight="400" font-size="29" transform="matrix(1 0 0 1 941.787 1269)">Tf21</text><text font-family="Arial,Arial_MSFontService,sans-serif" font-weight="400" font-size="29" transform="matrix(1 0 0 1 909.893 1318)">Code "B"</text><path d="M1092 1640.26 1136 1628.97 1136 1650.97 1092 1640.26Z" fill-rule="evenodd"/><path d="M1291 2332 1077 2333" stroke="#000000" stroke-width="1.72904" stroke-miterlimit="8" fill="none" fill-rule="evenodd"/><path d="M1095 2331.3 1139 2320 1139 2342 1095 2331.3Z" fill-rule="evenodd"/><path d="M1851.15 2298C1866.53 2298 1879 2310.35 1879 2325.6L1879 2339.4C1879 2354.65 1866.53 2367 1851.15 2367L1277.85 2367C1262.47 2367 1250 2354.65 1250 2339.4L1250 2325.6C1250 2310.35 1262.47 2298 1277.85 2298L1851.15 2298Z" stroke="#000000" stroke-width="1.72904" stroke-miterlimit="8" fill="#FFFFFF" fill-rule="evenodd"/><text font-family="Arial,Arial_MSFontService,sans-serif" font-weight="400" font-size="35" transform="matrix(1 0 0 1 1279.05 2345)">V</text><text font-family="Arial,Arial_MSFontService,sans-serif" font-weight="400" font-size="35" transform="matrix(1 0 0 1 1300.09 2345)">e</text><text font-family="Arial,Arial_MSFontService,sans-serif" font-weight="400" font-size="35" transform="matrix(1 0 0 1 1319.21 2345)">rwerk gegevens op de PL</text><path d="M867.5 1590.47 1078.5 1590.47 1078.5 1696.47 867.5 1696.47Z" stroke="#000000" stroke-width="4.91211" stroke-miterlimit="8" fill="#FFFFFF" fill-rule="evenodd"/><text font-family="Arial,Arial_MSFontService,sans-serif" font-weight="400" font-size="29" transform="matrix(1 0 0 1 941.786 1631)">Tf21</text><text font-family="Arial,Arial_MSFontService,sans-serif" font-weight="400" font-size="29" transform="matrix(1 0 0 1 909.079 1680)">Code "N"</text><path d="M867 1590.32 917.147 1639.97 1027.5 1639.97 1078 1589.97" stroke="#000000" stroke-width="1.72904" stroke-miterlimit="8" fill="none" fill-rule="evenodd"/><path d="M867 1404.33 917.147 1454.97 1027.5 1454.97 1078 1403.97" stroke="#000000" stroke-width="1.72904" stroke-miterlimit="8" fill="none" fill-rule="evenodd"/><text font-family="Arial,Arial_MSFontService,sans-serif" font-weight="400" font-size="29" transform="matrix(1 0 0 1 942.052 908)">Tf21</text><path d="M1229.5 334.566C1229.5 298.5 1263.85 298.5 1263.85 298.5L1820.84 298.5C1820.84 298.5 1855.5 298.192 1855.5 333.333 1855.5 368.474 1819.62 368.476 1819.62 368.476L1263.85 368.476C1263.85 368.476 1229.5 370.632 1229.5 334.566Z" stroke="#000000" stroke-width="1.23786" stroke-miterlimit="8" fill="#FFFFFF" fill-rule="evenodd"/><text font-family="Arial,Arial_MSFontService,sans-serif" font-weight="400" font-size="39" transform="matrix(1 0 0 1 1246.37 345)">Gemeente van </text><text font-family="Arial,Arial_MSFontService,sans-serif" font-weight="400" font-size="39" transform="matrix(1 0 0 1 1513.93 345)">inschrĳving</text><text font-family="Arial,Arial_MSFontService,sans-serif" font-weight="400" font-size="39" transform="matrix(1 0 0 1 1707 345)">, RNI</text><path d="M68.4999 335.566C68.4999 299.5 102.852 299.5 102.852 299.5L659.842 299.5C659.842 299.5 694.5 299.192 694.5 334.333 694.5 369.474 658.615 369.476 658.615 369.476L102.852 369.476C102.852 369.476 68.4999 371.632 68.4999 335.566Z" stroke="#000000" stroke-width="1.23786" stroke-miterlimit="8" fill="#FFFFFF" fill-rule="evenodd"/><text font-family="Arial,Arial_MSFontService,sans-serif" font-weight="400" font-size="39" transform="matrix(1 0 0 1 164.333 347)">Gebeurtenisgemeente</text><path d="M1912.5 614C1912.5 633.054 1897.28 648.5 1878.5 648.5 1859.72 648.5 1844.5 633.054 1844.5 614 1844.5 594.946 1859.72 579.5 1878.5 579.5 1897.28 579.5 1912.5 594.946 1912.5 614Z" stroke="#000000" stroke-width="1.23786" stroke-miterlimit="8" fill="#FFFFFF" fill-rule="evenodd"/><text font-family="Arial,Arial_MSFontService,sans-serif" font-weight="400" font-size="49" transform="matrix(1 0 0 1 1864.25 634)">1</text><path d="M1259.5 487C1259.5 491.142 1256.14 494.501 1252 494.501 1247.86 494.501 1244.5 491.142 1244.5 487 1244.5 482.858 1247.86 479.5 1252 479.5 1256.14 479.5 1259.5 482.858 1259.5 487Z" stroke="#000000" stroke-width="1.23786" stroke-linecap="square" stroke-miterlimit="8" fill="#FFFFFF" fill-rule="evenodd"/><path d="M1762.77 644.062 1782 637 1762.77 679 1743 637 1762.77 644.062Z" fill-rule="evenodd"/><path d="M1336.5 789.5C1336.5 793.366 1333.14 796.5 1329 796.5 1324.86 796.5 1321.5 793.366 1321.5 789.5 1321.5 785.634 1324.86 782.5 1329 782.5 1333.14 782.5 1336.5 785.634 1336.5 789.5Z" stroke="#000000" stroke-width="1.23786" stroke-linecap="square" stroke-miterlimit="8" fill="#FFFFFF" fill-rule="evenodd"/><path d="M1529.5 789.5C1529.5 793.366 1526.14 796.5 1522 796.5 1517.86 796.5 1514.5 793.366 1514.5 789.5 1514.5 785.634 1517.86 782.5 1522 782.5 1526.14 782.5 1529.5 785.634 1529.5 789.5Z" stroke="#000000" stroke-width="1.23786" stroke-linecap="square" stroke-miterlimit="8" fill="#FFFFFF" fill-rule="evenodd"/><path d="M1738.5 789.5C1738.5 793.366 1735.14 796.5 1731 796.5 1726.86 796.5 1723.5 793.366 1723.5 789.5 1723.5 785.634 1726.86 782.5 1731 782.5 1735.14 782.5 1738.5 785.634 1738.5 789.5Z" stroke="#000000" stroke-width="1.23786" stroke-linecap="square" stroke-miterlimit="8" fill="#FFFFFF" fill-rule="evenodd"/><path d="M1546.27 905.04 1566 897.974 1546.27 939.975 1526 897.974 1546.27 905.04Z" fill-rule="evenodd"/><path d="M1912.5 836C1912.5 855.054 1897.28 870.5 1878.5 870.5 1859.72 870.5 1844.5 855.054 1844.5 836 1844.5 816.946 1859.72 801.5 1878.5 801.5 1897.28 801.5 1912.5 816.946 1912.5 836Z" stroke="#000000" stroke-width="1.23786" stroke-miterlimit="8" fill="#FFFFFF" fill-rule="evenodd"/><text font-family="Arial,Arial_MSFontService,sans-serif" font-weight="400" font-size="49" transform="matrix(1 0 0 1 1864.25 856)">2</text><path d="M1912.5 1244.99C1912.5 1264.05 1897.28 1279.49 1878.5 1279.49 1859.72 1279.49 1844.5 1264.05 1844.5 1244.99 1844.5 1225.94 1859.72 1210.49 1878.5 1210.49 1897.28 1210.49 1912.5 1225.94 1912.5 1244.99Z" stroke="#000000" stroke-width="1.23786" stroke-miterlimit="8" fill="#FFFFFF" fill-rule="evenodd"/><text font-family="Arial,Arial_MSFontService,sans-serif" font-weight="400" font-size="49" transform="matrix(1 0 0 1 1864.25 1264)">3</text><path d="M1912.5 1638.47C1912.5 1657.25 1897.28 1672.47 1878.5 1672.47 1859.72 1672.47 1844.5 1657.25 1844.5 1638.47 1844.5 1619.69 1859.72 1604.47 1878.5 1604.47 1897.28 1604.47 1912.5 1619.69 1912.5 1638.47Z" stroke="#000000" stroke-width="1.23786" stroke-miterlimit="8" fill="#FFFFFF" fill-rule="evenodd"/><text font-family="Arial,Arial_MSFontService,sans-serif" font-weight="400" font-size="49" transform="matrix(1 0 0 1 1864.25 1658)">4</text><path d="M1363.77 2263.07 1383 2256 1363.77 2298 1344 2256 1363.77 2263.07Z" fill-rule="evenodd"/><path d="M1419.77 1470.04 1439 1462.98 1419.77 1504.98 1400 1462.98 1419.77 1470.04Z" fill-rule="evenodd"/><path d="M1543.79 1666.08 1563.02 1659.02 1543.79 1701.02 1524.02 1659.02 1543.79 1666.08Z" fill-rule="evenodd"/><path d="M1764.27 1264.05 1783.99 1256.98 1764.27 1298.98 1743.99 1256.98 1764.27 1264.05Z" fill-rule="evenodd"/><path d="M1258.5 2332C1258.5 2336.14 1255.14 2339.5 1251 2339.5 1246.86 2339.5 1243.5 2336.14 1243.5 2332 1243.5 2327.86 1246.86 2324.5 1251 2324.5 1255.14 2324.5 1258.5 2327.86 1258.5 2332Z" stroke="#000000" stroke-width="1.23786" stroke-linecap="square" stroke-miterlimit="8" fill="#FFFFFF" fill-rule="evenodd"/><path d="M1711.13 2508C1726.52 2508 1739 2520.55 1739 2536L1739 2550C1739 2565.47 1726.52 2578 1711.13 2578L1276.87 2578C1261.48 2578 1249 2565.47 1249 2550L1249 2536C1249 2520.55 1261.48 2508 1276.87 2508L1711.13 2508Z" stroke="#000000" stroke-width="1.72904" stroke-miterlimit="8" fill="#FFFFFF" fill-rule="evenodd"/><text font-family="Arial,Arial_MSFontService,sans-serif" font-weight="400" font-size="35" transform="matrix(1 0 0 1 1260.67 2560)">NORMAAL</text><text font-family="Arial,Arial_MSFontService,sans-serif" font-weight="400" font-size="35" transform="matrix(1 0 0 1 1438.98 2560)">EINDE CYCLUS</text><path d="M1363.5 2370.5 1363.5 2486.5" stroke="#000000" stroke-width="4.91211" stroke-linecap="square" stroke-miterlimit="8" fill="none" fill-rule="evenodd"/><path d="M1362.77 2473.05 1382 2466 1362.77 2508 1343 2466 1362.77 2473.05Z" fill-rule="evenodd"/><path d="M580.276 2471.9 600 2465 580.276 2506 560 2465 580.276 2471.9Z" fill-rule="evenodd"/><path d="M102.5 2434C102.5 2453.05 87.0536 2468.5 67.9999 2468.5 48.9462 2468.5 33.4998 2453.05 33.4998 2434 33.4998 2414.95 48.9462 2399.5 67.9999 2399.5 87.0536 2399.5 102.5 2414.95 102.5 2434Z" stroke="#000000" stroke-width="1.23786" stroke-miterlimit="8" fill="#FFFFFF" fill-rule="evenodd"/><text font-family="Arial,Arial_MSFontService,sans-serif" font-weight="400" font-size="49" transform="matrix(1 0 0 1 54.197 2453)">5</text><path d="M493.276 2210.9 513 2204 493.276 2245 473 2204 493.276 2210.9Z" fill-rule="evenodd"/><path d="M27.9998 544 242 544 242 423.286 213.138 424.209C213.138 411 203.313 411 203.313 411L183.663 411C183.663 411 173.838 411.615 173.838 424.209L27.9998 424.209 27.9998 544Z" stroke="#000000" stroke-width="2.45587" stroke-linecap="square" stroke-miterlimit="8" fill="#FFFFFF" fill-rule="evenodd"/><text font-family="Arial,Arial_MSFontService,sans-serif" font-weight="400" font-size="35" transform="matrix(1 0 0 1 60.7837 463)">Akte met</text><text font-family="Arial,Arial_MSFontService,sans-serif" font-weight="400" font-size="35" transform="matrix(1 0 0 1 51.5805 498)">evt. latere</text><text font-family="Arial,Arial_MSFontService,sans-serif" font-weight="400" font-size="35" transform="matrix(1 0 0 1 43.5012 533)">vermelding</text><path d="M316.846 451C301.468 451 289 463.535 289 478.998L289 493.003C289 508.465 301.468 521 316.846 521L681.154 521C696.532 521 709 508.465 709 493.003L709 478.998C709 463.535 696.532 451 681.154 451L316.846 451Z" stroke="#000000" stroke-width="1.72904" stroke-miterlimit="8" fill="#FFFFFF" fill-rule="evenodd"/><text font-family="Arial,Arial_MSFontService,sans-serif" font-weight="400" font-size="35" transform="matrix(1 0 0 1 314.208 504)">Maak </text><text font-family="Arial,Arial_MSFontService,sans-serif" font-weight="400" font-size="35" transform="matrix(1 0 0 1 407.219 504)">T</text><text font-family="Arial,Arial_MSFontService,sans-serif" font-weight="400" font-size="35" transform="matrix(1 0 0 1 428.222 504)">b02 aan</text><path d="M717.5 487C717.5 491.142 714.142 494.501 710 494.501 705.858 494.501 702.5 491.142 702.5 487 702.5 482.858 705.858 479.5 710 479.5 714.142 479.5 717.5 482.858 717.5 487Z" stroke="#000000" stroke-width="1.23786" stroke-linecap="square" stroke-miterlimit="8" fill="#FFFFFF" fill-rule="evenodd"/><path d="M1620.14 531C1627.8 531 1634 537.229 1634 544.917L1634 552.088C1634 559.772 1627.8 566.001 1620.14 566.001L1492.85 566.001C1485.2 566.001 1479 559.772 1479 552.088L1479 544.917C1479 537.229 1485.2 531 1492.85 531L1620.14 531Z" stroke="#000000" stroke-width="1.72904" stroke-miterlimit="8" fill="#FFFFFF" fill-rule="evenodd"/><text font-family="Arial,Arial_MSFontService,sans-serif" font-weight="400" font-size="24" transform="matrix(1 0 0 1 1499.24 558)">Gevonden</text><path d="M1818.15 531C1825.8 531 1832 537.229 1832 544.917L1832 552.088C1832 559.772 1825.8 566.001 1818.15 566.001L1690.85 566.001C1683.2 566.001 1677 559.772 1677 552.088L1677 544.917C1677 537.229 1683.2 531 1690.85 531L1818.15 531Z" stroke="#000000" stroke-width="1.72904" stroke-miterlimit="8" fill="#FFFFFF" fill-rule="evenodd"/><text font-family="Arial,Arial_MSFontService,sans-serif" font-weight="400" font-size="24" transform="matrix(1 0 0 1 1695.11 558)">Niet aanw</text><text font-family="Arial,Arial_MSFontService,sans-serif" font-weight="400" font-size="24" transform="matrix(1 0 0 1 1798.65 558)">.</text><path d="M1428.05 531C1435.75 531 1442 537.229 1442 544.917L1442 552.088C1442 559.772 1435.75 566.001 1428.05 566.001L1299.94 566.001C1292.24 566.001 1286 559.772 1286 552.088L1286 544.917C1286 537.229 1292.24 531 1299.94 531L1428.05 531Z" stroke="#000000" stroke-width="1.72904" stroke-miterlimit="8" fill="#FFFFFF" fill-rule="evenodd"/><text font-family="Arial,Arial_MSFontService,sans-serif" font-weight="400" font-size="24" transform="matrix(1 0 0 1 1308.42 558)">Niet uniek</text><path d="M1319.5 566C1319.5 570.142 1316.37 573.5 1312.5 573.5 1308.63 573.5 1305.5 570.142 1305.5 566 1305.5 561.858 1308.63 558.5 1312.5 558.5 1316.37 558.5 1319.5 561.858 1319.5 566Z" stroke="#000000" stroke-width="1.23786" stroke-linecap="square" stroke-miterlimit="8" fill="#FFFFFF" fill-rule="evenodd"/><path d="M1418.5 1420.48 1418.5 1494.48" stroke="#000000" stroke-width="4.91211" stroke-miterlimit="8" fill="none" fill-rule="evenodd"/><path d="M1799.57 1790.55 1799.57 1863.55" stroke="#000000" stroke-width="4.91211" stroke-miterlimit="8" fill="none" fill-rule="evenodd"/><path d="M1565.79 1925.96 1585.03 1919.06 1565.79 1960.06 1546.03 1919.06 1565.79 1925.96Z" fill-rule="evenodd"/><path d="M1565.53 1841.56 1565.53 1928.56" stroke="#000000" stroke-width="4.91211" stroke-miterlimit="8" fill="none" fill-rule="evenodd"/><path d="M1704.5 1396.48 1704.5 1444.48 1865.5 1444.48" stroke="#000000" stroke-width="4.91211" stroke-linecap="square" stroke-miterlimit="8" fill="none" fill-rule="evenodd"/><path d="M1912.5 1445.98C1912.5 1465.03 1897.28 1480.48 1878.5 1480.48 1859.72 1480.48 1844.5 1465.03 1844.5 1445.98 1844.5 1426.93 1859.72 1411.48 1878.5 1411.48 1897.28 1411.48 1912.5 1426.93 1912.5 1445.98Z" stroke="#000000" stroke-width="1.23786" stroke-miterlimit="8" fill="#FFFFFF" fill-rule="evenodd"/><text font-family="Arial,Arial_MSFontService,sans-serif" font-weight="400" font-size="49" transform="matrix(1 0 0 1 1864.25 1465)">3</text><path d="M1729.05 1384.98C1736.76 1384.98 1743 1391.21 1743 1398.9L1743 1406.07C1743 1413.75 1736.76 1419.98 1729.05 1419.98L1600.94 1419.98C1593.24 1419.98 1587 1413.75 1587 1406.07L1587 1398.9C1587 1391.21 1593.24 1384.98 1600.94 1384.98L1729.05 1384.98Z" stroke="#000000" stroke-width="1.72904" stroke-miterlimit="8" fill="#FFFFFF" fill-rule="evenodd"/><text font-family="Arial,Arial_MSFontService,sans-serif" font-weight="400" font-size="24" transform="matrix(1 0 0 1 1641.85 1413)">Nee</text><path d="M1640.5 1364.97C1640.5 1369.12 1637.14 1372.47 1633 1372.47 1628.86 1372.47 1625.5 1369.12 1625.5 1364.97 1625.5 1360.83 1628.86 1357.47 1633 1357.47 1637.14 1357.47 1640.5 1360.83 1640.5 1364.97Z" stroke="#000000" stroke-width="1.23786" stroke-linecap="square" stroke-miterlimit="8" fill="#FFFFFF" fill-rule="evenodd"/><path d="M1851.15 1501.98C1866.53 1501.98 1879 1514.39 1879 1529.69L1879 1559.27C1879 1574.57 1866.53 1586.98 1851.15 1586.98L1277.85 1586.98C1262.47 1586.98 1250 1574.57 1250 1559.27L1250 1529.69C1250 1514.39 1262.47 1501.98 1277.85 1501.98L1851.15 1501.98Z" stroke="#000000" stroke-width="1.72904" stroke-miterlimit="8" fill="#FFFFFF" fill-rule="evenodd"/><path d="M1428.05 1577.98C1435.75 1577.98 1442 1584.21 1442 1591.89L1442 1599.06C1442 1606.75 1435.75 1612.98 1428.05 1612.98L1299.94 1612.98C1292.24 1612.98 1286 1606.75 1286 1599.06L1286 1591.89C1286 1584.21 1292.24 1577.98 1299.94 1577.98L1428.05 1577.98Z" stroke="#000000" stroke-width="1.72904" stroke-miterlimit="8" fill="#FFFFFF" fill-rule="evenodd"/><text font-family="Arial,Arial_MSFontService,sans-serif" font-weight="400" font-size="24" transform="matrix(1 0 0 1 1351.22 1605)">Ja</text><text font-family="Arial,Arial_MSFontService,sans-serif" font-weight="400" font-size="35" transform="matrix(1 0 0 1 1279.05 1554)">Komen overige gegevens overeen?</text><path d="M1620.14 1577.98C1627.8 1577.98 1634 1584.21 1634 1591.89L1634 1599.06C1634 1606.75 1627.8 1612.98 1620.14 1612.98L1492.85 1612.98C1485.2 1612.98 1479 1606.75 1479 1599.06L1479 1591.89C1479 1584.21 1485.2 1577.98 1492.85 1577.98L1620.14 1577.98Z" stroke="#000000" stroke-width="1.72904" stroke-miterlimit="8" fill="#FFFFFF" fill-rule="evenodd"/><text font-family="Arial,Arial_MSFontService,sans-serif" font-weight="400" font-size="24" transform="matrix(1 0 0 1 1533.78 1605)">Nee</text><path d="M1520.5 1612.98C1520.5 1617.12 1517.14 1620.48 1513 1620.48 1508.86 1620.48 1505.5 1617.12 1505.5 1612.98 1505.5 1608.84 1508.86 1605.48 1513 1605.48 1517.14 1605.48 1520.5 1608.84 1520.5 1612.98Z" stroke="#000000" stroke-width="1.23786" stroke-linecap="square" stroke-miterlimit="8" fill="#FFFFFF" fill-rule="evenodd"/><path d="M1638.52 1420.94C1638.52 1425.08 1635.16 1428.44 1631.02 1428.44 1626.88 1428.44 1623.52 1425.08 1623.52 1420.94 1623.52 1416.8 1626.88 1413.44 1631.02 1413.44 1635.16 1413.44 1638.52 1416.8 1638.52 1420.94Z" stroke="#000000" stroke-width="1.23786" stroke-linecap="square" stroke-miterlimit="8" fill="#FFFFFF" fill-rule="evenodd"/><path d="M391.236 2408 391.118 2379.39 391.118 2352.72 391 2324.13C391 2308.7 403.483 2296.18 418.88 2296.18L447.212 2296 701 2296.22" stroke="#000000" stroke-width="1.72904" stroke-miterlimit="8" stroke-dasharray="9.72582 6.48388" fill="none" fill-rule="evenodd"/><path d="M578.122 2386 578 2357.27C578 2341.76 590.503 2329.18 605.926 2329.18L634.309 2329 692 2329.24" stroke="#000000" stroke-width="1.72904" stroke-miterlimit="8" stroke-dasharray="9.72582 6.48388" fill="none" fill-rule="evenodd"/><path d="M703.501 2332C703.501 2336.14 700.142 2339.5 696 2339.5 691.858 2339.5 688.5 2336.14 688.5 2332 688.5 2327.86 691.858 2324.5 696 2324.5 700.142 2324.5 703.501 2327.86 703.501 2332Z" stroke="#000000" stroke-width="1.23786" stroke-linecap="square" stroke-miterlimit="8" fill="#FFFFFF" fill-rule="evenodd"/><path d="M703.501 2297C703.501 2301.14 700.142 2304.5 696 2304.5 691.858 2304.5 688.5 2301.14 688.5 2297 688.5 2292.86 691.858 2289.5 696 2289.5 700.142 2289.5 703.501 2292.86 703.501 2297Z" stroke="#000000" stroke-width="1.23786" stroke-linecap="square" stroke-miterlimit="8" fill="#FFFFFF" fill-rule="evenodd"/><path d="M646.057 2375C653.756 2375 660 2381.22 660 2388.92L660 2396.08C660 2403.76 653.756 2410 646.057 2410L517.947 2410C510.245 2410 504 2403.76 504 2396.08L504 2388.92C504 2381.22 510.245 2375 517.947 2375L646.057 2375Z" stroke="#000000" stroke-width="1.72904" stroke-miterlimit="8" fill="#FFFFFF" fill-rule="evenodd"/><path d="M454.053 2375C461.757 2375 468 2381.22 468 2388.92L468 2396.08C468 2403.76 461.757 2410 454.053 2410L325.943 2410C318.245 2410 312 2403.76 312 2396.08L312 2388.92C312 2381.22 318.245 2375 325.943 2375L454.053 2375Z" stroke="#000000" stroke-width="1.72904" stroke-miterlimit="8" fill="#FFFFFF" fill-rule="evenodd"/><text font-family="Arial,Arial_MSFontService,sans-serif" font-weight="400" font-size="24" transform="matrix(1 0 0 1 559.808 2403)">Null</text><text font-family="Arial,Arial_MSFontService,sans-serif" font-weight="400" font-size="24" transform="matrix(1 0 0 1 364.719 2403)">Tf21</text><path d="M1426.05 1143C1433.76 1143 1440 1149.23 1440 1156.91L1440 1164.09C1440 1171.77 1433.76 1178 1426.05 1178L1297.94 1178C1290.24 1178 1284 1171.77 1284 1164.09L1284 1156.91C1284 1149.23 1290.24 1143 1297.94 1143L1426.05 1143Z" stroke="#000000" stroke-width="1.72904" stroke-miterlimit="8" fill="#FFFFFF" fill-rule="evenodd"/><text font-family="Arial,Arial_MSFontService,sans-serif" font-weight="400" font-size="24" transform="matrix(1 0 0 1 1316.68 1170)">Actueel</text><path d="M1647.11 1143C1656.99 1143 1665 1149.22 1665 1156.9L1665 1215.1C1665 1222.78 1656.99 1229 1647.11 1229L1482.88 1229C1473 1229 1465 1222.78 1465 1215.1L1465 1156.9C1465 1149.22 1473 1143 1482.88 1143L1647.11 1143Z" stroke="#000000" stroke-width="1.72904" stroke-miterlimit="8" fill="#FFFFFF" fill-rule="evenodd"/><text font-family="Arial,Arial_MSFontService,sans-serif" font-weight="400" font-size="24" transform="matrix(1 0 0 1 1486.06 1170)">Geblokkeerd,</text><text font-family="Arial,Arial_MSFontService,sans-serif" font-weight="400" font-size="24" transform="matrix(1 0 0 1 1475.85 1195)">geëmigreerd of</text><text font-family="Arial,Arial_MSFontService,sans-serif" font-weight="400" font-size="24" transform="matrix(1 0 0 1 1496.56 1220)">min. besluit</text><path d="M1529.5 1230C1529.5 1234.14 1526.14 1237.5 1522 1237.5 1517.86 1237.5 1514.5 1234.14 1514.5 1230 1514.5 1225.86 1517.86 1222.5 1522 1222.5 1526.14 1222.5 1529.5 1225.86 1529.5 1230Z" stroke="#000000" stroke-width="1.23786" stroke-linecap="square" stroke-miterlimit="8" fill="#FFFFFF" fill-rule="evenodd"/><path d="M1851.15 936.973C1866.53 936.973 1879 949.51 1879 964.973L1879 978.976C1879 994.438 1866.53 1006.97 1851.15 1006.97L1277.85 1006.97C1262.47 1006.97 1250 994.438 1250 978.976L1250 964.973C1250 949.51 1262.47 936.973 1277.85 936.973L1851.15 936.973Z" stroke="#000000" stroke-width="1.72904" stroke-miterlimit="8" fill="#FFFFFF" fill-rule="evenodd"/><text font-family="Arial,Arial_MSFontService,sans-serif" font-weight="400" font-size="35" transform="matrix(1 0 0 1 1418.55 985)">Gemeente of RNI?</text><path d="M1829.14 997.973C1836.79 997.973 1843 1004.2 1843 1011.89L1843 1019.06C1843 1026.74 1836.79 1032.97 1829.14 1032.97L1701.86 1032.97C1694.21 1032.97 1688 1026.74 1688 1019.06L1688 1011.89C1688 1004.2 1694.21 997.973 1701.86 997.973L1829.14 997.973Z" stroke="#000000" stroke-width="1.72904" stroke-miterlimit="8" fill="#FFFFFF" fill-rule="evenodd"/><text font-family="Arial,Arial_MSFontService,sans-serif" font-weight="400" font-size="24" transform="matrix(1 0 0 1 1707.75 1025)">Gemeente</text><path d="M1426.05 997.973C1433.76 997.973 1440 1004.2 1440 1011.89L1440 1019.06C1440 1026.74 1433.76 1032.97 1426.05 1032.97L1297.94 1032.97C1290.24 1032.97 1284 1026.74 1284 1019.06L1284 1011.89C1284 1004.2 1290.24 997.973 1297.94 997.973L1426.05 997.973Z" stroke="#000000" stroke-width="1.72904" stroke-miterlimit="8" fill="#FFFFFF" fill-rule="evenodd"/><text font-family="Arial,Arial_MSFontService,sans-serif" font-weight="400" font-size="24" transform="matrix(1 0 0 1 1342.22 1025)">RNI</text><path d="M1529.5 1084.47C1529.5 1088.34 1526.14 1091.47 1522 1091.47 1517.86 1091.47 1514.5 1088.34 1514.5 1084.47 1514.5 1080.61 1517.86 1077.47 1522 1077.47 1526.14 1077.47 1529.5 1080.61 1529.5 1084.47Z" stroke="#000000" stroke-width="1.23786" stroke-linecap="square" stroke-miterlimit="8" fill="#FFFFFF" fill-rule="evenodd"/><path d="M1398.46 1794.61 1398.46 1863.61 1854.46 1863.61" stroke="#000000" stroke-width="4.91211" stroke-linecap="square" stroke-miterlimit="8" fill="none" fill-rule="evenodd"/><path d="M1851.15 1698.11C1866.53 1698.11 1879 1710.47 1879 1725.71L1879 1739.51C1879 1754.76 1866.53 1767.11 1851.15 1767.11L1277.85 1767.11C1262.47 1767.11 1250 1754.76 1250 1739.51L1250 1725.71C1250 1710.47 1262.47 1698.11 1277.85 1698.11L1851.15 1698.11Z" stroke="#000000" stroke-width="1.72904" stroke-miterlimit="8" fill="#FFFFFF" fill-rule="evenodd"/><text font-family="Arial,Arial_MSFontService,sans-serif" font-weight="400" font-size="35" transform="matrix(1 0 0 1 1279.05 1745)">Onderzoek status gevonden persoon</text><path d="M1829.14 1758.11C1836.79 1758.11 1843 1764.34 1843 1772.03L1843 1779.2C1843 1786.88 1836.79 1793.11 1829.14 1793.11L1701.86 1793.11C1694.21 1793.11 1688 1786.88 1688 1779.2L1688 1772.03C1688 1764.34 1694.21 1758.11 1701.86 1758.11L1829.14 1758.11Z" stroke="#000000" stroke-width="1.72904" stroke-miterlimit="8" fill="#FFFFFF" fill-rule="evenodd"/><text font-family="Arial,Arial_MSFontService,sans-serif" font-weight="400" font-size="24" transform="matrix(1 0 0 1 1707.75 1785)">Overleden</text><path d="M1912.5 1863.61C1912.5 1882.38 1897.28 1897.61 1878.5 1897.61 1859.72 1897.61 1844.5 1882.38 1844.5 1863.61 1844.5 1844.83 1859.72 1829.61 1878.5 1829.61 1897.28 1829.61 1912.5 1844.83 1912.5 1863.61Z" stroke="#000000" stroke-width="1.23786" stroke-miterlimit="8" fill="#FFFFFF" fill-rule="evenodd"/><text font-family="Arial,Arial_MSFontService,sans-serif" font-weight="400" font-size="47" transform="matrix(1 0 0 1 1846.57 1883)">3R</text><path d="M1426.05 1758.11C1433.76 1758.11 1440 1764.39 1440 1772.13L1440 1803.1C1440 1810.84 1433.76 1817.11 1426.05 1817.11L1297.94 1817.11C1290.24 1817.11 1284 1810.84 1284 1803.1L1284 1772.13C1284 1764.39 1290.24 1758.11 1297.94 1758.11L1426.05 1758.11Z" stroke="#000000" stroke-width="1.72904" stroke-miterlimit="8" fill="#FFFFFF" fill-rule="evenodd"/><text font-family="Arial,Arial_MSFontService,sans-serif" font-weight="400" font-size="24" transform="matrix(1 0 0 1 1299 1783)">Actueel,</text><text font-family="Arial,Arial_MSFontService,sans-serif" font-weight="400" font-size="24" transform="matrix(1 0 0 1 1299 1807)">geblokkeerd</text><path d="M1647.11 1758.11C1656.99 1758.11 1665 1764.33 1665 1772.01L1665 1830.22C1665 1837.89 1656.99 1844.11 1647.11 1844.11L1482.88 1844.11C1473 1844.11 1465 1837.89 1465 1830.22L1465 1772.01C1465 1764.33 1473 1758.11 1482.88 1758.11L1647.11 1758.11Z" stroke="#000000" stroke-width="1.72904" stroke-miterlimit="8" fill="#FFFFFF" fill-rule="evenodd"/><text font-family="Arial,Arial_MSFontService,sans-serif" font-weight="400" font-size="24" transform="matrix(1 0 0 1 1470.34 1785)">Aangelegd in RNI,</text><text font-family="Arial,Arial_MSFontService,sans-serif" font-weight="400" font-size="24" transform="matrix(1 0 0 1 1485.67 1810)">geëmigreerd of</text><text font-family="Arial,Arial_MSFontService,sans-serif" font-weight="400" font-size="24" transform="matrix(1 0 0 1 1506.38 1835)">min. besluit</text><path d="M1727.54 1794.11C1727.54 1798.25 1724.18 1801.61 1720.04 1801.61 1715.9 1801.61 1712.54 1798.25 1712.54 1794.11 1712.54 1789.96 1715.9 1786.61 1720.04 1786.61 1724.18 1786.61 1727.54 1789.96 1727.54 1794.11Z" stroke="#000000" stroke-width="1.23786" stroke-linecap="square" stroke-miterlimit="8" fill="#FFFFFF" fill-rule="evenodd"/><path d="M1806.54 2024.65 1806.54 2093.65 1879.54 2093.65" stroke="#000000" stroke-width="4.91211" stroke-linecap="square" stroke-miterlimit="8" fill="none" fill-rule="evenodd"/><path d="M1851.15 1961.16C1866.53 1961.16 1879 1973.7 1879 1989.16L1879 2003.16C1879 2018.63 1866.53 2031.16 1851.15 2031.16L1277.85 2031.16C1262.47 2031.16 1250 2018.63 1250 2003.16L1250 1989.16C1250 1973.7 1262.47 1961.16 1277.85 1961.16L1851.15 1961.16Z" stroke="#000000" stroke-width="1.72904" stroke-miterlimit="8" fill="#FFFFFF" fill-rule="evenodd"/><text font-family="Arial,Arial_MSFontService,sans-serif" font-weight="400" font-size="35" transform="matrix(1 0 0 1 1438.2 2008)">Overlĳdensakte?</text><path d="M1829.14 2021.16C1836.79 2021.16 1843 2027.39 1843 2035.07L1843 2042.25C1843 2049.93 1836.79 2056.16 1829.14 2056.16L1701.86 2056.16C1694.21 2056.16 1688 2049.93 1688 2042.25L1688 2035.07C1688 2027.39 1694.21 2021.16 1701.86 2021.16L1829.14 2021.16Z" stroke="#000000" stroke-width="1.72904" stroke-miterlimit="8" fill="#FFFFFF" fill-rule="evenodd"/><text font-family="Arial,Arial_MSFontService,sans-serif" font-weight="400" font-size="24" transform="matrix(1 0 0 1 1743.11 2049)">Nee</text><path d="M1426.05 2021.16C1433.76 2021.16 1440 2027.39 1440 2035.07L1440 2042.25C1440 2049.93 1433.76 2056.16 1426.05 2056.16L1297.94 2056.16C1290.24 2056.16 1284 2049.93 1284 2042.25L1284 2035.07C1284 2027.39 1290.24 2021.16 1297.94 2021.16L1426.05 2021.16Z" stroke="#000000" stroke-width="1.72904" stroke-miterlimit="8" fill="#FFFFFF" fill-rule="evenodd"/><text font-family="Arial,Arial_MSFontService,sans-serif" font-weight="400" font-size="24" transform="matrix(1 0 0 1 1350.08 2049)">Ja</text><path d="M1725.54 2059.16C1725.54 2063.3 1722.18 2066.66 1718.04 2066.66 1713.89 2066.66 1710.54 2063.3 1710.54 2059.16 1710.54 2055.01 1713.89 2051.66 1718.04 2051.66 1722.18 2051.66 1725.54 2055.01 1725.54 2059.16Z" stroke="#000000" stroke-width="1.23786" stroke-linecap="square" stroke-miterlimit="8" fill="#FFFFFF" fill-rule="evenodd"/><path d="M1912.5 2093.65C1912.5 2112.43 1897.28 2127.65 1878.5 2127.65 1859.72 2127.65 1844.5 2112.43 1844.5 2093.65 1844.5 2074.87 1859.72 2059.65 1878.5 2059.65 1897.28 2059.65 1912.5 2074.87 1912.5 2093.65Z" stroke="#000000" stroke-width="1.23786" stroke-miterlimit="8" fill="#FFFFFF" fill-rule="evenodd"/><text font-family="Arial,Arial_MSFontService,sans-serif" font-weight="400" font-size="47" transform="matrix(1 0 0 1 1846.57 2113)">4R</text><path d="M802.119 1844.09 802 1815.77C802 1800.48 814.594 1788.09 830.129 1788.09L870 1788.32" stroke="#000000" stroke-width="1.72904" stroke-miterlimit="8" fill="none" fill-rule="evenodd"/><path d="M1092 1787.92 1136 1776.1 1136 1799.1 1092 1787.92Z" fill-rule="evenodd"/><path d="M1092 1905.42 1136 1894.11 1136 1916.12 1092 1905.42Z" fill-rule="evenodd"/><path d="M867.5 1737.59 1078.5 1737.59 1078.5 1843.59 867.5 1843.59Z" stroke="#000000" stroke-width="4.91211" stroke-miterlimit="8" fill="#FFFFFF" fill-rule="evenodd"/><path d="M867 1737.44 917.145 1787.09 1027.5 1787.09 1078 1737.09" stroke="#000000" stroke-width="1.72904" stroke-miterlimit="8" fill="none" fill-rule="evenodd"/><text font-family="Arial,Arial_MSFontService,sans-serif" font-weight="400" font-size="29" transform="matrix(1 0 0 1 941.786 1778)">Tf21</text><text font-family="Arial,Arial_MSFontService,sans-serif" font-weight="400" font-size="29" transform="matrix(1 0 0 1 909.893 1827)">Code "B"</text><path d="M802.119 1984.12 802 1955.29C802 1939.73 814.594 1927.12 830.129 1927.12L870 1927.35" stroke="#000000" stroke-width="1.72904" stroke-miterlimit="8" fill="none" fill-rule="evenodd"/><path d="M867.5 1877.62 1078.5 1877.62 1078.5 1982.62 867.5 1982.62Z" stroke="#000000" stroke-width="4.91211" stroke-miterlimit="8" fill="#FFFFFF" fill-rule="evenodd"/><path d="M867 1876.48 917.145 1927.12 1027.5 1927.12 1078 1876.12" stroke="#000000" stroke-width="1.72904" stroke-miterlimit="8" fill="none" fill-rule="evenodd"/><text font-family="Arial,Arial_MSFontService,sans-serif" font-weight="400" font-size="29" transform="matrix(1 0 0 1 941.786 1917)">Tf21</text><text font-family="Arial,Arial_MSFontService,sans-serif" font-weight="400" font-size="29" transform="matrix(1 0 0 1 909.893 1967)">Code "O"</text><path d="M1077 1787.41 1181.11 1787.19C1196.54 1787.19 1200.79 1795.77 1199.2 1809.21L1199.08 1831.89C1199.87 1847.32 1205.67 1851.55 1221.1 1851.95L1231.7 1851.72 1263.45 1852.19 1302.85 1852.15C1318.29 1852.15 1321 1839.65 1321 1824.22L1320.77 1826.01 1320.71 1833.14" stroke="#000000" stroke-width="1.72904" stroke-miterlimit="8" fill="none" fill-rule="evenodd"/><path d="M1327.47 1817.52C1327.47 1821.38 1324.33 1824.52 1320.47 1824.52 1316.6 1824.52 1313.47 1821.38 1313.47 1817.52 1313.47 1813.65 1316.6 1810.52 1320.47 1810.52 1324.33 1810.52 1327.47 1813.65 1327.47 1817.52Z" stroke="#000000" stroke-width="1.23786" stroke-linecap="square" stroke-miterlimit="8" fill="#FFFFFF" fill-rule="evenodd"/><path d="M1719.81 1801.12 1719.81 1873.51 1720.04 1878.17C1720.04 1893.57 1707.58 1906.04 1692.21 1906.04L1671.48 1906.12 1078.04 1905.06" stroke="#000000" stroke-width="1.72904" stroke-miterlimit="8" fill="none" fill-rule="evenodd"/><path d="M1092 2114.46 1136 2103.15 1136 2125.15 1092 2114.46Z" fill-rule="evenodd"/><path d="M802.119 2192.16 802 2163.83C802 2148.55 814.594 2136.16 830.129 2136.16L870 2136.38" stroke="#000000" stroke-width="1.72904" stroke-miterlimit="8" fill="none" fill-rule="evenodd"/><path d="M867.5 2085.66 1078.5 2085.66 1078.5 2191.66 867.5 2191.66Z" stroke="#000000" stroke-width="4.91211" stroke-miterlimit="8" fill="#FFFFFF" fill-rule="evenodd"/><path d="M867 2085.5 917.145 2135.16 1027.5 2135.16 1078 2085.16" stroke="#000000" stroke-width="1.72904" stroke-miterlimit="8" fill="none" fill-rule="evenodd"/><text font-family="Arial,Arial_MSFontService,sans-serif" font-weight="400" font-size="29" transform="matrix(1 0 0 1 941.786 2126)">Tf21</text><text font-family="Arial,Arial_MSFontService,sans-serif" font-weight="400" font-size="29" transform="matrix(1 0 0 1 909.892 2175)">Code "N"</text><path d="M1717.81 2066.15 1717.81 2081.53 1718.04 2086.2C1718.04 2101.6 1705.58 2114.08 1690.21 2114.08L1669.48 2114.15 1076.04 2113.1" stroke="#000000" stroke-width="1.72904" stroke-miterlimit="8" fill="none" fill-rule="evenodd"/></g></svg>