<svg width="1948" height="2845" xmlns="http://www.w3.org/2000/svg" xmlns:xlink="http://www.w3.org/1999/xlink" xml:space="preserve" overflow="hidden"><g transform="translate(-1 -16)"><path d="M1948.5 2860.5 1948.5 20.1959 1192.5 17.5 1192.5 2860.3Z" stroke="#000000" stroke-width="1.28369" stroke-miterlimit="8" fill="#E6E6E6" fill-rule="evenodd"/><path d="M1.49987 17.5 763.5 17.5 763.5 2858.5 1.49987 2858.5Z" stroke="#000000" stroke-width="1.28153" stroke-miterlimit="8" fill="#E6E6E6" fill-rule="evenodd"/><path d="M494.5 261.5 494.5 2440.5" stroke="#000000" stroke-width="5.13514" stroke-linecap="square" stroke-miterlimit="8" fill="none" fill-rule="evenodd"/><path d="M1362.5 331.5 1362.5 446.5" stroke="#000000" stroke-width="4.89334" stroke-linecap="square" stroke-miterlimit="8" fill="none" fill-rule="evenodd"/><path d="M908 2572 695 2573" stroke="#000000" stroke-width="1.7128" stroke-miterlimit="8" fill="none" fill-rule="evenodd"/><path d="M1076 2600.3 1120 2589 1120 2611Z" fill-rule="evenodd"/><path d="M1076 1926.31 1120 1915 1120 1937Z" fill-rule="evenodd"/><path d="M581.5 2576.5 581.5 2714.5" stroke="#000000" stroke-width="4.89334" stroke-linecap="square" stroke-miterlimit="8" fill="none" fill-rule="evenodd"/><path d="M803.117 2501 803 2472.68C803 2457.4 815.409 2445 830.715 2445L870 2445.22" stroke="#000000" stroke-width="1.7128" stroke-miterlimit="8" fill="none" fill-rule="evenodd"/><path d="M1362.5 901.5 1362.5 1024.5" stroke="#000000" stroke-width="4.89334" stroke-linecap="square" stroke-miterlimit="8" fill="none" fill-rule="evenodd"/><path d="M1553.77 874.782 1553.77 858 1554 914.367C1554 929.613 1541.55 941.971 1526.21 941.971L1496.82 942 1211.25 941.539 1171.86 941.762 1116.39 940.711 1077 940.929" stroke="#000000" stroke-width="1.7128" stroke-miterlimit="8" fill="none" fill-rule="evenodd"/><path d="M1094 1025.3 1138 1014 1138 1036Z" fill-rule="evenodd"/><path d="M803.117 963 803 934.678C803 919.388 815.409 907 830.715 907L870 907.225" stroke="#000000" stroke-width="1.7128" stroke-miterlimit="8" fill="none" fill-rule="evenodd"/><path d="M867.5 856.5 1078.5 856.5 1078.5 961.5 867.5 961.5Z" stroke="#000000" stroke-width="4.89334" stroke-miterlimit="8" fill="#FFFFFF" fill-rule="evenodd"/><path d="M867 856.354 917.145 906 1027.5 906 1078 856" stroke="#000000" stroke-width="1.7128" stroke-miterlimit="8" fill="none" fill-rule="evenodd"/><text font-family="Arial,Arial_MSFontService,sans-serif" font-weight="400" font-size="29" transform="matrix(1 0 0 1 941.06 897)">Xf01</text><text font-family="Arial,Arial_MSFontService,sans-serif" font-weight="400" font-size="29" transform="matrix(1 0 0 1 908.43 946)">Code "G"</text><path d="M1031 1025.92 1265.21 1025.7 1320.7 1026.76 1360.11 1026.53 1645.79 1027 1675.2 1026.97C1699.35 1026.56 1703 1014.5 1703 999.111L1702.12 907" stroke="#000000" stroke-width="1.7128" stroke-miterlimit="8" fill="none" fill-rule="evenodd"/><path d="M1093 939.305 1136 928 1136 950Z" fill-rule="evenodd"/><path d="M1042 242 1254 242" stroke="#000000" stroke-width="1.7128" stroke-miterlimit="8" fill="none" fill-rule="evenodd"/><path d="M1140 241.303 1096 230 1096 252Z" fill-rule="evenodd"/><path d="M660 242 871 242" stroke="#000000" stroke-width="1.7128" stroke-miterlimit="8" fill="none" fill-rule="evenodd"/><path d="M827 241.303 784 230 784 252Z" fill-rule="evenodd"/><path d="M867.5 192.5 1078.5 192.5 1078.5 297.5 867.5 297.5Z" stroke="#000000" stroke-width="4.89334" stroke-miterlimit="8" fill="#FFFFFF" fill-rule="evenodd"/><text font-family="Arial,Arial_MSFontService,sans-serif" font-weight="400" font-size="29" transform="matrix(1 0 0 1 936.748 232)">Xq01</text><path d="M867 191.358 917.145 242 1027.5 242 1078 191" stroke="#000000" stroke-width="1.7128" stroke-miterlimit="8" fill="none" fill-rule="evenodd"/><path d="M1640.22 191C1655.57 191 1668 203.446 1668 218.8L1668 302.202C1668 317.555 1655.57 330 1640.22 330L1276.78 330C1261.43 330 1249 317.555 1249 302.202L1249 218.8C1249 203.444 1261.43 191 1276.78 191L1640.22 191Z" stroke="#000000" stroke-width="1.7128" stroke-miterlimit="8" fill="#FFFFFF" fill-rule="evenodd"/><text font-family="Arial,Arial_MSFontService,sans-serif" font-weight="400" font-size="35" transform="matrix(1 0 0 1 1278.22 238)">Afnemer geautoriseerd</text><text font-family="Arial,Arial_MSFontService,sans-serif" font-weight="400" font-size="35" transform="matrix(1 0 0 1 1278.22 273)">voor stellen ad hoc</text><text font-family="Arial,Arial_MSFontService,sans-serif" font-weight="400" font-size="35" transform="matrix(1 0 0 1 1278.22 308)">adresvragen?</text><path d="M1427.14 320C1434.79 320 1441 326.23 1441 333.919L1441 341.087C1441 348.77 1434.79 355 1427.14 355L1299.85 355C1292.2 355 1286 348.77 1286 341.087L1286 333.919C1286 326.23 1292.2 320 1299.85 320L1427.14 320Z" stroke="#000000" stroke-width="1.7128" stroke-miterlimit="8" fill="#FFFFFF" fill-rule="evenodd"/><text font-family="Arial,Arial_MSFontService,sans-serif" font-weight="400" font-size="24" transform="matrix(1 0 0 1 1350.24 348)">Ja</text><path d="M1094 391.311 1138 380 1138 402Z" fill-rule="evenodd"/><path d="M1835.21 747C1850.57 747 1863 759.356 1863 774.599L1863 857.402C1863 872.648 1850.57 885 1835.21 885L1276.79 885C1261.44 885 1249 872.646 1249 857.402L1249 774.599C1249 759.356 1261.44 747 1276.79 747L1835.21 747Z" stroke="#000000" stroke-width="1.7128" stroke-miterlimit="8" fill="#FFFFFF" fill-rule="evenodd"/><path d="M1427.14 876C1434.79 876 1441 882.231 1441 889.916L1441 897.084C1441 904.771 1434.79 911 1427.14 911L1299.85 911C1292.2 911 1286 904.771 1286 897.084L1286 889.916C1286 882.231 1292.2 876 1299.85 876L1427.14 876Z" stroke="#000000" stroke-width="1.7128" stroke-miterlimit="8" fill="#FFFFFF" fill-rule="evenodd"/><text font-family="Arial,Arial_MSFontService,sans-serif" font-weight="400" font-size="24" transform="matrix(1 0 0 1 1306.26 902)">Gevonden</text><path d="M1603.5 1844.5 1603.5 2312.5" stroke="#000000" stroke-width="4.7544" stroke-linecap="square" stroke-miterlimit="8" fill="none" fill-rule="evenodd"/><path d="M668.221 2471C683.562 2471 696 2483.45 696 2498.81L696 2582.21C696 2597.55 683.562 2610 668.221 2610L304.777 2610C289.436 2610 277 2597.55 277 2582.21L277 2498.81C277 2483.45 289.436 2471 304.777 2471L668.221 2471Z" stroke="#000000" stroke-width="1.7128" stroke-miterlimit="8" fill="#FFFFFF" fill-rule="evenodd"/><text font-family="Arial,Arial_MSFontService,sans-serif" font-weight="400" font-size="35" transform="matrix(1 0 0 1 305.651 2518)">Wacht op antwoord</text><path d="M696 2522.75 775.374 2523C790.705 2523 803.133 2509 803.133 2491.73L803.01 2429.87 802.892 443.273C802.892 425.997 815.321 412 830.652 412L870 412.257" stroke="#000000" stroke-width="1.81709" stroke-miterlimit="8" fill="none" fill-rule="evenodd"/><path d="M712 2522.3 756 2511 756 2533Z" fill-rule="evenodd"/><path d="M867.5 2523.5 1078.5 2523.5 1078.5 2629.5 867.5 2629.5Z" stroke="#000000" stroke-width="4.89334" stroke-miterlimit="8" fill="#FFFFFF" fill-rule="evenodd"/><path d="M867 2523.35 917.145 2573 1027.5 2573 1078 2523" stroke="#000000" stroke-width="1.7128" stroke-miterlimit="8" fill="none" fill-rule="evenodd"/><text font-family="Arial,Arial_MSFontService,sans-serif" font-weight="400" font-size="29" transform="matrix(1 0 0 1 936.748 2564)">Xa01</text><path d="M1076 2484.3 1120 2473 1120 2495Z" fill-rule="evenodd"/><path d="M867.5 2407.5 1078.5 2407.5 1078.5 2513.5 867.5 2513.5Z" stroke="#000000" stroke-width="4.89334" stroke-miterlimit="8" fill="#FFFFFF" fill-rule="evenodd"/><path d="M867 2407.37 917.145 2457 1027.5 2457 1078 2407" stroke="#000000" stroke-width="1.7128" stroke-miterlimit="8" fill="none" fill-rule="evenodd"/><text font-family="Arial,Arial_MSFontService,sans-serif" font-weight="400" font-size="29" transform="matrix(1 0 0 1 940.84 2448)">Xf01</text><text font-family="Arial,Arial_MSFontService,sans-serif" font-weight="400" font-size="29" transform="matrix(1 0 0 1 910.059 2497)">Code "P"</text><path d="M712 2571.3 756 2560 756 2582Z" fill-rule="evenodd"/><path d="M390.235 2634 390.117 2605.39 390.117 2578.72 390 2550.13C390 2534.7 402.401 2522.18 417.699 2522.18L445.848 2522 698 2522.22" stroke="#000000" stroke-width="1.7128" stroke-miterlimit="8" stroke-dasharray="9.63447 6.42298" fill="none" fill-rule="evenodd"/><path d="M581.122 2628 581 2599.78C581 2584.52 593.503 2572.18 608.925 2572.18L637.312 2572 695 2572.21" stroke="#000000" stroke-width="1.7128" stroke-miterlimit="8" stroke-dasharray="9.63447 6.42298" fill="none" fill-rule="evenodd"/><path d="M646.146 2601C653.796 2601 660 2607.23 660 2614.93L660 2622.09C660 2629.77 653.796 2636 646.146 2636L518.858 2636C511.202 2636 505 2629.77 505 2622.09L505 2614.93C505 2607.23 511.205 2601 518.858 2601L646.146 2601Z" stroke="#000000" stroke-width="1.7128" stroke-miterlimit="8" fill="#FFFFFF" fill-rule="evenodd"/><text font-family="Arial,Arial_MSFontService,sans-serif" font-weight="400" font-size="24" transform="matrix(1 0 0 1 553.302 2628)">Xa01</text><path d="M1362.5 1141.5 1362.5 1220.5" stroke="#000000" stroke-width="4.89334" stroke-linecap="square" stroke-miterlimit="8" fill="none" fill-rule="evenodd"/><path d="M667.191 2694C682.55 2694 695 2706.36 695 2721.61L695 2735.39C695 2750.64 682.55 2763 667.191 2763L233.809 2763C218.45 2763 206 2750.64 206 2735.39L206 2721.61C206 2706.36 218.45 2694 233.809 2694L667.191 2694Z" stroke="#000000" stroke-width="1.7128" stroke-miterlimit="8" fill="#FFFFFF" fill-rule="evenodd"/><text font-family="Arial,Arial_MSFontService,sans-serif" font-weight="400" font-size="35" transform="matrix(1 0 0 1 217.83 2745)">NORMAAL EINDE CYCLUS</text><path d="M389.5 2611.5 389.5 2680.5 97.5001 2680.5" stroke="#000000" stroke-width="5.15427" stroke-linecap="square" stroke-miterlimit="8" fill="none" fill-rule="evenodd"/><path d="M454.142 2601C461.795 2601 468 2607.23 468 2614.93L468 2622.09C468 2629.77 461.797 2636 454.142 2636L326.854 2636C319.205 2636 313 2629.77 313 2622.09L313 2614.93C313 2607.23 319.205 2601 326.854 2601L454.142 2601Z" stroke="#000000" stroke-width="1.7128" stroke-miterlimit="8" fill="#FFFFFF" fill-rule="evenodd"/><text font-family="Arial,Arial_MSFontService,sans-serif" font-weight="400" font-size="24" transform="matrix(1 0 0 1 365.176 2628)">Xf01</text><path d="M1604.5 888.5 1604.5 957.5 1792.15 955.7 1796.43 955.659 1843.5 955.659" stroke="#000000" stroke-width="4.89334" stroke-linecap="square" stroke-miterlimit="8" fill="none" fill-rule="evenodd"/><path d="M1628.27 876C1636.96 876 1644 882.231 1644 889.916L1644 897.084C1644 904.771 1636.96 911 1628.27 911L1483.73 911C1475.04 911 1468 904.771 1468 897.084L1468 889.916C1468 882.231 1475.04 876 1483.73 876L1628.27 876Z" stroke="#000000" stroke-width="1.7128" stroke-miterlimit="8" fill="#FFFFFF" fill-rule="evenodd"/><text font-family="Arial,Arial_MSFontService,sans-serif" font-weight="400" font-size="24" transform="matrix(1 0 0 1 1476.57 902)">Niet aanwezig</text><path d="M1362.27 429.066 1382 422 1362.27 464 1342 422Z" fill-rule="evenodd"/><path d="M1561.5 913C1561.5 917.143 1558.37 920.5 1554.5 920.5 1550.63 920.5 1547.5 917.143 1547.5 913 1547.5 908.858 1550.63 905.5 1554.5 905.5 1558.37 905.5 1561.5 908.858 1561.5 913Z" stroke="#000000" stroke-width="1.22343" stroke-linecap="square" stroke-miterlimit="8" fill="#FFFFFF" fill-rule="evenodd"/><path d="M1361.77 1024.06 1381 1017 1361.77 1059 1342 1017Z" fill-rule="evenodd"/><path d="M1737.77 1703.06 1757 1696 1737.77 1738 1718 1696Z" fill-rule="evenodd"/><path d="M1361.77 1228.06 1381 1221 1361.77 1263 1342 1221Z" fill-rule="evenodd"/><path d="M704.5 2576C704.5 2580.14 701.142 2583.5 697 2583.5 692.858 2583.5 689.5 2580.14 689.5 2576 689.5 2571.86 692.858 2568.5 697 2568.5 701.142 2568.5 704.5 2571.86 704.5 2576Z" stroke="#000000" stroke-width="1.22343" stroke-linecap="square" stroke-miterlimit="8" fill="#FFFFFF" fill-rule="evenodd"/><path d="M702.5 2522C702.5 2526.14 699.143 2529.5 695 2529.5 690.858 2529.5 687.5 2526.14 687.5 2522 687.5 2517.86 690.858 2514.5 695 2514.5 699.143 2514.5 702.5 2517.86 702.5 2522Z" stroke="#000000" stroke-width="1.22343" stroke-linecap="square" stroke-miterlimit="8" fill="#FFFFFF" fill-rule="evenodd"/><path d="M493.769 2436.06 513 2429 493.769 2471 474 2429Z" fill-rule="evenodd"/><path d="M580.767 2662.07 600 2655 580.767 2697 561 2655Z" fill-rule="evenodd"/><path d="M1258.5 243C1258.5 247.143 1255.14 250.5 1251 250.5 1246.86 250.5 1243.5 247.143 1243.5 243 1243.5 238.858 1246.86 235.5 1251 235.5 1255.14 235.5 1258.5 238.858 1258.5 243Z" stroke="#000000" stroke-width="1.22343" stroke-linecap="square" stroke-miterlimit="8" fill="#FFFFFF" fill-rule="evenodd"/><path d="M1250.5 89.0512C1250.5 53.5001 1284.85 53.5001 1284.85 53.5001L1841.84 53.5001C1841.84 53.5001 1876.5 53.1969 1876.5 87.8355 1876.5 122.474 1840.62 122.476 1840.62 122.476L1284.85 122.476C1284.85 122.474 1250.5 124.602 1250.5 89.0512Z" stroke="#000000" stroke-width="1.22343" stroke-miterlimit="8" fill="#FFFFFF" fill-rule="evenodd"/><text font-family="Arial,Arial_MSFontService,sans-serif" font-weight="400" font-size="39" transform="matrix(1 0 0 1 1362.44 100)">BRP Verstrekkingen</text><path d="M1551.98 330 1553.77 358.543 1554 363.192C1554 378.532 1541.56 390.965 1526.23 390.965L1496.86 391 1042 391" stroke="#000000" stroke-width="1.7128" stroke-miterlimit="8" fill="none" fill-rule="evenodd"/><path d="M1600.5 330.5 1600.5 399.5 1857.5 399.5" stroke="#000000" stroke-width="4.89334" stroke-linecap="square" stroke-miterlimit="8" fill="none" fill-rule="evenodd"/><path d="M1620.05 320C1627.75 320 1634 326.23 1634 333.919L1634 341.087C1634 348.77 1627.75 355 1620.05 355L1491.94 355C1484.25 355 1478 348.77 1478 341.087L1478 333.919C1478 326.23 1484.25 320 1491.94 320L1620.05 320Z" stroke="#000000" stroke-width="1.7128" stroke-miterlimit="8" fill="#FFFFFF" fill-rule="evenodd"/><text font-family="Arial,Arial_MSFontService,sans-serif" font-weight="400" font-size="24" transform="matrix(1 0 0 1 1532.89 348)">Nee</text><path d="M1562.5 357.5C1562.5 361.366 1559.14 364.5 1555 364.5 1550.86 364.5 1547.5 361.366 1547.5 357.5 1547.5 353.634 1550.86 350.5 1555 350.5 1559.14 350.5 1562.5 353.634 1562.5 357.5Z" stroke="#000000" stroke-width="1.22343" stroke-linecap="square" stroke-miterlimit="8" fill="#FFFFFF" fill-rule="evenodd"/><path d="M1912.5 400C1912.5 419.054 1897.05 434.5 1878 434.5 1858.95 434.5 1843.5 419.054 1843.5 400 1843.5 380.946 1858.95 365.5 1878 365.5 1897.05 365.5 1912.5 380.946 1912.5 400Z" stroke="#000000" stroke-width="1.22343" stroke-miterlimit="8" fill="#FFFFFF" fill-rule="evenodd"/><text font-family="Arial,Arial_MSFontService,sans-serif" font-weight="400" font-size="49" transform="matrix(1 0 0 1 1864.09 419)">1</text><path d="M1910.5 958.5C1910.5 977.278 1895.05 992.5 1876 992.5 1856.95 992.5 1841.5 977.278 1841.5 958.5 1841.5 939.722 1856.95 924.5 1876 924.5 1895.05 924.5 1910.5 939.722 1910.5 958.5Z" stroke="#000000" stroke-width="1.22343" stroke-miterlimit="8" fill="#FFFFFF" fill-rule="evenodd"/><text font-family="Arial,Arial_MSFontService,sans-serif" font-weight="400" font-size="49" transform="matrix(1 0 0 1 1861.94 978)">3</text><path d="M106.5 2680C106.5 2699.05 91.2778 2714.5 72.5 2714.5 53.7222 2714.5 38.5 2699.05 38.5 2680 38.5 2660.95 53.7222 2645.5 72.5 2645.5 91.2778 2645.5 106.5 2660.95 106.5 2680Z" stroke="#000000" stroke-width="1.22343" stroke-miterlimit="8" fill="#FFFFFF" fill-rule="evenodd"/><text font-family="Arial,Arial_MSFontService,sans-serif" font-weight="400" font-size="49" transform="matrix(1 0 0 1 58.2072 2699)">8</text><path d="M69.4999 89.0512C69.4999 53.5001 103.852 53.5001 103.852 53.5001L660.842 53.5001C660.842 53.5001 695.5 53.1969 695.5 87.8355 695.5 122.474 659.615 122.476 659.615 122.476L103.852 122.476C103.852 122.474 69.4999 124.602 69.4999 89.0512Z" stroke="#000000" stroke-width="1.22343" stroke-miterlimit="8" fill="#FFFFFF" fill-rule="evenodd"/><text font-family="Arial,Arial_MSFontService,sans-serif" font-weight="400" font-size="39" transform="matrix(1 0 0 1 299.108 100)">Afnemer</text><path d="M867.5 331.5 1078.5 331.5 1078.5 436.5 867.5 436.5Z" stroke="#000000" stroke-width="4.89334" stroke-miterlimit="8" fill="#FFFFFF" fill-rule="evenodd"/><text font-family="Arial,Arial_MSFontService,sans-serif" font-weight="400" font-size="29" transform="matrix(1 0 0 1 941.06 372)">Xf01</text><text font-family="Arial,Arial_MSFontService,sans-serif" font-weight="400" font-size="29" transform="matrix(1 0 0 1 910.059 421)">Code "X"</text><path d="M867 331.352 917.145 381 1027.5 381 1078 331" stroke="#000000" stroke-width="1.7128" stroke-miterlimit="8" fill="none" fill-rule="evenodd"/><path d="M1362.5 610.5 1362.5 725.501" stroke="#000000" stroke-width="4.89334" stroke-linecap="square" stroke-miterlimit="8" fill="none" fill-rule="evenodd"/><path d="M1640.22 470C1655.57 470 1668 482.445 1668 497.8L1668 581.201C1668 596.553 1655.57 609 1640.22 609L1276.78 609C1261.43 609 1249 596.553 1249 581.201L1249 497.8C1249 482.445 1261.43 470 1276.78 470L1640.22 470Z" stroke="#000000" stroke-width="1.7128" stroke-miterlimit="8" fill="#FFFFFF" fill-rule="evenodd"/><text font-family="Arial,Arial_MSFontService,sans-serif" font-weight="400" font-size="35" transform="matrix(1 0 0 1 1278.22 517)">Afnemer geautoriseerd </text><text font-family="Arial,Arial_MSFontService,sans-serif" font-weight="400" font-size="35" transform="matrix(1 0 0 1 1278.22 552)">voor gebruikte</text><text font-family="Arial,Arial_MSFontService,sans-serif" font-weight="400" font-size="35" transform="matrix(1 0 0 1 1278.22 587)">rubrieken?</text><text font-family="Arial,Arial_MSFontService,sans-serif" font-weight="400" font-size="35" transform="matrix(1 0 0 1 1281.97 802)">Zoek adres dan wel </text><text font-family="Arial,Arial_MSFontService,sans-serif" font-weight="400" font-size="35" transform="matrix(1 0 0 1 1281.97 837)">persoon in PL</text><text font-family="Arial,Arial_MSFontService,sans-serif" font-weight="400" font-size="35" transform="matrix(1 0 0 1 1499.1 837)">-</text><text font-family="Arial,Arial_MSFontService,sans-serif" font-weight="400" font-size="35" transform="matrix(1 0 0 1 1511.13 837)">bestand</text><path d="M1427.14 600C1434.79 600 1441 606.23 1441 613.919L1441 621.087C1441 628.772 1434.79 635 1427.14 635L1299.85 635C1292.2 635 1286 628.77 1286 621.087L1286 613.919C1286 606.23 1292.2 600 1299.85 600L1427.14 600Z" stroke="#000000" stroke-width="1.7128" stroke-miterlimit="8" fill="#FFFFFF" fill-rule="evenodd"/><text font-family="Arial,Arial_MSFontService,sans-serif" font-weight="400" font-size="24" transform="matrix(1 0 0 1 1350.24 627)">Ja</text><path d="M1094 675.313 1138 664 1138 686Z" fill-rule="evenodd"/><path d="M1362.27 708.066 1382 701 1362.27 743 1342 701Z" fill-rule="evenodd"/><path d="M1556 617 1554.04 642.771 1554.27 647.387C1554.27 662.62 1541.83 674.965 1526.49 674.965L1497.1 675 1042 675" stroke="#000000" stroke-width="1.7128" stroke-miterlimit="8" fill="none" fill-rule="evenodd"/><path d="M1600.5 609.5 1600.5 678.5 1857.5 678.5" stroke="#000000" stroke-width="4.89334" stroke-linecap="square" stroke-miterlimit="8" fill="none" fill-rule="evenodd"/><path d="M1620.05 600C1627.75 600 1634 606.23 1634 613.919L1634 621.087C1634 628.772 1627.75 635 1620.05 635L1491.94 635C1484.25 635 1478 628.77 1478 621.087L1478 613.919C1478 606.23 1484.25 600 1491.94 600L1620.05 600Z" stroke="#000000" stroke-width="1.7128" stroke-miterlimit="8" fill="#FFFFFF" fill-rule="evenodd"/><text font-family="Arial,Arial_MSFontService,sans-serif" font-weight="400" font-size="24" transform="matrix(1 0 0 1 1532.89 627)">Nee</text><path d="M1562.5 636.5C1562.5 640.366 1559.14 643.5 1555 643.5 1550.86 643.5 1547.5 640.366 1547.5 636.5 1547.5 632.634 1550.86 629.5 1555 629.5 1559.14 629.5 1562.5 632.634 1562.5 636.5Z" stroke="#000000" stroke-width="1.22343" stroke-linecap="square" stroke-miterlimit="8" fill="#FFFFFF" fill-rule="evenodd"/><path d="M1912.5 679C1912.5 698.054 1897.05 713.5 1878 713.5 1858.95 713.5 1843.5 698.054 1843.5 679 1843.5 659.947 1858.95 644.5 1878 644.5 1897.05 644.5 1912.5 659.947 1912.5 679Z" stroke="#000000" stroke-width="1.22343" stroke-miterlimit="8" fill="#FFFFFF" fill-rule="evenodd"/><text font-family="Arial,Arial_MSFontService,sans-serif" font-weight="400" font-size="49" transform="matrix(1 0 0 1 1864.09 698)">2</text><path d="M867.5 615.5 1078.5 615.5 1078.5 720.5 867.5 720.5Z" stroke="#000000" stroke-width="4.89334" stroke-miterlimit="8" fill="#FFFFFF" fill-rule="evenodd"/><text font-family="Arial,Arial_MSFontService,sans-serif" font-weight="400" font-size="29" transform="matrix(1 0 0 1 941.06 656)">Xf01</text><text font-family="Arial,Arial_MSFontService,sans-serif" font-weight="400" font-size="29" transform="matrix(1 0 0 1 910.059 705)">Code "X"</text><path d="M867 615.35 917.145 665 1027.5 665 1078 615" stroke="#000000" stroke-width="1.7128" stroke-miterlimit="8" fill="none" fill-rule="evenodd"/><path d="M303.778 207C288.436 207 276 219.537 276 235.002L276 249.002C276 264.469 288.436 277 303.778 277L667.223 277C682.564 277 695 264.467 695 249.002L695 235.002C695 219.537 682.564 207 667.223 207L303.778 207Z" stroke="#000000" stroke-width="1.7128" stroke-miterlimit="8" fill="#FFFFFF" fill-rule="evenodd"/><text font-family="Arial,Arial_MSFontService,sans-serif" font-weight="400" font-size="35" transform="matrix(1 0 0 1 290.711 255)">Verzoek om informatie</text><path d="M702.5 243C702.5 247.143 699.143 250.5 695 250.5 690.858 250.5 687.5 247.143 687.5 243 687.5 238.858 690.858 235.5 695 235.5 699.143 235.5 702.5 238.858 702.5 243Z" stroke="#000000" stroke-width="1.22343" stroke-linecap="square" stroke-miterlimit="8" fill="#FFFFFF" fill-rule="evenodd"/><path d="M1602.77 1942.06 1622 1935 1602.77 1977 1583 1935Z" fill-rule="evenodd"/><path d="M1602.77 2306.05 1622 2299 1602.77 2341 1583 2299Z" fill-rule="evenodd"/><path d="M1362.5 1030.5 1362.5 1253.5" stroke="#000000" stroke-width="4.89334" stroke-linecap="square" stroke-miterlimit="8" fill="none" fill-rule="evenodd"/><path d="M1802.5 2463.5 1802.5 2500.5 1883.5 2500.5" stroke="#000000" stroke-width="4.89334" stroke-linecap="square" stroke-miterlimit="8" fill="none" fill-rule="evenodd"/><path d="M1925.5 2494C1925.5 2513.05 1910.05 2528.5 1891 2528.5 1871.95 2528.5 1856.5 2513.05 1856.5 2494 1856.5 2474.95 1871.95 2459.5 1891 2459.5 1910.05 2459.5 1925.5 2474.95 1925.5 2494Z" stroke="#000000" stroke-width="1.22343" stroke-miterlimit="8" fill="#FFFFFF" fill-rule="evenodd"/><text font-family="Arial,Arial_MSFontService,sans-serif" font-weight="400" font-size="49" transform="matrix(1 0 0 1 1876.65 2513)">7</text><path d="M1847.68 1738C1862.22 1738 1874 1742.89 1874 1748.92L1874 1827.08C1874 1833.12 1862.22 1838 1847.68 1838L1503.32 1838C1488.78 1838 1477 1833.12 1477 1827.08L1477 1748.92C1477 1742.89 1488.78 1738 1503.32 1738L1847.68 1738Z" stroke="#000000" stroke-width="1.84669" stroke-miterlimit="8" fill="#FFFFFF" fill-rule="evenodd"/><path d="M1809.46 1977C1822.47 1977 1833 1985.01 1833 1994.88L1833 2026.14C1833 2036.01 1822.47 2044 1809.46 2044L1501.54 2044C1488.53 2044 1478 2036.01 1478 2026.14L1478 1994.88C1478 1985.01 1488.53 1977 1501.54 1977L1809.46 1977Z" stroke="#000000" stroke-width="2.05636" stroke-miterlimit="8" fill="#FFFFFF" fill-rule="evenodd"/><text font-family="Arial,Arial_MSFontService,sans-serif" font-weight="400" font-size="35" transform="matrix(1 0 0 1 1519.48 1786)">Voldoet persoon aan</text><text font-family="Arial,Arial_MSFontService,sans-serif" font-weight="400" font-size="35" transform="matrix(1 0 0 1 1519.48 1820)">alle voorwaarden?</text><path d="M1668.14 1828C1675.79 1828 1682 1834.22 1682 1841.9L1682 1849.09C1682 1856.77 1675.79 1863 1668.14 1863L1540.86 1863C1533.2 1863 1527 1856.77 1527 1849.09L1527 1841.9C1527 1834.22 1533.2 1828 1540.86 1828L1668.14 1828Z" stroke="#000000" stroke-width="1.7128" stroke-miterlimit="8" fill="#FFFFFF" fill-rule="evenodd"/><text font-family="Arial,Arial_MSFontService,sans-serif" font-weight="400" font-size="24" transform="matrix(1 0 0 1 1591.27 1855)">Ja</text><path d="M1833.23 2341C1849.67 2341 1863 2352.59 1863 2366.88L1863 2412.14C1863 2426.43 1849.67 2438 1833.23 2438L1443.77 2438C1427.32 2438 1414 2426.43 1414 2412.14L1414 2366.88C1414 2352.59 1427.32 2341 1443.77 2341L1833.23 2341Z" stroke="#000000" stroke-width="1.91562" stroke-miterlimit="8" fill="#FFFFFF" fill-rule="evenodd"/><text font-family="Arial,Arial_MSFontService,sans-serif" font-weight="400" font-size="35" transform="matrix(1 0 0 1 1447.15 2385)">Passen de verzamelde</text><text font-family="Arial,Arial_MSFontService,sans-serif" font-weight="400" font-size="35" transform="matrix(1 0 0 1 1447.15 2420)">gegevens in het bericht?</text><text font-family="Arial,Arial_MSFontService,sans-serif" font-weight="400" font-size="35" transform="matrix(1 0 0 1 1502.84 2025)">Verzamel alle PL</text><text font-family="Arial,Arial_MSFontService,sans-serif" font-weight="400" font-size="35" transform="matrix(1 0 0 1 1769.25 2025)">-</text><text font-family="Arial,Arial_MSFontService,sans-serif" font-weight="400" font-size="35" transform="matrix(1 0 0 1 1781.28 2025)">en</text><path d="M1604.5 2463.5 1604.5 2567.5" stroke="#000000" stroke-width="4.89334" stroke-miterlimit="8" fill="none" fill-rule="evenodd"/><path d="M1734.91 2448C1734.91 2448 1742.42 2484 1718.01 2484 1693.61 2484 1113 2484 1113 2484" stroke="#000000" stroke-width="1.7128" stroke-miterlimit="8" fill="none" fill-rule="evenodd"/><path d="M1833.15 2427C1840.8 2427 1847 2433.23 1847 2440.91L1847 2448.07C1847 2455.75 1840.8 2462 1833.15 2462L1705.85 2462C1698.2 2462 1692 2455.75 1692 2448.07L1692 2440.91C1692 2433.23 1698.2 2427 1705.85 2427L1833.15 2427Z" stroke="#000000" stroke-width="1.7128" stroke-miterlimit="8" fill="#FFFFFF" fill-rule="evenodd"/><text font-family="Arial,Arial_MSFontService,sans-serif" font-weight="400" font-size="24" transform="matrix(1 0 0 1 1747 2455)">Nee</text><path d="M1668.14 2427C1675.79 2427 1682 2433.23 1682 2440.91L1682 2448.07C1682 2455.75 1675.79 2462 1668.14 2462L1540.86 2462C1533.2 2462 1527 2455.75 1527 2448.07L1527 2440.91C1527 2433.23 1533.2 2427 1540.86 2427L1668.14 2427Z" stroke="#000000" stroke-width="1.7128" stroke-miterlimit="8" fill="#FFFFFF" fill-rule="evenodd"/><text font-family="Arial,Arial_MSFontService,sans-serif" font-weight="400" font-size="24" transform="matrix(1 0 0 1 1591.27 2455)">Ja</text><path d="M1728.73 1864 1728.73 1900.51C1728.73 1900.51 1733.2 1926 1705.71 1926 1678.22 1926 1026 1926 1026 1926" stroke="#000000" stroke-width="1.7128" stroke-miterlimit="8" fill="none" fill-rule="evenodd"/><path d="M867.5 1874.5 1078.5 1874.5 1078.5 1979.5 867.5 1979.5Z" stroke="#000000" stroke-width="4.89334" stroke-miterlimit="8" fill="#FFFFFF" fill-rule="evenodd"/><path d="M867 1873.36 917.146 1924 1027.5 1924 1078 1873" stroke="#000000" stroke-width="1.7128" stroke-miterlimit="8" fill="none" fill-rule="evenodd"/><text font-family="Arial,Arial_MSFontService,sans-serif" font-weight="400" font-size="29" transform="matrix(1 0 0 1 940.697 1914)">Xf01</text><text font-family="Arial,Arial_MSFontService,sans-serif" font-weight="400" font-size="29" transform="matrix(1 0 0 1 910.741 1963)">Code "Z"</text><path d="M1744.5 2467C1744.5 2471.14 1741.14 2474.5 1737 2474.5 1732.86 2474.5 1729.5 2471.14 1729.5 2467 1729.5 2462.86 1732.86 2459.5 1737 2459.5 1741.14 2459.5 1744.5 2462.86 1744.5 2467Z" stroke="#000000" stroke-width="1.22343" stroke-linecap="square" stroke-miterlimit="8" fill="#FFFFFF" fill-rule="evenodd"/><path d="M1112 2599 1248 2599" stroke="#000000" stroke-width="1.7128" stroke-miterlimit="8" fill="none" fill-rule="evenodd"/><path d="M802.115 1087 802 1058.68C802 1043.39 814.405 1031 829.714 1031L869 1031.22" stroke="#000000" stroke-width="1.7128" stroke-miterlimit="8" fill="none" fill-rule="evenodd"/><path d="M803.115 1978 803 1949.17C803 1933.61 815.405 1921 830.715 1921L870 1921.23" stroke="#000000" stroke-width="1.7128" stroke-miterlimit="8" fill="none" fill-rule="evenodd"/><path d="M1836.22 1059C1851.56 1059 1864 1071.44 1864 1086.79L1864 1122.21C1864 1137.56 1851.56 1150 1836.22 1150L1292.78 1150C1277.44 1150 1265 1137.56 1265 1122.21L1265 1086.79C1265 1071.44 1277.44 1059 1292.78 1059L1836.22 1059Z" stroke="#000000" stroke-width="1.7128" stroke-miterlimit="8" fill="#FFFFFF" fill-rule="evenodd"/><text font-family="Arial,Arial_MSFontService,sans-serif" font-weight="400" font-size="35" transform="matrix(1 0 0 1 1278.22 1107)">Soort identificatie</text><path d="M1427.14 1140C1434.79 1140 1441 1146.23 1441 1153.91L1441 1161.08C1441 1168.77 1434.79 1175 1427.14 1175L1299.85 1175C1292.2 1175 1286 1168.77 1286 1161.08L1286 1153.91C1286 1146.23 1292.2 1140 1299.85 1140L1427.14 1140Z" stroke="#000000" stroke-width="1.7128" stroke-miterlimit="8" fill="#FFFFFF" fill-rule="evenodd"/><text font-family="Arial,Arial_MSFontService,sans-serif" font-weight="400" font-size="24" transform="matrix(1 0 0 1 1330.21 1165)">Adres</text><path d="M1799.5 954.5 1799.5 904.5" stroke="#000000" stroke-width="5.44947" stroke-miterlimit="8" fill="none" fill-rule="evenodd"/><path d="M1814.06 876C1821.76 876 1828 882.231 1828 889.916L1828 897.084C1828 904.771 1821.76 911 1814.06 911L1794.55 911 1685.94 911C1678.24 911 1672 904.771 1672 897.084L1672 889.916C1672 882.231 1678.24 876 1685.94 876L1814.06 876Z" stroke="#000000" stroke-width="1.7128" stroke-miterlimit="8" fill="#FFFFFF" fill-rule="evenodd"/><text font-family="Arial,Arial_MSFontService,sans-serif" font-weight="400" font-size="24" transform="matrix(1 0 0 1 1694.04 902)">Niet uniek</text><path d="M1710.5 913C1710.5 917.143 1707.14 920.5 1703 920.5 1698.86 920.5 1695.5 917.143 1695.5 913 1695.5 908.858 1698.86 905.5 1703 905.5 1707.14 905.5 1710.5 908.858 1710.5 913Z" stroke="#000000" stroke-width="1.22343" stroke-linecap="square" stroke-miterlimit="8" fill="#FFFFFF" fill-rule="evenodd"/><path d="M1603.77 2535.05 1623 2528 1603.77 2570 1584 2528Z" fill-rule="evenodd"/><path d="M1834.19 2693C1849.54 2693 1862 2705.35 1862 2720.6L1862 2734.4C1862 2749.65 1849.54 2762 1834.19 2762L1400.81 2762C1385.45 2762 1373 2749.65 1373 2734.4L1373 2720.6C1373 2705.35 1385.45 2693 1400.81 2693L1834.19 2693Z" stroke="#000000" stroke-width="1.7128" stroke-miterlimit="8" fill="#FFFFFF" fill-rule="evenodd"/><text font-family="Arial,Arial_MSFontService,sans-serif" font-weight="400" font-size="35" transform="matrix(1 0 0 1 1384.68 2745)">NORMAAL EINDE CYCLUS</text><path d="M1604.5 2590.5 1604.5 2694.5" stroke="#000000" stroke-width="4.89334" stroke-miterlimit="8" fill="none" fill-rule="evenodd"/><path d="M1603.77 2662.07 1623 2655 1603.77 2697 1584 2655Z" fill-rule="evenodd"/><path d="M1849.19 2569C1864.55 2569 1877 2581.37 1877 2596.6L1877 2610.4C1877 2625.65 1864.55 2638 1849.19 2638L1276.81 2638C1261.45 2638 1249 2625.65 1249 2610.4L1249 2596.6C1249 2581.37 1261.45 2569 1276.81 2569L1849.19 2569Z" stroke="#000000" stroke-width="1.7128" stroke-miterlimit="8" fill="#FFFFFF" fill-rule="evenodd"/><text font-family="Arial,Arial_MSFontService,sans-serif" font-weight="400" font-size="35" transform="matrix(1 0 0 1 1278.22 2616)">Verzend de verzamelde gegevens</text><path d="M1833.15 1828C1840.8 1828 1847 1834.22 1847 1841.9L1847 1849.09C1847 1856.77 1840.8 1863 1833.15 1863L1705.85 1863C1698.2 1863 1692 1856.77 1692 1849.09L1692 1841.9C1692 1834.22 1698.2 1828 1705.85 1828L1833.15 1828Z" stroke="#000000" stroke-width="1.7128" stroke-miterlimit="8" fill="#FFFFFF" fill-rule="evenodd"/><text font-family="Arial,Arial_MSFontService,sans-serif" font-weight="400" font-size="24" transform="matrix(1 0 0 1 1747 1855)">Nee</text><path d="M1376.5 1390.5 1376.5 1444.5" stroke="#000000" stroke-width="4.89334" stroke-linecap="square" stroke-miterlimit="8" fill="none" fill-rule="evenodd"/><path d="M1616.76 1393.78 1616.76 1377 1617 1433.37C1617 1448.61 1604.03 1460.97 1588.05 1460.97L1557.42 1461 1259.88 1460.54 1218.83 1460.76 1161.04 1459.71 1120 1459.93" stroke="#000000" stroke-width="1.7128" stroke-miterlimit="8" fill="none" fill-rule="evenodd"/><path d="M1748.59 1259C1767.6 1259 1783 1269.3 1783 1282L1783 1351C1783 1363.7 1767.6 1374 1748.59 1374L1298.41 1374C1279.4 1374 1264 1363.7 1264 1351L1264 1282C1264 1269.3 1279.4 1259 1298.41 1259L1748.59 1259Z" stroke="#000000" stroke-width="1.7128" stroke-miterlimit="8" fill="#FFFFFF" fill-rule="evenodd"/><path d="M1441.14 1365C1448.79 1365 1455 1371.23 1455 1378.92L1455 1386.08C1455 1393.77 1448.79 1400 1441.14 1400L1313.85 1400C1306.2 1400 1300 1393.77 1300 1386.08L1300 1378.92C1300 1371.23 1306.2 1365 1313.85 1365L1441.14 1365Z" stroke="#000000" stroke-width="1.7128" stroke-miterlimit="8" fill="#FFFFFF" fill-rule="evenodd"/><text font-family="Arial,Arial_MSFontService,sans-serif" font-weight="400" font-size="24" transform="matrix(1 0 0 1 1324.89 1392)">1 of meer</text><text font-family="Arial,Arial_MSFontService,sans-serif" font-weight="400" font-size="35" transform="matrix(1 0 0 1 1287.7 1312)">Verzamel A</text><text font-family="Arial,Arial_MSFontService,sans-serif" font-weight="400" font-size="35" transform="matrix(1 0 0 1 1469.89 1312)">-</text><text font-family="Arial,Arial_MSFontService,sans-serif" font-weight="400" font-size="35" transform="matrix(1 0 0 1 1481.92 1312)">nummers van</text><text font-family="Arial,Arial_MSFontService,sans-serif" font-weight="400" font-size="35" transform="matrix(1 0 0 1 1287.7 1347)">alle actuele PL</text><text font-family="Arial,Arial_MSFontService,sans-serif" font-weight="400" font-size="35" transform="matrix(1 0 0 1 1518.59 1347)">-</text><text font-family="Arial,Arial_MSFontService,sans-serif" font-weight="400" font-size="35" transform="matrix(1 0 0 1 1530.62 1347)">en op adres</text><path d="M1703.5 1374.5 1703.5 1443.5 1891.5 1443.5" stroke="#000000" stroke-width="4.89334" stroke-linecap="square" stroke-miterlimit="8" fill="none" fill-rule="evenodd"/><path d="M1721.14 1365C1728.8 1365 1735 1371.23 1735 1378.92L1735 1386.08C1735 1393.77 1728.8 1400 1721.14 1400L1593.85 1400C1586.2 1400 1580 1393.77 1580 1386.08L1580 1378.92C1580 1371.23 1586.2 1365 1593.85 1365L1721.14 1365Z" stroke="#000000" stroke-width="1.7128" stroke-miterlimit="8" fill="#FFFFFF" fill-rule="evenodd"/><text font-family="Arial,Arial_MSFontService,sans-serif" font-weight="400" font-size="24" transform="matrix(1 0 0 1 1627.47 1392)">Geen</text><path d="M1625.5 1401.5C1625.5 1405.37 1622.14 1408.5 1618 1408.5 1613.86 1408.5 1610.5 1405.37 1610.5 1401.5 1610.5 1397.63 1613.86 1394.5 1618 1394.5 1622.14 1394.5 1625.5 1397.63 1625.5 1401.5Z" stroke="#000000" stroke-width="1.22343" stroke-linecap="square" stroke-miterlimit="8" fill="#FFFFFF" fill-rule="evenodd"/><path d="M1363.77 1747.9 1383 1741 1363.77 1782 1344 1741Z" fill-rule="evenodd"/><path d="M1890.5 1481.5C1909.28 1481.5 1924.5 1466.06 1924.5 1447 1924.5 1427.95 1909.28 1412.5 1890.5 1412.5 1871.72 1412.5 1856.5 1427.95 1856.5 1447 1856.5 1466.06 1871.72 1481.5 1890.5 1481.5Z" stroke="#000000" stroke-width="1.22343" stroke-miterlimit="8" fill="#FFFFFF" fill-rule="evenodd"/><text font-family="Arial,Arial_MSFontService,sans-serif" font-weight="400" font-size="49" transform="matrix(1 0 0 1 1876.33 1466)">4</text><path d="M1759 1473C1780 1473 1797 1478.33 1797 1484.9L1797 1570.1C1797 1576.67 1780 1582 1759 1582L1262 1582C1241 1582 1224 1576.67 1224 1570.1L1224 1484.9C1224 1478.33 1241 1473 1262 1473L1759 1473Z" stroke="#000000" stroke-width="1.84669" stroke-miterlimit="8" fill="#FFFFFF" fill-rule="evenodd"/><text font-family="Arial,Arial_MSFontService,sans-serif" font-weight="400" font-size="35" transform="matrix(1 0 0 1 1240.29 1522)">Voldoet minstens één geselecteerde</text><text font-family="Arial,Arial_MSFontService,sans-serif" font-weight="400" font-size="35" transform="matrix(1 0 0 1 1240.29 1557)">persoonslijst aan alle voorwaarden?</text><path d="M1739.14 1703.5 1738.92 1668.59C1738.92 1653.25 1751.33 1640.82 1766.64 1640.82L1814.75 1641.02 1825.06 1640.7 1817.24 1640.7C1832.54 1640.7 1846.34 1628.26 1846.34 1612.92L1846.5 1475.89 1846.35 1258.48C1846.35 1243.14 1833.8 1230.71 1818.5 1230.71L1825.17 1230.74 1761.22 1230.71C1745.91 1230.71 1733.5 1218.27 1733.5 1202.92L1733.54 1182.34 1733.78 1166.5" stroke="#000000" stroke-width="4.89334" stroke-miterlimit="8" fill="none" fill-rule="evenodd"/><path d="M1807.06 1140C1814.76 1140 1821 1146.23 1821 1153.91L1821 1161.08C1821 1168.77 1814.76 1175 1807.06 1175L1678.94 1175C1671.24 1175 1665 1168.77 1665 1161.08L1665 1153.91C1665 1146.23 1671.24 1140 1678.94 1140L1807.06 1140Z" stroke="#000000" stroke-width="1.7128" stroke-miterlimit="8" fill="#FFFFFF" fill-rule="evenodd"/><text font-family="Arial,Arial_MSFontService,sans-serif" font-weight="400" font-size="24" transform="matrix(1 0 0 1 1696.62 1165)">Persoon</text><path d="M1618.76 1599.78 1618.76 1583 1619 1639.37C1619 1654.61 1605.98 1666.97 1589.93 1666.97L1559.18 1667 1260.44 1666.54 1219.23 1666.76 1161.21 1665.71 1120 1665.93" stroke="#000000" stroke-width="1.7128" stroke-miterlimit="8" fill="none" fill-rule="evenodd"/><path d="M1683.5 1595.5 1683.5 1664.5 1871.5 1664.5" stroke="#000000" stroke-width="4.89334" stroke-linecap="square" stroke-miterlimit="8" fill="none" fill-rule="evenodd"/><path d="M1890 1702.5C1909.05 1702.5 1924.5 1687.05 1924.5 1668 1924.5 1648.94 1909.05 1633.5 1890 1633.5 1870.94 1633.5 1855.5 1648.94 1855.5 1668 1855.5 1687.05 1870.94 1702.5 1890 1702.5Z" stroke="#000000" stroke-width="1.22343" stroke-miterlimit="8" fill="#FFFFFF" fill-rule="evenodd"/><text font-family="Arial,Arial_MSFontService,sans-serif" font-weight="400" font-size="49" transform="matrix(1 0 0 1 1876.12 1687)">5</text><path d="M1705.15 1572C1712.8 1572 1719 1578.22 1719 1585.9L1719 1593.09C1719 1600.77 1712.8 1607 1705.15 1607L1577.86 1607C1570.2 1607 1564 1600.77 1564 1593.09L1564 1585.9C1564 1578.22 1570.2 1572 1577.86 1572L1705.15 1572Z" stroke="#000000" stroke-width="1.7128" stroke-miterlimit="8" fill="#FFFFFF" fill-rule="evenodd"/><text font-family="Arial,Arial_MSFontService,sans-serif" font-weight="400" font-size="24" transform="matrix(1 0 0 1 1618.52 1599)">Nee</text><path d="M1627.5 1607.5C1627.5 1611.37 1624.14 1614.5 1620 1614.5 1615.86 1614.5 1612.5 1611.37 1612.5 1607.5 1612.5 1603.63 1615.86 1600.5 1620 1600.5 1624.14 1600.5 1627.5 1603.63 1627.5 1607.5Z" stroke="#000000" stroke-width="1.22343" stroke-linecap="square" stroke-miterlimit="8" fill="#FFFFFF" fill-rule="evenodd"/><path d="M1809.4 2160C1822.44 2160 1833 2170.99 1833 2184.54L1833 2227.46C1833 2241.01 1822.44 2252 1809.4 2252L1500.6 2252C1487.56 2252 1477 2241.01 1477 2227.46L1477 2184.54C1477 2170.99 1487.56 2160 1500.6 2160L1809.4 2160Z" stroke="#000000" stroke-width="2.05636" stroke-miterlimit="8" fill="#FFFFFF" fill-rule="evenodd"/><text font-family="Arial,Arial_MSFontService,sans-serif" font-weight="400" font-size="35" transform="matrix(1 0 0 1 1502.72 2203)">Verzamel alle te ver</text><text font-family="Arial,Arial_MSFontService,sans-serif" font-weight="400" font-size="35" transform="matrix(1 0 0 1 1814.38 2203)">-</text><text font-family="Arial,Arial_MSFontService,sans-serif" font-weight="400" font-size="35" transform="matrix(1 0 0 1 1502.72 2238)">strekken gegevens</text><path d="M1602.28 2126.05 1622 2119 1602.28 2161 1582 2119Z" fill-rule="evenodd"/><path d="M1737.5 1866C1737.5 1870.14 1734.14 1873.5 1730 1873.5 1725.86 1873.5 1722.5 1870.14 1722.5 1866 1722.5 1861.86 1725.86 1858.5 1730 1858.5 1734.14 1858.5 1737.5 1861.86 1737.5 1866Z" stroke="#000000" stroke-width="1.22343" stroke-linecap="square" stroke-miterlimit="8" fill="#FFFFFF" fill-rule="evenodd"/><path d="M1818.5 1865.5 1818.5 1902.5 1899.5 1902.5" stroke="#000000" stroke-width="4.89334" stroke-linecap="square" stroke-miterlimit="8" fill="none" fill-rule="evenodd"/><path d="M1926.5 1896C1926.5 1915.05 1911.05 1930.5 1892 1930.5 1872.95 1930.5 1857.5 1915.05 1857.5 1896 1857.5 1876.95 1872.95 1861.5 1892 1861.5 1911.05 1861.5 1926.5 1876.95 1926.5 1896Z" stroke="#000000" stroke-width="1.22343" stroke-miterlimit="8" fill="#FFFFFF" fill-rule="evenodd"/><text font-family="Arial,Arial_MSFontService,sans-serif" font-weight="400" font-size="49" transform="matrix(1 0 0 1 1877.96 1915)">6</text><path d="M1602.5 2094.5 1418.73 2093.95 1392.24 2093.95C1376.88 2093.95 1363.03 2081.52 1363.03 2066.19L1362.87 2041.91 1363.02 1844.33C1363.02 1829 1362.5 1600.5 1362.5 1600.5" stroke="#000000" stroke-width="4.89334" stroke-miterlimit="8" fill="none" fill-rule="evenodd"/><path d="M1376.77 1438.89 1396 1432 1376.77 1473 1357 1432Z" fill-rule="evenodd"/><path d="M1437.05 1572C1444.75 1572 1451 1578.22 1451 1585.9L1451 1593.09C1451 1600.77 1444.75 1607 1437.05 1607L1308.94 1607C1301.24 1607 1295 1600.77 1295 1593.09L1295 1585.9C1295 1578.22 1301.24 1572 1308.94 1572L1437.05 1572Z" stroke="#000000" stroke-width="1.7128" stroke-miterlimit="8" fill="#FFFFFF" fill-rule="evenodd"/><text font-family="Arial,Arial_MSFontService,sans-serif" font-weight="400" font-size="24" transform="matrix(1 0 0 1 1359.86 1599)">Ja</text><path d="M870.5 1608.5 1081.5 1608.5 1081.5 1714.5 870.5 1714.5Z" stroke="#000000" stroke-width="4.89334" stroke-miterlimit="8" fill="#FFFFFF" fill-rule="evenodd"/><path d="M870 1608.35 920.146 1658 1030.5 1658 1081 1608" stroke="#000000" stroke-width="1.7128" stroke-miterlimit="8" fill="none" fill-rule="evenodd"/><text font-family="Arial,Arial_MSFontService,sans-serif" font-weight="400" font-size="29" transform="matrix(1 0 0 1 944.048 1649)">Xf01</text><text font-family="Arial,Arial_MSFontService,sans-serif" font-weight="400" font-size="29" transform="matrix(1 0 0 1 914.092 1698)">Code "Z"</text><path d="M870.5 1412.5 1081.5 1412.5 1081.5 1518.5 870.5 1518.5Z" stroke="#000000" stroke-width="4.89334" stroke-miterlimit="8" fill="#FFFFFF" fill-rule="evenodd"/><path d="M870 1412.35 920.146 1462 1030.5 1462 1081 1412" stroke="#000000" stroke-width="1.7128" stroke-miterlimit="8" fill="none" fill-rule="evenodd"/><text font-family="Arial,Arial_MSFontService,sans-serif" font-weight="400" font-size="29" transform="matrix(1 0 0 1 944.048 1453)">Xf01</text><text font-family="Arial,Arial_MSFontService,sans-serif" font-weight="400" font-size="29" transform="matrix(1 0 0 1 914.092 1502)">Code "Z"</text><path d="M1081 1666.31 1124 1655 1124 1677Z" fill-rule="evenodd"/><path d="M803.115 1713 803 1684.68C803 1669.39 815.405 1657 830.715 1657L870 1657.23" stroke="#000000" stroke-width="1.7128" stroke-miterlimit="8" fill="none" fill-rule="evenodd"/><path d="M1080 1460.31 1124 1449 1124 1471Z" fill-rule="evenodd"/><path d="M803.115 1514 803 1485.18C803 1469.61 815.405 1457 830.715 1457L870 1457.23" stroke="#000000" stroke-width="1.7128" stroke-miterlimit="8" fill="none" fill-rule="evenodd"/><path d="M867.5 980.5 1078.5 980.5 1078.5 1085.5 867.5 1085.5Z" stroke="#000000" stroke-width="4.89334" stroke-miterlimit="8" fill="#FFFFFF" fill-rule="evenodd"/><path d="M867 979.361 917.145 1030 1027.5 1030 1078 979" stroke="#000000" stroke-width="1.7128" stroke-miterlimit="8" fill="none" fill-rule="evenodd"/><text font-family="Arial,Arial_MSFontService,sans-serif" font-weight="400" font-size="29" transform="matrix(1 0 0 1 941.06 1020)">Xf01</text><text font-family="Arial,Arial_MSFontService,sans-serif" font-weight="400" font-size="29" transform="matrix(1 0 0 1 909.247 1069)">Code "U"</text></g></svg>