<svg width="1949" height="2631" xmlns="http://www.w3.org/2000/svg" xmlns:xlink="http://www.w3.org/1999/xlink" xml:space="preserve" overflow="hidden"><g transform="matrix(1 0 0 1 0 -226)"><path d="M1.00003 227 760 227 760 2856 1.00003 2856Z" stroke="#000000" stroke-width="1.70594" stroke-miterlimit="8" fill="#E6E6E6" fill-rule="evenodd"/><path d="M1189 227 1948 227 1948 2856 1189 2856Z" stroke="#000000" stroke-width="1.70594" stroke-miterlimit="8" fill="#E6E6E6" fill-rule="evenodd"/><path d="M1258.5 297.566C1258.5 261.5 1292.63 261.5 1292.63 261.5L1846.06 261.5C1846.06 261.5 1880.5 261.192 1880.5 296.333 1880.5 331.474 1844.84 331.475 1844.84 331.475L1292.63 331.475C1292.63 331.475 1258.5 333.634 1258.5 297.566Z" stroke="#000000" stroke-width="1.21837" stroke-miterlimit="8" fill="#FFFFFF" fill-rule="evenodd"/><path d="M81.5 297.566C81.5 261.5 115.687 261.5 115.687 261.5L670.008 261.5C670.008 261.5 704.5 261.192 704.5 296.333 704.5 331.474 668.787 331.475 668.787 331.475L115.687 331.475C115.687 331.475 81.5 333.634 81.5 297.566Z" stroke="#000000" stroke-width="1.21837" stroke-miterlimit="8" fill="#FFFFFF" fill-rule="evenodd"/><text font-family="Arial,Arial_MSFontService,sans-serif" font-weight="400" font-size="39" transform="matrix(1 0 0 1 1486.82 309)">Afnemer</text><text font-family="Arial,Arial_MSFontService,sans-serif" font-weight="400" font-size="39" transform="matrix(1 0 0 1 193.466 309)">BRP Verstrekkingen</text><path d="M677.303 400C692.603 400 705 412.417 705 427.733L705 476.268C705 491.586 692.603 504 677.303 504L245.697 504C230.397 504 218 491.586 218 476.268L218 427.733C218 412.417 230.397 400 245.697 400L677.303 400Z" stroke="#000000" stroke-width="1.70594" stroke-miterlimit="8" fill="#FFFFFF" fill-rule="evenodd"/><text font-family="Arial,Arial_MSFontService,sans-serif" font-weight="400" font-size="35" transform="matrix(1 0 0 1 241.888 447)">Komt afnemersindicatie</text><text font-family="Arial,Arial_MSFontService,sans-serif" font-weight="400" font-size="35" transform="matrix(1 0 0 1 241.888 482)">(35.95.10) voor op PL?</text><path d="M587.5 505.5 587.5 590.5" stroke="#000000" stroke-width="4.87385" stroke-linecap="square" stroke-miterlimit="8" fill="none" fill-rule="evenodd"/><path d="M586.274 573.062 606 566 586.274 608 566 566Z" fill-rule="evenodd"/><path d="M655.146 495C662.799 495 669 501.052 669 508.522L669 515.484C669 522.951 662.799 529 655.146 529L527.855 529C520.203 529 514 522.95 514 515.484L514 508.522C514 501.052 520.203 495 527.855 495L655.146 495Z" stroke="#000000" stroke-width="1.70594" stroke-miterlimit="8" fill="#FFFFFF" fill-rule="evenodd"/><text font-family="Arial,Arial_MSFontService,sans-serif" font-weight="400" font-size="23" transform="matrix(1 0 0 1 577.659 521)">Ja</text><path d="M587.5 712.5 587.5 798.5" stroke="#000000" stroke-width="4.87385" stroke-linecap="square" stroke-miterlimit="8" fill="none" fill-rule="evenodd"/><path d="M586.274 780.894 606 774 586.274 815 566 774Z" fill-rule="evenodd"/><path d="M587.5 920.5 587.5 1006.5" stroke="#000000" stroke-width="4.87385" stroke-linecap="square" stroke-miterlimit="8" fill="none" fill-rule="evenodd"/><path d="M586.274 988.062 606 981 586.274 1023 566 981Z" fill-rule="evenodd"/><path d="M677.326 1023C692.61 1023 705 1035.36 705 1050.6L705 1064.4C705 1079.65 692.61 1092 677.326 1092L168.674 1092C153.39 1092 141 1079.65 141 1064.4L141 1050.6C141 1035.36 153.39 1023 168.674 1023L677.326 1023Z" stroke="#000000" stroke-width="1.70594" stroke-miterlimit="8" fill="#FFFFFF" fill-rule="evenodd"/><text font-family="Arial,Arial_MSFontService,sans-serif" font-weight="400" font-size="35" transform="matrix(1 0 0 1 162.019 1070)">Welke actualisering is het?</text><path d="M237.996 1733.5 140.123 1733.5C124.868 1733.5 112.5 1721.11 112.5 1705.82L112.5 602.087C112.5 586.8 124.868 574.411 140.123 574.411L239.142 574.441 302.877 574.411C318.132 574.411 330.5 562.018 330.5 546.731L330.276 542.099 330.459 512.5" stroke="#000000" stroke-width="4.87385" stroke-miterlimit="8" fill="none" fill-rule="evenodd"/><path d="M394.14 494C401.795 494 408 500.229 408 507.917L408 515.084C408 522.771 401.795 529 394.14 529L266.854 529C259.202 529 253 522.771 253 515.084L253 507.917C253 500.229 259.202 494 266.854 494L394.14 494Z" stroke="#000000" stroke-width="1.70594" stroke-miterlimit="8" fill="#FFFFFF" fill-rule="evenodd"/><text font-family="Arial,Arial_MSFontService,sans-serif" font-weight="400" font-size="23" transform="matrix(1 0 0 1 308.255 521)">Nee</text><path d="M912 765 385.674 765C370.39 765 358 752.492 358 737.057L358.223 680" stroke="#000000" stroke-width="1.70594" stroke-miterlimit="8" fill="none" fill-rule="evenodd"/><path d="M853 764.304 809 753 809 775.001Z" fill-rule="evenodd"/><path d="M462.5 2683.5 88.1854 2683.5C72.8961 2683.5 60.5 2671.1 60.5 2655.84L60.5 795.052C60.5 779.773 72.8961 767.387 88.1854 767.387L274.505 767.387C289.794 767.387 302.19 754.999 302.19 739.72L302.149 705.5" stroke="#000000" stroke-width="4.87385" stroke-miterlimit="8" fill="none" fill-rule="evenodd"/><path d="M912 1180 480.686 1180C465.396 1180 453 1167.49 453 1152.06L453.223 1095" stroke="#000000" stroke-width="1.70594" stroke-miterlimit="8" fill="none" fill-rule="evenodd"/><path d="M587.5 1784.5 587.5 1869.5" stroke="#000000" stroke-width="4.87385" stroke-linecap="square" stroke-miterlimit="8" fill="none" fill-rule="evenodd"/><path d="M60.7692 1628.07 80.0001 1621 60.7692 1663 40.9999 1621Z" fill-rule="evenodd"/><path d="M111.767 1220.07 131 1213 111.767 1255 92.0001 1213Z" fill-rule="evenodd"/><path d="M587.5 1992.5 587.5 2078.5" stroke="#000000" stroke-width="4.87385" stroke-linecap="square" stroke-miterlimit="8" fill="none" fill-rule="evenodd"/><path d="M586.274 2060.89 606 2054 586.274 2095 566 2054Z" fill-rule="evenodd"/><path d="M587.5 2200.5 587.5 2286.5" stroke="#000000" stroke-width="4.87385" stroke-linecap="square" stroke-miterlimit="8" fill="none" fill-rule="evenodd"/><path d="M586.274 2268.07 606 2261 586.274 2303 566 2261Z" fill-rule="evenodd"/><path d="M587.5 2420.5 587.5 2528.5" stroke="#000000" stroke-width="4.87385" stroke-linecap="square" stroke-miterlimit="8" fill="none" fill-rule="evenodd"/><path d="M586.274 2510.89 606 2504 586.274 2545 566 2504Z" fill-rule="evenodd"/><path d="M912 2488 385.674 2488C370.39 2488 358 2475.63 358 2460.38L358.223 2404" stroke="#000000" stroke-width="1.70594" stroke-miterlimit="8" fill="none" fill-rule="evenodd"/><path d="M843 2487.3 800 2476 800 2498Z" fill-rule="evenodd"/><path d="M0 0 514 0" stroke="#000000" stroke-width="1.70594" stroke-miterlimit="8" fill="none" fill-rule="evenodd" transform="matrix(1 0 0 -1 670 2597)"/><path d="M843 2597.3 800 2586 800 2608Z" fill-rule="evenodd"/><path d="M463.5 2628.5 463.5 2735.5" stroke="#000000" stroke-width="4.87385" stroke-linecap="square" stroke-miterlimit="8" fill="none" fill-rule="evenodd"/><path d="M462.767 2718.06 482 2711 462.767 2753 443 2711Z" fill-rule="evenodd"/><path d="M677.303 2753C692.599 2753 705 2765.35 705 2780.6L705 2794.4C705 2809.63 692.599 2822 677.303 2822L245.697 2822C230.4 2822 218 2809.63 218 2794.4L218 2780.6C218 2765.35 230.4 2753 245.697 2753L677.303 2753Z" stroke="#000000" stroke-width="1.70594" stroke-miterlimit="8" fill="#FFFFFF" fill-rule="evenodd"/><text font-family="Arial,Arial_MSFontService,sans-serif" font-weight="400" font-size="35" transform="matrix(1 0 0 1 229.673 2804)">NORMAAL EINDE CYCLUS</text><path d="M677.303 1888C692.603 1888 705 1900.42 705 1915.73L705 1964.27C705 1979.58 692.603 1992 677.303 1992L245.697 1992C230.397 1992 218 1979.58 218 1964.27L218 1915.73C218 1900.42 230.397 1888 245.697 1888L677.303 1888Z" stroke="#000000" stroke-width="1.70594" stroke-miterlimit="8" fill="#FFFFFF" fill-rule="evenodd"/><text font-family="Arial,Arial_MSFontService,sans-serif" font-weight="400" font-size="35" transform="matrix(1 0 0 1 241.888 1935)">Wijzigt een van de sleutel</text><text font-family="Arial,Arial_MSFontService,sans-serif" font-weight="400" font-size="35" transform="matrix(1 0 0 1 641.211 1935)">-</text><text font-family="Arial,Arial_MSFontService,sans-serif" font-weight="400" font-size="35" transform="matrix(1 0 0 1 241.888 1970)">rubrieken (35.95.42)?</text><path d="M655.146 1982C662.799 1982 669 1988.23 669 1995.92L669 2003.08C669 2010.77 662.799 2017 655.146 2017L527.855 2017C520.203 2017 514 2010.77 514 2003.08L514 1995.92C514 1988.23 520.203 1982 527.855 1982L655.146 1982Z" stroke="#000000" stroke-width="1.70594" stroke-miterlimit="8" fill="#FFFFFF" fill-rule="evenodd"/><text font-family="Arial,Arial_MSFontService,sans-serif" font-weight="400" font-size="23" transform="matrix(1 0 0 1 577.659 2009)">Ja</text><path d="M677.303 2095C692.603 2095 705 2107.42 705 2122.73L705 2171.27C705 2186.59 692.603 2199 677.303 2199L245.697 2199C230.397 2199 218 2186.59 218 2171.27L218 2122.73C218 2107.42 230.397 2095 245.697 2095L677.303 2095Z" stroke="#000000" stroke-width="1.70594" stroke-miterlimit="8" fill="#FFFFFF" fill-rule="evenodd"/><text font-family="Arial,Arial_MSFontService,sans-serif" font-weight="400" font-size="35" transform="matrix(1 0 0 1 241.888 2143)">Voldoet PL aan voorwaarde</text><text font-family="Arial,Arial_MSFontService,sans-serif" font-weight="400" font-size="35" transform="matrix(1 0 0 1 674.44 2143)">-</text><text font-family="Arial,Arial_MSFontService,sans-serif" font-weight="400" font-size="35" transform="matrix(1 0 0 1 241.888 2177)">regel (35.95.41)?</text><path d="M655.146 2190C662.799 2190 669 2196.24 669 2203.92L669 2211.08C669 2218.78 662.799 2225 655.146 2225L527.855 2225C520.203 2225 514 2218.78 514 2211.08L514 2203.92C514 2196.24 520.203 2190 527.855 2190L655.146 2190Z" stroke="#000000" stroke-width="1.70594" stroke-miterlimit="8" fill="#FFFFFF" fill-rule="evenodd"/><text font-family="Arial,Arial_MSFontService,sans-serif" font-weight="400" font-size="23" transform="matrix(1 0 0 1 577.659 2216)">Ja</text><path d="M677.303 2303C692.603 2303 705 2315.29 705 2330.47L705 2378.54C705 2393.71 692.603 2406 677.303 2406L245.697 2406C230.397 2406 218 2393.71 218 2378.54L218 2330.47C218 2315.29 230.397 2303 245.697 2303L677.303 2303Z" stroke="#000000" stroke-width="1.70594" stroke-miterlimit="8" fill="#FFFFFF" fill-rule="evenodd"/><text font-family="Arial,Arial_MSFontService,sans-serif" font-weight="400" font-size="35" transform="matrix(1 0 0 1 241.888 2350)">Afnemer geautoriseerd voor</text><text font-family="Arial,Arial_MSFontService,sans-serif" font-weight="400" font-size="35" transform="matrix(1 0 0 1 241.888 2385)">sleutelplaatsing (35.95.43)?</text><path d="M655.146 2397C662.799 2397 669 2403.24 669 2410.92L669 2418.08C669 2425.78 662.799 2432 655.146 2432L527.855 2432C520.203 2432 514 2425.78 514 2418.08L514 2410.92C514 2403.24 520.203 2397 527.855 2397L655.146 2397Z" stroke="#000000" stroke-width="1.70594" stroke-miterlimit="8" fill="#FFFFFF" fill-rule="evenodd"/><text font-family="Arial,Arial_MSFontService,sans-serif" font-weight="400" font-size="23" transform="matrix(1 0 0 1 577.659 2424)">Ja</text><path d="M673.435 1679C690.87 1679 705 1691.42 705 1706.73L705 1755.27C705 1770.58 690.872 1783 673.435 1783L181.565 1783C164.13 1783 150 1770.58 150 1755.27L150 1706.73C150 1691.42 164.128 1679 181.565 1679L673.435 1679Z" stroke="#000000" stroke-width="1.70594" stroke-miterlimit="8" fill="#FFFFFF" fill-rule="evenodd"/><text font-family="Arial,Arial_MSFontService,sans-serif" font-weight="400" font-size="35" transform="matrix(1 0 0 1 178.424 1726)">Staat indicatie geheim aan op</text><text font-family="Arial,Arial_MSFontService,sans-serif" font-weight="400" font-size="35" transform="matrix(1 0 0 1 178.424 1761)">PL en in autorisatietabelregel?</text><path d="M655.146 1774C662.799 1774 669 1780.05 669 1787.52L669 1794.48C669 1801.95 662.799 1808 655.146 1808L527.855 1808C520.203 1808 514 1801.95 514 1794.48L514 1787.52C514 1780.05 520.203 1774 527.855 1774L655.146 1774Z" stroke="#000000" stroke-width="1.70594" stroke-miterlimit="8" fill="#FFFFFF" fill-rule="evenodd"/><text font-family="Arial,Arial_MSFontService,sans-serif" font-weight="400" font-size="23" transform="matrix(1 0 0 1 568.024 1800)">Nee</text><path d="M677.303 815C692.603 815 705 827.417 705 842.733L705 891.267C705 906.584 692.603 919 677.303 919L245.697 919C230.397 919 218 906.584 218 891.267L218 842.733C218 827.417 230.397 815 245.697 815L677.303 815Z" stroke="#000000" stroke-width="1.70594" stroke-miterlimit="8" fill="#FFFFFF" fill-rule="evenodd"/><text font-family="Arial,Arial_MSFontService,sans-serif" font-weight="400" font-size="35" transform="matrix(1 0 0 1 241.888 863)">Wijzigt een van de spontane</text><text font-family="Arial,Arial_MSFontService,sans-serif" font-weight="400" font-size="35" transform="matrix(1 0 0 1 241.888 897)">rubrieken (35.95.40)?</text><path d="M655.146 910C662.799 910 669 916.227 669 923.917L669 931.084C669 938.772 662.799 945 655.146 945L527.855 945C520.203 945 514 938.769 514 931.084L514 923.917C514 916.227 520.203 910 527.855 910L655.146 910Z" stroke="#000000" stroke-width="1.70594" stroke-miterlimit="8" fill="#FFFFFF" fill-rule="evenodd"/><text font-family="Arial,Arial_MSFontService,sans-serif" font-weight="400" font-size="23" transform="matrix(1 0 0 1 577.659 936)">Ja</text><path d="M677.303 608C692.603 608 705 620.417 705 635.733L705 684.268C705 699.584 692.603 712 677.303 712L245.697 712C230.397 712 218 699.584 218 684.268L218 635.733C218 620.417 230.397 608 245.697 608L677.303 608Z" stroke="#000000" stroke-width="1.70594" stroke-miterlimit="8" fill="#FFFFFF" fill-rule="evenodd"/><text font-family="Arial,Arial_MSFontService,sans-serif" font-weight="400" font-size="35" transform="matrix(1 0 0 1 241.888 655)">Is de PL afgevoerd of</text><text font-family="Arial,Arial_MSFontService,sans-serif" font-weight="400" font-size="35" transform="matrix(1 0 0 1 241.888 690)">geactualiseerd?</text><path d="M394.14 702C401.795 702 408 708.051 408 715.519L408 722.481C408 729.949 401.795 736 394.14 736L266.854 736C259.202 736 253 729.949 253 722.481L253 715.519C253 708.051 259.202 702 266.854 702L394.14 702Z" stroke="#000000" stroke-width="1.70594" stroke-miterlimit="8" fill="#FFFFFF" fill-rule="evenodd"/><text font-family="Arial,Arial_MSFontService,sans-serif" font-weight="400" font-size="23" transform="matrix(1 0 0 1 274.229 729)">Afgevoerd</text><path d="M667.465 702C676.601 702 684 708.227 684 715.916L684 723.084C684 730.772 676.601 737 667.465 737L515.535 737C506.4 737 499 730.77 499 723.084L499 715.916C499 708.227 506.4 702 515.535 702L667.465 702Z" stroke="#000000" stroke-width="1.70594" stroke-miterlimit="8" fill="#FFFFFF" fill-rule="evenodd"/><text font-family="Arial,Arial_MSFontService,sans-serif" font-weight="400" font-size="23" transform="matrix(1 0 0 1 505.041 729)">Geactualiseerd</text><path d="M366.5 737.5C366.5 741.366 363.142 744.5 359 744.5 354.858 744.5 351.5 741.366 351.5 737.5 351.5 733.634 354.858 730.5 359 730.5 363.142 730.5 366.5 733.634 366.5 737.5Z" stroke="#000000" stroke-width="1.21837" stroke-linecap="square" stroke-miterlimit="8" fill="#FFFFFF" fill-rule="evenodd"/><path d="M27.0002 520 193 520 193 400.194 170.614 401.109C170.614 388 162.992 388 162.992 388L147.752 388C147.752 388 140.131 388.611 140.131 401.109L27.0002 401.109 27.0002 520Z" stroke="#000000" stroke-width="2.43675" stroke-linecap="square" stroke-miterlimit="8" fill="#FFFFFF" fill-rule="evenodd"/><text font-family="Arial,Arial_MSFontService,sans-serif" font-weight="400" font-size="29" transform="matrix(1 0 0 1 52.2269 456)">Melding</text><text font-family="Arial,Arial_MSFontService,sans-serif" font-weight="400" font-size="29" transform="matrix(1 0 0 1 36.6894 490)">procedure</text><path d="M1538.5 2628.5 1538.5 2735.5" stroke="#000000" stroke-width="4.87385" stroke-linecap="square" stroke-miterlimit="8" fill="none" fill-rule="evenodd"/><path d="M1536.77 2718.06 1556 2711 1536.77 2753 1517 2711Z" fill-rule="evenodd"/><path d="M1751.36 2753C1766.62 2753 1779 2765.35 1779 2780.6L1779 2794.4C1779 2809.63 1766.62 2822 1751.36 2822L1320.64 2822C1305.37 2822 1293 2809.63 1293 2794.4L1293 2780.6C1293 2765.35 1305.37 2753 1320.64 2753L1751.36 2753Z" stroke="#000000" stroke-width="1.70594" stroke-miterlimit="8" fill="#FFFFFF" fill-rule="evenodd"/><text font-family="Arial,Arial_MSFontService,sans-serif" font-weight="400" font-size="35" transform="matrix(1 0 0 1 1304.28 2804)">NORMAAL EINDE CYCLUS</text><path d="M1276 2597.3 1233 2586 1233 2608Z" fill-rule="evenodd"/><path d="M1153 2504C1153 2488.53 1144.35 2476 1129.22 2476L1070 2476" stroke="#000000" stroke-width="1.70594" stroke-miterlimit="8" fill="none" fill-rule="evenodd"/><path d="M1157 1343C1157 1327.54 1147.04 1315 1131.74 1315L1067 1315" stroke="#000000" stroke-width="1.70594" stroke-miterlimit="8" fill="none" fill-rule="evenodd"/><path d="M1157 1205C1157 1189.53 1144.59 1177 1129.28 1177L1068 1177.22" stroke="#000000" stroke-width="1.70594" stroke-miterlimit="8" fill="none" fill-rule="evenodd"/><path d="M1157 1476C1157 1461.09 1144.59 1449 1129.28 1449L1068 1449.22" stroke="#000000" stroke-width="1.70594" stroke-miterlimit="8" fill="none" fill-rule="evenodd"/><path d="M1293 2596.77 1184.6 2597C1169.31 2597 1156.92 2584.6 1156.92 2569.33L1157.04 2537.87C1157.15 2482.11 1157.25 2426.35 1157.36 2370.59 1157.34 2086.08 1157.01 812.654 1156.08 796.417 1156.01 776.742 1146.54 755.984 1128.58 756.017 1102.12 754.937 1109.18 754.717 1081 755.356" stroke="#000000" stroke-width="1.70594" stroke-miterlimit="8" fill="none" fill-rule="evenodd"/><path d="M875.5 2562.5 1085.5 2562.5 1085.5 2667.5 875.5 2667.5Z" stroke="#000000" stroke-width="4.87385" stroke-miterlimit="8" fill="#FFFFFF" fill-rule="evenodd"/><text font-family="Arial,Arial_MSFontService,sans-serif" font-weight="400" font-size="29" transform="matrix(1 0 0 1 944.837 2602)">Ag11</text><text font-family="Arial,Arial_MSFontService,sans-serif" font-weight="400" font-size="29" transform="matrix(1 0 0 1 922.387 2651)">A/E/M/O</text><path d="M875 2562.35 924.908 2612 1034.74 2612 1085 2562" stroke="#000000" stroke-width="1.70594" stroke-miterlimit="8" fill="none" fill-rule="evenodd"/><path d="M875.5 2424.5 1085.5 2424.5 1085.5 2529.5 875.5 2529.5Z" stroke="#000000" stroke-width="4.87385" stroke-miterlimit="8" fill="#FFFFFF" fill-rule="evenodd"/><text font-family="Arial,Arial_MSFontService,sans-serif" font-weight="400" font-size="29" transform="matrix(1 0 0 1 944.837 2464)">Ag21</text><text font-family="Arial,Arial_MSFontService,sans-serif" font-weight="400" font-size="29" transform="matrix(1 0 0 1 922.387 2512)">A/E/M/O</text><path d="M875 2424.35 924.908 2474 1034.74 2474 1085 2424" stroke="#000000" stroke-width="1.70594" stroke-miterlimit="8" fill="none" fill-rule="evenodd"/><path d="M284.222 1118 284 1186.35C284 1201.64 296.381 1214.03 311.653 1214.03L739.092 1214.03C756.536 1214.03 773.914 1232.71 773.914 1248.89 773.914 1265.06 773.611 1266.89 773.609 1284.59 773.609 1307.78 788.244 1317.54 808.213 1318 822.847 1318 898 1318 898 1318" stroke="#000000" stroke-width="1.70594" stroke-miterlimit="8" fill="none" fill-rule="evenodd"/><path d="M853 1317.3 809 1306 809 1328Z" fill-rule="evenodd"/><path d="M853 1179.3 809 1168 809 1190Z" fill-rule="evenodd"/><path d="M875.5 1399.5 1085.5 1399.5 1085.5 1504.5 875.5 1504.5Z" stroke="#000000" stroke-width="4.87385" stroke-miterlimit="8" fill="#FFFFFF" fill-rule="evenodd"/><text font-family="Arial,Arial_MSFontService,sans-serif" font-weight="400" font-size="29" transform="matrix(1 0 0 1 944.037 1438)">Gv01</text><path d="M875 1398.36 924.908 1449 1034.74 1449 1085 1398" stroke="#000000" stroke-width="1.70594" stroke-miterlimit="8" fill="none" fill-rule="evenodd"/><path d="M875.5 1265.5 1085.5 1265.5 1085.5 1370.5 875.5 1370.5Z" stroke="#000000" stroke-width="4.87385" stroke-miterlimit="8" fill="#FFFFFF" fill-rule="evenodd"/><text font-family="Arial,Arial_MSFontService,sans-serif" font-weight="400" font-size="29" transform="matrix(1 0 0 1 940.783 1305)">Wa11</text><path d="M875 1265.35 924.908 1315 1034.74 1315 1085 1265" stroke="#000000" stroke-width="1.70594" stroke-miterlimit="8" fill="none" fill-rule="evenodd"/><path d="M875.5 1127.5 1085.5 1127.5 1085.5 1232.5 875.5 1232.5Z" stroke="#000000" stroke-width="4.87385" stroke-miterlimit="8" fill="#FFFFFF" fill-rule="evenodd"/><text font-family="Arial,Arial_MSFontService,sans-serif" font-weight="400" font-size="29" transform="matrix(1 0 0 1 944.037 1166)">Gv02</text><path d="M875 1127.35 924.908 1177 1034.74 1177 1085 1127" stroke="#000000" stroke-width="1.70594" stroke-miterlimit="8" fill="none" fill-rule="evenodd"/><path d="M875.5 712.5 1085.5 712.5 1085.5 817.5 875.5 817.5Z" stroke="#000000" stroke-width="4.87385" stroke-miterlimit="8" fill="#FFFFFF" fill-rule="evenodd"/><text font-family="Arial,Arial_MSFontService,sans-serif" font-weight="400" font-size="29" transform="matrix(1 0 0 1 944.029 752)">Ng01</text><path d="M875 712.352 924.908 762 1034.74 762 1085 712" stroke="#000000" stroke-width="1.70594" stroke-miterlimit="8" fill="none" fill-rule="evenodd"/><path d="M677.303 2545C692.603 2545 705 2557.41 705 2572.73L705 2621.25C705 2636.58 692.603 2649 677.303 2649L245.697 2649C230.397 2649 218 2636.58 218 2621.25L218 2572.73C218 2557.41 230.397 2545 245.697 2545L677.303 2545Z" stroke="#000000" stroke-width="1.70594" stroke-miterlimit="8" fill="#FFFFFF" fill-rule="evenodd"/><text font-family="Arial,Arial_MSFontService,sans-serif" font-weight="400" font-size="35" transform="matrix(1 0 0 1 241.888 2592)">Plaats afnemersindicatie en</text><text font-family="Arial,Arial_MSFontService,sans-serif" font-weight="400" font-size="35" transform="matrix(1 0 0 1 241.888 2627)">verzend vulbericht</text><path d="M712.5 2597.5C712.5 2601.37 709.142 2604.5 705 2604.5 700.858 2604.5 697.5 2601.37 697.5 2597.5 697.5 2593.63 700.858 2590.5 705 2590.5 709.142 2590.5 712.5 2593.63 712.5 2597.5Z" stroke="#000000" stroke-width="1.21837" stroke-linecap="square" stroke-miterlimit="8" fill="#FFFFFF" fill-rule="evenodd"/><path d="M1751.36 2545C1766.63 2545 1779 2557.41 1779 2572.73L1779 2621.25C1779 2636.58 1766.63 2649 1751.36 2649L1320.64 2649C1305.37 2649 1293 2636.58 1293 2621.25L1293 2572.73C1293 2557.41 1305.37 2545 1320.64 2545L1751.36 2545Z" stroke="#000000" stroke-width="1.70594" stroke-miterlimit="8" fill="#FFFFFF" fill-rule="evenodd"/><text font-family="Arial,Arial_MSFontService,sans-serif" font-weight="400" font-size="35" transform="matrix(1 0 0 1 1316.5 2592)">Verwerk spontane</text><text font-family="Arial,Arial_MSFontService,sans-serif" font-weight="400" font-size="35" transform="matrix(1 0 0 1 1316.5 2627)">gegevensverstrekking</text><path d="M1300.5 2597.5C1300.5 2601.37 1297.14 2604.5 1293 2604.5 1288.86 2604.5 1285.5 2601.37 1285.5 2597.5 1285.5 2593.63 1288.86 2590.5 1293 2590.5 1297.14 2590.5 1300.5 2593.63 1300.5 2597.5Z" stroke="#000000" stroke-width="1.21837" stroke-linecap="square" stroke-miterlimit="8" fill="#FFFFFF" fill-rule="evenodd"/><path d="M60.5 2461.5C60.5 2461.5 248.706 2461.5 269.097 2461.5 287.422 2461.5 297.5 2446.85 297.5 2432.5" stroke="#000000" stroke-width="4.87385" stroke-miterlimit="8" fill="none" fill-rule="evenodd"/><path d="M394.14 2396C401.795 2396 408 2402.24 408 2409.92L408 2417.08C408 2424.76 401.795 2431 394.14 2431L266.854 2431C259.202 2431 253 2424.76 253 2417.08L253 2409.92C253 2402.24 259.202 2396 266.854 2396L394.14 2396Z" stroke="#000000" stroke-width="1.70594" stroke-miterlimit="8" fill="#FFFFFF" fill-rule="evenodd"/><text font-family="Arial,Arial_MSFontService,sans-serif" font-weight="400" font-size="23" transform="matrix(1 0 0 1 308.255 2424)">Nee</text><path d="M366.5 2431.5C366.5 2435.37 363.142 2438.5 359 2438.5 354.858 2438.5 351.5 2435.37 351.5 2431.5 351.5 2427.63 354.858 2424.5 359 2424.5 363.142 2424.5 366.5 2427.63 366.5 2431.5Z" stroke="#000000" stroke-width="1.21837" stroke-linecap="square" stroke-miterlimit="8" fill="#FFFFFF" fill-rule="evenodd"/><path d="M61.5 2256.5C61.5 2256.5 277.817 2256.5 298.209 2256.5 316.535 2256.5 331.5 2236.36 331.5 2221.5" stroke="#000000" stroke-width="4.87385" stroke-miterlimit="8" fill="none" fill-rule="evenodd"/><path d="M394.14 2189C401.795 2189 408 2195.24 408 2202.92L408 2210.08C408 2217.76 401.795 2224 394.14 2224L266.854 2224C259.202 2224 253 2217.76 253 2210.08L253 2202.92C253 2195.24 259.202 2189 266.854 2189L394.14 2189Z" stroke="#000000" stroke-width="1.70594" stroke-miterlimit="8" fill="#FFFFFF" fill-rule="evenodd"/><text font-family="Arial,Arial_MSFontService,sans-serif" font-weight="400" font-size="23" transform="matrix(1 0 0 1 308.255 2216)">Nee</text><path d="M61.5 2048.5C61.5 2048.5 277.817 2048.5 298.209 2048.5 316.535 2048.5 331.5 2028.94 331.5 2014.5" stroke="#000000" stroke-width="4.87385" stroke-miterlimit="8" fill="none" fill-rule="evenodd"/><path d="M394.14 1982C401.795 1982 408 1988.05 408 1995.52L408 2002.48C408 2009.95 401.795 2016 394.14 2016L266.854 2016C259.202 2016 253 2009.95 253 2002.48L253 1995.52C253 1988.05 259.202 1982 266.854 1982L394.14 1982Z" stroke="#000000" stroke-width="1.70594" stroke-miterlimit="8" fill="#FFFFFF" fill-rule="evenodd"/><text font-family="Arial,Arial_MSFontService,sans-serif" font-weight="400" font-size="23" transform="matrix(1 0 0 1 308.255 2009)">Nee</text><path d="M586.767 1851.89 606 1845 586.767 1886 567 1845Z" fill-rule="evenodd"/><path d="M61.5 1837.5C61.5 1837.5 277.817 1837.5 298.209 1837.5 316.535 1837.5 331.5 1817.94 331.5 1803.5" stroke="#000000" stroke-width="4.87385" stroke-miterlimit="8" fill="none" fill-rule="evenodd"/><path d="M394.14 1773C401.795 1773 408 1779.23 408 1786.92L408 1794.08C408 1801.77 401.795 1808 394.14 1808L266.854 1808C259.202 1808 253 1801.77 253 1794.08L253 1786.92C253 1779.23 259.202 1773 266.854 1773L394.14 1773Z" stroke="#000000" stroke-width="1.70594" stroke-miterlimit="8" fill="#FFFFFF" fill-rule="evenodd"/><text font-family="Arial,Arial_MSFontService,sans-serif" font-weight="400" font-size="23" transform="matrix(1 0 0 1 317.726 1800)">Ja</text><path d="M174.5 1150.5C193.25 1150.5 207.501 1129.31 207.501 1114.5" stroke="#000000" stroke-width="4.87385" stroke-miterlimit="8" fill="none" fill-rule="evenodd"/><path d="M346.5 1151.5C352.833 1151.5 358.96 1148.35 364.039 1144.78 373.885 1137.86 380.5 1126.06 380.5 1116.5" stroke="#000000" stroke-width="4.87385" stroke-miterlimit="8" fill="none" fill-rule="evenodd"/><path d="M310.14 1083C317.796 1083 324 1089.23 324 1096.91L324 1104.09C324 1111.77 317.796 1118 310.14 1118L182.854 1118C175.203 1118 169 1111.77 169 1104.09L169 1096.91C169 1089.23 175.203 1083 182.854 1083L310.14 1083Z" stroke="#000000" stroke-width="1.70594" stroke-miterlimit="8" fill="#FFFFFF" fill-rule="evenodd"/><text font-family="Arial,Arial_MSFontService,sans-serif" font-weight="400" font-size="23" transform="matrix(1 0 0 1 188.174 1110)">A</text><text font-family="Arial,Arial_MSFontService,sans-serif" font-weight="400" font-size="23" transform="matrix(1 0 0 1 203.643 1110)">-</text><text font-family="Arial,Arial_MSFontService,sans-serif" font-weight="400" font-size="23" transform="matrix(1 0 0 1 211.664 1110)">nummer</text><path d="M483.146 1083C490.798 1083 497 1089.23 497 1096.91L497 1104.09C497 1111.77 490.798 1118 483.146 1118L355.855 1118C348.205 1118 342 1111.77 342 1104.09L342 1096.91C342 1089.23 348.205 1083 355.855 1083L483.146 1083Z" stroke="#000000" stroke-width="1.70594" stroke-miterlimit="8" fill="#FFFFFF" fill-rule="evenodd"/><text font-family="Arial,Arial_MSFontService,sans-serif" font-weight="400" font-size="23" transform="matrix(1 0 0 1 359.86 1110)">Infrastruct.</text><path d="M461.5 1118C461.5 1122.14 458.142 1125.5 454 1125.5 449.858 1125.5 446.5 1122.14 446.5 1118 446.5 1113.86 449.858 1110.5 454 1110.5 458.142 1110.5 461.5 1113.86 461.5 1118Z" stroke="#000000" stroke-width="1.21837" stroke-linecap="square" stroke-miterlimit="8" fill="#FFFFFF" fill-rule="evenodd"/><path d="M292.5 1118C292.5 1122.14 289.142 1125.5 285 1125.5 280.858 1125.5 277.5 1122.14 277.5 1118 277.5 1113.86 280.858 1110.5 285 1110.5 289.142 1110.5 292.5 1113.86 292.5 1118Z" stroke="#000000" stroke-width="1.21837" stroke-linecap="square" stroke-miterlimit="8" fill="#FFFFFF" fill-rule="evenodd"/><path d="M61.5 974.5C61.5 974.5 277.817 974.5 298.209 974.5 316.535 974.5 331.5 954.943 331.5 940.5" stroke="#000000" stroke-width="4.87385" stroke-miterlimit="8" fill="none" fill-rule="evenodd"/><path d="M394.14 909C401.795 909 408 915.229 408 922.917L408 930.084C408 937.769 401.795 944 394.14 944L266.854 944C259.202 944 253 937.772 253 930.084L253 922.917C253 915.231 259.202 909 266.854 909L394.14 909Z" stroke="#000000" stroke-width="1.70594" stroke-miterlimit="8" fill="#FFFFFF" fill-rule="evenodd"/><text font-family="Arial,Arial_MSFontService,sans-serif" font-weight="400" font-size="23" transform="matrix(1 0 0 1 308.255 936)">Nee</text><path d="M1157 1612C1157 1596.54 1144.59 1584 1129.28 1584L1068 1584.23" stroke="#000000" stroke-width="1.70594" stroke-miterlimit="8" fill="none" fill-rule="evenodd"/><path d="M875.5 1534.5 1085.5 1534.5 1085.5 1639.5 875.5 1639.5Z" stroke="#000000" stroke-width="4.87385" stroke-miterlimit="8" fill="#FFFFFF" fill-rule="evenodd"/><text font-family="Arial,Arial_MSFontService,sans-serif" font-weight="400" font-size="29" transform="matrix(1 0 0 1 944.837 1574)">Ag31</text><path d="M875 1534.35 924.909 1584 1034.74 1584 1085 1534" stroke="#000000" stroke-width="1.70594" stroke-miterlimit="8" fill="none" fill-rule="evenodd"/><path d="M344.5 1151.5 61.5 1151.5" stroke="#000000" stroke-width="4.87385" stroke-linecap="square" stroke-miterlimit="8" fill="none" fill-rule="evenodd"/><path d="M675.326 1275C690.61 1275 703 1292.55 703 1314.2L703 1333.8C703 1355.45 690.61 1373 675.326 1373L166.674 1373C151.39 1373 139 1355.45 139 1333.8L139 1314.2C139 1292.55 151.39 1275 166.674 1275L675.326 1275Z" stroke="#000000" stroke-width="1.70594" stroke-miterlimit="8" fill="#FFFFFF" fill-rule="evenodd"/><text font-family="Arial,Arial_MSFontService,sans-serif" font-weight="400" font-size="35" transform="matrix(1 0 0 1 167.877 1320)">Is de wijziging onduidelijk of</text><text font-family="Arial,Arial_MSFontService,sans-serif" font-weight="400" font-size="35" transform="matrix(1 0 0 1 167.877 1355)">correctie in historie?</text><path d="M172.5 1432.5C191.25 1432.5 205.5 1411.9 205.5 1397.5" stroke="#000000" stroke-width="4.87385" stroke-miterlimit="8" fill="none" fill-rule="evenodd"/><path d="M524.5 1432.5C530.647 1432.5 536.594 1429.35 541.523 1425.78 551.079 1418.86 557.5 1407.06 557.5 1397.5" stroke="#000000" stroke-width="4.87385" stroke-miterlimit="8" fill="none" fill-rule="evenodd"/><path d="M524.5 1432.5 59.5 1432.5" stroke="#000000" stroke-width="4.87385" stroke-linecap="square" stroke-miterlimit="8" fill="none" fill-rule="evenodd"/><path d="M309.14 1365C316.795 1365 323 1371.23 323 1378.91L323 1386.09C323 1393.77 316.795 1400 309.14 1400L181.858 1400C174.205 1400 168 1393.77 168 1386.09L168 1378.91C168 1371.23 174.203 1365 181.858 1365L309.14 1365Z" stroke="#000000" stroke-width="1.70594" stroke-miterlimit="8" fill="#FFFFFF" fill-rule="evenodd"/><text font-family="Arial,Arial_MSFontService,sans-serif" font-weight="400" font-size="23" transform="matrix(1 0 0 1 231.626 1391)">Ja</text><path d="M876 1453.94 660.661 1455C645.384 1455 633 1442.64 633 1427.39L633.222 1371" stroke="#000000" stroke-width="1.70594" stroke-miterlimit="8" fill="none" fill-rule="evenodd"/><path d="M851 1454.3 808 1443 808 1465Z" fill-rule="evenodd"/><path d="M653.14 1364C660.795 1364 667 1370.23 667 1377.91L667 1385.09C667 1392.77 660.795 1399 653.14 1399L525.858 1399C518.202 1399 512 1392.77 512 1385.09L512 1377.91C512 1370.23 518.202 1364 525.858 1364L653.14 1364Z" stroke="#000000" stroke-width="1.70594" stroke-miterlimit="8" fill="#FFFFFF" fill-rule="evenodd"/><text font-family="Arial,Arial_MSFontService,sans-serif" font-weight="400" font-size="23" transform="matrix(1 0 0 1 567.096 1391)">Nee</text><path d="M641.5 1400.5C641.5 1404.37 638.142 1407.5 634 1407.5 629.858 1407.5 626.5 1404.37 626.5 1400.5 626.5 1396.63 629.858 1393.5 634 1393.5 638.142 1393.5 641.5 1396.63 641.5 1400.5Z" stroke="#000000" stroke-width="1.21837" stroke-linecap="square" stroke-miterlimit="8" fill="#FFFFFF" fill-rule="evenodd"/><path d="M876 1584 311.654 1584C296.381 1584 284 1571.6 284 1556.3L284.222 1399" stroke="#000000" stroke-width="1.70594" stroke-miterlimit="8" fill="none" fill-rule="evenodd"/><path d="M290.5 1399.5C290.5 1403.37 287.142 1406.5 283 1406.5 278.858 1406.5 275.5 1403.37 275.5 1399.5 275.5 1395.63 278.858 1392.5 283 1392.5 287.142 1392.5 290.5 1395.63 290.5 1399.5Z" stroke="#000000" stroke-width="1.21837" stroke-linecap="square" stroke-miterlimit="8" fill="#FFFFFF" fill-rule="evenodd"/><path d="M852 1583.3 809 1572 809 1594Z" fill-rule="evenodd"/><path d="M587.5 1117.5 587.5 1256.5" stroke="#000000" stroke-width="4.87385" stroke-linecap="square" stroke-miterlimit="8" fill="none" fill-rule="evenodd"/><path d="M586.274 1238.06 606 1231 586.274 1273 566 1231Z" fill-rule="evenodd"/><path d="M655.14 1083C662.795 1083 669 1089.23 669 1096.91L669 1104.09C669 1111.77 662.795 1118 655.14 1118L527.858 1118C520.202 1118 514 1111.77 514 1104.09L514 1096.91C514 1089.23 520.202 1083 527.858 1083L655.14 1083Z" stroke="#000000" stroke-width="1.70594" stroke-miterlimit="8" fill="#FFFFFF" fill-rule="evenodd"/><text font-family="Arial,Arial_MSFontService,sans-serif" font-weight="400" font-size="23" transform="matrix(1 0 0 1 554.98 1110)">Overig</text></g></svg>