<svg width="1949" height="1132" xmlns="http://www.w3.org/2000/svg" xmlns:xlink="http://www.w3.org/1999/xlink" xml:space="preserve" overflow="hidden"><g transform="matrix(1 0 0 1 0 -863)"><path d="M1.00003 865 766 865 766 1994 1.00003 1994Z" stroke="#000000" stroke-width="1.71785" stroke-miterlimit="8" fill="#E6E6E6" fill-rule="evenodd"/><path d="M1184 864 1948 864 1948 1994 1184 1994Z" stroke="#000000" stroke-width="1.71785" stroke-miterlimit="8" fill="#E6E6E6" fill-rule="evenodd"/><path d="M1253.5 938.566C1253.5 902.5 1287.91 902.5 1287.91 902.5L1845.79 902.5C1845.79 902.5 1880.5 902.192 1880.5 937.333 1880.5 972.474 1844.56 972.476 1844.56 972.476L1287.91 972.476C1287.91 972.474 1253.5 974.633 1253.5 938.566Z" stroke="#000000" stroke-width="1.22703" stroke-miterlimit="8" fill="#FFFFFF" fill-rule="evenodd"/><path d="M48.5 938.566C48.5 902.5 85.2111 902.5 85.2111 902.5L680.46 902.5C680.46 902.5 717.5 902.192 717.5 937.333 717.5 972.474 679.149 972.476 679.149 972.476L85.2111 972.476C85.2111 972.474 48.5 974.633 48.5 938.566Z" stroke="#000000" stroke-width="1.22703" stroke-miterlimit="8" fill="#FFFFFF" fill-rule="evenodd"/><text font-family="Arial,Arial_MSFontService,sans-serif" font-weight="400" font-size="39" transform="matrix(1 0 0 1 1305.97 954)">BRP Verstrekkingen </text><text font-family="Arial,Arial_MSFontService,sans-serif" font-weight="400" font-size="39" transform="matrix(1 0 0 1 1667.46 954)">-</text><text font-family="Arial,Arial_MSFontService,sans-serif" font-weight="400" font-size="39" transform="matrix(1 0 0 1 1691.52 954)">Daft</text><text font-family="Arial,Arial_MSFontService,sans-serif" font-weight="400" font-size="39" transform="matrix(1 0 0 1 70.4047 954)">Gemeente van inschrijving, RNI</text><path d="M311.765 1857.06 331 1850 311.765 1892 292 1850Z" fill-rule="evenodd"/><path d="M668.132 1892C683.522 1892 696 1904.54 696 1920L696 1934C696 1949.46 683.522 1962 668.132 1962L233.868 1962C218.476 1962 206 1949.46 206 1934L206 1920C206 1904.54 218.476 1892 233.868 1892L668.132 1892Z" stroke="#000000" stroke-width="1.71785" stroke-miterlimit="8" fill="#FFFFFF" fill-rule="evenodd"/><text font-family="Arial,Arial_MSFontService,sans-serif" font-weight="400" font-size="35" transform="matrix(1 0 0 1 217.756 1944)">NORMAAL EINDE CYCLUS</text><path d="M1535.5 1766.5 1535.5 1875.5" stroke="#000000" stroke-width="4.90814" stroke-linecap="square" stroke-miterlimit="8" fill="none" fill-rule="evenodd"/><path d="M1534.27 1857.06 1554 1850 1534.27 1892 1514 1850Z" fill-rule="evenodd"/><path d="M1750.13 1892C1765.52 1892 1778 1904.54 1778 1920L1778 1934C1778 1949.46 1765.52 1962 1750.13 1962L1315.87 1962C1300.48 1962 1288 1949.46 1288 1934L1288 1920C1288 1904.54 1300.48 1892 1315.87 1892L1750.13 1892Z" stroke="#000000" stroke-width="1.71785" stroke-miterlimit="8" fill="#FFFFFF" fill-rule="evenodd"/><text font-family="Arial,Arial_MSFontService,sans-serif" font-weight="400" font-size="35" transform="matrix(1 0 0 1 1299.95 1944)">NORMAAL EINDE CYCLUS</text><path d="M1284 1735.82 1240 1724 1240 1747Z" fill-rule="evenodd"/><path d="M1750.13 1683C1765.52 1683 1778 1695.42 1778 1710.73L1778 1759.27C1778 1774.58 1765.52 1787 1750.13 1787L1315.87 1787C1300.48 1787 1288 1774.58 1288 1759.27L1288 1710.73C1288 1695.42 1300.48 1683 1315.87 1683L1750.13 1683Z" stroke="#000000" stroke-width="1.71785" stroke-miterlimit="8" fill="#FFFFFF" fill-rule="evenodd"/><text font-family="Arial,Arial_MSFontService,sans-serif" font-weight="400" font-size="35" transform="matrix(1 0 0 1 1312.26 1730)">Verwerk verstrekte</text><text font-family="Arial,Arial_MSFontService,sans-serif" font-weight="400" font-size="35" transform="matrix(1 0 0 1 1312.26 1765)">gegevens</text><path d="M1296.5 1736C1296.5 1740.14 1293.14 1743.5 1289 1743.5 1284.86 1743.5 1281.5 1740.14 1281.5 1736 1281.5 1731.86 1284.86 1728.5 1289 1728.5 1293.14 1728.5 1296.5 1731.86 1296.5 1736Z" stroke="#000000" stroke-width="1.22703" stroke-linecap="square" stroke-miterlimit="8" fill="#FFFFFF" fill-rule="evenodd"/><path d="M313.5 1144.5 313.5 1867.5" stroke="#000000" stroke-width="4.90814" stroke-linecap="square" stroke-miterlimit="8" fill="none" fill-rule="evenodd"/><path d="M1239 1733 1192.91 1732.97C1164.08 1732.97 1154.69 1721.94 1154.69 1700.76L1154.01 1519.47C1154.01 1504.08 1141.53 1491.61 1126.15 1491.61L646.315 1491.64 600.217 1491.61C571.392 1491.61 562 1480.58 562 1459.4L562 1144" stroke="#000000" stroke-width="1.71785" stroke-miterlimit="8" fill="none" fill-rule="evenodd"/><path d="M868.5 1433.5 1079.5 1433.5 1079.5 1538.5 868.5 1538.5Z" stroke="#000000" stroke-width="4.90814" stroke-miterlimit="8" fill="#FFFFFF" fill-rule="evenodd"/><text font-family="Arial,Arial_MSFontService,sans-serif" font-weight="400" font-size="30" transform="matrix(1 0 0 1 939.606 1473)">Lg01</text><path d="M868 1432.36 918.146 1483 1028.5 1483 1079 1432" stroke="#000000" stroke-width="1.71785" stroke-miterlimit="8" fill="none" fill-rule="evenodd"/><path d="M680.133 1042C695.527 1042 708 1054.42 708 1069.73L708 1118.27C708 1133.59 695.527 1146 680.133 1146L245.867 1146C230.474 1146 218 1133.59 218 1118.27L218 1069.73C218 1054.42 230.474 1042 245.867 1042L680.133 1042Z" stroke="#000000" stroke-width="1.71785" stroke-miterlimit="8" fill="#FFFFFF" fill-rule="evenodd"/><text font-family="Arial,Arial_MSFontService,sans-serif" font-weight="400" font-size="35" transform="matrix(1 0 0 1 241.856 1089)">Verzamel de te verstrekken</text><text font-family="Arial,Arial_MSFontService,sans-serif" font-weight="400" font-size="35" transform="matrix(1 0 0 1 241.856 1124)">gegevens</text><path d="M838 1492.31 794 1481 794 1503Z" fill-rule="evenodd"/><path d="M23 1146 204 1146 204 1041.63 179.59 1042.42C179.59 1031 171.281 1031 171.281 1031L154.66 1031C154.66 1031 146.351 1031.53 146.351 1042.42L23 1042.42 23 1146Z" stroke="#000000" stroke-width="2.45407" stroke-linecap="square" stroke-miterlimit="8" fill="#FFFFFF" fill-rule="evenodd"/><text font-family="Arial,Arial_MSFontService,sans-serif" font-weight="400" font-size="30" transform="matrix(1 0 0 1 33 1097)">PL</text><text font-family="Arial,Arial_MSFontService,sans-serif" font-weight="400" font-size="30" transform="matrix(1 0 0 1 69.0938 1097)">-</text><text font-family="Arial,Arial_MSFontService,sans-serif" font-weight="400" font-size="30" transform="matrix(1 0 0 1 78.8333 1097)">bestand</text><path d="M569.5 1146C569.5 1150.14 566.142 1153.5 562 1153.5 557.858 1153.5 554.5 1150.14 554.5 1146 554.5 1141.86 557.858 1138.5 562 1138.5 566.142 1138.5 569.5 1141.86 569.5 1146Z" stroke="#000000" stroke-width="1.22703" stroke-linecap="square" stroke-miterlimit="8" fill="#FFFFFF" fill-rule="evenodd"/></g></svg>