<svg width="1949" height="978" xmlns="http://www.w3.org/2000/svg" xmlns:xlink="http://www.w3.org/1999/xlink" xml:space="preserve" overflow="hidden"><g transform="matrix(1 0 0 1 0 -940)"><path d="M1.00003 941 765 941 765 1917 1.00003 1917Z" stroke="#000000" stroke-width="1.71785" stroke-miterlimit="8" fill="#E6E6E6" fill-rule="evenodd"/><path d="M1183 941 1948 941 1948 1917 1183 1917Z" stroke="#000000" stroke-width="1.71785" stroke-miterlimit="8" fill="#E6E6E6" fill-rule="evenodd"/><path d="M668.135 1813C683.525 1813 696 1825.36 696 1840.6L696 1854.4C696 1869.64 683.525 1882 668.135 1882L233.866 1882C218.476 1882 206 1869.64 206 1854.4L206 1840.6C206 1825.36 218.476 1813 233.866 1813L668.135 1813Z" stroke="#000000" stroke-width="1.71785" stroke-miterlimit="8" fill="#FFFFFF" fill-rule="evenodd"/><path d="M1750.13 1813C1765.52 1813 1778 1825.36 1778 1840.6L1778 1854.4C1778 1869.65 1765.52 1882 1750.13 1882L1280.87 1882C1265.48 1882 1253 1869.65 1253 1854.4L1253 1840.6C1253 1825.36 1265.48 1813 1280.87 1813L1750.13 1813Z" stroke="#000000" stroke-width="1.71785" stroke-miterlimit="8" fill="#FFFFFF" fill-rule="evenodd"/><text font-family="Arial,Arial_MSFontService,sans-serif" font-weight="400" font-size="35" transform="matrix(1 0 0 1 220.58 1861)">NORMAAL EINDE CYCLUS</text><text font-family="Arial,Arial_MSFontService,sans-serif" font-weight="400" font-size="35" transform="matrix(1 0 0 1 1279.79 1860)">NORMAAL EINDE CYCLUS</text><path d="M1462.5 1499.5 1462.5 1614.5" stroke="#000000" stroke-width="4.90814" stroke-linecap="square" stroke-miterlimit="8" fill="none" fill-rule="evenodd"/><path d="M1462.27 1603.9 1482 1597 1462.27 1638 1442 1597Z" fill-rule="evenodd"/><path d="M487.5 1290.5 486.5 1584.5" stroke="#000000" stroke-width="4.90814" stroke-linecap="square" stroke-miterlimit="8" fill="none" fill-rule="evenodd"/><path d="M486.276 1576.06 506 1569 486.276 1611 466 1569Z" fill-rule="evenodd"/><path d="M1462.5 1680.5 1462.5 1795.5" stroke="#000000" stroke-width="4.90814" stroke-linecap="square" stroke-miterlimit="8" fill="none" fill-rule="evenodd"/><path d="M1462.27 1778.06 1482 1771 1462.27 1813 1442 1771Z" fill-rule="evenodd"/><path d="M1044 1673 1475 1674" stroke="#000000" stroke-width="1.71785" stroke-miterlimit="8" fill="none" fill-rule="evenodd"/><path d="M1113 1673.3 1157 1662 1157 1684Z" fill-rule="evenodd"/><path d="M669 1673 887 1673" stroke="#000000" stroke-width="1.71785" stroke-miterlimit="8" fill="none" fill-rule="evenodd"/><path d="M792 1673.31 835 1662 835 1684Z" fill-rule="evenodd"/><path d="M869.5 1627.5 1081.5 1627.5 1081.5 1733.5 869.5 1733.5Z" stroke="#000000" stroke-width="4.90814" stroke-miterlimit="8" fill="#FFFFFF" fill-rule="evenodd"/><path d="M1081 1627.36 1030.86 1677 920.497 1677 870 1627" stroke="#000000" stroke-width="1.71785" stroke-miterlimit="8" fill="none" fill-rule="evenodd"/><text font-family="Arial,Arial_MSFontService,sans-serif" font-weight="400" font-size="30" transform="matrix(1 0 0 1 949.163 1667)">Null</text><path d="M1746.11 1638C1761.51 1638 1774 1650.54 1774 1666L1774 1680C1774 1695.46 1761.51 1708 1746.11 1708L1280.9 1708C1265.49 1708 1253 1695.46 1253 1680L1253 1666C1253 1650.54 1265.49 1638 1280.9 1638L1746.11 1638Z" stroke="#000000" stroke-width="1.71785" stroke-miterlimit="8" fill="#FFFFFF" fill-rule="evenodd"/><text font-family="Arial,Arial_MSFontService,sans-serif" font-weight="400" font-size="35" transform="matrix(1 0 0 1 1281.91 1686)">Verstuur verwerkbevestiging</text><path d="M1259.5 1674C1259.5 1678.14 1256.37 1681.5 1252.5 1681.5 1248.63 1681.5 1245.5 1678.14 1245.5 1674 1245.5 1669.86 1248.63 1666.5 1252.5 1666.5 1256.37 1666.5 1259.5 1669.86 1259.5 1674Z" stroke="#000000" stroke-width="1.22703" stroke-linecap="square" stroke-miterlimit="8" fill="#FFFFFF" fill-rule="evenodd"/><path d="M703 1269.23 707.655 1269C723.019 1269 735.469 1281.47 735.469 1296.85L735.351 1423.65 735.233 1452.15C735.233 1467.53 747.687 1480 763.047 1480L872 1479.78" stroke="#000000" stroke-width="1.71785" stroke-miterlimit="8" fill="none" fill-rule="evenodd"/><path d="M670.157 1150C685.534 1150 698 1162.46 698 1177.84L698 1296.16C698 1311.54 685.534 1324 670.157 1324L305.844 1324C290.466 1324 278 1311.54 278 1296.16L278 1177.84C278 1162.46 290.466 1150 305.844 1150L670.157 1150Z" stroke="#000000" stroke-width="1.71785" stroke-miterlimit="8" fill="#FFFFFF" fill-rule="evenodd"/><text font-family="Arial,Arial_MSFontService,sans-serif" font-weight="400" font-size="35" transform="matrix(1 0 0 1 306.474 1212)">Bepaal te verstrekken</text><text font-family="Arial,Arial_MSFontService,sans-serif" font-weight="400" font-size="35" transform="matrix(1 0 0 1 306.474 1247)">autorisatietabelregel</text><text font-family="Arial,Arial_MSFontService,sans-serif" font-weight="400" font-size="35" transform="matrix(1 0 0 1 623.87 1247)">-</text><text font-family="Arial,Arial_MSFontService,sans-serif" font-weight="400" font-size="35" transform="matrix(1 0 0 1 306.474 1282)">wijziging</text><path d="M1112.88 1258 1113 1229.68C1113 1214.38 1100.35 1202 1084.73 1202L1080 1202.22" stroke="#000000" stroke-width="1.71785" stroke-miterlimit="8" fill="none" fill-rule="evenodd"/><path d="M1080 1202.22 1084.73 1202C1100.35 1202 1113 1214.47 1113 1229.85L1112.88 1258.35 1112.81 1262.78 1112.88 1457 1113 1369.11C1113 1353.73 1100.35 1341.26 1084.73 1341.26L1080 1341.49" stroke="#000000" stroke-width="1.71785" stroke-miterlimit="8" fill="none" fill-rule="evenodd"/><path d="M698 1202 882 1201" stroke="#000000" stroke-width="1.71785" stroke-miterlimit="8" fill="none" fill-rule="evenodd"/><path d="M703 1234.22 742.425 1234C757.787 1234 770.239 1246.51 770.239 1261.97L770.119 1284.42 769.995 1313.04C769.995 1328.48 782.45 1341 797.81 1341L872 1340.77" stroke="#000000" stroke-width="1.71785" stroke-miterlimit="8" fill="none" fill-rule="evenodd"/><path d="M870.5 1150.5 1081.5 1150.5 1081.5 1256.5 870.5 1256.5Z" stroke="#000000" stroke-width="4.90814" stroke-miterlimit="8" fill="#FFFFFF" fill-rule="evenodd"/><path d="M870 1150.36 920.146 1201 1030.5 1201 1081 1150" stroke="#000000" stroke-width="1.71785" stroke-miterlimit="8" fill="none" fill-rule="evenodd"/><text font-family="Arial,Arial_MSFontService,sans-serif" font-weight="400" font-size="30" transform="matrix(1 0 0 1 943.264 1191)">Ct01</text><path d="M870.5 1290.5 1081.5 1290.5 1081.5 1395.5 870.5 1395.5Z" stroke="#000000" stroke-width="4.90814" stroke-miterlimit="8" fill="#FFFFFF" fill-rule="evenodd"/><path d="M870 1289.36 920.146 1340 1030.5 1340 1081 1289" stroke="#000000" stroke-width="1.71785" stroke-miterlimit="8" fill="none" fill-rule="evenodd"/><text font-family="Arial,Arial_MSFontService,sans-serif" font-weight="400" font-size="30" transform="matrix(1 0 0 1 936.444 1330)">Cw01</text><path d="M839 1200.31 796 1189 796 1211Z" fill-rule="evenodd"/><path d="M839 1340.31 796 1329 796 1351Z" fill-rule="evenodd"/><path d="M839 1479.31 796 1468 796 1490Z" fill-rule="evenodd"/><path d="M1240 1482.31 1196 1471 1196 1493Z" fill-rule="evenodd"/><path d="M705.5 1202C705.5 1206.14 702.142 1209.5 698 1209.5 693.858 1209.5 690.5 1206.14 690.5 1202 690.5 1197.86 693.858 1194.5 698 1194.5 702.142 1194.5 705.5 1197.86 705.5 1202Z" stroke="#000000" stroke-width="1.22703" stroke-linecap="square" stroke-miterlimit="8" fill="#FFFFFF" fill-rule="evenodd"/><path d="M705.5 1235.5C705.5 1239.37 702.142 1242.5 698 1242.5 693.858 1242.5 690.5 1239.37 690.5 1235.5 690.5 1231.63 693.858 1228.5 698 1228.5 702.142 1228.5 705.5 1231.63 705.5 1235.5Z" stroke="#000000" stroke-width="1.22703" stroke-linecap="square" stroke-miterlimit="8" fill="#FFFFFF" fill-rule="evenodd"/><path d="M705.5 1270.5C705.5 1274.37 702.142 1277.5 698 1277.5 693.858 1277.5 690.5 1274.37 690.5 1270.5 690.5 1266.63 693.858 1263.5 698 1263.5 702.142 1263.5 705.5 1266.63 705.5 1270.5Z" stroke="#000000" stroke-width="1.22703" stroke-linecap="square" stroke-miterlimit="8" fill="#FFFFFF" fill-rule="evenodd"/><path d="M1294 1483 1045 1484" stroke="#000000" stroke-width="1.71785" stroke-miterlimit="8" fill="none" fill-rule="evenodd"/><path d="M870.5 1429.5 1081.5 1429.5 1081.5 1535.5 870.5 1535.5Z" stroke="#000000" stroke-width="4.90814" stroke-miterlimit="8" fill="#FFFFFF" fill-rule="evenodd"/><path d="M870 1429.35 920.146 1479 1030.5 1479 1081 1429" stroke="#000000" stroke-width="1.71785" stroke-miterlimit="8" fill="none" fill-rule="evenodd"/><text font-family="Arial,Arial_MSFontService,sans-serif" font-weight="400" font-size="30" transform="matrix(1 0 0 1 938.892 1470)">Cb01</text><path d="M1746.11 1448C1761.51 1448 1774 1460.36 1774 1475.6L1774 1489.4C1774 1504.64 1761.51 1517 1746.11 1517L1280.9 1517C1265.49 1517 1253 1504.64 1253 1489.4L1253 1475.6C1253 1460.36 1265.49 1448 1280.9 1448L1746.11 1448Z" stroke="#000000" stroke-width="1.71785" stroke-miterlimit="8" fill="#FFFFFF" fill-rule="evenodd"/><text font-family="Arial,Arial_MSFontService,sans-serif" font-weight="400" font-size="35" transform="matrix(1 0 0 1 1281.91 1495)">Verwerk wijziging</text><path d="M1113 1452C1113 1467.63 1125.72 1483 1141.07 1483L1250 1482.78" stroke="#000000" stroke-width="1.71785" stroke-miterlimit="8" fill="none" fill-rule="evenodd"/><path d="M1259.5 1483C1259.5 1487.14 1256.37 1490.5 1252.5 1490.5 1248.63 1490.5 1245.5 1487.14 1245.5 1483 1245.5 1478.86 1248.63 1475.5 1252.5 1475.5 1256.37 1475.5 1259.5 1478.86 1259.5 1483Z" stroke="#000000" stroke-width="1.22703" stroke-linecap="square" stroke-miterlimit="8" fill="#FFFFFF" fill-rule="evenodd"/><path d="M104.213 976.5C69.4999 976.5 69.4999 1011.4 69.4999 1011.4L69.4999 1046.6C69.4999 1046.6 69.4999 1081.5 104.213 1081.5 141.774 1081.5 627.38 1081.5 661.787 1081.5 696.5 1081.5 696.5 1046.6 696.5 1046.6L696.434 1011.36C696.434 1011.36 696.5 976.5 661.787 976.5 627.052 976.5 138.927 976.5 104.213 976.5Z" stroke="#000000" stroke-width="1.22703" stroke-miterlimit="8" fill="#FFFFFF" fill-rule="evenodd"/><text font-family="Arial,Arial_MSFontService,sans-serif" font-weight="400" font-size="39" transform="matrix(1 0 0 1 334.532 1042)">RvIG</text><path d="M635.091 1610C650.505 1610 663 1618.24 663 1628.4L663 1683.6C663 1693.76 650.505 1702 635.091 1702L269.91 1702C254.496 1702 242 1693.76 242 1683.6L242 1628.4C242 1618.24 254.496 1610 269.91 1610L635.091 1610Z" stroke="#000000" stroke-width="1.71785" stroke-miterlimit="8" fill="#FFFFFF" fill-rule="evenodd"/><text font-family="Arial,Arial_MSFontService,sans-serif" font-weight="400" font-size="35" transform="matrix(1 0 0 1 262.853 1656)">Wacht op antwoord</text><path d="M484.192 1728 484 1699.77C484 1684.54 503.413 1672.19 527.359 1672.19L571.431 1672 661 1672.22" stroke="#000000" stroke-width="2.29167" stroke-miterlimit="8" stroke-dasharray="12.8906 8.59375" fill="none" fill-rule="evenodd"/><path d="M670.501 1672.5C670.501 1676.37 667.142 1679.5 663 1679.5 658.858 1679.5 655.5 1676.37 655.5 1672.5 655.5 1668.63 658.858 1665.5 663 1665.5 667.142 1665.5 670.501 1668.63 670.501 1672.5Z" stroke="#000000" stroke-width="1.22703" stroke-linecap="square" stroke-miterlimit="8" fill="#FFFFFF" fill-rule="evenodd"/><path d="M483.5 1703.5 483.5 1783.5" stroke="#000000" stroke-width="4.90814" stroke-linecap="square" stroke-miterlimit="8" fill="none" fill-rule="evenodd"/><path d="M546.057 1693C553.755 1693 560 1699.23 560 1706.92L560 1714.08C560 1721.77 553.755 1728 546.057 1728L417.947 1728C410.242 1728 404 1721.77 404 1714.08L404 1706.92C404 1699.23 410.245 1693 417.947 1693L546.057 1693Z" stroke="#000000" stroke-width="1.71785" stroke-miterlimit="8" fill="#FFFFFF" fill-rule="evenodd"/><text font-family="Arial,Arial_MSFontService,sans-serif" font-weight="400" font-size="24" transform="matrix(1 0 0 1 459.49 1720)">Null</text><path d="M481.769 1779.06 501 1772 481.769 1814 462 1772Z" fill-rule="evenodd"/><path d="M1288.27 976.502C1253.5 976.502 1253.5 1011.4 1253.5 1011.4L1253.5 1046.6C1253.5 1046.6 1253.5 1081.5 1288.27 1081.5 1325.89 1081.5 1812.27 1081.5 1846.73 1081.5 1881.5 1081.5 1881.5 1046.6 1881.5 1046.6L1881.43 1011.36C1881.43 1011.36 1881.5 976.5 1846.73 976.5 1811.94 976.502 1323.04 976.502 1288.27 976.502Z" stroke="#000000" stroke-width="1.22703" stroke-miterlimit="8" fill="#FFFFFF" fill-rule="evenodd"/><text font-family="Arial,Arial_MSFontService,sans-serif" font-weight="400" font-size="39" transform="matrix(1 0 0 1 1357.98 1041)">BRP Verstrekkingen</text></g></svg>