<svg width="1948" height="2126" xmlns="http://www.w3.org/2000/svg" xmlns:xlink="http://www.w3.org/1999/xlink" xml:space="preserve" overflow="hidden"><g transform="translate(-1 -371)"><path d="M1183.5 371.5 1948.5 371.5 1948.5 2496.5 1183.5 2496.5Z" stroke="#000000" stroke-width="1.22703" stroke-miterlimit="8" fill="#E6E6E6" fill-rule="evenodd"/><path d="M1.49987 371.5 765.5 371.5 765.5 2496.5 1.49987 2496.5Z" stroke="#000000" stroke-width="1.22703" stroke-miterlimit="8" fill="#E6E6E6" fill-rule="evenodd"/><path d="M1252.5 442.566C1252.5 406.5 1286.91 406.5 1286.91 406.5L1844.79 406.5C1844.79 406.5 1879.5 406.192 1879.5 441.333 1879.5 476.474 1843.56 476.475 1843.56 476.475L1286.91 476.475C1286.91 476.475 1252.5 478.632 1252.5 442.566Z" stroke="#000000" stroke-width="1.22703" stroke-miterlimit="8" fill="#FFFFFF" fill-rule="evenodd"/><text font-family="Arial,Arial_MSFontService,sans-serif" font-weight="400" font-size="39" transform="matrix(1 0 0 1 1279.31 453)">Gemeente van vestiging, RNI</text><path d="M70.5 442.566C70.5 406.5 104.907 406.5 104.907 406.5L662.787 406.5C662.787 406.5 697.5 406.192 697.5 441.333 697.5 476.474 661.558 476.475 661.558 476.475L104.907 476.475C104.907 476.475 70.5 478.632 70.5 442.566Z" stroke="#000000" stroke-width="1.22703" stroke-miterlimit="8" fill="#FFFFFF" fill-rule="evenodd"/><text font-family="Arial,Arial_MSFontService,sans-serif" font-weight="400" font-size="39" transform="matrix(1 0 0 1 118.842 453)">Gemeente van vertrek, RNI</text><path d="M1148.88 1517 1149 1488.68C1149 1473.39 1136.45 1461 1120.98 1461L1072 1461.22" stroke="#000000" stroke-width="1.71785" stroke-miterlimit="8" fill="none" fill-rule="evenodd"/><path d="M1148.88 1273 1149 1244.67C1149 1229.39 1136.5 1217 1121.09 1217L1076 1217.22" stroke="#000000" stroke-width="1.71785" stroke-miterlimit="8" fill="none" fill-rule="evenodd"/><path d="M1148.88 1029 1149 1000.68C1149 985.391 1136.4 973 1120.86 973L1076 973.219" stroke="#000000" stroke-width="1.71785" stroke-miterlimit="8" fill="none" fill-rule="evenodd"/><path d="M1176 1882C1160.53 1882 1148 1869.51 1148 1854.11L1148.12 1753.53 1148.43 1584.96 1148.56 1016" stroke="#000000" stroke-width="1.71785" stroke-miterlimit="8" fill="none" fill-rule="evenodd"/><path d="M1557.5 1974.5 1557.5 2043.5 1880.5 2043.5" stroke="#000000" stroke-width="4.90814" stroke-linecap="square" stroke-miterlimit="8" fill="none" fill-rule="evenodd"/><path d="M484.273 1722.5 484.5 1648.19C484.5 1632.8 471.995 1620.33 456.569 1620.33L317.31 1620.54 306.914 1620.21 271.996 1620.21C256.566 1620.21 242.663 1607.74 242.663 1592.36L242.5 1567.98 242.654 778.471C242.654 763.086 255.297 750.613 270.722 750.613L306.801 750.643 371.254 750.613C386.68 750.613 399.185 738.141 399.185 722.756L399.144 682.463 399.144 619.5" stroke="#000000" stroke-width="4.90814" stroke-miterlimit="8" fill="none" fill-rule="evenodd"/><path d="M581.299 1914.5 668.368 1914.39 703.133 1914.39C718.494 1914.39 732.337 1901.9 732.337 1886.5L732.5 1862.1 732.347 1664.42C732.347 1649.02 719.759 1636.53 704.401 1636.53L668.48 1636.56 604.311 1636.53C588.952 1636.53 576.5 1624.04 576.5 1608.64L576.541 1570.77 576.541 1522.5" stroke="#000000" stroke-width="4.90814" stroke-miterlimit="8" fill="none" fill-rule="evenodd"/><path d="M904 1880.95 445.859 1882C430.474 1882 418 1869.55 418 1854.18L418.226 1780" stroke="#000000" stroke-width="1.71785" stroke-miterlimit="8" fill="none" fill-rule="evenodd"/><path d="M904 1462.95 445.859 1464C430.474 1464 418 1451.55 418 1436.18L418.226 1362" stroke="#000000" stroke-width="1.71785" stroke-miterlimit="8" fill="none" fill-rule="evenodd"/><path d="M904 1218.95 443.833 1220C428.462 1220 416 1207.55 416 1192.18L416.226 1118" stroke="#000000" stroke-width="1.71785" stroke-miterlimit="8" fill="none" fill-rule="evenodd"/><path d="M895 974.948 445.854 976C430.472 976 418 963.549 418 948.182L418.226 874" stroke="#000000" stroke-width="1.71785" stroke-miterlimit="8" fill="none" fill-rule="evenodd"/><path d="M1462.5 602.5 1462.5 1814.5" stroke="#000000" stroke-width="4.90814" stroke-linecap="square" stroke-miterlimit="8" fill="none" fill-rule="evenodd"/><path d="M1557.5 2252.5 1557.5 2321.5 1879.5 2321.5" stroke="#000000" stroke-width="4.90814" stroke-linecap="square" stroke-miterlimit="8" fill="none" fill-rule="evenodd"/><path d="M1259 1883 1045 1882" stroke="#000000" stroke-width="1.71785" stroke-miterlimit="8" fill="none" fill-rule="evenodd"/><path d="M878 2003 515 2004" stroke="#000000" stroke-width="1.71785" stroke-miterlimit="8" fill="none" fill-rule="evenodd"/><path d="M1043 592 1256 592" stroke="#000000" stroke-width="1.71785" stroke-miterlimit="8" fill="none" fill-rule="evenodd"/><path d="M674 592 905 592" stroke="#000000" stroke-width="1.71785" stroke-miterlimit="8" fill="none" fill-rule="evenodd"/><path d="M870.5 544.5 1081.5 544.5 1081.5 649.5 870.5 649.5Z" stroke="#000000" stroke-width="4.90814" stroke-miterlimit="8" fill="#FFFFFF" fill-rule="evenodd"/><path d="M870 543.358 920.142 594 1030.5 594 1081 543" stroke="#000000" stroke-width="1.71785" stroke-miterlimit="8" fill="none" fill-rule="evenodd"/><text font-family="Arial,Arial_MSFontService,sans-serif" font-weight="400" font-size="30" transform="matrix(1 0 0 1 945.891 584)">Iv11</text><path d="M1713.13 2387C1728.52 2387 1741 2399.53 1741 2415L1741 2429C1741 2444.47 1728.52 2457 1713.13 2457L1278.87 2457C1263.48 2457 1251 2444.47 1251 2429L1251 2415C1251 2399.53 1263.48 2387 1278.87 2387L1713.13 2387Z" stroke="#000000" stroke-width="1.71785" stroke-miterlimit="8" fill="#FFFFFF" fill-rule="evenodd"/><text font-family="Arial,Arial_MSFontService,sans-serif" font-weight="400" font-size="35" transform="matrix(1 0 0 1 1262.31 2439)">NORMAAL EINDE CYCLUS</text><path d="M669.086 540C684.503 540 697 552.537 697 567.999L697 617.003C697 632.465 684.503 645 669.086 645L303.91 645C288.496 645 276 632.465 276 617.003L276 567.999C276 552.537 288.496 540 303.91 540L669.086 540Z" stroke="#000000" stroke-width="1.71785" stroke-miterlimit="8" fill="#FFFFFF" fill-rule="evenodd"/><text font-family="Arial,Arial_MSFontService,sans-serif" font-weight="400" font-size="35" transform="matrix(1 0 0 1 305.201 588)">Komt persoon voor in</text><text font-family="Arial,Arial_MSFontService,sans-serif" font-weight="400" font-size="35" transform="matrix(1 0 0 1 305.202 623)">PL</text><text font-family="Arial,Arial_MSFontService,sans-serif" font-weight="400" font-size="35" transform="matrix(1 0 0 1 348.17 623)">-</text><text font-family="Arial,Arial_MSFontService,sans-serif" font-weight="400" font-size="35" transform="matrix(1 0 0 1 360.202 623)">bestand?</text><path d="M669.086 784C684.503 784 697 796.535 697 811.997L697 860.999C697 876.465 684.503 889 669.086 889L303.91 889C288.496 889 276 876.465 276 860.999L276 811.997C276 796.535 288.496 784 303.91 784L669.086 784Z" stroke="#000000" stroke-width="1.71785" stroke-miterlimit="8" fill="#FFFFFF" fill-rule="evenodd"/><text font-family="Arial,Arial_MSFontService,sans-serif" font-weight="400" font-size="35" transform="matrix(1 0 0 1 305.202 832)">Is persoonslijst geblok</text><text font-family="Arial,Arial_MSFontService,sans-serif" font-weight="400" font-size="35" transform="matrix(1 0 0 1 652.389 832)">-</text><text font-family="Arial,Arial_MSFontService,sans-serif" font-weight="400" font-size="35" transform="matrix(1 0 0 1 305.202 867)">keerd ivm verhuizing?</text><path d="M80.4999 963.5 360.5 963.5 360.5 895.5" stroke="#000000" stroke-width="4.90814" stroke-miterlimit="8" fill="none" fill-rule="evenodd"/><path d="M870.5 927.5 1081.5 927.5 1081.5 1033.5 870.5 1033.5Z" stroke="#000000" stroke-width="4.90814" stroke-miterlimit="8" fill="#FFFFFF" fill-rule="evenodd"/><path d="M870 925.359 920.147 976 1030.5 976 1081 925" stroke="#000000" stroke-width="1.71785" stroke-miterlimit="8" fill="none" fill-rule="evenodd"/><text font-family="Arial,Arial_MSFontService,sans-serif" font-weight="400" font-size="30" transform="matrix(1 0 0 1 949.175 968)">If41</text><text font-family="Arial,Arial_MSFontService,sans-serif" font-weight="400" font-size="30" transform="matrix(1 0 0 1 912.045 1017)">Code "A"</text><path d="M669.086 1028C684.503 1028 697 1040.53 697 1056L697 1105C697 1120.47 684.503 1133 669.086 1133L303.91 1133C288.496 1133 276 1120.47 276 1105L276 1056C276 1040.53 288.496 1028 303.91 1028L669.086 1028Z" stroke="#000000" stroke-width="1.71785" stroke-miterlimit="8" fill="#FFFFFF" fill-rule="evenodd"/><text font-family="Arial,Arial_MSFontService,sans-serif" font-weight="400" font-size="35" transform="matrix(1 0 0 1 305.202 1076)">Betreft het dezelfde</text><text font-family="Arial,Arial_MSFontService,sans-serif" font-weight="400" font-size="35" transform="matrix(1 0 0 1 305.202 1111)">gemeente?</text><path d="M88.4998 1207.5 360.5 1207.5 360.5 1139.5" stroke="#000000" stroke-width="4.90814" stroke-miterlimit="8" fill="none" fill-rule="evenodd"/><path d="M870.5 1171.5 1081.5 1171.5 1081.5 1276.5 870.5 1276.5Z" stroke="#000000" stroke-width="4.90814" stroke-miterlimit="8" fill="#FFFFFF" fill-rule="evenodd"/><path d="M870 1170.36 920.147 1221 1030.5 1221 1081 1170" stroke="#000000" stroke-width="1.71785" stroke-miterlimit="8" fill="none" fill-rule="evenodd"/><text font-family="Arial,Arial_MSFontService,sans-serif" font-weight="400" font-size="30" transform="matrix(1 0 0 1 949.175 1211)">If41</text><text font-family="Arial,Arial_MSFontService,sans-serif" font-weight="400" font-size="30" transform="matrix(1 0 0 1 912.045 1261)">Code "B"</text><path d="M669.086 1272C684.503 1272 697 1284.53 697 1300L697 1349C697 1364.47 684.503 1377 669.086 1377L303.91 1377C288.496 1377 276 1364.47 276 1349L276 1300C276 1284.54 288.496 1272 303.91 1272L669.086 1272Z" stroke="#000000" stroke-width="1.71785" stroke-miterlimit="8" fill="#FFFFFF" fill-rule="evenodd"/><text font-family="Arial,Arial_MSFontService,sans-serif" font-weight="400" font-size="35" transform="matrix(1 0 0 1 305.202 1320)">Vraag toestemming</text><text font-family="Arial,Arial_MSFontService,sans-serif" font-weight="400" font-size="35" transform="matrix(1 0 0 1 305.202 1354)">voor verwijderen PL</text><path d="M88.4998 1451.5 360.5 1451.5 360.5 1383.5" stroke="#000000" stroke-width="4.90814" stroke-miterlimit="8" fill="none" fill-rule="evenodd"/><path d="M870.5 1415.5 1081.5 1415.5 1081.5 1520.5 870.5 1520.5Z" stroke="#000000" stroke-width="4.90814" stroke-miterlimit="8" fill="#FFFFFF" fill-rule="evenodd"/><path d="M870 1414.36 920.147 1465 1030.5 1465 1081 1414" stroke="#000000" stroke-width="1.71785" stroke-miterlimit="8" fill="none" fill-rule="evenodd"/><text font-family="Arial,Arial_MSFontService,sans-serif" font-weight="400" font-size="30" transform="matrix(1 0 0 1 949.175 1455)">If41</text><text font-family="Arial,Arial_MSFontService,sans-serif" font-weight="400" font-size="30" transform="matrix(1 0 0 1 912.045 1504)">Code "B"</text><path d="M669.086 1516C684.503 1516 697 1528.53 697 1544L697 1558C697 1573.46 684.503 1586 669.086 1586L303.91 1586C288.496 1586 276 1573.46 276 1558L276 1544C276 1528.53 288.496 1516 303.91 1516L669.086 1516Z" stroke="#000000" stroke-width="1.71785" stroke-miterlimit="8" fill="#FFFFFF" fill-rule="evenodd"/><text font-family="Arial,Arial_MSFontService,sans-serif" font-weight="400" font-size="35" transform="matrix(1 0 0 1 305.201 1563)">Verwijder PL</text><path d="M669.086 1690C684.503 1690 697 1702.53 697 1718L697 1767C697 1782.46 684.503 1795 669.086 1795L303.91 1795C288.496 1795 276 1782.46 276 1767L276 1718C276 1702.53 288.496 1690 303.91 1690L669.086 1690Z" stroke="#000000" stroke-width="1.71785" stroke-miterlimit="8" fill="#FFFFFF" fill-rule="evenodd"/><text font-family="Arial,Arial_MSFontService,sans-serif" font-weight="400" font-size="35" transform="matrix(1 0 0 1 305.201 1738)">Komt persoon voor in</text><text font-family="Arial,Arial_MSFontService,sans-serif" font-weight="400" font-size="35" transform="matrix(1 0 0 1 305.202 1773)">verwijsbestand?</text><path d="M85.5001 1869.5 360.5 1869.5 360.5 1801.5" stroke="#000000" stroke-width="4.90814" stroke-miterlimit="8" fill="none" fill-rule="evenodd"/><path d="M855 976.299 811 965 811 987Z" fill-rule="evenodd"/><path d="M855 2004.31 811 1993 811 2015Z" fill-rule="evenodd"/><path d="M801 592.815 845 581 845 604Z" fill-rule="evenodd"/><path d="M855 1220.31 811 1209 811 1231Z" fill-rule="evenodd"/><path d="M855 1464.3 811 1453 811 1475Z" fill-rule="evenodd"/><path d="M855 1882.3 811 1871 811 1893Z" fill-rule="evenodd"/><path d="M870.5 1833.5 1081.5 1833.5 1081.5 1938.5 870.5 1938.5Z" stroke="#000000" stroke-width="4.90814" stroke-miterlimit="8" fill="#FFFFFF" fill-rule="evenodd"/><path d="M870 1832.36 920.147 1883 1030.5 1883 1081 1832" stroke="#000000" stroke-width="1.71785" stroke-miterlimit="8" fill="none" fill-rule="evenodd"/><text font-family="Arial,Arial_MSFontService,sans-serif" font-weight="400" font-size="30" transform="matrix(1 0 0 1 949.175 1873)">If41</text><text font-family="Arial,Arial_MSFontService,sans-serif" font-weight="400" font-size="30" transform="matrix(1 0 0 1 912.045 1923)">Code "V"</text><path d="M667.135 2387C682.525 2387 695 2399.55 695 2415L695 2429C695 2444.47 682.525 2457 667.135 2457L232.866 2457C217.476 2457 205 2444.47 205 2429L205 2415C205 2399.55 217.476 2387 232.866 2387L667.135 2387Z" stroke="#000000" stroke-width="1.71785" stroke-miterlimit="8" fill="#FFFFFF" fill-rule="evenodd"/><text font-family="Arial,Arial_MSFontService,sans-serif" font-weight="400" font-size="35" transform="matrix(1 0 0 1 217.068 2439)">NORMAAL EINDE CYCLUS</text><path d="M487.5 2005.5 487.5 2369.5" stroke="#000000" stroke-width="4.90814" stroke-linecap="square" stroke-miterlimit="8" fill="none" fill-rule="evenodd"/><path d="M669.086 1969C684.503 1969 697 1981.53 697 1997L697 2011C697 2026.47 684.503 2039 669.086 2039L303.91 2039C288.496 2039 276 2026.47 276 2011L276 1997C276 1981.53 288.496 1969 303.91 1969L669.086 1969Z" stroke="#000000" stroke-width="1.71785" stroke-miterlimit="8" fill="#FFFFFF" fill-rule="evenodd"/><text font-family="Arial,Arial_MSFontService,sans-serif" font-weight="400" font-size="35" transform="matrix(1 0 0 1 305.201 2016)">Neem verwijsgegev. op</text><path d="M1089 591.301 1133 580 1133 602Z" fill-rule="evenodd"/><path d="M1644.16 558C1659.54 558 1672 570.535 1672 585.998L1672 600.003C1672 615.465 1659.54 628 1644.16 628L1279.84 628C1264.46 628 1252 615.465 1252 600.003L1252 585.998C1252 570.535 1264.46 558 1279.84 558L1644.16 558Z" stroke="#000000" stroke-width="1.71785" stroke-miterlimit="8" fill="#FFFFFF" fill-rule="evenodd"/><text font-family="Arial,Arial_MSFontService,sans-serif" font-weight="400" font-size="35" transform="matrix(1 0 0 1 1280.71 605)">Maak verwijsgegevens</text><path d="M1644.15 1830C1659.53 1830 1672 1842.45 1672 1857.8L1672 1941.2C1672 1956.56 1659.53 1969 1644.15 1969L1279.84 1969C1264.46 1969 1252 1956.56 1252 1941.2L1252 1857.8C1252 1842.45 1264.46 1830 1279.84 1830L1644.15 1830Z" stroke="#000000" stroke-width="1.71785" stroke-miterlimit="8" fill="#FFFFFF" fill-rule="evenodd"/><text font-family="Arial,Arial_MSFontService,sans-serif" font-weight="400" font-size="35" transform="matrix(1 0 0 1 1280.72 1877)">Wacht op antwoord</text><path d="M1557.76 1993 1557.88 1964.41 1557.88 1937.72 1558 1909.13C1558 1893.7 1545.52 1881.19 1530.11 1881.19L1501.79 1881 1248 1881.22" stroke="#000000" stroke-width="1.71785" stroke-miterlimit="8" stroke-dasharray="9.66289 6.44193" fill="none" fill-rule="evenodd"/><path d="M1365.87 1972 1366 1943.77C1366 1928.54 1353.5 1916.19 1338.07 1916.19L1309.69 1916 1252 1916.22" stroke="#000000" stroke-width="1.71785" stroke-miterlimit="8" stroke-dasharray="9.66289 6.44193" fill="none" fill-rule="evenodd"/><path d="M1240 1881.3 1197 1870 1197 1892Z" fill-rule="evenodd"/><path d="M1283 1916.22 1203.42 1916 1175.14 1916.19C1159.76 1916.19 1147.3 1928.59 1147.3 1943.89L1148.16 1960.95 1148.28 1989.3C1148.28 2004.6 1135.82 2017 1120.45 2017L1081 2016.78" stroke="#000000" stroke-width="1.71785" stroke-miterlimit="8" fill="none" fill-rule="evenodd"/><path d="M1240 1915.82 1197 1904 1197 1927Z" fill-rule="evenodd"/><path d="M1622.15 1960C1629.79 1960 1636 1966.23 1636 1973.92L1636 1981.08C1636 1988.77 1629.79 1995 1622.15 1995L1494.86 1995C1487.2 1995 1481 1988.77 1481 1981.08L1481 1973.92C1481 1966.23 1487.2 1960 1494.86 1960L1622.15 1960Z" stroke="#000000" stroke-width="1.71785" stroke-miterlimit="8" fill="#FFFFFF" fill-rule="evenodd"/><text font-family="Arial,Arial_MSFontService,sans-serif" font-weight="400" font-size="24" transform="matrix(1 0 0 1 1537 1987)">If41</text><path d="M870.5 1972.5 1081.5 1972.5 1081.5 2078.5 870.5 2078.5Z" stroke="#000000" stroke-width="4.90814" stroke-miterlimit="8" fill="#FFFFFF" fill-rule="evenodd"/><path d="M870 1972.35 920.147 2022 1030.5 2022 1081 1972" stroke="#000000" stroke-width="1.71785" stroke-miterlimit="8" fill="none" fill-rule="evenodd"/><text font-family="Arial,Arial_MSFontService,sans-serif" font-weight="400" font-size="30" transform="matrix(1 0 0 1 945.897 2013)">Iv21</text><path d="M1644.16 2108C1659.54 2108 1672 2120.54 1672 2135.99L1672 2220C1672 2235.46 1659.54 2248 1644.16 2248L1279.84 2248C1264.46 2248 1252 2235.46 1252 2220L1252 2135.99C1252 2120.54 1264.46 2108 1279.84 2108L1644.16 2108Z" stroke="#000000" stroke-width="1.71785" stroke-miterlimit="8" fill="#FFFFFF" fill-rule="evenodd"/><text font-family="Arial,Arial_MSFontService,sans-serif" font-weight="400" font-size="35" transform="matrix(1 0 0 1 1280.71 2156)">Ontvangen verwijs</text><text font-family="Arial,Arial_MSFontService,sans-serif" font-weight="400" font-size="35" transform="matrix(1 0 0 1 1571.18 2156)">-</text><text font-family="Arial,Arial_MSFontService,sans-serif" font-weight="400" font-size="35" transform="matrix(1 0 0 1 1280.71 2191)">gegevens gelijk aan</text><text font-family="Arial,Arial_MSFontService,sans-serif" font-weight="400" font-size="35" transform="matrix(1 0 0 1 1280.71 2226)">verzonden gegevens?</text><path d="M1622.15 2238C1629.79 2238 1636 2244.23 1636 2251.91L1636 2259.09C1636 2266.77 1629.79 2273 1622.15 2273L1494.86 2273C1487.2 2273 1481 2266.77 1481 2259.09L1481 2251.91C1481 2244.23 1487.2 2238 1494.86 2238L1622.15 2238Z" stroke="#000000" stroke-width="1.71785" stroke-miterlimit="8" fill="#FFFFFF" fill-rule="evenodd"/><text font-family="Arial,Arial_MSFontService,sans-serif" font-weight="400" font-size="24" transform="matrix(1 0 0 1 1535.48 2266)">Nee</text><path d="M454.146 636C461.796 636 468 642.229 468 649.916L468 657.088C468 664.771 461.796 671 454.146 671L326.854 671C319.205 671 313 664.771 313 657.088L313 649.916C313 642.231 319.205 636 326.854 636L454.146 636Z" stroke="#000000" stroke-width="1.71785" stroke-miterlimit="8" fill="#FFFFFF" fill-rule="evenodd"/><text font-family="Arial,Arial_MSFontService,sans-serif" font-weight="400" font-size="24" transform="matrix(1 0 0 1 367.703 663)">Nee</text><path d="M103.5 963C103.5 982.054 88.0538 997.5 68.9999 997.5 49.946 997.5 34.4999 982.054 34.4999 963 34.4999 943.946 49.946 928.5 68.9999 928.5 88.0538 928.5 103.5 943.946 103.5 963Z" stroke="#000000" stroke-width="1.22703" stroke-miterlimit="8" fill="#FFFFFF" fill-rule="evenodd"/><text font-family="Arial,Arial_MSFontService,sans-serif" font-weight="400" font-size="49" transform="matrix(1 0 0 1 54.9437 983)">1</text><path d="M103.5 1207C103.5 1226.05 88.0538 1241.5 68.9999 1241.5 49.946 1241.5 34.4999 1226.05 34.4999 1207 34.4999 1187.95 49.946 1172.5 68.9999 1172.5 88.0538 1172.5 103.5 1187.95 103.5 1207Z" stroke="#000000" stroke-width="1.22703" stroke-miterlimit="8" fill="#FFFFFF" fill-rule="evenodd"/><text font-family="Arial,Arial_MSFontService,sans-serif" font-weight="400" font-size="49" transform="matrix(1 0 0 1 54.9437 1227)">2</text><path d="M103.5 1451C103.5 1470.05 88.0538 1485.5 68.9999 1485.5 49.946 1485.5 34.4999 1470.05 34.4999 1451 34.4999 1431.95 49.946 1416.5 68.9999 1416.5 88.0538 1416.5 103.5 1431.95 103.5 1451Z" stroke="#000000" stroke-width="1.22703" stroke-miterlimit="8" fill="#FFFFFF" fill-rule="evenodd"/><text font-family="Arial,Arial_MSFontService,sans-serif" font-weight="400" font-size="49" transform="matrix(1 0 0 1 54.9437 1471)">3</text><path d="M103.5 1869C103.5 1888.05 88.0538 1903.5 68.9999 1903.5 49.946 1903.5 34.4999 1888.05 34.4999 1869 34.4999 1849.95 49.946 1834.5 68.9999 1834.5 88.0538 1834.5 103.5 1849.95 103.5 1869Z" stroke="#000000" stroke-width="1.22703" stroke-miterlimit="8" fill="#FFFFFF" fill-rule="evenodd"/><text font-family="Arial,Arial_MSFontService,sans-serif" font-weight="400" font-size="49" transform="matrix(1 0 0 1 54.9437 1889)">4</text><path d="M1880 2077.5C1899.05 2077.5 1914.5 2062.05 1914.5 2043 1914.5 2023.95 1899.05 2008.5 1880 2008.5 1860.94 2008.5 1845.5 2023.95 1845.5 2043 1845.5 2062.06 1860.94 2077.5 1880 2077.5Z" stroke="#000000" stroke-width="1.22703" stroke-miterlimit="8" fill="#FFFFFF" fill-rule="evenodd"/><text font-family="Arial,Arial_MSFontService,sans-serif" font-weight="400" font-size="49" transform="matrix(1 0 0 1 1866.2 2063)">5</text><path d="M1914.5 2322C1914.5 2341.05 1899.05 2356.5 1880 2356.5 1860.95 2356.5 1845.5 2341.05 1845.5 2322 1845.5 2302.95 1860.95 2287.5 1880 2287.5 1899.05 2287.5 1914.5 2302.95 1914.5 2322Z" stroke="#000000" stroke-width="1.22703" stroke-miterlimit="8" fill="#FFFFFF" fill-rule="evenodd"/><text font-family="Arial,Arial_MSFontService,sans-serif" font-weight="400" font-size="49" transform="matrix(1 0 0 1 1866.2 2342)">6</text><path d="M1260.5 1880.5C1260.5 1884.37 1257.14 1887.5 1253 1887.5 1248.86 1887.5 1245.5 1884.37 1245.5 1880.5 1245.5 1876.63 1248.86 1873.5 1253 1873.5 1257.14 1873.5 1260.5 1876.63 1260.5 1880.5Z" stroke="#000000" stroke-width="1.22703" stroke-linecap="square" stroke-miterlimit="8" fill="#FFFFFF" fill-rule="evenodd"/><path d="M1260.5 1915C1260.5 1919.14 1257.14 1922.5 1253 1922.5 1248.86 1922.5 1245.5 1919.14 1245.5 1915 1245.5 1910.86 1248.86 1907.5 1253 1907.5 1257.14 1907.5 1260.5 1910.86 1260.5 1915Z" stroke="#000000" stroke-width="1.22703" stroke-linecap="square" stroke-miterlimit="8" fill="#FFFFFF" fill-rule="evenodd"/><path d="M703.501 593.5C703.501 597.366 700.142 600.5 696 600.5 691.858 600.5 688.5 597.366 688.5 593.5 688.5 589.634 691.858 586.5 696 586.5 700.142 586.5 703.501 589.634 703.501 593.5Z" stroke="#000000" stroke-width="1.22703" stroke-linecap="square" stroke-miterlimit="8" fill="#FFFFFF" fill-rule="evenodd"/><path d="M1260.5 593.5C1260.5 597.366 1257.37 600.5 1253.5 600.5 1249.63 600.5 1246.5 597.366 1246.5 593.5 1246.5 589.634 1249.63 586.5 1253.5 586.5 1257.37 586.5 1260.5 589.634 1260.5 593.5Z" stroke="#000000" stroke-width="1.22703" stroke-linecap="square" stroke-miterlimit="8" fill="#FFFFFF" fill-rule="evenodd"/><path d="M703.501 2003C703.501 2007.14 700.142 2010.5 696 2010.5 691.858 2010.5 688.5 2007.14 688.5 2003 688.5 1998.86 691.858 1995.5 696 1995.5 700.142 1995.5 703.501 1998.86 703.501 2003Z" stroke="#000000" stroke-width="1.22703" stroke-linecap="square" stroke-miterlimit="8" fill="#FFFFFF" fill-rule="evenodd"/><path d="M1365.5 1992.5 1365.5 2090.5" stroke="#000000" stroke-width="4.90814" stroke-linecap="square" stroke-miterlimit="8" fill="none" fill-rule="evenodd"/><path d="M1364.77 2073.9 1384 2067 1364.77 2108 1345 2067Z" fill-rule="evenodd"/><path d="M1430.05 1960C1437.76 1960 1444 1966.23 1444 1973.92L1444 1981.08C1444 1988.77 1437.76 1995 1430.05 1995L1301.94 1995C1294.24 1995 1288 1988.77 1288 1981.08L1288 1973.92C1288 1966.23 1294.24 1960 1301.94 1960L1430.05 1960Z" stroke="#000000" stroke-width="1.71785" stroke-miterlimit="8" fill="#FFFFFF" fill-rule="evenodd"/><text font-family="Arial,Arial_MSFontService,sans-serif" font-weight="400" font-size="24" transform="matrix(1 0 0 1 1342.4 1987)">Iv21</text><path d="M1365.5 2271.5 1365.5 2369.5" stroke="#000000" stroke-width="4.90814" stroke-linecap="square" stroke-miterlimit="8" fill="none" fill-rule="evenodd"/><path d="M1364.77 2352.89 1384 2346 1364.77 2387 1345 2346Z" fill-rule="evenodd"/><path d="M1461.77 1795.06 1481 1788 1461.77 1830 1442 1788Z" fill-rule="evenodd"/><path d="M584.5 655.5 584.5 771.5" stroke="#000000" stroke-width="4.90814" stroke-linecap="square" stroke-miterlimit="8" fill="none" fill-rule="evenodd"/><path d="M583.769 750.066 603 743 583.769 785 564 743Z" fill-rule="evenodd"/><path d="M581.5 899.5 581.5 1015.5" stroke="#000000" stroke-width="4.90814" stroke-linecap="square" stroke-miterlimit="8" fill="none" fill-rule="evenodd"/><path d="M580.769 993.062 600 986 580.769 1028 561 986Z" fill-rule="evenodd"/><path d="M647.057 880C654.755 880 661 886.23 661 893.916L661 901.082C661 908.769 654.755 915 647.057 915L518.947 915C511.242 915 505 908.769 505 901.082L505 893.916C505 886.23 511.245 880 518.947 880L647.057 880Z" stroke="#000000" stroke-width="1.71785" stroke-miterlimit="8" fill="#FFFFFF" fill-rule="evenodd"/><path d="M454.142 880C461.797 880 468 886.23 468 893.916L468 901.082C468 908.769 461.797 915 454.142 915L326.854 915C319.205 915 313 908.769 313 901.082L313 893.916C313 886.23 319.205 880 326.854 880L454.142 880Z" stroke="#000000" stroke-width="1.71785" stroke-miterlimit="8" fill="#FFFFFF" fill-rule="evenodd"/><text font-family="Arial,Arial_MSFontService,sans-serif" font-weight="400" font-size="24" transform="matrix(1 0 0 1 569.594 907)">Ja</text><text font-family="Arial,Arial_MSFontService,sans-serif" font-weight="400" font-size="24" transform="matrix(1 0 0 1 367.89 907)">Nee</text><path d="M424.5 918C424.5 922.142 421.142 925.5 417 925.5 412.858 925.5 409.5 922.142 409.5 918 409.5 913.858 412.858 910.5 417 910.5 421.142 910.5 424.5 913.858 424.5 918Z" stroke="#000000" stroke-width="1.22703" stroke-linecap="square" stroke-miterlimit="8" fill="#FFFFFF" fill-rule="evenodd"/><path d="M581.5 1387.5 581.5 1503.5" stroke="#000000" stroke-width="4.90814" stroke-linecap="square" stroke-miterlimit="8" fill="none" fill-rule="evenodd"/><path d="M580.769 1481.06 600 1474 580.769 1516 561 1474Z" fill-rule="evenodd"/><path d="M647.057 1367C654.755 1367 661 1373.23 661 1380.91L661 1388.08C661 1395.77 654.755 1402 647.057 1402L518.947 1402C511.242 1402 505 1395.77 505 1388.08L505 1380.91C505 1373.23 511.245 1367 518.947 1367L647.057 1367Z" stroke="#000000" stroke-width="1.71785" stroke-miterlimit="8" fill="#FFFFFF" fill-rule="evenodd"/><path d="M454.142 1367C461.797 1367 468 1373.23 468 1380.91L468 1388.08C468 1395.77 461.797 1402 454.142 1402L326.854 1402C319.205 1402 313 1395.77 313 1388.08L313 1380.91C313 1373.23 319.205 1367 326.854 1367L454.142 1367Z" stroke="#000000" stroke-width="1.71785" stroke-miterlimit="8" fill="#FFFFFF" fill-rule="evenodd"/><text font-family="Arial,Arial_MSFontService,sans-serif" font-weight="400" font-size="24" transform="matrix(1 0 0 1 516.15 1395)">Toegestaan</text><text font-family="Arial,Arial_MSFontService,sans-serif" font-weight="400" font-size="24" transform="matrix(1 0 0 1 330.351 1395)">Geweigerd</text><path d="M424.5 1405C424.5 1409.14 421.142 1412.5 417 1412.5 412.858 1412.5 409.5 1409.14 409.5 1405 409.5 1400.86 412.858 1397.5 417 1397.5 421.142 1397.5 424.5 1400.86 424.5 1405Z" stroke="#000000" stroke-width="1.22703" stroke-linecap="square" stroke-miterlimit="8" fill="#FFFFFF" fill-rule="evenodd"/><path d="M581.5 1143.5 581.5 1259.5" stroke="#000000" stroke-width="4.90814" stroke-linecap="square" stroke-miterlimit="8" fill="none" fill-rule="evenodd"/><path d="M580.769 1237.06 600 1230 580.769 1272 561 1230Z" fill-rule="evenodd"/><path d="M647.057 1123C654.755 1123 661 1129.41 661 1137.31L661 1144.69C661 1152.59 654.755 1159 647.057 1159L518.947 1159C511.242 1159 505 1152.59 505 1144.69L505 1137.31C505 1129.41 511.245 1123 518.947 1123L647.057 1123Z" stroke="#000000" stroke-width="1.71785" stroke-miterlimit="8" fill="#FFFFFF" fill-rule="evenodd"/><path d="M454.142 1123C461.797 1123 468 1129.41 468 1137.31L468 1144.69C468 1152.59 461.797 1159 454.142 1159L326.854 1159C319.205 1159 313 1152.59 313 1144.69L313 1137.31C313 1129.41 319.205 1123 326.854 1123L454.142 1123Z" stroke="#000000" stroke-width="1.71785" stroke-miterlimit="8" fill="#FFFFFF" fill-rule="evenodd"/><text font-family="Arial,Arial_MSFontService,sans-serif" font-weight="400" font-size="24" transform="matrix(1 0 0 1 569.594 1151)">Ja</text><text font-family="Arial,Arial_MSFontService,sans-serif" font-weight="400" font-size="24" transform="matrix(1 0 0 1 367.89 1151)">Nee</text><path d="M424.5 1159C424.5 1163.14 421.142 1166.5 417 1166.5 412.858 1166.5 409.5 1163.14 409.5 1159 409.5 1154.86 412.858 1151.5 417 1151.5 421.142 1151.5 424.5 1154.86 424.5 1159Z" stroke="#000000" stroke-width="1.22703" stroke-linecap="square" stroke-miterlimit="8" fill="#FFFFFF" fill-rule="evenodd"/><path d="M581.5 1805.5 581.5 1956.5" stroke="#000000" stroke-width="4.90814" stroke-linecap="square" stroke-miterlimit="8" fill="none" fill-rule="evenodd"/><path d="M580.769 1934.07 600 1927 580.769 1969 561 1927Z" fill-rule="evenodd"/><path d="M732.276 1757.07 752 1750 732.276 1792 712 1750Z" fill-rule="evenodd"/><path d="M647.057 1785C654.755 1785 661 1791.41 661 1799.32L661 1806.68C661 1814.59 654.755 1821 647.057 1821L518.947 1821C511.242 1821 505 1814.59 505 1806.68L505 1799.32C505 1791.41 511.245 1785 518.947 1785L647.057 1785Z" stroke="#000000" stroke-width="1.71785" stroke-miterlimit="8" fill="#FFFFFF" fill-rule="evenodd"/><path d="M454.142 1785C461.797 1785 468 1791.41 468 1799.32L468 1806.68C468 1814.59 461.797 1821 454.142 1821L326.854 1821C319.205 1821 313 1814.59 313 1806.68L313 1799.32C313 1791.41 319.205 1785 326.854 1785L454.142 1785Z" stroke="#000000" stroke-width="1.71785" stroke-miterlimit="8" fill="#FFFFFF" fill-rule="evenodd"/><text font-family="Arial,Arial_MSFontService,sans-serif" font-weight="400" font-size="24" transform="matrix(1 0 0 1 559.962 1813)">Nee</text><text font-family="Arial,Arial_MSFontService,sans-serif" font-weight="400" font-size="24" transform="matrix(1 0 0 1 377.428 1813)">Ja</text><path d="M424.5 1822.5C424.5 1826.37 421.142 1829.5 417 1829.5 412.858 1829.5 409.5 1826.37 409.5 1822.5 409.5 1818.63 412.858 1815.5 417 1815.5 421.142 1815.5 424.5 1818.63 424.5 1822.5Z" stroke="#000000" stroke-width="1.22703" stroke-linecap="square" stroke-miterlimit="8" fill="#FFFFFF" fill-rule="evenodd"/><path d="M483.769 1655.06 503 1648 483.769 1690 464 1648Z" fill-rule="evenodd"/><path d="M486.769 2352.89 506 2346 486.769 2387 467 2346Z" fill-rule="evenodd"/><path d="M647.053 636C654.758 636 661 642.229 661 649.916L661 657.088C661 664.771 654.758 671 647.053 671L518.943 671C511.242 671 505 664.771 505 657.088L505 649.916C505 642.231 511.242 636 518.943 636L647.053 636Z" stroke="#000000" stroke-width="1.71785" stroke-miterlimit="8" fill="#FFFFFF" fill-rule="evenodd"/><text font-family="Arial,Arial_MSFontService,sans-serif" font-weight="400" font-size="24" transform="matrix(1 0 0 1 569.881 663)">Ja</text><path d="M1430.05 2238C1437.76 2238 1444 2244.23 1444 2251.91L1444 2259.09C1444 2266.77 1437.76 2273 1430.05 2273L1301.94 2273C1294.24 2273 1288 2266.77 1288 2259.09L1288 2251.91C1288 2244.23 1294.24 2238 1301.94 2238L1430.05 2238Z" stroke="#000000" stroke-width="1.71785" stroke-miterlimit="8" fill="#FFFFFF" fill-rule="evenodd"/><text font-family="Arial,Arial_MSFontService,sans-serif" font-weight="400" font-size="24" transform="matrix(1 0 0 1 1352.95 2266)">Ja</text><path d="M1706 649 1920 649 1920 528.287 1891.14 529.208C1891.14 516 1881.31 516 1881.31 516L1861.66 516C1861.66 516 1851.84 516.615 1851.84 529.208L1706 529.208 1706 649Z" stroke="#000000" stroke-width="2.45407" stroke-linecap="square" stroke-miterlimit="8" fill="#FFFFFF" fill-rule="evenodd"/><text font-family="Arial,Arial_MSFontService,sans-serif" font-weight="400" font-size="35" transform="matrix(1 0 0 1 1724.01 586)">Bestaande</text><text font-family="Arial,Arial_MSFontService,sans-serif" font-weight="400" font-size="35" transform="matrix(1 0 0 1 1788.85 621)">PL</text></g></svg>