<svg width="1947" height="2561" xmlns="http://www.w3.org/2000/svg" xmlns:xlink="http://www.w3.org/1999/xlink" xml:space="preserve" overflow="hidden"><g transform="translate(4 -262)"><path d="M1941.72 2822 1942 265 1167.79 265.139 1167 2821.89 1941.72 2822Z" stroke="#000000" stroke-width="1.72904" stroke-miterlimit="8" fill="#E6E6E6" fill-rule="evenodd"/><path d="M-3.0001 263 773 263 773 2822-3.0001 2822Z" stroke="#000000" stroke-width="1.72904" stroke-miterlimit="8" fill="#E6E6E6" fill-rule="evenodd"/><path d="M0.119216 56.0004 0 27.6781C0 12.3916 12.5939 0 28.1291 0L68.0001 0.22277" stroke="#000000" stroke-width="2.29167" stroke-miterlimit="8" fill="none" fill-rule="evenodd" transform="matrix(1 0 0 -1 802 1393)"/><path d="M0.119216 56.0004 0 27.6781C0 12.3919 12.5939 0 28.1291 0L68.0001 0.22277" stroke="#000000" stroke-width="2.29167" stroke-miterlimit="8" fill="none" fill-rule="evenodd" transform="matrix(1 0 0 -1 802 1240)"/><path d="M1515.5 2291.51 1515.5 2319.51" stroke="#000000" stroke-width="4.91211" stroke-linecap="square" stroke-miterlimit="8" fill="none" fill-rule="evenodd"/><path d="M1515.5 2167.5 1515.5 2425.5" stroke="#000000" stroke-width="4.91211" stroke-linecap="square" stroke-miterlimit="8" fill="none" fill-rule="evenodd"/><path d="M493.5 526.5 493.5 2381.5" stroke="#000000" stroke-width="4.91211" stroke-linecap="square" stroke-miterlimit="8" fill="none" fill-rule="evenodd"/><path d="M673 489 871 489" stroke="#000000" stroke-width="2.29167" stroke-miterlimit="8" fill="none" fill-rule="evenodd"/><path d="M862 488.301 819 477 819 499 862 488.301Z" fill-rule="evenodd"/><path d="M0.119216 57.0001 0 28.1712C0 12.6127 12.5939 0 28.1291 0L68.0001 0.222724" stroke="#000000" stroke-width="2.29167" stroke-miterlimit="8" fill="none" fill-rule="evenodd" transform="matrix(1 0 0 -1 802 937)"/><path d="M0.119216 56 0 27.6788C0 12.3932 12.5939 0 28.1291 0L68.0001 0.218816" stroke="#000000" stroke-width="2.29167" stroke-miterlimit="8" fill="none" fill-rule="evenodd" transform="matrix(1 0 0 -1 802 781)"/><path d="M580.5 2487.5 580.5 2619.5" stroke="#000000" stroke-width="4.91211" stroke-linecap="square" stroke-miterlimit="8" fill="none" fill-rule="evenodd"/><path d="M667.155 2389C682.532 2389 695 2401.45 695 2416.81L695 2500.21C695 2515.55 682.532 2528 667.155 2528L302.844 2528C287.466 2528 275 2515.55 275 2500.21L275 2416.81C275 2401.45 287.466 2389 302.844 2389L667.155 2389Z" stroke="#000000" stroke-width="1.72904" stroke-miterlimit="8" fill="#FFFFFF" fill-rule="evenodd"/><text font-family="Arial,Arial_MSFontService,sans-serif" font-weight="400" font-size="35" transform="matrix(1 0 0 1 304.32 2436)">W</text><text font-family="Arial,Arial_MSFontService,sans-serif" font-weight="400" font-size="35" transform="matrix(1 0 0 1 335.497 2436)">a</text><text font-family="Arial,Arial_MSFontService,sans-serif" font-weight="400" font-size="35" transform="matrix(1 0 0 1 354.621 2436)">cht op antwoord</text><path d="M908 2475 694 2476" stroke="#000000" stroke-width="2.29167" stroke-miterlimit="8" fill="none" fill-rule="evenodd"/><path d="M867.5 2424.5 1078.5 2424.5 1078.5 2530.5 867.5 2530.5Z" stroke="#000000" stroke-width="4.91211" stroke-miterlimit="8" fill="#FFFFFF" fill-rule="evenodd"/><path d="M867 2424.35 917.147 2474 1027.5 2474 1078 2424" stroke="#000000" stroke-width="1.72904" stroke-miterlimit="8" fill="none" fill-rule="evenodd"/><text font-family="Arial,Arial_MSFontService,sans-serif" font-weight="400" font-size="29" transform="matrix(1 0 0 1 945.798 2465)">Null</text><path d="M712 2475.3 756 2464 756 2486 712 2475.3Z" fill-rule="evenodd"/><path d="M666.191 2650C681.55 2650 694 2662.53 694 2678L694 2692C694 2707.47 681.55 2720 666.191 2720L232.809 2720C217.45 2720 205 2707.47 205 2692L205 2678C205 2662.53 217.45 2650 232.809 2650L666.191 2650Z" stroke="#000000" stroke-width="1.72904" stroke-miterlimit="8" fill="#FFFFFF" fill-rule="evenodd"/><text font-family="Arial,Arial_MSFontService,sans-serif" font-weight="400" font-size="35" transform="matrix(1 0 0 1 216.263 2702)">NORMAAL</text><text font-family="Arial,Arial_MSFontService,sans-serif" font-weight="400" font-size="35" transform="matrix(1 0 0 1 394.579 2702)">EINDE CYCLUS</text><path d="M0.119216 56.0004 0 27.6781C0 12.3919 12.5939 0 28.1291 0L68.0001 0.22277" stroke="#000000" stroke-width="2.29167" stroke-miterlimit="8" fill="none" fill-rule="evenodd" transform="matrix(1 0 0 -1 802 1086)"/><path d="M0.119216 55.9738 0 27.6508C0 12.3649 12.5939-0.0261862 28.1291-0.0261862L68.0001 0.196217" stroke="#000000" stroke-width="2.29167" stroke-miterlimit="8" fill="none" fill-rule="evenodd" transform="matrix(1 0 0 -1 803 1548)"/><path d="M1291 2475 1077 2476" stroke="#000000" stroke-width="2.29167" stroke-miterlimit="8" fill="none" fill-rule="evenodd"/><path d="M1095 2475.3 1138 2464 1138 2486 1095 2475.3Z" fill-rule="evenodd"/><path d="M1851.15 2441C1866.53 2441 1879 2453.53 1879 2469L1879 2483C1879 2498.47 1866.53 2511 1851.15 2511L1277.85 2511C1262.47 2511 1250 2498.47 1250 2483L1250 2469C1250 2453.53 1262.47 2441 1277.85 2441L1851.15 2441Z" stroke="#000000" stroke-width="1.72904" stroke-miterlimit="8" fill="#FFFFFF" fill-rule="evenodd"/><text font-family="Arial,Arial_MSFontService,sans-serif" font-weight="400" font-size="35" transform="matrix(1 0 0 1 1296.25 2489)">Verstuur verwerkbevestiging</text><path d="M1514.77 2406.07 1534 2399 1514.77 2441 1495 2399 1514.77 2406.07Z" fill-rule="evenodd"/><path d="M1258.5 2476C1258.5 2480.14 1255.14 2483.5 1251 2483.5 1246.86 2483.5 1243.5 2480.14 1243.5 2476 1243.5 2471.86 1246.86 2468.5 1251 2468.5 1255.14 2468.5 1258.5 2471.86 1258.5 2476Z" stroke="#000000" stroke-width="1.23786" stroke-linecap="square" stroke-miterlimit="8" fill="#FFFFFF" fill-rule="evenodd"/><path d="M1710.19 2652C1725.55 2652 1738 2664.37 1738 2679.6L1738 2693.4C1738 2708.65 1725.55 2721 1710.19 2721L1276.81 2721C1261.45 2721 1249 2708.65 1249 2693.4L1249 2679.6C1249 2664.37 1261.45 2652 1276.81 2652L1710.19 2652Z" stroke="#000000" stroke-width="1.72904" stroke-miterlimit="8" fill="#FFFFFF" fill-rule="evenodd"/><text font-family="Arial,Arial_MSFontService,sans-serif" font-weight="400" font-size="35" transform="matrix(1 0 0 1 1260.58 2704)">NORMAAL</text><text font-family="Arial,Arial_MSFontService,sans-serif" font-weight="400" font-size="35" transform="matrix(1 0 0 1 1438.9 2704)">EINDE CYCLUS</text><path d="M1514.5 2513.5 1514.5 2629.5" stroke="#000000" stroke-width="4.91211" stroke-linecap="square" stroke-miterlimit="8" fill="none" fill-rule="evenodd"/><path d="M1513.77 2617.05 1533 2610 1513.77 2652 1494 2610 1513.77 2617.05Z" fill-rule="evenodd"/><path d="M580.276 2615.07 600 2608 580.276 2650 560 2608 580.276 2615.07Z" fill-rule="evenodd"/><path d="M493.276 2354.07 513 2347 493.276 2389 473 2347 493.276 2354.07Z" fill-rule="evenodd"/><path d="M125.117 454C103.514 454 85.9999 466.356 85.9999 481.598L85.9999 495.402C85.9999 510.644 103.514 523 125.117 523L636.884 523C658.486 523 676 510.644 676 495.402L676 481.598C676 466.356 658.486 454 636.884 454L125.117 454Z" stroke="#000000" stroke-width="1.72904" stroke-miterlimit="8" fill="#FFFFFF" fill-rule="evenodd"/><text font-family="Arial,Arial_MSFontService,sans-serif" font-weight="400" font-size="35" transform="matrix(1 0 0 1 98.9899 502)">Laatste bijhoudingsbericht in cyclus</text><path d="M683.5 489.5C683.5 493.366 680.366 496.5 676.5 496.5 672.634 496.5 669.5 493.366 669.5 489.5 669.5 485.634 672.634 482.5 676.5 482.5 680.366 482.5 683.5 485.634 683.5 489.5Z" stroke="#000000" stroke-width="1.23786" stroke-linecap="square" stroke-miterlimit="8" fill="#FFFFFF" fill-rule="evenodd"/><path d="M578.122 2529 578 2500.78C578 2485.54 590.503 2473.18 605.926 2473.18L634.309 2473 692 2473.23" stroke="#000000" stroke-width="2.29167" stroke-miterlimit="8" stroke-dasharray="12.8906 8.59375" fill="none" fill-rule="evenodd"/><path d="M703.501 2476C703.501 2480.14 700.142 2483.5 696 2483.5 691.858 2483.5 688.5 2480.14 688.5 2476 688.5 2471.86 691.858 2468.5 696 2468.5 700.142 2468.5 703.501 2471.86 703.501 2476Z" stroke="#000000" stroke-width="1.23786" stroke-linecap="square" stroke-miterlimit="8" fill="#FFFFFF" fill-rule="evenodd"/><path d="M646.057 2519C653.756 2519 660 2525.22 660 2532.92L660 2540.08C660 2547.76 653.756 2554 646.057 2554L517.947 2554C510.245 2554 504 2547.76 504 2540.08L504 2532.92C504 2525.22 510.245 2519 517.947 2519L646.057 2519Z" stroke="#000000" stroke-width="1.72904" stroke-miterlimit="8" fill="#FFFFFF" fill-rule="evenodd"/><text font-family="Arial,Arial_MSFontService,sans-serif" font-weight="400" font-size="24" transform="matrix(1 0 0 1 559.724 2546)">Null</text><path d="M1851.15 2117.16C1866.53 2117.16 1879 2129.7 1879 2145.16L1879 2159.16C1879 2174.63 1866.53 2187.16 1851.15 2187.16L1277.85 2187.16C1262.47 2187.16 1250 2174.63 1250 2159.16L1250 2145.16C1250 2129.7 1262.47 2117.16 1277.85 2117.16L1851.15 2117.16Z" stroke="#000000" stroke-width="1.72904" stroke-miterlimit="8" fill="#FFFFFF" fill-rule="evenodd"/><text font-family="Arial,Arial_MSFontService,sans-serif" font-weight="400" font-size="35" transform="matrix(1 0 0 1 1281.37 2168)">Laatste bericht succesvol verwerkt?</text><path d="M1577.05 2181.16C1584.76 2181.16 1591 2187.39 1591 2195.08L1591 2202.25C1591 2209.93 1584.76 2216.16 1577.05 2216.16L1448.94 2216.16C1441.24 2216.16 1435 2209.93 1435 2202.25L1435 2195.08C1435 2187.39 1441.24 2181.16 1448.94 2181.16L1577.05 2181.16Z" stroke="#000000" stroke-width="1.72904" stroke-miterlimit="8" fill="#FFFFFF" fill-rule="evenodd"/><text font-family="Arial,Arial_MSFontService,sans-serif" font-weight="400" font-size="24" transform="matrix(1 0 0 1 1501.25 2205)">Ja</text><path d="M0.119216 56.0933 0 27.771C0 12.4845 12.5939 0.0929107 28.1291 0.0929107L68.0001 0.315681" stroke="#000000" stroke-width="2.29167" stroke-miterlimit="8" fill="none" fill-rule="evenodd" transform="matrix(1 0 0 -1 803 2006)"/><path d="M0.119216 56.1188 0 27.7964C0 12.5099 12.5939 0.11838 28.1291 0.11838L68.0001 0.341151" stroke="#000000" stroke-width="2.29167" stroke-miterlimit="8" fill="none" fill-rule="evenodd" transform="matrix(1 0 0 -1 803 2157)"/><path d="M1288.16 304.502C1253.5 304.502 1253.5 339.399 1253.5 339.399L1253.5 374.603C1253.5 374.603 1253.5 409.5 1288.16 409.5 1325.66 409.5 1810.49 409.5 1844.84 409.5 1879.5 409.5 1879.5 374.603 1879.5 374.603L1879.43 339.357C1879.43 339.357 1879.5 304.5 1844.84 304.5 1810.16 304.502 1322.82 304.502 1288.16 304.502Z" stroke="#000000" stroke-width="1.22595" stroke-miterlimit="8" fill="#FFFFFF" fill-rule="evenodd"/><path d="M104.213 304.502C69.4999 304.502 69.4999 339.399 69.4999 339.399L69.4999 374.603C69.4999 374.603 69.4999 409.5 104.213 409.5 141.774 409.5 627.38 409.5 661.787 409.5 696.5 409.5 696.5 374.603 696.5 374.603L696.435 339.357C696.435 339.357 696.5 304.5 661.787 304.5 627.052 304.502 138.927 304.502 104.213 304.502Z" stroke="#000000" stroke-width="1.22595" stroke-miterlimit="8" fill="#FFFFFF" fill-rule="evenodd"/><text font-family="Arial,Arial_MSFontService,sans-serif" font-weight="700" font-size="39" transform="matrix(1 0 0 1 1301.38 348)">Gemeente, RNI, afnemer, </text><text font-family="Arial,Arial_MSFontService,sans-serif" font-weight="700" font-size="39" transform="matrix(1 0 0 1 1301.38 395)">RvIG of Minister van Justitie</text><text font-family="Arial,Arial_MSFontService,sans-serif" font-weight="700" font-size="39" transform="matrix(1 0 0 1 158.034 349)">Gemeente, RNI, RvIG of </text><text font-family="Arial,Arial_MSFontService,sans-serif" font-weight="700" font-size="39" transform="matrix(1 0 0 1 158.034 396)">Minister van Justitie</text><path d="M66 0C65.7126 595.733 65.4256 1191.47 65.1382 1787.2 65.1382 1798.13 61.0912 1808.6 53.9046 1816.27 46.7112 1823.94 36.9858 1828.16 26.892 1828L0 1827.78" stroke="#000000" stroke-width="2.29167" stroke-linecap="round" stroke-linejoin="round" stroke-miterlimit="10" fill="none" fill-rule="evenodd" transform="matrix(-1 0 0 1 869 489)"/><path d="M0.119216 56.0933 0 27.771C0 12.4845 12.5939 0.0929107 28.1291 0.0929107L68.0001 0.315681" stroke="#000000" stroke-width="2.29167" stroke-miterlimit="8" fill="none" fill-rule="evenodd" transform="matrix(1 0 0 -1 803 1851)"/><path d="M867.5 733.5 1078.5 733.5 1078.5 838.5 867.5 838.5Z" stroke="#000000" stroke-width="4.91211" stroke-miterlimit="8" fill="#FFFFFF" fill-rule="evenodd"/><path d="M867 732.365 917.147 783 1027.5 783 1078 732" stroke="#000000" stroke-width="1.72904" stroke-miterlimit="8" fill="none" fill-rule="evenodd"/><text font-family="Arial,Arial_MSFontService,sans-serif" font-weight="400" font-size="29" transform="matrix(1 0 0 1 942.185 773)">Ct01</text><path d="M867.5 438.5 1078.5 438.5 1078.5 544.5 867.5 544.5Z" stroke="#000000" stroke-width="4.91211" stroke-miterlimit="8" fill="#FFFFFF" fill-rule="evenodd"/><path d="M867 438.357 917.147 489.001 1027.5 489.001 1078 438" stroke="#000000" stroke-width="1.72904" stroke-miterlimit="8" fill="none" fill-rule="evenodd"/><text font-family="Arial,Arial_MSFontService,sans-serif" font-weight="400" font-size="29" transform="matrix(1 0 0 1 937.68 479)">Av01</text><path d="M867.5 886.5 1078.5 886.5 1078.5 991.5 867.5 991.5Z" stroke="#000000" stroke-width="4.91211" stroke-miterlimit="8" fill="#FFFFFF" fill-rule="evenodd"/><path d="M867 885.362 917.145 936 1027.5 936 1078 885" stroke="#000000" stroke-width="1.72904" stroke-miterlimit="8" fill="none" fill-rule="evenodd"/><text font-family="Arial,Arial_MSFontService,sans-serif" font-weight="400" font-size="29" transform="matrix(1 0 0 1 941.968 926)">Cw01</text><path d="M867.5 1191.5 1078.5 1191.5 1078.5 1297.5 867.5 1297.5Z" stroke="#000000" stroke-width="4.91211" stroke-miterlimit="8" fill="#FFFFFF" fill-rule="evenodd"/><text font-family="Arial,Arial_MSFontService,sans-serif" font-weight="400" font-size="29" transform="matrix(1 0 0 1 941.969 1232)">Dw01</text><path d="M867 1191.36 917.145 1242 1027.5 1242 1078 1191" stroke="#000000" stroke-width="1.72904" stroke-miterlimit="8" fill="none" fill-rule="evenodd"/><path d="M867.5 1344.5 1078.5 1344.5 1078.5 1450.5 867.5 1450.5Z" stroke="#000000" stroke-width="4.91211" stroke-miterlimit="8" fill="#FFFFFF" fill-rule="evenodd"/><path d="M867 1344.35 917.145 1394 1027.5 1394 1078 1344" stroke="#000000" stroke-width="1.72904" stroke-miterlimit="8" fill="none" fill-rule="evenodd"/><text font-family="Arial,Arial_MSFontService,sans-serif" font-weight="400" font-size="29" transform="matrix(1 0 0 1 941.704 1385)">Iv01</text><path d="M867.5 1497.47 1078.5 1497.47 1078.5 1603.47 867.5 1603.47Z" stroke="#000000" stroke-width="4.91211" stroke-miterlimit="8" fill="#FFFFFF" fill-rule="evenodd"/><text font-family="Arial,Arial_MSFontService,sans-serif" font-weight="400" font-size="29" transform="matrix(1 0 0 1 941.704 1538)">Jv01</text><path d="M867 1497.32 917.147 1546.97 1027.5 1546.97 1078 1496.97" stroke="#000000" stroke-width="1.72904" stroke-miterlimit="8" fill="none" fill-rule="evenodd"/><path d="M867.5 1038.5 1078.5 1038.5 1078.5 1144.5 867.5 1144.5Z" stroke="#000000" stroke-width="4.91211" stroke-miterlimit="8" fill="#FFFFFF" fill-rule="evenodd"/><path d="M867 1038.36 917.145 1089 1027.5 1089 1078 1038" stroke="#000000" stroke-width="1.72904" stroke-miterlimit="8" fill="none" fill-rule="evenodd"/><text font-family="Arial,Arial_MSFontService,sans-serif" font-weight="400" font-size="29" transform="matrix(1 0 0 1 941.968 1079)">Dt01</text><path d="M867.5 1803.59 1078.5 1803.59 1078.5 1909.59 867.5 1909.59Z" stroke="#000000" stroke-width="4.91211" stroke-miterlimit="8" fill="#FFFFFF" fill-rule="evenodd"/><path d="M867 1803.44 917.145 1853.09 1027.5 1853.09 1078 1803.09" stroke="#000000" stroke-width="1.72904" stroke-miterlimit="8" fill="none" fill-rule="evenodd"/><text font-family="Arial,Arial_MSFontService,sans-serif" font-weight="400" font-size="29" transform="matrix(1 0 0 1 941.703 1844)">Rv01</text><path d="M867.5 1956.62 1078.5 1956.62 1078.5 2062.62 867.5 2062.62Z" stroke="#000000" stroke-width="4.91211" stroke-miterlimit="8" fill="#FFFFFF" fill-rule="evenodd"/><path d="M867 1956.47 917.145 2006.12 1027.5 2006.12 1078 1956.12" stroke="#000000" stroke-width="1.72904" stroke-miterlimit="8" fill="none" fill-rule="evenodd"/><text font-family="Arial,Arial_MSFontService,sans-serif" font-weight="400" font-size="29" transform="matrix(1 0 0 1 941.703 1997)">Tb02</text><path d="M867.5 2109.66 1078.5 2109.66 1078.5 2214.66 867.5 2214.66Z" stroke="#000000" stroke-width="4.91211" stroke-miterlimit="8" fill="#FFFFFF" fill-rule="evenodd"/><path d="M867 2108.51 917.145 2159.16 1027.5 2159.16 1078 2108.16" stroke="#000000" stroke-width="1.72904" stroke-miterlimit="8" fill="none" fill-rule="evenodd"/><text font-family="Arial,Arial_MSFontService,sans-serif" font-weight="400" font-size="29" transform="matrix(1 0 0 1 941.703 2149)">Tv01</text><path d="M869.5 2262.66 1080.5 2262.66 1080.5 2367.66 869.5 2367.66Z" stroke="#000000" stroke-width="4.91211" stroke-miterlimit="8" fill="#FFFFFF" fill-rule="evenodd"/><path d="M869 2261.51 919.145 2312.16 1029.5 2312.16 1080 2261.16" stroke="#000000" stroke-width="1.72904" stroke-miterlimit="8" fill="none" fill-rule="evenodd"/><text font-family="Arial,Arial_MSFontService,sans-serif" font-weight="400" font-size="29" transform="matrix(1 0 0 1 943.929 2302)">Wa01</text><path d="M0.119216 56.0933 0 27.771C0 12.4845 12.5939 0.0929107 28.1291 0.0929107L68.0001 0.315681" stroke="#000000" stroke-width="2.29167" stroke-miterlimit="8" fill="none" fill-rule="evenodd" transform="matrix(1 0 0 -1 803 1699)"/><path d="M867.5 1650.47 1078.5 1650.47 1078.5 1756.47 867.5 1756.47Z" stroke="#000000" stroke-width="4.91211" stroke-miterlimit="8" fill="#FFFFFF" fill-rule="evenodd"/><text font-family="Arial,Arial_MSFontService,sans-serif" font-weight="400" font-size="29" transform="matrix(1 0 0 1 941.703 1691)">Og11</text><path d="M867 1650.32 917.147 1699.97 1027.5 1699.97 1078 1649.97" stroke="#000000" stroke-width="1.72904" stroke-miterlimit="8" fill="none" fill-rule="evenodd"/><path d="M866 781.301 822 770 822 792 866 781.301Z" fill-rule="evenodd"/><path d="M866 936.301 822 925 822 947 866 936.301Z" fill-rule="evenodd"/><path d="M866 1086.3 822 1075 822 1097 866 1086.3Z" fill-rule="evenodd"/><path d="M866 1240.3 822 1229 822 1251 866 1240.3Z" fill-rule="evenodd"/><path d="M866 1392.3 822 1381 822 1403 866 1392.3Z" fill-rule="evenodd"/><path d="M866 1547.3 822 1536 822 1558 866 1547.3Z" fill-rule="evenodd"/><path d="M866 1698.3 822 1687 822 1709 866 1698.3Z" fill-rule="evenodd"/><path d="M866 1851.3 822 1840 822 1862 866 1851.3Z" fill-rule="evenodd"/><path d="M866 2005.3 822 1994 822 2016 866 2005.3Z" fill-rule="evenodd"/><path d="M866 2157.3 822 2146 822 2168 866 2157.3Z" fill-rule="evenodd"/><path d="M869 2316.3 826 2305 826 2327 869 2316.3Z" fill-rule="evenodd"/><path d="M1147 523C1146.71 1109.28 1146.42 1695.56 1146.13 2281.85 1146.13 2292.6 1142.02 2302.91 1134.72 2310.45 1127.42 2318 1117.55 2322.16 1107.3 2322L1080 2321.78" stroke="#000000" stroke-width="2.29167" stroke-linecap="round" stroke-linejoin="round" stroke-miterlimit="10" fill="none" fill-rule="evenodd"/><path d="M0.117463 57.0001 0 28.1731C0 12.6146 12.4087 0 27.7154 0L67 0.222724" stroke="#000000" stroke-width="2.29167" stroke-miterlimit="8" fill="none" fill-rule="evenodd" transform="matrix(-1 0 0 1 1147 483)"/><path d="M1251 2155.3 1208 2144 1208 2166 1251 2155.3Z" fill-rule="evenodd"/><path d="M0 0 173.06 1.10577" stroke="#000000" stroke-width="2.29167" stroke-miterlimit="8" fill="none" fill-rule="evenodd" transform="matrix(-1 0 0 1 1250.06 2156)"/><path d="M0.119216 57.0001 0 28.1731C0 12.6146 12.5939 0 28.1291 0L68.0001 0.222724" stroke="#000000" stroke-width="2.29167" stroke-miterlimit="8" fill="none" fill-rule="evenodd" transform="matrix(-1 0 0 1 1147 779)"/><path d="M0.119216 57.0001 0 28.1731C0 12.6146 12.5939 0 28.1291 0L68.0001 0.222724" stroke="#000000" stroke-width="2.29167" stroke-miterlimit="8" fill="none" fill-rule="evenodd" transform="matrix(-1 0 0 1 1147 935)"/><path d="M0.119216 56 0 27.6788C0 12.3932 12.5939 0 28.1291 0L68.0001 0.218816" stroke="#000000" stroke-width="2.29167" stroke-miterlimit="8" fill="none" fill-rule="evenodd" transform="matrix(-1 0 0 1 1147 1088)"/><path d="M0.117463 56 0 27.6788C0 12.3932 12.4087 0 27.7154 0L67 0.218816" stroke="#000000" stroke-width="2.29167" stroke-miterlimit="8" fill="none" fill-rule="evenodd" transform="matrix(-1 0 0 1 1147 1238)"/><path d="M0.117463 56 0 27.6788C0 12.3932 12.4087 0 27.7154 0L67 0.218816" stroke="#000000" stroke-width="2.29167" stroke-miterlimit="8" fill="none" fill-rule="evenodd" transform="matrix(-1 0 0 1 1147 1393)"/><path d="M0.117463 56 0 27.6788C0 12.3932 12.4087 0 27.7154 0L67 0.218816" stroke="#000000" stroke-width="2.29167" stroke-miterlimit="8" fill="none" fill-rule="evenodd" transform="matrix(-1 0 0 1 1147 1549)"/><path d="M0.117463 55.9997 0 27.6786C0 12.3932 12.4087 0 27.7154 0L67 0.218815" stroke="#000000" stroke-width="2.29167" stroke-miterlimit="8" fill="none" fill-rule="evenodd" transform="matrix(-1 0 0 1 1147 1699)"/><path d="M0.117463 57.0001 0 28.1731C0 12.6146 12.4087 0 27.7154 0L67 0.222724" stroke="#000000" stroke-width="2.29167" stroke-miterlimit="8" fill="none" fill-rule="evenodd" transform="matrix(-1 0 0 1 1147 1849)"/><path d="M0.117463 56 0 27.6788C0 12.3932 12.4087 0 27.7154 0L67 0.218816" stroke="#000000" stroke-width="2.29167" stroke-miterlimit="8" fill="none" fill-rule="evenodd" transform="matrix(-1 0 0 1 1147 2005)"/><path d="M0.117463 55.9997 0 27.6786C0 12.3932 12.4087 0 27.7154 0L67 0.218815" stroke="#000000" stroke-width="2.29167" stroke-miterlimit="8" fill="none" fill-rule="evenodd" transform="matrix(1 0 0 -1 802 633)"/><path d="M867.5 585.5 1078.5 585.5 1078.5 690.5 867.5 690.5Z" stroke="#000000" stroke-width="4.91211" stroke-miterlimit="8" fill="#FFFFFF" fill-rule="evenodd"/><path d="M867 584.365 917.147 635 1027.5 635 1078 584" stroke="#000000" stroke-width="1.72904" stroke-miterlimit="8" fill="none" fill-rule="evenodd"/><text font-family="Arial,Arial_MSFontService,sans-serif" font-weight="400" font-size="29" transform="matrix(1 0 0 1 941.968 625)">Cb01</text><path d="M865 633.301 822 622 822 644 865 633.301Z" fill-rule="evenodd"/><path d="M0.119216 56.9997 0 28.1729C0 12.6145 12.5939 0 28.1291 0L68.0001 0.222722" stroke="#000000" stroke-width="2.29167" stroke-miterlimit="8" fill="none" fill-rule="evenodd" transform="matrix(-1 0 0 1 1148 631)"/></g></svg>