<svg width="1950" height="184" xmlns="http://www.w3.org/2000/svg" xmlns:xlink="http://www.w3.org/1999/xlink" xml:space="preserve" overflow="hidden"><g transform="matrix(1 0 0 1 0 -1336)"><path d="M1141.88 1394C1141.88 1394 1824.16 1394.55 1887.12 1394 1950.1 1393.46 1949 1455.98 1949 1455.98 1949 1455.98 1948.45 1517.42 1887.12 1518.51 1825.8 1519.61 1203.21 1518.51 1141.88 1518.51 1080 1518.51 1080 1455.98 1080 1455.98 1080 1455.98 1080 1394 1141.88 1394Z" stroke="#000000" stroke-width="2.18701" stroke-miterlimit="8" fill-rule="evenodd"/><path d="M1119.88 1372C1119.88 1372 1802.16 1372.55 1865.12 1372 1928.1 1371.46 1927 1433.98 1927 1433.98 1927 1433.98 1926.45 1495.42 1865.12 1496.51 1803.8 1497.61 1181.21 1496.51 1119.88 1496.51 1058 1496.51 1058 1433.98 1058 1433.98 1058 1433.98 1058 1372 1119.88 1372Z" stroke="#000000" stroke-width="4.37402" stroke-miterlimit="8" fill="#FFFFFF" fill-rule="evenodd"/><text font-family="Arial,Arial_MSFontService,sans-serif" font-weight="400" font-size="70" transform="matrix(1 0 0 1 1119.9 1457)">21 Verwijzing</text><path d="M2.00007 1373 623 1373 623 1497 2.00007 1497Z" stroke="#000000" stroke-width="4.37402" stroke-miterlimit="8" fill="#FFFFFF" fill-rule="evenodd"/><text font-family="Arial,Arial_MSFontService,sans-serif" font-weight="400" font-size="70" transform="matrix(1 0 0 1 63.9938 1462)">Verwijzing</text><path d="M623 1436 1057 1435" stroke="#000000" stroke-width="4.37402" stroke-miterlimit="8" fill="none" fill-rule="evenodd"/><text font-family="Arial,Arial_MSFontService,sans-serif" font-weight="400" font-size="63" transform="matrix(1 0 0 1 916.633 1417)">1</text></g></svg>