<svg width="1949" height="1532" xmlns="http://www.w3.org/2000/svg" xmlns:xlink="http://www.w3.org/1999/xlink" xml:space="preserve" overflow="hidden"><g transform="translate(1 -673)"><path d="M308 1329 444.657 1328 547 1329" stroke="#000000" stroke-width="2.40571" stroke-miterlimit="8" fill-rule="evenodd"/><path d="M581.036 681.002C581.036 681.002 1878.33 681.3 1912.97 681.002 1947.6 680.704 1947 715.019 1947 715.019 1947 715.019 1946.71 748.14 1912.97 748.735 1879.23 749.331 614.776 748.735 581.036 748.735 547 748.735 547 714.721 547 714.721 547 714.721 546.998 681.002 581.036 681.002Z" stroke="#000000" stroke-width="1.68392" stroke-miterlimit="8" fill="#FFFFFF" fill-rule="evenodd"/><text font-family="Arial,Arial_MSFontService,sans-serif" font-weight="400" font-size="39" transform="matrix(1 0 0 1 580.966 727)">32 Nationaliteitentabel</text><path d="M581.036 783.002C581.036 783.002 1878.33 783.304 1912.97 783.002 1947.6 782.7 1947 817.518 1947 817.518 1947 817.518 1946.71 851.127 1912.97 851.732 1879.23 852.336 614.776 851.732 581.036 851.732 547 851.732 547 817.214 547 817.214 547 817.214 546.998 783.002 581.036 783.002Z" stroke="#000000" stroke-width="1.68392" stroke-miterlimit="8" fill="#FFFFFF" fill-rule="evenodd"/><text font-family="Arial,Arial_MSFontService,sans-serif" font-weight="400" font-size="39" transform="matrix(1 0 0 1 580.966 829)">33 Gemeententabel</text><path d="M581.036 886C581.036 886 1878.33 886.598 1912.97 886.298 1947.6 886 1947 920.016 1947 920.016 1947 920.016 1946.71 953.14 1912.97 953.735 1879.23 954.331 614.776 953.735 581.036 953.735 547 953.735 547 919.719 547 919.719 547 919.719 546.998 886 581.036 886Z" stroke="#000000" stroke-width="1.68392" stroke-miterlimit="8" fill="#FFFFFF" fill-rule="evenodd"/><text font-family="Arial,Arial_MSFontService,sans-serif" font-weight="400" font-size="39" transform="matrix(1 0 0 1 580.966 931)">34 Landentabel</text><path d="M581.036 988C581.036 988 1878.33 988.607 1912.97 988.302 1947.6 988 1947 1022.52 1947 1022.52 1947 1022.52 1946.71 1056.13 1912.97 1056.73 1879.23 1057.34 614.776 1056.73 581.036 1056.73 547 1056.73 547 1022.21 547 1022.21 547 1022.21 546.998 988 581.036 988Z" stroke="#000000" stroke-width="1.68392" stroke-miterlimit="8" fill="#FFFFFF" fill-rule="evenodd"/><text font-family="Arial,Arial_MSFontService,sans-serif" font-weight="400" font-size="39" transform="matrix(1 0 0 1 580.966 1034)">35 Autorisatietabel</text><path d="M581.036 1090C581.036 1090 1878.33 1090.6 1912.97 1090.3 1947.6 1090 1947 1124.4 1947 1124.4 1947 1124.4 1946.71 1158.19 1912.97 1158.79 1879.23 1159.4 614.776 1158.49 581.036 1158.49 547 1158.49 547 1124.09 547 1124.09 547 1124.09 546.998 1090 581.036 1090Z" stroke="#000000" stroke-width="1.68392" stroke-miterlimit="8" fill="#FFFFFF" fill-rule="evenodd"/><text font-family="Arial,Arial_MSFontService,sans-serif" font-weight="400" font-size="39" transform="matrix(1 0 0 1 580.965 1136)">36 Voorvoegseltabel</text><path d="M581.036 1193C581.036 1193 1878.33 1193.6 1912.97 1193.3 1947.6 1193 1947 1227.4 1947 1227.4 1947 1227.4 1946.71 1261.19 1912.97 1261.79 1879.23 1262.4 614.776 1261.49 581.036 1261.49 547 1261.49 547 1227.09 547 1227.09 547 1227.09 546.998 1193 581.036 1193Z" stroke="#000000" stroke-width="1.68392" stroke-miterlimit="8" fill="#FFFFFF" fill-rule="evenodd"/><text font-family="Arial,Arial_MSFontService,sans-serif" font-weight="400" font-size="39" transform="matrix(1 0 0 1 580.965 1239)">37 Reden opnemen/beëindigen nationaliteit</text><path d="M581.036 1295C581.036 1295 1878.33 1295.6 1912.97 1295.3 1947.6 1295 1947 1329.7 1947 1329.7 1947 1329.7 1946.71 1363.19 1912.97 1363.79 1879.23 1364.4 614.776 1363.49 581.036 1363.49 547 1363.49 547 1329.09 547 1329.09 547 1329.09 546.998 1295 581.036 1295Z" stroke="#000000" stroke-width="1.68392" stroke-miterlimit="8" fill="#FFFFFF" fill-rule="evenodd"/><text font-family="Arial,Arial_MSFontService,sans-serif" font-weight="400" font-size="39" transform="matrix(1 0 0 1 580.965 1341)">38 Adellijke titel/predikaat</text><path d="M581.036 1398C581.036 1398 1878.33 1398.6 1912.97 1398.3 1947.6 1398 1947 1432.2 1947 1432.2 1947 1432.2 1946.71 1465.2 1912.97 1465.8 1879.23 1466.39 614.776 1465.5 581.036 1465.5 547 1465.5 547 1431.6 547 1431.6 547 1431.6 546.998 1398 581.036 1398Z" stroke="#000000" stroke-width="1.68392" stroke-miterlimit="8" fill="#FFFFFF" fill-rule="evenodd"/><text font-family="Arial,Arial_MSFontService,sans-serif" font-weight="400" font-size="39" transform="matrix(1 0 0 1 580.965 1444)">39 Akte</text><text font-family="Arial,Arial_MSFontService,sans-serif" font-weight="400" font-size="39" transform="matrix(1 0 0 1 711.59 1444)">-</text><text font-family="Arial,Arial_MSFontService,sans-serif" font-weight="400" font-size="39" transform="matrix(1 0 0 1 724.194 1444)">aanduiding</text><path d="M581.036 1500C581.036 1500 1878.33 1500.3 1912.97 1500 1947.6 1499.7 1947 1534.52 1947 1534.52 1947 1534.52 1946.71 1568.13 1912.97 1568.73 1879.23 1569.34 614.776 1568.73 581.036 1568.73 547 1568.73 547 1534.21 547 1534.21 547 1534.21 546.998 1500 581.036 1500Z" stroke="#000000" stroke-width="1.68392" stroke-miterlimit="8" fill="#FFFFFF" fill-rule="evenodd"/><text font-family="Arial,Arial_MSFontService,sans-serif" font-weight="400" font-size="39" transform="matrix(1 0 0 1 580.965 1546)">41 Reden ontbinding/nietigverklaring huwelijk/geregistreerd partnerschap</text><path d="M581.036 1603C581.036 1603 1878.33 1603.6 1912.97 1603.3 1947.6 1603 1947 1637.02 1947 1637.02 1947 1637.02 1946.71 1670.14 1912.97 1670.74 1879.23 1671.33 614.776 1670.74 581.036 1670.74 547 1670.74 547 1636.72 547 1636.72 547 1636.72 546.998 1603 581.036 1603Z" stroke="#000000" stroke-width="1.68392" stroke-miterlimit="8" fill="#FFFFFF" fill-rule="evenodd"/><text font-family="Arial,Arial_MSFontService,sans-serif" font-weight="400" font-size="39" transform="matrix(1 0 0 1 580.965 1649)">48 Nederlands reisdocument</text><path d="M581.036 1705C581.036 1705 1878.33 1705.6 1912.97 1705.3 1947.6 1705 1947 1739.4 1947 1739.4 1947 1739.4 1946.71 1773.19 1912.97 1773.79 1879.23 1774.4 614.776 1773.49 581.036 1773.49 547 1773.49 547 1739.09 547 1739.09 547 1739.09 546.998 1705 581.036 1705Z" stroke="#000000" stroke-width="1.68392" stroke-miterlimit="8" fill="#FFFFFF" fill-rule="evenodd"/><text font-family="Arial,Arial_MSFontService,sans-serif" font-weight="400" font-size="39" transform="matrix(1 0 0 1 580.965 1751)">49 Autoriteit van afgifte Nederlands reisdocument</text><path d="M581.036 1807C581.036 1807 1878.63 1807.3 1912.97 1807.3 1947 1807.3 1947 1841.4 1947 1841.4 1947 1841.4 1946.71 1875.19 1912.97 1875.79 1879.23 1876.4 614.776 1875.49 581.036 1875.49 547 1875.49 547 1841.09 547 1841.09 547 1841.09 546.998 1807 581.036 1807Z" stroke="#000000" stroke-width="1.68392" stroke-miterlimit="8" fill="#FFFFFF" fill-rule="evenodd"/><text font-family="Arial,Arial_MSFontService,sans-serif" font-weight="400" font-size="39" transform="matrix(1 0 0 1 580.965 1854)">56 Verblijfstiteltabel</text><path d="M0 1295 308 1295 308 1364 0 1364Z" stroke="#000000" stroke-width="1.68392" stroke-miterlimit="8" fill="#FFFFFF" fill-rule="evenodd"/><text font-family="Arial,Arial_MSFontService,sans-serif" font-weight="400" font-size="39" transform="matrix(1 0 0 1 34.6063 1341)">Tabellen</text><path d="M410 816 547 817" stroke="#000000" stroke-width="2.40571" stroke-miterlimit="8" fill="none" fill-rule="evenodd"/><path d="M410 919 547 920" stroke="#000000" stroke-width="2.40571" stroke-miterlimit="8" fill="none" fill-rule="evenodd"/><path d="M410 1021 547 1022" stroke="#000000" stroke-width="2.40571" stroke-miterlimit="8" fill="none" fill-rule="evenodd"/><path d="M410 1123 547 1124" stroke="#000000" stroke-width="2.40571" stroke-miterlimit="8" fill="none" fill-rule="evenodd"/><path d="M410 1226 547 1227" stroke="#000000" stroke-width="2.40571" stroke-miterlimit="8" fill="none" fill-rule="evenodd"/><path d="M410 1431 547 1431" stroke="#000000" stroke-width="2.40571" stroke-miterlimit="8" fill="none" fill-rule="evenodd"/><path d="M410 1533 547 1533" stroke="#000000" stroke-width="2.40571" stroke-miterlimit="8" fill="none" fill-rule="evenodd"/><path d="M410 1636 547 1636" stroke="#000000" stroke-width="2.40571" stroke-miterlimit="8" fill="none" fill-rule="evenodd"/><path d="M410 1738 547 1738" stroke="#000000" stroke-width="2.40571" stroke-miterlimit="8" fill="none" fill-rule="evenodd"/><path d="M547 715.061 410 714 410 2157" stroke="#000000" stroke-width="2.40571" stroke-miterlimit="8" fill="none" fill-rule="evenodd"/><path d="M409 1838 546 1838" stroke="#000000" stroke-width="2.40571" stroke-miterlimit="8" fill="none" fill-rule="evenodd"/><path d="M579.036 1921C579.036 1921 1876.33 1921.61 1910.97 1921.3 1945.6 1921 1945 1955.52 1945 1955.52 1945 1955.52 1944.71 1989.13 1910.97 1989.73 1877.23 1990.34 612.776 1989.73 579.036 1989.73 545 1989.73 545 1955.21 545 1955.21 545 1955.21 544.998 1921 579.036 1921Z" stroke="#000000" stroke-width="1.68392" stroke-miterlimit="8" fill="#FFFFFF" fill-rule="evenodd"/><text font-family="Arial,Arial_MSFontService,sans-serif" font-weight="400" font-size="39" transform="matrix(1 0 0 1 578.674 1967)">59 BRP</text><text font-family="Arial,Arial_MSFontService,sans-serif" font-weight="400" font-size="39" transform="matrix(1 0 0 1 711.59 1967)">-</text><text font-family="Arial,Arial_MSFontService,sans-serif" font-weight="400" font-size="39" transform="matrix(1 0 0 1 724.194 1967)">deelnemers</text><path d="M579.036 2024C579.036 2024 1876.33 2024.6 1910.97 2024.3 1945.6 2024 1945 2057.9 1945 2057.9 1945 2057.9 1944.71 2091.2 1910.97 2091.8 1877.23 2092.39 612.776 2091.5 579.036 2091.5 545 2091.5 545 2057.6 545 2057.6 545 2057.6 544.998 2024 579.036 2024Z" stroke="#000000" stroke-width="1.68392" stroke-miterlimit="8" fill="#FFFFFF" fill-rule="evenodd"/><text font-family="Arial,Arial_MSFontService,sans-serif" font-weight="400" font-size="39" transform="matrix(1 0 0 1 578.674 2070)">60 RNI</text><text font-family="Arial,Arial_MSFontService,sans-serif" font-weight="400" font-size="39" transform="matrix(1 0 0 1 698.986 2070)">-</text><text font-family="Arial,Arial_MSFontService,sans-serif" font-weight="400" font-size="39" transform="matrix(1 0 0 1 711.591 2070)">deelnemers</text><path d="M579.036 2126C579.036 2126 1876.63 2126.3 1910.97 2126.3 1945 2126.3 1945 2160.39 1945 2160.39 1945 2160.39 1944.71 2194.19 1910.97 2194.79 1877.23 2195.4 612.776 2194.49 579.036 2194.49 545 2194.49 545 2160.09 545 2160.09 545 2160.09 544.998 2126 579.036 2126Z" stroke="#000000" stroke-width="1.68392" stroke-miterlimit="8" fill="#FFFFFF" fill-rule="evenodd"/><text font-family="Arial,Arial_MSFontService,sans-serif" font-weight="400" font-size="39" transform="matrix(1 0 0 1 578.674 2173)">61 </text><text font-family="Arial,Arial_MSFontService,sans-serif" font-weight="400" font-size="39" transform="matrix(1 0 0 1 631.955 2173)">Gezagsverhoudingtabel</text><path d="M408 1954 545 1954" stroke="#000000" stroke-width="2.40571" stroke-miterlimit="8" fill="none" fill-rule="evenodd"/><path d="M408 2057 545 2057" stroke="#000000" stroke-width="2.40571" stroke-miterlimit="8" fill="none" fill-rule="evenodd"/><path d="M407 2157 544 2157" stroke="#000000" stroke-width="2.40571" stroke-miterlimit="8" fill="none" fill-rule="evenodd"/></g></svg>