<svg width="439" height="112" xmlns="http://www.w3.org/2000/svg" xmlns:xlink="http://www.w3.org/1999/xlink" overflow="hidden"><defs><clipPath id="clip0"><rect x="214" y="511" width="439" height="112"/></clipPath></defs><g clip-path="url(#clip0)" transform="translate(-214 -511)"><text font-family="Arial,Arial_MSFontService,Arial" font-weight="400" font-size="20" transform="translate(494.005 546)">ELN<tspan font-size="20" x="54.785" y="0">ELL</tspan><tspan font-size="20" x="110.693" y="0">ELI</tspan></text><path d="M648 579.652 631 574 631 585Z" fill-rule="evenodd"/><path d="M595 579.652 613 574 613 585Z" fill-rule="evenodd"/><text font-family="Arial,Arial_MSFontService,Arial" font-weight="400" font-size="20" transform="translate(555.903 586)">=&gt;</text><path d="M342.5 600.5 636.5 600.5" stroke="#000000" stroke-width="1.24997" stroke-miterlimit="8" fill="none" fill-rule="evenodd"/><path d="M542.5 511.5 542.5 564.5" stroke="#000000" stroke-width="0.874961" stroke-miterlimit="8" fill="none" fill-rule="evenodd"/><path d="M595.5 511.5 595.5 564.5" stroke="#000000" stroke-width="0.874961" stroke-miterlimit="8" fill="none" fill-rule="evenodd"/><text font-family="Arial,Arial_MSFontService,Arial" font-weight="400" font-size="20" transform="translate(334.63 546)">ELN<tspan font-size="20" x="54.785" y="0">ELL</tspan><tspan font-size="20" x="110.693" y="0">ELI</tspan></text><path d="M489 579.652 471 574 471 585Z" fill-rule="evenodd"/><path d="M436 579.652 454 574 454 585Z" fill-rule="evenodd"/><text font-family="Arial,Arial_MSFontService,Arial" font-weight="400" font-size="20" transform="translate(396.528 586)">=&gt;</text><path d="M447.5 580.5 477.5 580.5" stroke="#000000" stroke-width="1.24997" stroke-miterlimit="8" fill="none" fill-rule="evenodd"/><path d="M383.5 511.5 383.5 564.5" stroke="#000000" stroke-width="0.874961" stroke-miterlimit="8" fill="none" fill-rule="evenodd"/><path d="M436.5 511.5 436.5 564.5" stroke="#000000" stroke-width="0.874961" stroke-miterlimit="8" fill="none" fill-rule="evenodd"/><path d="M489.5 511.5 489.5 564.5" stroke="#000000" stroke-width="0.874961" stroke-miterlimit="8" fill="none" fill-rule="evenodd"/><text font-family="Arial,Arial_MSFontService,Arial" font-weight="400" font-size="20" transform="translate(226.72 546)">CAN<tspan font-size="20" x="54.7852" y="0">CAL</tspan></text><path d="M276.5 511.5 276.5 564.5" stroke="#000000" stroke-width="0.874961" stroke-miterlimit="8" fill="none" fill-rule="evenodd"/><path d="M330.5 511.5 330.5 564.5" stroke="#000000" stroke-width="0.874961" stroke-miterlimit="8" fill="none" fill-rule="evenodd"/><path d="M223.5 511.5 648.5 511.5 648.5 564.5 223.5 564.5Z" stroke="#000000" stroke-width="0.874961" stroke-miterlimit="8" fill="none" fill-rule="evenodd"/><text font-family="Arial,Arial_MSFontService,Arial" font-weight="400" font-size="20" transform="translate(290.279 606)">=&gt;</text><path d="M330 599.651 347 594 347 605Z" fill-rule="evenodd"/><path d="M649 599.651 631 594 631 605Z" fill-rule="evenodd"/><path d="M607.5 580.5 637.5 580.5" stroke="#000000" stroke-width="1.24997" stroke-miterlimit="8" fill="none" fill-rule="evenodd"/></g></svg>