<svg width="1949" height="1151" xmlns="http://www.w3.org/2000/svg" xmlns:xlink="http://www.w3.org/1999/xlink" xml:space="preserve" overflow="hidden"><g transform="translate(-1 -927)"><path d="M891.379 965.002C891.379 965.002 1852 965.428 1900.93 965.002 1949.85 964.578 1949 1014.8 1949 1014.8 1949 1014.8 1948.57 1060.77 1900.93 1061.62 1853.28 1062.47 939.032 1061.62 891.379 1061.62 843.306 1061.62 845.008 1009.69 845.008 1009.69 845.008 1009.69 843.306 965.002 891.379 965.002Z" stroke="#000000" stroke-width="1.69836" stroke-miterlimit="8" fill-rule="evenodd"/><path d="M869.503 948.003C869.503 948.003 1833.57 948.428 1882.5 948.003 1931.42 947.578 1931 996.525 1931 996.525 1931 996.525 1930.15 1043.77 1882.5 1044.62 1834.85 1045.47 917.158 1044.62 869.503 1044.62 821.427 1044.62 821 996.525 821 996.525 821 996.525 821.427 948.003 869.503 948.003Z" stroke="#000000" stroke-width="2.37756" stroke-miterlimit="8" fill="#FFFFFF" fill-rule="evenodd"/><text font-family="Arial,Arial_MSFontService,sans-serif" font-weight="400" font-size="54" transform="matrix(1 0 0 1 869.694 1016)">01 Persoon</text><path d="M892.043 1110C892.043 1110 1852.06 1110.43 1900.96 1110 1949.85 1109.58 1949 1158.1 1949 1158.1 1949 1158.1 1948.57 1205.77 1900.96 1206.62 1853.34 1207.47 939.667 1206.62 892.043 1206.62 844 1206.62 844 1159.8 844 1159.8 844 1159.8 844 1110 892.043 1110Z" stroke="#000000" stroke-width="1.69836" stroke-miterlimit="8" fill-rule="evenodd"/><path d="M869.503 1094C869.503 1094 1833.57 1094.43 1882.5 1094 1931.42 1093.58 1931 1142.14 1931 1142.14 1931 1142.14 1930.15 1189.85 1882.5 1190.71 1834.85 1191.56 917.158 1190.28 869.503 1190.28 821.427 1190.28 821 1142.14 821 1142.14 821 1142.14 821.427 1094 869.503 1094Z" stroke="#000000" stroke-width="2.37756" stroke-miterlimit="8" fill="#FFFFFF" fill-rule="evenodd"/><text font-family="Arial,Arial_MSFontService,sans-serif" font-weight="400" font-size="54" transform="matrix(1 0 0 1 869.694 1164)">04 Nationaliteit</text><path d="M893.744 1253C893.744 1253 1852.06 1253.43 1900.96 1253 1949.85 1252.57 1949 1301.45 1949 1301.45 1949 1301.45 1948.57 1347.76 1900.96 1348.62 1853.34 1349.48 939.667 1348.62 892.043 1348.62 844 1348.62 844 1303.17 844 1303.17 844 1303.17 845.701 1253 893.744 1253Z" stroke="#000000" stroke-width="1.69836" stroke-miterlimit="8" fill-rule="evenodd"/><path d="M869.503 1237C869.503 1237 1833.57 1237.43 1882.5 1237 1931.42 1236.58 1931 1285.53 1931 1285.53 1931 1285.53 1930.15 1332.77 1882.5 1333.62 1834.85 1334.47 917.158 1333.62 869.503 1333.62 821.427 1333.62 821 1285.1 821 1285.1 821 1285.1 821.427 1237 869.503 1237Z" stroke="#000000" stroke-width="2.37756" stroke-miterlimit="8" fill="#FFFFFF" fill-rule="evenodd"/><text font-family="Arial,Arial_MSFontService,sans-serif" font-weight="400" font-size="54" transform="matrix(1 0 0 1 869.694 1305)">06 Overlijden</text><path d="M869.503 1381C869.503 1381 1833.57 1381.43 1882.5 1381 1931.42 1380.58 1931 1429.53 1931 1429.53 1931 1429.53 1930.15 1476.77 1882.5 1477.62 1834.85 1478.47 917.158 1477.62 869.503 1477.62 821.427 1477.62 821 1429.53 821 1429.53 821 1429.53 821.427 1381 869.503 1381Z" stroke="#000000" stroke-width="2.37756" stroke-miterlimit="8" fill="#FFFFFF" fill-rule="evenodd"/><text font-family="Arial,Arial_MSFontService,sans-serif" font-weight="400" font-size="54" transform="matrix(1 0 0 1 869.694 1450)">07 Inschrijving</text><path d="M892.043 1543C892.043 1543 1852.06 1543.42 1900.96 1543 1949.85 1542.58 1949 1590.6 1949 1590.6 1949 1590.6 1948.57 1637.78 1900.96 1638.62 1853.34 1639.47 939.667 1638.62 892.043 1638.62 844 1638.62 844 1592.29 844 1592.29 844 1592.29 844 1543 892.043 1543Z" stroke="#000000" stroke-width="1.69836" stroke-miterlimit="8" fill-rule="evenodd"/><path d="M869.503 1526C869.503 1526 1833.57 1526.43 1882.5 1526 1931.42 1525.58 1931 1574.53 1931 1574.53 1931 1574.53 1930.15 1621.77 1882.5 1622.62 1834.85 1623.47 917.158 1622.62 869.503 1622.62 821.427 1622.62 821 1574.53 821 1574.53 821 1574.53 821.427 1526 869.503 1526Z" stroke="#000000" stroke-width="2.37756" stroke-miterlimit="8" fill="#FFFFFF" fill-rule="evenodd"/><text font-family="Arial,Arial_MSFontService,sans-serif" font-weight="400" font-size="54" transform="matrix(1 0 0 1 869.694 1595)">08 Verblijfplaats</text><path d="M892.043 1688C892.043 1688 1852.06 1688.43 1900.96 1688 1949.85 1687.58 1949 1736.1 1949 1736.1 1949 1736.1 1948.57 1783.77 1900.96 1784.62 1853.34 1785.47 939.667 1784.62 892.043 1784.62 844 1784.62 844 1736.1 844 1736.1 844 1736.1 844 1688 892.043 1688Z" stroke="#000000" stroke-width="1.69836" stroke-miterlimit="8" fill-rule="evenodd"/><path d="M869.503 1671C869.503 1671 1833.57 1671.43 1882.5 1671 1931.42 1670.58 1931 1719.14 1931 1719.14 1931 1719.14 1930.15 1766.85 1882.5 1767.71 1834.85 1768.56 917.158 1767.28 869.503 1767.28 821.427 1767.28 821 1719.14 821 1719.14 821 1719.14 821.427 1671 869.503 1671Z" stroke="#000000" stroke-width="2.37756" stroke-miterlimit="8" fill="#FFFFFF" fill-rule="evenodd"/><text font-family="Arial,Arial_MSFontService,sans-serif" font-weight="400" font-size="54" transform="matrix(1 0 0 1 869.694 1740)">10 Verblijfstitel</text><path d="M2.00007 1381 484 1381 484 1477 2.00007 1477Z" stroke="#000000" stroke-width="2.37756" stroke-miterlimit="8" fill="#FFFFFF" fill-rule="evenodd"/><text font-family="Arial,Arial_MSFontService,sans-serif" font-weight="400" font-size="54" transform="matrix(1 0 0 1 50.1716 1446)">Persoonslijst</text><path d="M629.5 1142.5 821.5 1142.5" stroke="#000000" stroke-width="3.39672" stroke-miterlimit="8" fill="none" fill-rule="evenodd"/><text font-family="Arial,Arial_MSFontService,sans-serif" font-weight="400" font-size="49" transform="matrix(1 0 0 1 683.513 1128)">0, n</text><path d="M629.5 1285.5 821.5 1285.5" stroke="#000000" stroke-width="3.39672" stroke-miterlimit="8" fill="none" fill-rule="evenodd"/><text font-family="Arial,Arial_MSFontService,sans-serif" font-weight="400" font-size="49" transform="matrix(1 0 0 1 683.513 1271)">0, 1</text><path d="M629.5 1572.5 821.5 1572.5" stroke="#000000" stroke-width="3.39672" stroke-miterlimit="8" fill="none" fill-rule="evenodd"/><text font-family="Arial,Arial_MSFontService,sans-serif" font-weight="400" font-size="49" transform="matrix(1 0 0 1 711.85 991)">1</text><path d="M484.5 1429.5 628.924 1429.5 820.5 1429.5" stroke="#000000" stroke-width="3.39672" stroke-miterlimit="8" fill="none" fill-rule="evenodd"/><text font-family="Arial,Arial_MSFontService,sans-serif" font-weight="400" font-size="49" transform="matrix(1 0 0 1 711.85 1561)">1</text><text font-family="Arial,Arial_MSFontService,sans-serif" font-weight="400" font-size="49" transform="matrix(1 0 0 1 683.513 1705)">0, 1</text><path d="M821.5 1000.5 629.5 1000.5 629.5 2013.5 821.5 2013.5" stroke="#000000" stroke-width="3.39672" stroke-miterlimit="8" fill="none" fill-rule="evenodd"/><path d="M891.043 1834C891.043 1834 1851.06 1834.43 1899.96 1834 1948.85 1833.58 1948 1882.1 1948 1882.1 1948 1882.1 1947.57 1929.77 1899.96 1930.62 1852.34 1931.47 938.667 1930.62 891.043 1930.62 843 1930.62 843 1883.8 843 1883.8 843 1883.8 843 1834 891.043 1834Z" stroke="#000000" stroke-width="1.69836" stroke-miterlimit="8" fill-rule="evenodd"/><path d="M869.459 1817C869.459 1817 1832.66 1817.43 1881.54 1817 1930.42 1816.58 1930 1865.53 1930 1865.53 1930 1865.53 1929.15 1912.77 1881.54 1913.62 1833.93 1914.47 917.072 1913.62 869.459 1913.62 821.427 1913.62 821 1865.53 821 1865.53 821 1865.53 821.427 1817 869.459 1817Z" stroke="#000000" stroke-width="2.37756" stroke-miterlimit="8" fill="#FFFFFF" fill-rule="evenodd"/><text font-family="Arial,Arial_MSFontService,sans-serif" font-weight="400" font-size="54" transform="matrix(1 0 0 1 869.071 1886)">16 Tijdelijk verblijfadres</text><path d="M628.5 1864.5 821.5 1864.5" stroke="#000000" stroke-width="3.39672" stroke-miterlimit="8" fill="none" fill-rule="evenodd"/><text font-family="Arial,Arial_MSFontService,sans-serif" font-weight="400" font-size="49" transform="matrix(1 0 0 1 682.891 1852)">0, 1</text><path d="M868.459 1965C868.459 1965 1831.66 1965.43 1880.54 1965 1929.42 1964.58 1929 2013.53 1929 2013.53 1929 2013.53 1928.15 2060.77 1880.54 2061.62 1832.93 2062.47 916.072 2061.62 868.459 2061.62 820.427 2061.62 820 2013.53 820 2013.53 820 2013.53 820.427 1965 868.459 1965Z" stroke="#000000" stroke-width="2.37756" stroke-miterlimit="8" fill="#FFFFFF" fill-rule="evenodd"/><text font-family="Arial,Arial_MSFontService,sans-serif" font-weight="400" font-size="54" transform="matrix(1 0 0 1 868.222 2033)">17 Contactgegevens</text><text font-family="Arial,Arial_MSFontService,sans-serif" font-weight="400" font-size="49" transform="matrix(1 0 0 1 682.891 1999)">0, 1</text><path d="M628.5 1719.5 821.5 1719.5" stroke="#000000" stroke-width="3.39672" stroke-miterlimit="8" fill="none" fill-rule="evenodd"/><text font-family="Arial,Arial_MSFontService,sans-serif" font-weight="400" font-size="49" transform="matrix(1 0 0 1 711.85 1418)">1</text></g></svg>