<svg width="1949" height="1005" xmlns="http://www.w3.org/2000/svg" xmlns:xlink="http://www.w3.org/1999/xlink" xml:space="preserve" overflow="hidden"><g transform="matrix(1 0 0 1 0 -927)"><rect x="1169" y="930" width="779" height="1001" fill="#E6E6E6"/><rect x="1169" y="930" width="779" height="1001" stroke="#000000" stroke-width="1.71893" stroke-miterlimit="8" fill="none"/><path d="M1813.18 1142.5C1834.93 1142.5 1852.5 1162.92 1852.5 1188.13L1852.5 1210.94C1852.5 1236.15 1834.93 1256.5 1813.18 1256.5L1297.89 1256.5C1276.14 1256.5 1258.5 1236.15 1258.5 1210.94L1258.5 1188.13C1258.5 1162.92 1276.14 1142.5 1297.89 1142.5L1813.18 1142.5Z" stroke="#000000" stroke-width="0" stroke-linejoin="round" stroke-miterlimit="10" fill="#FFFFFF" fill-rule="evenodd"/><path d="M1812.68 1142C1834.43 1142 1852 1162.42 1852 1187.63L1852 1210.44C1852 1235.65 1834.43 1256 1812.68 1256L1297.39 1256C1275.64 1256 1258 1235.65 1258 1210.44L1258 1187.63C1258 1162.42 1275.64 1142 1297.39 1142L1812.68 1142Z" stroke="#000000" stroke-width="1.71893" stroke-miterlimit="8" fill="none" fill-rule="evenodd"/><rect x="1.00003" y="928" width="779" height="1000" fill="#E6E6E6"/><rect x="1.00003" y="928" width="779" height="1000" stroke="#000000" stroke-width="1.71893" stroke-miterlimit="8" fill="none"/><path d="M1146 1198.58 1103 1187 1103 1209 1146 1198.58Z" fill-rule="evenodd"/><path d="M677 1570C738.282 1570 804.718 1570 866 1569" stroke="#000000" stroke-width="2.29167" stroke-miterlimit="8" fill="none" fill-rule="evenodd"/><path d="M1705.86 1284 1705.86 1765.39C1705.93 1778.78 1705.93 1792.24 1706 1805.63 1706 1821.29 1694.65 1834 1680.61 1834L1653.71 1834 1078 1834" stroke="#000000" stroke-width="2.29167" stroke-miterlimit="8" fill="none" fill-rule="evenodd"/><path d="M654.669 1518.5C670.062 1518.5 682.5 1531.04 682.5 1546.51L682.5 1630.53C682.5 1646 670.062 1658.5 654.669 1658.5L290.365 1658.5C274.972 1658.5 262.5 1646 262.5 1630.53L262.5 1546.51C262.5 1531.04 274.972 1518.5 290.365 1518.5L654.669 1518.5Z" stroke="#000000" stroke-width="0" stroke-linejoin="round" stroke-miterlimit="10" fill="#FFFFFF" fill-rule="evenodd"/><path d="M652.169 1518C667.562 1518 680 1530.54 680 1546.01L680 1630.03C680 1645.49 667.562 1658 652.169 1658L287.865 1658C272.472 1658 260 1645.49 260 1630.03L260 1546.01C260 1530.54 272.472 1518 287.865 1518L652.169 1518Z" stroke="#000000" stroke-width="2.29167" stroke-miterlimit="8" fill="none" fill-rule="evenodd"/><text font-family="Arial,Arial_MSFontService,sans-serif" font-weight="400" font-size="37" transform="matrix(1 0 0 1 281.302 1562)">Wacht op antwoord</text><path d="M372.5 1659.5 372.5 1731.5 83.5 1731.5" stroke="#000000" stroke-width="4.58333" stroke-linecap="square" stroke-miterlimit="8" fill="none" fill-rule="evenodd"/><path d="M441.171 1649C448.804 1649 455 1655.25 455 1662.95L455 1670.09C455 1677.78 448.804 1684 441.171 1684L313.864 1684C306.23 1684 300 1677.78 300 1670.09L300 1662.95C300 1655.25 306.23 1649 313.864 1649L441.171 1649Z" stroke="#000000" stroke-width="1.71893" stroke-miterlimit="8" fill="none" fill-rule="evenodd"/><path d="M17.5 1732.5C17.5 1713.72 33.1701 1698.5 52.5001 1698.5 71.8301 1698.5 87.5002 1713.72 87.5002 1732.5 87.5002 1751.28 71.8301 1766.5 52.5001 1766.5 33.1701 1766.5 17.5 1751.28 17.5 1732.5Z" stroke="#000000" stroke-width="0" stroke-linejoin="round" stroke-miterlimit="10" fill="#FFFFFF" fill-rule="evenodd"/><path d="M17.5 1732.5C17.5 1713.72 33.1701 1698.5 52.5001 1698.5 71.8301 1698.5 87.5002 1713.72 87.5002 1732.5 87.5002 1751.28 71.8301 1766.5 52.5001 1766.5 33.1701 1766.5 17.5 1751.28 17.5 1732.5Z" stroke="#000000" stroke-width="1.14583" stroke-miterlimit="8" fill="none" fill-rule="evenodd"/><text font-family="Arial,Arial_MSFontService,sans-serif" font-weight="400" font-size="50" transform="matrix(1 0 0 1 38.3856 1748)">2</text><path d="M671.5 1570C671.5 1565.86 674.858 1562.5 679 1562.5 683.142 1562.5 686.5 1565.86 686.5 1570 686.5 1574.14 683.142 1577.5 679 1577.5 674.858 1577.5 671.5 1574.14 671.5 1570Z" stroke="#000000" stroke-width="0" stroke-linejoin="round" stroke-miterlimit="10" fill="#FFFFFF" fill-rule="evenodd"/><path d="M671.5 1570C671.5 1565.86 674.858 1562.5 679 1562.5 683.142 1562.5 686.5 1565.86 686.5 1570 686.5 1574.14 683.142 1577.5 679 1577.5 674.858 1577.5 671.5 1574.14 671.5 1570Z" stroke="#000000" stroke-width="1.14583" stroke-linecap="square" stroke-miterlimit="8" fill="none" fill-rule="evenodd"/><path d="M687 1594.24 761.154 1594C776.486 1594 788.936 1606.66 788.936 1622.28 788.902 1629.85 788.867 1637.39 788.833 1644.96L788.696 1673.89C788.696 1689.48 794.287 1703 809.618 1703L867 1701.93" stroke="#000000" stroke-width="2.29167" stroke-miterlimit="8" fill="none" fill-rule="evenodd"/><path d="M672.5 1570C672.5 1565.86 675.634 1562.5 679.5 1562.5 683.366 1562.5 686.5 1565.86 686.5 1570 686.5 1574.14 683.366 1577.5 679.5 1577.5 675.634 1577.5 672.5 1574.14 672.5 1570Z" stroke="#000000" stroke-width="0" stroke-linejoin="round" stroke-miterlimit="10" fill="#FFFFFF" fill-rule="evenodd"/><path d="M672.5 1570C672.5 1565.86 675.634 1562.5 679.5 1562.5 683.366 1562.5 686.5 1565.86 686.5 1570 686.5 1574.14 683.366 1577.5 679.5 1577.5 675.634 1577.5 672.5 1574.14 672.5 1570Z" stroke="#000000" stroke-width="1.14583" stroke-linecap="square" stroke-miterlimit="8" fill="none" fill-rule="evenodd"/><path d="M869 1836 801.245 1835.11C779.027 1835.11 765.338 1815.77 765.338 1791.95L765.338 1661.05C765.338 1649.29 760.936 1638.02 753.163 1629.79 745.355 1621.53 734.797 1617 723.859 1617.17L683 1617.79" stroke="#000000" stroke-width="2.29167" stroke-linecap="round" stroke-linejoin="round" stroke-miterlimit="10" fill="none" fill-rule="evenodd"/><path d="M672.5 1594C672.5 1589.86 675.634 1586.5 679.5 1586.5 683.366 1586.5 686.5 1589.86 686.5 1594 686.5 1598.14 683.366 1601.5 679.5 1601.5 675.634 1601.5 672.5 1598.14 672.5 1594Z" stroke="#000000" stroke-width="0" stroke-linejoin="round" stroke-miterlimit="10" fill="#FFFFFF" fill-rule="evenodd"/><path d="M672.5 1594C672.5 1589.86 675.634 1586.5 679.5 1586.5 683.366 1586.5 686.5 1589.86 686.5 1594 686.5 1598.14 683.366 1601.5 679.5 1601.5 675.634 1601.5 672.5 1598.14 672.5 1594Z" stroke="#000000" stroke-width="1.14583" stroke-linecap="square" stroke-miterlimit="8" fill="none" fill-rule="evenodd"/><path d="M672.5 1618C672.5 1613.86 675.634 1610.5 679.5 1610.5 683.366 1610.5 686.5 1613.86 686.5 1618 686.5 1622.14 683.366 1625.5 679.5 1625.5 675.634 1625.5 672.5 1622.14 672.5 1618Z" stroke="#000000" stroke-width="0" stroke-linejoin="round" stroke-miterlimit="10" fill="#FFFFFF" fill-rule="evenodd"/><path d="M672.5 1618C672.5 1613.86 675.634 1610.5 679.5 1610.5 683.366 1610.5 686.5 1613.86 686.5 1618 686.5 1622.14 683.366 1625.5 679.5 1625.5 675.634 1625.5 672.5 1622.14 672.5 1618Z" stroke="#000000" stroke-width="1.14583" stroke-linecap="square" stroke-miterlimit="8" fill="none" fill-rule="evenodd"/><path d="M1390.5 1255.5 1390.5 1323.5 1852.5 1323.5" stroke="#000000" stroke-width="4.58333" stroke-linecap="square" stroke-miterlimit="8" fill="none" fill-rule="evenodd"/><path d="M1845.5 1327.5C1845.5 1308.72 1860.95 1293.5 1880 1293.5 1899.05 1293.5 1914.5 1308.72 1914.5 1327.5 1914.5 1346.28 1899.05 1361.5 1880 1361.5 1860.95 1361.5 1845.5 1346.28 1845.5 1327.5Z" stroke="#000000" stroke-width="0" stroke-linejoin="round" stroke-miterlimit="10" fill="#FFFFFF" fill-rule="evenodd"/><path d="M1845.5 1327.5C1845.5 1308.72 1860.95 1293.5 1880 1293.5 1899.05 1293.5 1914.5 1308.72 1914.5 1327.5 1914.5 1346.28 1899.05 1361.5 1880 1361.5 1860.95 1361.5 1845.5 1346.28 1845.5 1327.5Z" stroke="#000000" stroke-width="1.14583" stroke-miterlimit="8" fill="none" fill-rule="evenodd"/><text font-family="Arial,Arial_MSFontService,sans-serif" font-weight="400" font-size="50" transform="matrix(1 0 0 1 1865.42 1344)">1</text><path d="M697 1569.58 740 1558 740 1580 697 1569.58Z" fill-rule="evenodd"/><path d="M697 1595.58 740 1584 740 1606 697 1595.58Z" fill-rule="evenodd"/><path d="M697 1619.08 740 1607 740 1630 697 1619.08Z" fill-rule="evenodd"/><text font-family="Arial,Arial_MSFontService,sans-serif" font-weight="400" font-size="37" transform="matrix(1 0 0 1 1296.51 1190)">Controleer ontvangen bericht.</text><text font-family="Arial,Arial_MSFontService,sans-serif" font-weight="400" font-size="37" transform="matrix(1 0 0 1 1296.51 1233)">Welke fout is ontdekt?</text><path d="M1430.56 1244.5C1438.25 1244.5 1444.5 1250.79 1444.5 1258.45L1444.5 1265.62C1444.5 1273.28 1438.25 1279.5 1430.56 1279.5L1302.51 1279.5C1294.75 1279.5 1288.5 1273.28 1288.5 1265.62L1288.5 1258.45C1288.5 1250.79 1294.75 1244.5 1302.51 1244.5L1430.56 1244.5Z" stroke="#000000" stroke-width="0" stroke-linejoin="round" stroke-miterlimit="10" fill="#FFFFFF" fill-rule="evenodd"/><path d="M1430.06 1244C1437.75 1244 1444 1250.29 1444 1257.95L1444 1265.12C1444 1272.78 1437.75 1279 1430.06 1279L1302.01 1279C1294.25 1279 1288 1272.78 1288 1265.12L1288 1257.95C1288 1250.29 1294.25 1244 1302.01 1244L1430.06 1244Z" stroke="#000000" stroke-width="1.71893" stroke-miterlimit="8" fill="none" fill-rule="evenodd"/><text font-family="Arial,Arial_MSFontService,sans-serif" font-weight="400" font-size="23" transform="matrix(1 0 0 1 1325.73 1268)">Cyclus</text><path d="M1623.58 1244.5C1631.3 1244.5 1637.5 1250.79 1637.5 1258.45L1637.5 1265.62C1637.5 1273.28 1631.3 1279.5 1623.58 1279.5L1495.49 1279.5C1487.77 1279.5 1481.5 1273.28 1481.5 1265.62L1481.5 1258.45C1481.5 1250.79 1487.77 1244.5 1495.49 1244.5L1623.58 1244.5Z" stroke="#000000" stroke-width="0" stroke-linejoin="round" stroke-miterlimit="10" fill="#FFFFFF" fill-rule="evenodd"/><path d="M1623.08 1244C1630.8 1244 1637 1250.29 1637 1257.95L1637 1265.12C1637 1272.78 1630.8 1279 1623.08 1279L1494.99 1279C1487.27 1279 1481 1272.78 1481 1265.12L1481 1257.95C1481 1250.29 1487.27 1244 1494.99 1244L1623.08 1244Z" stroke="#000000" stroke-width="1.71893" stroke-miterlimit="8" fill="none" fill-rule="evenodd"/><text font-family="Arial,Arial_MSFontService,sans-serif" font-weight="400" font-size="23" transform="matrix(1 0 0 1 1527.97 1268)">Syntax</text><path d="M1512.5 1279C1512.5 1274.86 1515.63 1271.5 1519.5 1271.5 1523.37 1271.5 1526.5 1274.86 1526.5 1279 1526.5 1283.14 1523.37 1286.5 1519.5 1286.5 1515.63 1286.5 1512.5 1283.14 1512.5 1279Z" stroke="#000000" stroke-width="0" stroke-linejoin="round" stroke-miterlimit="10" fill="#FFFFFF" fill-rule="evenodd"/><path d="M1512.5 1279C1512.5 1274.86 1515.63 1271.5 1519.5 1271.5 1523.37 1271.5 1526.5 1274.86 1526.5 1279 1526.5 1283.14 1523.37 1286.5 1519.5 1286.5 1515.63 1286.5 1512.5 1283.14 1512.5 1279Z" stroke="#000000" stroke-width="1.14583" stroke-linecap="square" stroke-miterlimit="8" fill="none" fill-rule="evenodd"/><path d="M1246.5 1198.5C1246.5 1194.63 1249.86 1191.5 1254 1191.5 1258.14 1191.5 1261.5 1194.63 1261.5 1198.5 1261.5 1202.37 1258.14 1205.5 1254 1205.5 1249.86 1205.5 1246.5 1202.37 1246.5 1198.5Z" stroke="#000000" stroke-width="0" stroke-linejoin="round" stroke-miterlimit="10" fill="#FFFFFF" fill-rule="evenodd"/><path d="M1246.5 1198.5C1246.5 1194.63 1249.86 1191.5 1254 1191.5 1258.14 1191.5 1261.5 1194.63 1261.5 1198.5 1261.5 1202.37 1258.14 1205.5 1254 1205.5 1249.86 1205.5 1246.5 1202.37 1246.5 1198.5Z" stroke="#000000" stroke-width="1.14583" stroke-linecap="square" stroke-miterlimit="8" fill="none" fill-rule="evenodd"/><path d="M1288.19 972.5C1253.5 972.5 1253.5 1007.45 1253.5 1007.45L1253.5 1042.62C1253.5 1042.62 1253.5 1077.5 1288.19 1077.5 1325.7 1077.5 1810.52 1077.5 1844.88 1077.5 1879.5 1077.5 1879.5 1042.62 1879.5 1042.62L1879.43 1007.38C1879.43 1007.38 1879.5 972.5 1844.88 972.5 1810.18 972.5 1322.82 972.5 1288.19 972.5Z" stroke="#000000" stroke-width="0" stroke-linejoin="round" stroke-miterlimit="10" fill="#FFFFFF" fill-rule="evenodd"/><path d="M1288.19 972.5C1253.5 972.5 1253.5 1007.45 1253.5 1007.45L1253.5 1042.62C1253.5 1042.62 1253.5 1077.5 1288.19 1077.5 1325.7 1077.5 1810.52 1077.5 1844.88 1077.5 1879.5 1077.5 1879.5 1042.62 1879.5 1042.62L1879.43 1007.38C1879.43 1007.38 1879.5 972.5 1844.88 972.5 1810.18 972.5 1322.82 972.5 1288.19 972.5Z" stroke="#000000" stroke-width="1.14583" stroke-miterlimit="8" fill="none" fill-rule="evenodd"/><path d="M105.159 972.534C70.5 972.534 70.5 1007.42 70.5 1007.42L70.5 1042.62C70.5 1042.62 70.5 1077.5 105.159 1077.5 142.67 1077.5 627.49 1077.5 661.875 1077.5 696.5 1077.5 696.5 1042.62 696.5 1042.62L696.466 1007.38C696.466 1007.38 696.5 972.5 661.875 972.5 627.181 972.534 139.819 972.534 105.159 972.534Z" stroke="#000000" stroke-width="0" stroke-linejoin="round" stroke-miterlimit="10" fill="#FFFFFF" fill-rule="evenodd"/><path d="M105.159 972.534C70.5 972.534 70.5 1007.42 70.5 1007.42L70.5 1042.62C70.5 1042.62 70.5 1077.5 105.159 1077.5 142.67 1077.5 627.49 1077.5 661.875 1077.5 696.5 1077.5 696.5 1042.62 696.5 1042.62L696.466 1007.38C696.466 1007.38 696.5 972.5 661.875 972.5 627.181 972.534 139.819 972.534 105.159 972.534Z" stroke="#000000" stroke-width="1.14583" stroke-miterlimit="8" fill="none" fill-rule="evenodd"/><text font-family="Arial,Arial_MSFontService,sans-serif" font-weight="700" font-size="41" transform="matrix(1 0 0 1 177.604 1021)">Op de berichtendienst</text><text font-family="Arial,Arial_MSFontService,sans-serif" font-weight="700" font-size="41" transform="matrix(1 0 0 1 183.333 1064)">aangesloten instantie</text><text font-family="Arial,Arial_MSFontService,sans-serif" font-weight="700" font-size="41" transform="matrix(1 0 0 1 1361.25 1023)">Op de berichtendienst</text><text font-family="Arial,Arial_MSFontService,sans-serif" font-weight="700" font-size="41" transform="matrix(1 0 0 1 1366.98 1066)">aangesloten instantie</text><path d="M640.143 1165.5C661.882 1165.5 679.5 1178.04 679.5 1193.51L679.5 1207.53C679.5 1222.99 661.882 1235.5 640.143 1235.5L124.892 1235.5C103.153 1235.5 85.5001 1222.99 85.5001 1207.53L85.5001 1193.51C85.5001 1178.04 103.153 1165.5 124.892 1165.5L640.143 1165.5Z" stroke="#000000" stroke-width="0" stroke-linejoin="round" stroke-miterlimit="10" fill="#FFFFFF" fill-rule="evenodd"/><path d="M639.643 1165C661.382 1165 679 1177.54 679 1193.01L679 1207.03C679 1222.5 661.382 1235 639.643 1235L124.392 1235C102.652 1235 84.9999 1222.5 84.9999 1207.03L84.9999 1193.01C84.9999 1177.54 102.652 1165 124.392 1165L639.643 1165Z" stroke="#000000" stroke-width="1.71893" stroke-miterlimit="8" fill="none" fill-rule="evenodd"/><text font-family="Arial,Arial_MSFontService,sans-serif" font-weight="400" font-size="37" transform="matrix(1 0 0 1 150.677 1213)">Verstuur willekeurig bericht</text><path d="M0 0 560 0.000360892" stroke="#000000" stroke-width="2.29167" stroke-miterlimit="8" fill="none" fill-rule="evenodd" transform="matrix(-1 0 0 1 1246 1199)"/><path d="M672.5 1198.5C672.5 1194.63 675.634 1191.5 679.5 1191.5 683.366 1191.5 686.5 1194.63 686.5 1198.5 686.5 1202.37 683.366 1205.5 679.5 1205.5 675.634 1205.5 672.5 1202.37 672.5 1198.5Z" stroke="#000000" stroke-width="0" stroke-linejoin="round" stroke-miterlimit="10" fill="#FFFFFF" fill-rule="evenodd"/><path d="M672.5 1198.5C672.5 1194.63 675.634 1191.5 679.5 1191.5 683.366 1191.5 686.5 1194.63 686.5 1198.5 686.5 1202.37 683.366 1205.5 679.5 1205.5 675.634 1205.5 672.5 1202.37 672.5 1198.5Z" stroke="#000000" stroke-width="1.14583" stroke-linecap="square" stroke-miterlimit="8" fill="none" fill-rule="evenodd"/><path d="M842 1198.05 799 1187 799 1208 842 1198.05Z" fill-rule="evenodd"/><rect x="869" y="1146" width="212" height="106" fill="#FFFFFF"/><rect x="869.5" y="1146.5" width="212" height="106" stroke="#000000" stroke-width="4.58333" stroke-miterlimit="8" fill="none"/><path d="M869 1146.58 919.457 1197 1029.54 1197 1080 1146" stroke="#000000" stroke-width="1.71893" stroke-miterlimit="8" fill="none" fill-rule="evenodd"/><rect x="870" y="1517" width="212" height="106" fill="#FFFFFF"/><rect x="870.5" y="1517.5" width="212" height="106" stroke="#000000" stroke-width="4.58333" stroke-miterlimit="8" fill="none"/><path d="M870 1517 920.457 1567 1030.54 1567 1081 1517" stroke="#000000" stroke-width="1.71893" stroke-miterlimit="8" fill="none" fill-rule="evenodd"/><text font-family="Arial,Arial_MSFontService,sans-serif" font-weight="400" font-size="28" transform="matrix(1 0 0 1 940.729 1557)">Pf01</text><rect x="870" y="1651" width="211" height="105" fill="#FFFFFF"/><rect x="870.5" y="1651.5" width="211" height="105" stroke="#000000" stroke-width="4.58333" stroke-miterlimit="8" fill="none"/><path d="M870 1651 920.32 1700 1030.68 1700 1081 1651" stroke="#000000" stroke-width="1.71893" stroke-miterlimit="8" fill="none" fill-rule="evenodd"/><text font-family="Arial,Arial_MSFontService,sans-serif" font-weight="400" font-size="28" transform="matrix(1 0 0 1 940.156 1690)">Pf02</text><rect x="869" y="1785" width="212" height="105" fill="#FFFFFF"/><rect x="869.5" y="1785.5" width="212" height="105" stroke="#000000" stroke-width="4.58333" stroke-miterlimit="8" fill="none"/><path d="M869 1784 919.558 1834 1030.44 1834 1081 1784" stroke="#000000" stroke-width="1.71893" stroke-miterlimit="8" fill="none" fill-rule="evenodd"/><text font-family="Arial,Arial_MSFontService,sans-serif" font-weight="400" font-size="28" transform="matrix(1 0 0 1 940.156 1824)">Pf03</text><path d="M1807.67 1244.5C1815.34 1244.5 1821.5 1250.79 1821.5 1258.45L1821.5 1265.62C1821.5 1273.28 1815.34 1279.5 1807.67 1279.5L1680.4 1279.5C1672.73 1279.5 1666.5 1273.28 1666.5 1265.62L1666.5 1258.45C1666.5 1250.79 1672.73 1244.5 1680.4 1244.5L1807.67 1244.5Z" stroke="#000000" stroke-width="0" stroke-linejoin="round" stroke-miterlimit="10" fill="#FFFFFF" fill-rule="evenodd"/><path d="M1807.17 1244C1814.84 1244 1821 1250.29 1821 1257.95L1821 1265.12C1821 1272.78 1814.84 1279 1807.17 1279L1679.9 1279C1672.23 1279 1666 1272.78 1666 1265.12L1666 1257.95C1666 1250.29 1672.23 1244 1679.9 1244L1807.17 1244Z" stroke="#000000" stroke-width="1.71893" stroke-miterlimit="8" fill="none" fill-rule="evenodd"/><text font-family="Arial,Arial_MSFontService,sans-serif" font-weight="400" font-size="23" transform="matrix(1 0 0 1 1684.95 1268)">Inhoudelijk</text><path d="M1697.5 1279C1697.5 1274.86 1700.63 1271.5 1704.5 1271.5 1708.37 1271.5 1711.5 1274.86 1711.5 1279 1711.5 1283.14 1708.37 1286.5 1704.5 1286.5 1700.63 1286.5 1697.5 1283.14 1697.5 1279Z" stroke="#000000" stroke-width="0" stroke-linejoin="round" stroke-miterlimit="10" fill="#FFFFFF" fill-rule="evenodd"/><path d="M1697.5 1279C1697.5 1274.86 1700.63 1271.5 1704.5 1271.5 1708.37 1271.5 1711.5 1274.86 1711.5 1279 1711.5 1283.14 1708.37 1286.5 1704.5 1286.5 1700.63 1286.5 1697.5 1283.14 1697.5 1279Z" stroke="#000000" stroke-width="1.14583" stroke-linecap="square" stroke-miterlimit="8" fill="none" fill-rule="evenodd"/><path d="M1310.5 1281.5C1310.5 1277.63 1313.86 1274.5 1318 1274.5 1322.14 1274.5 1325.5 1277.63 1325.5 1281.5 1325.5 1285.37 1322.14 1288.5 1318 1288.5 1313.86 1288.5 1310.5 1285.37 1310.5 1281.5Z" stroke="#000000" stroke-width="0" stroke-linejoin="round" stroke-miterlimit="10" fill="#FFFFFF" fill-rule="evenodd"/><path d="M1310.5 1281.5C1310.5 1277.63 1313.86 1274.5 1318 1274.5 1322.14 1274.5 1325.5 1277.63 1325.5 1281.5 1325.5 1285.37 1322.14 1288.5 1318 1288.5 1313.86 1288.5 1310.5 1285.37 1310.5 1281.5Z" stroke="#000000" stroke-width="1.14583" stroke-linecap="square" stroke-miterlimit="8" fill="none" fill-rule="evenodd"/><path d="M1778.5 1279.5 1778.5 1323.5" stroke="#000000" stroke-width="3.4375" stroke-miterlimit="8" fill="none" fill-rule="evenodd"/><path d="M1604.5 1279.5 1604.5 1323.5" stroke="#000000" stroke-width="3.4375" stroke-miterlimit="8" fill="none" fill-rule="evenodd"/><path d="M1520.86 1287 1520.86 1651.14C1520.93 1661.24 1521 1671.4 1521 1681.57 1521 1693.38 1513.08 1703 1503.3 1703L1484.5 1703 1083 1703" stroke="#000000" stroke-width="2.29167" stroke-miterlimit="8" fill="none" fill-rule="evenodd"/><path d="M1318.93 1289 1318.93 1534.07C1319 1540.94 1319 1547.75 1319 1554.56 1319 1562.54 1314.67 1569 1309.3 1569L1299.05 1569 1079 1569" stroke="#000000" stroke-width="2.29167" stroke-miterlimit="8" fill="none" fill-rule="evenodd"/><text font-family="Arial,Arial_MSFontService,sans-serif" font-weight="400" font-size="28" transform="matrix(1 0 0 1 937.865 1184)">XXX</text><text font-family="Arial,Arial_MSFontService,sans-serif" font-weight="400" font-size="28" transform="matrix(1 0 0 1 995.156 1184)">X</text><path d="M1100 1569.58 1144 1558 1144 1580 1100 1569.58Z" fill-rule="evenodd"/><path d="M1106 1703.58 1149 1692 1149 1714 1106 1703.58Z" fill-rule="evenodd"/><path d="M1105 1833.5 1149 1822 1149 1845 1105 1833.5Z" fill-rule="evenodd"/><path d="M354.119 1649C354.08 1639.64 354.04 1607 354 1597.64 354 1582.47 366.907 1570.18 382.832 1570.18L412.134 1570 670 1570.29" stroke="#000000" stroke-width="2.29167" stroke-miterlimit="8" stroke-dasharray="13.8765 9.251" fill="none" fill-rule="evenodd"/><path d="M387.11 1648C387.073 1638.59 387.037 1629.18 387 1619.77 387 1604.53 398.876 1592.18 413.527 1592.18L440.488 1592 673 1592.29" stroke="#000000" stroke-width="2.29167" stroke-miterlimit="8" stroke-dasharray="13.8765 9.251" fill="none" fill-rule="evenodd"/><path d="M426.001 1652C425.961 1642.58 426.783 1652.24 426.743 1642.81 426.743 1627.55 439.687 1615.18 455.657 1615.18L485.043 1615 679 1616.16" stroke="#000000" stroke-width="2.29167" stroke-miterlimit="8" stroke-dasharray="13.8765 9.251" fill="none" fill-rule="evenodd"/><path d="M441.67 1649.5C449.304 1649.5 455.5 1655.76 455.5 1663.45L455.5 1670.59C455.5 1678.28 449.304 1684.5 441.67 1684.5L314.364 1684.5C306.73 1684.5 300.5 1678.28 300.5 1670.59L300.5 1663.45C300.5 1655.76 306.73 1649.5 314.364 1649.5L441.67 1649.5Z" stroke="#000000" stroke-width="0" stroke-linejoin="round" stroke-miterlimit="10" fill="#FFFFFF" fill-rule="evenodd"/><text font-family="Arial,Arial_MSFontService,sans-serif" font-weight="400" font-size="23" transform="matrix(1 0 0 1 352.344 1675)">Fout</text></g></svg>