<svg width="1950" height="1879" xmlns="http://www.w3.org/2000/svg" xmlns:xlink="http://www.w3.org/1999/xlink" xml:space="preserve" overflow="hidden"><g transform="translate(1 -568)"><path d="M890.379 615.002C890.379 615.002 1851 615.428 1899.93 615.002 1948.85 614.578 1948 664.803 1948 664.803 1948 664.803 1947.57 710.772 1899.93 711.622 1852.28 712.472 938.032 711.622 890.379 711.622 842.306 711.622 844.007 659.695 844.007 659.695 844.007 659.695 842.306 615.002 890.379 615.002Z" stroke="#000000" stroke-width="1.69836" stroke-miterlimit="8" fill-rule="evenodd"/><path d="M868.459 598.003C868.459 598.003 1831.66 598.428 1880.54 598.003 1929.42 597.578 1929 646.525 1929 646.525 1929 646.525 1928.15 693.773 1880.54 694.623 1832.93 695.473 916.072 694.623 868.459 694.623 820.427 694.623 820 646.525 820 646.525 820 646.525 820.427 598.003 868.459 598.003Z" stroke="#000000" stroke-width="2.37756" stroke-miterlimit="8" fill="#FFFFFF" fill-rule="evenodd"/><text font-family="Arial,Arial_MSFontService,sans-serif" font-weight="400" font-size="54" transform="matrix(1 0 0 1 868.298 665)">01 Persoon</text><path d="M890.379 759.003C890.379 759.003 1851 759.428 1899.93 759.003 1948.85 758.578 1948 807.098 1948 807.098 1948 807.098 1947.57 854.769 1899.93 855.621 1852.28 856.474 938.032 855.621 890.379 855.621 842.306 855.621 844.007 807.098 844.007 807.098 844.007 807.098 842.306 759.003 890.379 759.003Z" stroke="#000000" stroke-width="1.69836" stroke-miterlimit="8" fill-rule="evenodd"/><path d="M868.459 742.003C868.459 742.003 1831.66 742.428 1880.54 742.003 1929.42 741.578 1929 790.525 1929 790.525 1929 790.525 1928.15 837.773 1880.54 838.623 1832.93 839.473 916.072 838.623 868.459 838.623 820.427 838.623 820 790.525 820 790.525 820 790.525 820.427 742.003 868.459 742.003Z" stroke="#000000" stroke-width="2.37756" stroke-miterlimit="8" fill="#FFFFFF" fill-rule="evenodd"/><text font-family="Arial,Arial_MSFontService,sans-serif" font-weight="400" font-size="54" transform="matrix(1 0 0 1 868.298 810)">02 Ouder1</text><path d="M890.068 904.003C890.068 904.003 1850.59 904.428 1899.51 904.003 1948.42 903.578 1948 953.801 1948 953.801 1948 953.801 1947.15 999.768 1899.51 1000.62 1851.86 1001.47 937.716 1000.62 890.068 1000.62 842 1000.62 842 952.098 842 952.098 842 952.098 842 904.003 890.068 904.003Z" stroke="#000000" stroke-width="1.69836" stroke-miterlimit="8" fill-rule="evenodd"/><path d="M868.459 887.003C868.459 887.003 1831.66 887.427 1880.54 887.003 1929.42 886.578 1929 935.001 1929 935.001 1929 935.001 1929 983 1880.54 983 1832.93 983 916.072 983 868.459 983 820.427 983 820 935.001 820 935.001 820 935.001 820.427 887.003 868.459 887.003Z" stroke="#000000" stroke-width="2.37756" stroke-miterlimit="8" fill="#FFFFFF" fill-rule="evenodd"/><text font-family="Arial,Arial_MSFontService,sans-serif" font-weight="400" font-size="54" transform="matrix(1 0 0 1 868.298 954)">03 Ouder2</text><path d="M890.086 1048C890.086 1048 1850.98 1048.43 1899.91 1048 1948.85 1047.58 1948 1096.1 1948 1096.1 1948 1096.1 1947.57 1143.77 1899.91 1144.62 1852.25 1145.47 937.753 1144.62 890.086 1144.62 842 1144.62 842 1097.8 842 1097.8 842 1097.8 842 1048 890.086 1048Z" stroke="#000000" stroke-width="1.69836" stroke-miterlimit="8" fill-rule="evenodd"/><path d="M868.459 1032C868.459 1032 1831.66 1032.43 1880.54 1032 1929.42 1031.58 1929 1080.14 1929 1080.14 1929 1080.14 1928.15 1127.85 1880.54 1128.71 1832.93 1129.56 916.072 1128.28 868.459 1128.28 820.427 1128.28 820 1080.14 820 1080.14 820 1080.14 820.427 1032 868.459 1032Z" stroke="#000000" stroke-width="2.37756" stroke-miterlimit="8" fill="#FFFFFF" fill-rule="evenodd"/><text font-family="Arial,Arial_MSFontService,sans-serif" font-weight="400" font-size="54" transform="matrix(1 0 0 1 868.298 1102)">04 Nationaliteit</text><path d="M890.086 1193C890.086 1193 1850.98 1193.43 1899.91 1193 1948.85 1192.58 1948 1242.8 1948 1242.8 1948 1242.8 1947.57 1288.77 1899.91 1289.62 1852.25 1290.47 937.753 1289.62 890.086 1289.62 842 1289.62 842 1241.1 842 1241.1 842 1241.1 842 1193 890.086 1193Z" stroke="#000000" stroke-width="1.69836" stroke-miterlimit="8" fill-rule="evenodd"/><path d="M868.459 1176C868.459 1176 1831.66 1176.43 1880.54 1176 1929.42 1175.58 1929 1224.1 1929 1224.1 1929 1224.1 1928.15 1271.77 1880.54 1272.62 1832.93 1273.47 916.072 1272.62 868.459 1272.62 820.427 1272.62 820 1224.1 820 1224.1 820 1224.1 820.427 1176 868.459 1176Z" stroke="#000000" stroke-width="2.37756" stroke-miterlimit="8" fill="#FFFFFF" fill-rule="evenodd"/><text font-family="Arial,Arial_MSFontService,sans-serif" font-weight="400" font-size="54" transform="matrix(1 0 0 1 868.298 1244)">05 Huwelijk/geregistreerd partnerschap</text><path d="M891.789 1338C891.789 1338 1850.98 1338.43 1899.91 1338 1948.85 1337.58 1948 1385.95 1948 1385.95 1948 1385.95 1947.57 1431.77 1899.91 1432.62 1852.25 1433.47 937.753 1432.62 890.086 1432.62 842 1432.62 842 1387.65 842 1387.65 842 1387.65 843.702 1338 891.789 1338Z" stroke="#000000" stroke-width="1.69836" stroke-miterlimit="8" fill-rule="evenodd"/><path d="M868.459 1321C868.459 1321 1831.66 1321.43 1880.54 1321 1929.42 1320.58 1929 1369.53 1929 1369.53 1929 1369.53 1928.15 1416.77 1880.54 1417.62 1832.93 1418.47 916.072 1417.62 868.459 1417.62 820.427 1417.62 820 1369.1 820 1369.1 820 1369.1 820.427 1321 868.459 1321Z" stroke="#000000" stroke-width="2.37756" stroke-miterlimit="8" fill="#FFFFFF" fill-rule="evenodd"/><text font-family="Arial,Arial_MSFontService,sans-serif" font-weight="400" font-size="54" transform="matrix(1 0 0 1 868.298 1390)">06 Overlijden</text><path d="M868.459 1466C868.459 1466 1831.66 1466.43 1880.54 1466 1929.42 1465.58 1929 1514.53 1929 1514.53 1929 1514.53 1928.15 1561.77 1880.54 1562.62 1832.93 1563.47 916.072 1562.62 868.459 1562.62 820.427 1562.62 820 1514.53 820 1514.53 820 1514.53 820.427 1466 868.459 1466Z" stroke="#000000" stroke-width="2.37756" stroke-miterlimit="8" fill="#FFFFFF" fill-rule="evenodd"/><text font-family="Arial,Arial_MSFontService,sans-serif" font-weight="400" font-size="54" transform="matrix(1 0 0 1 868.298 1534)">07 Inschrijving</text><path d="M890.086 1627C890.086 1627 1850.98 1627.43 1899.91 1627 1948.85 1626.58 1948 1675.1 1948 1675.1 1948 1675.1 1947.57 1722.77 1899.91 1723.62 1852.25 1724.47 937.753 1723.62 890.086 1723.62 842 1723.62 842 1676.8 842 1676.8 842 1676.8 842 1627 890.086 1627Z" stroke="#000000" stroke-width="1.69836" stroke-miterlimit="8" fill-rule="evenodd"/><path d="M868.459 1610C868.459 1610 1831.66 1610.43 1880.54 1610 1929.42 1609.58 1929 1658.53 1929 1658.53 1929 1658.53 1928.15 1705.77 1880.54 1706.62 1832.93 1707.47 916.072 1706.62 868.459 1706.62 820.427 1706.62 820 1658.53 820 1658.53 820 1658.53 820.427 1610 868.459 1610Z" stroke="#000000" stroke-width="2.37756" stroke-miterlimit="8" fill="#FFFFFF" fill-rule="evenodd"/><text font-family="Arial,Arial_MSFontService,sans-serif" font-weight="400" font-size="54" transform="matrix(1 0 0 1 868.298 1679)">08 Verblijfplaats</text><path d="M890.511 1772C890.511 1772 1850.97 1772.43 1899.91 1772 1948.85 1771.58 1948 1821.8 1948 1821.8 1948 1821.8 1947.57 1867.77 1899.91 1868.62 1852.25 1869.47 937.753 1868.62 890.086 1868.62 842 1868.62 842 1821.8 842 1821.8 842 1821.8 842.425 1772 890.511 1772Z" stroke="#000000" stroke-width="1.69836" stroke-miterlimit="8" fill-rule="evenodd"/><path d="M868.459 1755C868.459 1755 1831.66 1755.85 1880.54 1755.42 1929.42 1755 1929 1803.52 1929 1803.52 1929 1803.52 1928.15 1850.77 1880.54 1851.62 1832.93 1852.47 916.072 1851.62 868.459 1851.62 820.427 1851.62 820 1803.52 820 1803.52 820 1803.52 820.427 1755 868.459 1755Z" stroke="#000000" stroke-width="2.37756" stroke-miterlimit="8" fill="#FFFFFF" fill-rule="evenodd"/><text font-family="Arial,Arial_MSFontService,sans-serif" font-weight="400" font-size="54" transform="matrix(1 0 0 1 868.298 1826)">09 Kind</text><path d="M890.086 1916C890.086 1916 1850.98 1916.43 1899.91 1916 1948.85 1915.58 1948 1964.1 1948 1964.1 1948 1964.1 1947.57 2011.77 1899.91 2012.62 1852.25 2013.47 937.753 2012.62 890.086 2012.62 842 2012.62 842 1964.1 842 1964.1 842 1964.1 842 1916 890.086 1916Z" stroke="#000000" stroke-width="1.69836" stroke-miterlimit="8" fill-rule="evenodd"/><path d="M868.459 1900C868.459 1900 1831.66 1900.43 1880.54 1900 1929.42 1899.58 1929 1948.14 1929 1948.14 1929 1948.14 1928.15 1995.85 1880.54 1996.71 1832.93 1997.56 916.072 1996.28 868.459 1996.28 820.427 1996.28 820 1948.14 820 1948.14 820 1948.14 820.427 1900 868.459 1900Z" stroke="#000000" stroke-width="2.37756" stroke-miterlimit="8" fill="#FFFFFF" fill-rule="evenodd"/><text font-family="Arial,Arial_MSFontService,sans-serif" font-weight="400" font-size="54" transform="matrix(1 0 0 1 868.298 1969)">10 Verblijfstitel</text><path d="M890.086 2061C890.086 2061 1850.98 2061.43 1899.91 2061 1948.85 2060.58 1948 2109.1 1948 2109.1 1948 2109.1 1947.57 2156.77 1899.91 2157.62 1852.25 2158.47 937.753 2157.62 890.086 2157.62 842 2157.62 842 2107.4 842 2107.4 842 2107.4 842 2061 890.086 2061Z" stroke="#000000" stroke-width="1.69836" stroke-miterlimit="8" fill-rule="evenodd"/><path d="M868.459 2044C868.459 2044 1831.66 2044.43 1880.54 2044 1929.42 2043.58 1929 2092.1 1929 2092.1 1929 2092.1 1928.15 2139.77 1880.54 2140.62 1832.93 2141.47 916.072 2140.62 868.459 2140.62 820.427 2140.62 820 2092.1 820 2092.1 820 2092.1 820.427 2044 868.459 2044Z" stroke="#000000" stroke-width="2.37756" stroke-miterlimit="8" fill="#FFFFFF" fill-rule="evenodd"/><text font-family="Arial,Arial_MSFontService,sans-serif" font-weight="400" font-size="54" transform="matrix(1 0 0 1 868.298 2113)">11 Gezagsverhouding</text><path d="M868.459 2189C868.459 2189 1831.66 2189.43 1880.54 2189 1929.42 2188.58 1929 2237.1 1929 2237.1 1929 2237.1 1928.15 2284.77 1880.54 2285.62 1832.93 2286.47 916.072 2285.62 868.459 2285.62 820.427 2285.62 820 2237.1 820 2237.1 820 2237.1 820.427 2189 868.459 2189Z" stroke="#000000" stroke-width="2.37756" stroke-miterlimit="8" fill="#FFFFFF" fill-rule="evenodd"/><text font-family="Arial,Arial_MSFontService,sans-serif" font-weight="400" font-size="54" transform="matrix(1 0 0 1 868.298 2258)">12 Reisdocument</text><path d="M868.459 2334C868.459 2334 1831.66 2334.43 1880.54 2334 1929.42 2333.58 1929 2382.53 1929 2382.53 1929 2382.53 1928.15 2429.77 1880.54 2430.62 1832.93 2431.47 916.072 2430.62 868.459 2430.62 820.427 2430.62 820 2382.1 820 2382.1 820 2382.1 820.427 2334 868.459 2334Z" stroke="#000000" stroke-width="2.37756" stroke-miterlimit="8" fill="#FFFFFF" fill-rule="evenodd"/><text font-family="Arial,Arial_MSFontService,sans-serif" font-weight="400" font-size="54" transform="matrix(1 0 0 1 868.298 2402)">13 Kiesrecht</text><path d="M0 1465 483 1465 483 1562 0 1562Z" stroke="#000000" stroke-width="2.37756" stroke-miterlimit="8" fill="#FFFFFF" fill-rule="evenodd"/><text font-family="Arial,Arial_MSFontService,sans-serif" font-weight="400" font-size="49" transform="matrix(1 0 0 1 710.454 633)">1</text><text font-family="Arial,Arial_MSFontService,sans-serif" font-weight="400" font-size="54" transform="matrix(1 0 0 1 48.7757 1531)">Persoonslijst</text><path d="M627.5 791.5 820.5 791.5" stroke="#000000" stroke-width="3.39672" stroke-miterlimit="8" fill="none" fill-rule="evenodd"/><text font-family="Arial,Arial_MSFontService,sans-serif" font-weight="400" font-size="49" transform="matrix(1 0 0 1 710.454 777)">1</text><path d="M627.5 935.5 820.5 935.5" stroke="#000000" stroke-width="3.39672" stroke-miterlimit="8" fill="none" fill-rule="evenodd"/><text font-family="Arial,Arial_MSFontService,sans-serif" font-weight="400" font-size="49" transform="matrix(1 0 0 1 710.454 922)">1</text><path d="M627.5 1080.5 820.5 1080.5" stroke="#000000" stroke-width="3.39672" stroke-miterlimit="8" fill="none" fill-rule="evenodd"/><text font-family="Arial,Arial_MSFontService,sans-serif" font-weight="400" font-size="49" transform="matrix(1 0 0 1 682.117 1067)">0, n</text><path d="M627.5 1225.5 820.5 1225.5" stroke="#000000" stroke-width="3.39672" stroke-miterlimit="8" fill="none" fill-rule="evenodd"/><text font-family="Arial,Arial_MSFontService,sans-serif" font-weight="400" font-size="49" transform="matrix(1 0 0 1 682.117 1211)">0, n</text><path d="M627.5 1369.5 820.5 1369.5" stroke="#000000" stroke-width="3.39672" stroke-miterlimit="8" fill="none" fill-rule="evenodd"/><text font-family="Arial,Arial_MSFontService,sans-serif" font-weight="400" font-size="49" transform="matrix(1 0 0 1 682.117 1356)">0, 1</text><path d="M627.5 1656.5 820.5 1656.5" stroke="#000000" stroke-width="3.39672" stroke-miterlimit="8" fill="none" fill-rule="evenodd"/><text font-family="Arial,Arial_MSFontService,sans-serif" font-weight="400" font-size="49" transform="matrix(1 0 0 1 710.454 1502)">1</text><path d="M483.5 1514.5 627.924 1514.5 819.5 1514.5" stroke="#000000" stroke-width="3.39672" stroke-miterlimit="8" fill="none" fill-rule="evenodd"/><text font-family="Arial,Arial_MSFontService,sans-serif" font-weight="400" font-size="49" transform="matrix(1 0 0 1 710.454 1645)">1</text><path d="M627.5 1803.5 820.5 1803.5" stroke="#000000" stroke-width="3.39672" stroke-miterlimit="8" fill="none" fill-rule="evenodd"/><text font-family="Arial,Arial_MSFontService,sans-serif" font-weight="400" font-size="49" transform="matrix(1 0 0 1 682.117 1790)">0, n</text><path d="M627.5 1948.5 820.5 1948.5" stroke="#000000" stroke-width="3.39672" stroke-miterlimit="8" fill="none" fill-rule="evenodd"/><text font-family="Arial,Arial_MSFontService,sans-serif" font-weight="400" font-size="49" transform="matrix(1 0 0 1 682.117 1934)">0, 1</text><path d="M627.5 2093.5 820.5 2093.5" stroke="#000000" stroke-width="3.39672" stroke-miterlimit="8" fill="none" fill-rule="evenodd"/><text font-family="Arial,Arial_MSFontService,sans-serif" font-weight="400" font-size="49" transform="matrix(1 0 0 1 682.117 2079)">0, 1</text><path d="M627.5 2237.5 820.5 2237.5" stroke="#000000" stroke-width="3.39672" stroke-miterlimit="8" fill="none" fill-rule="evenodd"/><text font-family="Arial,Arial_MSFontService,sans-serif" font-weight="400" font-size="49" transform="matrix(1 0 0 1 682.117 2223)">0, n</text><text font-family="Arial,Arial_MSFontService,sans-serif" font-weight="400" font-size="49" transform="matrix(1 0 0 1 682.117 2370)">0, 1</text><path d="M820.5 646.5 627.5 646.5 627.5 2382.5 820.5 2382.5" stroke="#000000" stroke-width="3.39672" stroke-miterlimit="8" fill="none" fill-rule="evenodd"/></g></svg>