<svg width="1949" height="1166" xmlns="http://www.w3.org/2000/svg" xmlns:xlink="http://www.w3.org/1999/xlink" xml:space="preserve" overflow="hidden"><g transform="matrix(1 0 0 1 0 -846)"><path d="M1.00003 847 760 847 760 2011 1.00003 2011Z" stroke="#000000" stroke-width="1.71785" stroke-miterlimit="8" fill="#E6E6E6" fill-rule="evenodd"/><path d="M1184 847 1948 847 1948 2011 1184 2011Z" stroke="#000000" stroke-width="1.71785" stroke-miterlimit="8" fill="#E6E6E6" fill-rule="evenodd"/><path d="M391.5 1180.5 391.5 1364.5" stroke="#000000" stroke-width="4.90814" stroke-linecap="square" stroke-miterlimit="8" fill="none" fill-rule="evenodd"/><path d="M586.227 1213.84 586.227 1197 586 1236.24C586 1251.54 598.484 1263.93 613.268 1265L661.315 1264.87 874.001 1264.87" stroke="#000000" stroke-width="1.71785" stroke-miterlimit="8" fill="none" fill-rule="evenodd"/><path d="M1294 1781 1045 1782" stroke="#000000" stroke-width="1.71785" stroke-miterlimit="8" fill="none" fill-rule="evenodd"/><path d="M1368.5 1818.5 1368.5 1887.5" stroke="#000000" stroke-width="4.90814" stroke-linecap="square" stroke-miterlimit="8" fill="none" fill-rule="evenodd"/><path d="M1112.87 1651 1113 1622.68C1113 1607.39 1100.34 1595 1084.73 1595L1080 1595.22" stroke="#000000" stroke-width="1.71785" stroke-miterlimit="8" fill="none" fill-rule="evenodd"/><path d="M1080 1266.22 1084.73 1266C1100.34 1266 1113 1278.45 1113 1293.82 1112.96 1303.3 1112.91 1312.79 1112.87 1322.28 1112.85 1323.76 1112.82 1325.23 1112.8 1326.71 1112.53 1468.81 1112.27 1610.9 1112 1753 1112.04 1726.2 1112.96 1616.19 1113 1589.39" stroke="#000000" stroke-width="1.71785" stroke-miterlimit="8" fill="none" fill-rule="evenodd"/><path d="M1112 1752C1112 1767.12 1124.68 1782 1140 1782" stroke="#000000" stroke-width="1.71785" stroke-miterlimit="8" fill="none" fill-rule="evenodd"/><path d="M839 1264.31 796 1253 796 1275Z" fill-rule="evenodd"/><path d="M870.5 1214.5 1081.5 1214.5 1081.5 1320.5 870.5 1320.5Z" stroke="#000000" stroke-width="4.90814" stroke-miterlimit="8" fill="#FFFFFF" fill-rule="evenodd"/><path d="M870 1214.35 920.146 1264 1030.5 1264 1081 1214" stroke="#000000" stroke-width="1.71785" stroke-miterlimit="8" fill="none" fill-rule="evenodd"/><text font-family="Arial,Arial_MSFontService,sans-serif" font-weight="400" font-size="30" transform="matrix(1 0 0 1 940.322 1255)">Sv11</text><path d="M870.5 1544.5 1081.5 1544.5 1081.5 1650.5 870.5 1650.5Z" stroke="#000000" stroke-width="4.90814" stroke-miterlimit="8" fill="#FFFFFF" fill-rule="evenodd"/><path d="M870 1544.36 920.146 1594 1030.5 1594 1081 1544" stroke="#000000" stroke-width="1.71785" stroke-miterlimit="8" fill="none" fill-rule="evenodd"/><text font-family="Arial,Arial_MSFontService,sans-serif" font-weight="400" font-size="30" transform="matrix(1 0 0 1 940.807 1585)">Sv01</text><path d="M870.5 1731.5 1081.5 1731.5 1081.5 1836.5 870.5 1836.5Z" stroke="#000000" stroke-width="4.90814" stroke-miterlimit="8" fill="#FFFFFF" fill-rule="evenodd"/><path d="M870 1730.36 920.146 1781 1030.5 1781 1081 1730" stroke="#000000" stroke-width="1.71785" stroke-miterlimit="8" fill="none" fill-rule="evenodd"/><text font-family="Arial,Arial_MSFontService,sans-serif" font-weight="400" font-size="30" transform="matrix(1 0 0 1 939.714 1771)">Ag11</text><text font-family="Arial,Arial_MSFontService,sans-serif" font-weight="400" font-size="30" transform="matrix(1 0 0 1 917.105 1820)">A/E/M/O</text><path d="M839 1593.31 796 1582 796 1604Z" fill-rule="evenodd"/><path d="M839 1781.82 796 1770 796 1793Z" fill-rule="evenodd"/><path d="M1240 1781.82 1196 1770 1196 1793Z" fill-rule="evenodd"/><path d="M1715.8 1902C1729.17 1902 1740 1914.36 1740 1929.6L1740 1943.4C1740 1958.64 1729.17 1971 1715.8 1971L1278.19 1971C1264.83 1971 1254 1958.64 1254 1943.4L1254 1929.6C1254 1914.36 1264.83 1902 1278.19 1902L1715.8 1902Z" stroke="#000000" stroke-width="1.71785" stroke-miterlimit="8" fill="#FFFFFF" fill-rule="evenodd"/><path d="M613.078 1902C628.499 1902 641 1914.36 641 1929.6L641 1943.4C641 1958.64 628.499 1971 613.078 1971L177.922 1971C162.501 1971 150 1958.64 150 1943.4L150 1929.6C150 1914.36 162.501 1902 177.922 1902L613.078 1902Z" stroke="#000000" stroke-width="1.71785" stroke-miterlimit="8" fill="#FFFFFF" fill-rule="evenodd"/><text font-family="Arial,Arial_MSFontService,sans-serif" font-weight="400" font-size="35" transform="matrix(1 0 0 1 163.001 1953)">NORMAAL EINDE CYCLUS</text><text font-family="Arial,Arial_MSFontService,sans-serif" font-weight="400" font-size="35" transform="matrix(1 0 0 1 1268.24 1953)">NORMAAL EINDE CYCLUS</text><path d="M1253.5 929.566C1253.5 893.5 1287.91 893.5 1287.91 893.5L1845.79 893.5C1845.79 893.5 1880.5 893.192 1880.5 928.333 1880.5 963.474 1844.56 963.475 1844.56 963.475L1287.91 963.475C1287.91 963.475 1253.5 965.634 1253.5 929.566Z" stroke="#000000" stroke-width="1.22703" stroke-miterlimit="8" fill="#FFFFFF" fill-rule="evenodd"/><text font-family="Arial,Arial_MSFontService,sans-serif" font-weight="400" font-size="39" transform="matrix(1 0 0 1 1483.52 940)">Afnemer</text><path d="M69.4999 929.566C69.4999 893.5 103.907 893.5 103.907 893.5L661.787 893.5C661.787 893.5 696.5 893.192 696.5 928.333 696.5 963.474 660.558 963.475 660.558 963.475L103.907 963.475C103.907 963.475 69.4999 965.634 69.4999 929.566Z" stroke="#000000" stroke-width="1.22703" stroke-miterlimit="8" fill="#FFFFFF" fill-rule="evenodd"/><text font-family="Arial,Arial_MSFontService,sans-serif" font-weight="400" font-size="39" transform="matrix(1 0 0 1 181.032 940)">BRP Verstrekkingen</text><path d="M382.274 1867.07 402 1860 382.274 1902 362 1860Z" fill-rule="evenodd"/><path d="M390.767 1335.89 410 1329 390.767 1370 371 1329Z" fill-rule="evenodd"/><path d="M1366.77 1867.07 1386 1860 1366.77 1902 1347 1860Z" fill-rule="evenodd"/><path d="M1647.09 1748C1662.5 1748 1675 1760.54 1675 1776L1675 1790C1675 1805.46 1662.5 1818 1647.09 1818L1281.91 1818C1266.5 1818 1254 1805.46 1254 1790L1254 1776C1254 1760.54 1266.5 1748 1281.91 1748L1647.09 1748Z" stroke="#000000" stroke-width="1.71785" stroke-miterlimit="8" fill="#FFFFFF" fill-rule="evenodd"/><text font-family="Arial,Arial_MSFontService,sans-serif" font-weight="400" font-size="35" transform="matrix(1 0 0 1 1285.33 1790)">Verwerk gegevens</text><path d="M1262.5 1781C1262.5 1785.14 1259.14 1788.5 1255 1788.5 1250.86 1788.5 1247.5 1785.14 1247.5 1781 1247.5 1776.86 1250.86 1773.5 1255 1773.5 1259.14 1773.5 1262.5 1776.86 1262.5 1781Z" stroke="#000000" stroke-width="1.22703" stroke-linecap="square" stroke-miterlimit="8" fill="#FFFFFF" fill-rule="evenodd"/><path d="M66.4998 1144.72C66.4998 1086.5 100.906 1086.5 100.906 1086.5L658.787 1086.5C658.787 1086.5 693.5 1086 693.5 1142.73 693.5 1199.46 657.558 1199.46 657.558 1199.46L100.906 1199.46C100.906 1199.46 66.4998 1202.94 66.4998 1144.72Z" stroke="#000000" stroke-width="1.22703" stroke-miterlimit="8" fill="#FFFFFF" fill-rule="evenodd"/><text font-family="Arial,Arial_MSFontService,sans-serif" font-weight="400" font-size="35" transform="matrix(1 0 0 1 130.482 1134)">Voer selectie uit</text><text font-family="Arial,Arial_MSFontService,sans-serif" font-weight="400" font-size="35" transform="matrix(1 0 0 1 130.481 1168)">Bepaal aantal geselecteerden</text><path d="M456.053 1188C463.757 1188 470 1194.23 470 1201.92L470 1209.08C470 1216.77 463.757 1223 456.053 1223L327.943 1223C320.242 1223 314 1216.77 314 1209.08L314 1201.92C314 1194.23 320.242 1188 327.943 1188L456.053 1188Z" stroke="#000000" stroke-width="1.71785" stroke-miterlimit="8" fill="#FFFFFF" fill-rule="evenodd"/><text font-family="Arial,Arial_MSFontService,sans-serif" font-weight="400" font-size="24" transform="matrix(1 0 0 1 338.966 1215)">1 of meer</text><path d="M648.056 1188C655.757 1188 662 1194.23 662 1201.92L662 1209.08C662 1216.77 655.757 1223 648.056 1223L519.944 1223C512.243 1223 506 1216.77 506 1209.08L506 1201.92C506 1194.23 512.243 1188 519.944 1188L648.056 1188Z" stroke="#000000" stroke-width="1.71785" stroke-miterlimit="8" fill="#FFFFFF" fill-rule="evenodd"/><text font-family="Arial,Arial_MSFontService,sans-serif" font-weight="400" font-size="24" transform="matrix(1 0 0 1 553.685 1215)">Geen</text><path d="M594.5 1223C594.5 1227.14 591.142 1230.5 587 1230.5 582.858 1230.5 579.5 1227.14 579.5 1223 579.5 1218.86 582.858 1215.5 587 1215.5 591.142 1215.5 594.5 1218.86 594.5 1223Z" stroke="#000000" stroke-width="1.22703" stroke-linecap="square" stroke-miterlimit="8" fill="#FFFFFF" fill-rule="evenodd"/><path d="M67.4999 1429.72C67.4999 1371.5 101.906 1371.5 101.906 1371.5L659.787 1371.5C659.787 1371.5 694.5 1371 694.5 1427.73 694.5 1484.46 658.558 1484.46 658.558 1484.46L101.906 1484.46C101.906 1484.46 67.4999 1487.94 67.4999 1429.72Z" stroke="#000000" stroke-width="1.22703" stroke-miterlimit="8" fill="#FFFFFF" fill-rule="evenodd"/><text font-family="Arial,Arial_MSFontService,sans-serif" font-weight="400" font-size="35" transform="matrix(1 0 0 1 142.281 1425)">Verzend gegevens</text><text font-family="Arial,Arial_MSFontService,sans-serif" font-weight="400" font-size="35" transform="matrix(1 0 0 1 142.281 1460)">voor elke geselecteerde</text><path d="M480.281 1534.5C480.354 1572.42 480.427 1610.35 480.5 1648.27 480.438 1657.68 480.376 1667.1 480.314 1676.51 480.314 1691.86 467.903 1704.3 452.595 1704.3L435.525 1703.45 410.219 1703.33C394.906 1703.33 382.5 1715.77 382.5 1731.12 382.573 1744.24 382.646 1757.37 382.719 1770.5" stroke="#000000" stroke-width="4.90344" stroke-miterlimit="8" fill="none" fill-rule="evenodd"/><path d="M288.721 1532.5C288.647 1559.02 288.573 1621.62 288.5 1648.14 288.562 1657.57 288.625 1666.99 288.687 1676.42 288.687 1691.79 301.196 1704.24 316.624 1704.24L333.826 1703.39 355.057 1703.27C370.491 1703.27 382.994 1715.73 382.994 1731.1 382.921 1744.24 384.572 1885.35 384.498 1898.5" stroke="#000000" stroke-width="4.90344" stroke-miterlimit="8" fill="none" fill-rule="evenodd"/><path d="M333.928 1473C346.672 1473 357 1483.68 357 1496.86L357 1509.14C357 1522.32 346.672 1533 333.928 1533L122.069 1533C109.32 1533 99 1522.32 99 1509.14L99 1496.86C99 1483.68 109.32 1473 122.069 1473L333.928 1473Z" stroke="#000000" stroke-width="1.70738" stroke-miterlimit="8" fill="#FFFFFF" fill-rule="evenodd"/><path d="M626.017 1475C638.712 1475 649 1485.68 649 1498.86L649 1511.14C649 1524.32 638.712 1535 626.017 1535L414.979 1535C402.28 1535 392 1524.32 392 1511.14L392 1498.86C392 1485.68 402.28 1475 414.979 1475L626.017 1475Z" stroke="#000000" stroke-width="1.70738" stroke-miterlimit="8" fill="#FFFFFF" fill-rule="evenodd"/><text font-family="Arial,Arial_MSFontService,sans-serif" font-weight="400" font-size="24" transform="matrix(1 0 0 1 417.371 1497)">Zonder plaatsen</text><text font-family="Arial,Arial_MSFontService,sans-serif" font-weight="400" font-size="24" transform="matrix(1 0 0 1 417.371 1525)">afnemersindicaties</text><text font-family="Arial,Arial_MSFontService,sans-serif" font-weight="400" font-size="24" transform="matrix(1 0 0 1 128.676 1497)">Met plaatsen</text><text font-family="Arial,Arial_MSFontService,sans-serif" font-weight="400" font-size="24" transform="matrix(1 0 0 1 128.676 1525)">afnemersindicaties</text><path d="M232.5 1534.5C232.5 1538.37 229.142 1541.5 225 1541.5 220.858 1541.5 217.5 1538.37 217.5 1534.5 217.5 1530.63 220.858 1527.5 225 1527.5 229.142 1527.5 232.5 1530.63 232.5 1534.5Z" stroke="#000000" stroke-width="1.22703" stroke-linecap="square" stroke-miterlimit="8" fill="#FFFFFF" fill-rule="evenodd"/><path d="M530.227 1542 530.227 1543.94 530 1564.33C530 1579.58 542.494 1591.93 557.291 1593L605.378 1592.87 869 1592.87" stroke="#000000" stroke-width="1.71785" stroke-miterlimit="8" fill="none" fill-rule="evenodd"/><path d="M537.5 1537.5C537.5 1541.37 534.142 1544.5 530 1544.5 525.858 1544.5 522.5 1541.37 522.5 1537.5 522.5 1533.63 525.858 1530.5 530 1530.5 534.142 1530.5 537.5 1533.63 537.5 1537.5Z" stroke="#000000" stroke-width="1.22703" stroke-linecap="square" stroke-miterlimit="8" fill="#FFFFFF" fill-rule="evenodd"/><path d="M226.085 1543 225 1753.03C225 1768.44 237.472 1780.92 252.243 1782L300.244 1781.86 870 1781.86" stroke="#000000" stroke-width="1.71785" stroke-miterlimit="8" fill="none" fill-rule="evenodd"/></g></svg>