<svg width="1949" height="1132" xmlns="http://www.w3.org/2000/svg" xmlns:xlink="http://www.w3.org/1999/xlink" xml:space="preserve" overflow="hidden"><g transform="matrix(1 0 0 1 0 -871)"><path d="M1.00003 873 765 873 765 2002 1.00003 2002Z" stroke="#000000" stroke-width="1.71785" stroke-miterlimit="8" fill="#E6E6E6" fill-rule="evenodd"/><path d="M1184 872 1948 872 1948 2002 1184 2002Z" stroke="#000000" stroke-width="1.71785" stroke-miterlimit="8" fill="#E6E6E6" fill-rule="evenodd"/><path d="M1253.5 946.566C1253.5 910.5 1287.91 910.5 1287.91 910.5L1845.79 910.5C1845.79 910.5 1880.5 910.192 1880.5 945.333 1880.5 980.474 1844.56 980.476 1844.56 980.476L1287.91 980.476C1287.91 980.474 1253.5 982.632 1253.5 946.566Z" stroke="#000000" stroke-width="1.22703" stroke-miterlimit="8" fill="#FFFFFF" fill-rule="evenodd"/><path d="M68.4999 946.566C68.4999 910.5 102.907 910.5 102.907 910.5L660.787 910.5C660.787 910.5 695.5 910.192 695.5 945.333 695.5 980.474 659.558 980.476 659.558 980.476L102.907 980.476C102.907 980.474 68.4999 982.632 68.4999 946.566Z" stroke="#000000" stroke-width="1.22703" stroke-miterlimit="8" fill="#FFFFFF" fill-rule="evenodd"/><text font-family="Arial,Arial_MSFontService,sans-serif" font-weight="400" font-size="39" transform="matrix(1 0 0 1 1365.58 958)">BRP Verstrekkingen</text><text font-family="Arial,Arial_MSFontService,sans-serif" font-weight="400" font-size="39" transform="matrix(1 0 0 1 117.922 958)">Gemeente van inschrijving</text><path d="M311.765 1865.06 331 1858 311.765 1900 292 1858Z" fill-rule="evenodd"/><path d="M668.132 1900C683.522 1900 696 1912.54 696 1928L696 1942C696 1957.46 683.522 1970 668.132 1970L233.868 1970C218.476 1970 206 1957.46 206 1942L206 1928C206 1912.54 218.476 1900 233.868 1900L668.132 1900Z" stroke="#000000" stroke-width="1.71785" stroke-miterlimit="8" fill="#FFFFFF" fill-rule="evenodd"/><text font-family="Arial,Arial_MSFontService,sans-serif" font-weight="400" font-size="35" transform="matrix(1 0 0 1 217.53 1952)">NORMAAL EINDE CYCLUS</text><path d="M1535.5 1774.5 1535.5 1882.5" stroke="#000000" stroke-width="4.90814" stroke-linecap="square" stroke-miterlimit="8" fill="none" fill-rule="evenodd"/><path d="M1533.77 1865.06 1553 1858 1533.77 1900 1514 1858Z" fill-rule="evenodd"/><path d="M1750.13 1900C1765.52 1900 1778 1912.54 1778 1928L1778 1942C1778 1957.46 1765.52 1970 1750.13 1970L1315.87 1970C1300.48 1970 1288 1957.46 1288 1942L1288 1928C1288 1912.54 1300.48 1900 1315.87 1900L1750.13 1900Z" stroke="#000000" stroke-width="1.71785" stroke-miterlimit="8" fill="#FFFFFF" fill-rule="evenodd"/><text font-family="Arial,Arial_MSFontService,sans-serif" font-weight="400" font-size="35" transform="matrix(1 0 0 1 1299.73 1952)">NORMAAL EINDE CYCLUS</text><path d="M1277 1743.82 1233 1732 1233 1755Z" fill-rule="evenodd"/><path d="M1750.13 1691C1765.52 1691 1778 1703.42 1778 1718.73L1778 1767.27C1778 1782.58 1765.52 1795 1750.13 1795L1315.87 1795C1300.48 1795 1288 1782.58 1288 1767.27L1288 1718.73C1288 1703.42 1300.48 1691 1315.87 1691L1750.13 1691Z" stroke="#000000" stroke-width="1.71785" stroke-miterlimit="8" fill="#FFFFFF" fill-rule="evenodd"/><text font-family="Arial,Arial_MSFontService,sans-serif" font-weight="400" font-size="35" transform="matrix(1 0 0 1 1312.03 1738)">Verwerk verstrekte</text><text font-family="Arial,Arial_MSFontService,sans-serif" font-weight="400" font-size="35" transform="matrix(1 0 0 1 1312.03 1773)">gegevens</text><path d="M313.5 1152.5 313.5 1875.5" stroke="#000000" stroke-width="4.90814" stroke-linecap="square" stroke-miterlimit="8" fill="none" fill-rule="evenodd"/><path d="M1284 1743C1268.63 1742.99 1216.33 1742.12 1200.96 1742.11 1172.13 1742.11 1162.74 1731.08 1162.74 1709.89 1162.51 1649.45 1162.29 1589 1162.06 1528.56 1162.06 1513.17 1149.58 1500.69 1134.19 1500.69L654.322 1500.72 608.22 1500.69C579.393 1500.69 570 1489.66 570 1468.47L570 1153" stroke="#000000" stroke-width="1.71785" stroke-miterlimit="8" fill="none" fill-rule="evenodd"/><path d="M868.5 1441.5 1079.5 1441.5 1079.5 1546.5 868.5 1546.5Z" stroke="#000000" stroke-width="4.90814" stroke-miterlimit="8" fill="#FFFFFF" fill-rule="evenodd"/><text font-family="Arial,Arial_MSFontService,sans-serif" font-weight="400" font-size="30" transform="matrix(1 0 0 1 939.38 1481)">Lg01</text><path d="M868 1440.36 918.146 1491 1028.5 1491 1079 1440" stroke="#000000" stroke-width="1.71785" stroke-miterlimit="8" fill="none" fill-rule="evenodd"/><path d="M668.133 1050C683.526 1050 696 1062.42 696 1077.73L696 1126.27C696 1141.59 683.526 1154 668.133 1154L233.867 1154C218.474 1154 206 1141.59 206 1126.27L206 1077.73C206 1062.42 218.474 1050 233.867 1050L668.133 1050Z" stroke="#000000" stroke-width="1.71785" stroke-miterlimit="8" fill="#FFFFFF" fill-rule="evenodd"/><text font-family="Arial,Arial_MSFontService,sans-serif" font-weight="400" font-size="35" transform="matrix(1 0 0 1 229.831 1097)">Verzamel de te verstrekken</text><text font-family="Arial,Arial_MSFontService,sans-serif" font-weight="400" font-size="35" transform="matrix(1 0 0 1 229.831 1132)">gegevens</text><path d="M838 1500.31 794 1489 794 1511Z" fill-rule="evenodd"/><path d="M23 1151 188 1151 188 1050.25 165.749 1051.02C165.749 1040 158.172 1040 158.172 1040L143.023 1040C143.023 1040 135.446 1040.51 135.446 1051.02L23 1051.02 23 1151Z" stroke="#000000" stroke-width="2.45407" stroke-linecap="square" stroke-miterlimit="8" fill="#FFFFFF" fill-rule="evenodd"/><text font-family="Arial,Arial_MSFontService,sans-serif" font-weight="400" font-size="30" transform="matrix(1 0 0 1 33.1375 1092)">Gewijzigde</text><text font-family="Arial,Arial_MSFontService,sans-serif" font-weight="400" font-size="30" transform="matrix(1 0 0 1 33.1371 1127)">PL</text><path d="M576.5 1153C576.5 1157.14 573.142 1160.5 569 1160.5 564.858 1160.5 561.5 1157.14 561.5 1153 561.5 1148.86 564.858 1145.5 569 1145.5 573.142 1145.5 576.5 1148.86 576.5 1153Z" stroke="#000000" stroke-width="1.22703" stroke-linecap="square" stroke-miterlimit="8" fill="#FFFFFF" fill-rule="evenodd"/><path d="M1296.5 1743.5C1296.5 1747.37 1293.14 1750.5 1289 1750.5 1284.86 1750.5 1281.5 1747.37 1281.5 1743.5 1281.5 1739.63 1284.86 1736.5 1289 1736.5 1293.14 1736.5 1296.5 1739.63 1296.5 1743.5Z" stroke="#000000" stroke-width="1.22703" stroke-linecap="square" stroke-miterlimit="8" fill="#FFFFFF" fill-rule="evenodd"/></g></svg>