<svg width="1948" height="2125" xmlns="http://www.w3.org/2000/svg" xmlns:xlink="http://www.w3.org/1999/xlink" xml:space="preserve" overflow="hidden"><g transform="translate(-1 -368)"><path d="M1184.5 368.5 1948.5 368.5 1948.5 2492.5 1184.5 2492.5Z" stroke="#000000" stroke-width="1.22595" stroke-miterlimit="8" fill="#E6E6E6" fill-rule="evenodd"/><path d="M1.49987 368.5 764.5 368.5 764.5 2492.5 1.49987 2492.5Z" stroke="#000000" stroke-width="1.22595" stroke-miterlimit="8" fill="#E6E6E6" fill-rule="evenodd"/><path d="M1863.5 2074.5 1557.5 2074.5 1557.5 2006.5" stroke="#000000" stroke-width="4.90344" stroke-miterlimit="8" fill="none" fill-rule="evenodd"/><path d="M1064 1006.95 1476.15 1008C1491.53 1008 1504 995.549 1504 980.182L1503.78 906" stroke="#000000" stroke-width="1.71604" stroke-miterlimit="8" fill="none" fill-rule="evenodd"/><path d="M1115 1007.3 1158 996 1158 1018Z" fill-rule="evenodd"/><path d="M1561.28 1520.5 1561.5 1600.08 1561.31 1628.37C1561.31 1643.74 1548.9 1656.2 1533.6 1656.2L1516.52 1655.35 1491.22 1655.23C1475.91 1655.23 1463.5 1667.69 1463.5 1683.06L1463.72 1722.5" stroke="#000000" stroke-width="4.90344" stroke-miterlimit="8" fill="none" fill-rule="evenodd"/><path d="M1561.72 1520.5 1561.5 1600.04 1561.69 1628.31C1561.69 1643.67 1574.16 1656.13 1589.54 1656.13L1776.5 1656.5" stroke="#000000" stroke-width="4.90344" stroke-miterlimit="8" fill="none" fill-rule="evenodd"/><path d="M1364.84 2189.5 1365.07 2115.1C1365.07 2099.69 1352.62 2087.2 1337.26 2087.2L1288.98 2087.41 1278.63 2087.09 1243.87 2087.09C1228.51 2087.09 1214.66 2074.6 1214.66 2059.19L1214.5 2034.79 1214.65 1941.67C1214.65 1926.26 1227.24 1913.78 1242.6 1913.78L1278.52 1913.8 1342.69 1913.78C1358.05 1913.78 1370.5 1901.29 1370.5 1885.88L1370.46 1845.54 1370.46 1782.5" stroke="#000000" stroke-width="4.90344" stroke-miterlimit="8" fill="none" fill-rule="evenodd"/><path d="M1369.72 1520.5 1369.5 1600.08 1369.69 1628.37C1369.69 1643.74 1382.13 1656.2 1397.48 1656.2L1414.59 1655.35 1435.71 1655.23C1451.06 1655.23 1463.5 1667.69 1463.5 1683.06L1463.28 1722.5" stroke="#000000" stroke-width="4.90344" stroke-miterlimit="8" fill="none" fill-rule="evenodd"/><path d="M1064 1424.95 1476.15 1426C1491.53 1426 1504 1413.55 1504 1398.18L1503.78 1324" stroke="#000000" stroke-width="1.71604" stroke-miterlimit="8" fill="none" fill-rule="evenodd"/><path d="M1115 1425.3 1158 1414 1158 1436Z" fill-rule="evenodd"/><path d="M801.118 1062 801 1033.68C801 1018.39 813.426 1006 828.758 1006L873 1006.22" stroke="#000000" stroke-width="1.71604" stroke-miterlimit="8" fill="none" fill-rule="evenodd"/><path d="M390.5 2249.5 390.5 2318.5 90.4999 2318.5" stroke="#000000" stroke-width="4.90344" stroke-linecap="square" stroke-miterlimit="8" fill="none" fill-rule="evenodd"/><path d="M1365.11 1215.5 1365.34 1192.78C1365.34 1177.39 1352.86 1164.91 1337.47 1164.91L1289.11 1165.12 1278.75 1164.8 1243.92 1164.8C1228.53 1164.8 1214.66 1152.32 1214.66 1136.93L1214.5 1112.55 1214.65 810.51C1214.65 795.121 1227.27 782.645 1242.65 782.645L1278.63 782.674 1358.65 782.645C1374.03 782.645 1386.5 770.169 1386.5 754.779L1386.46 714.476 1386.46 651.5" stroke="#000000" stroke-width="4.90344" stroke-miterlimit="8" fill="none" fill-rule="evenodd"/><path d="M478.5 643.5 478.5 2089.5" stroke="#000000" stroke-width="4.90344" stroke-linecap="square" stroke-miterlimit="8" fill="none" fill-rule="evenodd"/><path d="M659 2158 754.553 2157.78 774.174 2157.8C789.545 2157.8 802 2145.33 802 2129.94L801.88 1785.69 801.56 1617.31 801.438 1049" stroke="#000000" stroke-width="1.71604" stroke-miterlimit="8" fill="none" fill-rule="evenodd"/><path d="M903 624 691 624" stroke="#000000" stroke-width="1.71604" stroke-miterlimit="8" fill="none" fill-rule="evenodd"/><path d="M1272 624 1060 624" stroke="#000000" stroke-width="1.71604" stroke-miterlimit="8" fill="none" fill-rule="evenodd"/><path d="M871.5 576.5 1082.5 576.5 1082.5 682.5 871.5 682.5Z" stroke="#000000" stroke-width="4.90344" stroke-miterlimit="8" fill="#FFFFFF" fill-rule="evenodd"/><path d="M1082 576.352 1031.86 626 921.496 626 871 576" stroke="#000000" stroke-width="1.71604" stroke-miterlimit="8" fill="none" fill-rule="evenodd"/><path d="M234.867 2383C219.474 2383 207 2395.53 207 2411L207 2425C207 2440.45 219.474 2453 234.867 2453L669.131 2453C684.523 2453 697 2440.45 697 2425L697 2411C697 2395.53 684.523 2383 669.131 2383L234.867 2383Z" stroke="#000000" stroke-width="1.71604" stroke-miterlimit="8" fill="#FFFFFF" fill-rule="evenodd"/><path d="M1282.29 573C1264.46 573 1250 585.417 1250 600.732L1250 649.27C1250 664.585 1264.46 677 1282.29 677L1704.71 677C1722.54 677 1737 664.585 1737 649.27L1737 600.732C1737 585.417 1722.55 573 1704.71 573L1282.29 573Z" stroke="#000000" stroke-width="1.71604" stroke-miterlimit="8" fill="#FFFFFF" fill-rule="evenodd"/><path d="M1302.72 668C1293.49 668 1286 674.229 1286 681.916L1286 689.088C1286 696.772 1293.49 703 1302.72 703L1456.29 703C1465.52 703 1473 696.772 1473 689.088L1473 681.916C1473 674.229 1465.52 668 1456.29 668L1302.72 668Z" stroke="#000000" stroke-width="1.71604" stroke-miterlimit="8" fill="#FFFFFF" fill-rule="evenodd"/><path d="M1277.85 817C1262.47 817 1250 829.415 1250 844.73L1250 893.266C1250 908.585 1262.47 921 1277.85 921L1642.16 921C1657.53 921 1670 908.585 1670 893.266L1670 844.73C1670 829.415 1657.53 817 1642.16 817L1277.85 817Z" stroke="#000000" stroke-width="1.71604" stroke-miterlimit="8" fill="#FFFFFF" fill-rule="evenodd"/><path d="M1861.5 995.5 1557.5 995.5 1557.5 927.5" stroke="#000000" stroke-width="4.90344" stroke-miterlimit="8" fill="none" fill-rule="evenodd"/><path d="M1491.95 912C1484.24 912 1478 918.23 1478 925.917L1478 933.081C1478 940.768 1484.24 947 1491.95 947L1620.06 947C1627.76 947 1634 940.768 1634 933.081L1634 925.917C1634 918.23 1627.76 912 1620.06 912L1491.95 912Z" stroke="#000000" stroke-width="1.71604" stroke-miterlimit="8" fill="#FFFFFF" fill-rule="evenodd"/><path d="M871.5 959.5 1082.5 959.5 1082.5 1065.5 871.5 1065.5Z" stroke="#000000" stroke-width="4.90344" stroke-miterlimit="8" fill="#FFFFFF" fill-rule="evenodd"/><path d="M1082 959.354 1031.85 1009 921.497 1009 871 959" stroke="#000000" stroke-width="1.71604" stroke-miterlimit="8" fill="none" fill-rule="evenodd"/><path d="M802.117 1480 802 1451.68C802 1436.39 814.38 1424 829.655 1424L878 1424.22" stroke="#000000" stroke-width="1.71604" stroke-miterlimit="8" fill="none" fill-rule="evenodd"/><path d="M871.5 1377.5 1082.5 1377.5 1082.5 1482.5 871.5 1482.5Z" stroke="#000000" stroke-width="4.90344" stroke-miterlimit="8" fill="#FFFFFF" fill-rule="evenodd"/><path d="M1082 1376.36 1031.85 1427 921.497 1427 871 1376" stroke="#000000" stroke-width="1.71604" stroke-miterlimit="8" fill="none" fill-rule="evenodd"/><path d="M1068 1877.94 1476.09 1879C1491.5 1879 1504 1866.41 1504 1850.87L1503.78 1811" stroke="#000000" stroke-width="1.71604" stroke-miterlimit="8" fill="none" fill-rule="evenodd"/><path d="M1277.85 1722C1262.47 1722 1250 1734.41 1250 1749.73L1250 1798.27C1250 1813.58 1262.47 1826 1277.85 1826L1642.16 1826C1657.53 1826 1670 1813.58 1670 1798.27L1670 1749.73C1670 1734.41 1657.53 1722 1642.16 1722L1277.85 1722Z" stroke="#000000" stroke-width="1.71604" stroke-miterlimit="8" fill="#FFFFFF" fill-rule="evenodd"/><path d="M1299.85 1817C1292.21 1817 1286 1823.23 1286 1830.92L1286 1838.08C1286 1845.77 1292.21 1852 1299.85 1852L1427.14 1852C1434.79 1852 1441 1845.77 1441 1838.08L1441 1830.92C1441 1823.23 1434.79 1817 1427.14 1817L1299.85 1817Z" stroke="#000000" stroke-width="1.71604" stroke-miterlimit="8" fill="#FFFFFF" fill-rule="evenodd"/><path d="M1278.44 1234C1262.74 1234 1250 1246.53 1250 1262L1250 1311C1250 1326.47 1262.74 1339 1278.44 1339L1650.56 1339C1666.26 1339 1679 1326.47 1679 1311L1679 1262C1679 1246.53 1666.26 1234 1650.56 1234L1278.44 1234Z" stroke="#000000" stroke-width="1.71604" stroke-miterlimit="8" fill="#FFFFFF" fill-rule="evenodd"/><path d="M1861.5 1412.5 1557.5 1412.5 1557.5 1345.5" stroke="#000000" stroke-width="4.90344" stroke-miterlimit="8" fill="none" fill-rule="evenodd"/><path d="M1494 1329C1485.16 1329 1478 1335.23 1478 1342.92L1478 1350.08C1478 1357.77 1485.16 1364 1494 1364L1641 1364C1649.84 1364 1657 1357.77 1657 1350.08L1657 1342.92C1657 1335.23 1649.84 1329 1641 1329L1494 1329Z" stroke="#000000" stroke-width="1.71604" stroke-miterlimit="8" fill="#FFFFFF" fill-rule="evenodd"/><path d="M1158 624.303 1115 613 1115 635Z" fill-rule="evenodd"/><path d="M1281.81 2383C1266.45 2383 1254 2395.53 1254 2411L1254 2425C1254 2440.47 1266.45 2453 1281.81 2453L1715.19 2453C1730.55 2453 1743 2440.47 1743 2425L1743 2411C1743 2395.53 1730.55 2383 1715.19 2383L1281.81 2383Z" stroke="#000000" stroke-width="1.71604" stroke-miterlimit="8" fill="#FFFFFF" fill-rule="evenodd"/><path d="M1045 2192 1476 2193" stroke="#000000" stroke-width="1.71604" stroke-miterlimit="8" fill="none" fill-rule="evenodd"/><path d="M1115 2192.3 1158 2181 1158 2203Z" fill-rule="evenodd"/><path d="M836 624.303 793 613 793 635Z" fill-rule="evenodd"/><path d="M302.844 590C287.466 590 275 602.535 275 617.998L275 632.002C275 647.465 287.466 660 302.844 660L667.156 660C682.534 660 695 647.465 695 632.002L695 617.998C695 602.535 682.534 590 667.156 590L302.844 590Z" stroke="#000000" stroke-width="1.71604" stroke-miterlimit="8" fill="#FFFFFF" fill-rule="evenodd"/><path d="M713 2155.31 757 2144 757 2166Z" fill-rule="evenodd"/><path d="M671 2191 889 2191" stroke="#000000" stroke-width="1.71604" stroke-miterlimit="8" fill="none" fill-rule="evenodd"/><text font-family="Arial,Arial_MSFontService,sans-serif" font-weight="400" font-size="29" transform="matrix(1 0 0 1 937.272 617)">Wa01</text><text font-family="Arial,Arial_MSFontService,sans-serif" font-weight="400" font-size="35" transform="matrix(1 0 0 1 221.786 2435)">NORMAAL EINDE CYCLUS</text><text font-family="Arial,Arial_MSFontService,sans-serif" font-weight="400" font-size="35" transform="matrix(1 0 0 1 1284.31 864)">Controleer naam</text><text font-family="Arial,Arial_MSFontService,sans-serif" font-weight="400" font-size="35" transform="matrix(1 0 0 1 1546.71 864)">-</text><text font-family="Arial,Arial_MSFontService,sans-serif" font-weight="400" font-size="35" transform="matrix(1 0 0 1 1568.48 864)">en</text><text font-family="Arial,Arial_MSFontService,sans-serif" font-weight="400" font-size="35" transform="matrix(1 0 0 1 1284.31 899)">geboortegegevens</text><text font-family="Arial,Arial_MSFontService,sans-serif" font-weight="400" font-size="24" transform="matrix(1 0 0 1 1515.39 939)">Kloppen</text><text font-family="Arial,Arial_MSFontService,sans-serif" font-weight="400" font-size="35" transform="matrix(1 0 0 1 309.78 638)">Bericht van wijziging</text><text font-family="Arial,Arial_MSFontService,sans-serif" font-weight="400" font-size="24" transform="matrix(1 0 0 1 1300.82 695)">Niet aanwezig</text><text font-family="Arial,Arial_MSFontService,sans-serif" font-weight="400" font-size="35" transform="matrix(1 0 0 1 1284.31 620)">Zoek persoon in</text><text font-family="Arial,Arial_MSFontService,sans-serif" font-weight="400" font-size="35" transform="matrix(1 0 0 1 1284.31 655)">PL</text><text font-family="Arial,Arial_MSFontService,sans-serif" font-weight="400" font-size="35" transform="matrix(1 0 0 1 1327.28 655)">-</text><text font-family="Arial,Arial_MSFontService,sans-serif" font-weight="400" font-size="35" transform="matrix(1 0 0 1 1339.31 655)">bestand (op A</text><text font-family="Arial,Arial_MSFontService,sans-serif" font-weight="400" font-size="35" transform="matrix(1 0 0 1 1558.17 655)">-</text><text font-family="Arial,Arial_MSFontService,sans-serif" font-weight="400" font-size="35" transform="matrix(1 0 0 1 1570.2 655)">nummer)</text><text font-family="Arial,Arial_MSFontService,sans-serif" font-weight="400" font-size="29" transform="matrix(1 0 0 1 941.678 999)">Wf01</text><text font-family="Arial,Arial_MSFontService,sans-serif" font-weight="400" font-size="29" transform="matrix(1 0 0 1 914.398 1048)">Code "A"</text><text font-family="Arial,Arial_MSFontService,sans-serif" font-weight="400" font-size="35" transform="matrix(1 0 0 1 1284.31 1282)">Zoek persoon in verwijs</text><text font-family="Arial,Arial_MSFontService,sans-serif" font-weight="400" font-size="35" transform="matrix(1 0 0 1 1655.56 1282)">-</text><text font-family="Arial,Arial_MSFontService,sans-serif" font-weight="400" font-size="35" transform="matrix(1 0 0 1 1284.31 1317)">bestand (op A</text><text font-family="Arial,Arial_MSFontService,sans-serif" font-weight="400" font-size="35" transform="matrix(1 0 0 1 1503.17 1317)">-</text><text font-family="Arial,Arial_MSFontService,sans-serif" font-weight="400" font-size="35" transform="matrix(1 0 0 1 1515.2 1317)">nummer)</text><text font-family="Arial,Arial_MSFontService,sans-serif" font-weight="400" font-size="24" transform="matrix(1 0 0 1 1487.81 1357)">Niet aanwezig</text><text font-family="Arial,Arial_MSFontService,sans-serif" font-weight="400" font-size="29" transform="matrix(1 0 0 1 941.678 1416)">Wf01</text><text font-family="Arial,Arial_MSFontService,sans-serif" font-weight="400" font-size="29" transform="matrix(1 0 0 1 912.766 1465)">Code "G"</text><path d="M1277.85 1478C1262.47 1478 1250 1490.42 1250 1505.73L1250 1554.27C1250 1569.59 1262.47 1582 1277.85 1582L1642.16 1582C1657.53 1582 1670 1569.59 1670 1554.27L1670 1505.73C1670 1490.42 1657.53 1478 1642.16 1478L1277.85 1478Z" stroke="#000000" stroke-width="1.71604" stroke-miterlimit="8" fill="#FFFFFF" fill-rule="evenodd"/><path d="M1299.85 1573C1292.21 1573 1286 1579.23 1286 1586.92L1286 1594.08C1286 1601.77 1292.21 1608 1299.85 1608L1427.14 1608C1434.79 1608 1441 1601.77 1441 1594.08L1441 1586.92C1441 1579.23 1434.79 1573 1427.14 1573L1299.85 1573Z" stroke="#000000" stroke-width="1.71604" stroke-miterlimit="8" fill="#FFFFFF" fill-rule="evenodd"/><text font-family="Arial,Arial_MSFontService,sans-serif" font-weight="400" font-size="35" transform="matrix(1 0 0 1 1284.31 1525)">Controleer naam</text><text font-family="Arial,Arial_MSFontService,sans-serif" font-weight="400" font-size="35" transform="matrix(1 0 0 1 1546.71 1525)">-</text><text font-family="Arial,Arial_MSFontService,sans-serif" font-weight="400" font-size="35" transform="matrix(1 0 0 1 1568.48 1525)">en</text><text font-family="Arial,Arial_MSFontService,sans-serif" font-weight="400" font-size="35" transform="matrix(1 0 0 1 1284.31 1560)">geboortegegevens</text><path d="M1491.95 1573C1484.24 1573 1478 1579.23 1478 1586.92L1478 1594.08C1478 1601.77 1484.24 1608 1491.95 1608L1620.06 1608C1627.76 1608 1634 1601.77 1634 1594.08L1634 1586.92C1634 1579.23 1627.76 1573 1620.06 1573L1491.95 1573Z" stroke="#000000" stroke-width="1.71604" stroke-miterlimit="8" fill="#FFFFFF" fill-rule="evenodd"/><text font-family="Arial,Arial_MSFontService,sans-serif" font-weight="400" font-size="24" transform="matrix(1 0 0 1 1509.28 1600)">Wijken af</text><text font-family="Arial,Arial_MSFontService,sans-serif" font-weight="400" font-size="24" transform="matrix(1 0 0 1 1323.89 1600)">Kloppen</text><path d="M1772.95 1636C1765.24 1636 1759 1642.23 1759 1649.92L1759 1657.08C1759 1664.77 1765.24 1671 1772.95 1671L1901.06 1671C1908.76 1671 1915 1664.77 1915 1657.08L1915 1649.92C1915 1642.23 1908.76 1636 1901.06 1636L1772.95 1636Z" stroke="#000000" stroke-width="1.71604" stroke-miterlimit="8" fill="#FFFFFF" fill-rule="evenodd"/><text font-family="Arial,Arial_MSFontService,sans-serif" font-weight="400" font-size="24" transform="matrix(1 0 0 1 1789.6 1663)">Signaleer</text><text font-family="Arial,Arial_MSFontService,sans-serif" font-weight="400" font-size="35" transform="matrix(1 0 0 1 1285.45 2435)">NORMAAL EINDE CYCLUS</text><text font-family="Arial,Arial_MSFontService,sans-serif" font-weight="400" font-size="35" transform="matrix(1 0 0 1 1284.31 1769)">Komt nieuwe A</text><text font-family="Arial,Arial_MSFontService,sans-serif" font-weight="400" font-size="35" transform="matrix(1 0 0 1 1520.93 1769)">-</text><text font-family="Arial,Arial_MSFontService,sans-serif" font-weight="400" font-size="35" transform="matrix(1 0 0 1 1532.96 1769)">nummer</text><text font-family="Arial,Arial_MSFontService,sans-serif" font-weight="400" font-size="35" transform="matrix(1 0 0 1 1284.31 1804)">al voor?</text><text font-family="Arial,Arial_MSFontService,sans-serif" font-weight="400" font-size="24" transform="matrix(1 0 0 1 1346.94 1844)">Nee</text><path d="M802.117 1933 802 1904.17C802 1888.61 814.38 1876 829.655 1876L878 1876.22" stroke="#000000" stroke-width="1.71604" stroke-miterlimit="8" fill="none" fill-rule="evenodd"/><path d="M871.5 1829.5 1082.5 1829.5 1082.5 1935.5 871.5 1935.5Z" stroke="#000000" stroke-width="4.90344" stroke-miterlimit="8" fill="#FFFFFF" fill-rule="evenodd"/><path d="M1082 1829.35 1031.85 1879 921.497 1879 871 1829" stroke="#000000" stroke-width="1.71604" stroke-miterlimit="8" fill="none" fill-rule="evenodd"/><text font-family="Arial,Arial_MSFontService,sans-serif" font-weight="400" font-size="29" transform="matrix(1 0 0 1 941.678 1869)">Wf01</text><text font-family="Arial,Arial_MSFontService,sans-serif" font-weight="400" font-size="29" transform="matrix(1 0 0 1 914.398 1918)">Code "A"</text><path d="M1915.5 995.5C1915.5 1014.28 1900.05 1029.5 1881 1029.5 1861.95 1029.5 1846.5 1014.28 1846.5 995.5 1846.5 976.722 1861.95 961.5 1881 961.5 1900.05 961.5 1915.5 976.722 1915.5 995.5Z" stroke="#000000" stroke-width="1.22595" stroke-miterlimit="8" fill="#FFFFFF" fill-rule="evenodd"/><text font-family="Arial,Arial_MSFontService,sans-serif" font-weight="400" font-size="49" transform="matrix(1 0 0 1 1866.77 1015)">1</text><path d="M1915.5 1413C1915.5 1432.05 1900.05 1447.5 1881 1447.5 1861.95 1447.5 1846.5 1432.05 1846.5 1413 1846.5 1393.95 1861.95 1378.5 1881 1378.5 1900.05 1378.5 1915.5 1393.95 1915.5 1413Z" stroke="#000000" stroke-width="1.22595" stroke-miterlimit="8" fill="#FFFFFF" fill-rule="evenodd"/><text font-family="Arial,Arial_MSFontService,sans-serif" font-weight="400" font-size="49" transform="matrix(1 0 0 1 1866.77 1433)">2</text><path d="M1881 2108.5C1900.05 2108.5 1915.5 2093.05 1915.5 2074 1915.5 2054.95 1900.05 2039.5 1881 2039.5 1861.94 2039.5 1846.5 2054.95 1846.5 2074 1846.5 2093.05 1861.94 2108.5 1881 2108.5Z" stroke="#000000" stroke-width="1.22595" stroke-miterlimit="8" fill="#FFFFFF" fill-rule="evenodd"/><text font-family="Arial,Arial_MSFontService,sans-serif" font-weight="400" font-size="49" transform="matrix(1 0 0 1 1866.77 2094)">3</text><path d="M1115 1877.3 1158 1866 1158 1888Z" fill-rule="evenodd"/><path d="M1594.5 681.5 1594.5 802.501" stroke="#000000" stroke-width="4.90344" stroke-linecap="square" stroke-miterlimit="8" fill="none" fill-rule="evenodd"/><path d="M1594.28 781.896 1614 775 1594.28 816 1574 775Z" fill-rule="evenodd"/><path d="M705.5 626C705.5 630.142 702.142 633.5 698 633.5 693.858 633.5 690.5 630.142 690.5 626 690.5 621.858 693.858 618.5 698 618.5 702.142 618.5 705.5 621.858 705.5 626Z" stroke="#000000" stroke-width="1.22595" stroke-linecap="square" stroke-miterlimit="8" fill="#FFFFFF" fill-rule="evenodd"/><path d="M1257.5 626C1257.5 630.142 1254.14 633.5 1250 633.5 1245.86 633.5 1242.5 630.142 1242.5 626 1242.5 621.858 1245.86 618.5 1250 618.5 1254.14 618.5 1257.5 621.858 1257.5 626Z" stroke="#000000" stroke-width="1.22595" stroke-linecap="square" stroke-miterlimit="8" fill="#FFFFFF" fill-rule="evenodd"/><path d="M1363.5 925.5 1363.5 1046.5" stroke="#000000" stroke-width="4.90344" stroke-linecap="square" stroke-miterlimit="8" fill="none" fill-rule="evenodd"/><path d="M1362.77 1025.9 1382 1019 1362.77 1060 1343 1019Z" fill-rule="evenodd"/><path d="M1299.85 912C1292.21 912 1286 918.23 1286 925.917L1286 933.081C1286 940.768 1292.21 947 1299.85 947L1427.14 947C1434.79 947 1441 940.768 1441 933.081L1441 925.917C1441 918.23 1434.79 912 1427.14 912L1299.85 912Z" stroke="#000000" stroke-width="1.71604" stroke-miterlimit="8" fill="#FFFFFF" fill-rule="evenodd"/><text font-family="Arial,Arial_MSFontService,sans-serif" font-weight="400" font-size="24" transform="matrix(1 0 0 1 1317.97 939)">Wijken af</text><path d="M1528.95 668C1521.24 668 1515 674.229 1515 681.916L1515 689.088C1515 696.772 1521.24 703 1528.95 703L1657.06 703C1664.76 703 1671 696.772 1671 689.088L1671 681.916C1671 674.229 1664.76 668 1657.06 668L1528.95 668Z" stroke="#000000" stroke-width="1.71604" stroke-miterlimit="8" fill="#FFFFFF" fill-rule="evenodd"/><text font-family="Arial,Arial_MSFontService,sans-serif" font-weight="400" font-size="24" transform="matrix(1 0 0 1 1541.79 695)">Gevonden</text><path d="M1511.5 948C1511.5 952.142 1508.37 955.5 1504.5 955.5 1500.63 955.5 1497.5 952.142 1497.5 948 1497.5 943.858 1500.63 940.5 1504.5 940.5 1508.37 940.5 1511.5 943.858 1511.5 948Z" stroke="#000000" stroke-width="1.22595" stroke-linecap="square" stroke-miterlimit="8" fill="#FFFFFF" fill-rule="evenodd"/><path d="M1365.5 1099.5 1365.5 1220.5" stroke="#000000" stroke-width="4.90344" stroke-linecap="square" stroke-miterlimit="8" fill="none" fill-rule="evenodd"/><path d="M1364.77 1199.89 1384 1193 1364.77 1234 1345 1193Z" fill-rule="evenodd"/><path d="M1511.5 1366C1511.5 1370.14 1508.37 1373.5 1504.5 1373.5 1500.63 1373.5 1497.5 1370.14 1497.5 1366 1497.5 1361.86 1500.63 1358.5 1504.5 1358.5 1508.37 1358.5 1511.5 1361.86 1511.5 1366Z" stroke="#000000" stroke-width="1.22595" stroke-linecap="square" stroke-miterlimit="8" fill="#FFFFFF" fill-rule="evenodd"/><path d="M1365.5 1343.5 1365.5 1463.5" stroke="#000000" stroke-width="4.90344" stroke-linecap="square" stroke-miterlimit="8" fill="none" fill-rule="evenodd"/><path d="M1364.77 1443.06 1384 1436 1364.77 1478 1345 1436Z" fill-rule="evenodd"/><path d="M1462.77 1687.9 1482 1681 1462.77 1722 1443 1681Z" fill-rule="evenodd"/><path d="M1557.5 1830.5 1557.5 1950.5" stroke="#000000" stroke-width="4.90344" stroke-linecap="square" stroke-miterlimit="8" fill="none" fill-rule="evenodd"/><path d="M1556.77 1930.06 1576 1923 1556.77 1965 1537 1923Z" fill-rule="evenodd"/><path d="M1491.95 1817C1484.24 1817 1478 1823.23 1478 1830.92L1478 1838.08C1478 1845.77 1484.24 1852 1491.95 1852L1620.06 1852C1627.76 1852 1634 1845.77 1634 1838.08L1634 1830.92C1634 1823.23 1627.76 1817 1620.06 1817L1491.95 1817Z" stroke="#000000" stroke-width="1.71604" stroke-miterlimit="8" fill="#FFFFFF" fill-rule="evenodd"/><text font-family="Arial,Arial_MSFontService,sans-serif" font-weight="400" font-size="24" transform="matrix(1 0 0 1 1548.44 1844)">Ja</text><path d="M1511.5 1853C1511.5 1857.14 1508.37 1860.5 1504.5 1860.5 1500.63 1860.5 1497.5 1857.14 1497.5 1853 1497.5 1848.86 1500.63 1845.5 1504.5 1845.5 1508.37 1845.5 1511.5 1848.86 1511.5 1853Z" stroke="#000000" stroke-width="1.22595" stroke-linecap="square" stroke-miterlimit="8" fill="#FFFFFF" fill-rule="evenodd"/><path d="M1364.77 2123.07 1384 2116 1364.77 2158 1345 2116Z" fill-rule="evenodd"/><path d="M1364.5 2248.5 1364.5 2368.5" stroke="#000000" stroke-width="4.90344" stroke-linecap="square" stroke-miterlimit="8" fill="none" fill-rule="evenodd"/><path d="M1363.77 2348.08 1383 2341 1363.77 2383 1344 2341Z" fill-rule="evenodd"/><path d="M1277.85 2158C1262.47 2158 1250 2170.42 1250 2185.73L1250 2234.27C1250 2249.58 1262.47 2262 1277.85 2262L1642.16 2262C1657.53 2262 1670 2249.58 1670 2234.27L1670 2185.73C1670 2170.42 1657.53 2158 1642.16 2158L1277.85 2158Z" stroke="#000000" stroke-width="1.71604" stroke-miterlimit="8" fill="#FFFFFF" fill-rule="evenodd"/><text font-family="Arial,Arial_MSFontService,sans-serif" font-weight="400" font-size="35" transform="matrix(1 0 0 1 1284.31 2205)">Pas A</text><text font-family="Arial,Arial_MSFontService,sans-serif" font-weight="400" font-size="35" transform="matrix(1 0 0 1 1378.27 2205)">-</text><text font-family="Arial,Arial_MSFontService,sans-serif" font-weight="400" font-size="35" transform="matrix(1 0 0 1 1390.3 2205)">nummer aan in</text><text font-family="Arial,Arial_MSFontService,sans-serif" font-weight="400" font-size="35" transform="matrix(1 0 0 1 1284.31 2240)">verwijsgegevens</text><path d="M105.5 2318C105.5 2337.05 90.0539 2352.5 71 2352.5 51.946 2352.5 36.4999 2337.05 36.4999 2318 36.4999 2298.95 51.946 2283.5 71 2283.5 90.0539 2283.5 105.5 2298.95 105.5 2318Z" stroke="#000000" stroke-width="1.22595" stroke-miterlimit="8" fill="#FFFFFF" fill-rule="evenodd"/><text font-family="Arial,Arial_MSFontService,sans-serif" font-weight="400" font-size="49" transform="matrix(1 0 0 1 56.6359 2338)">4</text><path d="M581.5 2248.5 581.5 2368.5" stroke="#000000" stroke-width="4.90344" stroke-linecap="square" stroke-miterlimit="8" fill="none" fill-rule="evenodd"/><path d="M580.769 2348.08 600 2341 580.769 2383 561 2341Z" fill-rule="evenodd"/><path d="M477.769 2070.06 497 2063 477.769 2105 458 2063Z" fill-rule="evenodd"/><path d="M1299.85 1329C1292.21 1329 1286 1335.23 1286 1342.92L1286 1350.08C1286 1357.77 1292.21 1364 1299.85 1364L1427.14 1364C1434.79 1364 1441 1357.77 1441 1350.08L1441 1342.92C1441 1335.23 1434.79 1329 1427.14 1329L1299.85 1329Z" stroke="#000000" stroke-width="1.71604" stroke-miterlimit="8" fill="#FFFFFF" fill-rule="evenodd"/><text font-family="Arial,Arial_MSFontService,sans-serif" font-weight="400" font-size="24" transform="matrix(1 0 0 1 1312.4 1357)">Gevonden</text><path d="M1283.88 1060C1264.62 1060 1249 1072.53 1249 1088L1249 1102C1249 1117.47 1264.62 1130 1283.88 1130L1740.13 1130C1759.39 1130 1775 1117.47 1775 1102L1775 1088C1775 1072.53 1759.39 1060 1740.13 1060L1283.88 1060Z" stroke="#000000" stroke-width="1.71604" stroke-miterlimit="8" fill="#FFFFFF" fill-rule="evenodd"/><text font-family="Arial,Arial_MSFontService,sans-serif" font-weight="400" font-size="35" transform="matrix(1 0 0 1 1282.35 1108)">Pas bestaande A</text><text font-family="Arial,Arial_MSFontService,sans-serif" font-weight="400" font-size="35" transform="matrix(1 0 0 1 1549.9 1108)">-</text><text font-family="Arial,Arial_MSFontService,sans-serif" font-weight="400" font-size="35" transform="matrix(1 0 0 1 1561.93 1108)">nummer aan</text><path d="M302.845 2104C287.468 2104 275 2116.53 275 2132L275 2216C275 2231.46 287.468 2244 302.845 2244L667.157 2244C682.534 2244 695 2231.46 695 2216L695 2132C695 2116.53 682.534 2104 667.157 2104L302.845 2104Z" stroke="#000000" stroke-width="1.71604" stroke-miterlimit="8" fill="#FFFFFF" fill-rule="evenodd"/><path d="M389.236 2267 389.118 2238.66 389.118 2212.22 389 2183.88C389 2168.59 401.48 2156.19 416.878 2156.19L445.209 2156 699 2156.22" stroke="#000000" stroke-width="1.71604" stroke-miterlimit="8" stroke-dasharray="9.65274 6.43516" fill="none" fill-rule="evenodd"/><path d="M582.125 2247 582 2218.77C582 2203.54 594.395 2191.18 609.684 2191.18L637.818 2191 695 2191.22" stroke="#000000" stroke-width="1.71604" stroke-miterlimit="8" stroke-dasharray="9.65274 6.43516" fill="none" fill-rule="evenodd"/><path d="M713 2190.3 757 2179 757 2201Z" fill-rule="evenodd"/><text font-family="Arial,Arial_MSFontService,sans-serif" font-weight="400" font-size="35" transform="matrix(1 0 0 1 309.787 2152)">Wacht op antwoord</text><path d="M459.053 2234C466.758 2234 473 2240.23 473 2247.92L473 2255.08C473 2262.77 466.758 2269 459.053 2269L330.945 2269C323.243 2269 317 2262.77 317 2255.08L317 2247.92C317 2240.23 323.244 2234 330.945 2234L459.053 2234Z" stroke="#000000" stroke-width="1.71604" stroke-miterlimit="8" fill="#FFFFFF" fill-rule="evenodd"/><text font-family="Arial,Arial_MSFontService,sans-serif" font-weight="400" font-size="24" transform="matrix(1 0 0 1 366.172 2262)">Wf01</text><path d="M651.057 2234C658.756 2234 665 2240.23 665 2247.92L665 2255.08C665 2262.77 658.756 2269 651.057 2269L522.947 2269C515.245 2269 509 2262.77 509 2255.08L509 2247.92C509 2240.23 515.245 2234 522.947 2234L651.057 2234Z" stroke="#000000" stroke-width="1.71604" stroke-miterlimit="8" fill="#FFFFFF" fill-rule="evenodd"/><text font-family="Arial,Arial_MSFontService,sans-serif" font-weight="400" font-size="24" transform="matrix(1 0 0 1 565.161 2262)">Null</text><path d="M703.501 2157C703.501 2161.14 700.142 2164.5 696 2164.5 691.858 2164.5 688.5 2161.14 688.5 2157 688.5 2152.86 691.858 2149.5 696 2149.5 700.142 2149.5 703.501 2152.86 703.501 2157Z" stroke="#000000" stroke-width="1.22595" stroke-linecap="square" stroke-miterlimit="8" fill="#FFFFFF" fill-rule="evenodd"/><path d="M871.5 2145.5 1082.5 2145.5 1082.5 2250.5 871.5 2250.5Z" stroke="#000000" stroke-width="4.90344" stroke-miterlimit="8" fill="#FFFFFF" fill-rule="evenodd"/><path d="M1082 2144.37 1031.85 2195 921.497 2195 871 2144" stroke="#000000" stroke-width="1.71604" stroke-miterlimit="8" fill="none" fill-rule="evenodd"/><text font-family="Arial,Arial_MSFontService,sans-serif" font-weight="400" font-size="29" transform="matrix(1 0 0 1 950.685 2184)">Null</text><path d="M703.501 2191C703.501 2195.14 700.142 2198.5 696 2198.5 691.858 2198.5 688.5 2195.14 688.5 2191 688.5 2186.86 691.858 2183.5 696 2183.5 700.142 2183.5 703.501 2186.86 703.501 2191Z" stroke="#000000" stroke-width="1.22595" stroke-linecap="square" stroke-miterlimit="8" fill="#FFFFFF" fill-rule="evenodd"/><path d="M1257.5 2194C1257.5 2198.14 1254.14 2201.5 1250 2201.5 1245.86 2201.5 1242.5 2198.14 1242.5 2194 1242.5 2189.86 1245.86 2186.5 1250 2186.5 1254.14 2186.5 1257.5 2189.86 1257.5 2194Z" stroke="#000000" stroke-width="1.22595" stroke-linecap="square" stroke-miterlimit="8" fill="#FFFFFF" fill-rule="evenodd"/><path d="M1284.94 1966C1265.65 1966 1250 1978.53 1250 1994L1250 2008C1250 2023.46 1265.65 2036 1284.94 2036L1742.06 2036C1761.36 2036 1777 2023.46 1777 2008L1777 1994C1777 1978.53 1761.36 1966 1742.06 1966L1284.94 1966Z" stroke="#000000" stroke-width="1.71604" stroke-miterlimit="8" fill="#FFFFFF" fill-rule="evenodd"/><text font-family="Arial,Arial_MSFontService,sans-serif" font-weight="400" font-size="35" transform="matrix(1 0 0 1 1282.8 2014)">Pas bestaande A</text><text font-family="Arial,Arial_MSFontService,sans-serif" font-weight="400" font-size="35" transform="matrix(1 0 0 1 1550.35 2014)">-</text><text font-family="Arial,Arial_MSFontService,sans-serif" font-weight="400" font-size="35" transform="matrix(1 0 0 1 1562.38 2014)">nummer aan</text><path d="M69.4999 439.566C69.4999 403.5 103.852 403.5 103.852 403.5L660.842 403.5C660.842 403.5 695.5 403.192 695.5 438.333 695.5 473.473 659.615 473.475 659.615 473.475L103.852 473.475C103.852 473.475 69.4999 475.632 69.4999 439.566Z" stroke="#000000" stroke-width="1.22703" stroke-miterlimit="8" fill="#FFFFFF" fill-rule="evenodd"/><text font-family="Arial,Arial_MSFontService,sans-serif" font-weight="400" font-size="39" transform="matrix(1 0 0 1 106.725 452)">Gemeente van inschrijving, RNI</text><path d="M1214.5 440.051C1214.5 404.5 1253.63 404.5 1253.63 404.5L1888.03 404.5C1888.03 404.5 1927.5 404.197 1927.5 438.835 1927.5 473.474 1886.63 473.476 1886.63 473.476L1253.63 473.476C1253.63 473.476 1214.5 475.601 1214.5 440.051Z" stroke="#000000" stroke-width="1.22703" stroke-miterlimit="8" fill="#FFFFFF" fill-rule="evenodd"/><text font-family="Arial,Arial_MSFontService,sans-serif" font-weight="400" font-size="39" transform="matrix(1 0 0 1 1245.66 453)">Gemeente met verwijsgegevens, RNI</text></g></svg>