<svg viewBox="1 22 107 106" overflow="hidden" xml:space="preserve" xmlns:xlink="http://www.w3.org/1999/xlink" xmlns="http://www.w3.org/2000/svg"><g transform="translate(-304 -2670)"><path fill-rule="evenodd" fill="#FFFFFF" stroke-miterlimit="8" stroke-width="6.30226" stroke="#000000" d="M311 2746C311 2719.49 332.49 2698 359 2698 385.51 2698 407 2719.49 407 2746 407 2772.51 385.51 2794 359 2794 332.49 2794 311 2772.51 311 2746Z"/><path fill-rule="evenodd" d="M356 2758.92 349.217 2758.92 349.217 2771 342.435 2771 342.435 2758.92 320 2758.92 320 2753.14 344 2719 349.217 2719 349.217 2753.14 356 2753.14 356 2758.92ZM342.435 2753.14 342.435 2729.51 342.435 2729.51 326.783 2753.14 342.435 2753.14Z"/><text transform="matrix(1 0 0 1 352.541 2769)" font-size="80" font-weight="400" font-family="Calibri,Calibri_MSFontService,sans-serif">R</text></g></svg>