<svg width="1950" height="559" xmlns="http://www.w3.org/2000/svg" xmlns:xlink="http://www.w3.org/1999/xlink" xml:space="preserve" overflow="hidden"><g transform="matrix(1 0 0 1 0 -1150)"><path d="M1.00003 1151 765 1151 765 1708 1.00003 1708Z" stroke="#000000" stroke-width="1.71604" stroke-miterlimit="8" fill="#E6E6E6" fill-rule="evenodd"/><path d="M1185 1151 1949 1151 1949 1708 1185 1708Z" stroke="#000000" stroke-width="1.71604" stroke-miterlimit="8" fill="#E6E6E6" fill-rule="evenodd"/><path d="M1258 1394 1079 1395" stroke="#000000" stroke-width="1.71604" stroke-miterlimit="8" fill="none" fill-rule="evenodd"/><path d="M487.5 1419.5 487.5 1587.5" stroke="#000000" stroke-width="4.90344" stroke-linecap="square" stroke-miterlimit="8" fill="none" fill-rule="evenodd"/><path d="M1461.5 1412.5 1461.5 1579.5" stroke="#000000" stroke-width="4.90344" stroke-linecap="square" stroke-miterlimit="8" fill="none" fill-rule="evenodd"/><path d="M1148 1396.3 1105 1385 1105 1407Z" fill-rule="evenodd"/><path d="M696 1394 880 1393" stroke="#000000" stroke-width="1.71604" stroke-miterlimit="8" fill="none" fill-rule="evenodd"/><path d="M868.5 1342.5 1079.5 1342.5 1079.5 1448.5 868.5 1448.5Z" stroke="#000000" stroke-width="4.90344" stroke-miterlimit="8" fill="#FFFFFF" fill-rule="evenodd"/><path d="M868 1342.35 918.146 1392 1028.5 1392 1079 1342" stroke="#000000" stroke-width="1.71604" stroke-miterlimit="8" fill="none" fill-rule="evenodd"/><text font-family="Arial,Arial_MSFontService,sans-serif" font-weight="400" font-size="29" transform="matrix(1 0 0 1 937.505 1383)">Vb01</text><path d="M835 1396.3 791 1385 791 1407Z" fill-rule="evenodd"/><path d="M1461.77 1568.9 1481 1562 1461.77 1603 1442 1562Z" fill-rule="evenodd"/><path d="M486.769 1568.9 506 1562 486.769 1603 467 1562Z" fill-rule="evenodd"/><path d="M1784.17 1603C1799.54 1603 1812 1615.36 1812 1630.6L1812 1644.4C1812 1659.64 1799.54 1672 1784.17 1672L1280.83 1672C1265.46 1672 1253 1659.64 1253 1644.4L1253 1630.6C1253 1615.36 1265.46 1603 1280.83 1603L1784.17 1603Z" stroke="#000000" stroke-width="1.71604" stroke-miterlimit="8" fill="#FFFFFF" fill-rule="evenodd"/><path d="M667.135 1603C682.529 1603 695 1615.36 695 1630.6L695 1644.4C695 1659.64 682.526 1672 667.135 1672L232.866 1672C217.476 1672 205 1659.64 205 1644.4L205 1630.6C205 1615.36 217.476 1603 232.866 1603L667.135 1603Z" stroke="#000000" stroke-width="1.71604" stroke-miterlimit="8" fill="#FFFFFF" fill-rule="evenodd"/><text font-family="Arial,Arial_MSFontService,sans-serif" font-weight="400" font-size="35" transform="matrix(1 0 0 1 232.98 1657)">NORMAAL EINDE CYCLUS</text><text font-family="Arial,Arial_MSFontService,sans-serif" font-weight="400" font-size="35" transform="matrix(1 0 0 1 1280.09 1657)">NORMAAL EINDE CYCLUS</text><path d="M1646.16 1360C1661.53 1360 1674 1372.36 1674 1387.6L1674 1401.4C1674 1416.64 1661.53 1429 1646.16 1429L1281.84 1429C1266.47 1429 1254 1416.64 1254 1401.4L1254 1387.6C1254 1372.36 1266.47 1360 1281.84 1360L1646.16 1360Z" stroke="#000000" stroke-width="1.71604" stroke-miterlimit="8" fill="#FFFFFF" fill-rule="evenodd"/><text font-family="Arial,Arial_MSFontService,sans-serif" font-weight="400" font-size="35" transform="matrix(1 0 0 1 1282.42 1407)">Verwerk tekst</text><path d="M1260.5 1395C1260.5 1399.14 1257.14 1402.5 1253 1402.5 1248.86 1402.5 1245.5 1399.14 1245.5 1395 1245.5 1390.86 1248.86 1387.5 1253 1387.5 1257.14 1387.5 1260.5 1390.86 1260.5 1395Z" stroke="#000000" stroke-width="1.22595" stroke-linecap="square" stroke-miterlimit="8" fill="#FFFFFF" fill-rule="evenodd"/><path d="M668.148 1360C683.529 1360 696 1372.36 696 1387.6L696 1401.4C696 1416.64 683.529 1429 668.148 1429L94.8523 1429C79.4672 1429 67 1416.64 67 1401.4L67 1387.6C67 1372.36 79.469 1360 94.8523 1360L668.148 1360Z" stroke="#000000" stroke-width="1.71604" stroke-miterlimit="8" fill="#FFFFFF" fill-rule="evenodd"/><text font-family="Arial,Arial_MSFontService,sans-serif" font-weight="400" font-size="35" transform="matrix(1 0 0 1 96.3041 1407)">Bepaal te verzenden tekst</text><path d="M703.5 1394C703.5 1398.14 700.366 1401.5 696.5 1401.5 692.634 1401.5 689.5 1398.14 689.5 1394 689.5 1389.86 692.634 1386.5 696.5 1386.5 700.366 1386.5 703.5 1389.86 703.5 1394Z" stroke="#000000" stroke-width="1.22595" stroke-linecap="square" stroke-miterlimit="8" fill="#FFFFFF" fill-rule="evenodd"/><path d="M1288.16 1186.5C1253.5 1186.5 1253.5 1221.07 1253.5 1221.07L1253.5 1255.94C1253.5 1255.94 1253.5 1290.5 1288.16 1290.5 1325.66 1290.5 1810.49 1290.5 1844.84 1290.5 1879.5 1290.5 1879.5 1255.94 1879.5 1255.94L1879.43 1221.03C1879.43 1221.03 1879.5 1186.5 1844.84 1186.5 1810.16 1186.5 1322.82 1186.5 1288.16 1186.5Z" stroke="#000000" stroke-width="1.22595" stroke-miterlimit="8" fill="#FFFFFF" fill-rule="evenodd"/><path d="M104.213 1186.5C69.4999 1186.5 69.4999 1221.07 69.4999 1221.07L69.4999 1255.94C69.4999 1255.94 69.4999 1290.5 104.213 1290.5 141.774 1290.5 627.38 1290.5 661.787 1290.5 696.5 1290.5 696.5 1255.94 696.5 1255.94L696.435 1221.03C696.435 1221.03 696.5 1186.5 661.787 1186.5 627.052 1186.5 138.927 1186.5 104.213 1186.5Z" stroke="#000000" stroke-width="1.22595" stroke-miterlimit="8" fill="#FFFFFF" fill-rule="evenodd"/><text font-family="Arial,Arial_MSFontService,sans-serif" font-weight="400" font-size="39" transform="matrix(1 0 0 1 191.135 1230)">Op de berichtendienst</text><text font-family="Arial,Arial_MSFontService,sans-serif" font-weight="400" font-size="39" transform="matrix(1 0 0 1 197.735 1273)">aangesloten instantie</text><text font-family="Arial,Arial_MSFontService,sans-serif" font-weight="400" font-size="39" transform="matrix(1 0 0 1 1375.57 1232)">Op de berichtendienst</text><text font-family="Arial,Arial_MSFontService,sans-serif" font-weight="400" font-size="39" transform="matrix(1 0 0 1 1382.17 1275)">aangesloten instantie</text></g></svg>