<svg width="567" height="403" xmlns="http://www.w3.org/2000/svg" xmlns:xlink="http://www.w3.org/1999/xlink" xml:space="preserve" overflow="hidden"><g transform="matrix(1 0 0 1 0 -214)"><path d="M97.5085 553.626 106.735 518.713 88.7797 518.713Z" fill-rule="evenodd" transform="matrix(1.00072 0 0 1 -9.98239 -7.4505)"/><path d="M97.7574 233.421 97.7574 528.688" stroke="#000000" stroke-width="1.9496" stroke-miterlimit="8" fill="none" fill-rule="evenodd" transform="matrix(1.00072 0 0 1 -9.98239 -7.4505)"/><path d="M387.79 553.626 397.015 518.713 379.059 518.713Z" fill-rule="evenodd" transform="matrix(1.00072 0 0 1 -9.98239 -7.4505)"/><path d="M388.037 445.894 388.037 528.688" stroke="#000000" stroke-width="1.9496" stroke-miterlimit="8" fill="none" fill-rule="evenodd" transform="matrix(1.00072 0 0 1 -9.98239 -7.4505)"/><path d="M291.03 414.97 300.255 380.057 282.299 380.057Z" fill-rule="evenodd" transform="matrix(1.00072 0 0 1 -9.98239 -7.4505)"/><path d="M291.277 233.421 291.277 390.032" stroke="#000000" stroke-width="1.9496" stroke-miterlimit="8" fill="none" fill-rule="evenodd" transform="matrix(1.00072 0 0 1 -9.98239 -7.4505)"/><path d="M485.06 414.97 493.775 380.057 476.817 380.057Z" fill-rule="evenodd" transform="matrix(1.00072 0 0 1 -9.98239 -7.4505)"/><path d="M484.797 233.421 484.797 390.032" stroke="#000000" stroke-width="1.9496" stroke-miterlimit="8" fill="none" fill-rule="evenodd" transform="matrix(1.00072 0 0 1 -9.98239 -7.4505)"/><path d="M203.994 415.469 573.078 415.469 573.078 470.333 203.994 470.333Z" stroke="#000000" stroke-width="1.36469" stroke-miterlimit="8" fill="#FFFFFF" fill-rule="evenodd" transform="matrix(1.00072 0 0 1 -9.98239 -7.4505)"/><path d="M10.4741 554.125 573.078 554.125 573.078 608.989 10.4741 608.989Z" stroke="#000000" stroke-width="1.36469" stroke-miterlimit="8" fill="#FFFFFF" fill-rule="evenodd" transform="matrix(1.00072 0 0 1 -9.98239 -7.4505)"/><text font-family="Arial,Arial_MSFontService,sans-serif" font-weight="400" font-size="36" transform="matrix(0.998239 0 0 0.997525 239.834 449)">Elementnummer</text><text font-family="Arial,Arial_MSFontService,sans-serif" font-weight="400" font-size="36" transform="matrix(0.998239 0 0 0.997525 147.018 587)">Rubrieknummer</text><path d="M397.514 276.813 573.078 276.813 573.078 331.677 397.514 331.677Z" stroke="#000000" stroke-width="1.36469" stroke-miterlimit="8" fill="#FFFFFF" fill-rule="evenodd" transform="matrix(1.00072 0 0 1 -9.98239 -7.4505)"/><path d="M203.994 276.813 379.558 276.813 379.558 331.677 203.994 331.677Z" stroke="#000000" stroke-width="1.36469" stroke-miterlimit="8" fill="#FFFFFF" fill-rule="evenodd" transform="matrix(1.00072 0 0 1 -9.98239 -7.4505)"/><path d="M10.4741 276.813 186.038 276.813 186.038 331.677 10.4741 331.677Z" stroke="#000000" stroke-width="1.36469" stroke-miterlimit="8" fill="#FFFFFF" fill-rule="evenodd" transform="matrix(1.00072 0 0 1 -9.98239 -7.4505)"/><text font-family="Arial,Arial_MSFontService,sans-serif" font-weight="400" font-size="28" transform="matrix(0.998239 0 0 0.997525 18.1726 297)">Categorie</text><text font-family="Arial,Arial_MSFontService,sans-serif" font-weight="400" font-size="28" transform="matrix(0.998239 0 0 0.997525 140.125 297)">-</text><text font-family="Arial,Arial_MSFontService,sans-serif" font-weight="400" font-size="28" transform="matrix(0.998239 0 0 0.997525 34.2798 318)">nummer</text><text font-family="Arial,Arial_MSFontService,sans-serif" font-weight="400" font-size="28" transform="matrix(0.998239 0 0 0.997525 235.826 297)">Groep</text><text font-family="Arial,Arial_MSFontService,sans-serif" font-weight="400" font-size="28" transform="matrix(0.998239 0 0 0.997525 312.69 297)">-</text><text font-family="Arial,Arial_MSFontService,sans-serif" font-weight="400" font-size="28" transform="matrix(0.998239 0 0 0.997525 228.231 318)">nummer</text><text font-family="Arial,Arial_MSFontService,sans-serif" font-weight="400" font-size="28" transform="matrix(0.998239 0 0 0.997525 419.458 297)">Rubriek</text><text font-family="Arial,Arial_MSFontService,sans-serif" font-weight="400" font-size="28" transform="matrix(0.998239 0 0 0.997525 515.289 297)">-</text><text font-family="Arial,Arial_MSFontService,sans-serif" font-weight="400" font-size="28" transform="matrix(0.998239 0 0 0.997525 394.683 318)">volgnummer</text><path d="M42.3949 221.949 42.3949 249.88 153.12 249.88 153.12 221.949" stroke="#000000" stroke-width="3.11929" stroke-miterlimit="8" fill="none" fill-rule="evenodd" transform="matrix(1.00072 0 0 1 -9.98239 -7.4505)"/><path d="M235.915 221.949 235.915 249.88 346.64 249.88 346.64 221.949" stroke="#000000" stroke-width="3.11929" stroke-miterlimit="8" fill="none" fill-rule="evenodd" transform="matrix(1.00072 0 0 1 -9.98239 -7.4505)"/><path d="M429.434 221.949 429.434 249.88 540.16 249.88 540.16 221.949" stroke="#000000" stroke-width="3.11929" stroke-miterlimit="8" fill="none" fill-rule="evenodd" transform="matrix(1.00072 0 0 1 -9.98239 -7.4505)"/></g></svg>